/* XPM */
static char * bomb_xpm[] = {
"64 64 400 2",
"  	c #7D5E6B",
". 	c #84636E",
"+ 	c #896972",
"@ 	c #8B6C73",
"# 	c #8B6C74",
"$ 	c #8C7076",
"% 	c #8F7679",
"& 	c #91797B",
"* 	c #735A68",
"= 	c #6E5967",
"- 	c #946672",
"; 	c #A4727A",
"> 	c #AD8082",
", 	c #B18786",
"' 	c #B18787",
") 	c #B48E8B",
"! 	c #BA9A93",
"~ 	c #BDA098",
"{ 	c #B18887",
"] 	c #B28887",
"^ 	c #7C5D6A",
"/ 	c #6C5866",
"( 	c #A5737B",
"_ 	c #B78285",
": 	c #C08E8C",
"< 	c #C39490",
"[ 	c #C69A94",
"} 	c #CBA59C",
"| 	c #CDAAA0",
"1 	c #CEAAA0",
"2 	c #C69A95",
"3 	c #C08F8D",
"4 	c #B88285",
"5 	c #A5747B",
"6 	c #85636E",
"7 	c #6D5967",
"8 	c #AE8183",
"9 	c #C3938F",
"0 	c #C49490",
"a 	c #C49590",
"b 	c #C59792",
"c 	c #C79B95",
"d 	c #C89D96",
"e 	c #6D5867",
"f 	c #C1928F",
"g 	c #BF8E8C",
"h 	c #C1918E",
"i 	c #C1928E",
"j 	c #BD8B8B",
"k 	c #BD8B8A",
"l 	c #C2928F",
"m 	c #BF918E",
"n 	c #B68B89",
"o 	c #A37D7F",
"p 	c #846870",
"q 	c #6D5866",
"r 	c #B37B81",
"s 	c #B37A81",
"t 	c #9C787C",
"u 	c #8B6D74",
"v 	c #8A6C73",
"w 	c #846871",
"x 	c #765F6A",
"y 	c #B98587",
"z 	c #C29491",
"A 	c #C29591",
"B 	c #B47E83",
"C 	c #B68286",
"D 	c #B78588",
"E 	c #B78B89",
"F 	c #8A6A72",
"G 	c #866670",
"H 	c #80626D",
"I 	c #755C69",
"J 	c #C9A39B",
"K 	c #C0928F",
"L 	c #C59D97",
"M 	c #C8A39B",
"N 	c #AF8384",
"O 	c #AA7B7F",
"P 	c #9B6F77",
"Q 	c #80616D",
"R 	c #CBA49C",
"S 	c #BD8989",
"T 	c #AB7B7F",
"U 	c #876670",
"V 	c #C49792",
"W 	c #C69B95",
"X 	c #C79D96",
"Y 	c #B08484",
"Z 	c #BE908D",
"` 	c #B38887",
" .	c #AB8382",
"..	c #946572",
"+.	c #A47D7F",
"@.	c #83666E",
"#.	c #6B5562",
"$.	c #83666D",
"%.	c #A37D7E",
"&.	c #886A71",
"*.	c #81656E",
"=.	c #755C68",
"-.	c #655160",
";.	c #5B4A5B",
">.	c #755C67",
",.	c #80646D",
"'.	c #886971",
").	c #745767",
"!.	c #5B4A5C",
"~.	c #58475B",
"{.	c #6A5162",
"].	c #765A67",
"^.	c #7B5F6A",
"/.	c #745B67",
"(.	c #6A5562",
"_.	c #8F7579",
":.	c #BA9A94",
"<.	c #A97D80",
"[.	c #966872",
"}.	c #745162",
"|.	c #4D3D54",
"1.	c #4E3E54",
"2.	c #755363",
"3.	c #986A73",
"4.	c #A27C7E",
"5.	c #BA9993",
"6.	c #B18484",
"7.	c #88626D",
"8.	c #5E485B",
"9.	c #453B53",
"0.	c #88636D",
"a.	c #B18384",
"b.	c #B28886",
"c.	c #BD908C",
"d.	c #C0928D",
"e.	c #B48887",
"f.	c #A18384",
"g.	c #878286",
"h.	c #748086",
"i.	c #6D7A82",
"j.	c #636F7B",
"k.	c #566172",
"l.	c #706471",
"m.	c #9B797D",
"n.	c #BF8D8C",
"o.	c #AF8484",
"p.	c #86686F",
"q.	c #828084",
"r.	c #9FB0AD",
"s.	c #A8BFBC",
"t.	c #9CB5B5",
"u.	c #8AA3A9",
"v.	c #728A98",
"w.	c #667285",
"x.	c #706472",
"y.	c #8F6E73",
"z.	c #B48987",
"A.	c #BF918D",
"B.	c #B38886",
"C.	c #8E6C71",
"D.	c #59485A",
"E.	c #6B737A",
"F.	c #9AACAA",
"G.	c #A8BFBB",
"H.	c #8AA3A8",
"I.	c #728A97",
"J.	c #5B6D80",
"K.	c #494E64",
"L.	c #695360",
"M.	c #997577",
"N.	c #B47D83",
"O.	c #BC8C8C",
"P.	c #C39793",
"Q.	c #644F5E",
"R.	c #483D54",
"S.	c #535463",
"T.	c #6C757C",
"U.	c #6E7A82",
"V.	c #63707B",
"W.	c #4B5166",
"X.	c #434259",
"Y.	c #4D4156",
"Z.	c #6A5361",
"`.	c #CAA59D",
" +	c #CCA89F",
".+	c #BB8B89",
"++	c #B18585",
"@+	c #9C7B7E",
"#+	c #746B76",
"$+	c #576273",
"%+	c #596475",
"&+	c #5A6576",
"*+	c #5B6676",
"=+	c #5B6576",
"-+	c #5A6475",
";+	c #586273",
">+	c #555F71",
",+	c #50596D",
"'+	c #4C5369",
")+	c #484B65",
"!+	c #6C5B6C",
"~+	c #9A777B",
"{+	c #756C77",
"]+	c #73828F",
"^+	c #77909D",
"/+	c #7C94A1",
"(+	c #7D95A2",
"_+	c #7C95A2",
":+	c #7B93A0",
"<+	c #778F9D",
"[+	c #718998",
"}+	c #688092",
"|+	c #5F748A",
"1+	c #566682",
"2+	c #595B77",
"3+	c #6C5B6D",
"4+	c #C49692",
"5+	c #C29792",
"6+	c #B48B88",
"7+	c #9A787C",
"8+	c #637483",
"9+	c #7F9AA4",
"0+	c #91AFB7",
"a+	c #9AB6BD",
"b+	c #99B5BC",
"c+	c #91AEB8",
"d+	c #8EABB6",
"e+	c #92AFB8",
"f+	c #90AEB7",
"g+	c #89A7B2",
"h+	c #819EAC",
"i+	c #7895A5",
"j+	c #6E899D",
"k+	c #637A94",
"l+	c #586885",
"m+	c #4C5470",
"n+	c #706371",
"o+	c #76909D",
"p+	c #92AFB5",
"q+	c #A7C4C5",
"r+	c #B3CECC",
"s+	c #AEC9C9",
"t+	c #92B0B9",
"u+	c #9CBABF",
"v+	c #87A4B1",
"w+	c #809EAC",
"x+	c #7895A6",
"y+	c #637A92",
"z+	c #706572",
"A+	c #58687C",
"B+	c #6B8495",
"C+	c #86A3AD",
"D+	c #A3C0C2",
"E+	c #B4D1CD",
"F+	c #BBD7D1",
"G+	c #9BB7BD",
"H+	c #92AFB9",
"I+	c #9BB9BE",
"J+	c #8AA8B4",
"K+	c #86A4B1",
"L+	c #7F9DAB",
"M+	c #7491A2",
"N+	c #69859A",
"O+	c #617892",
"P+	c #576682",
"Q+	c #484C65",
"R+	c #6A5461",
"S+	c #997578",
"T+	c #BE918D",
"U+	c #B48886",
"V+	c #906E73",
"W+	c #6A8395",
"X+	c #7794A3",
"Y+	c #92AEB6",
"Z+	c #B0CCC9",
"`+	c #A8C5C5",
" @	c #96B3BB",
".@	c #8CA9B5",
"+@	c #8AA7B4",
"@@	c #83A0AE",
"#@	c #7592A3",
"$@	c #6C899D",
"%@	c #698499",
"&@	c #4E4156",
"*@	c #6A5360",
"=@	c #AD8383",
"-@	c #755C66",
";@	c #4E576B",
">@	c #637B8E",
",@	c #7390A2",
"'@	c #95B1B8",
")@	c #ADC8C7",
"!@	c #A8C5C6",
"~@	c #91AFB8",
"{@	c #85A2AF",
"]@	c #7693A4",
"^@	c #6D8B9E",
"/@	c #6D8A9D",
"(@	c #4E576C",
"_@	c #3F3851",
":@	c #3E3650",
"<@	c #AD8483",
"[@	c #B18686",
"}@	c #9D777A",
"|@	c #6B5462",
"1@	c #83A1AE",
"2@	c #8FACB6",
"3@	c #647B8E",
"4@	c #9D787B",
"5@	c #7C616B",
"6@	c #4E566B",
"7@	c #85A2B0",
"8@	c #7D626B",
"9@	c #91787B",
"0@	c #927C7E",
"a@	c #948183",
"b@	c #86757A",
"c@	c #605462",
"d@	c #8BA8B5",
"e@	c #BD9F97",
"f@	c #BFA59D",
"g@	c #C4B0A7",
"h@	c #AFA09A",
"i@	c #776C72",
"j@	c #6C5662",
"k@	c #9D797B",
"l@	c #D0AFA5",
"m@	c #D4B9AF",
"n@	c #BDA8A0",
"o@	c #7F7075",
"p@	c #C89F99",
"q@	c #CAA39C",
"r@	c #B4928F",
"s@	c #79646C",
"t@	c #7997A6",
"u@	c #718FA0",
"v@	c #69849A",
"w@	c #4C536A",
"x@	c #3E3750",
"y@	c #765C66",
"z@	c #AE8483",
"A@	c #6E8B9E",
"B@	c #627892",
"C@	c #3F3750",
"D@	c #C39390",
"E@	c #AC8282",
"F@	c #745A65",
"G@	c #44435F",
"H@	c #4D5573",
"I@	c #6C899C",
"J@	c #586985",
"K@	c #4D5674",
"L@	c #745B66",
"M@	c #413C55",
"N@	c #4D5470",
"O@	c #44445F",
"P@	c #4D5574",
"Q@	c #403B55",
"R@	c #B28686",
"S@	c #BA8B89",
"T@	c #B68A89",
"U@	c #9C797C",
"V@	c #BB9490",
"W@	c #A18483",
"X@	c #8C6F75",
"Y@	c #C9A29B",
"Z@	c #C9A89E",
"`@	c #C2A39A",
" #	c #C0918E",
".#	c #9A7578",
"+#	c #CEABA0",
"@#	c #AD8484",
"##	c #9D797C",
"$#	c #9E797C",
"%#	c #7D5D6B",
"&#	c #968486",
"*#	c #936572",
"=#	c #C6B5AC",
"-#	c #C6B5AD",
";#	c #B28787",
">#	c #A4737B",
",#	c #D6BEB3",
"'#	c #D6BEB4",
")#	c #AD8183",
"!#	c #CBA59F",
"~#	c #A27D7F",
"{#	c #836770",
"]#	c #C0908E",
"^#	c #BB898A",
"/#	c #C39792",
"(#	c #B88E8B",
"_#	c #A08081",
":#	c #7F616C",
"<#	c #C49893",
"[#	c #C79F98",
"}#	c #BE9C95",
"|#	c #AA7A7F",
"1#	c #9A6F77",
"2#	c #BC8989",
"3#	c #C1908E",
"  . + @ # @ @ @ @ $ % & & & & & & & & % $ @ @ $ % % $ @ @ @ @ @ @ @ @ @ @ @ @ @ @ @ @ @ @ @ @ @ @ @ @ @ @ @ @ @ @ # @ + .   * = ",
"- ; > , ' , , , , ) ! ~ ~ ~ ~ ~ ~ ~ ~ ! ) , , ) ! ! ) , , { ] ] { ' , , , , , , , , , , , , , , , , , , , , , , , ' , > ; - ^ / ",
"( _ : < < < < < < [ } | 1 | | | | 1 | } [ < < 2 } } 2 < < < < < < < < < < < < < < < < < < < < < < < < < < < < < < < < 3 4 5 6 7 ",
"8 : 9 0 a 0 0 0 0 b c d d d d d d d d c b 0 0 b c c b 0 0 0 0 0 0 0 0 0 0 0 0 0 0 0 0 0 0 0 0 0 0 0 0 0 0 0 0 0 0 a 0 9 : 8 + e ",
"] < 0 < < < < < < < < < < < < < < < < < < < < < < < < < < < < < < < < < < < < f g g h i g j k k k k k k j g l < < m n ] , o p q ",
"] < a < < < < < < < < < < < < < < < < < < < < < < < < < < < < < < < < < < < < g _ 4 g g 4 r s r r r r s r _ g < < n t u v w x q ",
"] < 0 < < < < < < < < < < < < < < < < < < < < < < < < < < < < < < < < < < < < g _ y z A y B C D D D D C B _ g < < E t F G H I q ",
"] < 0 < < < < < < < < < < < < < < < < < < < < < < < < < < < < < < < < < < < < h g A J J A K L M M M M L K g i < < m n N O P Q q ",
"] < 0 < < < < < < < < < < < < < < < < < < < < < < < < < < < < < < < < < < < < < < 2 } R 2 [ R | 1 1 | } [ < < < < < < h S T U q ",
"] < 0 < < < < < < < < < < < < < < < < < < < < < < < < < < < < < < < < < < < < < < V 2 2 V V W X X X X W V < < < < < < < h Y F q ",
"] < a < < < < < < < < < < < < < < < < < < < < < < < < < < < < < < < < < < < < < < < < < < < < < < < < < < < < < < < < a < ] # q ",
"] < 0 < < < < < < < < < < < < < < < < < < < < < < < < < < < < < < < < < < < < < < < < < < < < < < < < < < < < < < < < a < ] # q ",
"8 : 9 0 a 0 0 0 0 0 0 0 0 0 0 0 0 0 0 0 0 0 0 0 0 0 0 0 0 0 0 0 0 0 0 0 0 0 0 0 0 0 0 0 0 0 0 0 0 0 0 0 0 0 0 0 0 a 0 9 : 8 + e ",
"( _ : < < < < < < < < < < < < < < < < < < < < < < < < < < < < Z `  . .` Z < < < < < < < < < < < < < < < < < < < < < < : _ ( . 7 ",
"..; > , , , , , , , , , , , , , , , , , , , , , , , , , ' { ] +.@.#.#.$.%., , , , , , , , , , , , , , , , , , , , ' , > ; - ^ / ",
"  . + @ # @ @ @ @ @ @ @ @ @ @ @ @ @ @ @ @ @ @ @ @ @ @ @ @ &.*.=.-.;.;.-.>.,.'.@ @ @ @ @ @ @ @ @ @ @ @ @ @ @ @ @ @ # @ + .   * = ",
"% & & & & % $ @ @ @ @ @ @ @ @ @ @ @ @ @ @ @ @ @ @ # @ + . ).!.~.{.].^./.-.(.,.$ % _.$ $ _.& & & & & & & & % $ @ @ @ @ @ @ @ @ @ ",
":.~ ~ ~ ~ ! ) , , , , , , , , , , , , , , , , , , ' , <.[.}.|.1.2.3.<.%.@.$.4.) ! 5.) ) 5.~ ~ ~ ~ ~ ~ ~ ~ ! ) , , , , , ' { ] ] ",
"} | 1 1 | } [ < < < < < < < < < < < < < < < < < < < < 6.7.8.9.9.8.0.a.Z ` b.c.2 } R 2 [ R | 1 | | | | 1 | } [ < < < < < < < < < ",
"c d d d d c b 0 0 0 0 0 0 0 0 0 0 0 0 0 0 0 0 0 0 d.e.f.g.h.i.j.k.l.m.e.d.0 0 b c c b b c d d d d d d d d c b 0 0 0 0 0 0 0 0 0 ",
"< < < < < < < < < < < < < i g j k n.h h g g f < < o.p.q.r.s.t.u.v.w.x.y.z.< < < < < < < < < < < < < < < < < < < < < < < < < < < ",
"< < < < < < < < < < < < < g _ s s 4 g g 4 _ g A.B.C.D.E.F.G.t.H.I.J.K.L.M.` m < < < < < < < < < < < < < < < < < < < < < < < < < ",
"< < < < < < < < < < < V 2 A y N.C O.P.z y _ g ` y.Q.R.S.T.h.U.V.k.W.X.Y.Z.y.` < < < < < < < < < < < < < < < < < < < < < < < < < ",
"< < < < < < < < < < < 2 } J z K L `. +J z .+++@+#+$+%+&+*+*+=+-+;+>+,+'+)+!+~+` A.< < < < < < < < < < < < < < < < < < < < < < < ",
"< < < < < < < < < < < 2 } R 2 [ R 1 1 } [ B.y.{+]+^+/+(+_+/+/+:+<+[+}+|+1+2+3+y.` < < < < < < < < < < < < < < < < < < < < < < < ",
"< < < < < < < < < < < 4+2 2 V V W X X 5+6+7+x.8+9+0+a+b+c+d+e+f+g+h+i+j+k+l+m+3+~+` m < < < < < < < < < < < < < < < < < < < < < ",
"< < < < < < < < < < < < < < < < < < < B.y.n+w.o+p+q+r+s+a+t+u+u+c+v+w+x+j+y+l+2+!+y.` < < < < < < < < < < < < < < < < < < < < < ",
"< < < < < < < < < < < < < < < < < Z ` m.z+A+B+C+D+E+F+r+G+H+I+u+H+J+K+L+M+N+O+P+Q+R+S+` T+< < < < < < < < < < < < < < < < < < < ",
"0 0 0 0 0 0 0 0 0 0 0 0 0 0 0 0 0 U+V+x.w.W+X+Y+Z+F+E+`+ @d+e+H+d+.@+@@@#@$@%@|+'+&@*@V+e.0 0 0 0 0 0 0 0 0 0 0 0 0 0 0 0 0 0 0 ",
"< < < < < < < < < < < < < < < < < =@-@;@>@,@L+'@)@r+!@u+~@.@.@.@.@.@.@{@]@^@/@>@(@_@:@-@<@< < < < < < < < < < < < < < < < < < < ",
"{ ' , , , , , , , , , , , , , , [@}@|@;@>@#@1@2@b+G+ @~@d+.@.@.@.@.@.@{@]@^@/@3@(@_@:@#.4@, , , , , , , , , , , , , , , ' { ] ] ",
"@ @ @ @ @ @ @ @ @ @ @ @ @ @ @ @ @ 5@;.6@>@]@7@.@.@.@.@.@.@.@.@.@.@.@.@{@]@^@/@>@(@_@:@;.8@@ @ @ @ @ @ @ @ @ @ @ @ @ @ @ @ @ @ @ ",
"  . + @ # @ @ $ % _.$ $ _.9@& 0@a@b@c@6@>@]@7@.@.@d@.@.@.@.@.@.@.@.@.@{@]@^@/@>@(@_@:@;.8@@ @ @ @ @ @ @ @ @ @ @ @ # @ + .   * = ",
"- ; > , ' , , ) ! 5.) ) 5.e@~ f@g@h@i@;@>@#@1@+@.@.@.@.@.@.@.@.@.@.@+@@@#@^@/@3@(@_@:@j@k@, , , , , , , , , , , , ' , > ; - ^ / ",
"( _ : < < < < 2 } R 2 [ R | 1 l@m@n@o@;@>@M+L+v+J+.@.@.@.@.@.@.@.@J+v+L+M+^@/@>@(@_@:@-@<@< < < < < < < < < < < < < < : _ ( . 7 ",
"8 : 9 0 a 0 0 b c c b b c d d p@q@r@s@'+|+j+x+h+v+J+.@.@.@.@.@.@J+v+w+t@u@$@v@|+w@_@x@y@z@0 0 0 0 0 0 0 0 0 0 0 0 a 0 9 : 8 + e ",
"] < 0 < < < < < < < < < < < < < < =@-@Q+1+k+j+i+h+v++@.@.@.@.@+@v+w+i+u@A@N+B@P+Q+_@C@-@<@< < < < < < < < < < < < < < a < ] # q ",
"] < a < < < < < < < < < < < < < D@E@F@G@H@l+y+j+i+L+@@{@{@{@{@@@L+t@u@I@v@y+J@K@G@_@C@L@=@< < < < < < < < < < < < < < a < ] # q ",
"] < 0 < < < < < < < < < < < < < < <@-@M@G@m+l+k+j+M+#@]@]@]@]@#@M+u@A@v@B@J@N@O@M@_@_@-@<@< < < < < < < < < < 0 0 a 0 < h Y F q ",
"] < 0 < < < < < < < < < < < < < < ` y.*@Y.G@P@J@y+N+$@^@^@^@^@^@^@$@N+y+J@K@G@_@C@Y.R+y.` < < < < < < < < < < < < < < h S T U q ",
"] < 0 < < < < < < < < < < < < < < T+` S+*@Q@G@m+l+O+%@/@/@/@/@/@/@v@B@J@N@G@Q@C@_@R+S+R@S@j j g i h g g h Z T@, , ' , N O P Q q ",
"] < 0 < < < < < < < < < < < < < < < < ` y.*@Y.O@P@P+|+>@3@>@>@3@>@|+P+K@O@_@C@Y.R+y.` g _ s s 4 g g 4 4 g n U@@ v # @ F U H I q ",
"] < a < < < < < < < < < < < < < < < < m ` S+*@M@G@Q+w@(@(@(@(@(@(@w@Q+G@M@C@_@R+S+` m g _ s s y A z y y z V@W@% X@@ @ u u w x q ",
"] < 0 < < < < < < < < < < < < < < < < < < ` y.R+Y._@_@_@_@_@_@_@_@_@_@_@_@Y.R+y.` < < l g k j A J Y@A z Y@Z@`@! ) , , ] ' o p q ",
"8 : 9 0 a 0 0 0 0 0 0 0 0 0 0 0 0 0 0 0 0  #e..#*@C@x@:@:@:@:@:@:@x@C@C@_@R+.#e. #0 0 0 0 0 0 c } } c W } +#+#} W a 0 9 : 8 + e ",
"( _ : < < < < < < < < < < < < < < < < < < < < ` y.-@L@-@-@-@-@-@-@-@-@L@-@y.` < < < < < < < < V 2 2 V V 2 X X c b a 0 3 4 5 6 7 ",
"- ; > , ' , , , , , , , , , , , , , , , , , , @#%.k@4@k@####$#$#####k@4@k@%.@#, , , , , , , , , , , [@[@[@[@[@[@, , , > ; - ^ / ",
"  . + @ # @ @ @ @ @ @ @ @ @ @ @ @ @ @ @ @ @ @ @ @ @ @ @ @ @ @ @ @ @ @ @ @ @ @ @ @ @ @ @ @ @ @ @ @ @ @ @ @ @ @ @ @ # @ + .   * = ",
"@ @ @ @ @ @ @ @ @ @ @ @ @ @ @ @ @ @ @ @ @ @ @ @ @ # @ + . %#* * %#. + @ # @ @ $ % _.$ $ _.& & 9@& 0@a@&#&#&#&#a@0@& 9@% $ @ @ @ ",
"{ ' , , , , , , , , , , , , , , , , , , , , , , , ' , > ; *#^ ^ *#; > , ' , , ) ! 5.) ) 5.~ ~ e@~ f@g@=#-#-#=#g@f@~ e@! ) { ;#] ",
"< < < < < < < < < < < < < < < < < < < < < < < < < a 0 3 4 ( 6 . >#_ : < < < < 2 } R 2 [ R | 1 | | l@m@,#'#'#,#m@l@1 | } [ < < < ",
"0 0 0 0 0 0 0 0 0 0 0 0 0 0 0 0 0 0 0 0 0 0 0 0 0 a 0 9 : )#+ + )#: 9 0 a 0 0 b c c b b c d d d d p@q@!#!#!#!#q@p@d d c b 0 0 0 ",
"< < < < < < < l g j k k j g l < < f n.n.h < < m T@, , ] ' ~#p @ ' < 0 < < < < < < < < < < < < < < < < < < < < < < < < < < < < < ",
"< < < < < < < g _ r s s r _ g < < g _ _ g < < n t @ v u u {#x # ] < a < < < < < < < < < < < < < < < D@9 9 9 9 D@< < < < < < < < ",
"< < < < < < < g _ B C C B _ g < < ]#^#O./#W V (#_#% X@F U :#I @ ] < 0 < < < < < < < < < < < < < < < < < < < < < < < < < < < < < ",
"< < < < < < < i g K L L K g i < < <#[#`. +} [ 5+}#! ) N |#1#Q @ ' < 0 < < < < < < < < < < < < < < < < < < < < < < < < < < < < < ",
"< < < < < < < < < 2 } } 2 < < < < [ } 1 1 R [ 2 R } 2 h 2#O U @ ' < 0 < < < < < < < < < < < < < < < < < < < < < < < < < < < < < ",
"< < < < < < < < < V W W V < < < < 4+W X X [ 4+4+W c b < 3#N F @ , < 0 < < < < < < < < < < < < < < < < < < < < < < < < < < < < < ",
"< < < < < < < < < < < < < < < < < < < < < < < < < < < a < ' # # ' < a < < < < < < < < < < < < < < < < < < < < < < < < < < < < < ",
"< < < < < < < < < < < < < < < < < < < < < < < < < < < a < ' # @ , < 0 < < < < < < < < < < < < < < < < < < < < < < < < < < < < < ",
"0 0 0 0 0 0 0 0 0 0 0 0 0 0 0 0 0 0 0 0 0 0 0 0 0 a 0 9 : )#+ + )#: 9 0 a 0 0 0 0 0 0 0 0 0 0 0 0 0 0 0 0 0 0 0 0 0 0 0 0 0 0 0 ",
"< < < < < < < < < < < < < < < < < < < < < < < < < < < : _ >#. . >#_ : < < < < < < < < < < < < < < < < < < < < < < < < < < < < < ",
"{ ' , , , , , , , , , , , , [@[@[@[@, , , , , , , , , > ; *#^ ^ *#; > , ' , , , , , , , , , , , , , , , , , , , , , , , ' { ] ] ",
"@ @ @ @ @ @ @ @ @ @ @ @ @ @ @ @ @ @ @ @ @ @ @ @ @ # @ + . %#* * %#. + @ # @ @ @ @ @ @ @ @ @ @ @ @ @ @ @ @ @ @ @ @ @ @ @ @ @ @ @ "};
