/* XPM */
static char * canon_ball_xpm[] = {
"64 64 368 2",
"  	c #7D5E6B",
". 	c #84636E",
"+ 	c #896972",
"@ 	c #8B6C73",
"# 	c #8B6C74",
"$ 	c #8C7076",
"% 	c #8F7679",
"& 	c #91797B",
"* 	c #735A68",
"= 	c #6E5967",
"- 	c #946672",
"; 	c #A4727A",
"> 	c #AD8082",
", 	c #B18786",
"' 	c #B18787",
") 	c #B48E8B",
"! 	c #BA9A93",
"~ 	c #BDA098",
"{ 	c #B18887",
"] 	c #B28887",
"^ 	c #7C5D6A",
"/ 	c #6C5866",
"( 	c #A5737B",
"_ 	c #B78285",
": 	c #C08E8C",
"< 	c #C39490",
"[ 	c #C69A94",
"} 	c #CBA59C",
"| 	c #CDAAA0",
"1 	c #CEAAA0",
"2 	c #C69A95",
"3 	c #C08F8D",
"4 	c #B88285",
"5 	c #A5747B",
"6 	c #85636E",
"7 	c #6D5967",
"8 	c #AE8183",
"9 	c #C3938F",
"0 	c #C49490",
"a 	c #C49590",
"b 	c #C59792",
"c 	c #C79B95",
"d 	c #C89D96",
"e 	c #6D5867",
"f 	c #C1928F",
"g 	c #BF8E8C",
"h 	c #C1918E",
"i 	c #C1928E",
"j 	c #BD8B8B",
"k 	c #BD8B8A",
"l 	c #C2928F",
"m 	c #BF918E",
"n 	c #B68B89",
"o 	c #A37D7F",
"p 	c #846870",
"q 	c #6D5866",
"r 	c #B37B81",
"s 	c #B37A81",
"t 	c #9C787C",
"u 	c #8B6D74",
"v 	c #8A6C73",
"w 	c #846871",
"x 	c #765F6A",
"y 	c #B98587",
"z 	c #C29491",
"A 	c #C29591",
"B 	c #B47E83",
"C 	c #B68286",
"D 	c #B78588",
"E 	c #B78B89",
"F 	c #8A6A72",
"G 	c #866670",
"H 	c #80626D",
"I 	c #755C69",
"J 	c #C9A39B",
"K 	c #C0928F",
"L 	c #C59D97",
"M 	c #C8A39B",
"N 	c #AF8384",
"O 	c #AA7B7F",
"P 	c #9B6F77",
"Q 	c #80616D",
"R 	c #CBA49C",
"S 	c #BD8989",
"T 	c #AB7B7F",
"U 	c #876670",
"V 	c #C49792",
"W 	c #C69B95",
"X 	c #C79D96",
"Y 	c #B08484",
"Z 	c #946572",
"` 	c #7D5D6B",
" .	c #8F7579",
"..	c #BA9A94",
"+.	c #936572",
"@.	c #BA9993",
"#.	c #A4737B",
"$.	c #AD8183",
"%.	c #BF8D8C",
"&.	c #A27D7F",
"*.	c #836770",
"=.	c #B47D83",
"-.	c #BC8C8C",
";.	c #C39793",
">.	c #7F616C",
",.	c #CAA59D",
"'.	c #CCA89F",
").	c #9A6F77",
"!.	c #C49692",
"~.	c #BE908D",
"{.	c #B38886",
"].	c #AA7E7F",
"^.	c #A27379",
"/.	c #926671",
"(.	c #765966",
"_.	c #AC8382",
":.	c #AD8383",
"<.	c #B38887",
"[.	c #B18686",
"}.	c #83666D",
"|.	c #6A5261",
"1.	c #654C5D",
"2.	c #5E475B",
"3.	c #544458",
"4.	c #664C5E",
"5.	c #6B5562",
"6.	c #6C5663",
"7.	c #A37D7E",
"8.	c #886A71",
"9.	c #81646D",
"0.	c #74606D",
"a.	c #616170",
"b.	c #576273",
"c.	c #596475",
"d.	c #5A6576",
"e.	c #5B6676",
"f.	c #5A6575",
"g.	c #586373",
"h.	c #555F71",
"i.	c #50596D",
"j.	c #4C5369",
"k.	c #484B65",
"l.	c #584F65",
"m.	c #715B69",
"n.	c #91787B",
"o.	c #927C7E",
"p.	c #948183",
"q.	c #968486",
"r.	c #846C72",
"s.	c #6B5763",
"t.	c #626271",
"u.	c #6E808E",
"v.	c #778F9D",
"w.	c #7B94A0",
"x.	c #7D95A2",
"y.	c #7B93A0",
"z.	c #718998",
"A.	c #688091",
"B.	c #5F748A",
"C.	c #566681",
"D.	c #535875",
"E.	c #6A5562",
"F.	c #BD9F97",
"G.	c #BFA59D",
"H.	c #C4B0A7",
"I.	c #C6B5AC",
"J.	c #C6B5AD",
"K.	c #C0ACA4",
"L.	c #B09792",
"M.	c #947C7E",
"N.	c #6A6270",
"O.	c #637483",
"P.	c #7F9AA4",
"Q.	c #91AFB7",
"R.	c #9AB6BD",
"S.	c #9AB5BC",
"T.	c #91AEB8",
"U.	c #8AA7B4",
"V.	c #86A4B1",
"W.	c #819EAC",
"X.	c #7895A5",
"Y.	c #6E899D",
"Z.	c #637A94",
"`.	c #586885",
" +	c #4C5470",
".+	c #65576A",
"++	c #8D6E75",
"@+	c #AD8484",
"#+	c #D0AFA5",
"$+	c #D4B9AF",
"%+	c #D6BEB3",
"&+	c #D6BEB4",
"*+	c #C3AAA2",
"=+	c #988080",
"-+	c #736974",
";+	c #667385",
">+	c #76909D",
",+	c #92AFB5",
"'+	c #A7C4C5",
")+	c #B3CECC",
"!+	c #AFC9C9",
"~+	c #8CA9B5",
"{+	c #87A4B1",
"]+	c #7895A6",
"^+	c #637A92",
"/+	c #595B77",
"(+	c #6C5B6C",
"_+	c #8F6E73",
":+	c #C89F99",
"<+	c #CAA39C",
"[+	c #CBA59F",
"}+	c #C6A19C",
"|+	c #BA9794",
"1+	c #A08485",
"2+	c #726875",
"3+	c #58687C",
"4+	c #6B8495",
"5+	c #86A3AD",
"6+	c #A3C0C2",
"7+	c #B4D1CD",
"8+	c #BBD7D1",
"9+	c #9BB7BD",
"0+	c #8BA8B5",
"a+	c #8AA8B4",
"b+	c #7F9DAB",
"c+	c #7491A2",
"d+	c #69859A",
"e+	c #617892",
"f+	c #576682",
"g+	c #484C65",
"h+	c #6A5461",
"i+	c #9A7578",
"j+	c #B48887",
"k+	c #BF918D",
"l+	c #706472",
"m+	c #667285",
"n+	c #6A8395",
"o+	c #7794A3",
"p+	c #92AEB6",
"q+	c #B0CCC9",
"r+	c #A8C5C6",
"s+	c #96B3BB",
"t+	c #83A0AE",
"u+	c #7592A3",
"v+	c #6C899D",
"w+	c #698499",
"x+	c #4D4156",
"y+	c #695360",
"z+	c #C39390",
"A+	c #AD8282",
"B+	c #755B66",
"C+	c #4E576B",
"D+	c #637B8E",
"E+	c #7390A2",
"F+	c #95B1B8",
"G+	c #ADC8C7",
"H+	c #9CBABF",
"I+	c #91AFB8",
"J+	c #85A2AF",
"K+	c #7693A4",
"L+	c #6D8B9E",
"M+	c #6D8A9D",
"N+	c #4E576C",
"O+	c #3F3851",
"P+	c #3E3650",
"Q+	c #755C66",
"R+	c #AD8483",
"S+	c #745B66",
"T+	c #83A1AE",
"U+	c #8FACB6",
"V+	c #99B5BC",
"W+	c #8EABB6",
"X+	c #647B8E",
"Y+	c #4E566B",
"Z+	c #85A2B0",
"`+	c #A97F80",
" @	c #B68A89",
".@	c #735965",
"+@	c #A3747A",
"@@	c #9C797C",
"#@	c #BB9490",
"$@	c #A18483",
"%@	c #8C6F75",
"&@	c #809EAC",
"*@	c #7997A6",
"=@	c #718FA0",
"-@	c #69849A",
";@	c #4C536A",
">@	c #3E3750",
",@	c #C9A29B",
"'@	c #C9A89E",
")@	c #C2A39A",
"!@	c #AE8383",
"~@	c #765C66",
"{@	c #566682",
"]@	c #6E8B9E",
"^@	c #627892",
"/@	c #3F3750",
"(@	c #AE8483",
"_@	c #CEABA0",
":@	c #AC8383",
"<@	c #44435F",
"[@	c #4D5573",
"}@	c #6C899C",
"|@	c #586985",
"1@	c #4D5674",
"2@	c #9D787B",
"3@	c #6C5662",
"4@	c #413C55",
"5@	c #4D5470",
"6@	c #44445F",
"7@	c #9D797B",
"8@	c #81656E",
"9@	c #544558",
"0@	c #453C53",
"a@	c #4D5574",
"b@	c #544559",
"c@	c #705965",
"d@	c #403B55",
"e@	c #56485A",
"f@	c #715C67",
"g@	c #826870",
"h@	c #8C7277",
"i@	c #624E5D",
"j@	c #4B3F55",
"k@	c #4B4055",
"l@	c #665662",
"m@	c #897175",
"n@	c #A68382",
"o@	c #B28787",
"p@	c #997578",
"q@	c #6A5360",
"r@	c #6B5662",
"s@	c #9F8281",
"t@	c #BB9792",
"u@	c #C29792",
"v@	c #906E73",
"w@	c #4E4156",
"x@	c #917074",
"y@	c #B78F8B",
"z@	c #BB8E8C",
"A@	c #A87F81",
"B@	c #8C6C72",
"C@	c #5B4A5C",
"D@	c #5A4A5B",
"E@	c #57485A",
"F@	c #524558",
"G@	c #6D5663",
"H@	c #C0908E",
"I@	c #BB898A",
"J@	c #C39792",
"K@	c #B88E8B",
"L@	c #A08081",
"M@	c #8C7377",
"N@	c #82676F",
"O@	c #7C606B",
"P@	c #795D69",
"Q@	c #735966",
"R@	c #6A5463",
"S@	c #7D626B",
"T@	c #9E797C",
"U@	c #BE918D",
"V@	c #C49893",
"W@	c #C79F98",
"X@	c #BE9C95",
"Y@	c #AA7A7F",
"Z@	c #BC8989",
"`@	c #C1908E",
"  . + @ # @ @ @ @ $ % & & & & & & & & % $ @ @ $ % % $ @ @ @ @ @ @ @ @ @ @ @ @ @ @ @ @ @ @ @ @ @ @ @ @ @ @ @ @ @ @ # @ + .   * = ",
"- ; > , ' , , , , ) ! ~ ~ ~ ~ ~ ~ ~ ~ ! ) , , ) ! ! ) , , { ] ] { ' , , , , , , , , , , , , , , , , , , , , , , , ' , > ; - ^ / ",
"( _ : < < < < < < [ } | 1 | | | | 1 | } [ < < 2 } } 2 < < < < < < < < < < < < < < < < < < < < < < < < < < < < < < < < 3 4 5 6 7 ",
"8 : 9 0 a 0 0 0 0 b c d d d d d d d d c b 0 0 b c c b 0 0 0 0 0 0 0 0 0 0 0 0 0 0 0 0 0 0 0 0 0 0 0 0 0 0 0 0 0 0 a 0 9 : 8 + e ",
"] < 0 < < < < < < < < < < < < < < < < < < < < < < < < < < < < < < < < < < < < f g g h i g j k k k k k k j g l < < m n ] , o p q ",
"] < a < < < < < < < < < < < < < < < < < < < < < < < < < < < < < < < < < < < < g _ 4 g g 4 r s r r r r s r _ g < < n t u v w x q ",
"] < 0 < < < < < < < < < < < < < < < < < < < < < < < < < < < < < < < < < < < < g _ y z A y B C D D D D C B _ g < < E t F G H I q ",
"] < 0 < < < < < < < < < < < < < < < < < < < < < < < < < < < < < < < < < < < < h g A J J A K L M M M M L K g i < < m n N O P Q q ",
"] < 0 < < < < < < < < < < < < < < < < < < < < < < < < < < < < < < < < < < < < < < 2 } R 2 [ R | 1 1 | } [ < < < < < < h S T U q ",
"] < 0 < < < < < < < < < < < < < < < < < < < < < < < < < < < < < < < < < < < < < < V 2 2 V V W X X X X W V < < < < < < < h Y F q ",
"] < a < < < < < < < < < < < < < < < < < < < < < < < < < < < < < < < < < < < < < < < < < < < < < < < < < < < < < < < < a < ] # q ",
"] < 0 < < < < < < < < < < < < < < < < < < < < < < < < < < < < < < < < < < < < < < < < < < < < < < < < < < < < < < < < a < ] # q ",
"8 : 9 0 a 0 0 0 0 0 0 0 0 0 0 0 0 0 0 0 0 0 0 0 0 0 0 0 0 0 0 0 0 0 0 0 0 0 0 0 0 0 0 0 0 0 0 0 0 0 0 0 0 0 0 0 0 a 0 9 : 8 + e ",
"( _ : < < < < < < < < < < < < < < < < < < < < < < < < < < < < < < < < < < < < < < < < < < < < < < < < < < < < < < < < : _ ( . 7 ",
"Z ; > , , , , , , , , , , , , , , , , , , , , , , , , , ' { ] ] { ' , , , , , , , , , , , , , , , , , , , , , , , ' , > ; - ^ / ",
"  . + @ # @ @ @ @ @ @ @ @ @ @ @ @ @ @ @ @ @ @ @ @ @ @ @ @ @ @ @ @ @ @ @ @ @ @ @ @ @ @ @ @ @ @ @ @ @ @ @ @ @ @ @ @ # @ + .   * = ",
"% & & & & % $ @ @ @ @ @ @ @ @ @ @ @ @ @ @ @ @ @ @ # @ + . ` * * ` . + @ # @ @ $ %  .$ $  .& & & & & & & & % $ @ @ @ @ @ @ @ @ @ ",
"..~ ~ ~ ~ ! ) , , , , , , , , , , , , , , , , , , ' , > ; +.^ ^ +.; > , ' , , ) ! @.) ) @.~ ~ ~ ~ ~ ~ ~ ~ ! ) , , , , , ' { ] ] ",
"} | 1 1 | } [ < < < < < < < < < < < < < < < < < < < < 3 4 ( 6 . #._ : < < < < 2 } R 2 [ R | 1 | | | | 1 | } [ < < < < < < < < < ",
"c d d d d c b 0 0 0 0 0 0 0 0 0 0 0 0 0 0 0 0 0 0 a 0 9 : $.+ + $.: 9 0 a 0 0 b c c b b c d d d d d d d d c b 0 0 0 0 0 0 0 0 0 ",
"< < < < < < < < < < < < < i g j k %.h h g g f < < m n ] , &.p @ ' < 0 < < < < < < < < < < < < < < < < < < < < < < < < < < < < < ",
"< < < < < < < < < < < < < g _ s s 4 g g 4 _ g < < n t u v *.x # ] < a < < < < < < < < < < < < < < < < < < < < < < < < < < < < < ",
"< < < < < < < < < < < V 2 A y =.C -.;.z y _ g < < E t F G >.I @ ] < 0 < < < < < < < < < < < < < < < < < < < < < < < < < < < < < ",
"< < < < < < < < < < < 2 } J z K L ,.'.J z g h < < m n N O ).Q @ ' < 0 < < < < < < < < < < < < < < < < < < < < < < < < < < < < < ",
"< < < < < < < < < < < 2 } R 2 [ R 1 1 } [ < < < < < < h S O U @ ' < 0 < < < < < < < < < < < < < < < < < < < < < < < < < < < < < ",
"< < < < < < < < < < < !.2 2 V V W X X 2 V < < < < < < < h N F @ , < 0 < < < < < < < < < < < < < < < < < < < < < < < < < < < < < ",
"< < < < < < < < < < < < < < < < < < < < < < < < < < < a < ' # # ' < a < < < < < < < < < < < < < < < < < < < < < < < < < < < < < ",
"< < < < < < < < < < < < < < < < < < < < < < < < < < < a < ' # @ , < 0 < < < < < < < < < < < < < < < < < < < < < < < < < < < < < ",
"0 0 0 0 0 0 0 0 0 0 0 0 0 0 0 0 0 0 0 0 0 0 0 0 0 a 0 9 : $.+ + $.: 9 0 a 0 0 0 0 0 0 0 0 0 0 0 0 0 0 0 0 0 0 0 0 0 0 0 0 0 0 0 ",
"< < < < < < < < < < < < < < < < < < < < < < < < < ~.{.].^./.(.(./.^.]._.:.<.~.< < < < < < < < < < < < < < < < < < < < < < < < < ",
"{ ' , , , , , , , , , , , , , , [.[.[.[.[.[., , , o }.|.1.2.3.3.2.4.|.5.6.}.7., , , , , , , , , , , , , , , , , , , , , ' { ] ] ",
"@ @ @ @ @ @ @ @ @ @ @ @ @ @ @ @ @ @ @ @ @ @ @ 8.9.0.a.b.c.d.e.f.g.h.i.j.k.l.m.9.8.@ @ @ @ @ @ @ @ @ @ @ @ @ @ @ @ @ @ @ @ @ @ @ ",
"  . + @ # @ @ $ %  .$ $  .n.& o.p.q.q.q.q.p.o.r.s.t.u.v.w.x.x.y.v.z.A.B.C.D.l.E.9.@ @ @ @ @ @ @ @ @ @ @ @ @ @ @ @ # @ + .   * = ",
"- ; > , ' , , ) ! @.) ) @.F.~ G.H.I.J.J.I.K.L.M.N.O.P.Q.R.S.T.U.V.W.X.Y.Z.`. +.+++7.@+, , , , , , , , , , , , , , ' , > ; - ^ / ",
"( _ : < < < < 2 } R 2 [ R | 1 #+$+%+&+&+%+*+=+-+;+>+,+'+)+!+R.~+U.{+W.]+Y.^+`./+(+_+<.< < < < < < < < < < < < < < < < : _ ( . 7 ",
"8 : 9 0 a 0 0 b c c b b c d d :+<+[+[+}+|+1+2+3+4+5+6+7+8+)+9+~+0+a+{+b+c+d+e+f+g+h+i+j+k+0 0 0 0 0 0 0 0 0 0 0 0 a 0 9 : 8 + e ",
"] < 0 < < < < < < < < < < < < < < < < {._+l+m+n+o+p+q+8+7+r+s+~+~+~+U.t+u+v+w+B.j.x+y+_+<.< < < < < < < < < < < < < < a < ] # q ",
"] < a < < < < < < < < < < < < < z+9 9 A+B+C+D+E+b+F+G+)+r+H+I+~+~+~+~+J+K+L+M+D+N+O+P+Q+R+< < < < < < < < < < < < < < a < ] # q ",
"] < 0 < < < < < < < < < < < < < < < < _.S+C+D+u+T+U+V+9+s+I+W+~+~+~+~+J+K+L+M+X+N+O+P+S+:.< < < < < < < < < < 0 0 a 0 < h Y F q ",
"] < 0 < < < < < < < < < < < < < < < < :.Q+Y+D+K+Z+~+~+~+~+~+~+~+~+~+~+J+K+L+M+D+N+O+P+Q+R+< < < < < < < < < < < < < < h S T U q ",
"] < 0 < < < < < < < < < < < < < < < < :.Q+Y+D+K+Z+~+~+0+~+~+~+~+~+~+~+J+K+L+M+D+N+O+P+B+`+j j g i h g g h ~. @, , ' , N O P Q q ",
"] < 0 < < < < < < < < < < < < < < < < :.Q+C+D+u+T+U.~+~+~+~+~+~+~+~+U.t+u+L+M+X+N+O+P+.@+@s s 4 g g 4 4 g n @@@ v # @ F U H I q ",
"] < a < < < < < < < < < < < < < < < < :.Q+C+D+c+b+{+a+~+~+~+~+~+~+a+{+b+c+L+M+D+N+O+P+.@+@s s y A z y y z #@$@% %@@ @ u u w x q ",
"] < 0 < < < < < < < < < < < < < < < < :.Q+j.B.Y.]+W.{+a+~+~+~+~+a+{+&@*@=@v+-@B.;@O+>@B+`+k j A J ,@A z ,@'@)@! ) , , ] ' o p q ",
"8 : 9 0 a 0 0 0 0 0 0 0 0 0 0 0 0 0 0 !@~@g+{@Z.Y.X.W.{+U.~+~+U.{+&@X.=@]@d+^@f+g+O+/@~@(@0 0 c } } c W } _@_@} W a 0 9 : 8 + e ",
"( _ : < < < < < < < < < < < < < < < < :@S+<@[@`.^+Y.X.b+t+J+J+t+b+*@=@}@-@^+|@1@<@O+/@S+:.< < V 2 2 V V 2 X X c b a 0 3 4 5 6 7 ",
"- ; > , ' , , , , , , , , , , , , , , 2@3@4@<@ +`.Z.Y.c+u+K+K+u+c+=@]@-@^@|@5@6@4@O+O+3@7@, , , , , [.[.[.[.[.[., , , > ; - ^ / ",
"  . + @ # @ @ @ @ @ @ @ @ @ @ @ @ @ @ 8@E.9@0@<@a@|@^+d+v+L+L+L+L+v+d+^+|@1@<@O+/@0@b@E.8@@ @ @ @ @ @ @ @ @ @ @ @ # @ + .   * = ",
"@ @ @ @ @ @ @ @ @ @ @ @ @ @ @ @ @ @ @ 8.9.c@9@d@<@ +`.e+w+M+M+M+M+-@^@|@5@<@d@/@O+e@f@g@h@& & n.& o.p.q.q.q.q.p.o.& n.% $ @ @ @ ",
"{ ' , , , , , , , , , , , , , , , , , , , 7.}.i@j@6@a@f+B.D+X+X+D+B.f+1@6@O+/@k@l@m@n@) @.~ ~ F.~ G.H.I.J.J.I.H.G.~ F.! ) { o@] ",
"< < < < < < < < < < < < < < < < < < < < < m <.p@q@4@<@g+;@N+N+N+N+;@g+<@4@/@O+r@s@t@u@[ R | 1 | | #+$+%+&+&+%+$+#+1 | } [ < < < ",
"0 0 0 0 0 0 0 0 0 0 0 0 0 0 0 0 0 0 0 0 0 0 0 j+v@h+w@O+O+O+O+O+O+O+O+O+O+w@h+x@y@c b b c d d d d :+<+[+[+[+[+<+:+d d c b 0 0 0 ",
"< < < < < < < l g j k k j g l < < f %.%.h < < z@A@B@i@/@>@P+P+P+P+>@/@/@O+h+p@<.m < < < < < < < < < < < < < < < < < < < < < < < ",
"< < < < < < < g _ r s s r _ g < < g _ _ g < < n t 9.E.C@D@E@F@C@G@Q+~@S+Q+_+<.< < < < < < < < < < < z+9 9 9 9 z+< < < < < < < < ",
"< < < < < < < g _ B C C B _ g < < H@I@-.J@W V K@L@M@N@O@P@Q@R@S@T@R+(@:.R+<.U@< < < < < < < < < < < < < < < < < < < < < < < < < ",
"< < < < < < < i g K L L K g i < < V@W@,.'.} [ u@X@! ) N Y@).Q @ ' < 0 < < < < < < < < < < < < < < < < < < < < < < < < < < < < < ",
"< < < < < < < < < 2 } } 2 < < < < [ } 1 1 R [ 2 R } 2 h Z@O U @ ' < 0 < < < < < < < < < < < < < < < < < < < < < < < < < < < < < ",
"< < < < < < < < < V W W V < < < < !.W X X [ !.!.W c b < `@N F @ , < 0 < < < < < < < < < < < < < < < < < < < < < < < < < < < < < ",
"< < < < < < < < < < < < < < < < < < < < < < < < < < < a < ' # # ' < a < < < < < < < < < < < < < < < < < < < < < < < < < < < < < ",
"< < < < < < < < < < < < < < < < < < < < < < < < < < < a < ' # @ , < 0 < < < < < < < < < < < < < < < < < < < < < < < < < < < < < ",
"0 0 0 0 0 0 0 0 0 0 0 0 0 0 0 0 0 0 0 0 0 0 0 0 0 a 0 9 : $.+ + $.: 9 0 a 0 0 0 0 0 0 0 0 0 0 0 0 0 0 0 0 0 0 0 0 0 0 0 0 0 0 0 ",
"< < < < < < < < < < < < < < < < < < < < < < < < < < < : _ #.. . #._ : < < < < < < < < < < < < < < < < < < < < < < < < < < < < < ",
"{ ' , , , , , , , , , , , , [.[.[.[., , , , , , , , , > ; +.^ ^ +.; > , ' , , , , , , , , , , , , , , , , , , , , , , , ' { ] ] ",
"@ @ @ @ @ @ @ @ @ @ @ @ @ @ @ @ @ @ @ @ @ @ @ @ @ # @ + . ` * * ` . + @ # @ @ @ @ @ @ @ @ @ @ @ @ @ @ @ @ @ @ @ @ @ @ @ @ @ @ @ "};
