/* XPM */
static char * bottom_xpm[] = {
"64 64 227 2",
"  	c #948474",
". 	c #948A7C",
"+ 	c #948F83",
"@ 	c #937B6D",
"# 	c #927669",
"$ 	c #949186",
"% 	c #927769",
"& 	c #907267",
"* 	c #8D6862",
"= 	c #8A5E5E",
"- 	c #86565B",
"; 	c #774C57",
"> 	c #584053",
", 	c #948877",
"' 	c #948878",
") 	c #DFC79D",
"! 	c #E0D1AB",
"~ 	c #E0D8B8",
"{ 	c #DDB990",
"] 	c #DCB188",
"^ 	c #E0DBBE",
"/ 	c #DDB289",
"( 	c #DAAA84",
"_ 	c #D4997A",
": 	c #CF8871",
"< 	c #C9796A",
"[ 	c #AF6661",
"} 	c #E0CDA3",
"| 	c #E0CEA4",
"1 	c #E0D8B7",
"2 	c #FDDDAA",
"3 	c #FEE6B6",
"4 	c #FEECC2",
"5 	c #FDDCA9",
"6 	c #FCD19D",
"7 	c #FBCA97",
"8 	c #FEEFC8",
"9 	c #F9C393",
"0 	c #F3B68B",
"a 	c #EEA380",
"b 	c #E68D74",
"c 	c #C77166",
"d 	c #855159",
"e 	c #FCD19E",
"f 	c #FEE2AF",
"g 	c #FEE2B0",
"h 	c #FDD29F",
"i 	c #FDD6A4",
"j 	c #FDD8A9",
"k 	c #FCCD9A",
"l 	c #FCCB97",
"m 	c #FDD5A4",
"n 	c #FDD9AC",
"o 	c #FCCB98",
"p 	c #FBC996",
"q 	c #F9C493",
"r 	c #F4B389",
"s 	c #E99478",
"t 	c #C77267",
"u 	c #FDD4A1",
"v 	c #FBCB97",
"w 	c #F6BB8E",
"x 	c #E9977A",
"y 	c #855059",
"z 	c #FBCA96",
"A 	c #FAC896",
"B 	c #F3B389",
"C 	c #E89478",
"D 	c #F4B88C",
"E 	c #EEA581",
"F 	c #E99477",
"G 	c #E48670",
"H 	c #855259",
"I 	c #E89377",
"J 	c #E58771",
"K 	c #E3816E",
"L 	c #F2B389",
"M 	c #F5BA8E",
"N 	c #EDA380",
"O 	c #E48671",
"P 	c #E3806D",
"Q 	c #E27F6D",
"R 	c #C77167",
"S 	c #E37F6D",
"T 	c #E37E6C",
"U 	c #E07969",
"V 	c #C46A62",
"W 	c #834E57",
"X 	c #E27E6D",
"Y 	c #E27E6C",
"Z 	c #D96B60",
"` 	c #BC5A59",
" .	c #7F4654",
"..	c #C87267",
"+.	c #C56A62",
"@.	c #BE5A59",
"#.	c #A44A53",
"$.	c #703E51",
"%.	c #543A51",
"&.	c #3F3851",
"*.	c #3E3851",
"=.	c #3D3851",
"-.	c #3C3851",
";.	c #3A3751",
">.	c #3B3751",
",.	c #473852",
"'.	c #533853",
").	c #5C3854",
"!.	c #613853",
"~.	c #653952",
"{.	c #693B51",
"].	c #6B3B50",
"^.	c #543853",
"/.	c #6F3757",
"(.	c #803758",
"_.	c #893957",
":.	c #913C54",
"<.	c #973F51",
"[.	c #9B414F",
"}.	c #803858",
"|.	c #953959",
"1.	c #9F3C56",
"2.	c #A63F53",
"3.	c #AC4350",
"4.	c #AF444E",
"5.	c #603953",
"6.	c #683A51",
"7.	c #6C3C50",
"8.	c #883957",
"9.	c #9E3C56",
"0.	c #A74053",
"a.	c #AC4250",
"b.	c #AE444F",
"c.	c #883956",
"d.	c #6E3757",
"e.	c #843A57",
"f.	c #943F52",
"g.	c #5A3852",
"h.	c #7D3A54",
"i.	c #903C54",
"j.	c #9A414F",
"k.	c #513753",
"l.	c #6D3757",
"m.	c #833957",
"n.	c #933F52",
"o.	c #933E52",
"p.	c #4B3851",
"q.	c #5C3952",
"r.	c #663A52",
"s.	c #6A3B51",
"t.	c #6A3B50",
"u.	c #663A51",
"v.	c #5E3853",
"w.	c #533753",
"x.	c #463852",
"y.	c #B75354",
"z.	c #B75454",
"A.	c #B04F56",
"B.	c #A24658",
"C.	c #883F58",
"D.	c #613A53",
"E.	c #C6695E",
"F.	c #C2645C",
"G.	c #B85758",
"H.	c #9E4A54",
"I.	c #6D3F52",
"J.	c #CE7363",
"K.	c #CE7463",
"L.	c #CA6C5F",
"M.	c #C05D57",
"N.	c #A54C52",
"O.	c #714051",
"P.	c #CD7363",
"Q.	c #C86B5E",
"R.	c #BA5755",
"S.	c #9E4650",
"T.	c #6D3C50",
"U.	c #B5685F",
"V.	c #B5675F",
"W.	c #B4675F",
"X.	c #AE5F5B",
"Y.	c #A14D53",
"Z.	c #883E4F",
"`.	c #5F3950",
" +	c #AF5F5B",
".+	c #7A4D56",
"++	c #774955",
"@+	c #6F4052",
"#+	c #613A50",
"$+	c #4D3951",
"%+	c #4D3851",
"&+	c #A24E53",
"*+	c #BD5D58",
"=+	c #C86C5F",
"-+	c #CD7162",
";+	c #513B51",
">+	c #694051",
",+	c #754553",
"'+	c #794B55",
")+	c #7B4D56",
"!+	c #663E51",
"~+	c #954A52",
"{+	c #AB5656",
"]+	c #B2625C",
"^+	c #AC5756",
"/+	c #A14E53",
"(+	c #A54C51",
"_+	c #BF5A55",
":+	c #C7675C",
"<+	c #CB6F60",
"[+	c #CD7262",
"}+	c #6D3D50",
"|+	c #9E4550",
"1+	c #B85051",
"2+	c #C05B56",
"3+	c #C6655B",
"4+	c #623A50",
"5+	c #893E4F",
"6+	c #A64D52",
"7+	c #AD5756",
"8+	c #B6685F",
"9+	c #603A50",
"0+	c #754453",
"a+	c #794A55",
"b+	c #A24D53",
"c+	c #8A3F4F",
"d+	c #3C3751",
"  . + + .   @ # # @   . + $ $ + .   @ % # & * = - ; > > ; - = * & # % @   , ' . + + .   @ % # & * = - ; > > ; - = * & # % @   . ",
") ! ~ ~ ! ) { ] ] { ) ! ~ ^ ^ ~ ! ) { / ] ( _ : < [ ; ; [ < : _ ( ] / { ) } | ! 1 ~ ! ) { / ] ( _ : < [ ; ; [ < : _ ( ] / { ) ! ",
"2 3 4 4 3 5 6 7 7 6 5 3 4 8 8 4 3 5 6 7 7 9 0 a b c d d c b a 0 9 7 7 e 5 f g 3 4 4 3 5 6 7 7 9 0 a b c d d c b a 0 9 7 7 6 5 3 ",
"h i j j i h k l l k h m j n n j m h k o l p q r s t d d t s r q p l o k h u u i j j i h k o l p q r s t d d t s r q p l o k h i ",
"7 7 7 7 7 7 7 7 7 7 7 7 7 7 7 7 7 7 7 7 7 v 7 w x c y y c x w 7 v 7 7 7 7 7 7 7 7 7 7 7 7 7 7 v 7 w x c y y c x w 7 v 7 7 7 7 7 ",
"7 z p p z 7 7 7 7 7 7 7 p p p p 7 7 7 7 7 v 7 w x c y y c x w 7 v 7 7 7 7 7 7 z p p z 7 7 7 7 v 7 w x c y y c x w 7 v 7 7 7 7 z ",
"7 7 7 7 7 7 7 7 7 7 7 7 7 7 7 7 7 7 7 7 7 A 9 B C c y y c C B 9 A 7 7 7 7 7 7 7 7 7 7 7 7 7 7 A 9 B C c y y c C B 9 A 7 7 7 7 7 ",
"7 7 7 7 7 7 7 7 7 7 7 7 7 7 7 7 7 7 7 7 7 9 0 a b c d d c b a 0 9 7 7 7 7 7 7 7 7 7 7 7 7 7 7 9 0 a b c d d c b a 0 9 7 7 7 7 7 ",
"A v v v v v v v v v v v v v v v v v v A 9 D E F G c H H c G F E D 9 A v v v v v v v v v v A 9 D E F G c H H c G F E D 9 A v v v ",
"9 7 7 7 7 7 7 7 7 7 7 7 7 7 7 7 7 7 7 9 0 E I J K c H H c K J I E 0 9 7 7 7 7 7 7 7 7 7 7 9 0 E I J K c H H c K J I E 0 9 7 7 7 ",
"L M M M M M M M M M M M M M M M M M M L N I O P Q R H H R Q P O I N L M M M M M M M M M M L N I O P Q R H H R Q P O I N L M M M ",
"C x x x x x x x x x x x x x x x x x x C b G K S Q c H H c Q S K G b C x x x x x x x x x x C b G K S Q c H H c Q S K G b C x x x ",
"S S S S S S S S S S S S S S S S S S S S S P S T U V W W V U T S P S S S S S S S S S S S S S S P S T U V W W V U T S P S S S S S ",
"X Y Y Y Y Y Y Y Y Y Y Y Y Y Y Y Y Y Y X X Q Q U Z `  . .` Z U Q Q X X Y Y Y Y Y Y Y Y Y Y X X Q Q U Z `  . .` Z U Q Q X X Y Y Y ",
"..............................................+.@.#.$.$.#.@.+.....................................+.@.#.$.$.#.@.+...............",
"H H H H H H H H H H H H H H H H H H H H H H H W  .$.%.%.$. .W H H H H H H H H H H H H H H H H H H W  .$.%.%.$. .W H H H H H H H ",
"&.&.*.=.=.=.=.-.-.-.-.=.=.=.=.*.&.&.&.&.&.&.&.&.&.&.&.&.&.&.&.&.&.&.*.=.=.=.=.-.-.-.-.=.=.=.=.*.&.&.&.&.&.&.&.&.&.&.&.&.&.&.&.&.",
";.;.;.;.;.;.;.;.;.;.;.;.;.;.;.;.;.;.;.;.;.;.;.;.>.-.*.*.-.>.;.;.;.;.;.;.;.;.;.;.;.;.;.;.;.;.;.;.;.;.>.-.*.*.-.>.;.;.;.;.;.;.;.;.",
",.,.'.).!.~.{.].].].].{.~.!.).^.,.&.*.=.=.-.-.-.-.-.-.-.-.=.=.*.&.,.^.).!.~.{.].].].].{.~.!.).^.,.&.*.=.=.-.-.-.-.-.-.-.-.=.=.*.",
"^.^./.(._.:.<.[.[.[.[.<.:._.(./.^.&.*.&.&.&.&.&.&.&.&.&.&.&.&.*.&.^./.(._.:.<.[.[.[.[.<.:._.(./.^.&.*.&.&.&.&.&.&.&.&.&.&.&.&.*.",
").).}.|.1.2.3.4.4.4.4.3.2.1.|.}.).,.'.5.6.7.7.7.7.7.7.7.7.6.5.'.,.).}.|.1.2.3.4.4.4.4.3.2.1.|.}.).,.'.5.6.7.7.7.7.7.7.7.7.6.5.'.",
"!.!.8.9.0.a.b.4.4.4.4.b.a.0.9.c.!.'.d.e.f.[.[.[.[.[.[.[.[.f.e.d.'.!.c.9.0.a.b.4.4.4.4.b.a.0.9.c.!.'.d.e.f.[.[.[.[.[.[.[.[.f.e.d.",
"g.g.h.i.<.j.j.j.[.[.j.j.j.<.i.h.g.k.l.m.n.j.[.[.j.j.j.j.j.o.m.l.k.g.h.i.<.j.j.j.[.[.j.j.j.<.i.h.g.k.l.m.n.j.[.[.j.j.j.j.j.o.m.l.",
"p.p.q.r.s.].].].].].].].].s.r.q.p.,.^.5.6.7.7.7.7.7.7.7.7.6.5.^.,.p.q.r.s.].].].].].].].].s.r.q.p.,.^.5.6.7.7.7.7.7.7.7.7.6.5.^.",
"t.t.t.t.t.u.v.w.x.x.w.v.u.t.t.t.t.t.t.u.v.w.x.x.w.v.u.t.t.t.t.t.t.t.t.t.t.u.v.w.x.x.w.v.u.t.t.t.t.t.t.u.v.w.x.x.w.v.u.t.t.t.t.t.",
"j.j.j.j.j.o.m.l.k.k.l.m.o.j.j.j.j.[.j.n.m.l.k.k.l.m.o.j.j.j.j.j.[.j.j.j.j.o.m.l.k.k.l.m.o.j.j.j.j.[.j.n.m.l.k.k.l.m.o.j.j.j.j.j.",
"y.y.y.z.y.A.B.C.D.D.C.B.A.y.z.y.y.z.y.A.B.C.D.D.C.B.A.y.z.y.y.y.y.y.y.z.y.A.B.C.D.D.C.B.A.y.z.y.y.z.y.A.B.C.D.D.C.B.A.y.z.y.y.y.",
"E.E.E.E.E.F.G.H.I.I.H.G.F.E.E.E.E.E.E.F.G.H.I.I.H.G.F.E.E.E.E.E.E.E.E.E.E.F.G.H.I.I.H.G.F.E.E.E.E.E.E.F.G.H.I.I.H.G.F.E.E.E.E.E.",
"J.J.J.K.J.L.M.N.O.O.N.M.L.J.K.J.J.K.J.L.M.N.O.O.N.M.L.J.K.J.J.J.J.J.J.K.J.L.M.N.O.O.N.M.L.J.K.J.J.K.J.L.M.N.O.O.N.M.L.J.K.J.J.J.",
"P.P.P.K.P.Q.R.S.T.T.S.R.Q.P.K.P.P.K.P.Q.R.S.T.T.S.R.Q.P.K.P.P.P.P.P.P.K.P.Q.R.S.T.T.S.R.Q.P.K.P.P.K.P.Q.R.S.T.T.S.R.Q.P.K.P.P.P.",
"U.U.V.U.W.X.Y.Z.`.`.Z.Y.X.W.U.V.U.U.V. +Y.Z.`.`.Z.Y.X.W.V.W.V.V.U.U.V.U.W.X.Y.Z.`.`.Z.Y.X.W.U.V.U.U.V. +Y.Z.`.`.Z.Y.X.W.V.W.V.V.",
".+.+.+.+.+++@+#+$+$+#+@+++.+.+.+.+.+.+++@+#+$+$+#+@+++.+.+.+.+.+.+.+.+.+.+++@+#+$+$+#+@+++.+.+.+.+.+.+++@+#+$+$+#+@+++.+.+.+.+.+",
"%+%+#+@+++.+.+.+.+.+.+.+.+++@+#+%+%+#+@+++.+.+.+.+.+.+.+.+++@+#+%+%+#+@+++.+.+.+.+.+.+.+.+++@+#+%+%+#+@+++.+.+.+.+.+.+.+.+++@+#+",
"`.`.Z.Y.X.W.U.V.U.U.V.U.W.X.Y.Z.`.`.Z.Y. +V.U.U.V.V.W.V.W.X.Y.Z.`.`.Z.Y.X.W.U.V.U.U.V.U.W.X.Y.Z.`.`.Z.Y. +V.U.U.V.V.W.V.W.X.Y.Z.",
"@+@+&+*+=+P.P.P.P.P.P.P.P.=+*+&+@+@+&+*+=+P.P.P.P.P.P.P.P.=+*+&+@+@+&+*+=+P.P.P.P.P.P.P.P.=+*+&+@+@+&+*+=+P.P.P.P.P.P.P.P.=+*+&+",
"++++X.=+-+J.K.J.J.J.J.K.J.-+=+X.++++X.=+-+J.K.J.J.J.J.K.J.-+=+X.++++X.=+-+J.K.J.J.J.J.K.J.-+=+X.++++X.=+-+J.K.J.J.J.J.K.J.-+=+X.",
"++++X.=+-+J.K.J.J.J.J.K.J.-+=+X.++++X.=+-+J.K.J.J.J.J.K.J.-+=+X.++++X.=+-+J.K.J.J.J.J.K.J.-+=+X.++++X.=+-+J.K.J.J.J.J.K.J.-+=+X.",
"@+@+&+*+=+P.P.P.P.P.P.P.P.=+*+&+@+@+&+*+=+P.P.P.P.P.P.P.P.=+*+&+@+@+&+*+=+P.P.P.P.P.P.P.P.=+*+&+@+@+&+*+=+P.P.P.P.P.P.P.P.=+*+&+",
"`.`.Z.Y.X.W.U.V.U.V.V.U.W.X.Y.Z.`.`.Z.Y. +V.U.U.V.V.W.V.W.X.Y.Z.`.`.Z.Y.X.W.U.V.U.V.V.U.W.X.Y.Z.`.`.Z.Y. +V.U.U.V.V.W.V.W.X.Y.Z.",
"%+%+#+@+++.+.+.+.+.+.+.+.+++@+#+%+%+#+@+++.+.+.+.+.+.+.+.+++@+#+%+%+#+@+++.+.+.+.+.+.+.+.+++@+#+%+%+#+@+++.+.+.+.+.+.+.+.+++@+#+",
".+.+.+.+.+++@+#+%+;+>+,+'+)+.+.+.+.+)+'+,+>+;+%+#+@+++.+.+.+.+.+.+.+.+.+.+++@+#+%+;+>+,+'+)+.+.+.+.+)+'+,+>+;+%+#+@+++.+.+.+.+.+",
"U.U.V.U.W.X.Y.Z.`.!+~+{+]+W.U.V.U.U.V.]+^+~+!+`.Z.Y.X.W.V.W.V.V.U.U.V.U.W.X.Y.Z.`.!+~+{+]+W.U.V.U.U.V.]+^+~+!+`.Z.Y.X.W.V.W.V.V.",
"P.P.P.P.P.=+*+/+@+O.(+_+:+<+[+J.J.[+<+:+_+(+O.@+/+*+=+P.P.P.P.P.P.P.P.P.P.=+*+/+@+O.(+_+:+<+[+J.J.[+<+:+_+(+O.@+/+*+=+P.P.P.P.P.",
"J.J.J.K.J.-+=+ +++}+|+1+2+3+<+K.K.<+3+2+1+|+}+++ +=+-+J.K.J.J.J.J.J.J.K.J.-+=+ +++}+|+1+2+3+<+K.K.<+3+2+1+|+}+++ +=+-+J.K.J.J.J.",
"J.J.J.K.J.-+=+ +++4+5+|+6+7+]+8+8+]+7+6+|+5+4+++ +=+-+J.K.J.J.J.J.J.J.K.J.-+=+ +++4+5+|+6+7+]+8+8+]+7+6+|+5+4+++ +=+-+J.K.J.J.J.",
"P.P.P.P.P.=+*+&+@+$+9+}+O.0+a+.+.+a+0+O.}+9+$+@+&+*+=+P.P.P.P.P.P.P.P.P.P.=+*+&+@+$+9+}+O.0+a+.+.+a+0+O.}+9+$+@+&+*+=+P.P.P.P.P.",
"U.U.U.8+U. +b+c+#+&.=.&.&.&.&.&.&.&.&.&.&.=.&.#+c+b+ +U.8+U.U.U.U.U.U.8+U. +b+c+#+&.=.&.&.&.&.&.&.&.&.&.&.=.&.#+c+b+ +U.8+U.U.U.",
".+.+.+.+.+++@+#+%+*.-.-.-.d+>.>.>.>.d+-.-.-.*.%+#+@+++.+.+.+.+.+.+.+.+.+.+++@+#+%+*.-.-.-.d+>.>.>.>.d+-.-.-.*.%+#+@+++.+.+.+.+.+",
"&.&.&.&.&.&.&.&.&.&.&.&.&.&.&.&.&.&.&.&.&.&.&.&.&.&.&.&.&.&.&.&.&.&.&.&.&.&.&.&.&.&.&.&.&.&.&.&.&.&.&.&.&.&.&.&.&.&.&.&.&.&.&.&.",
">.>.>.>.>.>.-.=.*.&.&.&.&.&.&.&.&.&.&.&.&.&.&.*.=.-.>.>.>.>.>.>.>.>.>.>.>.>.-.=.*.&.&.&.&.&.&.&.&.&.&.&.&.&.&.*.=.-.>.>.>.>.>.>.",
"&.&.&.&.&.&.&.&.&.&.&.&.&.&.&.&.&.&.&.&.&.&.&.&.&.&.&.&.&.&.&.&.&.&.&.&.&.&.&.&.&.&.&.&.&.&.&.&.&.&.&.&.&.&.&.&.&.&.&.&.&.&.&.&.",
"&.&.&.&.&.&.&.&.&.&.&.&.&.&.&.&.&.&.&.&.&.&.&.&.&.&.&.&.&.&.&.&.&.&.&.&.&.&.&.&.&.&.&.&.&.&.&.&.&.&.&.&.&.&.&.&.&.&.&.&.&.&.&.&.",
"&.&.&.&.&.&.&.&.&.&.&.&.&.&.&.&.&.&.&.&.&.&.&.&.&.&.&.&.&.&.&.&.&.&.&.&.&.&.&.&.&.&.&.&.&.&.&.&.&.&.&.&.&.&.&.&.&.&.&.&.&.&.&.&.",
"&.&.&.&.&.&.&.&.&.&.&.&.&.&.&.&.&.&.&.&.&.&.&.&.&.&.&.&.&.&.&.&.&.&.&.&.&.&.&.&.&.&.&.&.&.&.&.&.&.&.&.&.&.&.&.&.&.&.&.&.&.&.&.&.",
"&.&.&.&.&.&.&.&.&.&.&.&.&.&.&.&.&.&.&.&.&.&.&.&.&.&.&.&.&.&.&.&.&.&.&.&.&.&.&.&.&.&.&.&.&.&.&.&.&.&.&.&.&.&.&.&.&.&.&.&.&.&.&.&.",
"&.&.&.&.&.&.&.&.&.&.&.&.&.&.&.&.&.&.&.&.&.&.&.&.&.&.&.&.&.&.&.&.&.&.&.&.&.&.&.&.&.&.&.&.&.&.&.&.&.&.&.&.&.&.&.&.&.&.&.&.&.&.&.&.",
"&.&.&.&.&.&.&.&.&.&.&.&.&.&.&.&.&.&.&.&.&.&.&.&.&.&.&.&.&.&.&.&.&.&.&.&.&.&.&.&.&.&.&.&.&.&.&.&.&.&.&.&.&.&.&.&.&.&.&.&.&.&.&.&.",
"&.&.&.&.&.&.&.&.&.&.&.&.&.&.&.&.&.&.&.&.&.&.&.&.&.&.&.&.&.&.&.&.&.&.&.&.&.&.&.&.&.&.&.&.&.&.&.&.&.&.&.&.&.&.&.&.&.&.&.&.&.&.&.&.",
"&.&.&.&.&.&.&.&.&.&.&.&.&.&.&.&.&.&.&.&.&.&.&.&.&.&.&.&.&.&.&.&.&.&.&.&.&.&.&.&.&.&.&.&.&.&.&.&.&.&.&.&.&.&.&.&.&.&.&.&.&.&.&.&.",
"&.&.&.&.&.&.&.&.&.&.&.&.&.&.&.&.&.&.&.&.&.&.&.&.&.&.&.&.&.&.&.&.&.&.&.&.&.&.&.&.&.&.&.&.&.&.&.&.&.&.&.&.&.&.&.&.&.&.&.&.&.&.&.&.",
"&.&.&.&.&.&.&.&.&.&.&.&.&.&.&.&.&.&.&.&.&.&.&.&.&.&.&.&.&.&.&.&.&.&.&.&.&.&.&.&.&.&.&.&.&.&.&.&.&.&.&.&.&.&.&.&.&.&.&.&.&.&.&.&.",
"&.&.&.&.&.&.&.&.&.&.&.&.&.&.&.&.&.&.&.&.&.&.&.&.&.&.&.&.&.&.&.&.&.&.&.&.&.&.&.&.&.&.&.&.&.&.&.&.&.&.&.&.&.&.&.&.&.&.&.&.&.&.&.&.",
"&.&.&.&.&.&.&.&.&.&.&.&.&.&.&.&.&.&.&.&.&.&.&.&.&.&.&.&.&.&.&.&.&.&.&.&.&.&.&.&.&.&.&.&.&.&.&.&.&.&.&.&.&.&.&.&.&.&.&.&.&.&.&.&.",
"&.&.&.&.&.&.&.&.&.&.&.&.&.&.&.&.&.&.&.&.&.&.&.&.&.&.&.&.&.&.&.&.&.&.&.&.&.&.&.&.&.&.&.&.&.&.&.&.&.&.&.&.&.&.&.&.&.&.&.&.&.&.&.&."};
