/* XPM */
static char * corner_h_r_xpm[] = {
"64 64 208 2",
"  	c None",
". 	c #3F3851",
"+ 	c #3E3851",
"@ 	c #3D3851",
"# 	c #3C3851",
"$ 	c #3B3751",
"% 	c #3C3751",
"& 	c #4D3851",
"* 	c #613A50",
"= 	c #6F4052",
"- 	c #774955",
"; 	c #7A4D56",
"> 	c #8A3F4F",
", 	c #A24D53",
"' 	c #AF5F5B",
") 	c #B5685F",
"! 	c #B6685F",
"~ 	c #4D3951",
"{ 	c #603A50",
"] 	c #6D3D50",
"^ 	c #714051",
"/ 	c #754453",
"( 	c #794A55",
"_ 	c #A24E53",
": 	c #BD5D58",
"< 	c #C86C5F",
"[ 	c #CD7363",
"} 	c #623A50",
"| 	c #893E4F",
"1 	c #9E4550",
"2 	c #A64D52",
"3 	c #AD5756",
"4 	c #B2625C",
"5 	c #CD7162",
"6 	c #CE7363",
"7 	c #CE7463",
"8 	c #B85051",
"9 	c #C05B56",
"0 	c #C6655B",
"a 	c #CB6F60",
"b 	c #A54C51",
"c 	c #BF5A55",
"d 	c #C7675C",
"e 	c #CD7262",
"f 	c #A14E53",
"g 	c #663E51",
"h 	c #954A52",
"i 	c #AB5656",
"j 	c #B4675F",
"k 	c #B5675F",
"l 	c #AC5756",
"m 	c #5F3950",
"n 	c #883E4F",
"o 	c #A14D53",
"p 	c #AE5F5B",
"q 	c #513B51",
"r 	c #694051",
"s 	c #754553",
"t 	c #794B55",
"u 	c #7B4D56",
"v 	c #393751",
"w 	c #893F4F",
"x 	c #6D3C50",
"y 	c #9E4650",
"z 	c #BA5755",
"A 	c #C86B5E",
"B 	c #CD7463",
"C 	c #C76A5E",
"D 	c #A54C52",
"E 	c #C05D57",
"F 	c #CA6C5F",
"G 	c #6D3F52",
"H 	c #9E4A54",
"I 	c #B85758",
"J 	c #C2645C",
"K 	c #C6695E",
"L 	c #C96C5F",
"M 	c #613A53",
"N 	c #883F58",
"O 	c #A24658",
"P 	c #B04F56",
"Q 	c #B75354",
"R 	c #B75454",
"S 	c #BA5655",
"T 	c #C05C57",
"U 	c #CB6E60",
"V 	c #513753",
"W 	c #6D3757",
"X 	c #833957",
"Y 	c #933E52",
"Z 	c #9A414F",
"` 	c #9B414F",
" .	c #943F52",
"..	c #843A57",
"+.	c #6F3757",
"@.	c #533853",
"#.	c #B1625C",
"$.	c #3A3851",
"%.	c #463852",
"&.	c #533753",
"*.	c #5E3853",
"=.	c #663A51",
"-.	c #6A3B50",
";.	c #6A3A50",
">.	c #6C3C50",
",.	c #683A51",
"'.	c #603953",
").	c #553853",
"!.	c #473852",
"~.	c #6E3757",
"{.	c #3B3851",
"].	c #883E57",
"^.	c #B95858",
"/.	c #3A3751",
"(.	c #543A51",
"_.	c #703E51",
":.	c #7F4654",
"<.	c #834E57",
"[.	c #855259",
"}.	c #A54A53",
"|.	c #BE5A59",
"1.	c #C56A62",
"2.	c #C87267",
"3.	c #7F4553",
"4.	c #BD5958",
"5.	c #D96A60",
"6.	c #E07868",
"7.	c #E27E6C",
"8.	c #E27E6D",
"9.	c #E27F6D",
"0.	c #E07969",
"a.	c #D96B60",
"b.	c #673A51",
"c.	c #6B3B50",
"d.	c #6D3D51",
"e.	c #E37E6C",
"f.	c #E37F6D",
"g.	c #E3806D",
"h.	c #895D5E",
"i.	c #CE8671",
"j.	c #E9977A",
"k.	c #EA987A",
"l.	c #E89478",
"m.	c #E68D74",
"n.	c #E48670",
"o.	c #E3816E",
"p.	c #9B3D56",
"q.	c #A84251",
"r.	c #AE444E",
"s.	c #B44C51",
"t.	c #BE5955",
"u.	c #C15D57",
"v.	c #8F6F65",
"w.	c #D8A581",
"x.	c #F5BA8E",
"y.	c #F6BB8E",
"z.	c #F2B389",
"A.	c #EDA380",
"B.	c #E89377",
"C.	c #E48671",
"D.	c #AD434F",
"E.	c #AF444E",
"F.	c #B65153",
"G.	c #C4645B",
"H.	c #C76B5F",
"I.	c #927769",
"J.	c #DDB289",
"K.	c #FBCA97",
"L.	c #FCCB98",
"M.	c #F9C393",
"N.	c #F3B68B",
"O.	c #EEA581",
"P.	c #DEB389",
"Q.	c #FBCB97",
"R.	c #FAC896",
"S.	c #F4B88C",
"T.	c #927669",
"U.	c #FBCA96",
"V.	c #FCCA97",
"W.	c #FBC996",
"X.	c #937C6D",
"Y.	c #DFBB91",
"Z.	c #FDD6A4",
"`.	c #FED9A9",
" +	c #FDD8A9",
".+	c #FDD29F",
"++	c #FCCD9A",
"@+	c #FCCB97",
"#+	c #948373",
"$+	c #E0C79E",
"%+	c #FEE6B6",
"&+	c #FFECC3",
"*+	c #FEECC2",
"=+	c #FDDCA9",
"-+	c #FCD19D",
";+	c #85786E",
">+	c #C7B694",
",+	c #E1D2AC",
"'+	c #E2DAB9",
")+	c #E1D9B8",
"!+	c #DEBA90",
"~+	c #5F565D",
"{+	c #85796F",
"]+	c #948A7C",
"^+	c #958F83",
"/+	c #948F83",
"(+	c #948474",
"_+	c #937B6D",
"                                                                                                                                ",
". . . . . . . . . . . . . . . . . . . . . . . . . . . . . . . . . . . . . . . . . . . . . . . . . . . . . . . . . . . . . . .   ",
". . . . . . . . . . . . . . . . . . . . . . . . . . . . . . . . . . . . . . . . . . . . . . . . . . . . . . . . . . . . . . .   ",
". . . . . . . . . . . . . . . . . . . . . . . . . . . . . . . . . . . . . . . . . . . . . . . . . . . . . . . . . . . . . . .   ",
". . . . . . . . . . . . . . . . . . . . . . . . . . . . . . . . . . . . . . . . . . . . . . . . . . . . . . . . . . . . . . .   ",
". . . . . . . . . . . . . . . . . . . . . . . . . . . . . . . . . . . . . . . . . . . . . . . . . . . . . . . . . . . . . . .   ",
". . . . . . . . . . . . . . . . . . . . . . . . . . . . . . . . . . . . . . . . . . . . . . . . . . . . . . . . . . . . . . .   ",
". . . . . . . . . . . . . . . . . . . . . . . . . . . . . . . . . . . . . . . . . . . . . . . . . . . . . . . . . . . . . . .   ",
". . . . . . . . . . . . . . . . . . . . . . . . . . . . . . . . . . . . . . . . . . . . . . . . . . . . . . . . . . . . . . .   ",
". . . . . . . . . . . . . . . . . . . . . . . . . . . . . . . . . . . . . . . . . . . . . . . . . . . . . . . . . . . . . . .   ",
". . . . . . . . . . . . . . . . . . . . . . . . . . . . . . . . . . . . . . . . . . . . . . . . . . . . . . . . . . . . . . .   ",
". . . . . . . . . . . . . . . . . . . . . . . . . . . . . . . . . . . . . . . . . . . . . . . . . . . . . . . . . . . . . . .   ",
". . . . . . . . . . . . . . . . . . . . . . . . . . . . . . . . . . . . . . . . . . . . . . . . . . . . . . . . . . . . . . .   ",
". . . . . . . . . . . . . . . . . . . . . . . . . . . . . . . . . . . . . . . . . . . . . . . . . . . . . . . . . . . . . . .   ",
". . . . . . . . . . . . . . . . . . . . . . . . . . . . . . . . . . . . . . . . . . . . . . . . . . . . . . . . . . . . . . .   ",
". . . . . . . . . . . . . . . . . . . . . . . . . . . . . . . . . . . . . . . . . . . . . . . . . . . . . . . . . . . . . . .   ",
". . . . . . . . . . . . . . . . + @ # $ $ $ $ $ $ $ $ $ $ # @ + . . . . . . . . . . . . . . . . . . . . . . . . . . . . . . .   ",
". . . . . . . . . . . . . . . . . . . . . . . . . . . . . . . . . . . . . . . . . . . . . . . . . . . . . . . . . . . . . . .   ",
"+ # # # % $ $ $ $ $ $ % # # # + & * = - ; ; ; ; ; ; ; ; - = * & . + . . . . . . . . . . . . . . . . . . . . . . . . . . . . .   ",
". @ . . . . . . . . . . . . @ . * > , ' ) ! ) ) ) ) ! ) ' , > * . @ . . . . . . . . . . . . . . . . . . . . . . . . . . . . .   ",
"~ { ] ^ / ( ; ; ; ; ( / ^ ] { ~ = _ : < [ [ [ [ [ [ [ [ < : _ = . # . . . . . . . . . . . . . . . . . . . . . . . . . . . . .   ",
"} | 1 2 3 4 ) ! ! ) 4 3 2 1 | } - ' < 5 6 7 6 6 6 6 7 6 5 < ' - . $ . . . . . . . . . . . . . . . . . . . . . . . . . . . . .   ",
"] 1 8 9 0 a 6 7 7 6 a 0 9 8 1 ] - ' < 5 6 7 6 6 6 6 7 6 5 < ' - . $ . . . . . . . . . . . . . . . . . . . . . . . . . . . . .   ",
"^ b c d a e 6 6 6 6 e a d c b ^ = f : < [ [ [ [ [ [ [ [ < : _ = . # . . . . . . . . . . . . . . . . . . . . . . . . . . . . .   ",
"g h i 4 j k j k k ) ) k 4 l h g m n o p j ) k ) ) ) ! ) ' , > * . @ . . . . . . . . . . . . . . . . . . . . . . . . . . . . .   ",
"q r s t u ; ; ; ; ; ; u t s r q & * = - ; ; ; ; ; ; ; ; - = * & . + . . . . . . . . . . . . . . . . . . . . . . . . . . . . .   ",
"; ; ; ; ; ; - = * & & * = - ; ; ; ; ; ; - = * & . + . . . . . . . . . . . . . . . . . . . . . . . . . . . . . . . . . . . . .   ",
"k k k j k j p o n m m n o ' k ) ) k ) j p o | m $ v $ $ $ # @ + . . . . . . . . . . . . . . . . . . . . . . . . . . . . . . .   ",
"[ [ [ [ [ [ < : _ = = _ : < [ [ [ [ [ [ < : _ = . # . . . . . . . . . . . . . . . . . . . . . . . . . . . . . . . . . . . . .   ",
"6 6 6 6 7 6 5 < p - - p < 5 6 7 6 6 7 6 5 < ' - . $ . . . . . . . . . . . . . . . . . . . . . . . . . . . . . . . . . . . . .   ",
"6 6 6 6 7 6 5 < p - - p < 5 6 7 6 6 7 6 5 < ' - . $ . . . . . . . . . . . . . . . . . . . . . . . . . . . . . . . . . . . . .   ",
"[ [ [ [ [ [ < : _ = = _ : < [ [ [ [ [ [ < : _ = . # . . . . . . . . . . . . . . . . . . . . . . . . . . . . . . . . . . . . .   ",
") k k j k j p o n m m n o ' k ) ) k ) j p o | m $ v $ $ $ # @ + + @ # $ $ $ $ $ $ $ $ # @ + . . . . . . . . . . . . . . . . .   ",
"; ; ; ; ; ; - = * & & * = - ; ; ; ; ; ; - = * & . + . . . . . . . . . . . . . . . . . . . . . . . . . . . . . . . . . . . . .   ",
"~ * = - ; ; ; ; ; ; ; ; - = * ~ ~ * = - ; ; ; ; ; ; ; ; - = * ~ & * = - ; ; ; ; ; ; - = * & . + . . . . . . . . . . . . . . .   ",
"m n o p j k j k k ) ) k ' o n m m n o p j ) k ) ) ) ! ) ' , w * * w , ' ) ! ) ) ! ) ' , > * . @ . . . . . . . . . . . . . . .   ",
"x y z A [ 7 [ [ [ [ 7 [ A z y x x y z A [ 7 [ [ [ [ B [ C z 1 x = _ : < [ [ [ [ [ [ < : _ = . # . . . . . . . . . . . . . . .   ",
"^ D E F 6 7 6 6 6 6 7 6 F E D ^ ^ D E F 6 7 6 6 6 6 7 6 F E b ^ - ' < 5 6 7 6 6 7 6 5 < ' - . $ . . . . . . . . . . . . . . .   ",
"G H I J K K K K K K K K J I H G G H I J K K K K C L a e F E b ^ - ' < 5 6 7 6 6 7 6 5 < ' - . $ . . . . . . . . . . . . . . .   ",
"M N O P Q R Q Q Q Q R Q P O N M M N O P Q R Q Q S T 0 U C z 1 x = _ : < [ [ [ [ [ [ < : _ = . # . . . . . . . . . . . . . . .   ",
"V W X Y Z Z Z ` ` ` ` `  ...+.@.@.+... .` ` Z Z 1 b l #.p o n m m n o p j ) k ) ) k ' o n m $ $.@ + . . . . . . . . . . . . .   ",
"%.&.*.=.-.-.-.-.-.-.-.-.=.*.&.%.%.&.*.=.-.-.;.-.x ^ s ( - = * ~ & * = - ; ; ; ; ; ; - = * & . + . . . . . . . . . . . . . . .   ",
">.>.>.>.,.'.).!.. . . . . . . . . . . . . . %.@.M G / ( ; ; ; ; ; ; ; ; - = * & & * = - ; ; - = * & . + . . . . . . . . . . .   ",
"` Z Z Z Y X ~.V # {.# # @ @ + . . + @ @ {.# V ~.].H l 4 j ) k ) ) k ) j p o n m m n o ' ) ) ' , > * . @ . . . . . . . . . . .   ",
"` ` ` `  ...+.@.. + . . . . . . . . . . @ . *...O ^.0 a [ [ [ [ [ [ [ [ < : _ = = _ : < [ [ < : _ = . # . . . . . . . . . . .   ",
">.>.>.>.,.'.).!.. . . . . . . . . . . . @ . =. .P J a e 6 6 6 6 6 6 7 6 5 < p - - p < 5 7 7 5 < ' - . $ . . . . . . . . . . .   ",
"+ # $ /./././././././././.$ # + . . . . @ . =. .P J a e 6 6 6 6 6 6 7 6 5 < p - - p < 5 7 7 5 < ' - . $ . . . . . . . . . . .   ",
"# # # # @ @ + . . . . . . . . . . . . . @ . *...O ^.0 a [ [ [ [ [ [ [ [ < : _ = = _ : < [ [ < : _ = . # . . . . . . . . . . .   ",
"(._.:.<.[.[.[.[.[.[.[.[.<.:._.(.. + . + # @ V ~.].H l 4 k ) k ) ) k ) j p o n m m n o p k ) ' , > * . @ . . . . . . . . . . .   ",
"_.}.|.1.2.2.2.2.2.2.2.2.1.|.}._.. # . . . . %.@.M G / ( ; ; ; ; ; ; ; ; - = * & & * = - ; ; - = * & . + . . . . . . . . . . .   ",
"3.4.5.6.7.8.8.8.9.9.9.9.0.a.|.:.. $ !.@.*.b.c.c.c.c.d.^ ^ x * ~ & * = - ; ; ; ; ; ; ; ; - = * & . + . . . . . . . . . . . . .   ",
"<.1.0.e.f.g.f.f.f.f.g.f.e.0.1.<.+ /.@.+... .` ` Z Z 1 b b 1 n m m n o p j ) k ) ) k ) j p o | { @ # . . . . . . . . . . . . .   ",
"h.i.j.k.j.j.l.m.n.o.9.9.f.9.2.[.@ /.*...p.q.r.r.r.r.s.t.u.z _ = = _ : < [ [ [ [ [ [ [ [ < : _ = . # . . . . . . . . . . . . .   ",
"v.w.x.y.x.x.z.A.B.C.9.9.g.9.2.[.@ /.b. .q.D.E.E.r.E.F.G.F H.p - - p < 5 6 7 6 6 6 6 7 6 5 < ' - . $ . . . . . . . . . . . . .   ",
"I.J.K.L.K.K.M.N.O.B.C.o.f.9.2.[.@ /.b. .q.D.E.E.r.E.F.G.F H.p - - p < 5 6 7 6 6 6 6 7 6 5 < ' - . $ . . . . . . . . . . . . .   ",
"I.P.Q.L.Q.Q.R.M.S.O.B.n.f.9.2.[.@ /.*...p.q.r.r.r.r.s.t.u.z _ = = _ : < [ [ [ [ [ [ [ [ < : _ = . # . . . . . . . . . . . . .   ",
"I.J.K.L.K.K.K.K.M.N.A.m.f.8.2.[.+ /.@.+... .` ` Z Z 1 b b 1 n m m n o p j ) k ) ) ) ! ) ' , > * . @ . . . . . . . . . . . . .   ",
"I.J.K.L.K.K.K.K.R.M.z.l.f.8.2.[.. /.!.@.*.b.c.c.c.c.d.^ ^ x * ~ & * = - ; ; ; ; ; ; ; ; - = * & . + . . . . . . . . . . . . .   ",
"T.J.U.V.W.U.K.K.Q.K.x.j.g.8.2.[.. /.. . . . %.@.M G / ( ; ; ; ; ; ; ; ; - = * & . + . . . . . . . . . . . . . . . . . . . . .   ",
"I.J.K.L.K.K.K.K.Q.K.x.j.f.7.2.[.. /.. + # @ V ~.].H l 4 k ) k ) ) k ) j p o | m $ v $ $ $ # @ + . . . . . . . . . . . . . . .   ",
"X.Y.Z.`. +Z..+++L.@+y.k.e.6.1.<.. /.. . @ . *...O ^.0 a [ [ [ [ [ [ [ [ < : _ = . # . . . . . . . . . . . . . . . . . . . . .   ",
"#+$+%+&+*+%+=+-+Q.K.x.j.0.5.|.:.. $ . . @ . =. .P J a e 6 6 6 6 6 6 7 6 5 < ' - . $ . . . . . . . . . . . . . . . . . . . . .   ",
";+>+,+'+)+,+$+!+P.J.w.i.1.4.}._.. # . . @ . =. .P J a e 6 6 6 6 6 6 7 6 5 < ' - . $ . . . . . . . . . . . . . . . . . . . . .   ",
"~+{+]+^+/+]+(+_+I.T.v.h.<.3._.(.. + . . @ . *...O ^.0 a [ [ [ [ [ [ [ [ < : _ = . # . . . . . . . . . . . . . . . . . . . . .   "};
