/* XPM */
static char * corner_h_r_xpm[] = {
"64 64 207 2",
"  	c #3F3851",
". 	c #3E3851",
"+ 	c #3D3851",
"@ 	c #3C3851",
"# 	c #3B3751",
"$ 	c #3C3751",
"% 	c #4D3851",
"& 	c #613A50",
"* 	c #6F4052",
"= 	c #774955",
"- 	c #7A4D56",
"; 	c #8A3F4F",
"> 	c #A24D53",
", 	c #AF5F5B",
"' 	c #B5685F",
") 	c #B6685F",
"! 	c #4D3951",
"~ 	c #603A50",
"{ 	c #6D3D50",
"] 	c #714051",
"^ 	c #754453",
"/ 	c #794A55",
"( 	c #A24E53",
"_ 	c #BD5D58",
": 	c #C86C5F",
"< 	c #CD7363",
"[ 	c #623A50",
"} 	c #893E4F",
"| 	c #9E4550",
"1 	c #A64D52",
"2 	c #AD5756",
"3 	c #B2625C",
"4 	c #CD7162",
"5 	c #CE7363",
"6 	c #CE7463",
"7 	c #B85051",
"8 	c #C05B56",
"9 	c #C6655B",
"0 	c #CB6F60",
"a 	c #A54C51",
"b 	c #BF5A55",
"c 	c #C7675C",
"d 	c #CD7262",
"e 	c #A14E53",
"f 	c #663E51",
"g 	c #954A52",
"h 	c #AB5656",
"i 	c #B4675F",
"j 	c #B5675F",
"k 	c #AC5756",
"l 	c #5F3950",
"m 	c #883E4F",
"n 	c #A14D53",
"o 	c #AE5F5B",
"p 	c #513B51",
"q 	c #694051",
"r 	c #754553",
"s 	c #794B55",
"t 	c #7B4D56",
"u 	c #393751",
"v 	c #893F4F",
"w 	c #6D3C50",
"x 	c #9E4650",
"y 	c #BA5755",
"z 	c #C86B5E",
"A 	c #CD7463",
"B 	c #C76A5E",
"C 	c #A54C52",
"D 	c #C05D57",
"E 	c #CA6C5F",
"F 	c #6D3F52",
"G 	c #9E4A54",
"H 	c #B85758",
"I 	c #C2645C",
"J 	c #C6695E",
"K 	c #C96C5F",
"L 	c #613A53",
"M 	c #883F58",
"N 	c #A24658",
"O 	c #B04F56",
"P 	c #B75354",
"Q 	c #B75454",
"R 	c #BA5655",
"S 	c #C05C57",
"T 	c #CB6E60",
"U 	c #513753",
"V 	c #6D3757",
"W 	c #833957",
"X 	c #933E52",
"Y 	c #9A414F",
"Z 	c #9B414F",
"` 	c #943F52",
" .	c #843A57",
"..	c #6F3757",
"+.	c #533853",
"@.	c #B1625C",
"#.	c #3A3851",
"$.	c #463852",
"%.	c #533753",
"&.	c #5E3853",
"*.	c #663A51",
"=.	c #6A3B50",
"-.	c #6A3A50",
";.	c #6C3C50",
">.	c #683A51",
",.	c #603953",
"'.	c #553853",
").	c #473852",
"!.	c #6E3757",
"~.	c #3B3851",
"{.	c #883E57",
"].	c #B95858",
"^.	c #3A3751",
"/.	c #543A51",
"(.	c #703E51",
"_.	c #7F4654",
":.	c #834E57",
"<.	c #855259",
"[.	c #A54A53",
"}.	c #BE5A59",
"|.	c #C56A62",
"1.	c #C87267",
"2.	c #7F4553",
"3.	c #BD5958",
"4.	c #D96A60",
"5.	c #E07868",
"6.	c #E27E6C",
"7.	c #E27E6D",
"8.	c #E27F6D",
"9.	c #E07969",
"0.	c #D96B60",
"a.	c #673A51",
"b.	c #6B3B50",
"c.	c #6D3D51",
"d.	c #E37E6C",
"e.	c #E37F6D",
"f.	c #E3806D",
"g.	c #895D5E",
"h.	c #CE8671",
"i.	c #E9977A",
"j.	c #EA987A",
"k.	c #E89478",
"l.	c #E68D74",
"m.	c #E48670",
"n.	c #E3816E",
"o.	c #9B3D56",
"p.	c #A84251",
"q.	c #AE444E",
"r.	c #B44C51",
"s.	c #BE5955",
"t.	c #C15D57",
"u.	c #8F6F65",
"v.	c #D8A581",
"w.	c #F5BA8E",
"x.	c #F6BB8E",
"y.	c #F2B389",
"z.	c #EDA380",
"A.	c #E89377",
"B.	c #E48671",
"C.	c #AD434F",
"D.	c #AF444E",
"E.	c #B65153",
"F.	c #C4645B",
"G.	c #C76B5F",
"H.	c #927769",
"I.	c #DDB289",
"J.	c #FBCA97",
"K.	c #FCCB98",
"L.	c #F9C393",
"M.	c #F3B68B",
"N.	c #EEA581",
"O.	c #DEB389",
"P.	c #FBCB97",
"Q.	c #FAC896",
"R.	c #F4B88C",
"S.	c #927669",
"T.	c #FBCA96",
"U.	c #FCCA97",
"V.	c #FBC996",
"W.	c #937C6D",
"X.	c #DFBB91",
"Y.	c #FDD6A4",
"Z.	c #FED9A9",
"`.	c #FDD8A9",
" +	c #FDD29F",
".+	c #FCCD9A",
"++	c #FCCB97",
"@+	c #948373",
"#+	c #E0C79E",
"$+	c #FEE6B6",
"%+	c #FFECC3",
"&+	c #FEECC2",
"*+	c #FDDCA9",
"=+	c #FCD19D",
"-+	c #85786E",
";+	c #C7B694",
">+	c #E1D2AC",
",+	c #E2DAB9",
"'+	c #E1D9B8",
")+	c #DEBA90",
"!+	c #5F565D",
"~+	c #85796F",
"{+	c #948A7C",
"]+	c #958F83",
"^+	c #948F83",
"/+	c #948474",
"(+	c #937B6D",
"                                                                                                                                ",
"                                                                                                                                ",
"                                                                                                                                ",
"                                                                                                                                ",
"                                                                                                                                ",
"                                                                                                                                ",
"                                                                                                                                ",
"                                                                                                                                ",
"                                                                                                                                ",
"                                                                                                                                ",
"                                                                                                                                ",
"                                                                                                                                ",
"                                                                                                                                ",
"                                                                                                                                ",
"                                                                                                                                ",
"                                                                                                                                ",
"                                . + @ # # # # # # # # # # @ + .                                                                 ",
"                                                                                                                                ",
". @ @ @ $ # # # # # # $ @ @ @ . % & * = - - - - - - - - = * & %   .                                                             ",
"  +                         +   & ; > , ' ) ' ' ' ' ) ' , > ; &   +                                                             ",
"! ~ { ] ^ / - - - - / ^ ] { ~ ! * ( _ : < < < < < < < < : _ ( *   @                                                             ",
"[ } | 1 2 3 ' ) ) ' 3 2 1 | } [ = , : 4 5 6 5 5 5 5 6 5 4 : , =   #                                                             ",
"{ | 7 8 9 0 5 6 6 5 0 9 8 7 | { = , : 4 5 6 5 5 5 5 6 5 4 : , =   #                                                             ",
"] a b c 0 d 5 5 5 5 d 0 c b a ] * e _ : < < < < < < < < : _ ( *   @                                                             ",
"f g h 3 i j i j j ' ' j 3 k g f l m n o i ' j ' ' ' ) ' , > ; &   +                                                             ",
"p q r s t - - - - - - t s r q p % & * = - - - - - - - - = * & %   .                                                             ",
"- - - - - - = * & % % & * = - - - - - - = * & %   .                                                                             ",
"j j j i j i o n m l l m n , j ' ' j ' i o n } l # u # # # @ + .                                                                 ",
"< < < < < < : _ ( * * ( _ : < < < < < < : _ ( *   @                                                                             ",
"5 5 5 5 6 5 4 : o = = o : 4 5 6 5 5 6 5 4 : , =   #                                                                             ",
"5 5 5 5 6 5 4 : o = = o : 4 5 6 5 5 6 5 4 : , =   #                                                                             ",
"< < < < < < : _ ( * * ( _ : < < < < < < : _ ( *   @                                                                             ",
"' j j i j i o n m l l m n , j ' ' j ' i o n } l # u # # # @ + . . + @ # # # # # # # # @ + .                                     ",
"- - - - - - = * & % % & * = - - - - - - = * & %   .                                                                             ",
"! & * = - - - - - - - - = * & ! ! & * = - - - - - - - - = * & ! % & * = - - - - - - = * & %   .                                 ",
"l m n o i j i j j ' ' j , n m l l m n o i ' j ' ' ' ) ' , > v & & v > , ' ) ' ' ) ' , > ; &   +                                 ",
"w x y z < 6 < < < < 6 < z y x w w x y z < 6 < < < < A < B y | w * ( _ : < < < < < < : _ ( *   @                                 ",
"] C D E 5 6 5 5 5 5 6 5 E D C ] ] C D E 5 6 5 5 5 5 6 5 E D a ] = , : 4 5 6 5 5 6 5 4 : , =   #                                 ",
"F G H I J J J J J J J J I H G F F G H I J J J J B K 0 d E D a ] = , : 4 5 6 5 5 6 5 4 : , =   #                                 ",
"L M N O P Q P P P P Q P O N M L L M N O P Q P P R S 9 T B y | w * ( _ : < < < < < < : _ ( *   @                                 ",
"U V W X Y Y Y Z Z Z Z Z `  ...+.+... .` Z Z Y Y | a k @.o n m l l m n o i ' j ' ' j , n m l # #.+ .                             ",
"$.%.&.*.=.=.=.=.=.=.=.=.*.&.%.$.$.%.&.*.=.=.-.=.w ] r / = * & ! % & * = - - - - - - = * & %   .                                 ",
";.;.;.;.>.,.'.).                            $.+.L F ^ / - - - - - - - - = * & % % & * = - - = * & %   .                         ",
"Z Y Y Y X W !.U @ ~.@ @ + + .     . + + ~.@ U !.{.G k 3 i ' j ' ' j ' i o n m l l m n , ' ' , > ; &   +                         ",
"Z Z Z Z `  ...+.  .                     +   &. .N ].9 0 < < < < < < < < : _ ( * * ( _ : < < : _ ( *   @                         ",
";.;.;.;.>.,.'.).                        +   *.` O I 0 d 5 5 5 5 5 5 6 5 4 : o = = o : 4 6 6 4 : , =   #                         ",
". @ # ^.^.^.^.^.^.^.^.^.^.# @ .         +   *.` O I 0 d 5 5 5 5 5 5 6 5 4 : o = = o : 4 6 6 4 : , =   #                         ",
"@ @ @ @ + + .                           +   &. .N ].9 0 < < < < < < < < : _ ( * * ( _ : < < : _ ( *   @                         ",
"/.(._.:.<.<.<.<.<.<.<.<.:._.(./.  .   . @ + U !.{.G k 3 j ' j ' ' j ' i o n m l l m n o j ' , > ; &   +                         ",
"(.[.}.|.1.1.1.1.1.1.1.1.|.}.[.(.  @         $.+.L F ^ / - - - - - - - - = * & % % & * = - - = * & %   .                         ",
"2.3.4.5.6.7.7.7.8.8.8.8.9.0.}._.  # ).+.&.a.b.b.b.b.c.] ] w & ! % & * = - - - - - - - - = * & %   .                             ",
":.|.9.d.e.f.e.e.e.e.f.e.d.9.|.:.. ^.+... .` Z Z Y Y | a a | m l l m n o i ' j ' ' j ' i o n } ~ + @                             ",
"g.h.i.j.i.i.k.l.m.n.8.8.e.8.1.<.+ ^.&. .o.p.q.q.q.q.r.s.t.y ( * * ( _ : < < < < < < < < : _ ( *   @                             ",
"u.v.w.x.w.w.y.z.A.B.8.8.f.8.1.<.+ ^.a.` p.C.D.D.q.D.E.F.E G.o = = o : 4 5 6 5 5 5 5 6 5 4 : , =   #                             ",
"H.I.J.K.J.J.L.M.N.A.B.n.e.8.1.<.+ ^.a.` p.C.D.D.q.D.E.F.E G.o = = o : 4 5 6 5 5 5 5 6 5 4 : , =   #                             ",
"H.O.P.K.P.P.Q.L.R.N.A.m.e.8.1.<.+ ^.&. .o.p.q.q.q.q.r.s.t.y ( * * ( _ : < < < < < < < < : _ ( *   @                             ",
"H.I.J.K.J.J.J.J.L.M.z.l.e.7.1.<.. ^.+... .` Z Z Y Y | a a | m l l m n o i ' j ' ' ' ) ' , > ; &   +                             ",
"H.I.J.K.J.J.J.J.Q.L.y.k.e.7.1.<.  ^.).+.&.a.b.b.b.b.c.] ] w & ! % & * = - - - - - - - - = * & %   .                             ",
"S.I.T.U.V.T.J.J.P.J.w.i.f.7.1.<.  ^.        $.+.L F ^ / - - - - - - - - = * & %   .                                             ",
"H.I.J.K.J.J.J.J.P.J.w.i.e.6.1.<.  ^.  . @ + U !.{.G k 3 j ' j ' ' j ' i o n } l # u # # # @ + .                                 ",
"W.X.Y.Z.`.Y. +.+K.++x.j.d.5.|.:.  ^.    +   &. .N ].9 0 < < < < < < < < : _ ( *   @                                             ",
"@+#+$+%+&+$+*+=+P.J.w.i.9.4.}._.  #     +   *.` O I 0 d 5 5 5 5 5 5 6 5 4 : , =   #                                             ",
"-+;+>+,+'+>+#+)+O.I.v.h.|.3.[.(.  @     +   *.` O I 0 d 5 5 5 5 5 5 6 5 4 : , =   #                                             ",
"!+~+{+]+^+{+/+(+H.S.u.g.:.2.(./.  .     +   &. .N ].9 0 < < < < < < < < : _ ( *   @                                             "};
