/* XPM */
static char * corner_b_l_xpm[] = {
"64 64 212 2",
"  	c #3F3851",
". 	c #3E3851",
"+ 	c #4D3851",
"@ 	c #613A50",
"# 	c #6F4052",
"$ 	c #774955",
"% 	c #7A4D56",
"& 	c #513B51",
"* 	c #683F51",
"= 	c #714051",
"- 	c #6E3D51",
"; 	c #6B3B50",
"> 	c #673A51",
", 	c #5E3853",
"' 	c #533853",
") 	c #473852",
"! 	c #543A51",
"~ 	c #703E51",
"{ 	c #7F4553",
"] 	c #834E57",
"^ 	c #895D5E",
"/ 	c #8F6F65",
"( 	c #927669",
"_ 	c #927769",
": 	c #937B6D",
"< 	c #948474",
"[ 	c #948A7C",
"} 	c #948F83",
"| 	c #958F83",
"1 	c #85796F",
"2 	c #5F565D",
"3 	c #3D3851",
"4 	c #8A3F4F",
"5 	c #A24D53",
"6 	c #AF5F5B",
"7 	c #B5685F",
"8 	c #B6685F",
"9 	c #B5675F",
"0 	c #B4675F",
"a 	c #AE5F5B",
"b 	c #A14D53",
"c 	c #883E4F",
"d 	c #5F3950",
"e 	c #673F51",
"f 	c #954A52",
"g 	c #A54C51",
"h 	c #9E4550",
"i 	c #9A414F",
"j 	c #9B414F",
"k 	c #943F52",
"l 	c #843A57",
"m 	c #6F3757",
"n 	c #3C3851",
"o 	c #A54A53",
"p 	c #BD5958",
"q 	c #C56A62",
"r 	c #CE8671",
"s 	c #D8A581",
"t 	c #DDB289",
"u 	c #DEB389",
"v 	c #DEBA90",
"w 	c #E0C79E",
"x 	c #E1D2AC",
"y 	c #E1D9B8",
"z 	c #E2DAB9",
"A 	c #C7B694",
"B 	c #85786E",
"C 	c #A24E53",
"D 	c #BD5D58",
"E 	c #C86C5F",
"F 	c #CD7363",
"G 	c #764553",
"H 	c #AC5756",
"I 	c #BE5955",
"J 	c #B54D51",
"K 	c #AE444E",
"L 	c #A84251",
"M 	c #9B3D56",
"N 	c #3B3751",
"O 	c #7F4654",
"P 	c #BE5A59",
"Q 	c #D96A60",
"R 	c #E07969",
"S 	c #E9977A",
"T 	c #F5BA8E",
"U 	c #FBCA97",
"V 	c #FBCB97",
"W 	c #FCD19D",
"X 	c #FDDCA9",
"Y 	c #FEE6B6",
"Z 	c #FEECC2",
"` 	c #FFECC3",
" .	c #948373",
"..	c #CD7162",
"+.	c #CE7363",
"@.	c #CE7463",
"#.	c #794B55",
"$.	c #B2625C",
"%.	c #C4645B",
"&.	c #B75253",
"*.	c #AF444E",
"=.	c #AD434F",
"-.	c #3A3751",
";.	c #E07868",
">.	c #E37E6C",
",.	c #EA987A",
"'.	c #F6BB8E",
").	c #FCCB97",
"!.	c #FCCB98",
"~.	c #FCCD9A",
"{.	c #FDD29F",
"].	c #FDD6A4",
"^.	c #FDD8A9",
"/.	c #FED9A9",
"(.	c #DFBB91",
"_.	c #937C6D",
":.	c #855259",
"<.	c #C87267",
"[.	c #E27E6C",
"}.	c #E37F6D",
"|.	c #E27E6D",
"1.	c #E3806D",
"2.	c #FBCA96",
"3.	c #FBC996",
"4.	c #FCCA97",
"5.	c #893E4F",
"6.	c #E89478",
"7.	c #F2B389",
"8.	c #F9C393",
"9.	c #FAC896",
"0.	c #E68D74",
"a.	c #EDA380",
"b.	c #F3B68B",
"c.	c #503A51",
"d.	c #754553",
"e.	c #794A55",
"f.	c #754453",
"g.	c #6D3F52",
"h.	c #613A53",
"i.	c #463852",
"j.	c #E27F6D",
"k.	c #E48670",
"l.	c #E89377",
"m.	c #EEA581",
"n.	c #F4B88C",
"o.	c #974B52",
"p.	c #AD5756",
"q.	c #9E4A54",
"r.	c #883E57",
"s.	c #6E3757",
"t.	c #513753",
"u.	c #E3816E",
"v.	c #E48671",
"w.	c #3C3751",
"x.	c #C6665B",
"y.	c #CB6F60",
"z.	c #BD5D59",
"A.	c #C6655B",
"B.	c #B95858",
"C.	c #A24658",
"D.	c #B3625C",
"E.	c #CE7262",
"F.	c #CD7262",
"G.	c #C2645C",
"H.	c #B04F56",
"I.	c #663A51",
"J.	c #D96B60",
"K.	c #673E51",
"L.	c #9F4B54",
"M.	c #893E57",
"N.	c #533753",
"O.	c #3A3851",
"P.	c #553853",
"Q.	c #603953",
"R.	c #683A51",
"S.	c #6C3C50",
"T.	c #393751",
"U.	c #3B3851",
"V.	c #833957",
"W.	c #933F52",
"X.	c #933E52",
"Y.	c #523753",
"Z.	c #6A3B50",
"`.	c #6D3757",
" +	c #883E58",
".+	c #B75354",
"++	c #B75454",
"@+	c #883F58",
"#+	c #B85758",
"$+	c #C6695E",
"%+	c #C05D57",
"&+	c #CA6C5F",
"*+	c #A54C52",
"=+	c #6D3C50",
"-+	c #BA5755",
";+	c #C86B5E",
">+	c #9E4650",
",+	c #4D3951",
"'+	c #7B4D56",
")+	c #CF7463",
"!+	c #893F4F",
"~+	c #694051",
"{+	c #663E51",
"]+	c #AB5656",
"^+	c #A64D52",
"/+	c #BF5A55",
"(+	c #C7675C",
"_+	c #6D3D50",
":+	c #9F4650",
"<+	c #B85051",
"[+	c #C05B56",
"}+	c #623A50",
"                                .   + @ # $ % % % % % % % % $ # @ + & * = - ; ; ; ; > , ' ) .   ! ~ { ] ^ / ( _ : < [ } | [ 1 2 ",
"                                3   @ 4 5 6 7 8 7 9 9 0 9 0 a b c d e f g h i i j j k l m ' n . ~ o p q r s t u v w x y z x A B ",
"                                n   # C D E F F F F F F F F E D b # G H I J K K K K L M l , N 3 O P Q R S T U V W X Y Z ` Y w  .",
"                                N   $ 6 E ..+.@.+.+.+.+.@.+...E a $ #.$.%.&.*.K *.*.=.L k > -.3 ] q ;.>.,.'.).!.~.{.].^./.].(._.",
"                                N   $ 6 E ..+.@.+.+.+.+.@.+...E a $ #.$.%.&.*.K *.*.=.L k > -.3 :.<.[.}.S T U V U U U U !.U t _ ",
"                                n   # C D E F F F F F F F F E D b # G H I J K K K K L M l , -.3 :.<.|.1.S T U V U U 2.3.4.2.t ( ",
"                                n 3 d 5.b 6 9 7 7 9 9 0 9 0 a b c d e f g h i i j j k l m ' -.. :.<.|.}.6.7.8.9.U U U U !.U t _ ",
"                                .   + @ # $ % % % % % % % % $ # @ + & * = - ; ; ; ; > , ' ) -.  :.<.|.}.0.a.b.8.U U U U !.U t _ ",
"                            .   c.* d.e.$ # @ + + @ # $ % % % % % % % % e.f.g.h.' i.        -.  :.<.j.}.k.l.m.n.8.9.V V !.V u _ ",
"                            3   * o.p.$.6 b c d d c b a 0 9 0 9 9 7 7 9 $.H q.r.s.t.3 n .   -.  :.<.j.}.u.v.l.m.b.8.U U !.U t _ ",
"                            w.  d.p.x.y.E z.b # # C D E F F F F F F F F y.A.B.C.l ,   3     -.  :.<.j.1.j.j.v.l.a.7.T T '.T s / ",
"                            N   e.D.y.E...E a $ $ a E ..+.@.+.+.+.+.+.+.F.y.G.H.k I.  3     -.  :.<.j.}.j.j.u.k.0.6.S S ,.S r ^ ",
"                            N   $ 6 E ..E.y.$.e.$ a E ..+.@.+.+.+.+.+.+.F.y.G.H.k I.  3     -.  ] q R >.}.1.}.}.}.}.1.}.>.R q ] ",
"                            n   # C z.E y.x.H d.# b D E F F F F F F F F y.A.B.C.l ,   3     N   O P J.R j.j.j.j.|.|.|.[.;.Q p { ",
"                            3   @ 4 C 6 D.H f K.d c b a 0 9 0 0 0 9 7 7 D.p.L.M.m N.  .     n   ~ o P q <.<.<.<.<.<.<.<.q P o ~ ",
"                            .   + @ # $ e.d.* c.+ @ # $ % % % % % % % % e.f.g.h.' i.        .   ! ~ O ] :.:.:.:.:.:.:.:.] O ~ ! ",
"                                    .   + @ # $ % % % % % % % % $ # @ +   .                                                     ",
"                                . 3 O.N d 5.b 6 7 7 9 0 0 0 9 0 a b 5.d N -.n 3 .               . n N -.-.-.-.-.-.-.-.-.-.N n . ",
"                                    n   # C D E F F F F F F F F E D C #   n                               . 3 3 n n n n n n 3 3 ",
"                                    N   $ 6 E ..+.@.+.+.+.+.@.+...E 6 $   N                                                     ",
"                                    N   $ 6 E ..+.@.+.+.+.+.@.+...E 6 $   N                             ) P.Q.R.S.S.S.S.S.S.R.Q.",
"                                    n   # C D E F F F F F F F F E D C #   n                         .   ' m l k j j j j j j k l ",
"                                    3   @ 4 5 6 7 8 7 9 9 0 9 0 a b 5.d N T.N N N n 3 .   . 3 3 n n U.n t.s.V.W.i j j i i i X.V.",
"                                    .   + @ # $ % % % % % % % % $ # @ +   .                             ) P.Q.R.S.S.S.S.S.S.R.Q.",
"                                                .   + @ # $ % % % % % % % % % % $ # @ + i.Y., I.Z.Z.Z.Z.Z.Z.I., N.i.i.N., I.Z.Z.",
"                                        . 3 n N T.N d 5.b a 0 9 0 9 9 7 7 7 8 7 6 5 4 @ ' s.l k j j j j j i W.V.`.t.t.`.V.X.i i ",
"                                                n   # C D E F F F F F F F F F F E D C # h. +C.H..+++.+.+++.+H.C.@+h.h.@+C.H..+++",
"                                                N   $ 6 E ..+.@.+.+.+.+.+.+.@.+...E 6 $ g.q.#+G.$+$+$+$+$+$+G.#+q.g.g.q.#+G.$+$+",
"                                                N   $ 6 E ..+.@.+.+.+.+.+.+.@.+...E 6 $ = g %+&++.@.+.+.@.+.&+%+*+= = *+%+&++.@.",
"                                                n   # C D E F F F F F F F F F F E D C # =+h -+;+F @.F F @.F ;+-+>+=+=+>+-+;+F @.",
"                                        . 3 n N T.N d 5.b a 0 9 0 9 9 7 7 9 7 0 a b c d d c b a 0 7 9 7 7 9 6 b c d d c b a 0 9 ",
"                                                .   + @ # $ % % % % % % % % % % $ # @ + ,+@ # $ % % % % % % $ # @ ,+,+@ # $ % % ",
"                                    .   + @ # $ % % % % % % % % $ # @ + + @ # $ % % % % % % % % $ # @ + + @ # $ % % % % % % '+% ",
"                                    3   @ 4 5 6 7 8 7 9 9 0 9 0 a b c d d c b a 0 7 9 7 7 9 7 0 a b c d d c b 6 9 7 7 9 9 0 9 0 ",
"                                    n   # C D E F F F F F F F F E D C # # C D E F F F F F F F F E D C # # C D E F F F F F F +.F ",
"                                    N   $ 6 E ..+.@.+.+.+.+.@.+...E a $ $ a E ..+.@.+.+.+.+.@.+...E a $ $ a E ..+.@.+.+.+.+.)++.",
"                                    N   $ 6 E ..+.@.+.+.+.+.@.+...E a $ $ a E ..+.@.+.+.+.+.@.+...E a $ $ a E ..+.@.+.+.+.+.)++.",
"                                    n   # C D E F F F F F F F F E D C # # C D E F F F F F F F F E D C # # C D E F F F F F F +.F ",
"                                    3   @ 4 5 6 7 8 7 7 7 7 7 9 6 b c d d c b a 0 7 9 9 7 7 8 7 6 5 !+@ @ !+5 6 7 8 7 9 9 0 9 0 ",
"                                    .   + @ # $ % % % % % % % % $ # @ + + @ # $ % % % % % % % % $ # @ + + @ # $ % % % % % % '+% ",
"                                                        .   & ~+d.#.'+% % % % '+#.d.~+&   .                     .   + @ # $ % % ",
"                                        . 3 n N N N N N T.N {+f H $.9 7 7 9 7 0 $.]+f {+N T.N N N n 3 . . 3 n N T.N d 5.b a 0 9 ",
"                                                        n   = ^+/+(+y.F.+.+.F.y.(+/+^+=   n                     n   # C D E F F ",
"                                                        n   _+:+<+[+A.y.@.@.y.A.[+<+:+_+  n                     N   $ 6 E ..+.@.",
"                                                        3   }+4 h ^+p.$.8 8 $.p.^+h 4 }+  3                     N   $ 6 E ..+.@.",
"                                                        .   ,+}+_+= f.e.% % e.f.= _+}+,+  .                     n   # C D E F F ",
"                                                                                                                3   @ 4 5 6 7 8 ",
"                                                            . 3 n n w.N N N N w.n n 3 .                         .   + @ # $ % % ",
"                                                                                                                                ",
"                                                                                                                    . 3 n N N N ",
"                                                                                                                                ",
"                                                                                                                                ",
"                                                                                                                                ",
"                                                                                                                                ",
"                                                                                                                                ",
"                                                                                                                                ",
"                                                                                                                                ",
"                                                                                                                                ",
"                                                                                                                                ",
"                                                                                                                                ",
"                                                                                                                                ",
"                                                                                                                                ",
"                                                                                                                                ",
"                                                                                                                                "};
