/* XPM */
static char * corner_b_r_xpm[] = {
"64 64 238 2",
"  	c None",
". 	c #5F565D",
"+ 	c #85796F",
"@ 	c #948A7C",
"# 	c #958F83",
"$ 	c #948F83",
"% 	c #948474",
"& 	c #937B6D",
"* 	c #927769",
"= 	c #927669",
"- 	c #8F6F65",
"; 	c #895D5E",
"> 	c #834E57",
", 	c #7F4553",
"' 	c #703E51",
") 	c #543A51",
"! 	c #3F3851",
"~ 	c #3E3851",
"{ 	c #473852",
"] 	c #533853",
"^ 	c #5E3853",
"/ 	c #673A51",
"( 	c #6B3B50",
"_ 	c #6D3D51",
": 	c #714051",
"< 	c #6D3C50",
"[ 	c #613A50",
"} 	c #4D3951",
"| 	c #4D3851",
"1 	c #6F4052",
"2 	c #774955",
"3 	c #7A4D56",
"4 	c #85786E",
"5 	c #C7B694",
"6 	c #E1D2AC",
"7 	c #E2DAB9",
"8 	c #E1D9B8",
"9 	c #E0C79E",
"0 	c #DEBA90",
"a 	c #DEB389",
"b 	c #DDB289",
"c 	c #D8A581",
"d 	c #CE8671",
"e 	c #C56A62",
"f 	c #BD5958",
"g 	c #A54A53",
"h 	c #3C3851",
"i 	c #6F3757",
"j 	c #843A57",
"k 	c #943F52",
"l 	c #9B414F",
"m 	c #9A414F",
"n 	c #9E4550",
"o 	c #A54C51",
"p 	c #883E4F",
"q 	c #5F3950",
"r 	c #A14D53",
"s 	c #AE5F5B",
"t 	c #B4675F",
"u 	c #B5685F",
"v 	c #B5675F",
"w 	c #B6685F",
"x 	c #AF5F5B",
"y 	c #A24D53",
"z 	c #8A3F4F",
"A 	c #3D3851",
"B 	c #948373",
"C 	c #FEE6B6",
"D 	c #FFECC3",
"E 	c #FEECC2",
"F 	c #FDDCA9",
"G 	c #FCD19D",
"H 	c #FBCB97",
"I 	c #FBCA97",
"J 	c #F5BA8E",
"K 	c #E9977A",
"L 	c #E07969",
"M 	c #D96A60",
"N 	c #BE5A59",
"O 	c #7F4654",
"P 	c #3B3751",
"Q 	c #9B3D56",
"R 	c #A84251",
"S 	c #AE444E",
"T 	c #B44C51",
"U 	c #BE5955",
"V 	c #C15D57",
"W 	c #BA5755",
"X 	c #A24E53",
"Y 	c #BD5D58",
"Z 	c #C86C5F",
"` 	c #CD7363",
" .	c #937C6D",
"..	c #DFBB91",
"+.	c #FDD6A4",
"@.	c #FED9A9",
"#.	c #FDD8A9",
"$.	c #FDD29F",
"%.	c #FCCD9A",
"&.	c #FCCB98",
"*.	c #FCCB97",
"=.	c #F6BB8E",
"-.	c #EA987A",
";.	c #E37E6C",
">.	c #E07868",
",.	c #3A3751",
"'.	c #AD434F",
").	c #AF444E",
"!.	c #B65153",
"~.	c #C4645B",
"{.	c #CA6C5F",
"].	c #C76B5F",
"^.	c #CD7162",
"/.	c #CE7363",
"(.	c #CE7463",
"_.	c #E37F6D",
":.	c #E27E6C",
"<.	c #C87267",
"[.	c #855259",
"}.	c #FBCA96",
"|.	c #FCCA97",
"1.	c #FBC996",
"2.	c #E3806D",
"3.	c #E27E6D",
"4.	c #FAC896",
"5.	c #F9C393",
"6.	c #F2B389",
"7.	c #E89478",
"8.	c #F3B68B",
"9.	c #EDA380",
"0.	c #E68D74",
"a.	c #F4B88C",
"b.	c #EEA581",
"c.	c #E89377",
"d.	c #E48670",
"e.	c #E27F6D",
"f.	c #463852",
"g.	c #613A53",
"h.	c #6D3F52",
"i.	c #754453",
"j.	c #794A55",
"k.	c #E48671",
"l.	c #E3816E",
"m.	c #513753",
"n.	c #6E3757",
"o.	c #883E57",
"p.	c #9E4A54",
"q.	c #AC5756",
"r.	c #B2625C",
"s.	c #893E4F",
"t.	c #393751",
"u.	c #A24658",
"v.	c #B95858",
"w.	c #C6655B",
"x.	c #CB6F60",
"y.	c #663A51",
"z.	c #B04F56",
"A.	c #C2645C",
"B.	c #CD7262",
"C.	c #D96B60",
"D.	c #6F4152",
"E.	c #9A404F",
"F.	c #543853",
"G.	c #5C3854",
"H.	c #613853",
"I.	c #653952",
"J.	c #693B51",
"K.	c #523853",
"L.	c #AE434E",
"M.	c #B75454",
"N.	c #C6695E",
"O.	c #BD5E59",
"P.	c #803758",
"Q.	c #893957",
"R.	c #913C54",
"S.	c #973F51",
"T.	c #933F52",
"U.	c #B85454",
"V.	c #C66A5E",
"W.	c #C86C60",
"X.	c #803858",
"Y.	c #953959",
"Z.	c #9F3C56",
"`.	c #A63F53",
" +	c #AC4350",
".+	c #883956",
"++	c #9E3C56",
"@+	c #A74053",
"#+	c #AC4250",
"$+	c #AE444F",
"%+	c #883957",
"&+	c #5A3852",
"*+	c #7D3A54",
"=+	c #903C54",
"-+	c #6D3757",
";+	c #833957",
">+	c #4B3851",
",+	c #5C3952",
"'+	c #663A52",
")+	c #6A3B51",
"!+	c #533753",
"~+	c #6A3B50",
"{+	c #523753",
"]+	c #933E52",
"^+	c #603A50",
"/+	c #893F4F",
"(+	c #3A3851",
"_+	c #B75354",
":+	c #883F58",
"<+	c #883E58",
"[+	c #B85758",
"}+	c #C05D57",
"|+	c #A54C52",
"1+	c #C86B5E",
"2+	c #9E4650",
"3+	c #873D4F",
"4+	c #3C3751",
"5+	c #513B51",
"6+	c #694051",
"7+	c #754553",
"8+	c #794B55",
"9+	c #7B4D56",
"0+	c #663E51",
"a+	c #954A52",
"b+	c #AB5656",
"c+	c #B3625C",
"d+	c #AD5756",
"e+	c #974B52",
"f+	c #683F51",
"g+	c #A14E53",
"h+	c #BF5A55",
"i+	c #C7675C",
"j+	c #A64D52",
"k+	c #6D3D50",
"l+	c #B85051",
"m+	c #C05B56",
"n+	c #9F4650",
"o+	c #623A50",
". + @ # $ @ % & * = - ; > , ' ) ! ~ { ] ^ / ( ( ( ( _ : : < [ } | [ 1 2 3 3 3 3 3 3 2 1 [ | ! ~ ! ! ! ! ! ! ! ! ! ! ! ! ! ! !   ",
"4 5 6 7 8 6 9 0 a b c d e f g ' ~ h ] i j k l l m m n o o n p q q p r s t u v u w u x y z [ ! A ! ! ! ! ! ! ! ! ! ! ! ! ! ! !   ",
"B 9 C D E C F G H I J K L M N O A P ^ j Q R S S S S T U V W X 1 1 X Y Z ` ` ` ` ` ` Z Y X 1 ! h ! ! ! ! ! ! ! ! ! ! ! ! ! ! !   ",
" ...+.@.#.+.$.%.&.*.=.-.;.>.e > A ,./ k R '.).).S ).!.~.{.].s 2 2 s Z ^./.(././.(./.^.Z x 2 ! P ! ! ! ! ! ! ! ! ! ! ! ! ! ! !   ",
"* b I &.I I I I H I J K _.:.<.[.A ,./ k R '.).).S ).!.~.{.].s 2 2 s Z ^./.(././.(./.^.Z x 2 ! P ! ! ! ! ! ! ! ! ! ! ! ! ! ! !   ",
"= b }.|.1.}.I I H I J K 2.3.<.[.A ,.^ j Q R S S S S T U V W X 1 1 X Y Z ` ` ` ` ` ` Z Y X 1 ! h ! ! ! ! ! ! ! ! ! ! ! ! ! ! !   ",
"* b I &.I I I I 4.5.6.7._.3.<.[.~ ,.] i j k l l m m n o o n p q q p r s t u v u w u x y z [ ! A ! ! ! ! ! ! ! ! ! ! ! ! ! ! !   ",
"* b I &.I I I I 5.8.9.0._.3.<.[.! ,.{ ] ^ / ( ( ( ( _ : : < [ } | [ 1 2 3 3 3 3 3 3 2 1 [ | ! ~ ! ! ! ! ! ! ! ! ! ! ! ! ! ! !   ",
"* a H &.H H 4.5.a.b.c.d._.e.<.[.! ,.! ! ! ! f.] g.h.i.j.3 3 3 3 3 3 3 3 2 1 [ | ! ~ ! ! ! ! ! ! ! ! ! ! ! ! ! ! ! ! ! ! ! ! !   ",
"* b I &.I I 5.8.b.c.k.l._.e.<.[.! ,.! ~ h A m.n.o.p.q.r.v u v u u v u t s r s.q P t.P h A ~ ! ! ! ! ! ! ! ! ! ! ! ! ! ! ! ! !   ",
"- c J =.J J 6.9.c.k.e.e.2.e.<.[.! ,.! ! A ! ^ j u.v.w.x.` ` ` ` ` ` ` ` Z Y X 1 ! h ! ! ! ! ! ! ! ! ! ! ! ! ! ! ! ! ! ! ! ! !   ",
"; d K -.K K 7.0.d.l.e.e._.e.<.[.! ,.! ! A ! y.k z.A.x.B././././././.(./.^.Z x 2 ! P ! ! ! ! ! ! ! ! ! ! ! ! ! ! ! ! ! ! ! ! !   ",
"> e L ;._.2._._._._.2._.;.L e > ! ,.! ! A ! y.k z.A.x.B././././././.(./.^.Z x 2 ! P ! ! ! ! ! ! ! ! ! ! ! ! ! ! ! ! ! ! ! ! !   ",
", f M >.:.3.3.3.e.e.e.e.L C.N O ! P ! ! A ! ^ j u.v.w.x.` ` ` ` ` ` ` ` Z Y X 1 ! h ! ! ! ! ! ! ! ! ! ! ! ! ! ! ! ! ! ! ! ! !   ",
"' g N e <.<.<.<.<.<.<.<.e N g ' ! h ! ~ h A m.n.o.p.q.r.t u v u u v u t s r s.q P t.P h A ~ ! ! ! ! ! ! ! ! ! ! ! ! ! ! ! ! !   ",
") ' O > [.[.[.[.[.[.[.[.> O ' ) ! ~ ! ! ! ! f.] g.h.i.j.3 3 3 3 3 3 3 3 2 1 [ | ! ~ ! ! ! ! ! ! ! ! ! ! ! ! ! ! ! ! ! ! ! ! !   ",
"! ~ A A A A h h h h h h A A A A ~ ! { ] ^ / ( ( ( ( D.2 2 1 [ | | [ 1 2 3 3 3 3 3 3 2 1 [ | ! ~ ! ! ! ! ! ! ! ! ! ! ! ! ! ! !   ",
"~ h P ,.,.,.,.,.,.,.,.,.,.P h ~ ~ ! ] i j k l l E.m r s s r p q q p r s t u v u w u x y z [ ! A ! ! ! ! ! ! ! ! ! ! ! ! ! ! !   ",
"{ F.G.H.I.J.( ( ( ( ( ( J.I.H.G.K.{ ^ j Q R S S L.S M.N.Z O.X 1 1 X Y Z ` ` ` ` ` ` Z Y X 1 ! h ! ! ! ! ! ! ! ! ! ! ! ! ! ! !   ",
"F.i P.Q.R.S.l l l l l l S.R.Q.P.n.F./ T.R '.).).L.).U.V.^.W.s 2 2 s Z ^./.(././.(./.^.Z x 2 ! P ! ! ! ! ! ! ! ! ! ! ! ! ! ! !   ",
"G.X.Y.Z.`. +).).).).).). +`.Z.Y.P.G./ T.R '.).).L.).U.V.^.W.s 2 2 s Z ^./.(././.(./.^.Z x 2 ! P ! ! ! ! ! ! ! ! ! ! ! ! ! ! !   ",
"H..+++@+#+$+).).).).).).$+#+@+++%+H.^ j Q R S S L.S M.N.Z O.X 1 1 X Y Z ` ` ` ` ` ` Z Y X 1 ! h ! ! ! ! ! ! ! ! ! ! ! ! ! ! !   ",
"&+*+=+S.m m m m m l l m m m S.=+*+&+m.-+;+T.m l m m X s s r p q q p r s t v t v u u x y z [ ! A ! ! ! ! ! ! ! ! ! ! ! ! ! ! !   ",
">+,+'+)+( ( ( ( ( ( ( ( ( ( )+'+,+>+{ !+^ / ( ( ( ( D.2 2 1 [ | | [ 1 2 3 3 3 3 3 3 2 1 [ | ! ~ ! ! ! ! ! ! ! ! ! ! ! ! ! ! !   ",
"~+~+~+~+~+~+y.^ !+f.f.!+^ y.~+~+~+~+~+~+y.^ {+f.| [ 1 2 3 3 3 3 3 3 3 3 3 3 2 1 [ | ! ~ ! ! ! ! ! ! ! ! ! ! ! ! ! ! ! ! ! ! !   ",
"m m m m m m ]+;+-+m.m.-+;+]+m m m m l m T.;+-+m.^+/+r s t u v u u v v t v t s r p q P (+A ~ ! ! ! ! ! ! ! ! ! ! ! ! ! ! ! ! !   ",
"_+_+_+_+M._+z.u.:+g.g.:+u.z._+M._+_+M._+z.u.<+g.1 X Y Z ` ` ` ` ` ` ` ` ` ` Z Y X 1 ! h ! ! ! ! ! ! ! ! ! ! ! ! ! ! ! ! ! ! !   ",
"N.N.N.N.N.N.A.[+p.h.h.p.[+A.N.N.N.N.N.N.A.[+p.h.2 x Z ^./.(././././././.(./.^.Z x 2 ! P ! ! ! ! ! ! ! ! ! ! ! ! ! ! ! ! ! ! !   ",
"/./././.(./.{.}+|+: : |+}+{./.(././.(./.{.}+o : 2 x Z ^./.(././././././.(./.^.Z x 2 ! P ! ! ! ! ! ! ! ! ! ! ! ! ! ! ! ! ! ! !   ",
"` ` ` ` (.` 1+W 2+< < 2+W 1+` (.` ` (.` 1+W n < 1 X Y Z ` ` ` ` ` ` ` ` ` ` Z Y X 1 ! h ! ! ! ! ! ! ! ! ! ! ! ! ! ! ! ! ! ! !   ",
"u v v t v t s r p q q p r s t u v u w u x y /+[ [ /+y x u w u u u u u u w u x y z [ ! A ! ! ! ! ! ! ! ! ! ! ! ! ! ! ! ! ! ! !   ",
"3 3 3 3 3 3 2 1 [ } } [ 1 2 3 3 3 3 3 3 2 1 [ } | [ 1 2 3 3 3 3 3 3 3 3 3 3 2 1 [ | ! ~ ! ! ! ! ! ! ! ! ! ! ! ! ! ! ! ! ! ! !   ",
"| [ 1 2 3 3 3 3 3 3 3 3 3 3 2 1 [ | ! ~ ! ! ! ! ! ! ! ! ! ! ! ! ! ! ! ! ! ! ! ! ! ! ! ! ! ! ! ! ! ! ! ! ! ! ! ! ! ! ! ! ! ! !   ",
"q 3+r s t v t v v u u v u t s r s.q P t.P h A ~ ~ A h P P P P P P P P P P P P h A ~ ! ! ! ! ! ! ! ! ! ! ! ! ! ! ! ! ! ! ! ! !   ",
"1 r Y Z ` ` ` ` ` ` ` ` ` ` Z Y X 1 ! h ! ! ! ! ! ! ! ! ! ! ! ! ! ! ! ! ! ! ! ! ! ! ! ! ! ! ! ! ! ! ! ! ! ! ! ! ! ! ! ! ! ! !   ",
"2 s Z ^./.(././././././.(./.^.Z x 2 ! P ! ! ! ! ! ! ! ! ! ! ! ! ! ! ! ! ! ! ! ! ! ! ! ! ! ! ! ! ! ! ! ! ! ! ! ! ! ! ! ! ! ! !   ",
"2 s Z ^./.(././././././.(./.^.Z x 2 ! P ! ! ! ! ! ! ! ! ! ! ! ! ! ! ! ! ! ! ! ! ! ! ! ! ! ! ! ! ! ! ! ! ! ! ! ! ! ! ! ! ! ! !   ",
"1 r Y Z ` ` ` ` ` ` ` ` ` ` Z Y X 1 ! h ! ! ! ! ! ! ! ! ! ! ! ! ! ! ! ! ! ! ! ! ! ! ! ! ! ! ! ! ! ! ! ! ! ! ! ! ! ! ! ! ! ! !   ",
"q 3+r s t v t v v u v v u t s r s.q P t.P 4+A ~ ! ! ! ! ! ! ! ! ! ! ! ! ! ! ! ! ! ! ! ! ! ! ! ! ! ! ! ! ! ! ! ! ! ! ! ! ! ! !   ",
"| [ 1 2 3 3 3 3 3 3 3 3 3 3 2 1 [ | ! ~ ! ! ! ! ! ! ! ! ! ! ! ! ! ! ! ! ! ! ! ! ! ! ! ! ! ! ! ! ! ! ! ! ! ! ! ! ! ! ! ! ! ! !   ",
"3 3 3 3 3 3 2 1 [ | 5+6+7+8+9+3 3 3 3 9+8+7+6+5+! ~ ! ! ! ! ! ! ! ! ! ! ! ! ! ! ! ! ! ! ! ! ! ! ! ! ! ! ! ! ! ! ! ! ! ! ! ! !   ",
"u v v t v t s r p q 0+a+b+r.t u v u w u c+d+e+f+! A ! ! ! ! ! ! ! ! ! ! ! ! ! ! ! ! ! ! ! ! ! ! ! ! ! ! ! ! ! ! ! ! ! ! ! ! !   ",
"` ` ` ` ` ` Z Y g+1 : o h+i+x.B././.B.x.i+h+j+: ! h ! ! ! ! ! ! ! ! ! ! ! ! ! ! ! ! ! ! ! ! ! ! ! ! ! ! ! ! ! ! ! ! ! ! ! ! !   ",
"/./././.(./.^.Z x 2 k+n l+m+w.x.(.(.x.w.m+l+n+k+! h ! ! ! ! ! ! ! ! ! ! ! ! ! ! ! ! ! ! ! ! ! ! ! ! ! ! ! ! ! ! ! ! ! ! ! ! !   ",
"/./././.(./.^.Z x 2 o+s.n j+d+r.w w r.d+j+n z o+! A ! ! ! ! ! ! ! ! ! ! ! ! ! ! ! ! ! ! ! ! ! ! ! ! ! ! ! ! ! ! ! ! ! ! ! ! !   ",
"` ` ` ` ` ` Z Y X 1 } ^+k+: i.j.3 3 j.i.: k+o+} ! ~ ! ! ! ! ! ! ! ! ! ! ! ! ! ! ! ! ! ! ! ! ! ! ! ! ! ! ! ! ! ! ! ! ! ! ! ! !   ",
"u u u u w u x y z [ ! A ! ! ! ! ! ! ! ! ! ! ! ! ! ! ! ! ! ! ! ! ! ! ! ! ! ! ! ! ! ! ! ! ! ! ! ! ! ! ! ! ! ! ! ! ! ! ! ! ! ! !   ",
"3 3 3 3 3 3 2 1 [ | ~ h h h 4+P P P P 4+h h A ~ ! ! ! ! ! ! ! ! ! ! ! ! ! ! ! ! ! ! ! ! ! ! ! ! ! ! ! ! ! ! ! ! ! ! ! ! ! ! !   ",
"! ! ! ! ! ! ! ! ! ! ! ! ! ! ! ! ! ! ! ! ! ! ! ! ! ! ! ! ! ! ! ! ! ! ! ! ! ! ! ! ! ! ! ! ! ! ! ! ! ! ! ! ! ! ! ! ! ! ! ! ! ! !   ",
"P P P P P P P h A ~ ! ! ! ! ! ! ! ! ! ! ! ! ! ! ! ! ! ! ! ! ! ! ! ! ! ! ! ! ! ! ! ! ! ! ! ! ! ! ! ! ! ! ! ! ! ! ! ! ! ! ! ! !   ",
"! ! ! ! ! ! ! ! ! ! ! ! ! ! ! ! ! ! ! ! ! ! ! ! ! ! ! ! ! ! ! ! ! ! ! ! ! ! ! ! ! ! ! ! ! ! ! ! ! ! ! ! ! ! ! ! ! ! ! ! ! ! !   ",
"! ! ! ! ! ! ! ! ! ! ! ! ! ! ! ! ! ! ! ! ! ! ! ! ! ! ! ! ! ! ! ! ! ! ! ! ! ! ! ! ! ! ! ! ! ! ! ! ! ! ! ! ! ! ! ! ! ! ! ! ! ! !   ",
"! ! ! ! ! ! ! ! ! ! ! ! ! ! ! ! ! ! ! ! ! ! ! ! ! ! ! ! ! ! ! ! ! ! ! ! ! ! ! ! ! ! ! ! ! ! ! ! ! ! ! ! ! ! ! ! ! ! ! ! ! ! !   ",
"! ! ! ! ! ! ! ! ! ! ! ! ! ! ! ! ! ! ! ! ! ! ! ! ! ! ! ! ! ! ! ! ! ! ! ! ! ! ! ! ! ! ! ! ! ! ! ! ! ! ! ! ! ! ! ! ! ! ! ! ! ! !   ",
"! ! ! ! ! ! ! ! ! ! ! ! ! ! ! ! ! ! ! ! ! ! ! ! ! ! ! ! ! ! ! ! ! ! ! ! ! ! ! ! ! ! ! ! ! ! ! ! ! ! ! ! ! ! ! ! ! ! ! ! ! ! !   ",
"! ! ! ! ! ! ! ! ! ! ! ! ! ! ! ! ! ! ! ! ! ! ! ! ! ! ! ! ! ! ! ! ! ! ! ! ! ! ! ! ! ! ! ! ! ! ! ! ! ! ! ! ! ! ! ! ! ! ! ! ! ! !   ",
"! ! ! ! ! ! ! ! ! ! ! ! ! ! ! ! ! ! ! ! ! ! ! ! ! ! ! ! ! ! ! ! ! ! ! ! ! ! ! ! ! ! ! ! ! ! ! ! ! ! ! ! ! ! ! ! ! ! ! ! ! ! !   ",
"! ! ! ! ! ! ! ! ! ! ! ! ! ! ! ! ! ! ! ! ! ! ! ! ! ! ! ! ! ! ! ! ! ! ! ! ! ! ! ! ! ! ! ! ! ! ! ! ! ! ! ! ! ! ! ! ! ! ! ! ! ! !   ",
"! ! ! ! ! ! ! ! ! ! ! ! ! ! ! ! ! ! ! ! ! ! ! ! ! ! ! ! ! ! ! ! ! ! ! ! ! ! ! ! ! ! ! ! ! ! ! ! ! ! ! ! ! ! ! ! ! ! ! ! ! ! !   ",
"! ! ! ! ! ! ! ! ! ! ! ! ! ! ! ! ! ! ! ! ! ! ! ! ! ! ! ! ! ! ! ! ! ! ! ! ! ! ! ! ! ! ! ! ! ! ! ! ! ! ! ! ! ! ! ! ! ! ! ! ! ! !   ",
"! ! ! ! ! ! ! ! ! ! ! ! ! ! ! ! ! ! ! ! ! ! ! ! ! ! ! ! ! ! ! ! ! ! ! ! ! ! ! ! ! ! ! ! ! ! ! ! ! ! ! ! ! ! ! ! ! ! ! ! ! ! !   ",
"! ! ! ! ! ! ! ! ! ! ! ! ! ! ! ! ! ! ! ! ! ! ! ! ! ! ! ! ! ! ! ! ! ! ! ! ! ! ! ! ! ! ! ! ! ! ! ! ! ! ! ! ! ! ! ! ! ! ! ! ! ! !   ",
"! ! ! ! ! ! ! ! ! ! ! ! ! ! ! ! ! ! ! ! ! ! ! ! ! ! ! ! ! ! ! ! ! ! ! ! ! ! ! ! ! ! ! ! ! ! ! ! ! ! ! ! ! ! ! ! ! ! ! ! ! ! !   ",
"                                                                                                                                "};
