/* XPM */
static char * corner_h_l_xpm[] = {
"64 64 208 2",
"  	c None",
". 	c #3F3851",
"+ 	c #3E3851",
"@ 	c #3D3851",
"# 	c #3C3851",
"$ 	c #3B3751",
"% 	c #3C3751",
"& 	c #4D3851",
"* 	c #613A50",
"= 	c #6F4052",
"- 	c #774955",
"; 	c #7A4D56",
"> 	c #8A3F4F",
", 	c #A24D53",
"' 	c #AF5F5B",
") 	c #B5685F",
"! 	c #B6685F",
"~ 	c #4D3951",
"{ 	c #623A50",
"] 	c #6D3D50",
"^ 	c #714051",
"/ 	c #754453",
"( 	c #794A55",
"_ 	c #603A50",
": 	c #A24E53",
"< 	c #BD5D58",
"[ 	c #C86C5F",
"} 	c #CD7363",
"| 	c #9E4550",
"1 	c #A64D52",
"2 	c #AD5756",
"3 	c #B2625C",
"4 	c #893E4F",
"5 	c #CD7162",
"6 	c #CE7363",
"7 	c #CE7463",
"8 	c #9F4650",
"9 	c #B85051",
"0 	c #C05B56",
"a 	c #C6655B",
"b 	c #CB6F60",
"c 	c #BF5A55",
"d 	c #C7675C",
"e 	c #CD7262",
"f 	c #A54C51",
"g 	c #A14E53",
"h 	c #393751",
"i 	c #663E51",
"j 	c #954A52",
"k 	c #AB5656",
"l 	c #B4675F",
"m 	c #B5675F",
"n 	c #5F3950",
"o 	c #883E4F",
"p 	c #A14D53",
"q 	c #AE5F5B",
"r 	c #513B51",
"s 	c #694051",
"t 	c #754553",
"u 	c #794B55",
"v 	c #7B4D56",
"w 	c #C86C60",
"x 	c #C86B5E",
"y 	c #BA5755",
"z 	c #9E4650",
"A 	c #6D3C50",
"B 	c #CA6C5F",
"C 	c #C05D57",
"D 	c #A54C52",
"E 	c #C96C5F",
"F 	c #C6695E",
"G 	c #C2645C",
"H 	c #B85758",
"I 	c #9E4A54",
"J 	c #6D3F52",
"K 	c #764553",
"L 	c #AC5756",
"M 	c #BB5755",
"N 	c #B75354",
"O 	c #B75454",
"P 	c #B04F56",
"Q 	c #A24658",
"R 	c #883F58",
"S 	c #613A53",
"T 	c #673F51",
"U 	c #9A414F",
"V 	c #9B414F",
"W 	c #933E52",
"X 	c #833957",
"Y 	c #6D3757",
"Z 	c #513753",
"` 	c #523753",
" .	c #6E3757",
"..	c #843A57",
"+.	c #933F52",
"@.	c #683F51",
"#.	c #6A3B50",
"$.	c #6A3A50",
"%.	c #663A51",
"&.	c #5E3853",
"*.	c #533753",
"=.	c #463852",
"-.	c #533853",
";.	c #473852",
">.	c #553853",
",.	c #603953",
"'.	c #683A51",
").	c #6C3C50",
"!.	c #3A3851",
"~.	c #B3625C",
"{.	c #883E57",
"].	c #3B3851",
"^.	c #B95858",
"/.	c #6F3757",
"(.	c #943F52",
"_.	c #3A3751",
":.	c #543A51",
"<.	c #703E51",
"[.	c #7F4654",
"}.	c #834E57",
"|.	c #855259",
"1.	c #A54A53",
"2.	c #BE5A59",
"3.	c #C56A62",
"4.	c #C87267",
"5.	c #6E3D51",
"6.	c #6B3B50",
"7.	c #673A51",
"8.	c #D96B60",
"9.	c #E07969",
"0.	c #E27F6D",
"a.	c #E27E6D",
"b.	c #E27E6C",
"c.	c #E07868",
"d.	c #D96A60",
"e.	c #BD5958",
"f.	c #7F4553",
"g.	c #E37E6C",
"h.	c #E37F6D",
"i.	c #E3806D",
"j.	c #BE5955",
"k.	c #B54D51",
"l.	c #AE444E",
"m.	c #A84251",
"n.	c #9B3D56",
"o.	c #E3816E",
"p.	c #E48670",
"q.	c #E68D74",
"r.	c #E89478",
"s.	c #E9977A",
"t.	c #EA987A",
"u.	c #CE8671",
"v.	c #895D5E",
"w.	c #C4645B",
"x.	c #B75253",
"y.	c #AF444E",
"z.	c #AD434F",
"A.	c #E48671",
"B.	c #E89377",
"C.	c #EDA380",
"D.	c #F2B389",
"E.	c #F5BA8E",
"F.	c #F6BB8E",
"G.	c #D8A581",
"H.	c #8F6F65",
"I.	c #EEA581",
"J.	c #F3B68B",
"K.	c #F9C393",
"L.	c #FBCA97",
"M.	c #FCCB98",
"N.	c #DDB289",
"O.	c #927769",
"P.	c #F4B88C",
"Q.	c #FAC896",
"R.	c #FBCB97",
"S.	c #DEB389",
"T.	c #FBCA96",
"U.	c #FBC996",
"V.	c #FCCA97",
"W.	c #927669",
"X.	c #FCCB97",
"Y.	c #FCCD9A",
"Z.	c #FDD29F",
"`.	c #FDD6A4",
" +	c #FDD8A9",
".+	c #FED9A9",
"++	c #DFBB91",
"@+	c #937C6D",
"#+	c #FCD19D",
"$+	c #FDDCA9",
"%+	c #FEE6B6",
"&+	c #FEECC2",
"*+	c #FFECC3",
"=+	c #E0C79E",
"-+	c #948373",
";+	c #DEBA90",
">+	c #E1D2AC",
",+	c #E1D9B8",
"'+	c #E2DAB9",
")+	c #C7B694",
"!+	c #85786E",
"~+	c #937B6D",
"{+	c #948474",
"]+	c #948A7C",
"^+	c #948F83",
"/+	c #958F83",
"(+	c #85796F",
"_+	c #5F565D",
"                                                                                                                                ",
"  . . . . . . . . . . . . . . . . . . . . . . . . . . . . . . . . . . . . . . . . . . . . . . . . . . . . . . . . . . . . . . . ",
"  . . . . . . . . . . . . . . . . . . . . . . . . . . . . . . . . . . . . . . . . . . . . . . . . . . . . . . . . . . . . . . . ",
"  . . . . . . . . . . . . . . . . . . . . . . . . . . . . . . . . . . . . . . . . . . . . . . . . . . . . . . . . . . . . . . . ",
"  . . . . . . . . . . . . . . . . . . . . . . . . . . . . . . . . . . . . . . . . . . . . . . . . . . . . . . . . . . . . . . . ",
"  . . . . . . . . . . . . . . . . . . . . . . . . . . . . . . . . . . . . . . . . . . . . . . . . . . . . . . . . . . . . . . . ",
"  . . . . . . . . . . . . . . . . . . . . . . . . . . . . . . . . . . . . . . . . . . . . . . . . . . . . . . . . . . . . . . . ",
"  . . . . . . . . . . . . . . . . . . . . . . . . . . . . . . . . . . . . . . . . . . . . . . . . . . . . . . . . . . . . . . . ",
"  . . . . . . . . . . . . . . . . . . . . . . . . . . . . . . . . . . . . . . . . . . . . . . . . . . . . . . . . . . . . . . . ",
"  . . . . . . . . . . . . . . . . . . . . . . . . . . . . . . . . . . . . . . . . . . . . . . . . . . . . . . . . . . . . . . . ",
"  . . . . . . . . . . . . . . . . . . . . . . . . . . . . . . . . . . . . . . . . . . . . . . . . . . . . . . . . . . . . . . . ",
"  . . . . . . . . . . . . . . . . . . . . . . . . . . . . . . . . . . . . . . . . . . . . . . . . . . . . . . . . . . . . . . . ",
"  . . . . . . . . . . . . . . . . . . . . . . . . . . . . . . . . . . . . . . . . . . . . . . . . . . . . . . . . . . . . . . . ",
"  . . . . . . . . . . . . . . . . . . . . . . . . . . . . . . . . . . . . . . . . . . . . . . . . . . . . . . . . . . . . . . . ",
"  . . . . . . . . . . . . . . . . . . . . . . . . . . . . . . . . . . . . . . . . . . . . . . . . . . . . . . . . . . . . . . . ",
"  . . . . . . . . . . . . . . . . . . . . . . . . . . . . . . . . . . . . . . . . . . . . . . . . . . . . . . . . . . . . . . . ",
"  . . . . . . . . . . . . . . . . . . . . . . . . . . . . . . . . . . . . . . . . . . . . . . . . . . . + @ # $ $ $ $ $ $ $ $ # ",
"  . . . . . . . . . . . . . . . . . . . . . . . . . . . . . . . . . . . . . . . . . . . . . . . . . . . . . . . . . . . . . . . ",
"  . . . . . . . . . . . . . . . . . . . . . . . . . . . . . . . . . . . + @ # # % $ $ $ $ $ $ % # # # + & * = - ; ; ; ; ; ; - = ",
"  . . . . . . . . . . . . . . . . . . . . . . . . . . . . . . . . . . . . . . . . . . . . . . . . . @ . * > , ' ) ! ) ) ! ) ' , ",
"  . . . . . . . . . . . . . . . . . . . . . . . . . . . . . . . . . + . ~ { ] ^ / ( ; ; ; ; ( / ^ ] _ ~ = : < [ } } } } } } [ < ",
"  . . . . . . . . . . . . . . . . . . . . . . . . . . . . . . . . . @ . { > | 1 2 3 ) ! ! ) 3 2 1 | 4 { - ' [ 5 6 7 6 6 7 6 5 [ ",
"  . . . . . . . . . . . . . . . . . . . . . . . . . . . . . . . . . # . ] 8 9 0 a b 6 7 7 6 b a 0 9 | ] - ' [ 5 6 7 6 6 7 6 5 [ ",
"  . . . . . . . . . . . . . . . . . . . . . . . . . . . . . . . . . # . ^ 1 c d b e 6 6 6 6 e b d c f ^ = g < [ } } } } } } [ < ",
"  . . . . . . . . . . . . . . . . . . . . . . . . . + @ # $ $ $ $ $ h $ i j k 3 l ) m ) ) m ) l 3 k j i n o p ' m ) ) m ) l q p ",
"  . . . . . . . . . . . . . . . . . . . . . . . . . . . . . . . . . + . r s t u v ; ; ; ; ; ; v u t s r & * = - ; ; ; ; ; ; - = ",
"  . . . . . . . . . . . . . . . . . . . . . . . + . & * = - ; ; ; ; ; ; ; ; ; ; - = * & & * = - ; ; ; ; ; ; - = * & & * = - ; ; ",
"  . . . . . . . . . . . . . . . . . . . . . . . @ . * > , ' ) ! ) ) ) ) m m ) l q p o n n o p q l ) m m ) m ' p o n n o p q l ) ",
"  . . . . . . . . . . . . . . . . . . . . . . . # . = : < [ } } } } } } } } } } [ < : = = : < [ } } } } } } [ < : = = : < [ } } ",
"  . . . . . . . . . . . . . . . . . . . . . . . $ . - ' [ 5 6 7 6 6 6 6 6 6 7 6 5 [ q - - q [ 5 6 7 6 6 7 6 5 [ q - - q [ 5 6 7 ",
"  . . . . . . . . . . . . . . . . . . . . . . . $ . - ' [ 5 6 7 6 6 6 6 6 6 7 6 5 [ q - - q [ 5 6 7 6 6 7 6 5 [ q - - q [ 5 6 7 ",
"  . . . . . . . . . . . . . . . . . . . . . . . # . = : < [ } } } } } } } } } } [ < : = = : < [ } } } } } } [ < : = = : < [ } } ",
"  . . . . . . . . . . . . . . . . . . . + @ # $ h $ n 4 p q l m l m m ) ) m ) l q p o n n o p q l ) m ) ) m ' p o n n o p q l ) ",
"  . . . . . . . . . . . . . . . . . . . . . . . + . & * = - ; ; ; ; ; ; ; ; ; ; - = * & & * = - ; ; ; ; ; ; - = * & & * = - ; ; ",
"  . . . . . . . . . . . . . . . . . + . & * = - ; ; ; ; ; ; ; ; - = * & & * = - ; ; ; ; ; ; ; ; - = * ~ ~ * = - ; ; ; ; ; ; - = ",
"  . . . . . . . . . . . . . . . . . @ . * > , ' ) ! ) m m l m l q p o n n o p q l ) m ) ) m ) l q p o n n o p ' m ) ) m ) l q p ",
"  . . . . . . . . . . . . . . . . . # . = : < [ } } } } } } } } [ < : = = p < w } 7 } } } } 7 } x y z A A z y x } 7 } } 7 } x y ",
"  . . . . . . . . . . . . . . . . . $ . - ' [ 5 6 7 6 6 6 6 7 6 5 [ q - - q [ 5 6 7 6 6 6 6 7 6 B C D ^ ^ D C B 6 7 6 6 7 6 B C ",
"  . . . . . . . . . . . . . . . . . $ . - ' [ 5 6 7 6 6 6 6 7 6 5 [ q - ( 3 E x F F F F F F F F G H I J J I H G F F F F F F G H ",
"  . . . . . . . . . . . . . . . . . # . = : < [ } } } } } } } } [ < p = K L C M N N N N N N O N P Q R S S R Q P N O N N O N P Q ",
"  . . . . . . . . . . . . . . . . . @ . * > , ' ) ) m l l l m l q p o n T j f 8 U U V V V U U U W X Y Z `  ...+.V V V U U U W X ",
"  . . . . . . . . . . . . . . . . . + . & * = - ; ; ; ; ; ; ; ; - = * & r @.^ A #.$.#.#.#.#.#.#.%.&.*.=.=.*.&.%.#.#.#.#.#.#.%.&.",
"  . . . . . . . . . . . . . . . . . . . . . + . & * = - ; ; ; ; ; ; ; ; ( / J S -.=.. . ;.>.,.'.).).).).'.,.>.;.. . ;.>.,.'.).).",
"  . . . . . . . . . . . . . . . . . . . + @ !.$ n o p q l m l l l m ) ) ~.L I {. .Z ].].Z  .X W U U V V +... .` ].].Z  .X W U U ",
"  . . . . . . . . . . . . . . . . . . . . . # . = : < [ } } } } } } } } b a ^.Q ..&.+ @ -./...(.V V V V (.../.-.+ + -./...(.V V ",
"  . . . . . . . . . . . . . . . . . . . . . $ . - ' [ 5 6 7 6 6 6 6 6 6 e b G P (.%.. @ ;.>.,.'.).).).).'.,.>.;.. . ;.>.,.'.).).",
"  . . . . . . . . . . . . . . . . . . . . . $ . - ' [ 5 6 7 6 6 6 6 6 6 e b G P (.%.. @ . . . . + # $ _._._._._._._._._._.$ # + ",
"  . . . . . . . . . . . . . . . . . . . . . # . = : < [ } } } } } } } } b a ^.Q ..&.. @ . + @ @ # # # # @ @ + . . . . + @ @ # # ",
"  . . . . . . . . . . . . . . . . . + @ # $ h $ n 4 p q l m l m m ) ) m 3 L I {. .Z @ # + . + . :.<.[.}.|.|.|.|.|.|.|.|.}.[.<.:.",
"  . . . . . . . . . . . . . . . . . . . . . + . & * = - ; ; ; ; ; ; ; ; ( / J S -.=.. . . . # . <.1.2.3.4.4.4.4.4.4.4.4.3.2.1.<.",
"  . . . . . . . . . . . . . . . + . & * = - ; ; ; ; ; ; ; ; - = * & r @.^ 5.6.6.6.6.7.&.-.;.$ . [.2.8.9.0.0.0.0.a.a.a.b.c.d.e.f.",
"  . . . . . . . . . . . . . . . @ . * > , ' ) ! ) m m l m l q p o n T j f | U U V V (.../.-._.+ }.3.9.g.h.i.h.h.h.h.i.h.g.9.3.}.",
"  . . . . . . . . . . . . . . . # . = : < [ } } } } } } } } [ < p = K L j.k.l.l.l.l.m.n...&._.@ |.4.0.h.0.0.o.p.q.r.s.s.t.s.u.v.",
"  . . . . . . . . . . . . . . . $ . - ' [ 5 6 7 6 6 6 6 7 6 5 [ q - u 3 w.x.y.l.y.y.z.m.(.7._.@ |.4.0.i.0.0.A.B.C.D.E.E.F.E.G.H.",
"  . . . . . . . . . . . . . . . $ . - ' [ 5 6 7 6 6 6 6 7 6 5 [ q - u 3 w.x.y.l.y.y.z.m.(.7._.@ |.4.0.h.o.A.B.I.J.K.L.L.M.L.N.O.",
"  . . . . . . . . . . . . . . . # . = : < [ } } } } } } } } [ < p = K L j.k.l.l.l.l.m.n...&._.@ |.4.0.h.p.B.I.P.K.Q.R.R.M.R.S.O.",
"  . . . . . . . . . . . . . . . @ . * > , ' ) ! ) m m l m l q p o n T j f | U U V V (.../.-._.+ |.4.a.h.q.C.J.K.L.L.L.L.M.L.N.O.",
"  . . . . . . . . . . . . . . . + . & * = - ; ; ; ; ; ; ; ; - = * & r @.^ 5.6.6.6.6.7.&.-.;._.. |.4.a.h.r.D.K.Q.L.L.L.L.M.L.N.O.",
"  . . . . . . . . . . . . . . . . . . . . . + . & * = - ; ; ; ; ; ; ; ; ( / J S -.=.. . . . _.. |.4.a.i.s.E.L.R.L.L.T.U.V.T.N.W.",
"  . . . . . . . . . . . . . . . . . + @ # $ h $ n 4 p q l m l m m ) ) m 3 L I {. .Z @ # + . _.. |.4.b.h.s.E.L.R.L.L.L.L.M.L.N.O.",
"  . . . . . . . . . . . . . . . . . . . . . # . = : < [ } } } } } } } } b a ^.Q ..&.. @ . . _.. }.3.c.g.t.F.X.M.Y.Z.`. +.+`.++@+",
"  . . . . . . . . . . . . . . . . . . . . . $ . - ' [ 5 6 7 6 6 6 6 6 6 e b G P (.%.. @ . . $ . [.2.d.9.s.E.L.R.#+$+%+&+*+%+=+-+",
"  . . . . . . . . . . . . . . . . . . . . . $ . - ' [ 5 6 7 6 6 6 6 6 6 e b G P (.%.. @ . . # . <.1.e.3.u.G.N.S.;+=+>+,+'+>+)+!+",
"  . . . . . . . . . . . . . . . . . . . . . # . = : < [ } } } } } } } } b a ^.Q ..&.. @ . . + . :.<.f.}.v.H.W.O.~+{+]+^+/+]+(+_+"};
