/* XPM */
static char * corner_h_l_xpm[] = {
"64 64 207 2",
"  	c #3F3851",
". 	c #3E3851",
"+ 	c #3D3851",
"@ 	c #3C3851",
"# 	c #3B3751",
"$ 	c #3C3751",
"% 	c #4D3851",
"& 	c #613A50",
"* 	c #6F4052",
"= 	c #774955",
"- 	c #7A4D56",
"; 	c #8A3F4F",
"> 	c #A24D53",
", 	c #AF5F5B",
"' 	c #B5685F",
") 	c #B6685F",
"! 	c #4D3951",
"~ 	c #623A50",
"{ 	c #6D3D50",
"] 	c #714051",
"^ 	c #754453",
"/ 	c #794A55",
"( 	c #603A50",
"_ 	c #A24E53",
": 	c #BD5D58",
"< 	c #C86C5F",
"[ 	c #CD7363",
"} 	c #9E4550",
"| 	c #A64D52",
"1 	c #AD5756",
"2 	c #B2625C",
"3 	c #893E4F",
"4 	c #CD7162",
"5 	c #CE7363",
"6 	c #CE7463",
"7 	c #9F4650",
"8 	c #B85051",
"9 	c #C05B56",
"0 	c #C6655B",
"a 	c #CB6F60",
"b 	c #BF5A55",
"c 	c #C7675C",
"d 	c #CD7262",
"e 	c #A54C51",
"f 	c #A14E53",
"g 	c #393751",
"h 	c #663E51",
"i 	c #954A52",
"j 	c #AB5656",
"k 	c #B4675F",
"l 	c #B5675F",
"m 	c #5F3950",
"n 	c #883E4F",
"o 	c #A14D53",
"p 	c #AE5F5B",
"q 	c #513B51",
"r 	c #694051",
"s 	c #754553",
"t 	c #794B55",
"u 	c #7B4D56",
"v 	c #C86C60",
"w 	c #C86B5E",
"x 	c #BA5755",
"y 	c #9E4650",
"z 	c #6D3C50",
"A 	c #CA6C5F",
"B 	c #C05D57",
"C 	c #A54C52",
"D 	c #C96C5F",
"E 	c #C6695E",
"F 	c #C2645C",
"G 	c #B85758",
"H 	c #9E4A54",
"I 	c #6D3F52",
"J 	c #764553",
"K 	c #AC5756",
"L 	c #BB5755",
"M 	c #B75354",
"N 	c #B75454",
"O 	c #B04F56",
"P 	c #A24658",
"Q 	c #883F58",
"R 	c #613A53",
"S 	c #673F51",
"T 	c #9A414F",
"U 	c #9B414F",
"V 	c #933E52",
"W 	c #833957",
"X 	c #6D3757",
"Y 	c #513753",
"Z 	c #523753",
"` 	c #6E3757",
" .	c #843A57",
"..	c #933F52",
"+.	c #683F51",
"@.	c #6A3B50",
"#.	c #6A3A50",
"$.	c #663A51",
"%.	c #5E3853",
"&.	c #533753",
"*.	c #463852",
"=.	c #533853",
"-.	c #473852",
";.	c #553853",
">.	c #603953",
",.	c #683A51",
"'.	c #6C3C50",
").	c #3A3851",
"!.	c #B3625C",
"~.	c #883E57",
"{.	c #3B3851",
"].	c #B95858",
"^.	c #6F3757",
"/.	c #943F52",
"(.	c #3A3751",
"_.	c #543A51",
":.	c #703E51",
"<.	c #7F4654",
"[.	c #834E57",
"}.	c #855259",
"|.	c #A54A53",
"1.	c #BE5A59",
"2.	c #C56A62",
"3.	c #C87267",
"4.	c #6E3D51",
"5.	c #6B3B50",
"6.	c #673A51",
"7.	c #D96B60",
"8.	c #E07969",
"9.	c #E27F6D",
"0.	c #E27E6D",
"a.	c #E27E6C",
"b.	c #E07868",
"c.	c #D96A60",
"d.	c #BD5958",
"e.	c #7F4553",
"f.	c #E37E6C",
"g.	c #E37F6D",
"h.	c #E3806D",
"i.	c #BE5955",
"j.	c #B54D51",
"k.	c #AE444E",
"l.	c #A84251",
"m.	c #9B3D56",
"n.	c #E3816E",
"o.	c #E48670",
"p.	c #E68D74",
"q.	c #E89478",
"r.	c #E9977A",
"s.	c #EA987A",
"t.	c #CE8671",
"u.	c #895D5E",
"v.	c #C4645B",
"w.	c #B75253",
"x.	c #AF444E",
"y.	c #AD434F",
"z.	c #E48671",
"A.	c #E89377",
"B.	c #EDA380",
"C.	c #F2B389",
"D.	c #F5BA8E",
"E.	c #F6BB8E",
"F.	c #D8A581",
"G.	c #8F6F65",
"H.	c #EEA581",
"I.	c #F3B68B",
"J.	c #F9C393",
"K.	c #FBCA97",
"L.	c #FCCB98",
"M.	c #DDB289",
"N.	c #927769",
"O.	c #F4B88C",
"P.	c #FAC896",
"Q.	c #FBCB97",
"R.	c #DEB389",
"S.	c #FBCA96",
"T.	c #FBC996",
"U.	c #FCCA97",
"V.	c #927669",
"W.	c #FCCB97",
"X.	c #FCCD9A",
"Y.	c #FDD29F",
"Z.	c #FDD6A4",
"`.	c #FDD8A9",
" +	c #FED9A9",
".+	c #DFBB91",
"++	c #937C6D",
"@+	c #FCD19D",
"#+	c #FDDCA9",
"$+	c #FEE6B6",
"%+	c #FEECC2",
"&+	c #FFECC3",
"*+	c #E0C79E",
"=+	c #948373",
"-+	c #DEBA90",
";+	c #E1D2AC",
">+	c #E1D9B8",
",+	c #E2DAB9",
"'+	c #C7B694",
")+	c #85786E",
"!+	c #937B6D",
"~+	c #948474",
"{+	c #948A7C",
"]+	c #948F83",
"^+	c #958F83",
"/+	c #85796F",
"(+	c #5F565D",
"                                                                                                                                ",
"                                                                                                                                ",
"                                                                                                                                ",
"                                                                                                                                ",
"                                                                                                                                ",
"                                                                                                                                ",
"                                                                                                                                ",
"                                                                                                                                ",
"                                                                                                                                ",
"                                                                                                                                ",
"                                                                                                                                ",
"                                                                                                                                ",
"                                                                                                                                ",
"                                                                                                                                ",
"                                                                                                                                ",
"                                                                                                                                ",
"                                                                                                        . + @ # # # # # # # # @ ",
"                                                                                                                                ",
"                                                                        . + @ @ $ # # # # # # $ @ @ @ . % & * = - - - - - - = * ",
"                                                                                                    +   & ; > , ' ) ' ' ) ' , > ",
"                                                                    .   ! ~ { ] ^ / - - - - / ^ ] { ( ! * _ : < [ [ [ [ [ [ < : ",
"                                                                    +   ~ ; } | 1 2 ' ) ) ' 2 1 | } 3 ~ = , < 4 5 6 5 5 6 5 4 < ",
"                                                                    @   { 7 8 9 0 a 5 6 6 5 a 0 9 8 } { = , < 4 5 6 5 5 6 5 4 < ",
"                                                                    @   ] | b c a d 5 5 5 5 d a c b e ] * f : < [ [ [ [ [ [ < : ",
"                                                    . + @ # # # # # g # h i j 2 k ' l ' ' l ' k 2 j i h m n o , l ' ' l ' k p o ",
"                                                                    .   q r s t u - - - - - - u t s r q % & * = - - - - - - = * ",
"                                                .   % & * = - - - - - - - - - - = * & % % & * = - - - - - - = * & % % & * = - - ",
"                                                +   & ; > , ' ) ' ' ' ' l l ' k p o n m m n o p k ' l l ' l , o n m m n o p k ' ",
"                                                @   * _ : < [ [ [ [ [ [ [ [ [ [ < : _ * * _ : < [ [ [ [ [ [ < : _ * * _ : < [ [ ",
"                                                #   = , < 4 5 6 5 5 5 5 5 5 6 5 4 < p = = p < 4 5 6 5 5 6 5 4 < p = = p < 4 5 6 ",
"                                                #   = , < 4 5 6 5 5 5 5 5 5 6 5 4 < p = = p < 4 5 6 5 5 6 5 4 < p = = p < 4 5 6 ",
"                                                @   * _ : < [ [ [ [ [ [ [ [ [ [ < : _ * * _ : < [ [ [ [ [ [ < : _ * * _ : < [ [ ",
"                                        . + @ # g # m 3 o p k l k l l ' ' l ' k p o n m m n o p k ' l ' ' l , o n m m n o p k ' ",
"                                                .   % & * = - - - - - - - - - - = * & % % & * = - - - - - - = * & % % & * = - - ",
"                                    .   % & * = - - - - - - - - = * & % % & * = - - - - - - - - = * & ! ! & * = - - - - - - = * ",
"                                    +   & ; > , ' ) ' l l k l k p o n m m n o p k ' l ' ' l ' k p o n m m n o , l ' ' l ' k p o ",
"                                    @   * _ : < [ [ [ [ [ [ [ [ < : _ * * o : v [ 6 [ [ [ [ 6 [ w x y z z y x w [ 6 [ [ 6 [ w x ",
"                                    #   = , < 4 5 6 5 5 5 5 6 5 4 < p = = p < 4 5 6 5 5 5 5 6 5 A B C ] ] C B A 5 6 5 5 6 5 A B ",
"                                    #   = , < 4 5 6 5 5 5 5 6 5 4 < p = / 2 D w E E E E E E E E F G H I I H G F E E E E E E F G ",
"                                    @   * _ : < [ [ [ [ [ [ [ [ < : o * J K B L M M M M M M N M O P Q R R Q P O M N M M N M O P ",
"                                    +   & ; > , ' ' l k k k l k p o n m S i e 7 T T U U U T T T V W X Y Z `  ...U U U T T T V W ",
"                                    .   % & * = - - - - - - - - = * & % q +.] z @.#.@.@.@.@.@.@.$.%.&.*.*.&.%.$.@.@.@.@.@.@.$.%.",
"                                            .   % & * = - - - - - - - - / ^ I R =.*.    -.;.>.,.'.'.'.'.,.>.;.-.    -.;.>.,.'.'.",
"                                        . + ).# m n o p k l k k k l ' ' !.K H ~.` Y {.{.Y ` W V T T U U .. .` Z {.{.Y ` W V T T ",
"                                            @   * _ : < [ [ [ [ [ [ [ [ a 0 ].P  .%.. + =.^. ./.U U U U /. .^.=.. . =.^. ./.U U ",
"                                            #   = , < 4 5 6 5 5 5 5 5 5 d a F O /.$.  + -.;.>.,.'.'.'.'.,.>.;.-.    -.;.>.,.'.'.",
"                                            #   = , < 4 5 6 5 5 5 5 5 5 d a F O /.$.  +         . @ # (.(.(.(.(.(.(.(.(.(.# @ . ",
"                                            @   * _ : < [ [ [ [ [ [ [ [ a 0 ].P  .%.  +   . + + @ @ @ @ + + .         . + + @ @ ",
"                                    . + @ # g # m 3 o p k l k l l ' ' l 2 K H ~.` Y + @ .   .   _.:.<.[.}.}.}.}.}.}.}.}.[.<.:._.",
"                                            .   % & * = - - - - - - - - / ^ I R =.*.        @   :.|.1.2.3.3.3.3.3.3.3.3.2.1.|.:.",
"                                .   % & * = - - - - - - - - = * & % q +.] 4.5.5.5.5.6.%.=.-.#   <.1.7.8.9.9.9.9.0.0.0.a.b.c.d.e.",
"                                +   & ; > , ' ) ' l l k l k p o n m S i e } T T U U /. .^.=.(.. [.2.8.f.g.h.g.g.g.g.h.g.f.8.2.[.",
"                                @   * _ : < [ [ [ [ [ [ [ [ < : o * J K i.j.k.k.k.k.l.m. .%.(.+ }.3.9.g.9.9.n.o.p.q.r.r.s.r.t.u.",
"                                #   = , < 4 5 6 5 5 5 5 6 5 4 < p = t 2 v.w.x.k.x.x.y.l./.6.(.+ }.3.9.h.9.9.z.A.B.C.D.D.E.D.F.G.",
"                                #   = , < 4 5 6 5 5 5 5 6 5 4 < p = t 2 v.w.x.k.x.x.y.l./.6.(.+ }.3.9.g.n.z.A.H.I.J.K.K.L.K.M.N.",
"                                @   * _ : < [ [ [ [ [ [ [ [ < : o * J K i.j.k.k.k.k.l.m. .%.(.+ }.3.9.g.o.A.H.O.J.P.Q.Q.L.Q.R.N.",
"                                +   & ; > , ' ) ' l l k l k p o n m S i e } T T U U /. .^.=.(.. }.3.0.g.p.B.I.J.K.K.K.K.L.K.M.N.",
"                                .   % & * = - - - - - - - - = * & % q +.] 4.5.5.5.5.6.%.=.-.(.  }.3.0.g.q.C.J.P.K.K.K.K.L.K.M.N.",
"                                            .   % & * = - - - - - - - - / ^ I R =.*.        (.  }.3.0.h.r.D.K.Q.K.K.S.T.U.S.M.V.",
"                                    . + @ # g # m 3 o p k l k l l ' ' l 2 K H ~.` Y + @ .   (.  }.3.a.g.r.D.K.Q.K.K.K.K.L.K.M.N.",
"                                            @   * _ : < [ [ [ [ [ [ [ [ a 0 ].P  .%.  +     (.  [.2.b.f.s.E.W.L.X.Y.Z.`. +Z..+++",
"                                            #   = , < 4 5 6 5 5 5 5 5 5 d a F O /.$.  +     #   <.1.c.8.r.D.K.Q.@+#+$+%+&+$+*+=+",
"                                            #   = , < 4 5 6 5 5 5 5 5 5 d a F O /.$.  +     @   :.|.d.2.t.F.M.R.-+*+;+>+,+;+'+)+",
"                                            @   * _ : < [ [ [ [ [ [ [ [ a 0 ].P  .%.  +     .   _.:.e.[.u.G.V.N.!+~+{+]+^+{+/+(+"};
