/* XPM */
static char * top_xpm[] = {
"64 64 199 2",
"  	c #3F3851",
". 	c #3C3851",
"+ 	c #3D3851",
"@ 	c #3E3851",
"# 	c #3B3751",
"$ 	c #6F4052",
"% 	c #613A50",
"& 	c #4D3851",
"* 	c #3C3751",
"= 	c #774955",
"- 	c #7A4D56",
"; 	c #A24D53",
"> 	c #8A3F4F",
", 	c #AF5F5B",
"' 	c #B5685F",
") 	c #B6685F",
"! 	c #BD5D58",
"~ 	c #A24E53",
"{ 	c #4D3951",
"] 	c #603A50",
"^ 	c #6D3D50",
"/ 	c #714051",
"( 	c #754453",
"_ 	c #794A55",
": 	c #C86C5F",
"< 	c #CD7363",
"[ 	c #623A50",
"} 	c #893E4F",
"| 	c #9E4550",
"1 	c #A64D52",
"2 	c #AD5756",
"3 	c #B2625C",
"4 	c #CD7162",
"5 	c #CE7363",
"6 	c #CE7463",
"7 	c #B85051",
"8 	c #C05B56",
"9 	c #C6655B",
"0 	c #CB6F60",
"a 	c #A14E53",
"b 	c #A54C51",
"c 	c #BF5A55",
"d 	c #C7675C",
"e 	c #CD7262",
"f 	c #A14D53",
"g 	c #883E4F",
"h 	c #5F3950",
"i 	c #663E51",
"j 	c #954A52",
"k 	c #AB5656",
"l 	c #B4675F",
"m 	c #B5675F",
"n 	c #AE5F5B",
"o 	c #513B51",
"p 	c #694051",
"q 	c #754553",
"r 	c #794B55",
"s 	c #7B4D56",
"t 	c #BA5755",
"u 	c #9E4650",
"v 	c #6D3C50",
"w 	c #C86B5E",
"x 	c #C05D57",
"y 	c #A54C52",
"z 	c #CA6C5F",
"A 	c #B85758",
"B 	c #9E4A54",
"C 	c #6D3F52",
"D 	c #C2645C",
"E 	c #C6695E",
"F 	c #A24658",
"G 	c #883F58",
"H 	c #613A53",
"I 	c #B04F56",
"J 	c #B75354",
"K 	c #B75454",
"L 	c #833957",
"M 	c #6D3757",
"N 	c #513753",
"O 	c #933E52",
"P 	c #9A414F",
"Q 	c #9B414F",
"R 	c #933F52",
"S 	c #943F52",
"T 	c #843A57",
"U 	c #6F3757",
"V 	c #533853",
"W 	c #5E3853",
"X 	c #533753",
"Y 	c #463852",
"Z 	c #663A51",
"` 	c #6A3B50",
" .	c #6C3C50",
"..	c #683A51",
"+.	c #603953",
"@.	c #543853",
"#.	c #473852",
"$.	c #553853",
"%.	c #6E3757",
"&.	c #3B3851",
"*.	c #3A3751",
"=.	c #855259",
"-.	c #834E57",
";.	c #7F4654",
">.	c #703E51",
",.	c #543A51",
"'.	c #C87267",
").	c #C56A62",
"!.	c #BE5A59",
"~.	c #A44A53",
"{.	c #E27E6C",
"].	c #E27E6D",
"^.	c #E27F6D",
"/.	c #E07969",
"(.	c #D96B60",
"_.	c #BC5A59",
":.	c #E37F6D",
"<.	c #E3806D",
"[.	c #E37E6C",
"}.	c #C46A62",
"|.	c #E9977A",
"1.	c #E89478",
"2.	c #E68D74",
"3.	c #E48670",
"4.	c #E3816E",
"5.	c #C77166",
"6.	c #F5BA8E",
"7.	c #F2B389",
"8.	c #EDA380",
"9.	c #E89377",
"0.	c #E48671",
"a.	c #C77167",
"b.	c #FBCA97",
"c.	c #F9C393",
"d.	c #F3B68B",
"e.	c #EEA581",
"f.	c #E58771",
"g.	c #FBCB97",
"h.	c #FAC896",
"i.	c #F4B88C",
"j.	c #E99477",
"k.	c #EEA380",
"l.	c #855159",
"m.	c #F3B389",
"n.	c #855059",
"o.	c #FBC996",
"p.	c #FBCA96",
"q.	c #F6BB8E",
"r.	c #FDD8A9",
"s.	c #FDD6A4",
"t.	c #FDD29F",
"u.	c #FCCD9A",
"v.	c #FCCB98",
"w.	c #FCCB97",
"x.	c #F9C493",
"y.	c #F4B389",
"z.	c #E99478",
"A.	c #C77267",
"B.	c #FDD4A1",
"C.	c #FDD5A4",
"D.	c #FDD9AC",
"E.	c #FEECC2",
"F.	c #FEE6B6",
"G.	c #FDDCA9",
"H.	c #FCD19D",
"I.	c #FEE2B0",
"J.	c #FEE2AF",
"K.	c #FCD19E",
"L.	c #FEEFC8",
"M.	c #E0D8B8",
"N.	c #E0D1AB",
"O.	c #DFC79D",
"P.	c #DDB990",
"Q.	c #DDB289",
"R.	c #DCB188",
"S.	c #DAAA84",
"T.	c #D4997A",
"U.	c #CF8871",
"V.	c #C9796A",
"W.	c #AF6661",
"X.	c #774C57",
"Y.	c #E0D8B7",
"Z.	c #E0CEA4",
"`.	c #E0CDA3",
" +	c #E0DBBE",
".+	c #948F83",
"++	c #948A7C",
"@+	c #948474",
"#+	c #937B6D",
"$+	c #927769",
"%+	c #927669",
"&+	c #907267",
"*+	c #8D6862",
"=+	c #8A5E5E",
"-+	c #86565B",
";+	c #584053",
">+	c #948878",
",+	c #948877",
"'+	c #949186",
"                                                                                                                                ",
"                                                                                                                                ",
"                                                                                                                                ",
"                                                                                                                                ",
"                                                                                                                                ",
"                                                                                                                                ",
"                                                                                                                                ",
"                                                                                                                                ",
"                                                                                                                                ",
"                                                                                                                                ",
"                                                                                                                                ",
"                                                                                                                                ",
"                                                                                                                                ",
"                                                                                                                                ",
"                                                                                                                                ",
"                                                                                                                                ",
". + @                                 @ + . # # # # # # # # # # . + @                                 @ + . # # # # # # # # # # ",
"                                                                                                                                ",
"$ % & @ . . . * # # # # # # * . . . @ & % $ = - - - - - - - - = $ % & @ . . . * # # # # # # * . . . @ & % $ = - - - - - - - - = ",
"; > %   +                         +   % > ; , ' ) ' ' ' ' ) ' , ; > %   +                         +   % > ; , ' ) ' ' ' ' ) ' , ",
"! ~ $ { ] ^ / ( _ - - - - _ ( / ^ ] { $ ~ ! : < < < < < < < < : ! ~ $ { ] ^ / ( _ - - - - _ ( / ^ ] { $ ~ ! : < < < < < < < < : ",
": , = [ } | 1 2 3 ' ) ) ' 3 2 1 | } [ = , : 4 5 6 5 5 5 5 6 5 4 : , = [ } | 1 2 3 ' ) ) ' 3 2 1 | } [ = , : 4 5 6 5 5 5 5 6 5 4 ",
": , = ^ | 7 8 9 0 5 6 6 5 0 9 8 7 | ^ = , : 4 5 6 5 5 5 5 6 5 4 : , = ^ | 7 8 9 0 5 6 6 5 0 9 8 7 | ^ = , : 4 5 6 5 5 5 5 6 5 4 ",
"! a $ / b c d 0 e 5 5 5 5 e 0 d c b / $ a ! : < < < < < < < < : ! a $ / b c d 0 e 5 5 5 5 e 0 d c b / $ a ! : < < < < < < < < : ",
"f g h i j k 3 l ' m ' ' m ' l 3 k j i h g f , m ' ' m m l m l n f g h i j k 3 l ' m ' ' m ' l 3 k j i h g f , m ' ' m m l m l n ",
"$ % & o p q r s - - - - - - s r q p o & % $ = - - - - - - - - = $ % & o p q r s - - - - - - s r q p o & % $ = - - - - - - - - = ",
"- - - - - - - = $ % & & % $ = - - - - - - = $ % & & % $ = - - - - - - - - - - = $ % & & % $ = - - - - - - = $ % & & % $ = - - - ",
"m m ' m m ' l n f g h h g f n l ' m m ' m , f g h h g f n l m l m m ' m m ' l n f g h h g f n l ' m m ' m , f g h h g f n l m l ",
"< < < < < < < : ! ~ $ $ ~ ! : < < < < < < : ! ~ $ $ ~ ! : < < < < < < < < < < : ! ~ $ $ ~ ! : < < < < < < : ! ~ $ $ ~ ! : < < < ",
"5 5 5 5 5 6 5 4 : n = = n : 4 5 6 5 5 6 5 4 : n = = n : 4 5 6 5 5 5 5 5 5 6 5 4 : n = = n : 4 5 6 5 5 6 5 4 : n = = n : 4 5 6 5 ",
"5 5 5 5 5 6 5 4 : n = = n : 4 5 6 5 5 6 5 4 : n = = n : 4 5 6 5 5 5 5 5 5 6 5 4 : n = = n : 4 5 6 5 5 6 5 4 : n = = n : 4 5 6 5 ",
"< < < < < < < : ! ~ $ $ ~ ! : < < < < < < : ! ~ $ $ ~ ! : < < < < < < < < < < : ! ~ $ $ ~ ! : < < < < < < : ! ~ $ $ ~ ! : < < < ",
"m m ' ' m ' l n f g h h g f n l ' m ' ' m , f g h h g f n l m l m m ' ' m ' l n f g h h g f n l ' m ' ' m , f g h h g f n l m l ",
"- - - - - - - = $ % & & % $ = - - - - - - = $ % & & % $ = - - - - - - - - - - = $ % & & % $ = - - - - - - = $ % & & % $ = - - - ",
"$ % { { % $ = - - - - - - - - = $ % { { % $ = - - - - - - - - = $ % { { % $ = - - - - - - - - = $ % { { % $ = - - - - - - - - = ",
"f g h h g f n l ' m ' ' m ' l n f g h h g f , m ' ' m m l m l n f g h h g f n l ' m ' ' m ' l n f g h h g f , m ' ' m m l m l n ",
"t u v v u t w < 6 < < < < 6 < w t u v v u t w < 6 < < < < 6 < w t u v v u t w < 6 < < < < 6 < w t u v v u t w < 6 < < < < 6 < w ",
"x y / / y x z 5 6 5 5 5 5 6 5 z x y / / y x z 5 6 5 5 5 5 6 5 z x y / / y x z 5 6 5 5 5 5 6 5 z x y / / y x z 5 6 5 5 5 5 6 5 z ",
"A B C C B A D E E E E E E E E D A B C C B A D E E E E E E E E D A B C C B A D E E E E E E E E D A B C C B A D E E E E E E E E D ",
"F G H H G F I J K J J J J K J I F G H H G F I J K J J J J K J I F G H H G F I J K J J J J K J I F G H H G F I J K J J J J K J I ",
"L M N N M L O P P P Q Q P P P O L M N N M L R P Q Q Q Q Q Q Q S T U V V U T S Q Q Q Q Q P P P O L M N N M L R P Q Q P P P P P O ",
"W X Y Y X W Z ` ` ` ` ` ` ` ` Z W X Y Y X W Z ` ` ` ` ` ` ` ` Z W X Y Y X W Z ` ` ` ` ` ` ` ` Z W X Y Y X W Z ` ` ` ` ` ` ` ` Z ",
" . . . . . . ...+.@.#.#.@.+... . . . . . ...+.$.#.                                    #.$.+... . . . . . ...+.@.#.#.@.+... . . .",
"P P Q Q P P P O L M N N M L O P P P Q Q P R L %.N . &.. . . . + + @     @ + + . . &.. N %.L O P P P Q Q P R L M N N M L O P P P ",
"Q Q Q Q Q Q Q S T U V V U T S Q Q Q Q Q Q S T U V   @                             @   V U T S Q Q Q Q Q Q S T U V V U T S Q Q Q ",
" . . . . . . ...+.@.#.#.@.+... . . . . . ...+.$.#.                                    #.$.+... . . . . . ...+.@.#.#.@.+... . . .",
"*.*.*.*.*.*.*.*.*.*.# . @ @ . # *.*.*.*.*.*.*.*.*.*.*.*.*.*.*.*.*.*.*.*.# . @ @ . # *.*.*.*.*.*.*.*.*.*.*.*.*.*.*.*.*.*.*.*.*.*.",
". . . . . . . + + @     @ + + . . . . . . + + @                                         @ + + . . . . . . + + @     @ + + . . . ",
"=.=.=.=.=.=.=.=.=.-.;.>.,.,.>.;.-.=.=.=.=.=.=.=.=.=.=.=.=.=.=.=.=.=.=.-.;.>.,.,.>.;.-.=.=.=.=.=.=.=.=.=.=.=.=.=.=.=.=.=.=.=.=.=.",
"'.'.'.'.'.'.'.'.'.).!.~.>.>.~.!.).'.'.'.'.'.'.'.'.'.'.'.'.'.'.'.'.'.'.).!.~.>.>.~.!.).'.'.'.'.'.'.'.'.'.'.'.'.'.'.'.'.'.'.'.'.'.",
"{.{.{.{.{.].].^.^./.(._.;.;._.(./.^.^.].].{.{.{.{.{.{.{.{.{.{.].].^.^./.(._.;.;._.(./.^.^.].].{.{.{.{.{.{.{.{.{.{.{.{.{.{.{.{.{.",
":.:.:.:.:.:.:.<.:.[./.}.-.-.}./.[.:.<.:.:.:.:.:.:.:.:.:.:.:.:.:.:.<.:.[./.}.-.-.}./.[.:.<.:.:.:.:.:.:.:.:.:.:.:.:.:.:.:.:.:.:.:.",
"|.|.|.|.|.1.2.3.4.:.^.5.=.=.5.^.:.4.3.2.1.|.|.|.|.|.|.|.|.|.|.1.2.3.4.:.^.5.=.=.5.^.:.4.3.2.1.|.|.|.|.|.|.|.|.|.|.|.|.|.|.|.|.|.",
"6.6.6.6.6.7.8.9.0.<.^.a.=.=.a.^.<.0.9.8.7.6.6.6.6.6.6.6.6.6.6.7.8.9.0.<.^.a.=.=.a.^.<.0.9.8.7.6.6.6.6.6.6.6.6.6.6.6.6.6.6.6.6.6.",
"b.b.b.b.b.c.d.e.9.f.4.5.=.=.5.4.f.9.e.d.c.b.b.b.b.b.b.b.b.b.b.c.d.e.9.f.4.5.=.=.5.4.f.9.e.d.c.b.b.b.b.b.b.b.b.b.b.b.b.b.b.b.b.b.",
"g.g.g.g.g.h.c.i.e.j.3.5.=.=.5.3.j.e.i.c.h.g.g.g.g.g.g.g.g.g.g.h.c.i.e.j.3.5.=.=.5.3.j.e.i.c.h.g.g.g.g.g.g.g.g.g.g.g.g.g.g.g.g.g.",
"b.b.b.b.b.b.b.c.d.k.2.5.l.l.5.2.k.d.c.b.b.b.b.b.b.b.b.b.b.b.b.b.b.c.d.k.2.5.l.l.5.2.k.d.c.b.b.b.b.b.b.b.b.b.b.b.b.b.b.b.b.b.b.b.",
"b.b.b.b.b.b.b.h.c.m.1.5.n.n.5.1.m.c.h.b.b.b.b.b.b.b.b.b.b.b.b.b.b.h.c.m.1.5.n.n.5.1.m.c.h.b.b.b.b.b.b.b.b.b.b.b.b.b.b.b.b.b.b.b.",
"o.o.p.b.b.b.b.g.b.q.|.5.n.n.5.|.q.b.g.b.b.b.b.p.o.o.p.b.b.b.b.b.b.g.b.q.|.5.n.n.5.|.q.b.g.b.b.b.b.b.o.o.o.o.b.b.b.b.b.b.b.p.o.o.",
"b.b.b.b.b.b.b.g.b.q.|.5.n.n.5.|.q.b.g.b.b.b.b.b.b.b.b.b.b.b.b.b.b.g.b.q.|.5.n.n.5.|.q.b.g.b.b.b.b.b.b.b.b.b.b.b.b.b.b.b.b.b.b.b.",
"r.r.s.t.u.v.w.o.x.y.z.A.l.l.A.z.y.x.o.w.v.u.t.s.r.r.s.B.B.t.u.v.w.o.x.y.z.A.l.l.A.z.y.x.o.w.v.u.t.C.r.D.D.r.C.t.u.w.w.u.t.s.r.r.",
"E.E.F.G.H.b.b.c.d.k.2.5.l.l.5.2.k.d.c.b.b.H.G.F.E.E.F.I.J.G.K.b.b.c.d.k.2.5.l.l.5.2.k.d.c.b.b.H.G.F.E.L.L.E.F.G.H.b.b.H.G.F.E.E.",
"M.M.N.O.P.Q.R.S.T.U.V.W.X.X.W.V.U.T.S.R.Q.P.O.N.M.Y.N.Z.`.O.P.Q.R.S.T.U.V.W.X.X.W.V.U.T.S.R.Q.P.O.N.M. + +M.N.O.P.R.R.P.O.N.M.M.",
".+.+++@+#+$+%+&+*+=+-+X.;+;+X.-+=+*+&+%+$+#+@+++.+.+++>+,+@+#+$+%+&+*+=+-+X.;+;+X.-+=+*+&+%+$+#+@+++.+'+'+.+++@+#+%+%+#+@+++.+.+"};
