/* XPM */
static char * wall_l_xpm[] = {
"64 64 192 2",
"  	c #3F3851",
". 	c #3E3851",
"+ 	c #4D3851",
"@ 	c #613A50",
"# 	c #6F4052",
"$ 	c #774955",
"% 	c #7A4D56",
"& 	c #513B51",
"* 	c #683F51",
"= 	c #714051",
"- 	c #6E3D51",
"; 	c #6B3B50",
"> 	c #673A51",
", 	c #5E3853",
"' 	c #533853",
") 	c #473852",
"! 	c #3A3751",
"~ 	c #855259",
"{ 	c #C87267",
"] 	c #E27E6C",
"^ 	c #E37F6D",
"/ 	c #E9977A",
"( 	c #F5BA8E",
"_ 	c #FBCA97",
": 	c #FBCB97",
"< 	c #FCCD9A",
"[ 	c #FCD19D",
"} 	c #DDB990",
"| 	c #937B6D",
"1 	c #3C3851",
"2 	c #3D3851",
"3 	c #603A50",
"4 	c #893E4F",
"5 	c #A14D53",
"6 	c #AF5F5B",
"7 	c #B5675F",
"8 	c #B5685F",
"9 	c #B4675F",
"0 	c #AE5F5B",
"a 	c #883E4F",
"b 	c #5F3950",
"c 	c #673F51",
"d 	c #954A52",
"e 	c #A54C51",
"f 	c #9E4550",
"g 	c #9A414F",
"h 	c #9B414F",
"i 	c #943F52",
"j 	c #843A57",
"k 	c #6F3757",
"l 	c #FDD29F",
"m 	c #FDDCA9",
"n 	c #DFC79D",
"o 	c #948474",
"p 	c #A24E53",
"q 	c #BD5D58",
"r 	c #C86C5F",
"s 	c #CD7363",
"t 	c #764553",
"u 	c #AC5756",
"v 	c #BE5955",
"w 	c #B54D51",
"x 	c #AE444E",
"y 	c #A84251",
"z 	c #9B3D56",
"A 	c #FDD5A4",
"B 	c #FEE6B6",
"C 	c #E0D1AB",
"D 	c #948A7C",
"E 	c #3B3751",
"F 	c #CD7162",
"G 	c #CE7363",
"H 	c #CE7463",
"I 	c #794B55",
"J 	c #B2625C",
"K 	c #C4645B",
"L 	c #B75253",
"M 	c #AF444E",
"N 	c #AD434F",
"O 	c #FBC996",
"P 	c #FDD8A9",
"Q 	c #FEECC2",
"R 	c #E0D8B8",
"S 	c #948F83",
"T 	c #FDD9AC",
"U 	c #FEEFC8",
"V 	c #E0DBBE",
"W 	c #949186",
"X 	c #FEEBC2",
"Y 	c #E0D8B7",
"Z 	c #948E83",
"` 	c #503A51",
" .	c #754553",
"..	c #794A55",
"+.	c #754453",
"@.	c #6D3F52",
"#.	c #613A53",
"$.	c #463852",
"%.	c #FBCA96",
"&.	c #FDD6A4",
"*.	c #974B52",
"=.	c #AD5756",
"-.	c #9E4A54",
";.	c #883E57",
">.	c #6E3757",
",.	c #513753",
"'.	c #3C3751",
").	c #C6665B",
"!.	c #CB6F60",
"~.	c #BD5D59",
"{.	c #C6655B",
"].	c #B95858",
"^.	c #A24658",
"/.	c #B3625C",
"(.	c #CE7262",
"_.	c #CD7262",
":.	c #C2645C",
"<.	c #B04F56",
"[.	c #663A51",
"}.	c #FDD29E",
"|.	c #DFC69D",
"1.	c #8A3F4F",
"2.	c #663E51",
"3.	c #FCD19E",
"4.	c #FDD4A1",
"5.	c #FEE2B0",
"6.	c #E0CEA4",
"7.	c #948878",
"8.	c #E27E6D",
"9.	c #E89478",
"0.	c #F2B389",
"a.	c #F9C393",
"b.	c #FAC896",
"c.	c #FDDDAA",
"d.	c #E68D74",
"e.	c #EDA380",
"f.	c #F3B68B",
"g.	c #E27F6D",
"h.	c #E3806D",
"i.	c #E48670",
"j.	c #E89377",
"k.	c #EEA581",
"l.	c #F4B88C",
"m.	c #DAAA84",
"n.	c #907267",
"o.	c #E3816E",
"p.	c #E48671",
"q.	c #F9C493",
"r.	c #F3B58A",
"s.	c #D4997A",
"t.	c #8C6762",
"u.	c #834E57",
"v.	c #C56A62",
"w.	c #E07969",
"x.	c #E37E6C",
"y.	c #E58771",
"z.	c #E99477",
"A.	c #EEA380",
"B.	c #F3B389",
"C.	c #F6BB8E",
"D.	c #F4B389",
"E.	c #CF8871",
"F.	c #8A5E5E",
"G.	c #7F4654",
"H.	c #BE5A59",
"I.	c #D96B60",
"J.	c #E99478",
"K.	c #C9796A",
"L.	c #86565B",
"M.	c #703E51",
"N.	c #A44A53",
"O.	c #BC5A59",
"P.	c #C46A62",
"Q.	c #C77166",
"R.	c #C77167",
"S.	c #C77267",
"T.	c #AF6661",
"U.	c #774C57",
"V.	c #543A51",
"W.	c #855159",
"X.	c #855059",
"Y.	c #584053",
"Z.	c #8D6862",
"`.	c #FCCB97",
" +	c #DCB188",
".+	c #927669",
"++	c #FCCB98",
"@+	c #DDB289",
"#+	c #927769",
"$+	c #FEE2AF",
"%+	c #E0CDA3",
"&+	c #948877",
"                                .   + @ # $ % % % % % % % % $ # @ + & * = - ; ; ; ; > , ' ) !   ~ { ] ^ / ( _ : _ _ _ _ < [ } | ",
"                                1 2 3 4 5 6 7 8 8 7 7 9 7 9 0 5 a b c d e f g g h h i j k ' ! . ~ { ] ^ / ( _ : _ _ _ _ l m n o ",
"                                1   # p q r s s s s s s s s r q 5 # t u v w x x x x y z j , ! 2 ~ { ] ^ / ( _ : _ _ _ _ A B C D ",
"                                E   $ 6 r F G H G G G G H G F r 0 $ I J K L M x M M N y i > ! 2 ~ { ] ^ / ( _ : _ _ O _ P Q R S ",
"                                E   $ 6 r F G H G G G G H G F r 0 $ I J K L M x M M N y i > ! 2 ~ { ] ^ / ( _ : _ _ O _ T U V W ",
"                                1   # p q r s s s s s s s s r q 5 # t u v w x x x x y z j , ! 2 ~ { ] ^ / ( _ : _ _ O _ T U V W ",
"                                1 2 b 4 5 6 7 8 8 7 7 9 7 9 0 5 a b c d e f g g h h i j k ' ! . ~ { ] ^ / ( _ : _ _ O _ P X Y Z ",
"                                .   + @ # $ % % % % % % % % $ # @ + & * = - ; ; ; ; > , ' ) !   ~ { ] ^ / ( _ : _ _ _ _ A B C D ",
"                            .   ` *  ...$ # @ + + @ # $ % % % % % % % % ..+.@.#.' $.        !   ~ { ] ^ / ( _ : _ _ %._ &.B C D ",
"                            2   * *.=.J 6 5 a b b a 5 0 9 7 9 7 7 8 8 7 J u -.;.>.,.2 1 .   !   ~ { ] ^ / ( _ : _ _ O _ P X Y Z ",
"                            '.   .=.).!.r ~.5 # # p q r s s s s s s s s !.{.].^.j ,   2     !   ~ { ] ^ / ( _ : _ _ O _ P Q R S ",
"                            E   ../.!.(.F r 0 $ $ 0 r F G H G G G G G G _.!.:.<.i [.  2     !   ~ { ] ^ / ( _ : _ _ %._ &.B C D ",
"                            E   $ 6 r F (.!.J ..$ 0 r F G H G G G G G G _.!.:.<.i [.  2     !   ~ { ] ^ / ( _ : _ _ _ _ }.m |.o ",
"                            1   # p ~.r !.).u  .# 5 q r s s s s s s s s !.{.].^.j ,   2     !   ~ { ] ^ / ( _ : _ _ _ _ < [ } | ",
"                            2   @ 1.p 6 J u d 2.b a 5 0 9 7 9 7 7 8 8 7 J u -.;.>.,.2 1 .   !   ~ { ] ^ / ( _ : _ _ _ _ < 3.} | ",
"                            .   + @ # $ .. .* ` + @ # $ % % % % % % % % ..+.@.#.' $.        !   ~ { ] ^ / ( _ : _ _ _ _ }.m |.o ",
"                                .   + @ # $ % % % % % % % % $ # @ + & * = - ; ; ; ; > , ' ) !   ~ { ] ^ / ( _ : _ _ _ _ 4.5.6.7.",
"                                1 2 3 4 5 6 7 8 8 7 7 9 7 9 0 5 a b c d e f g g h h i j k ' ! . ~ { ] ^ / ( _ : _ _ _ _ 4.5.6.7.",
"                                1   # p q r s s s s s s s s r q 5 # t u v w x x x x y z j , ! 2 ~ { 8.^ 9.0.a.b._ _ _ _ l c.n o ",
"                                E   $ 6 r F G H G G G G H G F r 0 $ I J K L M x M M N y i > ! 2 ~ { 8.^ d.e.f.a._ _ _ _ < 3.} | ",
"                                E   $ 6 r F G H G G G G H G F r 0 $ I J K L M x M M N y i > ! 2 ~ { g.h.i.j.k.l.a.b.: : O a.m.n.",
"                                1   # p q r s s s s s s s s r q 5 # t u v w x x x x y z j , ! 2 ~ { g.^ o.p.j.k.f.a._ _ q.r.s.t.",
"                                1 2 b 4 5 6 7 8 8 7 7 9 7 9 0 5 a b c d e f g g h h i j k ' ! . u.v.w.x.^ h.y.z.A.B.C.C.D.A.E.F.",
"                                .   + @ # $ % % % % % % % % $ # @ + & * = - ; ; ; ; > , ' ) E   G.H.I.w.g.g.o.i.d.9./ / J.d.K.L.",
"                            .   ` *  ...$ # @ + + @ # $ % % % % % % % % ..+.@.#.' $.        1   M.N.O.P.Q.R.Q.Q.Q.Q.Q.Q.S.Q.T.U.",
"                            2   * *.=.J 6 5 a b b a 5 0 9 7 9 7 7 8 8 7 J u -.;.>.,.2 1 .   .   V.M.G.u.~ ~ ~ ~ W.X.X.X.W.W.U.Y.",
"                            '.   .=.).!.r ~.5 # # p q r s s s s s s s s !.{.].^.j ,   2     .   V.M.G.u.~ ~ ~ ~ W.X.X.X.W.W.U.Y.",
"                            E   ../.!.(.F r 0 $ $ 0 r F G H G G G G G G _.!.:.<.i [.  2     1   M.N.O.P.Q.R.Q.Q.Q.Q.Q.Q.S.Q.T.U.",
"                            E   $ 6 r F (.!.J ..$ 0 r F G H G G G G G G _.!.:.<.i [.  2     E   G.H.I.w.g.g.o.i.d.9./ / J.d.K.L.",
"                            1   # p ~.r !.).u  .# 5 q r s s s s s s s s !.{.].^.j ,   2     !   u.v.w.x.^ h.y.z.A.B.C.C.D.A.E.F.",
"                            2   @ 1.p 6 J u d 2.b a 5 0 9 7 9 7 7 8 8 7 J u -.;.>.,.2 1 .   !   ~ { g.^ o.p.j.k.f.a._ _ q.f.s.Z.",
"                            .   + @ # $ .. .* ` + @ # $ % % % % % % % % ..+.@.#.' $.        !   ~ { g.h.i.j.k.l.a.b.: : O a.m.n.",
"                                .   + @ # $ % % % % % % % % $ # @ + & * = - ; ; ; ; > , ' ) !   ~ { 8.^ d.e.f.a._ _ _ _ `._  +.+",
"                                1 2 3 4 5 6 7 8 8 7 7 9 7 9 0 5 a b c d e f g g h h i j k ' ! . ~ { 8.^ 9.0.a.b._ _ _ _ ++_ @+#+",
"                                1   # p q r s s s s s s s s r q 5 # t u v w x x x x y z j , ! 2 ~ { ] ^ / ( _ : _ _ _ _ < 3.} | ",
"                                E   $ 6 r F G H G G G G H G F r 0 $ I J K L M x M M N y i > ! 2 ~ { ] ^ / ( _ : _ _ _ _ l m n o ",
"                                E   $ 6 r F G H G G G G H G F r 0 $ I J K L M x M M N y i > ! 2 ~ { ] ^ / ( _ : _ _ _ _ 4.$+%+&+",
"                                1   # p q r s s s s s s s s r q 5 # t u v w x x x x y z j , ! 2 ~ { ] ^ / ( _ : _ _ _ _ 4.5.6.7.",
"                                1 2 b 4 5 6 7 8 8 7 7 9 7 9 0 5 a b c d e f g g h h i j k ' ! . ~ { ] ^ / ( _ : _ _ %._ &.B C D ",
"                                .   + @ # $ % % % % % % % % $ # @ + & * = - ; ; ; ; > , ' ) !   ~ { ] ^ / ( _ : _ _ O _ P Q Y S ",
"                            .   ` *  ...$ # @ + + @ # $ % % % % % % % % ..+.@.#.' $.        !   ~ { ] ^ / ( _ : _ _ O _ P Q R S ",
"                            2   * *.=.J 6 5 a b b a 5 0 9 7 9 7 7 8 8 7 J u -.;.>.,.2 1 .   !   ~ { ] ^ / ( _ : _ _ %._ &.B C D ",
"                            '.   .=.).!.r ~.5 # # p q r s s s s s s s s !.{.].^.j ,   2     !   ~ { ] ^ / ( _ : _ _ _ _ l m n o ",
"                            E   ../.!.(.F r 0 $ $ 0 r F G H G G G G G G _.!.:.<.i [.  2     !   ~ { ] ^ / ( _ : _ _ _ _ < [ } | ",
"                            E   $ 6 r F (.!.J ..$ 0 r F G H G G G G G G _.!.:.<.i [.  2     !   ~ { 8.^ 9.0.a.b._ _ _ _ ++_ @+#+",
"                            1   # p ~.r !.).u  .# 5 q r s s s s s s s s !.{.].^.j ,   2     !   ~ { 8.^ d.e.f.a._ _ _ _ `._  +.+",
"                            2   @ 1.p 6 J u d 2.b a 5 0 9 7 9 7 7 8 8 7 J u -.;.>.,.2 1 .   !   ~ { g.h.i.j.k.l.a.b.: : O a.m.n.",
"                            .   + @ # $ .. .* ` + @ # $ % % % % % % % % ..+.@.#.' $.        !   ~ { g.^ o.p.j.k.f.a._ _ q.f.s.Z.",
"                                .   + @ # $ % % % % % % % % $ # @ + & * = - ; ; ; ; > , ' ) !   u.v.w.x.^ h.y.z.A.B.C.C.D.A.E.F.",
"                                1 2 3 4 5 6 7 8 8 7 7 9 7 9 0 5 a b c d e f g g h h i j k ' E . G.H.I.w.g.g.o.i.d.9./ / J.d.K.L.",
"                                1   # p q r s s s s s s s s r q 5 # t u v w x x x x y z j , 1 2 M.N.O.P.Q.R.Q.Q.Q.Q.Q.Q.S.Q.T.U.",
"                                E   $ 6 r F G H G G G G H G F r 0 $ I J K L M x M M N y i > . 2 V.M.G.u.~ ~ ~ ~ W.X.X.X.W.W.U.Y.",
"                                E   $ 6 r F G H G G G G H G F r 0 $ I J K L M x M M N y i > . 2 V.M.G.u.~ ~ ~ ~ W.X.X.X.W.W.U.Y.",
"                                1   # p q r s s s s s s s s r q 5 # t u v w x x x x y z j , 1 2 M.N.O.P.Q.R.Q.Q.Q.Q.Q.Q.S.Q.T.U.",
"                                1 2 b 4 5 6 7 8 8 7 7 9 7 9 0 5 a b c d e f g g h h i j k ' E . G.H.I.w.g.g.o.i.d.9./ / J.d.K.L.",
"                                .   + @ # $ % % % % % % % % $ # @ + & * = - ; ; ; ; > , ' ) !   u.v.w.x.^ h.y.z.A.B.C.C.D.A.E.F.",
"                            .   ` *  ...$ # @ + + @ # $ % % % % % % % % ..+.@.#.' $.        !   ~ { g.^ o.p.j.k.f.a._ _ q.f.s.Z.",
"                            2   * *.=.J 6 5 a b b a 5 0 9 7 9 7 7 8 8 7 J u -.;.>.,.2 1 .   !   ~ { g.h.i.j.k.l.a.b.: : O a.m.n.",
"                            '.   .=.).!.r ~.5 # # p q r s s s s s s s s !.{.].^.j ,   2     !   ~ { 8.^ d.e.f.a._ _ _ _ `._  +.+",
"                            E   ../.!.(.F r 0 $ $ 0 r F G H G G G G G G _.!.:.<.i [.  2     !   ~ { 8.^ 9.0.a.b._ _ _ _ ++_ @+#+",
"                            E   $ 6 r F (.!.J ..$ 0 r F G H G G G G G G _.!.:.<.i [.  2     !   ~ { ] ^ / ( _ : _ _ _ _ < 3.} | ",
"                            1   # p ~.r !.).u  .# 5 q r s s s s s s s s !.{.].^.j ,   2     !   ~ { ] ^ / ( _ : _ _ _ _ l m n o ",
"                            2   @ 1.p 6 J u d 2.b a 5 0 9 7 9 7 7 8 8 7 J u -.;.>.,.2 1 .   !   ~ { ] ^ / ( _ : _ _ _ _ 4.$+%+&+",
"                            .   + @ # $ .. .* ` + @ # $ % % % % % % % % ..+.@.#.' $.        !   ~ { ] ^ / ( _ : _ _ _ _ 4.5.6.7."};
