/* XPM */
static char * wall_r_xpm[] = {
"64 64 199 2",
"  	c #948F83",
". 	c #E0D8B8",
"+ 	c #FEECC2",
"@ 	c #FDD8A9",
"# 	c #FBCA97",
"$ 	c #FBC996",
"% 	c #FBCB97",
"& 	c #F5BA8E",
"* 	c #E9977A",
"= 	c #E37F6D",
"- 	c #E27E6C",
"; 	c #C87267",
"> 	c #855259",
", 	c #3C3851",
"' 	c #3A3751",
") 	c #6C3C50",
"! 	c #9B414F",
"~ 	c #9A414F",
"{ 	c #5E3853",
"] 	c #833957",
"^ 	c #A24658",
"/ 	c #B85758",
"( 	c #C05D57",
"_ 	c #BA5755",
": 	c #A14D53",
"< 	c #6F4052",
"[ 	c #7A4D56",
"} 	c #B5675F",
"| 	c #CD7363",
"1 	c #CE7363",
"2 	c #BD5D58",
"3 	c #C86C5F",
"4 	c #A24D53",
"5 	c #3F3851",
"6 	c #533753",
"7 	c #6D3757",
"8 	c #883F58",
"9 	c #9E4A54",
"0 	c #A54C52",
"a 	c #9E4650",
"b 	c #883E4F",
"c 	c #613A50",
"d 	c #A14E53",
"e 	c #AF5F5B",
"f 	c #A24E53",
"g 	c #8A3F4F",
"h 	c #3D3851",
"i 	c #948A7C",
"j 	c #E0D1AB",
"k 	c #FEE6B6",
"l 	c #FDD6A4",
"m 	c #FBCA96",
"n 	c #463852",
"o 	c #513753",
"p 	c #613A53",
"q 	c #6D3F52",
"r 	c #714051",
"s 	c #6D3C50",
"t 	c #5F3950",
"u 	c #4D3951",
"v 	c #B5685F",
"w 	c #4D3851",
"x 	c #774955",
"y 	c #3E3851",
"z 	c #948474",
"A 	c #DFC79D",
"B 	c #FDDCA9",
"C 	c #FDD29F",
"D 	c #513B51",
"E 	c #663E51",
"F 	c #6D3D50",
"G 	c #623A50",
"H 	c #937B6D",
"I 	c #DDB990",
"J 	c #FCD19D",
"K 	c #FCCD9A",
"L 	c #694051",
"M 	c #954A52",
"N 	c #A54C51",
"O 	c #9E4550",
"P 	c #893E4F",
"Q 	c #603A50",
"R 	c #927769",
"S 	c #DDB289",
"T 	c #FCCB98",
"U 	c #FAC896",
"V 	c #F9C393",
"W 	c #F2B389",
"X 	c #E89478",
"Y 	c #E27E6D",
"Z 	c #CE7463",
"` 	c #754553",
" .	c #AB5656",
"..	c #BF5A55",
"+.	c #B85051",
"@.	c #927669",
"#.	c #DCB188",
"$.	c #FCCB97",
"%.	c #F3B68B",
"&.	c #EDA380",
"*.	c #E68D74",
"=.	c #663A51",
"-.	c #933E52",
";.	c #B04F56",
">.	c #C2645C",
",.	c #CA6C5F",
"'.	c #C86B5E",
").	c #AE5F5B",
"!.	c #B4675F",
"~.	c #794B55",
"{.	c #B2625C",
"].	c #C7675C",
"^.	c #C05B56",
"/.	c #A64D52",
"(.	c #907267",
"_.	c #DAAA84",
":.	c #F4B88C",
"<.	c #EEA581",
"[.	c #E89377",
"}.	c #E48670",
"|.	c #E3806D",
"1.	c #E27F6D",
"2.	c #683A51",
"3.	c #943F52",
"4.	c #6A3B50",
"5.	c #B75354",
"6.	c #C6695E",
"7.	c #CD7162",
"8.	c #7B4D56",
"9.	c #CB6F60",
"0.	c #C6655B",
"a.	c #AD5756",
"b.	c #754453",
"c.	c #3C3751",
"d.	c #8D6862",
"e.	c #D4997A",
"f.	c #F9C493",
"g.	c #E48671",
"h.	c #E3816E",
"i.	c #603953",
"j.	c #843A57",
"k.	c #B75454",
"l.	c #CD7262",
"m.	c #794A55",
"n.	c #3B3751",
"o.	c #8A5E5E",
"p.	c #CF8871",
"q.	c #EEA380",
"r.	c #F4B389",
"s.	c #F6BB8E",
"t.	c #F3B389",
"u.	c #E99477",
"v.	c #E58771",
"w.	c #E37E6C",
"x.	c #E07969",
"y.	c #C56A62",
"z.	c #834E57",
"A.	c #543853",
"B.	c #6F3757",
"C.	c #86565B",
"D.	c #C9796A",
"E.	c #E99478",
"F.	c #D96B60",
"G.	c #BE5A59",
"H.	c #7F4654",
"I.	c #473852",
"J.	c #533853",
"K.	c #B6685F",
"L.	c #774C57",
"M.	c #AF6661",
"N.	c #C77166",
"O.	c #C77267",
"P.	c #C77167",
"Q.	c #C46A62",
"R.	c #BC5A59",
"S.	c #A44A53",
"T.	c #703E51",
"U.	c #584053",
"V.	c #855159",
"W.	c #855059",
"X.	c #543A51",
"Y.	c #933F52",
"Z.	c #553853",
"`.	c #6E3757",
" +	c #E0D8B7",
".+	c #3B3851",
"++	c #948878",
"@+	c #E0CEA4",
"#+	c #FEE2B0",
"$+	c #FDD4A1",
"%+	c #948877",
"&+	c #E0CDA3",
"*+	c #FEE2AF",
"=+	c #FCD19E",
"-+	c #FDD5A4",
";+	c #949186",
">+	c #E0DBBE",
",+	c #FEEFC8",
"'+	c #FDD9AC",
"  . + @ # $ # # % # & * = - ; > , ' ) ! ~ ) { ] ^ / ( _ : < [ } | 1 1 | } [ < : 2 3 3 2 4 < 5 , 5 5 5 5 5 5 5 5 5 5 5 5 5 5 5 5 ",
"  . + @ # $ # # % # & * = - ; > , ' ) ! ~ ) 6 7 8 9 0 a b c [ } | 1 1 | } [ c b d e e f g c 5 h 5 5 5 5 5 5 5 5 5 5 5 5 5 5 5 5 ",
"i j k l # m # # % # & * = - ; > , ' ) ! ! ) n o p q r s t u [ v | 1 1 | v [ w t < x x < c w 5 y 5 5 5 5 5 5 5 5 5 5 5 5 5 5 5 5 ",
"z A B C # # # # % # & * = - ; > , ' ) ! ! ) n o p q r s t u [ v | 1 1 | } [ D E r F G u 5 y 5 5 5 5 5 5 5 5 5 5 5 5 5 5 5 5 5 5 ",
"H I J K # # # # % # & * = - ; > , ' ) ! ~ ) 6 7 8 9 0 a b c [ } | 1 1 | } [ L M N O P Q h , 5 5 5 5 5 5 5 5 5 5 5 5 5 5 5 5 5 5 ",
"R S # T # # # # U V W X = Y ; > , ' ) ! ~ ) { ] ^ / ( _ : < [ v | Z Z | v [ `  ...+.O F 5 , 5 5 5 5 5 5 5 5 5 5 5 5 5 5 5 5 5 5 ",
"@.#.# $.# # # # V %.&.*.= Y ; > , ' ) ! ~ ) =.-.;.>.,.'.).x [ !.| 1 1 | !.[ ~.{.].^./.r 5 , 5 5 5 5 5 5 5 5 5 5 5 5 5 5 5 5 5 5 ",
"(._.V $ % % U V :.<.[.}.|.1.; > h ' 2.3.-.2.4.~ 5.6.1 | !.[ x ).3 7.7.3 ).x 8.!.9.0.a.b.5 c.5 5 5 5 5 5 5 5 5 5 5 5 5 5 5 5 5 5 ",
"d.e.%.f.# # V %.<.[.g.h.= 1.; > h ' i.j.] i.4.~ k.6.Z Z v [ < : 2 3 3 2 : < [ v l.9.{.m.5 n.5 5 5 5 5 5 5 5 5 5 5 5 5 5 5 5 5 5 ",
"o.p.q.r.s.s.t.q.u.v.|.= w.x.y.z.y ' A.B.7 A.4.~ 5.6.1 | } [ c b f ).).f b c [ } 1 1 v [ 5 n.5 5 5 5 5 5 5 5 5 5 5 5 5 5 5 5 5 5 ",
"C.D.*.E.* * X *.}.h.1.1.x.F.G.H.5 n.I.J.o I.4.! 5.6.1 | v [ w t < x x < t w [ v 1 Z K.[ 5 n.5 5 5 5 5 5 5 5 5 5 5 5 5 5 5 5 5 5 ",
"L.M.N.O.N.N.N.N.N.N.P.N.Q.R.S.T.5 , I.J.o I.4.! 5.6.1 | v [ w t < x x < t w [ v 1 Z K.[ 5 n.5 5 5 5 5 5 5 5 5 5 5 5 5 5 5 5 5 5 ",
"U.L.V.V.W.W.W.V.> > > > z.H.T.X.y y A.B.7 A.4.~ 5.6.1 | } [ c b f ).).f b c [ } 1 1 v [ 5 n.5 5 5 5 5 5 5 5 5 5 5 5 5 5 5 5 5 5 ",
"U.L.V.V.W.W.W.V.> > > > z.H.T.X.h y i.j.] i.4.~ k.6.Z Z v [ < : 2 3 3 2 : < [ v l.9.{.m.5 n.5 5 5 5 5 5 5 5 5 5 5 5 5 5 5 5 5 5 ",
"L.M.N.O.N.N.N.N.N.N.P.N.Q.R.S.T.h , 2.3.-.2.4.~ 5.6.1 | !.[ x ).3 7.7.3 ).x 8.!.9.0.a.b.5 c.5 5 5 5 5 5 5 5 5 5 5 5 5 5 5 5 5 5 ",
"C.D.*.E.* * X *.}.h.1.1.x.F.G.H., n.) ! ~ ) =.-.;.>.,.'.).x [ !.| 1 1 | !.[ ~.{.].^./.r 5 , 5 5 5 5 5 5 5 5 5 5 5 5 5 5 5 5 5 5 ",
"o.p.q.r.s.s.t.q.u.v.|.= w.x.y.z., ' ) ! ~ ) { ] ^ / ( _ : < [ v | Z Z | v [ `  ...+.O F 5 , 5 5 5 5 5 5 5 5 5 5 5 5 5 5 5 5 5 5 ",
"d.e.%.f.# # V %.<.[.g.h.= 1.; > , ' ) ! ~ ) 6 7 8 9 0 a b c [ } | 1 1 | } [ L M N O P Q h , 5 5 5 5 5 5 5 5 5 5 5 5 5 5 5 5 5 5 ",
"(._.V $ % % U V :.<.[.}.|.1.; > , ' ) ! ! ) n o p q r s t u [ v | 1 1 | } [ D E r F G u 5 y 5 5 5 5 5 5 5 5 5 5 5 5 5 5 5 5 5 5 ",
"@.#.# $.# # # # V %.&.*.= Y ; > , ' ) ! ! ) n o p q r s t u [ v | Z Z | v [ w t < x x < c w 5 y 5 5 5 5 5 5 5 5 5 5 5 5 5 5 5 5 ",
"R S # T # # # # U V W X = Y ; > , ' ) ! ~ ) 6 7 8 9 0 a b c [ } | 1 1 | } [ c b d e e f g c 5 h 5 5 5 5 5 5 5 5 5 5 5 5 5 5 5 5 ",
"H I J K # # # # % # & * = - ; > h ' 2.3.Y.2.{ ] ^ / ( _ : < x e 3 7.7.3 e x < : 2 3 3 2 4 < 5 , 5 5 5 5 5 5 5 5 5 5 5 5 5 5 5 5 ",
"z A B C # # # # % # & * = - ; > h ' i.j.] i.=.Y.;.>.,.'.e x < : 2 3 3 2 : < x e 3 7.7.3 e x 5 n.5 5 5 5 5 5 5 5 5 5 5 5 5 5 5 5 ",
"i j k l # m # # % # & * = - ; > y ' Z.B.`.Z.4.~ 5.6.1 | } [ c b f ).).f b c [ } | 1 1 | v [ 5 n.5 5 5 5 5 5 5 5 5 5 5 5 5 5 5 5 ",
"  . + @ # $ # # % # & * = - ; > 5 ' I.J.o I.4.! k.6.Z Z v [ w t < x x < t w [ v | Z Z | K.[ 5 n.5 5 5 5 5 5 5 5 5 5 5 5 5 5 5 5 ",
"   ++ @ # $ # # % # & * = - ; > 5 ' 5 5 , 5 4.! 5.6.1 | v [ w t < x x < t w [ v | 1 1 | v [ 5 n.5 5 5 5 5 5 5 5 5 5 5 5 5 5 5 5 ",
"i j k l # m # # % # & * = - ; > 5 ' 5 y .+5 4.! 5.6.1 | } [ c b f ).).f b c [ } | 1 1 | v [ 5 n.5 5 5 5 5 5 5 5 5 5 5 5 5 5 5 5 ",
"++@+#+$+# # # # % # & * = - ; > 5 ' 5 5 , 5 4.! 5.6.1 | } [ < : 2 3 3 2 : < [ } | 1 1 | v [ 5 n.5 5 5 5 5 5 5 5 5 5 5 5 5 5 5 5 ",
"%+&+*+$+# # # # % # & * = - ; > 5 ' 5 5 , 5 4.! 5.6.1 | !.[ x ).3 7.7.3 ).x [ !.| 1 1 | v [ 5 n.5 5 5 5 5 5 5 5 5 5 5 5 5 5 5 5 ",
"z A B C # # # # % # & * = - ; > 5 ' 5 5 , 5 4.! k.6.Z Z } [ [ !.| 1 1 | !.[ [ } | Z Z | K.[ 5 n.5 5 5 5 5 5 5 5 5 5 5 5 5 5 5 5 ",
"H I =+K # # # # % # & * = - ; > 5 ' 5 5 , 5 4.! 5.6.1 | !.[ [ } | Z Z | } [ [ !.| 1 1 | v [ 5 n.5 5 5 5 5 5 5 5 5 5 5 5 5 5 5 5 ",
"R S # T # # # # U V W X = Y ; > 5 ' 5 5 h 5 =.3.;.>.,.'.).x [ !.| 1 1 | !.[ x ).3 7.7.3 e x 5 n.5 5 5 5 5 5 5 5 5 5 5 5 5 5 5 5 ",
"@.#.# $.# # # # V %.&.*.= Y ; > 5 ' 5 5 h 5 { j.^ / ( _ : < [ } | 1 1 | } [ < : 2 3 3 2 4 < 5 , 5 5 5 5 5 5 5 5 5 5 5 5 5 5 5 5 ",
"(._.V $ % % U V :.<.[.}.|.1.; > 5 ' 5 5 y 5 6 B.8 9 0 a b c [ } | 1 1 | } [ c b d e e f g c 5 h 5 5 5 5 5 5 5 5 5 5 5 5 5 5 5 5 ",
"d.e.%.f.# # V %.<.[.g.h.= 1.; > 5 ' 5 5 5 5 n J.p q r s t u [ v | 1 1 | v [ w t < x x < c w 5 y 5 5 5 5 5 5 5 5 5 5 5 5 5 5 5 5 ",
"o.p.q.r.s.s.t.q.u.v.|.= w.x.y.z.5 ' 5 5 5 5 n J.p q r s t u [ v | 1 1 | } [ D E r F G u 5 y 5 5 5 5 5 5 5 5 5 5 5 5 5 5 5 5 5 5 ",
"C.D.*.E.* * X *.}.h.1.1.x.F.G.H.5 n.5 5 y 5 6 B.8 9 0 a b c [ } | 1 1 | } [ L M N O P Q h , 5 5 5 5 5 5 5 5 5 5 5 5 5 5 5 5 5 5 ",
"L.M.N.O.N.N.N.N.N.N.P.N.Q.R.S.T.5 , 5 5 h 5 { j.^ / ( _ : < [ v | Z Z | v [ `  ...+.O F 5 , 5 5 5 5 5 5 5 5 5 5 5 5 5 5 5 5 5 5 ",
"U.L.V.V.W.W.W.V.> > > > z.H.T.X.5 y 5 5 h 5 =.3.;.>.,.'.).x [ !.| 1 1 | !.[ ~.{.].^./.r 5 , 5 5 5 5 5 5 5 5 5 5 5 5 5 5 5 5 5 5 ",
"U.L.V.V.W.W.W.V.> > > > z.H.T.X.5 y 5 5 , 5 4.! 5.6.1 | !.[ x ).3 7.7.3 ).x 8.!.9.0.a.b.5 c.5 5 5 5 5 5 5 5 5 5 5 5 5 5 5 5 5 5 ",
"L.M.N.O.N.N.N.N.N.N.P.N.Q.R.S.T.5 , 5 5 , 5 4.! k.6.Z Z v [ < : 2 3 3 2 : < [ v l.9.{.m.5 n.5 5 5 5 5 5 5 5 5 5 5 5 5 5 5 5 5 5 ",
"C.D.*.E.* * X *.}.h.1.1.x.F.G.H.5 n.5 y .+5 4.! 5.6.1 | } [ c b f ).).f b c [ } 1 1 v [ 5 n.5 5 5 5 5 5 5 5 5 5 5 5 5 5 5 5 5 5 ",
"o.p.q.r.s.s.t.q.u.v.|.= w.x.y.z.5 ' 5 5 , 5 4.! 5.6.1 | v [ w t < x x < t w [ v 1 Z K.[ 5 n.5 5 5 5 5 5 5 5 5 5 5 5 5 5 5 5 5 5 ",
"d.e.%.f.# # V %.<.[.g.h.= 1.; > 5 ' I.J.o I.4.! 5.6.1 | v [ w t < x x < t w [ v 1 Z K.[ 5 n.5 5 5 5 5 5 5 5 5 5 5 5 5 5 5 5 5 5 ",
"(._.V $ % % U V :.<.[.}.|.1.; > y ' Z.B.`.Z.4.~ 5.6.1 | } [ c b f ).).f b c [ } 1 1 v [ 5 n.5 5 5 5 5 5 5 5 5 5 5 5 5 5 5 5 5 5 ",
"@.#.# $.# # # # V %.&.*.= Y ; > h ' i.j.] i.4.~ k.6.Z Z v [ < : 2 3 3 2 : < [ v l.9.{.m.5 n.5 5 5 5 5 5 5 5 5 5 5 5 5 5 5 5 5 5 ",
"R S # T # # # # U V W X = Y ; > h ' 2.3.-.2.4.~ 5.6.1 | !.[ x ).3 7.7.3 ).x 8.!.9.0.a.b.5 c.5 5 5 5 5 5 5 5 5 5 5 5 5 5 5 5 5 5 ",
"H I J K # # # # % # & * = - ; > , ' ) ! ~ ) =.-.;.>.,.'.).x [ !.| 1 1 | !.[ ~.{.].^./.r 5 , 5 5 5 5 5 5 5 5 5 5 5 5 5 5 5 5 5 5 ",
"z A B C # # # # % # & * = - ; > , ' ) ! ~ ) { ] ^ / ( _ : < [ v | Z Z | v [ `  ...+.O F 5 , 5 5 5 5 5 5 5 5 5 5 5 5 5 5 5 5 5 5 ",
"i j k -+# # # # % # & * = - ; > , ' ) ! ~ ) 6 7 8 9 0 a b c [ } | 1 1 | } [ L M N O P Q h , 5 5 5 5 5 5 5 5 5 5 5 5 5 5 5 5 5 5 ",
"  . + @ # $ # # % # & * = - ; > , ' ) ! ! ) n o p q r s t u [ v | 1 1 | } [ D E r F G u 5 y 5 5 5 5 5 5 5 5 5 5 5 5 5 5 5 5 5 5 ",
";+>+,+'+# $ # # % # & * = - ; > , ' ) ! ! ) n o p q r s t u [ v | Z Z | v [ w t < x x < c w 5 y 5 5 5 5 5 5 5 5 5 5 5 5 5 5 5 5 ",
";+>+,+'+# $ # # % # & * = - ; > , ' ) ! ~ ) 6 7 8 9 0 a b c [ } | 1 1 | } [ c b d e e f g c 5 h 5 5 5 5 5 5 5 5 5 5 5 5 5 5 5 5 ",
"  . + @ # $ # # % # & * = - ; > h ' 2.3.Y.2.{ ] ^ / ( _ : < x e 3 7.7.3 e x < : 2 3 3 2 4 < 5 , 5 5 5 5 5 5 5 5 5 5 5 5 5 5 5 5 ",
"i j k -+# # # # % # & * = - ; > h ' i.j.] i.=.Y.;.>.,.'.e x < : 2 3 3 2 : < x e 3 7.7.3 e x 5 n.5 5 5 5 5 5 5 5 5 5 5 5 5 5 5 5 ",
"z A B C # # # # % # & * = - ; > y ' A.B.7 A.4.~ 5.6.1 | } [ c b f ).).f b c [ } | 1 1 | v [ 5 n.5 5 5 5 5 5 5 5 5 5 5 5 5 5 5 5 ",
"H I J K # # # # % # & * = - ; > 5 ' I.J.o I.4.! k.6.Z Z v [ w t < x x < t w [ v | Z Z | K.[ 5 n.5 5 5 5 5 5 5 5 5 5 5 5 5 5 5 5 ",
"@.#.# $.# # # # % # & * = - ; > 5 ' I.J.o I.4.! 5.6.1 | v [ w t < x x < t w [ v | 1 1 | v [ 5 n.5 5 5 5 5 5 5 5 5 5 5 5 5 5 5 5 ",
"@.#.# $.# # # # % # & * = - ; > y ' A.B.7 A.4.~ 5.6.1 | } [ c b f ).).f b c [ } | 1 1 | v [ 5 n.5 5 5 5 5 5 5 5 5 5 5 5 5 5 5 5 ",
"H I J K # # # # % # & * = - ; > h ' i.j.] i.4.~ 5.6.1 | } [ < : 2 3 3 2 : < [ } | 1 1 | v [ 5 n.5 5 5 5 5 5 5 5 5 5 5 5 5 5 5 5 ",
"z A B C # # # # % # & * = - ; > h ' 2.3.-.2.4.~ 5.6.1 | !.[ x ).3 7.7.3 ).x [ !.| 1 1 | v [ 5 n.5 5 5 5 5 5 5 5 5 5 5 5 5 5 5 5 ",
"i j k l # m # # % # & * = - ; > , ' ) ! ~ ) 4.~ k.6.Z Z } [ [ !.| 1 1 | !.[ [ } | Z Z | K.[ 5 n.5 5 5 5 5 5 5 5 5 5 5 5 5 5 5 5 ",
"  . + @ # $ # # % # & * = - ; > , ' ) ! ~ ) 4.~ 5.6.1 | !.[ [ } | Z Z | } [ [ !.| 1 1 | v [ 5 n.5 5 5 5 5 5 5 5 5 5 5 5 5 5 5 5 ",
"  . + @ # $ # # % # & * = - ; > , ' ) ! ~ ) =.-.;.>.,.'.).x [ !.| 1 1 | !.[ x ).3 7.7.3 e x 5 n.5 5 5 5 5 5 5 5 5 5 5 5 5 5 5 5 "};
