/* XPM */
static char * wall_r_xpm[] = {
"64 64 185 2",
"  	c #3F3851",
". 	c #948474",
"+ 	c #DFC79D",
"@ 	c #FDDCA9",
"# 	c #FDD29F",
"$ 	c #FBCA97",
"% 	c #FBCB97",
"& 	c #F5BA8E",
"* 	c #E9977A",
"= 	c #E37F6D",
"- 	c #E27E6C",
"; 	c #C87267",
"> 	c #855259",
", 	c #3A3751",
"' 	c #473852",
") 	c #533853",
"! 	c #5E3853",
"~ 	c #673A51",
"{ 	c #6B3B50",
"] 	c #6D3D51",
"^ 	c #714051",
"/ 	c #6D3C50",
"( 	c #613A50",
"_ 	c #4D3951",
": 	c #4D3851",
"< 	c #6F4052",
"[ 	c #774955",
"} 	c #7A4D56",
"| 	c #3E3851",
"1 	c #937B6D",
"2 	c #DDB990",
"3 	c #FCD19E",
"4 	c #FCCD9A",
"5 	c #6F3757",
"6 	c #843A57",
"7 	c #943F52",
"8 	c #9B414F",
"9 	c #9A414F",
"0 	c #9A404F",
"a 	c #9E4550",
"b 	c #A44C51",
"c 	c #A54C51",
"d 	c #883E4F",
"e 	c #5F3950",
"f 	c #A14D53",
"g 	c #AE5F5B",
"h 	c #B4675F",
"i 	c #B5685F",
"j 	c #B5675F",
"k 	c #893E4F",
"l 	c #603A50",
"m 	c #3D3851",
"n 	c #3C3851",
"o 	c #927769",
"p 	c #DDB289",
"q 	c #FCCB98",
"r 	c #FAC896",
"s 	c #F9C393",
"t 	c #F2B389",
"u 	c #E89478",
"v 	c #E27E6D",
"w 	c #9B3D56",
"x 	c #A84251",
"y 	c #AE444E",
"z 	c #B44C51",
"A 	c #BE5955",
"B 	c #C15D57",
"C 	c #BA5755",
"D 	c #A24E53",
"E 	c #BD5D58",
"F 	c #C86C5F",
"G 	c #CD7363",
"H 	c #927669",
"I 	c #DCB188",
"J 	c #FCCB97",
"K 	c #F3B68B",
"L 	c #EDA380",
"M 	c #E68D74",
"N 	c #AD434F",
"O 	c #AF444E",
"P 	c #B65153",
"Q 	c #C4645B",
"R 	c #CA6C5F",
"S 	c #C76B5F",
"T 	c #CD7162",
"U 	c #CE7363",
"V 	c #CE7463",
"W 	c #AF5F5B",
"X 	c #3B3751",
"Y 	c #907267",
"Z 	c #DAAA84",
"` 	c #FBC996",
" .	c #F4B88C",
"..	c #EEA581",
"+.	c #E89377",
"@.	c #E48670",
"#.	c #E3806D",
"$.	c #E27F6D",
"%.	c #8D6862",
"&.	c #D4997A",
"*.	c #F9C493",
"=.	c #E48671",
"-.	c #E3816E",
";.	c #8A5E5E",
">.	c #CF8871",
",.	c #EEA380",
"'.	c #F4B389",
").	c #F6BB8E",
"!.	c #F3B389",
"~.	c #E99477",
"{.	c #E58771",
"].	c #E37E6C",
"^.	c #E07969",
"/.	c #C56A62",
"(.	c #834E57",
"_.	c #86565B",
":.	c #C9796A",
"<.	c #E99478",
"[.	c #D96B60",
"}.	c #BE5A59",
"|.	c #7F4654",
"1.	c #774C57",
"2.	c #AF6661",
"3.	c #C77166",
"4.	c #C77267",
"5.	c #C77167",
"6.	c #C46A62",
"7.	c #BC5A59",
"8.	c #A44A53",
"9.	c #703E51",
"0.	c #463852",
"a.	c #613A53",
"b.	c #6D3F52",
"c.	c #754453",
"d.	c #794A55",
"e.	c #584053",
"f.	c #855159",
"g.	c #855059",
"h.	c #543A51",
"i.	c #513753",
"j.	c #6E3757",
"k.	c #883E57",
"l.	c #9E4A54",
"m.	c #AC5756",
"n.	c #B2625C",
"o.	c #A24D53",
"p.	c #8A3F4F",
"q.	c #A24658",
"r.	c #B95858",
"s.	c #C6655B",
"t.	c #CB6F60",
"u.	c #663A51",
"v.	c #B04F56",
"w.	c #C2645C",
"x.	c #CD7262",
"y.	c #FCD19D",
"z.	c #948A7C",
"A.	c #E0D1AB",
"B.	c #FEE6B6",
"C.	c #FDD6A4",
"D.	c #FBCA96",
"E.	c #948F83",
"F.	c #E0D8B8",
"G.	c #FEECC2",
"H.	c #FDD8A9",
"I.	c #E0D8B7",
"J.	c #948878",
"K.	c #E0CEA4",
"L.	c #FEE2B0",
"M.	c #FDD4A1",
"N.	c #948877",
"O.	c #E0CDA3",
"P.	c #FEE2AF",
"Q.	c #8C6762",
"R.	c #F3B58A",
"S.	c #FDDDAA",
"T.	c #DFC69D",
"U.	c #FDD29E",
"V.	c #948E83",
"W.	c #FEEBC2",
"X.	c #FDD5A4",
"Y.	c #949186",
"Z.	c #E0DBBE",
"`.	c #FEEFC8",
" +	c #FDD9AC",
"  . + @ # $ $ $ $ % $ & * = - ; >   , ' ) ! ~ { { { { ] ^ ^ / ( _ : ( < [ } } } } } } } } [ < ( :   |                           ",
"  1 2 3 4 $ $ $ $ % $ & * = - ; > | , ) 5 6 7 8 8 9 0 a b c a d e e d f g h i j i i j i h g f k l m n                           ",
"  o p $ q $ $ $ $ r s t u = v ; > m , ! 6 w x y y y y z A B C D < < D E F G G G G G G G G F E D <   n                           ",
"  H I $ J $ $ $ $ s K L M = v ; > m , ~ 7 x N O O y O P Q R S g [ [ g F T U V U U U U V U T F W [   X                           ",
"  Y Z s ` % % r s  ...+.@.#.$.; > m , ~ 7 x N O O y O P Q R S g [ [ g F T U V U U U U V U T F W [   X                           ",
"  %.&.K *.$ $ s K ..+.=.-.= $.; > m , ! 6 w x y y y y z A B C D < < D E F G G G G G G G G F E D <   n                           ",
"  ;.>.,.'.).).!.,.~.{.#.= ].^./.(.| , ) 5 6 7 8 8 9 9 a c c a d e e d f g h i j i i j i h g f k l m n                           ",
"  _.:.M <.* * u M @.-.$.$.^.[.}.|.  X ' ) ! ~ { { { { ] ^ ^ / ( _ : ( < [ } } } } } } } } [ < ( :   |                           ",
"  1.2.3.4.3.3.3.3.3.3.5.3.6.7.8.9.  n         0.) a.b.c.d.} } } } } } } } [ < ( : : ( < [ } } [ < ( :   |                       ",
"  e.1.f.f.g.g.g.f.> > > > (.|.9.h.  |   | n m i.j.k.l.m.n.j i j i i j i h g f d e e d f g j i W o.p.(   m                       ",
"  e.1.f.f.g.g.g.f.> > > > (.|.9.h.  |     m   ! 6 q.r.s.t.G G G G G G G G F E D < < D E F G G F E D <   n                       ",
"  1.2.3.4.3.3.3.3.3.3.5.3.6.7.8.9.  n     m   u.7 v.w.t.x.U U U U U U V U T F g [ [ g F T V V T F W [   X                       ",
"  _.:.M <.* * u M @.-.$.$.^.[.}.|.  X     m   u.7 v.w.t.x.U U U U U U V U T F g [ [ g F T V V T F W [   X                       ",
"  ;.>.,.'.).).!.,.~.{.#.= ].^./.(.  ,     m   ! 6 q.r.s.t.G G G G G G G G F E D < < D E F G G F E D <   n                       ",
"  %.&.K *.$ $ s K ..+.=.-.= $.; >   ,   | n m i.j.k.l.m.n.j i j i i j i h g f d e e d f g j i W o.p.(   m                       ",
"  Y Z s ` % % r s  ...+.@.#.$.; >   ,         0.) a.b.c.d.} } } } } } } } [ < ( : : ( < [ } } [ < ( :   |                       ",
"  H I $ J $ $ $ $ s K L M = v ; >   , ' ) ! ~ { { { { ] ^ ^ / ( _ : ( < [ } } } } } } } } [ < ( :   |                           ",
"  o p $ q $ $ $ $ r s t u = v ; > | , ) 5 6 7 8 8 9 9 a c c a d e e d f g h i j i i j i h g f k l m n                           ",
"  1 2 y.4 $ $ $ $ % $ & * = - ; > m , ! 6 w x y y y y z A B C D < < D E F G G G G G G G G F E D <   n                           ",
"  . + @ # $ $ $ $ % $ & * = - ; > m , ~ 7 x N O O y O P Q R S g [ [ g F T U V U U U U V U T F W [   X                           ",
"  z.A.B.C.$ D.$ $ % $ & * = - ; > m , ~ 7 x N O O y O P Q R S g [ [ g F T U V U U U U V U T F W [   X                           ",
"  E.F.G.H.$ ` $ $ % $ & * = - ; > m , ! 6 w x y y y y z A B C D < < D E F G G G G G G G G F E D <   n                           ",
"  E.I.G.H.$ ` $ $ % $ & * = - ; > | , ) 5 6 7 8 8 9 9 a c c a d e e d f g h i j i i j i h g f k l m n                           ",
"  z.A.B.C.$ D.$ $ % $ & * = - ; >   , ' ) ! ~ { { { { ] ^ ^ / ( _ : ( < [ } } } } } } } } [ < ( :   |                           ",
"  J.K.L.M.$ $ $ $ % $ & * = - ; >   ,         0.) a.b.c.d.} } } } } } } } [ < ( : : ( < [ } } [ < ( :   |                       ",
"  N.O.P.M.$ $ $ $ % $ & * = - ; >   ,   | n m i.j.k.l.m.n.j i j i i j i h g f d e e d f g j i W o.p.(   m                       ",
"  . + @ # $ $ $ $ % $ & * = - ; >   ,     m   ! 6 q.r.s.t.G G G G G G G G F E D < < D E F G G F E D <   n                       ",
"  1 2 3 4 $ $ $ $ % $ & * = - ; >   ,     m   u.7 v.w.t.x.U U U U U U V U T F g [ [ g F T V V T F W [   X                       ",
"  o p $ q $ $ $ $ r s t u = v ; >   ,     m   u.7 v.w.t.x.U U U U U U V U T F g [ [ g F T V V T F W [   X                       ",
"  H I $ J $ $ $ $ s K L M = v ; >   ,     m   ! 6 q.r.s.t.G G G G G G G G F E D < < D E F G G F E D <   n                       ",
"  Y Z s ` % % r s  ...+.@.#.$.; >   ,   | n m i.j.k.l.m.n.j i j i i j i h g f d e e d f g j i W o.p.(   m                       ",
"  %.&.K *.$ $ s K ..+.=.-.= $.; >   ,         0.) a.b.c.d.} } } } } } } } [ < ( : : ( < [ } } [ < ( :   |                       ",
"  ;.>.,.'.).).!.,.~.{.#.= ].^./.(.  , ' ) ! ~ { { { { ] ^ ^ / ( _ : ( < [ } } } } } } } } [ < ( :   |                           ",
"  _.:.M <.* * u M @.-.$.$.^.[.}.|.| X ) 5 6 7 8 8 9 9 a c c a d e e d f g h i j i i j i h g f k l m n                           ",
"  1.2.3.4.3.3.3.3.3.3.5.3.6.7.8.9.m n ! 6 w x y y y y z A B C D < < D E F G G G G G G G G F E D <   n                           ",
"  e.1.f.f.g.g.g.f.> > > > (.|.9.h.m | ~ 7 x N O O y O P Q R S g [ [ g F T U V U U U U V U T F W [   X                           ",
"  e.1.f.f.g.g.g.f.> > > > (.|.9.h.m | ~ 7 x N O O y O P Q R S g [ [ g F T U V U U U U V U T F W [   X                           ",
"  1.2.3.4.3.3.3.3.3.3.5.3.6.7.8.9.m n ! 6 w x y y y y z A B C D < < D E F G G G G G G G G F E D <   n                           ",
"  _.:.M <.* * u M @.-.$.$.^.[.}.|.| X ) 5 6 7 8 8 9 9 a c c a d e e d f g h i j i i j i h g f k l m n                           ",
"  ;.>.,.'.).).!.,.~.{.#.= ].^./.(.  , ' ) ! ~ { { { { ] ^ ^ / ( _ : ( < [ } } } } } } } } [ < ( :   |                           ",
"  Q.&.R.*.$ $ s K ..+.=.-.= $.; >   ,         0.) a.b.c.d.} } } } } } } } [ < ( : : ( < [ } } [ < ( :   |                       ",
"  Y Z s ` % % r s  ...+.@.#.$.; >   ,   | n m i.j.k.l.m.n.j i j i i j i h g f d e e d f g j i W o.p.(   m                       ",
"  1 2 3 4 $ $ $ $ s K L M = v ; >   ,     m   ! 6 q.r.s.t.G G G G G G G G F E D < < D E F G G F E D <   n                       ",
"  . + S.# $ $ $ $ r s t u = v ; >   ,     m   u.7 v.w.t.x.U U U U U U V U T F g [ [ g F T V V T F W [   X                       ",
"  J.K.L.M.$ $ $ $ % $ & * = - ; >   ,     m   u.7 v.w.t.x.U U U U U U V U T F g [ [ g F T V V T F W [   X                       ",
"  J.K.L.M.$ $ $ $ % $ & * = - ; >   ,     m   ! 6 q.r.s.t.G G G G G G G G F E D < < D E F G G F E D <   n                       ",
"  . T.@ U.$ $ $ $ % $ & * = - ; >   ,   | n m i.j.k.l.m.n.j i j i i j i h g f d e e d f g j i W o.p.(   m                       ",
"  1 2 3 4 $ $ $ $ % $ & * = - ; >   ,         0.) a.b.c.d.} } } } } } } } [ < ( : : ( < [ } } [ < ( :   |                       ",
"  1 2 y.4 $ $ $ $ % $ & * = - ; >   , ' ) ! ~ { { { { ] ^ ^ / ( _ : ( < [ } } } } } } } } [ < ( :   |                           ",
"  . T.@ U.$ $ $ $ % $ & * = - ; > | , ) 5 6 7 8 8 9 9 a c c a d e e d f g h i j i i j i h g f k l m n                           ",
"  z.A.B.C.$ D.$ $ % $ & * = - ; > m , ! 6 w x y y y y z A B C D < < D E F G G G G G G G G F E D <   n                           ",
"  E.F.G.H.$ ` $ $ % $ & * = - ; > m , ~ 7 x N O O y O P Q R S g [ [ g F T U V U U U U V U T F W [   X                           ",
"  V.I.W.H.$ ` $ $ % $ & * = - ; > m , ~ 7 x N O O y O P Q R S g [ [ g F T U V U U U U V U T F W [   X                           ",
"  z.A.B.C.$ D.$ $ % $ & * = - ; > m , ! 6 w x y y y y z A B C D < < D E F G G G G G G G G F E D <   n                           ",
"  z.A.B.X.$ $ $ $ % $ & * = - ; > | , ) 5 6 7 8 8 9 9 a c c a d e e d f g h i j i i j i h g f k l m n                           ",
"  V.I.W.H.$ ` $ $ % $ & * = - ; >   , ' ) ! ~ { { { { ] ^ ^ / ( _ : ( < [ } } } } } } } } [ < ( :   |                           ",
"  Y.Z.`. +$ ` $ $ % $ & * = - ; >   ,         0.) a.b.c.d.} } } } } } } } [ < ( : : ( < [ } } [ < ( :   |                       ",
"  Y.Z.`. +$ ` $ $ % $ & * = - ; >   ,   | n m i.j.k.l.m.n.j i j i i j i h g f d e e d f g j i W o.p.(   m                       ",
"  E.F.G.H.$ ` $ $ % $ & * = - ; >   ,     m   ! 6 q.r.s.t.G G G G G G G G F E D < < D E F G G F E D <   n                       ",
"  z.A.B.X.$ $ $ $ % $ & * = - ; >   ,     m   u.7 v.w.t.x.U U U U U U V U T F g [ [ g F T V V T F W [   X                       ",
"  . + @ # $ $ $ $ % $ & * = - ; >   ,     m   u.7 v.w.t.x.U U U U U U V U T F g [ [ g F T V V T F W [   X                       ",
"  1 2 y.4 $ $ $ $ % $ & * = - ; >   ,     m   ! 6 q.r.s.t.G G G G G G G G F E D < < D E F G G F E D <   n                       ",
"  H I $ J $ $ $ $ % $ & * = - ; >   ,   | n m i.j.k.l.m.n.j i j i i j i h g f d e e d f g j i W o.p.(   m                       ",
"  H I $ J $ $ $ $ % $ & * = - ; >   ,         0.) a.b.c.d.} } } } } } } } [ < ( : : ( < [ } } [ < ( :   |                       "};
