/* XPM */
static char * anim05_xpm[] = {
"64 64 636 2",
"  	c #87CEEB",
". 	c #7B636C",
"+ 	c #79606B",
"@ 	c #725B68",
"# 	c #7C646D",
"$ 	c #7C646C",
"% 	c #7C676F",
"& 	c #7C656D",
"* 	c #7C686F",
"= 	c #7C6970",
"- 	c #7A616B",
"; 	c #755D69",
"> 	c #705A68",
", 	c #785E6A",
"' 	c #7B626C",
") 	c #7C666E",
"! 	c #735D69",
"~ 	c #BE998C",
"{ 	c #E4B39F",
"] 	c #D99D92",
"^ 	c #9F7577",
"/ 	c #D89D92",
"( 	c #E5B49F",
"_ 	c #E7BAA3",
": 	c #E7B9A2",
"< 	c #E7BCA4",
"[ 	c #E6CEB6",
"} 	c #E6CCB4",
"| 	c #E7BFA8",
"1 	c #E6D1BA",
"2 	c #E6D8C0",
"3 	c #E6CFB8",
"4 	c #E6BAA4",
"5 	c #DFA596",
"6 	c #B58380",
"7 	c #8D6A71",
"8 	c #CD938B",
"9 	c #E3AF9C",
"0 	c #E7BAA2",
"a 	c #E6C8B1",
"b 	c #E6D1B9",
"c 	c #E6CBB4",
"d 	c #E6D7BF",
"e 	c #E6D6BF",
"f 	c #E6CAB2",
"g 	c #D89D91",
"h 	c #6B5766",
"i 	c #665364",
"j 	c #9F7376",
"k 	c #CD948B",
"l 	c #D8A998",
"m 	c #ECBEA5",
"n 	c #FCC9AE",
"o 	c #F4BFA7",
"p 	c #AE8882",
"q 	c #F4BEA7",
"r 	c #FCCBAF",
"s 	c #FCCCB0",
"t 	c #FCD3B7",
"u 	c #FCD2B6",
"v 	c #FCCDB1",
"w 	c #FCD4B8",
"x 	c #FCD7BB",
"y 	c #FCD4B7",
"z 	c #FAC4AA",
"A 	c #CA9D90",
"B 	c #977778",
"C 	c #E7B49F",
"D 	c #FCC8AD",
"E 	c #FCD1B4",
"F 	c #FCD7BA",
"G 	c #FCD1B5",
"H 	c #8B676F",
"I 	c #BC8883",
"J 	c #C7AA9D",
"K 	c #DAC5B1",
"L 	c #F4D0B9",
"M 	c #FCCDB2",
"N 	c #FCCBAE",
"O 	c #F7C7AC",
"P 	c #B18F86",
"Q 	c #FBCAAE",
"R 	c #FBCAAD",
"S 	c #FBC9AD",
"T 	c #CDA595",
"U 	c #997B7A",
"V 	c #EABDA5",
"W 	c #FDCCAF",
"X 	c #9A6F73",
"Y 	c #C2928A",
"Z 	c #ECC2AE",
"` 	c #FAD8BE",
" .	c #FCE0C3",
"..	c #FBDDC0",
"+.	c #FBD0B4",
"@.	c #FBC8AD",
"#.	c #F2BBA4",
"$.	c #AD8681",
"%.	c #FBCBAF",
"&.	c #F8C1A9",
"*.	c #C89A8E",
"=.	c #967677",
"-.	c #E5B09D",
";.	c #FBC6AC",
">.	c #9F7477",
",.	c #CC9D93",
"'.	c #F3C7B2",
").	c #F9DDC2",
"!.	c #FBD4B8",
"~.	c #F8C3A9",
"{.	c #F5BDA6",
"].	c #F2B4A1",
"^.	c #E79F94",
"/.	c #A77679",
"(.	c #E8A095",
"_.	c #F3B4A1",
":.	c #F5B9A4",
"<.	c #F4B9A4",
"[.	c #F4B7A3",
"}.	c #EEA799",
"|.	c #C08582",
"1.	c #926B72",
"2.	c #DB968E",
"3.	c #F2AF9E",
"4.	c #82656E",
"5.	c #D59C90",
"6.	c #F6CAB4",
"7.	c #FADEC3",
"8.	c #FBCFB3",
"9.	c #FAC8AD",
"0.	c #F7C1A8",
"a.	c #EEAB9B",
"b.	c #E79690",
"c.	c #E38A8A",
"d.	c #DC8486",
"e.	c #A26B73",
"f.	c #996972",
"g.	c #CD8082",
"h.	c #D18283",
"i.	c #AE7278",
"j.	c #89636D",
"k.	c #C47B7F",
"l.	c #D28284",
"m.	c #977576",
"n.	c #E1B49E",
"o.	c #FBCCB0",
"p.	c #ECA698",
"q.	c #E5928D",
"r.	c #DE8888",
"s.	c #D68184",
"t.	c #C9737D",
"u.	c #97626F",
"v.	c #735B68",
"w.	c #805F6B",
"x.	c #7E5E6B",
"y.	c #7A5D6A",
"z.	c #785C69",
"A.	c #745B68",
"B.	c #705A67",
"C.	c #775C69",
"D.	c #795D69",
"E.	c #665565",
"F.	c #A17778",
"G.	c #E0A395",
"H.	c #F6C1A8",
"I.	c #FBCBAE",
"J.	c #F3B8A3",
"K.	c #EBA196",
"L.	c #E38E8C",
"M.	c #DF8888",
"N.	c #B9767B",
"O.	c #84606C",
"P.	c #7F5D6A",
"Q.	c #755A68",
"R.	c #88626E",
"S.	c #A26B77",
"T.	c #956675",
"U.	c #7F5E6D",
"V.	c #6E5967",
"W.	c #695465",
"X.	c #A98680",
"Y.	c #F2BFA7",
"Z.	c #FBC9AE",
"`.	c #EDA99B",
" +	c #E48D8B",
".+	c #DA8586",
"++	c #A96F76",
"@+	c #6D5967",
"#+	c #6F5967",
"$+	c #815E6E",
"%+	c #996776",
"&+	c #AB6F7A",
"*+	c #A86E7A",
"=+	c #8D6370",
"-+	c #735C68",
";+	c #B58280",
">+	c #DEA797",
",+	c #F8C7AC",
"'+	c #F9C6AC",
")+	c #F3B6A2",
"!+	c #E99B93",
"~+	c #CF7F82",
"{+	c #A06B73",
"]+	c #6B5866",
"^+	c #765B6A",
"/+	c #7F5E6C",
"(+	c #85616E",
"_+	c #86616E",
":+	c #7B5D6A",
"<+	c #805E6D",
"[+	c #775B6A",
"}+	c #745C69",
"|+	c #745D69",
"1+	c #CB9C8F",
"2+	c #F9C1A9",
"3+	c #F7C1A9",
"4+	c #EA9F95",
"5+	c #E68E8C",
"6+	c #C67C7F",
"7+	c #6A5866",
"8+	c #785C6B",
"9+	c #876170",
"0+	c #936672",
"a+	c #966773",
"b+	c #8F6471",
"c+	c #805E6E",
"d+	c #715A68",
"e+	c #6C5867",
"f+	c #6C5866",
"g+	c #745E69",
"h+	c #CFA796",
"i+	c #F7C0A8",
"j+	c #E5948F",
"k+	c #CC7D80",
"l+	c #A66E75",
"m+	c #765C69",
"n+	c #7A5C6C",
"o+	c #8F6473",
"p+	c #A26B79",
"q+	c #AC707B",
"r+	c #AE717B",
"s+	c #AA6E7A",
"t+	c #9B6876",
"u+	c #7B5D6B",
"v+	c #84606D",
"w+	c #8E6470",
"x+	c #87616F",
"y+	c #755F6A",
"z+	c #CC9F91",
"A+	c #FAC4AB",
"B+	c #FCCAAE",
"C+	c #FBC7AC",
"D+	c #F4B8A3",
"E+	c #E3928D",
"F+	c #A86D75",
"G+	c #695866",
"H+	c #745B69",
"I+	c #936574",
"J+	c #A66D7A",
"K+	c #AE707B",
"L+	c #AC6F7B",
"M+	c #A06B77",
"N+	c #7D5E6B",
"O+	c #6C5967",
"P+	c #725A68",
"Q+	c #956673",
"R+	c #755E69",
"S+	c #B68381",
"T+	c #DEA596",
"U+	c #E5B7A1",
"V+	c #E6B9A2",
"W+	c #E1AD9B",
"X+	c #D9978E",
"Y+	c #CF8484",
"Z+	c #9E6A72",
"`+	c #755B69",
" @	c #976773",
".@	c #A36C77",
"+@	c #A26C77",
"@@	c #896171",
"#@	c #815F6E",
"$@	c #956674",
"%@	c #A16B77",
"&@	c #82646D",
"*@	c #917073",
"=@	c #947677",
"-@	c #947777",
";@	c #927275",
">@	c #8F6A71",
",@	c #8B646E",
"'@	c #785C6A",
")@	c #7C5E6B",
"!@	c #795C6A",
"~@	c #735A69",
"{@	c #775C6A",
"]@	c #6F5A67",
"^@	c #BD8984",
"/@	c #E8AD9B",
"(@	c #EFBFA6",
"_@	c #F0C1A8",
":@	c #EAB4A0",
"<@	c #E29E93",
"[@	c #D78887",
"}@	c #A26C74",
"|@	c #6C5A68",
"1@	c #6F5E6B",
"2@	c #6E5C6A",
"3@	c #7D5E6E",
"4@	c #A46C78",
"5@	c #A76E79",
"6@	c #8E6373",
"7@	c #A06A77",
"8@	c #A86E79",
"9@	c #735C69",
"0@	c #CDA293",
"a@	c #FAC7AC",
"b@	c #F5BAA5",
"c@	c #E3938E",
"d@	c #A86C74",
"e@	c #73717C",
"f@	c #7D8F98",
"g@	c #6B7D8B",
"h@	c #6A6777",
"i@	c #AD707B",
"j@	c #A96E7A",
"k@	c #8E6471",
"l@	c #7E5E6C",
"m@	c #A26B78",
"n@	c #755E6A",
"o@	c #745F6A",
"p@	c #CFB9A7",
"q@	c #FBDCBF",
"r@	c #E3948E",
"s@	c #A76B73",
"t@	c #757782",
"u@	c #839BA4",
"v@	c #738C99",
"w@	c #6A707F",
"x@	c #7F5F6C",
"y@	c #A76D79",
"z@	c #916571",
"A@	c #805F6C",
"B@	c #75606B",
"C@	c #74606B",
"D@	c #CEC1AF",
"E@	c #FBE3C7",
"F@	c #FBCDB1",
"G@	c #A76C74",
"H@	c #6F6773",
"I@	c #777B85",
"J@	c #717481",
"K@	c #786877",
"L@	c #8E6372",
"M@	c #75616C",
"N@	c #CEB5A3",
"O@	c #FBD8BC",
"P@	c #FBCBB0",
"Q@	c #A76D75",
"R@	c #725968",
"S@	c #805D6C",
"T@	c #8C626F",
"U@	c #986774",
"V@	c #A36B79",
"W@	c #A56C79",
"X@	c #8A6270",
"Y@	c #7C5D6B",
"Z@	c #9E6977",
"`@	c #AB6F7B",
" #	c #745E6A",
".#	c #CFAF9E",
"+#	c #FBD3B7",
"@#	c #755B6A",
"##	c #986874",
"$#	c #9D6A75",
"%#	c #9D6975",
"&#	c #9A6875",
"*#	c #8C6372",
"=#	c #7B5D6C",
"-#	c #85606F",
";#	c #9C6975",
">#	c #745F6B",
",#	c #CEBBA9",
"'#	c #FBDDC1",
")#	c #6F5968",
"!#	c #CFA897",
"~#	c #AA6F7A",
"{#	c #A56D79",
"]#	c #956575",
"^#	c #7A5C6B",
"/#	c #CFA695",
"(#	c #916474",
"_#	c #A76D74",
":#	c #F7BFA7",
"<#	c #83606D",
"[#	c #C8958B",
"}#	c #F6BBA5",
"|#	c #F0AD9D",
"1#	c #E28F8C",
"2#	c #A86E75",
"3#	c #7D5E6C",
"4#	c #9C6877",
"5#	c #986775",
"6#	c #7A5D6B",
"7#	c #86606F",
"8#	c #9F6A78",
"9#	c #9B6877",
"0#	c #7D5D6C",
"a#	c #997175",
"b#	c #B58782",
"c#	c #BA948A",
"d#	c #BB968B",
"e#	c #B78D85",
"f#	c #B17E7D",
"g#	c #AA7277",
"h#	c #8A626D",
"i#	c #725A69",
"j#	c #89626F",
"k#	c #8D6470",
"l#	c #7D5D6D",
"m#	c #825F6E",
"n#	c #8C6370",
"o#	c #83606E",
"p#	c #775C6B",
"q#	c #8A626F",
"r#	c #8D6372",
"s#	c #805F6D",
"t#	c #9C6977",
"u#	c #CFAC9B",
"v#	c #9A6874",
"w#	c #CEBFAC",
"x#	c #FBE1C5",
"y#	c #6E5D6B",
"z#	c #6F606E",
"A#	c #6E606E",
"B#	c #6E5B69",
"C#	c #6E5A68",
"D#	c #6E5E6C",
"E#	c #6E5F6C",
"F#	c #88616E",
"G#	c #75616B",
"H#	c #9D6977",
"I#	c #6F717F",
"J#	c #718391",
"K#	c #71818F",
"L#	c #6F6A77",
"M#	c #6E5866",
"N#	c #6E5F6D",
"O#	c #717B88",
"P#	c #718493",
"Q#	c #707B89",
"R#	c #6E606D",
"S#	c #6D5866",
"T#	c #A66D79",
"U#	c #CFAD9B",
"V#	c #FCD0B4",
"W#	c #6E5968",
"X#	c #795C6B",
"Y#	c #686C7C",
"Z#	c #667F8F",
"`#	c #708593",
" $	c #706C79",
".$	c #717F8C",
"+$	c #6A8493",
"@$	c #657585",
"#$	c #6D5E6D",
"$$	c #CEB8A6",
"%$	c #FBDBBF",
"&$	c #656A7A",
"*$	c #637C8D",
"=$	c #708492",
"-$	c #717E8C",
";$	c #688291",
">$	c #617282",
",$	c #6C5E6C",
"'$	c #936573",
")$	c #976774",
"!$	c #886170",
"~$	c #745B6A",
"{$	c #CFB3A1",
"]$	c #FBD6BA",
"^$	c #7E5E6D",
"/$	c #8D6371",
"($	c #946672",
"_$	c #637D8D",
":$	c #617283",
"<$	c #996875",
"[$	c #A16B78",
"}$	c #A86D7A",
"|$	c #AC6F7A",
"1$	c #CFA795",
"2$	c #765B69",
"3$	c #9B6976",
"4$	c #A46C79",
"5$	c #825F6D",
"6$	c #CDA292",
"7$	c #FAC6AC",
"8$	c #856070",
"9$	c #976775",
"0$	c #A06B76",
"a$	c #866070",
"b$	c #9D6976",
"c$	c #735B69",
"d$	c #765C6A",
"e$	c #705968",
"f$	c #7A5D69",
"g$	c #9D6A72",
"h$	c #9E6A76",
"i$	c #9A6974",
"j$	c #CFB6A4",
"k$	c #FCD9BD",
"l$	c #906472",
"m$	c #A06A78",
"n$	c #835F6F",
"o$	c #906572",
"p$	c #956672",
"q$	c #916572",
"r$	c #8C6371",
"s$	c #7C5D6C",
"t$	c #706C7A",
"u$	c #717F8D",
"v$	c #688292",
"w$	c #617383",
"x$	c #6D5E6C",
"y$	c #87616E",
"z$	c #84606E",
"A$	c #8C6271",
"B$	c #A56C78",
"C$	c #8A6271",
"D$	c #676776",
"E$	c #657686",
"F$	c #6F7D8B",
"G$	c #6F6876",
"H$	c #707886",
"I$	c #697B8A",
"J$	c #646D7D",
"K$	c #6F5D6C",
"L$	c #8A6170",
"M$	c #CEBCAA",
"N$	c #FBDFC2",
"O$	c #6E5D6A",
"P$	c #736471",
"Q$	c #736370",
"R$	c #816271",
"S$	c #976675",
"T$	c #996874",
"U$	c #6D5B6A",
"V$	c #6E5C69",
"W$	c #6D5A69",
"X$	c #CFAA98",
"Y$	c #FCCEB1",
"Z$	c #74747E",
"`$	c #80949D",
" %	c #768996",
".%	c #70707F",
"+%	c #AF717C",
"@%	c #757781",
"#%	c #8199A2",
"$%	c #6D8694",
"%%	c #656B7B",
"&%	c #AE717C",
"*%	c #6F6370",
"=%	c #74727D",
"-%	c #6C6977",
";%	c #786271",
">%	c #916573",
",%	c #A36C79",
"'%	c #CA998E",
")%	c #F8BFA7",
"!%	c #F2B19F",
"~%	c #E3918D",
"{%	c #A96E75",
"]%	c #6D5765",
"^%	c #6D5766",
"/%	c #A47779",
"(%	c #C49289",
"_%	c #CAA192",
":%	c #CBA393",
"<%	c #C6988D",
"[%	c #BF8683",
"}%	c #B8787C",
"|%	c #91656F",
"1%	c #8B6270",
"2%	c #715B68",
"3%	c #906B71",
"4%	c #A67D7C",
"5%	c #AA8882",
"6%	c #AB8982",
"7%	c #A7827E",
"8%	c #A27578",
"9%	c #9D6C73",
"0%	c #82606B",
"a%	c #83606B",
"b%	c #C69189",
"c%	c #F3B7A2",
"d%	c #F9C7AC",
"e%	c #FAC9AD",
"f%	c #F5BEA7",
"g%	c #EDA89A",
"h%	c #E08E8B",
"i%	c #A66D75",
"j%	c #CEA898",
"k%	c #FBCCB1",
"l%	c #F6BEA7",
"m%	c #CEBDAB",
"n%	c #FBE0C4",
"o%	c #A36C78",
"p%	c #CEC0AE",
"q%	c #FBE2C6",
"r%	c #C9988D",
"s%	c #F7BEA6",
"t%	c #F8C3AA",
"u%	c #F1B19F",
"v%	c #E2908C",
"w%	c #926573",
"x%	c #C28382",
"y%	c #EDA297",
"z%	c #F1B09F",
"A%	c #F2B2A0",
"B%	c #EEA89A",
"C%	c #E89690",
"D%	c #DC8386",
"E%	c #A46973",
"F%	c #815F6D",
"G%	c #AE707C",
"H%	c #AA6E7B",
"I%	c #996775",
"J%	c #A56A73",
"K%	c #745C68",
"L%	c #A86F76",
"M%	c #C77C7F",
"N%	c #C67B7F",
"O%	c #C4797E",
"P%	c #B96D78",
"Q%	c #91606D",
"R%	c #91606E",
"S%	c #705967",
"                        . . + @ @ + . # $ # % % & * = % # - ; > , ' # $ $ ) * & % = = = ) . + @ @ + . .                         ",
"                    @ ! ~ { ] ^ ^ / ( _ : < [ } | 1 2 3 4 5 6 7 8 9 _ 0 0 a b | c d e e f ( g ^ ^ ] { ~ ! @                     ",
"              h i j k l m n o p p q n r r s t u v w x y r z A B C D r r r E w v u x F F G n q p p o n m l k j i h               ",
"            H I J K L M N r O P P O r Q Q Q R Q Q S S S Q r T U V W Q Q Q Q S Q Q S S S Q r O P P O r N M L K J I H             ",
"          X Y Z `  ...+.N @.#.$.$.#.@.r %.%.%.%.%.%.%.r Q &.*.=.-.;.r %.%.%.%.%.%.%.%.%.r @.#.$.$.#.@.N +... .` Z Y X           ",
"        >.,.'.).!.Q S ~.{.].^././.(._.:.<.<.<.<.<.<.<.:.[.}.|.1.2.3.:.<.<.<.<.<.<.<.<.<.:._.(././.^.].{.~.S Q !.).'.,.>.        ",
"      4.5.6.7.8.Q 9.0.a.b.c.d.e.f.g.h.h.h.h.h.h.h.h.h.h.h.h.i.j.k.l.h.h.h.h.h.h.h.h.h.h.h.h.g.f.e.d.c.b.a.0.9.Q 8.7.6.5.4.      ",
"      m.n.r o.Q 9.{.p.q.r.s.t.u.v.w.x.y.z.z.z.z.z.z.z.z.z.z.A.B.C.D.z.z.z.z.z.z.z.z.z.z.y.x.w.v.u.t.s.r.q.p.{.9.Q o.r n.m.      ",
"  E.F.G.H.I.Q S J.K.L.M.N.O.P.Q.R.S.T.U.V.V.V.V.V.V.V.V.V.V.V.V.V.V.V.V.V.V.V.V.V.V.V.V.U.T.S.R.Q.P.O.N.M.L.K.J.S Q I.H.G.F.E.  ",
"  W.X.Y.Z.Q Q 9.`. +.+++x.@+#+$+%+&+*+=+V.V.V.V.V.V.V.V.V.V.V.V.V.V.V.V.V.V.V.V.V.V.V.V.=+*+&+%+$+#+@+x.++.+ +`.9.Q Q Z.Y.X.W.  ",
"-+;+>+,+I.Q '+)+!+~+{+D.]+@+V.^+/+(+_+:+V.V.V.V.V.V.V.V.V.V.V.V.V.V.V.V.V.V.V.V.V.V.V.V.:+_+_+<+[+#+V.]+D.{+~+!+)+'+Q I.,+>+;+}+",
"|+1+2+S Q %.3+4+5+6+C.7+8+9+0+a+b+c+d+@+V.V.V.V.V.V.V.V.V.V.V.V.V.V.V.V.V.V.V.V.V.V.V.V.@+e+e+f+f+e+e+@+7+C.6+5+4+3+%.Q S 2+1+; ",
"g+h+r Q Q r i+j+k+l+m+n+o+p+q+r+s+t+u+@+V.V.V.V.V.V.V.V.V.V.V.V.V.V.V.V.V.V.V.V.V.V.V.V.V.V.B.v+b+w+w+x+n+m+l+k+j+i+r Q Q r h+y+",
"|+z+A+B+r C+D+E+F+G+H+I+J+K+K+K+L+M+N+O+V.V.V.V.V.V.V.V.V.V.V.V.V.V.V.V.V.V.V.V.V.V.V.V.V.@+P+Q+s+K+K+J+I+H+G+F+E+D+C+r B+A+z+R+",
"@ S+T+U+V+W+X+Y+Z+]+`+ @.@+@+@+@t+@@`+@+V.V.V.V.V.V.V.V.V.V.V.V.V.V.V.V.V.V.V.V.V.V.V.V.V.V.#+#@$@%@+@.@ @`+]+Z+Y+X+W+V+U+T+S+-+",
"#+&@*@=@-@;@>@,@:+V.V.P+`+'@u+)@u+!@H+> V.V.V.V.V.V.V.V.V.V.V.V.V.V.V.V.V.V.V.V.V.V.V.V.V.#+~@{@u+u+'@`+P+V.V.:+,@>@;@-@=@*@&@]@",
"-+^@/@(@_@:@<@[@}@|@1@2@3@I+4@5@5@4@T.U.V.V.V.V.V.V.V.V.V.V.V.V.V.V.V.V.V.V.V.V.V.V.V.V.@+^+6@7@8@4@I+3@2@1@|@}@[@<@:@_@(@/@^@9@",
"|+0@a@Q N @.b@c@d@e@f@g@h@(+8@K+i@i@j@k@V.V.V.V.V.V.V.V.V.V.V.V.V.V.V.V.V.V.V.V.V.V.V.V.O+l@m@q+K+8@(+h@g@f@e@d@c@b@@.N Q a@0@n@",
"o@p@q@o.Q r i+r@s@t@u@v@w@x@y@K+i@i@i@z@V.V.V.V.V.V.V.V.V.V.V.V.V.V.V.V.V.V.V.V.V.V.V.V.e+A@5@K+K+y@x@w@v@u@t@s@r@i+r Q o.q@p@B@",
"C@D@E@F@Q %.i+r@G@H@I@J@K@L@*+K+i@i@i@z@V.V.V.V.V.V.V.V.V.V.V.V.V.V.V.V.V.V.V.V.V.V.V.V.e+A@5@K+K+*+L@K@J@I@H@G@r@i+%.Q F@E@D@M@",
"o@N@O@P@Q %.i+r@Q@R@S@T@U@V@q+r+K+i@W@X@V.V.V.V.V.V.V.V.V.V.V.V.V.V.V.V.V.V.V.V.V.V.V.V.@+Y@Z@`@r+q+V@U@T@S@R@Q@r@i+%.Q P@O@N@B@",
" #.#+#%.Q %.i+r@Q@@#@@##$#%#%#%#$#&#*#=#V.V.V.V.V.V.V.V.V.V.V.V.V.V.V.V.V.V.V.V.V.V.V.V.@+~@-#Q+;#;#;#%#U@@@@#Q@r@i+%.Q %.+#.#y+",
">#,#'#o.Q %.i+r@Q@e+V.#+#+#+#+#+#+#+#+V.V.V.V.V.V.V.V.V.V.V.V.V.V.V.V.V.V.V.V.V.V.V.V.V.P+'@l@x@x@x@x@A@x.{@)#Q@r@i+%.Q o.'#,#B@",
"g+!#s Q Q %.i+r@Q@@+~@C.'@'@'@'@m+~@#+V.V.V.V.V.V.V.V.V.V.V.V.V.V.V.V.V.V.V.V.V.V.V.V.V.#@%+8@&+~#~#~#&+{#]#^#Q@r@i+%.Q Q s !#y+",
"g+/#N Q Q %.i+r@Q@8+(#m@8@5@5@5@7@6@^+@+V.V.V.V.V.V.V.V.V.V.V.V.V.V.V.V.V.V.V.V.V.V.V.V.b+~#i@i@i@i@i@i@i@8@v+_#r@i+%.Q Q N /#n@",
"g+/#B+Q Q %.:#r@Q@<#{#q+i@i@i@i@q+m@x.O+V.V.V.V.V.V.V.V.V.V.V.V.V.V.V.V.V.V.V.V.V.V.V.V.z@q+i@i@i@i@i@i@i@~#(+_#r@:#%.Q Q B+/#n@",
"9@[#}#Z.r &.|#1#2#3#4#s+K+i@i@K+*+5#6#@+V.V.V.V.V.V.V.V.V.V.V.V.V.V.V.V.V.V.V.V.V.V.V.V.7#8#`@K+i@i@i@K+s+9#0#2#1#|#&.r Z.}#[#|+",
"> a#b#c#d#e#f#g#h#i#U.j#k#=+=+k#j#l#P+V.V.V.V.V.V.V.V.V.V.V.V.V.V.V.V.V.V.V.V.V.V.V.V.V.^+m#n#w+w+k#=+k#j#U.i#h#g#f#e#d#c#b#a#d+",
"> a#b#c#d#e#f#g#h#i#U.j#k#=+n#o#p#V.V.V.V.V.V.V.V.V.V.V.V.V.V.V.V.V.V.V.V.V.V.V.V.V.V.V.V.@+O+f+i#U.q#k#j#U.i#h#g#f#e#d#c#b#a#d+",
"9@[#}#S r &.|#1#2#0#9#s+K+K+i@V@r#d+V.V.V.V.V.V.V.V.V.V.V.V.V.V.V.V.V.V.V.V.V.V.V.V.V.V.V.V.V.@+s#t#~#r+s+9#0#2#1#|#&.r S }#[#|+",
" #u#+.%.Q %.:#r@_#(+~#i@i@i@i@K+v#P+@+V.V.V.V.V.V.V.V.V.V.V.V.V.V.V.V.V.V.V.V.V.V.V.V.V.V.V.V.@+j#~#i@i@i@~#(+_#r@:#%.Q %.+.u#y+",
"C@w#x#F@Q %.i+r@_#v+8@i@i@i@i@L+U@P+@+y#z#A#B#V.V.V.V.V.V.V.V.V.V.V.V.V.V.V.V.V.V.V.C#D#z#E#C#@+F#*+i@i@i@8@v+_#r@i+%.Q F@x#w#G#",
"C@w#x#F@Q %.i+r@Q@^#]#{#&+~#j@H#9+> V.I#J#K#L#M#V.V.V.V.V.V.V.V.V.V.V.V.V.V.V.V.V.M#N#O#P#Q#R#S#0#T.T#&+{#]#^#Q@r@i+%.Q F@x#w#G#",
" #U#V#%.Q %.i+r@Q@W#{@N+/+/+x.X#~@V.V.Y#Z#`# $M#V.V.V.V.V.V.V.V.V.V.V.V.V.V.V.V.V.M#R#.$+$@$#$M#d+{@N+A@x.{@)#Q@r@i+%.Q %.V#U#y+",
"o@$$%$o.Q %.i+r@Q@]+@+@+f+f+f+@+V.V.V.&$*$=$ $M#V.V.V.V.V.V.V.V.V.V.V.V.V.V.V.V.V.M#R#-$;$>$,$M#@+d+m#'$)$!$~$Q@r@i+%.Q o.%$$$B@",
"o@{$]$%.Q %.i+r@Q@]+d+^$/$a+($x.@+V.V.&$_$=$ $M#V.V.V.V.V.V.V.V.V.V.V.V.V.V.V.V.V.M#R#-$;$:$,$M#@+m+<$s+L+[$s#Q@r@i+%.Q %.]${$B@",
"g+/#B+Q Q %.i+r@Q@]+`+$@}$K+|$q#@+V.V.&$_$=$ $M#V.V.V.V.V.V.V.V.V.V.V.V.V.V.V.V.V.M#R#-$;$:$,$M#O+!@.@r+K+&+_+G@r@i+%.Q Q B+/#n@",
"g+1$r Q Q r i+r@Q@7+2$&#`@K+&+j#@+V.V.&$_$=$ $M#V.V.V.V.V.V.V.V.V.V.V.V.V.V.V.V.V.M#R#-$;$:$,$M#@+{@3$`@q+4$5$Q@r@i+r Q Q r 1$y+",
"|+6$7$Q N @.b@c@F+]+d+8$9$+@0$v+@+V.V.&$_$=$ $M#V.V.V.V.V.V.V.V.V.V.V.V.V.V.V.V.V.M#R#-$;$:$,$M#@+i#a$<$b$r#^+F+c@b@@.N Q 7$6$n@",
"-+^@/@(@_@:@<@[@}@V.c$'@u+)@Y@d$d+V.V.&$_$=$ $M#V.V.V.V.V.V.V.V.V.V.V.V.V.V.V.V.V.M#R#-$;$:$,$M#V.V.e$P+P+> @+}@[@<@:@_@(@/@^@9@",
"#+&@*@=@-@;@>@,@f$^#(#m@5@5@T#%+-#e$V.&$_$=$ $M#V.V.V.V.V.V.V.V.V.V.V.V.V.V.V.V.V.M#R#-$;$:$,$M##+d+P+P+e$V.V.:+,@>@;@-@=@*@&@]@",
"@ S+T+U+V+W+X+Y+g$<#T#q+i@i@i@`@a+P+@+&$_$=$ $M#V.V.V.V.V.V.V.V.V.V.V.V.V.V.V.V.V.M#R#-$;$:$,$M#X#L@h$5#8$P+f+Z+Y+X+W+V+U+T+S+-+",
"|+z+z B+r C+D+E+Q@_+~#K+i@i@i@K+i$P+@+&$_$=$ $M#V.V.V.V.V.V.V.V.V.V.V.V.V.V.V.V.V.M#R#-$;$:$,$S#(+W@q+`@&#2$7+2#E+D+C+r B+z z+R+",
"o@j$k$o.Q r i+r@Q@/+Z@`@r+K+i@W@l$d+@+&$_$=$ $M#V.V.V.V.V.V.V.V.V.V.V.V.V.V.V.V.V.M#R#-$;$:$,$S#5$m$`@*+$@`+]+Q@r@i+r Q o.k$j$B@",
"C@D@E@F@Q %.i+r@Q@~@n$o$p$p$($X@=##+V.&$_$=$ $M#V.V.V.V.V.V.V.V.V.V.V.V.V.V.V.V.V.M#R#-$;$:$,$S#@#n$q$r$l#e$]+Q@r@i+%.Q F@E@D@M@",
"o@$$%$o.Q %.i+r@Q@e$s$v+_+_+(+l@^+#+V.&$_$`#t$M#V.V.V.V.V.V.V.V.V.V.V.V.V.V.V.V.V.M#R#u$v$w$x$2$/+(+_+y$z$s$e$Q@r@i+%.Q o.%$$$B@",
" #U#V#%.Q %.i+r@Q@^+A$%#B$j@&+m$C$d+@+D$E$F$G$M#V.V.V.V.V.V.V.V.V.V.V.V.V.V.V.V.V.M#D#H$I$J$K$L$m$&+j@B$%#A$^+Q@r@i+%.Q %.V#U#y+",
">#M$N$o.Q %.i+r@Q@O$P$Q$R$S$s+i@T$P+@+C#U$2@C#V.V.V.V.V.V.V.V.V.V.V.V.V.V.V.V.V.V.V.V.V$2@W$@ T$i@s+S$R$Q$P$O$Q@r@i+%.Q o.N$M$G#",
" #X$Y$Q Q %.i+r@G@Z$`$ %.%o#y@+%v#P+@+V.V.V.V.V.V.V.V.V.V.V.V.V.V.V.V.V.V.V.V.V.V.V.V.V.V.@+P+v#+%y@o#.% %`$Z$G@r@i+%.Q Q Y$X$y+",
"g+/#B+Q Q %.i+r@s@@%#%$%%%A@y@&%v#P+@+V.V.V.V.V.V.V.V.V.V.V.V.V.V.V.V.V.V.V.V.V.V.V.V.V.V.@+P+v#&%y@A@%%$%#%@%s@r@i+%.Q Q B+/#n@",
"g+1$r Q Q r i+r@G@*%=%-%;%>%*+,%r#d+V.V.V.V.V.V.V.V.V.V.V.V.V.V.V.V.V.V.V.V.V.V.V.V.V.V.V.V.d+r#,%*+>%;%-%=%*%G@r@i+r Q Q r 1$n@",
"|+'%)%B+W z !%~%{%h ]%^%`+m#q#z$p#V.V.V.V.V.V.V.V.V.V.V.V.V.V.V.V.V.V.V.V.V.V.V.V.V.V.V.V.V.V.p#z$q#m#`+^%]%h {%~%!%z W B+)%'%; ",
"d+/%(%_%:%<%[%}%|%i#U.1%w+k#=+k#j#l#P+V.V.V.V.V.V.V.V.V.V.V.V.V.V.V.V.V.V.V.V.V.V.V.V.V.V.P+l#j#k#=+k#w+1%U.i#|%}%[%<%:%_%(%/%2%",
"B.3%4%5%6%7%8%9%0%/+4#s+K+i@i@K+*+5#6#@+V.V.V.V.V.V.V.V.V.V.V.V.V.V.V.V.V.V.V.V.V.V.V.V.@+6#5#*+K+i@i@K+s+9#l@a%9%8%7%6%5%4%3%> ",
"9@b%c%d%e%f%g%h%i%<#{#q+i@i@i@i@q+m@x.O+V.V.V.V.V.V.V.V.V.V.V.V.V.V.V.V.V.V.V.V.V.V.V.V.e+x@T#K+i@i@i@i@i@~#(+i%h%g%f%e%d%c%b%|+",
"g+j%k%Q Q Q l%c@Q@8+(#m@8@5@5@5@7@6@^+@+V.V.V.V.V.V.V.V.V.V.V.V.V.V.V.V.V.V.V.V.V.V.V.V.e+l@4@i@i@i@i@i@i@8@v+Q@c@l%Q Q Q k%j%y+",
"C@m%n%o.Q %.i+r@Q@@+~@C.'@'@'@'@m+~@#+V.V.V.V.V.V.V.V.V.V.V.V.V.V.V.V.V.V.V.V.V.V.V.V.V.@+{@(#o%&+~#~#&+{#]#^#Q@r@i+%.Q o.n%m%G#",
"C@p%q%F@Q %.i+r@Q@e+V.#+#+#+#+V.V.V.V.V.V.V.V.V.V.V.V.V.V.V.V.V.V.V.V.V.V.V.V.V.V.V.V.V.V.e$^+Y@/+l@l@/+N+{@W#Q@r@i+%.Q F@q%p%M@",
" #.#t %.Q r i+r@Q@@#@@U@$#%#;#l$U.#+V.V.V.V.V.V.V.V.V.V.V.V.V.V.V.V.V.V.V.V.V.V.V.V.V.V.V.V.@+@+e+f+f+f+e+@+]+Q@r@i+r Q %.t .#y+",
"! r%s%Q r t%u%v%Q@s#m@L+r+K+i@}$w%d+@+V.V.V.V.V.V.V.V.V.V.V.V.V.V.V.V.V.V.V.V.V.V.V.V.V.V.V.#+s$C$Q+a+ @w+v.]+2#v%u%t%r Q s%r%|+",
"v.x%y%z%A%B%C%D%E%F%m@L+r+K+i@}$w%d+@+V.V.V.V.V.V.V.V.V.V.V.V.V.V.V.V.V.V.V.V.V.V.V.V.V.V.V.d+l$J+G%+%H%I%`+]+J%D%C%B%A%z%y%x%K%",
"d+L%M%N%N%M%O%P%Q%^+@@U@$#%#;#l$U.#+V.V.V.V.V.V.V.V.V.V.V.V.V.V.V.V.V.V.V.V.V.V.V.V.V.V.V.V.d+w+$#%#;#'$m#d+O+R%P%O%M%N%N%M%L%P+",
"V.B.d+d+d+d+d+S%#+V.#+#+#+#+#+#+V.V.V.V.V.V.V.V.V.V.V.V.V.V.V.V.V.V.V.V.V.V.V.V.V.V.V.V.V.V.V.#+#+#+#+#+V.V.V.#+S%d+d+d+d+d+B.V.",
"V.V.V.V.V.V.V.V.V.V.V.V.V.V.V.V.V.V.V.V.V.V.V.V.V.V.V.V.V.V.V.V.V.V.V.V.V.V.V.V.V.V.V.V.V.V.V.V.V.V.V.V.V.V.V.V.V.V.V.V.V.V.V.V."};
