/* XPM */
static char * exit_open7_xpm[] = {
"64 64 403 2",
"  	c #87CEEB",
". 	c #3CA370",
"+ 	c #3BA270",
"@ 	c #3AA270",
"# 	c #3BA370",
"$ 	c #45A76F",
"% 	c #54B06D",
"& 	c #5BB56B",
"* 	c #73C666",
"= 	c #80D162",
"- 	c #7FD062",
"; 	c #7FD063",
"> 	c #499F6E",
", 	c #3C9A70",
"' 	c #3CA070",
") 	c #54B16D",
"! 	c #6CC168",
"~ 	c #84D461",
"{ 	c #8FDE5D",
"] 	c #7CC564",
"^ 	c #579A6C",
"/ 	c #3B8970",
"( 	c #3B9A70",
"_ 	c #8CDB5E",
": 	c #90DF5D",
"< 	c #73BF66",
"[ 	c #559A6D",
"} 	c #3A8870",
"| 	c #3A9970",
"1 	c #5AB46C",
"2 	c #5CB56B",
"3 	c #55AE6D",
"4 	c #46A06F",
"5 	c #3B9970",
"6 	c #48AA6F",
"7 	c #7CCD64",
"8 	c #56B16C",
"9 	c #3AA370",
"0 	c #80CF62",
"a 	c #5CAE6B",
"b 	c #3A9F70",
"c 	c #8BDB5E",
"d 	c #80D163",
"e 	c #84D561",
"f 	c #80CB62",
"g 	c #5CA06B",
"h 	c #3B8870",
"i 	c #81D262",
"j 	c #5BB56C",
"k 	c #3B9F6E",
"l 	c #39956B",
"m 	c #39916A",
"n 	c #3B936B",
"o 	c #54A66A",
"p 	c #73C365",
"q 	c #8CDC5E",
"r 	c #69BF69",
"s 	c #54AE6D",
"t 	c #459F6F",
"u 	c #38956B",
"v 	c #337760",
"w 	c #34665C",
"x 	c #366C62",
"y 	c #428567",
"z 	c #56B26C",
"A 	c #73C364",
"B 	c #53A567",
"C 	c #388263",
"D 	c #335B57",
"E 	c #344454",
"F 	c #364F5C",
"G 	c #386B65",
"H 	c #3B8A6C",
"I 	c #55A96D",
"J 	c #73C466",
"K 	c #47A96F",
"L 	c #40805E",
"M 	c #345C56",
"N 	c #324751",
"O 	c #344353",
"P 	c #386064",
"Q 	c #3A756C",
"R 	c #458F6F",
"S 	c #54A96D",
"T 	c #489F6F",
"U 	c #80D263",
"V 	c #3A9269",
"W 	c #336459",
"X 	c #323E4F",
"Y 	c #323C4F",
"Z 	c #344554",
"` 	c #37515C",
" .	c #395A63",
"..	c #3B6469",
"+.	c #3B7B6D",
"@.	c #3C976F",
"#.	c #48A96F",
"$.	c #57996C",
"%.	c #389069",
"&.	c #326359",
"*.	c #323C4E",
"=.	c #323B4E",
"-.	c #385661",
";.	c #395B63",
">.	c #387368",
",.	c #3A946D",
"'.	c #7CCE64",
").	c #80C862",
"!.	c #5C976B",
"~.	c #3B7E70",
"{.	c #3B9670",
"].	c #85D561",
"^.	c #385560",
"/.	c #385660",
"(.	c #376F65",
"_.	c #3B946C",
":.	c #5D976B",
"<.	c #3B7D70",
"[.	c #6DC168",
"}.	c #345D57",
"|.	c #324952",
"1.	c #323D4F",
"2.	c #3A9169",
"3.	c #334353",
"4.	c #354C59",
"5.	c #37515D",
"6.	c #38555F",
"7.	c #377065",
"8.	c #5CB66B",
"9.	c #80D262",
"0.	c #324050",
"a.	c #354857",
"b.	c #37525D",
"c.	c #344453",
"d.	c #36505C",
"e.	c #396265",
"f.	c #3C766C",
"g.	c #46906F",
"h.	c #8ADA5F",
"i.	c #80CE60",
"j.	c #5BAA66",
"k.	c #325B57",
"l.	c #395C64",
"m.	c #3C696C",
"n.	c #3D7F70",
"o.	c #3C9870",
"p.	c #62BA6A",
"q.	c #83D461",
"r.	c #7FC85C",
"s.	c #59935A",
"t.	c #314752",
"u.	c #3C686C",
"v.	c #3C7E70",
"w.	c #3B9770",
"x.	c #5CB66C",
"y.	c #7FC559",
"z.	c #588453",
"A.	c #313D4F",
"B.	c #2E354F",
"C.	c #30394F",
"D.	c #303A4F",
"E.	c #8BDA5F",
"F.	c #7FC45A",
"G.	c #588352",
"H.	c #30384F",
"I.	c #39A270",
"J.	c #5C966B",
"K.	c #3A7D70",
"L.	c #3A9670",
"M.	c #55B26D",
"N.	c #71B85E",
"O.	c #517D54",
"P.	c #3F5750",
"Q.	c #4F7552",
"R.	c #578353",
"S.	c #3D5450",
"T.	c #324253",
"U.	c #354F5C",
"V.	c #46A96F",
"W.	c #529F65",
"X.	c #406E57",
"Y.	c #4F7652",
"Z.	c #71AD57",
"`.	c #7FC55A",
" +	c #71AE57",
".+	c #354E5C",
"++	c #8EDE5D",
"@+	c #83CE61",
"#+	c #6CAD68",
"$+	c #3CA470",
"%+	c #388F68",
"&+	c #356459",
"*+	c #507B54",
"=+	c #72B85E",
"-+	c #8CDB5F",
";+	c #84CC5A",
">+	c #6AA256",
",+	c #507856",
"'+	c #3F605D",
")+	c #385A64",
"!+	c #3B676C",
"~+	c #8CD95E",
"{+	c #84CF61",
"]+	c #73C066",
"^+	c #388F69",
"/+	c #346559",
"(+	c #406F58",
"_+	c #54A165",
":+	c #5BB66C",
"<+	c #5DB76C",
"[+	c #6DC268",
"}+	c #8CD95C",
"|+	c #71B05B",
"1+	c #527F5E",
"2+	c #3A676C",
"3+	c #A3E762",
"4+	c #9FE561",
"5+	c #95E15E",
"6+	c #80CE61",
"7+	c #5AAB68",
"8+	c #3B996D",
"9+	c #3A9F6F",
"0+	c #3A966B",
"a+	c #377A60",
"b+	c #36725D",
"c+	c #388664",
"d+	c #54AD6B",
"e+	c #72BD60",
"f+	c #8BD85C",
"g+	c #84CD5D",
"h+	c #6BA65F",
"i+	c #538464",
"j+	c #45756C",
"k+	c #3C9770",
"l+	c #C1F76B",
"m+	c #B6F268",
"n+	c #9FE661",
"o+	c #80C95F",
"p+	c #599762",
"q+	c #3A8068",
"r+	c #3A976D",
"s+	c #388665",
"t+	c #35725D",
"u+	c #357960",
"v+	c #429A69",
"w+	c #518C5C",
"x+	c #8CD95D",
"y+	c #84CE5E",
"z+	c #73B463",
"A+	c #548C6C",
"B+	c #CFFF70",
"C+	c #C1F86B",
"D+	c #A3E763",
"E+	c #7FC55E",
"F+	c #57895F",
"G+	c #376762",
"H+	c #378266",
"I+	c #3A976B",
"J+	c #377B60",
"K+	c #36745E",
"L+	c #388765",
"M+	c #368063",
"N+	c #345E57",
"O+	c #7FC459",
"P+	c #D0FF70",
"Q+	c #C2F86C",
"R+	c #A4E863",
"S+	c #7FC65E",
"T+	c #588A5F",
"U+	c #37585E",
"V+	c #345F5B",
"W+	c #315956",
"X+	c #314751",
"Y+	c #568153",
"Z+	c #90E05D",
"`+	c #80C962",
" @	c #83CD5E",
".@	c #69A55E",
"+@	c #517D5C",
"@@	c #3F5C57",
"#@	c #35605A",
"$@	c #388264",
"%@	c #2F384F",
"&@	c #7EC359",
"*@	c #8FDF5D",
"=@	c #83CC5D",
"-@	c #72B15D",
";@	c #517C5C",
">@	c #36555B",
",@	c #345E5A",
"'@	c #356659",
")@	c #334A52",
"!@	c #30374F",
"~@	c #C5F96D",
"{@	c #B0EE66",
"]@	c #94E05E",
"^@	c #354D5C",
"/@	c #2F3D54",
"(@	c #3A5150",
"_@	c #4E7452",
":@	c #71A557",
"<@	c #94D35F",
"[@	c #95E15F",
"}@	c #80CA62",
"|@	c #5B9F6B",
"1@	c #3D8A70",
"2@	c #CCFD6F",
"3@	c #9EE561",
"4@	c #80C75E",
"5@	c #598B5F",
"6@	c #37505C",
"7@	c #324054",
"8@	c #B3EC67",
"9@	c #B6F168",
"0@	c #5AAD6B",
"a@	c #3C9B70",
"b@	c #CBFD6F",
"c@	c #68A55E",
"d@	c #57885C",
"e@	c #558356",
"f@	c #558253",
"g@	c #548153",
"h@	c #568353",
"i@	c #B1EE67",
"j@	c #C6FA6D",
"k@	c #C2F86B",
"l@	c #A4E862",
"m@	c #5AB56B",
"n@	c #B1EE66",
"o@	c #C1F76C",
"p@	c #8BD85D",
"q@	c #7FC55D",
"r@	c #7FC45B",
"s@	c #CCFE6F",
"t@	c #A8EA64",
"u@	c #C4F96C",
"v@	c #A2E762",
"w@	c #B5F168",
"x@	c #B4ED69",
"y@	c #95D665",
"z@	c #72BF66",
"A@	c #53AD6D",
"B@	c #CAFC6E",
"C@	c #C1F86C",
"D@	c #74B069",
"E@	c #549A6D",
"F@	c #449F6F",
"G@	c #8CDA5E",
"H@	c #73B666",
"I@	c #558C6D",
"J@	c #C5FA6D",
"K@	c #6BAC68",
"L@	c #538C6D",
"M@	c #44776F",
"N@	c #94DB65",
"O@	c #B3EE69",
"P@	c #83CB5A",
"Q@	c #558C6C",
"R@	c #3D7270",
"S@	c #3C7970",
"T@	c #5AB46B",
"U@	c #73C369",
"V@	c #A3E862",
"W@	c #69A156",
"X@	c #588556",
"Y@	c #58885C",
"Z@	c #3C8D70",
"`@	c #59B46C",
" #	c #75C865",
".#	c #80C961",
"+#	c #7FC75F",
"@#	c #507956",
"##	c #354C58",
"$#	c #375560",
"%#	c #3A6168",
"&#	c #3C6A6D",
"*#	c #3D7E70",
"=#	c #57B36C",
"-#	c #5A9F6B",
";#	c #5A966B",
">#	c #5A956B",
",#	c #5A9368",
"'#	c #5A8E63",
")#	c #527E5E",
"!#	c #41625D",
"~#	c #365460",
"{#	c #386068",
"]#	c #3B676D",
"^#	c #3C6C6F",
"/#	c #3D7B70",
"(#	c #3A6268",
"_#	c #395D64",
":#	c #3AA070",
"<#	c #3B8D70",
"[#	c #3B7970",
"}#	c #3B6A6F",
"|#	c #3A676D",
"1#	c #3B686C",
"2#	c #3D6D6F",
"3#	c #3C8E70",
"4#	c #3D6D70",
"5#	c #3D6E70",
"6#	c #3D7A70",
"                                                                                                                                ",
"                                                            . . . . . . . .                                                     ",
"                                                            . . . . + @ @ @                                                     ",
"                                                        . . . . . . . . . . . .                                                 ",
"                                                        # . . # + $ % & & & & &                                                 ",
"                                                        . . . + . % * = = = - ;                                                 ",
"                                                        > , ' $ ) ! ~ { { { { {                                                 ",
"                                                    { ] ^ / ( % * ~ _ : : : : { { {                                             ",
"                                                    = < [ } | 1 = { : { { { { { { {                                             ",
"                                                    2 3 4 5 ' & = { : { { { { { { {                                             ",
"                                                    6 . . $ % ! ~ { : : : : : { { {                                             ",
"                                                { 7 8 @ 9 ) * ~ _ { { { { { { { { { { {                                         ",
"                                                : 0 a 5 b & = { : c ~ = d d d e _ { { {                                         ",
"                                                { f g h 5 & = : : ~ ! & 1 1 & ! ~ { { {                                         ",
"                                                i < [ } | 1 = : : = j k l m n o p e q :                                         ",
"                                            { i r s t 5 ' & = : : d 1 u v w x y o ! e {                                         ",
"                                            { 7 z . # $ % ! ~ _ e A B C D E F G H I J =                                         ",
"                                                K @ # ) * e _ e ! B L M N O F P Q R S &                                         ",
"                                                T ( ' & = : : U j V W X Y Z `  ...+.@.#.                                        ",
"                                            { ] $.h ( & = : : d 1 %.&.*.=.Z ` -.;.>.,.8 '.{                                     ",
"                                            { ).!.~.{.& = _ ].A B C D X Y Z ` ^./.(._.2 d {                                     ",
"                                            { ).:.<.{.2 = e [.B L }.|.X 1.Z ` ^./.(._.2 d {                                     ",
"                                            { ).!.~.{.2 = d 2 2.W X Y X X 3.4.5.6.7._.8.9.:                                     ",
"                                            { ).!.~.{.8.= d & %.&.Y =.X X 0.3.a.b.(._.2 d {     { { { {                         ",
"                                            { ).!.~.{.2 = d 8.V W X Y X X X X E ` G H I J =     { { { {                         ",
"                                            { ).!.~.{.2 = d 2 2.W X Y X X X X c.d.e.f.g.S &         { {                         ",
"                                            h.).!.~.{.8.= i.j.C k.X Y X X X X Z ` l.m.n.o..         { {                         ",
"                                    . @ . p.q.).:.~.{.8.= r.s.}.t.X 1.X X X X Z ` l.u.v.w.@                                     ",
"                                    . @ . p.q.).:.~.{.x.= y.z.A.B.C.C.C.C.D.A.Z ` l.m.n.o..                                     ",
"                                    . @     E.).!.~.{.x.= F.G.Y H.X X X X X X Z ` l.m.n.o..                                     ",
"                                    . I.    : ).J.K.L.M.* N.O.P.Q.z.z.z.R.Q.S.T.U.l.m.n.o..                                     ",
"                                            { ).!.v.{.V.) W.X.Y.Z.F.`.`.F. +Y.Z .+l.m.n.o..                                     ",
"                                            ++@+#+[ t $+. %+&+*+=+d U ].-+;+>+,+'+)+!+n.o..                                     ",
"                                            { ~+{+]+s . @ ^+/+(+_+:+<+[+].}+;+|+1+l.2+n.o..                                     ",
"                                            3+4+5+6+7+8+9+0+a+b+c+l k d+e+;+f+g+h+i+j+n.k+.                                     ",
"                                            l+m+n+o+p+q+r+k 0+s+t+u+u v+w+>+;+x+y+z+A+n.w..                                     ",
"                                            B+C+D+E+F+G+H+I+k 0+J+K+L+M+N+R.O+: : ).J.n.{..                                     ",
"                                            P+Q+R+S+T+U+V+a+I+k 0+L+b+W+X+Y+O+: Z+`+!.n.{..                                     ",
"                                            B+l+3+ @.@+@@@#@$@V V C }.%@C.Y+&@*@*@).J.n.{..                                     ",
"                                            B+l+D+x+=@-@;@>@,@'@'@N+)@!@1.R.F.: : ).J.n.{..                                     ",
"                                            P+~@{@n+]@S+T+^@/@C.C.%@C.(@_@:@<@n+[@}@|@1@5 .                                     ",
"                                            B+2@~@m+3@4@5@6@7@Y =.C.1._@ +<@8@9@4+0 0@a@b .                                     ",
"                                            l+~@b@l+3+=@c@d@e@f@f@g@h@:@<@i@j@k@l@= m@. @ .                                     ",
"                                            3+n@~@o@R+p@=@q@r@F.F.&@F.<@8@j@s@k@3+- m@.                                         ",
"                                            { t@u@~@n@3+v@3+3+3+D+3@5+3@w@k@k@x@y@z@A@.                                         ",
"                                                B@b@~@l+l+C+C@Q+C@m+n+[@3@l@3+y@D@E@F@.                                         ",
"                                                l+~@2@P+P+P+P+2@~@9@3@: *@G@{+H@I@n.{..                                         ",
"                                                3+{@~@P+P+P+P+J@{@4+]@{ ++@+K@L@M@v.w..                                         ",
"                                                ; N@O@l+k@k@C+m+n+f+P@`.q@z+Q@R@S@1@a@.                                         ",
"                                    . .         T@U@N@3+V@3+3+3@]@P@W@X@Y@i+j+S@Z@a@' .                                         ",
"                                    . .         . `@ #0 f ).)..#+#|+@###$#%#&#*#k+. $+.                                         ",
"                                                    =#0@-#;#>#,#'#)#!#~#{#]#^#n.o..                                             ",
"                                                    . a@1@/#R@&#(#_#_#(#&#R@/#1@a@.                                             ",
"                                                    @ :#5 <#[#}#|#2+1#&#2#/#3#a@' .                                             ",
"                                                    . $+. k+*#4#4#5#5#4#4#*#k+. $+.                                             ",
"                                                        . o.n.5#4#5#5#4#5#n.o..                                                 ",
"                                                        . a@1@6#R@4#4#R@6#1@a@.                                                 ",
"                                                        . ' a@3#6#4#4#6#3#a@' .                                                 ",
"                                                        . . . a@1@n.n.1@a@. . .                                                 ",
"                                                            . ' a@k+k+a@' .                                                     ",
"                                                            . . . . . . . .                                                     ",
"                                                                                                                                ",
"                                                                                                                                ",
"                                                                                                                                "};
