/* XPM */
static char * exit_open8_xpm[] = {
"64 64 390 2",
"  	c #87CEEB",
". 	c #8FDE5D",
"+ 	c #80D162",
"@ 	c #5CB56B",
"# 	c #3CA370",
"$ 	c #3AA270",
"% 	c #81D262",
"& 	c #73C666",
"* 	c #54B16D",
"= 	c #40A36F",
"- 	c #46A36E",
"; 	c #47A46E",
"> 	c #3BA370",
", 	c #69BF68",
"' 	c #55B16D",
") 	c #45A86F",
"! 	c #56A46B",
"~ 	c #56A56B",
"{ 	c #90DF5D",
"] 	c #3FA370",
"^ 	c #45A36F",
"/ 	c #50A26D",
"( 	c #599D6B",
"_ 	c #5BB56B",
": 	c #55A46B",
"< 	c #599C6B",
"[ 	c #508B6D",
"} 	c #75C766",
"| 	c #5CB26B",
"1 	c #50A16C",
"2 	c #589A68",
"3 	c #558C67",
"4 	c #46766A",
"5 	c #47786C",
"6 	c #568F6A",
"7 	c #49A46E",
"8 	c #69BF69",
"9 	c #5CB16B",
"0 	c #5CA96A",
"a 	c #589A67",
"b 	c #4E8264",
"c 	c #446C62",
"d 	c #3D6264",
"e 	c #3E6667",
"f 	c #46776B",
"g 	c #57A56B",
"h 	c #80D163",
"i 	c #47A06D",
"j 	c #549968",
"k 	c #558863",
"l 	c #43685E",
"m 	c #36505C",
"n 	c #364F5C",
"o 	c #375761",
"p 	c #3A6368",
"q 	c #47786B",
"r 	c #569C6B",
"s 	c #47A16E",
"t 	c #3E986D",
"u 	c #438066",
"v 	c #395257",
"w 	c #334454",
"x 	c #334453",
"y 	c #354B58",
"z 	c #478A6E",
"A 	c #409B6F",
"B 	c #90DE5D",
"C 	c #80D262",
"D 	c #3B946C",
"E 	c #376F65",
"F 	c #37515C",
"G 	c #344454",
"H 	c #323E4F",
"I 	c #344554",
"J 	c #395C65",
"K 	c #3C696C",
"L 	c #3D7F70",
"M 	c #3C9870",
"N 	c #334353",
"O 	c #323D4F",
"P 	c #344553",
"Q 	c #395C64",
"R 	c #3B686C",
"S 	c #3C7E70",
"T 	c #3C9770",
"U 	c #3CA470",
"V 	c #8CDB5E",
"W 	c #84D461",
"X 	c #46956B",
"Y 	c #3C7164",
"Z 	c #395A63",
"` 	c #3B6469",
" .	c #407C6C",
"..	c #47986D",
"+.	c #40A46F",
"@.	c #6CC168",
"#.	c #559667",
"$.	c #447163",
"%.	c #334354",
"&.	c #385761",
"*.	c #395B63",
"=.	c #457566",
"-.	c #569768",
";.	c #354C59",
">.	c #334252",
",.	c #36515D",
"'.	c #38555F",
").	c #456D62",
"!.	c #568C67",
"~.	c #43695E",
"{.	c #3A5358",
"].	c #323F50",
"^.	c #324050",
"/.	c #354957",
"(.	c #37525D",
"_.	c #3E6264",
":.	c #47776A",
"<.	c #409B70",
"[.	c #3C7F70",
"}.	c #377065",
"|.	c #3C7C6D",
"1.	c #3C976F",
"2.	c #3A7568",
"3.	c #3B956D",
"4.	c #3B936B",
"5.	c #366D62",
"6.	c #385560",
"7.	c #385660",
"8.	c #3E7164",
"9.	c #46956A",
"0.	c #40A470",
"a.	c #3A926A",
"b.	c #34675C",
"c.	c #323E50",
"d.	c #375560",
"e.	c #447262",
"f.	c #3A9169",
"g.	c #336459",
"h.	c #323C4F",
"i.	c #313D4F",
"j.	c #303A4F",
"k.	c #313F52",
"l.	c #334859",
"m.	c #344D5D",
"n.	c #36525F",
"o.	c #436B63",
"p.	c #548B67",
"q.	c #559B6B",
"r.	c #2F384F",
"s.	c #30394F",
"t.	c #3D5450",
"u.	c #4F7552",
"v.	c #568253",
"w.	c #568353",
"x.	c #568456",
"y.	c #57885C",
"z.	c #598E62",
"A.	c #5B9368",
"B.	c #54996D",
"C.	c #459F6F",
"D.	c #39A270",
"E.	c #4F7652",
"F.	c #71AE57",
"G.	c #7FC45A",
"H.	c #7FC55A",
"I.	c #7FC55B",
"J.	c #7FC55D",
"K.	c #80C75F",
"L.	c #80C861",
"M.	c #72BF66",
"N.	c #54AE6D",
"O.	c #85D561",
"P.	c #8BDB5E",
"Q.	c #5BB56C",
"R.	c #389069",
"S.	c #326359",
"T.	c #313A4F",
"U.	c #30374E",
"V.	c #568153",
"W.	c #68A055",
"X.	c #82CB5A",
"Y.	c #94E05E",
"Z.	c #9EE561",
"`.	c #A3E762",
" +	c #83D461",
".+	c #6BC068",
"++	c #6DC168",
"@+	c #83CB5A",
"#+	c #8BD85C",
"$+	c #9FE661",
"%+	c #B6F268",
"&+	c #C2F86C",
"*+	c #5CB66B",
"=+	c #53A567",
"-+	c #40805E",
";+	c #3F6C57",
">+	c #4F7B54",
",+	c #69A156",
"'+	c #95E15E",
")+	c #A4E863",
"!+	c #B0EE66",
"~+	c #C5F96D",
"{+	c #D0FF70",
"]+	c #93E05E",
"^+	c #8EDE5D",
"/+	c #7FD063",
"(+	c #72C264",
"_+	c #52A065",
":+	c #71B85E",
"<+	c #8CD95C",
"[+	c #C1F76B",
"}+	c #C1F76C",
"|+	c #CCFD6F",
"1+	c #B5F168",
"2+	c #54B06D",
"3+	c #72C666",
"4+	c #B6F168",
"5+	c #C1F86B",
"6+	c #CFFF70",
"7+	c #C4F96D",
"8+	c #45A76F",
"9+	c #5BB66C",
"0+	c #8FDF5D",
"a+	c #9FE561",
"b+	c #7FCD60",
"c+	c #7FC85C",
"d+	c #7FC75C",
"e+	c #3BA270",
"f+	c #46A86F",
"g+	c #5AA966",
"h+	c #58925A",
"i+	c #59A965",
"j+	c #58A865",
"k+	c #56925A",
"l+	c #82CA5A",
"m+	c #3CA070",
"n+	c #3C9B70",
"o+	c #46A96F",
"p+	c #3A956A",
"q+	c #367960",
"r+	c #377B60",
"s+	c #3A966B",
"t+	c #356759",
"u+	c #71AD57",
"v+	c #3C9A70",
"w+	c #3D8A70",
"x+	c #3B8870",
"y+	c #3B9A70",
"z+	c #3A9D6E",
"A+	c #37946B",
"B+	c #39956B",
"C+	c #379069",
"D+	c #336359",
"E+	c #3C5250",
"F+	c #4F7451",
"G+	c #A2E762",
"H+	c #3B9670",
"I+	c #3B786F",
"J+	c #3B8A6D",
"K+	c #55A76A",
"L+	c #73C465",
"M+	c #73C766",
"N+	c #55B26D",
"O+	c #3CA06F",
"P+	c #388263",
"Q+	c #345D56",
"R+	c #558253",
"S+	c #C1F86C",
"T+	c #3C6D6D",
"U+	c #3A6F68",
"V+	c #458766",
"W+	c #55A769",
"X+	c #3A976B",
"Y+	c #377A60",
"Z+	c #345D57",
"`+	c #334951",
" @	c #548153",
".@	c #57A96C",
"+@	c #50906D",
"@@	c #396A63",
"#@	c #3A8769",
"$@	c #3A9269",
"%@	c #303B50",
"&@	c #78C564",
"*@	c #68AB68",
"=@	c #385D61",
"-@	c #376863",
";@	c #376D62",
">@	c #35685C",
",@	c #356659",
"'@	c #356559",
")@	c #313F53",
"!@	c #7FC65D",
"~@	c #85D260",
"{@	c #6EB766",
"]@	c #447466",
"^@	c #324154",
"/@	c #588B5F",
"(@	c #7FC65E",
"_@	c #82D262",
":@	c #63B669",
"<@	c #3E7B6D",
"[@	c #395963",
"}@	c #344353",
"|@	c #323B4E",
"1@	c #A3E763",
"2@	c #7CCE64",
"3@	c #56B26C",
"4@	c #B8F269",
"5@	c #48A96F",
"6@	c #598B5F",
"7@	c #A1E662",
"8@	c #3B9770",
"9@	c #303F54",
"0@	c #354E5C",
"a@	c #638F61",
"b@	c #90CE62",
"c@	c #2F4054",
"d@	c #739863",
"e@	c #AADC69",
"f@	c #3E6767",
"g@	c #385861",
"h@	c #354C58",
"i@	c #3C5B57",
"j@	c #527E5C",
"k@	c #87B464",
"l@	c #BAE96C",
"m@	c #334352",
"n@	c #324053",
"o@	c #4F7C5C",
"p@	c #72B15D",
"q@	c #9AD763",
"r@	c #BFF36C",
"s@	c #84D160",
"t@	c #6DB766",
"u@	c #56996B",
"v@	c #467E6F",
"w@	c #82D261",
"x@	c #47996E",
"y@	c #3F7E70",
"z@	c #598C5F",
"A@	c #80C75E",
"B@	c #3F9A70",
"C@	c #46896F",
"D@	c #3F6767",
"E@	c #385760",
"F@	c #375561",
"G@	c #598D63",
"H@	c #7FC65F",
"I@	c #7FD162",
"J@	c #559C6B",
"K@	c #365561",
"L@	c #5BA96A",
"M@	c #55996B",
"N@	c #477F6E",
"O@	c #3C696D",
"P@	c #395F68",
"Q@	c #375A65",
"R@	c #385A65",
"S@	c #426D67",
"T@	c #548A6A",
"U@	c #6CAD68",
"V@	c #83CE61",
"W@	c #75C765",
"X@	c #407E70",
"Y@	c #3D6D6F",
"Z@	c #3B676C",
"`@	c #73B665",
" #	c #84CE61",
".#	c #8CD95E",
"+#	c #84D561",
"@#	c #54A56D",
"##	c #44836F",
"$#	c #45796F",
"%#	c #548C6D",
"&#	c #5B956C",
"*#	c #5C966B",
"=#	c #6BAC68",
"-#	c #95E15F",
";#	c #8CDC5E",
">#	c #72BD66",
",#	c #54906D",
"'#	c #558D6D",
")#	c #72B666",
"!#	c #80C863",
"~#	c #80C962",
"{#	c #ACEC65",
"]#	c #BAF369",
"^#	c #84CF61",
"/#	c #B5F068",
"                                                                                                                                ",
"                                                            . + @ # $ # # #                                                     ",
"                                                            % & * = - ; = >                                                     ",
"                                                        . % , ' ) ; ! ~ ; # > #                                                 ",
"                                                        { + @ ] ^ / ( ( / ; ] >                                                 ",
"                                                        . + _ - : < [ [ < ~ ; #                                                 ",
"                                                        % } | 1 2 3 4 5 6 ( / 7                                                 ",
"                                                    . % 8 9 0 a b c d e f [ ( g 7 #                                             ",
"                                                    . h @ i j k l m n o p q 6 r s #                                             ",
"                                                    . h _ t u l v w x y o e 5 z A #                                             ",
"                                                    B C @ D E F G H H I F J K L M >                                             ",
"                                    . . . .     . { . h _ D E n N O O P m Q R S T # U #                                         ",
"                                    . . . .     . V W } 9 X Y F w H H I F Z `  ...; +.#                                         ",
"                                    . . . .     . W @.9 0 #.$.F %.H H I F &.*.=.-.~ ; #                                         ",
"                                    . . . .     . h @ i j k l ;.>.H H N ;.,.'.).!.r s #                                         ",
"                                                . h _ t u ~.{.N ].H H ^.N /.(._.:.z <.#                                         ",
"                                                . h @ D E F G H H H H H H I F J K L M #                                         ",
"                                                . h @ D E n N H H H H H H P m J R [.T #                                         ",
"                                                . h @ D }.F G H H H H H H I F Z ` |.1.>                                         ",
"                                            . { . h _ D E F G H H H H H H I F &.*.2.3.# U #                                     ",
"                                            . { . h _ 4.5.;.>.H H H H H H I F 6.7.8.9.; 0.>                                     ",
"                                            . { . h _ a.b.N c.H H H H H H I F d.7.e.#.~ ; $     { .                             ",
"                                            . { . h _ f.g.H h.H H H H i.j.k.l.m.n.o.p.q.s $     { .                             ",
"                                            . { . h _ f.g.H h.H H H H H H ^.N /.(._.:.z <.>                                     ",
"                                            { { . h _ f.g.H h.i.j.r.s.t.u.v.w.x.y.z.A.B.C.$                                     ",
"                                    # D.    { { . h _ f.g.H h.H H j.H E.F.G.H.I.J.K.L.M.N.#                                     ",
"                                    # $     + O.P.h Q.R.S.T.U.t.u.V.w.W.X.Y.Z.`.`.Z.Y. +.+_                                     ",
"                                            _ ++W h @ f.g.j.h.E.F.G.H.@+#+$+%+&+&+%+$+V  ++                                     ",
"                                            # *++ O.++=+-+;+>+,+@+'+$+`.)+!+~+{+{+~+!+Z.]+^+                                    ",
"                                            $ Q./+V O.(+=+_+:+@+<+$+%+[+}+~+|+{+{+|+~+1+Z.{                                     ",
"                                            # 2+3+O.V + @ _ + . { $+4+5+&+[+[+~+|+{+6+7+!+`.                                    ",
"                                            # 8+2+++O.h *+9+h 0+{ '+a+)+)+`.`.!+~+6+{+|+~+[+                                    ",
"                                            # > # ' & 3+2+2+3+b+c+d+b+b+c+@+#+Z.4+~+|+6+6+6+                                    ",
"                                            # > e+) 2+2+f+f+2+g+h+h+i+j+k+W.l+]+Z.!+~+6+{+{+                                    ",
"                                            # m+n+n+m+o+' ' f+p+q+r+s+R.t+u.u+X.#+`.[+6+{+6+                                    ",
"                                            # v+w+x+y+2+& & 2+z+A+B+z+C+D+E+F+W.@+G+[+6+{+6+                                    ",
"                                            $ H+S I+J+K+L+M+N+U > O+s+P+Q+s.h.R+G.`.S+6+{+6+                                    ",
"                                            # T L T+U+V+W+' o+U # X+Y+Z+`+r.j. @G.`.S+6+{+6+                                    ",
"                                            _ .@+@4 d @@#@4.a.$@f.P+Z+H h.%@N x.I.`.S+6+{+{+                                    ",
"                                            + &@*@!.o.=@-@;@>@,@'@Q+`+h.O )@;.y.!@`.5+6+{+6+                                    ",
"                                            . ~@{@-.]@*.&.F I H H H H H H ^@F /@(@`.&+|+~+[+                                    ",
"                                            { _@:@..<@` [@n }@h.|@h.O H H ^@F /@(@1@5+7+!+`.                                    ",
"                                            . 2@3@M S K Q F I H H H H H H ^@F /@(@Z.%+4@G+.                                     ",
"                                                5@M [.K J F I H H H H H H ^@F 6@(@'+$+7@                                        ",
"                                                $ 8@S R Q m P H H H H H H 9@0@a@b@Z.'+.                                         ",
"                                                > M L K Q F I H H H H H H c@F d@e@1+$+^+                                        ",
"                                                _ .@+@q f@g@h@N ^.H H ].N i@j@k@l@[+)+.                                         ",
"                                                + &@*@6 f p o ;.m@H H n@;.o@p@q@r@[+)+.                                         ",
"                                                . s@t@u@v@R Q m P O O ^@m /@(@a+%+1+a+.                                         ",
"                                                { w@:@x@y@K J F I H H ^@F z@A@'+$+Z.'+.                                         ",
"                                                . + _ B@C@q D@E@y P P l.F@G@H@. { . . .                                         ",
"                                                . I@@ s J@6 q p o m m K@p A.L.. 0+^+. .                                         ",
"                                                . % 8 9 L@M@N@O@P@Q@R@S@T@U@V@^+. . . .                                         ",
"                                                    % W@9 x@X@Y@O@Z@K T@`@ #.#. . .                                             ",
"                                                    . +#@.@###$#%#&#*#=#V@Y.$+Z.-#.                                             ",
"                                                    { ;#+#>#,#'#)#!#~#V@.#$+4+1+a+.                                             ",
"                                                    . { .  #U@U@ #. 0+Y.a+{#]#4@G+.                                             ",
"                                                        B .#^#^#.#0+{ $+4+]#{#G+                                                ",
"                                                        . . . . . ^+. Z.1+/#Z..                                                 ",
"                                                            { 0+. . . -#a+Z.Y.^+                                                ",
"                                                            . . . . . . . . . .                                                 ",
"                                                                                                                                ",
"                                                                                                                                ",
"                                                                                                                                "};
