/* XPM */
static char * exit_open4_xpm[] = {
"64 64 448 2",
"  	c None",
". 	c #3CA370",
"+ 	c #3AA270",
"@ 	c #5BB56B",
"# 	c #80D162",
"$ 	c #8FDE5D",
"% 	c #90DF5D",
"& 	c #43A76F",
"* 	c #53B06D",
"= 	c #6AC068",
"- 	c #83D461",
"; 	c #8EDE5D",
"> 	c #54B06D",
", 	c #72C666",
"' 	c #84D461",
") 	c #8CDB5E",
"! 	c #3BA370",
"~ 	c #44A76F",
"{ 	c #73C469",
"] 	c #95DC65",
"^ 	c #A3E762",
"/ 	c #A3E862",
"( 	c #9EE561",
"_ 	c #94E05E",
": 	c #B4EE69",
"< 	c #C1F76B",
"[ 	c #C2F76B",
"} 	c #C1F76C",
"| 	c #B6F168",
"1 	c #48A36E",
"2 	c #60B46A",
"3 	c #80D062",
"4 	c #A2E762",
"5 	c #CFFF70",
"6 	c #D0FF70",
"7 	c #C5F96D",
"8 	c #B0EE66",
"9 	c #93E05E",
"0 	c #57A56B",
"a 	c #6CB666",
"b 	c #85D160",
"c 	c #C2F86B",
"d 	c #CCFD6F",
"e 	c #B5F168",
"f 	c #4EA86D",
"g 	c #67B268",
"h 	c #81C564",
"i 	c #98DC63",
"j 	c #A1E662",
"k 	c #56B06C",
"l 	c #78C664",
"m 	c #B4EE68",
"n 	c #B8F269",
"o 	c #59B46B",
"p 	c #7FD063",
"q 	c #C5FA6D",
"r 	c #5AB56B",
"s 	c #B1EE66",
"t 	c #A3E763",
"u 	c #3EA270",
"v 	c #46A36E",
"w 	c #81D062",
"x 	c #8FDF5D",
"y 	c #9FE661",
"z 	c #BAF369",
"A 	c #ACEC65",
"B 	c #45A36E",
"C 	c #56A56B",
"D 	c #84D160",
"E 	c #8BD85C",
"F 	c #83CC5B",
"G 	c #7FC45B",
"H 	c #7FC55D",
"I 	c #83CC5D",
"J 	c #8CD95D",
"K 	c #A4E862",
"L 	c #C2F86C",
"M 	c #83CB5A",
"N 	c #69A156",
"O 	c #578456",
"P 	c #58885C",
"Q 	c #69A55E",
"R 	c #83CC5E",
"S 	c #82CB5A",
"T 	c #71AE57",
"U 	c #4F7552",
"V 	c #324254",
"W 	c #354E5C",
"X 	c #518061",
"Y 	c #72B462",
"Z 	c #95D665",
"` 	c #B3ED69",
" .	c #BDF56A",
"..	c #C1F86C",
"+.	c #68A155",
"@.	c #3C5250",
"#.	c #314054",
"$.	c #344C5C",
"%.	c #416863",
"&.	c #548969",
"*.	c #74B069",
"=.	c #9FE561",
"-.	c #97E25F",
";.	c #49A46E",
">.	c #61B569",
",.	c #81D162",
"'.	c #B6F268",
").	c #7FC55A",
"!.	c #568353",
"~.	c #323E4F",
"{.	c #30394F",
"].	c #344554",
"^.	c #37515C",
"/.	c #375963",
"(.	c #3B6469",
"_.	c #5B9368",
":.	c #80C861",
"<.	c #95E15E",
"[.	c #7FC45A",
"}.	c #568153",
"|.	c #303A4F",
"1.	c #2F384F",
"2.	c #365461",
"3.	c #385A64",
"4.	c #588C63",
"5.	c #7FC65F",
"6.	c #46A06E",
"7.	c #569C6B",
"8.	c #6CAF66",
"9.	c #84CF60",
"0.	c #A4E863",
"a.	c #365360",
"b.	c #385660",
"c.	c #588B5F",
"d.	c #7FC65E",
"e.	c #C1F86B",
"f.	c #3F9A70",
"g.	c #478A6E",
"h.	c #619F69",
"i.	c #82CB62",
"j.	c #68A055",
"k.	c #4F7652",
"l.	c #3D5450",
"m.	c #313D4F",
"n.	c #588A5F",
"o.	c #3B9670",
"p.	c #3D7F70",
"q.	c #5A966B",
"r.	c #80C862",
"s.	c #568253",
"t.	c #334353",
"u.	c #354C59",
"v.	c #354F5D",
"w.	c #38555F",
"x.	c #80C75E",
"y.	c #3A9670",
"z.	c #3C7F70",
"A.	c #5B966B",
"B.	c #324050",
"C.	c #334657",
"D.	c #37525D",
"E.	c #5C966B",
"F.	c #578353",
"G.	c #334454",
"H.	c #36505C",
"I.	c #426A63",
"J.	c #74B169",
"K.	c #95E15F",
"L.	c #9BDF60",
"M.	c #8ACE5C",
"N.	c #4E7552",
"O.	c #385B65",
"P.	c #3C696C",
"Q.	c #5C976B",
"R.	c #80C963",
"S.	c #ADE066",
"T.	c #7FAC5A",
"U.	c #3B5350",
"V.	c #375A65",
"W.	c #3B676C",
"X.	c #7FC862",
"Y.	c #5A956B",
"Z.	c #B6E169",
"`.	c #799559",
" +	c #323D4F",
".+	c #2C354E",
"++	c #323C4F",
"@+	c #323C4E",
"#+	c #A4E963",
"$+	c #B7E169",
"%+	c #789459",
"&+	c #2C364F",
"*+	c #334B52",
"=+	c #2F5956",
"-+	c #346559",
";+	c #336559",
">+	c #345C56",
",+	c #334951",
"'+	c #B6E168",
")+	c #345D57",
"!+	c #337F62",
"~+	c #3A9169",
"{+	c #3A9269",
"]+	c #388263",
"^+	c #364F5C",
"/+	c #399970",
"(+	c #3C8970",
"_+	c #5B9F6B",
":+	c #80CB62",
"<+	c #9FE761",
"[+	c #AAD965",
"}+	c #708F58",
"|+	c #336359",
"1+	c #358F69",
"2+	c #46A96F",
"3+	c #54B16D",
"4+	c #3A976B",
"5+	c #367960",
"6+	c #36615B",
"7+	c #37585E",
"8+	c #385A65",
"9+	c #3C686C",
"0+	c #3A9F70",
"a+	c #3C9B70",
"b+	c #5BAD6B",
"c+	c #80CF62",
"d+	c #90CC5D",
"e+	c #618855",
"f+	c #379069",
"g+	c #55B26D",
"h+	c #73C767",
"i+	c #3B9F6E",
"j+	c #39966B",
"k+	c #398566",
"l+	c #386962",
"m+	c #46A86F",
"n+	c #54AD6C",
"o+	c #72BD63",
"p+	c #84CE5E",
"q+	c #84CC5A",
"r+	c #6AA256",
"s+	c #4F8559",
"t+	c #408B63",
"u+	c #5BAA66",
"v+	c #80CE60",
"w+	c #5BAB66",
"x+	c #3A966B",
"y+	c #3A9E6E",
"z+	c #3B986D",
"A+	c #3A8068",
"B+	c #386E68",
"C+	c #3C6E6D",
"D+	c #80C863",
"E+	c #73C666",
"F+	c #55B16D",
"G+	c #449D6C",
"H+	c #529164",
"I+	c #6BA65F",
"J+	c #83CC5A",
"K+	c #70B059",
"L+	c #508659",
"M+	c #59945A",
"N+	c #7FC75C",
"O+	c #7FC85C",
"P+	c #377A60",
"Q+	c #38956B",
"R+	c #3CA06F",
"S+	c #3B996D",
"T+	c #3A8A6D",
"U+	c #3C796F",
"V+	c #80D163",
"W+	c #5CB56B",
"X+	c #3A926C",
"Y+	c #376F65",
"Z+	c #527E5E",
"`+	c #71AF5B",
" @	c #84CC5B",
".@	c #8CD95C",
"+@	c #6AA356",
"@@	c #659A55",
"#@	c #76B558",
"$@	c #71AD57",
"%@	c #507752",
"&@	c #378F69",
"*@	c #80D262",
"=@	c #3A936C",
"-@	c #366E65",
";@	c #3F605D",
">@	c #507856",
",@	c #76B658",
"'@	c #639755",
")@	c #4F7451",
"!@	c #356459",
"~@	c #399069",
"{@	c #3CA470",
"]@	c #3B9770",
"^@	c #3A986D",
"/@	c #387F68",
"(@	c #366660",
"_@	c #355258",
":@	c #507855",
"<@	c #71AE58",
"[@	c #313A4F",
"}@	c #406D57",
"|@	c #53A065",
"1@	c #3C7E70",
"2@	c #5D976B",
"3@	c #80C962",
"4@	c #3A976D",
"5@	c #398568",
"6@	c #366560",
"7@	c #405F5A",
"8@	c #507755",
"9@	c #588453",
"0@	c #588553",
"a@	c #3D5550",
"b@	c #2F364F",
"c@	c #313B4F",
"d@	c #517D54",
"e@	c #72B95E",
"f@	c #6CC168",
"g@	c #45A76F",
"h@	c #3B946C",
"i@	c #397064",
"j@	c #334253",
"k@	c #323B4E",
"l@	c #314651",
"m@	c #345D56",
"n@	c #59935A",
"o@	c #5CB66B",
"p@	c #3B9A70",
"q@	c #3B8870",
"r@	c #559A6D",
"s@	c #73BF66",
"t@	c #73C766",
"u@	c #387065",
"v@	c #324054",
"w@	c #325B57",
"x@	c #3CA070",
"y@	c #46A06F",
"z@	c #54AE6D",
"A@	c #5BB46C",
"B@	c #367E68",
"C@	c #366D62",
"D@	c #34665C",
"E@	c #336459",
"F@	c #337760",
"G@	c #39956B",
"H@	c #90DE5D",
"I@	c #3C9F6F",
"J@	c #3B936B",
"K@	c #3A926A",
"L@	c #3AA370",
"M@	c #85D561",
"N@	c #6DC268",
"O@	c #5BB56C",
"P@	c #68BE69",
"Q@	c #78CA65",
"R@	c #73C466",
"S@	c #55A96D",
"T@	c #399F70",
"U@	c #8BDB5E",
"V@	c #66BD69",
"W@	c #54A96D",
"X@	c #468F6F",
"Y@	c #3D8A70",
"Z@	c #3C9A70",
"`@	c #84D561",
" #	c #80D263",
".#	c #40916F",
"+#	c #46866E",
"@#	c #50906D",
"##	c #57A96C",
"$#	c #6DC168",
"%#	c #45856F",
"&#	c #56926B",
"*#	c #68AB68",
"=#	c #78C464",
"-#	c #3BA270",
";#	c #72C364",
">#	c #53A567",
",#	c #39926B",
"'#	c #3B8A6D",
")#	c #467E6F",
"!#	c #56996B",
"~#	c #6EB766",
"{#	c #85D260",
"]#	c #40805E",
"^#	c #34675C",
"/#	c #366B62",
"(#	c #396E68",
"_#	c #3F7E70",
":#	c #47986E",
"<#	c #63B669",
"[#	c #82D261",
"}#	c #40A36F",
"|#	c #47A46E",
"1#	c #47A16E",
"2#	c #409B6F",
"3#	c #3C976F",
"4#	c #3B946D",
"5#	c #354B58",
"6#	c #3F6767",
"7#	c #47786B",
"8#	c #46896E",
"9#	c #56B16C",
"0#	c #7BCD64",
"a#	c #46A46E",
"b#	c #55A46B",
"c#	c #559C6B",
"d#	c #3A7A6D",
"e#	c #387368",
"f#	c #376862",
"g#	c #37595E",
"h#	c #375560",
"i#	c #3A6168",
"j#	c #47776B",
"k#	c #568F6A",
"l#	c #48A96F",
"m#	c #477F6E",
"n#	c #3C696D",
"o#	c #395D64",
"p#	c #5DAA6A",
"q#	c #5CB26B",
"r#	c #40A46F",
"s#	c #417E6F",
"t#	c #3D6C6F",
"u#	c #3C686D",
"v#	c #3D6D6F",
"w#	c #407E70",
"x#	c #47996E",
"y#	c #75C765",
"z#	c #477B6E",
"A#	c #41726F",
"B#	c #3C6D70",
"C#	c #56906B",
"D#	c #487B6E",
"E#	c #3D6E70",
"F#	c #599D6B",
"G#	c #508B6D",
"H#	c #4B7F6E",
"I#	c #50A26D",
"J#	c #5E9A69",
"K#	c #589C6B",
"L#	c #75C666",
"M#	c #5DA569",
"N#	c #56B26C",
"O#	c #4AA46E",
"                                                                                                                                ",
"                                                            . + . @ # $ % $ $ $                                                 ",
"                                                            + & * = - ; $ ; $ $                                                 ",
"                                                        . + . > , ' ) $ $ $ $ $                                                 ",
"                                                        ! ~ > { ] ^ / ^ ^ ( _ ;                                                 ",
"                                                        . * , ] : < [ } < | ( $ ; $                                             ",
"                                                        1 2 3 4 < 5 6 5 5 7 8 ( 9 ;                                             ",
"                                                    . 1 0 a b / c 6 6 6 6 d 7 e ( $                                             ",
"                                                    . f g h i 8 7 5 6 6 6 6 6 7 8 j                                             ",
"                                5 5 5 5             . k l i m 7 d 5 5 5 5 5 5 d 7 n j $                                         ",
"                                5 5 5 5             ! o p ^ < 5 6 d 7 < < < < q d < ^ ;                                         ",
"                                                . + . r # / c 6 6 7 8 ^ 4 4 ^ s 7 < t $                                         ",
"                                                . u v 2 w ^ < d 7 | ( $ $ x % y | z A ^                                         ",
"                                                . B C a D t < 7 8 ( 9 ; ; ; ; 9 ( A z <                                         ",
"                                                . f g h i 8 7 < t x $ E F G H I J K L 6                                         ",
"                                    . .         . k l i m 7 d < ^ $ ; M N O P Q R ^ L 6                                         ",
"                                    . .         ! o p ^ < 6 6 } ^ E S T U V W X Y Z `  .                                        ",
"                                                . r # / c 6 6 ..^ F +.U @.#.$.%.&.*.Z =.-.$                                     ",
"                                                ;.>.,.^ < d 7 '.( ).!.~.{.].^./.(._.:.<.y ^                                     ",
"                                            . 1 0 a D t < 7 8 y _ [.}.|.1.].^.2.3.4.5.( | <                                     ",
"                                            . 6.7.8.9.0.c } 0.E S T U ~.|.].^.a.b.c.d.t e.5                                     ",
"                                            . f.g.h.i.0.e.< ^ M j.k.l.~.m.].^.a.b.n.d.0.L 6                                     ",
"                                            . o.p.q.r.=.'.'.=.[.s.~.{.~.~.t.u.v.w.c.x.K L 6                                     ",
"                                            . y.z.A.r.<.y y <.[.}.|.1.~.~.B.t.C.D.c.d.t e.5                                     ",
"                                            . o.p.E.r.$ x x x ).F.~.{.~.~.~.~.V ^.X Y Z ` <                                     ",
"                                            . o.p.E.r.$ x x $ [.F.~.{.~.~.~.~.G.H.I.&.J.Z ^                                     ",
"                                            . o.p.A.r.K.y L.M.T N.~.|.~.~.~.~.].^.O.P.Q.R.$                                     ",
"                                            . o.p.q.r.y '.S.T.k.U.~.m.~.~.~.~.].^.V.W.A.X.;                                     ",
"                                            . o.p.Y.r.0.e.Z.`. +.+++++++++@+ +].^.O.P.Q.R.$                                     ",
"                                            . o.p.Y.r.#+c $+%+|.&+~.~.~.~.~.~.].^.O.P.Q.R.$                                     ",
"                                            . o.p.Y.r.#+c $+`.*+=+-+;+;+-+>+,+t.H.O.P.Q.R.$                                     ",
"                                            . o.p.Y.r.0.e.'+`.)+!+~+{+{+~+]+)+].^+O.P.Q.R.$                                     ",
"                                            + /+(+_+:+<+'.[+}+|+1+2+3+3+2+4+5+6+7+8+9+Q.R.$                                     ",
"                                            . 0+a+b+c+K.=.d+e+;+f+g+h+h+g+i+j+k+l+O.9+Q.R.$                                     ",
"                                            @ > m+n+o+p+J q+r+s+t+u+v+v+w+x+y+z+A+B+C+Q.D+$                                     ",
"                                            # E+F+G+H+I+I E J+K+L+M+N+O+M+P+Q+R+S+T+U+Q.r.$                                     ",
"                                            $ V+W+X+Y+Z+`+ @.@ @+@@@#@$@%@-+&@! . o.p.Q.r.$                                     ",
"                                            % *@W+=@-@;@>@r+q+.@q+,@'@)@l.!@~@{@{@]@p.Q.r.$                                     ",
"                                            $ V+@ ^@/@(@_@:@<@).).T k.[@{.}@|@3+2+o.1@2@3@%                                     ",
"                                            $ # W+R+4@5@6@7@8@9@0@%@a@b@c@d@e@E+g+o.1@Q.r.$                                     ",
"                                            $ ' f@3+g@h@i@^+j@++k@k@++l@m@n@O+# o@p@q@r@s@p                                     ",
"                                            $ ) ' t@3+h@u@H.v@{.{.{.m.w@]+w+v+# o@x@p@y@z@@                                     ",
"                                            $ % $ V+A@4@B@C@D@E@E@|+E@F@G@W+V+# o@. + . . .                                     ",
"                                                H@# W+I@4@J@K@~+~+~+~+G@i+o@V+# W+. L@!                                         ",
"                                                % M@N@W+O@@ @ @ @ @ W+W+o@P@Q@R@S@p@T@+                                         ",
"                                                $ U@' # V+V+V+V+V+V+V+V+# Q@V@W@X@Y@Z@.                                         ",
"                                                # # # ' ) % % % % ) `@ #V+R@W@.#+#@###@                                         ",
"                                                @ O@W+$#M@% % % % M@$#o@@ S@X@%#&#*#=##                                         ",
"                                                . -#. > E+# # *@V+;#>#{+,#'#U+)#!#~#{#$                                         ",
"                                                + + + g@> @ @ O@@ >#]#^#/#(#C+_#:#<#[#%                                         ",
"                                                . . . }#|#1#2#3#4#k+6+5#b.6#7#8#f.9#0#$                                         ",
"                                                    . a#b#c#8#d#e#f#g#h#i#j#k#7.1#l#                                            ",
"                                                    . |#C !#m#n#i#o#o#i#n#m#!#p#q#W+                                            ",
"                                                    . r#|#:#s#t#u#9+9+n#v#w#x#q#y##         . . . .                             ",
"                                                    . . . 2#g.z#A#B#B#A#z#8#f.9#0#$         . . . .                             ",
"                                                . .     ! 1#7.C#D#E#E#D#C#7.1#l#            . . . .                             ",
"                                                . .     . |#C F#G#H#H#G#F#p#q#W+            . . . .                             ",
"                                                        . }#|#I#F#J#J#K#I#q#L##                                                 ",
"                                                        . ! . a#C M#M#b#a#N#0#$                                                 ",
"                                                            ! }#|#O#O#a#}#l#                                                    ",
"                                                            . . . . . . . .                                                     ",
"                                                                                                                                ",
"                                                                                                                                ",
"                                                                                                                                "};
