/* XPM */
static char * exit_close_xpm[] = {
"64 64 143 2",
"  	c #87CEEB",
". 	c #4BAB6E",
"+ 	c #3C8D70",
"@ 	c #3C9970",
"# 	c #3CA370",
"$ 	c #57B36C",
"% 	c #42876F",
"& 	c #3D6D70",
"* 	c #3D7370",
"= 	c #3C9C70",
"- 	c #68AC69",
"; 	c #3B6A6E",
"> 	c #37535E",
", 	c #3A5F66",
"' 	c #3D7070",
") 	c #3CA270",
"! 	c #B9F369",
"~ 	c #D0FF70",
"{ 	c #7BCD64",
"] 	c #398A71",
"^ 	c #395A63",
"/ 	c #323E4F",
"( 	c #354A57",
"_ 	c #39686E",
": 	c #38A070",
"< 	c #83D461",
"[ 	c #354D59",
"} 	c #33404F",
"| 	c #334251",
"1 	c #7ABE5F",
"2 	c #84D461",
"3 	c #3EA370",
"4 	c #3A7F69",
"5 	c #334353",
"6 	c #5F9054",
"7 	c #8EDD5D",
"8 	c #9BE360",
"9 	c #9EE561",
"0 	c #55B16D",
"a 	c #3C9A6F",
"b 	c #365260",
"c 	c #669D57",
"d 	c #96E15F",
"e 	c #B3EF67",
"f 	c #CBFD6F",
"g 	c #3C766D",
"h 	c #334657",
"i 	c #87CD5B",
"j 	c #C6FA6D",
"k 	c #CEFF70",
"l 	c #CEFE70",
"m 	c #CFFF70",
"n 	c #3B6A6D",
"o 	c #6BA95E",
"p 	c #C4F96C",
"q 	c #BCF56A",
"r 	c #90DF5D",
"s 	c #92E05E",
"t 	c #CAFC6E",
"u 	c #6CAB5E",
"v 	c #C5F96D",
"w 	c #8BD75C",
"x 	c #6CA656",
"y 	c #6EA956",
"z 	c #8DDE5C",
"A 	c #3FA370",
"B 	c #3B6B6D",
"C 	c #6EAB5E",
"D 	c #9AE260",
"E 	c #4D7152",
"F 	c #303E50",
"G 	c #323F4F",
"H 	c #60975F",
"I 	c #B3F167",
"J 	c #8DDC5E",
"K 	c #3D986D",
"L 	c #6FAB5E",
"M 	c #3D6656",
"N 	c #4AAB6F",
"O 	c #366E5C",
"P 	c #52805F",
"Q 	c #91E05D",
"R 	c #68BA67",
"S 	c #56935F",
"T 	c #8AD55B",
"U 	c #77B858",
"V 	c #72C667",
"W 	c #3BA370",
"X 	c #528160",
"Y 	c #A3E962",
"Z 	c #84D561",
"` 	c #3A9C6D",
" .	c #50AB6C",
"..	c #507953",
"+.	c #489062",
"@.	c #518160",
"#.	c #B4F167",
"$.	c #58B36C",
"%.	c #8AD95F",
"&.	c #63BA6A",
"*.	c #50AD6D",
"=.	c #68BE69",
"-.	c #4FA469",
";.	c #528362",
">.	c #3A9E70",
",.	c #59AA6C",
"'.	c #71C667",
").	c #69C069",
"!.	c #36916A",
"~.	c #36575A",
"{.	c #76BA65",
"].	c #3C9A70",
"^.	c #3B6B6A",
"/.	c #345F59",
"(.	c #335C57",
"_.	c #334E52",
":.	c #3A585D",
"<.	c #90DE5D",
"[.	c #51A86D",
"}.	c #3C7370",
"|.	c #323F50",
"1.	c #3E6B6B",
"2.	c #9DE361",
"3.	c #7DCF63",
"4.	c #3B646A",
"5.	c #354B58",
"6.	c #385860",
"7.	c #3D6D6F",
"8.	c #96E05F",
"9.	c #98DA6A",
"0.	c #68BB69",
"a.	c #3C7870",
"b.	c #3C6A6D",
"c.	c #3A696F",
"d.	c #7BC164",
"e.	c #8FDE5D",
"f.	c #4DAC6E",
"g.	c #3C6D70",
"h.	c #487B6F",
"i.	c #86D160",
"j.	c #74C766",
"k.	c #70B367",
"l.	c #82CB62",
"                                                                                                                                ",
"                                                                                                                                ",
"                                                                                                                                ",
"                                                                                                                                ",
"                                                                                                                                ",
"                                                                                                                                ",
"                                                                                                                                ",
"                                                                                                                                ",
"                                                                                                                                ",
"                                                                                                                                ",
"                                                                                                                                ",
"                                                                                                                                ",
"                                                                                                                                ",
"                                                                                                                                ",
"                                                                                                                                ",
"                                                                                                                                ",
"                                                                                                                                ",
"                                                                                                                                ",
"                                                                                                                                ",
"                                                                                                                                ",
"                                                              . + @ #                                                           ",
"                                                            $ % & * =                                                           ",
"                                                            - ; > , ' )                                                         ",
"                                                    ! ~   { ] ^ / ( _ :                                                         ",
"                                                          < ] [ } | 1 2 2                                                       ",
"                                                          3 4 5 6 7 8 9 9                                                       ",
"                                                        0 a b c d e f ~ ~                                                       ",
"                                                        ) g h i j k l m m                                                       ",
"                                                        ) n o p q r s p t                                                       ",
"                                                        ) n u v w x y z e                                                       ",
"                                                        A B C D E F G H I                                                       ",
"                                                        J K L 7 M N O P Q                                                       ",
"                                                        7 R S T U V W X Y                                                       ",
"                                                        7 Z `  ...+.) @.#.                                                      ",
"                                                        $.< %.&.*.=.-.;.Q                                                       ",
"                                                          >.,.'.).!.~.{.r                                                       ",
"                                                          ].^./.(._.:.7 <.                                                      ",
"                                                          [.}.[ / |.1.2.~                                                       ",
"                                                          3.] 4.5.6.7.8.9.                                                      ",
"                                                            0.a.b.c.d.e.f.                                                      ",
"                                                            $ % g.h.i.                                                          ",
"                                                              j.k.l.r                                                           ",
"                                                                                                                                ",
"                                                                                                                                ",
"                                                                                                                                ",
"                                                                                                                                ",
"                                                                                                                                ",
"                                                                                                                                ",
"                                                                                                                                ",
"                                                                                                                                ",
"                                                                                                                                ",
"                                                                                                                                ",
"                                                                                                                                ",
"                                                                                                                                ",
"                                                                                                                                ",
"                                                                                                                                ",
"                                                                                                                                ",
"                                                                                                                                ",
"                                                                                                                                ",
"                                                                                                                                ",
"                                                                                                                                ",
"                                                                                                                                ",
"                                                                                                                                ",
"                                                                                                                                "};
