/* XPM */
static char * exit_open3_xpm[] = {
"64 64 420 2",
"  	c None",
". 	c #3CA370",
"+ 	c #49AA6E",
"@ 	c #3CA070",
"# 	c #3C9B70",
"$ 	c #3C9770",
"% 	c #8FDE5D",
"& 	c #7CCE64",
"* 	c #56B26C",
"= 	c #3B8970",
"- 	c #3D7F70",
"; 	c #3D8A70",
"> 	c #80D162",
", 	c #73C466",
"' 	c #55A96D",
") 	c #3C8E70",
"! 	c #3C7A70",
"~ 	c #3D6E70",
"{ 	c #3D7A70",
"] 	c #3CA170",
"^ 	c #5CB56B",
"/ 	c #47906F",
"( 	c #3D7170",
"_ 	c #3D6D70",
": 	c #3D7270",
"< 	c #49A06E",
"[ 	c #3C7B70",
"} 	c #3D6D6F",
"| 	c #3C6A6D",
"1 	c #3C696C",
"2 	c #3D7B70",
"3 	c #3C9870",
"4 	c #7CC664",
"5 	c #56996C",
"6 	c #3B7170",
"7 	c #3C696D",
"8 	c #3A6168",
"9 	c #395D64",
"0 	c #3D8770",
"a 	c #3C9970",
"b 	c #73BD66",
"c 	c #55916D",
"d 	c #3B686D",
"e 	c #3A6368",
"f 	c #385760",
"g 	c #36505C",
"h 	c #A3E763",
"i 	c #C1F76B",
"j 	c #CFFF70",
"k 	c #55A76D",
"l 	c #47866F",
"m 	c #3A6068",
"n 	c #354C58",
"o 	c #344553",
"p 	c #B0EE66",
"q 	c #C5F96D",
"r 	c #48A96F",
"s 	c #3C7F70",
"t 	c #395C65",
"u 	c #37515C",
"v 	c #344554",
"w 	c #323E4F",
"x 	c #3B676C",
"y 	c #3B7D70",
"z 	c #3B9770",
"A 	c #3AA270",
"B 	c #CBFD6F",
"C 	c #56B16C",
"D 	c #3B7E70",
"E 	c #395C64",
"F 	c #323D4F",
"G 	c #3CA470",
"H 	c #90DF5D",
"I 	c #3B686B",
"J 	c #385962",
"K 	c #354C59",
"L 	c #334352",
"M 	c #313D4F",
"N 	c #303A4F",
"O 	c #303D52",
"P 	c #334859",
"Q 	c #416660",
"R 	c #548868",
"S 	c #5B9F6B",
"T 	c #5CAE6C",
"U 	c #5BB56B",
"V 	c #3B656A",
"W 	c #36515C",
"X 	c #334353",
"Y 	c #323F50",
"Z 	c #313C50",
"` 	c #507A58",
" .	c #72B25F",
"..	c #80CB62",
"+.	c #80CF63",
"@.	c #7FD062",
"#.	c #7FD063",
"$.	c #73C766",
"%.	c #55B16D",
"&.	c #3C976F",
"*.	c #3B7B6D",
"=.	c #396066",
"-.	c #354B58",
";.	c #313B4F",
">.	c #3D5450",
",.	c #4F7552",
"'.	c #568153",
").	c #578353",
"!.	c #69A156",
"~.	c #83CB5A",
"{.	c #8EDE5D",
"].	c #54B16D",
"^.	c #46A86F",
"/.	c #3B956D",
"(.	c #3A7468",
"_.	c #38565F",
":.	c #344655",
"<.	c #4F7652",
"[.	c #71AE57",
"}.	c #7FC45A",
"|.	c #7FC55A",
"1.	c #8BD85C",
"2.	c #3BA370",
"3.	c #3B8A6C",
"4.	c #396C65",
"5.	c #364F5C",
"6.	c #324154",
"7.	c #3C5250",
"8.	c #94E05E",
"9.	c #9EE561",
"0.	c #A3E762",
"a.	c #39A170",
"b.	c #3B9A70",
"c.	c #3C8970",
"d.	c #3C766C",
"e.	c #396264",
"f.	c #354E5C",
"g.	c #344454",
"h.	c #83CC5B",
"i.	c #8CD95C",
"j.	c #8FDF5D",
"k.	c #9EE661",
"l.	c #B6F168",
"m.	c #C1F76C",
"n.	c #89D95F",
"o.	c #3AA370",
"p.	c #3C7C6D",
"q.	c #3A6268",
"r.	c #385660",
"s.	c #405F5A",
"t.	c #507855",
"u.	c #A2E762",
"v.	c #4CAB6E",
"w.	c #375560",
"x.	c #71AE58",
"y.	c #CCFD6F",
"z.	c #D0FF70",
"A.	c #396C64",
"B.	c #344C5C",
"C.	c #324153",
"D.	c #558153",
"E.	c #7EC359",
"F.	c #93E05E",
"G.	c #344D5C",
"H.	c #344453",
"I.	c #568353",
"J.	c #7FC559",
"K.	c #B6F268",
"L.	c #3B686C",
"M.	c #40625D",
"N.	c #507956",
"O.	c #70A457",
"P.	c #94D35F",
"Q.	c #C6FA6D",
"R.	c #3B666C",
"S.	c #507E5E",
"T.	c #71B05B",
"U.	c #B3EC67",
"V.	c #CCFE6F",
"W.	c #3A666C",
"X.	c #588B5F",
"Y.	c #7FC65E",
"Z.	c #C1F86B",
"`.	c #80C75E",
" +	c #A4E863",
".+	c #C2F86C",
"++	c #B1EE66",
"@+	c #82CB5A",
"#+	c #83CC5A",
"$+	c #68A055",
"%+	c #8DDD5D",
"&+	c #3C7E70",
"*+	c #3A656C",
"=+	c #9FE561",
"-+	c #71AD57",
";+	c #4E7451",
">+	c #323C4F",
",+	c #30384E",
"'+	c #30394F",
")+	c #4F7653",
"!+	c #71AF5A",
"~+	c #83CC5D",
"{+	c #8CD95D",
"]+	c #598B5F",
"^+	c #95E15F",
"/+	c #9FE661",
"(+	c #71A557",
"_+	c #3B5150",
":+	c #2F384F",
"<+	c #2F374F",
"[+	c #3D5654",
"}+	c #517C5B",
"|+	c #69A65E",
"1+	c #84CD5E",
"2+	c #54A96D",
"3+	c #46906F",
"4+	c #3A746C",
"5+	c #396265",
"6+	c #324A52",
"7+	c #315957",
"8+	c #336559",
"9+	c #346559",
"0+	c #345C56",
"a+	c #334951",
"b+	c #324054",
"c+	c #39886C",
"d+	c #386B65",
"e+	c #335B56",
"f+	c #357F63",
"g+	c #3A9269",
"h+	c #388263",
"i+	c #345D57",
"j+	c #314054",
"k+	c #354D5C",
"l+	c #588A5F",
"m+	c #95E15E",
"n+	c #80D163",
"o+	c #38916C",
"p+	c #376E65",
"q+	c #5A8B5F",
"r+	c #80C65E",
"s+	c #90E05D",
"t+	c #3F6C57",
"u+	c #519F65",
"v+	c #46A96F",
"w+	c #3A966B",
"x+	c #367960",
"y+	c #345F5B",
"z+	c #37595E",
"A+	c #80D262",
"B+	c #5CB66B",
"C+	c #39936C",
"D+	c #377065",
"E+	c #517D54",
"F+	c #71B85E",
"G+	c #73C767",
"H+	c #55B26D",
"I+	c #3B9F6E",
"J+	c #39966B",
"K+	c #378366",
"L+	c #386962",
"M+	c #84D561",
"N+	c #6CC168",
"O+	c #53A66A",
"P+	c #438666",
"Q+	c #528C62",
"R+	c #71B25C",
"S+	c #84CC5A",
"T+	c #8CD85C",
"U+	c #6AA356",
"V+	c #6BA356",
"W+	c #5CB66C",
"X+	c #39926C",
"Y+	c #397164",
"Z+	c #8CDB5E",
"`+	c #84D461",
" @	c #72C365",
".@	c #54A66A",
"+@	c #428E66",
"@@	c #50875A",
"#@	c #69A256",
"$@	c #8BD75C",
"%@	c #84CC5B",
"&@	c #397165",
"*@	c #5AB46C",
"=@	c #37946B",
"-@	c #337760",
";@	c #508C5C",
">@	c #72BC60",
",@	c #7FCD60",
"'@	c #80C85C",
")@	c #7FC459",
"!@	c #7FC359",
"~@	c #53AC6B",
"{@	c #5BB56C",
"]@	c #3A9E6E",
"^@	c #439B6A",
"/@	c #54AC6B",
"(@	c #5AAA66",
"_@	c #59945A",
":@	c #588453",
"<@	c #518C5C",
"[@	c #449B69",
"}@	c #8BDB5E",
"|@	c #85D561",
"1@	c #6DC168",
"2@	c #45A76F",
"3@	c #38956B",
"4@	c #347860",
"5@	c #336359",
"6@	c #346459",
"7@	c #42815E",
"8@	c #54A567",
"9@	c #47A96F",
"0@	c #7FC55E",
"a@	c #73C667",
"b@	c #54B06D",
"c@	c #368E69",
"d@	c #388F68",
"e@	c #53A467",
"f@	c #72C264",
"g@	c #387065",
"h@	c #67BD69",
"i@	c #77CA65",
"j@	c #73C666",
"k@	c #73C364",
"l@	c #378468",
"m@	c #376B66",
"n@	c #598D63",
"o@	c #7FC65F",
"p@	c #77C965",
"q@	c #66BD69",
"r@	c #35645F",
"s@	c #396667",
"t@	c #5B9368",
"u@	c #80C861",
"v@	c #7CCD64",
"w@	c #3B9F70",
"x@	c #80D263",
"y@	c #3CA06F",
"z@	c #35605A",
"A@	c #40615B",
"B@	c #538666",
"C@	c #6CAD68",
"D@	c #84CF61",
"E@	c #3A9970",
"F@	c #3A8870",
"G@	c #458F6F",
"H@	c #54A86D",
"I@	c #357860",
"J@	c #325D5A",
"K@	c #35545B",
"L@	c #517E5E",
"M@	c #72B361",
"N@	c #84CE61",
"O@	c #8CD95F",
"P@	c #3C796F",
"Q@	c #3B8B6D",
"R@	c #3B936B",
"S@	c #3A9169",
"T@	c #3C6E6D",
"U@	c #396E68",
"V@	c #366D62",
"W@	c #34675C",
"X@	c #336459",
"Y@	c #5A8C5F",
"Z@	c #344755",
"`@	c #324455",
" #	c #5A8E63",
".#	c #7FC75F",
"+#	c #96E15F",
"@#	c #3C686D",
"##	c #395E65",
"$#	c #354A57",
"%#	c #323B4E",
"&#	c #323C4E",
"*#	c #334958",
"=#	c #5A9368",
"-#	c #80C862",
";#	c #BDF56A",
">#	c #36525C",
",#	c #344F5C",
"'#	c #5A956B",
")#	c #80C963",
"!#	c #C2F86B",
"~#	c #3D8E70",
"{#	c #375762",
"]#	c #5A966B",
"^#	c #385F68",
"/#	c #3B696D",
"(#	c #80C863",
"_#	c #BAF16C",
":#	c #385860",
"<#	c #3A686D",
"[#	c #5B966B",
"}#	c #80C962",
"|#	c #94DB65",
"1#	c #6CBD6C",
"2#	c #45796F",
"3#	c #558D6D",
"4#	c #7BCD64",
"5#	c #55B16C",
"6#	c #73B666",
"7#	c #8CD95E",
"8#	c #3B6B70",
"9#	c #3C6D70",
"0#	c #5B956C",
"a#	c #3B6C70",
"b#	c #5C976B",
"c#	c #468F6F",
"d#	c #3B7970",
"e#	c #3B7070",
"f#	c #44776F",
"g#	c #6DAD68",
"h#	c #81D262",
"i#	c #69BF68",
"j#	c #5CAE6B",
"k#	c #5C9F6B",
"l#	c #5C966B",
"m#	c #80CF62",
"                                                                                                                                ",
"                                                            . . . . . . . .                                                     ",
"                                                            + @ # $ $ # @ .                                                     ",
"                                                        % & * # = - - ; # . . .                                                 ",
"                                                        > , ' ) ! ~ ~ { ) # ] .                                                 ",
"                                                        ^ ' / { ( _ _ : { ; # .                                                 ",
"                                                        < ) [ } | 1 1 | } 2 ) 3                                                 ",
"                                                    % 4 5 ! 6 7 8 9 9 8 7 : { 0 a .                                             ",
"                                                    > b c } d e f g g f e 7 } - $ .                                             ",
"                                % h i j             ^ k l | m f n o o n f 8 | - 3 .                                             ",
"                                h p q j             r 3 s 1 t u v w w v u t x y z A                                             ",
"                                i q B j         % & C z D 1 E g o F F o g E 1 - 3 . G .                                         ",
"                                j j j j         H > ^ 3 D I J K L M N O P Q R S T U U U                                         ",
"                                                % > ^ 3 y V W X Y w w Z X `  ...+.> @.#.                                        ",
"                                                > $.%.&.*.=.-.;.N >.,.'.).!.~.{.% {.{.{.                                        ",
"                                                U ].^./.(._.:.N F <.[.}.|.~.1.H H H H H                                         ",
"                                                2.] # 3.4.5.6.7.,.!.~.{.% 8.9.0.0.0.0.0.                                        ",
"                                        % H     a.b.c.d.e.f.g.,.[.h.i.j.H k.l.i m.i i i                                         ",
"                                        % n.    o.&.p.q.r.s.t.!.~.8.9.u.0.p q j j j j j                                         ",
"                                            v.G . /.(.w.-.t.x.~.i.k.l.i m.q y.z.z.z.z.j j j                                     ",
"                                            . ] # 3.A.B.C.D.E.F.k.p q z.z.z.z.j j j j j j j                                     ",
"                                            2.# ; d.e.G.H.I.J.9.K.q y.z.z.j j j j j j j j j                                     ",
"                                            . 3 - L.E M.N.O.P.p Q.y.q i i i i q y.z.z.j j j                                     ",
"                                            . $ - R.E S.T.P.U.q V.q p 0.u.u.0.p q j j j j j                                     ",
"                                            . 3 - W.E X.Y.0.Z.y.q l.9.H j.j.H k.l.i m.q B j                                     ",
"                                            . 3 - W.E X.`. +.+q ++9.F.{.{.{.{.8.9.u.0.p q j                                     ",
"                                            . 3 - W.E X.Y. +.+.+ +1.@+}.}.}.}.#+1.% % h i j                                     ",
"                                            . 3 - W.E X.Y. +Z.i 0.~.$+).'.'.).!.~.%+% 0.i j                                     ",
"                                            A z &+*+E X.Y.=+K.U.P.-+;+>+,+'+F )+!+~+{+ +m.z.                                    ",
"                                            . 3 - W.E ]+Y.^+/+P.(+,._+'+:+<+'+[+}+|+1+h Z.j                                     ",
"                                            U 2+3+4+5+]+Y.H H }.).6+7+8+9+0+a+b+g X.Y.9.K.i                                     ",
"                                            > , ' c+d+]+Y.j.j.E.'.e+f+g+g+h+i+j+k+l+Y.m+/+0.                                    ",
"                                            % n+U o+p+q+r+s+H E.'.t+u+].v+w+x+y+z+]+Y.% j.{.                                    ",
"                                            H A+B+C+D+]+Y.H H E.).E+F+G+H+I+J+K+L+]+Y.% j.{.                                    ",
"                                            % M+N+O+P+Q+R+S+T+~.U+V+h.> W+G A X+Y+]+Y.m+/+0.                                    ",
"                                            % Z+`+ @.@+@@@#@~.$@%@S+1.> ^ G o.C+&@X.Y.9.K.i                                     ",
"                                            H H % n+*@=@-@;@>@,@'@)@!@>@~@2.A X+Y+X.Y. +.+z.                                    ",
"                                            % H % > {@]@=@^@/@(@_@:@).<@[@G . X+Y+X.Y. +.+z.                                    ",
"                                            #.`+}@|@1@B+{@].2@3@4@5@6@7@8@H+9@C+Y+X.0@9.K.i                                     ",
"                                            U N+`+}@M+> n+a@b@]@=@c@d@e@f@$.%.X+g@]+Y.m+/+0.                                    ",
"                                            ^ h@i@> > |@Z+|@1@B+U b@^.%.j@k@8@l@m@n@o@% H %                                     ",
"                                            #.p@q@{@U 1@|@Z+|@> n+a@].9@].8@7@r@s@t@u@% j.{.                                    ",
"                                            % v@* w@b.2+, n+x@x@n+G+].y@J+h+z@A@B@C@D@% j.%                                     ",
"                                                9@E@F@G@H@U B+B+B+%.^.w+I@J@K@L@M@N@O@% % %                                     ",
"                                                . $ - P@Q@R@g+S@S@g+S@h+i+6.5.]+Y.% j.{.% %                                     ",
"                                                2.$ - T@U@V@W@X@X@8+9+0+a+b+g Y@`.j.H % % %                                     ",
"                                                A z &+| 8 _.Z@w F w w F w `@_. #.#m+/+=++#%                                     ",
"                                                . $ - } @###$#>+%#>+>+&#F *#=.=#-#9.K.;#                                        ",
"                                                ^ ' / 2 : V >#L Y w w Y L ,#V '#)# +!#z.                                        ",
"                                                > , ' ~#! I J K L w w L K {#I ]#)# +!#z.                                        ",
"                                                % & C z y | 8 f n o o n f ^#/#'#(#=+l._#                                        ",
"                                                    + 3 s } 7 e :#g g :#e <#} [#}#m+/+|#1#.                                     ",
"                                                    ^ ' / 2 : | q.9 9 8 | 2#3#C@D@H H 4#5#.                                     ",
"                                                    > , ' ) ! } | 1 1 /#} 3#6#D@7#j.    ^..                                     ",
"                                                    % & C z y _ _ ~ ~ 8#9#0#-#% H H     A .                                     ",
"                                                        + 3 s ~ _ ~ ~ a#~ b#}#H                                                 ",
"                                                        ^ ' c#d#e#8#a#f#3#g#D@%                                                 ",
"                                                        > , ' ) ! 9#_ 3#6#D@7#%                                                 ",
"                                                        % h#i#j#k#l#b#g#D@% H %                                                 ",
"                                                            h#m#..-#-#D@7#H                                                     ",
"                                                            % % % % % % % %                                                     ",
"                                                                                                                                ",
"                                                                                                                                ",
"                                                                                                                                "};
