/* XPM */
static char * exit_open1_xpm[] = {
"64 64 7 1",
" 	c None",
".	c #3CA370",
"+	c #8FDE5D",
"@	c #3D6E70",
"#	c #385660",
"$	c #CFFF70",
"%	c #323E4F",
"                                                                ",
"                                                                ",
"                                                                ",
"                                                                ",
"                                                                ",
"                                                                ",
"                                                                ",
"                                                                ",
"                                                                ",
"                                                                ",
"                                                                ",
"                                                                ",
"                                                                ",
"                                                                ",
"                                                                ",
"                                                                ",
"                               ....                             ",
"                              +.@@..                            ",
"                              .@@@@.                            ",
"                             +@@##@@.                           ",
"                        +$   .@#%%#@.                           ",
"                        $$  +.@#%%#@..                          ",
"                            +.@%%%%+++                          ",
"                            ..#%%+++++                          ",
"                          + .@#%+++$$$                          ",
"                           ..#%++$$$$$$                         ",
"                           .@#%+$$$$$$$                         ",
"                           .@#+$$+++$$$                         ",
"                           .@#+$++++++$                         ",
"                           .@#+$+%%%++$                         ",
"                           .@#++%%%%#+$                         ",
"                           +.#++%..%#++                         ",
"                           +.#++%+..#++                         ",
"                           ++.%+++..#+$                         ",
"                           ++...%%..#+$                         ",
"                           .+++...+.#++                         ",
"                           +..+++..%@++                         ",
"                            .@....%#+++                         ",
"                            .@#%%%%#+++                         ",
"                            .@@%%%%@+$                          ",
"                            +.@#%%#@+$                          ",
"                             .@@##@@++.                         ",
"                             +.@@@@++ .                         ",
"                              .@@@@+                            ",
"                              +.@@++                            ",
"                               ++++                             ",
"                                                                ",
"                                                                ",
"                                                                ",
"                                                                ",
"                                                                ",
"                                                                ",
"                                                                ",
"                                                                ",
"                                                                ",
"                                                                ",
"                                                                ",
"                                                                ",
"                                                                ",
"                                                                ",
"                                                                ",
"                                                                ",
"                                                                ",
"                                                                "};
