/* XPM */
static char * exit_open5_xpm[] = {
"64 64 367 2",
"  	c #87CEEB",
". 	c #8FDE5D",
"+ 	c #A4E863",
"@ 	c #C1F76B",
"# 	c #8EDE5D",
"$ 	c #ACEC65",
"% 	c #BAF369",
"& 	c #B6F168",
"* 	c #9FE661",
"= 	c #8CD95E",
"- 	c #83CE61",
"; 	c #80CB62",
"> 	c #80CF62",
", 	c #81D262",
"' 	c #94E05E",
") 	c #84CE61",
"! 	c #6CAD68",
"~ 	c #5C9F6B",
"{ 	c #5BAD6B",
"] 	c #69BF68",
"^ 	c #BDF56A",
"/ 	c #8CDA5E",
"( 	c #73B666",
"_ 	c #558D6D",
": 	c #3C7A70",
"< 	c #3B8D70",
"[ 	c #55A96D",
"} 	c #73C466",
"| 	c #80D162",
"1 	c #96E15F",
"2 	c #6BAC68",
"3 	c #45776F",
"4 	c #3B7070",
"5 	c #3B7970",
"6 	c #468F6F",
"7 	c #5CB56B",
"8 	c #A3E762",
"9 	c #9EE561",
"0 	c #95E15E",
"a 	c #73B665",
"b 	c #548968",
"c 	c #3B666A",
"d 	c #3A646A",
"e 	c #3C686C",
"f 	c #3D6C6F",
"g 	c #3C7B70",
"h 	c #3C8E70",
"i 	c #49A06E",
"j 	c #CFFF70",
"k 	c #548868",
"l 	c #416862",
"m 	c #36535E",
"n 	c #395C63",
"o 	c #3B7170",
"p 	c #56996C",
"q 	c #7CC664",
"r 	c #CAFC6E",
"s 	c #C1F86B",
"t 	c #A3E763",
"u 	c #80C861",
"v 	c #599267",
"w 	c #395F65",
"x 	c #344D5B",
"y 	c #344755",
"z 	c #36505B",
"A 	c #3A666C",
"B 	c #55916D",
"C 	c #73BD66",
"D 	c #A8EA64",
"E 	c #C4F96C",
"F 	c #C2F86C",
"G 	c #7FC65E",
"H 	c #57895E",
"I 	c #354E5B",
"J 	c #314255",
"K 	c #334151",
"L 	c #344654",
"M 	c #385B63",
"N 	c #47866F",
"O 	c #55A76D",
"P 	c #B1EE66",
"Q 	c #C5F96D",
"R 	c #A4E862",
"S 	c #80C65B",
"T 	c #578658",
"U 	c #313D51",
"V 	c #323E4F",
"W 	c #37545E",
"X 	c #3C7F70",
"Y 	c #3C9870",
"Z 	c #48AA6F",
"` 	c #CBFD6F",
" .	c #C1F86C",
"..	c #7FC55B",
"+.	c #568658",
"@.	c #3B7E70",
"#.	c #3B9770",
"$.	c #56B16C",
"%.	c #7CCE64",
"&.	c #CCFD6F",
"*.	c #B3ED69",
"=.	c #94D665",
"-.	c #72B25F",
";.	c #4F7A59",
">.	c #344553",
",.	c #313D50",
"'.	c #334050",
").	c #3A746C",
"!.	c #3C8D6F",
"~.	c #5CAE6B",
"{.	c #90DF5D",
"].	c #D0FF70",
"^.	c #C6FA6D",
"/.	c #B0EE66",
"(.	c #95D665",
"_.	c #73B069",
":.	c #538665",
"<.	c #3F5F59",
"[.	c #323D4F",
"}.	c #323F4F",
"|.	c #344655",
"1.	c #36515B",
"2.	c #376063",
"3.	c #3B766C",
"4.	c #5CA06B",
"5.	c #80CB63",
"6.	c #CAFC6F",
"7.	c #395E64",
"8.	c #334857",
"9.	c #C4F86C",
"0.	c #7EC55D",
"a.	c #56895E",
"b.	c #314053",
"c.	c #37535E",
"d.	c #47856F",
"e.	c #55A66D",
"f.	c #5BB56B",
"g.	c #C0F76B",
"h.	c #7FC55C",
"i.	c #3D7F70",
"j.	c #3BA370",
"k.	c #3AA270",
"l.	c #C4F96D",
"m.	c #568557",
"n.	c #303C51",
"o.	c #364F5B",
"p.	c #3B7A6C",
"q.	c #3C976F",
"r.	c #7FC45A",
"s.	c #568354",
"t.	c #303A4F",
"u.	c #377063",
"v.	c #3B946C",
"w.	c #56B26C",
"x.	c #558253",
"y.	c #30394F",
"z.	c #334051",
"A.	c #35645F",
"B.	c #3A896A",
"C.	c #35595E",
"D.	c #3B746A",
"E.	c #323C4F",
"F.	c #323C4E",
"G.	c #333F50",
"H.	c #344555",
"I.	c #36525E",
"J.	c #3B656A",
"K.	c #323B4E",
"L.	c #334951",
"M.	c #345D56",
"N.	c #346559",
"O.	c #336559",
"P.	c #33655A",
"Q.	c #35685D",
"R.	c #376E63",
"S.	c #3A796C",
"T.	c #3B8970",
"U.	c #3C9A70",
"V.	c #3CA370",
"W.	c #345D57",
"X.	c #388263",
"Y.	c #3A9169",
"Z.	c #3A9269",
"`.	c #3A926A",
" +	c #3C966F",
".+	c #3BA070",
"++	c #548153",
"@+	c #2F364E",
"#+	c #346459",
"$+	c #347860",
"%+	c #38956B",
"&+	c #45A76F",
"*+	c #54B16D",
"=+	c #54B06D",
"-+	c #39966B",
";+	c #3B9F6E",
">+	c #73C767",
",+	c #80D163",
"'+	c #80D263",
")+	c #80D262",
"!+	c #72C666",
"~+	c #83CB5A",
"{+	c #68A055",
"]+	c #507B54",
"^+	c #3F6C57",
"/+	c #367960",
"(+	c #3A966B",
"_+	c #46A86F",
":+	c #55B16D",
"<+	c #5CB66B",
"[+	c #6DC168",
"}+	c #85D561",
"|+	c #84D461",
"1+	c #6CC168",
"2+	c #5AB46B",
"3+	c #8BD85C",
"4+	c #82CB5A",
"5+	c #72B85E",
"6+	c #52A065",
"7+	c #3A9F6E",
"8+	c #8CDB5E",
"9+	c #95DC65",
"0+	c #B2EE69",
"a+	c #9FE561",
"b+	c #3AA370",
"c+	c #7FD063",
"d+	c #73C369",
"e+	c #94DB65",
"f+	c #5AB56C",
"g+	c #A0E661",
"h+	c #BEF56A",
"i+	c #5AB56B",
"j+	c #C2F86B",
"k+	c #7FD062",
"l+	c #58B46B",
"m+	c #3A9D6E",
"n+	c #38946B",
"o+	c #459B69",
"p+	c #54AC6B",
"q+	c #459C69",
"r+	c #73C666",
"s+	c #7ED062",
"t+	c #39956B",
"u+	c #357860",
"v+	c #528D5C",
"w+	c #71BB60",
"x+	c #518C5C",
"y+	c #37946B",
"z+	c #44A76F",
"A+	c #53AD6D",
"B+	c #72BF66",
"C+	c #B4ED69",
"D+	c #BBF469",
"E+	c #ADEC65",
"F+	c #73C469",
"G+	c #52A367",
"H+	c #3F7F5F",
"I+	c #59935A",
"J+	c #7FC85C",
"K+	c #7FC559",
"L+	c #588553",
"M+	c #368063",
"N+	c #449F6F",
"O+	c #549A6D",
"P+	c #BAF469",
"Q+	c #B3EE69",
"R+	c #72C264",
"S+	c #52A467",
"T+	c #5BAB66",
"U+	c #7FCD60",
"V+	c #7FC459",
"W+	c #588452",
"X+	c #334851",
"Y+	c #325A56",
"Z+	c #5AB46C",
"`+	c #538B6B",
" @	c #72B361",
".@	c #95D460",
"+@	c #B3EC67",
"@@	c #B6F268",
"#@	c #84D561",
"$@	c #67BB67",
"%@	c #76C05F",
"&@	c #71AE57",
"*@	c #507652",
"=@	c #336459",
"-@	c #3C7E70",
";@	c #42726B",
">@	c #507F5F",
",@	c #72A75B",
"'@	c #94D460",
")@	c #96E25E",
"!@	c #8CDC5F",
"~@	c #77C15F",
"{@	c #639C57",
"]@	c #4F7652",
"^@	c #3D5550",
"/@	c #313B4F",
"(@	c #336359",
"_@	c #517A57",
":@	c #71AE59",
"<@	c #7FC55A",
"[@	c #3A656A",
"}@	c #3E5B56",
"|@	c #4E7653",
"1@	c #568253",
"2@	c #578353",
"3@	c #588353",
"4@	c #3C9B70",
"5@	c #3D8A70",
"6@	c #396163",
"7@	c #33655B",
"8@	c #3CA070",
"9@	c #3B756C",
"0@	c #354D5B",
"a@	c #324153",
"b@	c #303B50",
"c@	c #313D4F",
"d@	c #333E50",
"e@	c #3CA470",
"f@	c #333F51",
"g@	c #35695F",
"h@	c #35685E",
"i@	c #39916A",
"j@	c #3C9770",
"k@	c #395B63",
"l@	c #334453",
"m@	c #334B53",
"n@	c #36615B",
"o@	c #428362",
"p@	c #54A668",
"q@	c #3C676C",
"r@	c #344B57",
"s@	c #335C57",
"t@	c #388364",
"u@	c #53A568",
"v@	c #73C365",
"w@	c #3D7B70",
"x@	c #3D7270",
"y@	c #3B6569",
"z@	c #364F5A",
"A@	c #3D8E70",
"B@	c #37535D",
"C@	c #324050",
"D@	c #3A936A",
"E@	c #5BB56C",
"F@	c #3D7E70",
"G@	c #344554",
"H@	c #366E64",
"I@	c #3A936C",
"J@	c #5BB46C",
"K@	c #386063",
"L@	c #458F6F",
"M@	c #3A756C",
"N@	c #54A96D",
"O@	c #3C7970",
"P@	c #3B7D70",
"Q@	c #398770",
"R@	c #3B9A70",
"S@	c #90DE5D",
"T@	c #47906F",
"U@	c #6DC268",
"V@	c #3B9F70",
"W@	c #8BDB5E",
"X@	c #83D361",
"Y@	c #8ADA5F",
"Z@	c #62B96A",
"                                                                                                                                ",
"                                                        . + @ @ + . # . . .                                                     ",
"                                                        + $ % & * = - ; > ,                                                     ",
"                                                        @ % $ * ' ) ! ~ { ] , .                                                 ",
"                                                        ^ & * / - ( _ : < [ } |                                                 ",
"                                                    . 1 * * ' - 2 _ 3 4 5 6 [ 7                                                 ",
"                                                    8 9 0 = ) a b c d e f g h i                                                 ",
"                                    j j             @ & 9 - 2 k l m m n e o : p q .                                             ",
"                                    j j             r s t u v w x y y z w A f B C |                                             ",
"                                                . D E F + G H I J K K L z M e N O 7                                             ",
"                                                8 P Q F R S T y U V V K y W c X Y Z                                             ",
"                                                @ Q `  .8 ..+.y U V V K y W c @.#.$.%..                                         ",
"                                                j &.Q *.=.-.;.>.,.V V '.>.z w ).!.~.> {.                                        ",
"                                                ].^./.(._.:.<.K [.V V }.K |.1.2.3.4.5..                                         ",
"                                                6.s t u v 7.8.V [.V V V V K y m c B C |                                         ",
"                                            . D 9.s 8 0.a.I b.V V V V V V K y c.c d.e.f.                                        ",
"                                            # 8 g.s + h.T y U V V V V V V K y W c i.Y j.                                        ",
"                                            . t g. .+ ..+.y U V V V V V V K y W c X #.k.                                        ",
"                                            8 /.l. .t ..m.>.n.V V V V V V '.>.o.w p.q.Z                                         ",
"                                            @ Q `  .8 r.s.K t.V V V V V V }.K |.1.u.v.w.%..                                     ",
"                                            j ].j  .8 r.x.V y.V V V V V V V V z.y A.B.~.> {.                                    ",
"                                            ].].j  .8 r.x.V y.V V V V V V V V z.y C.D.4.5..                                     ",
"                                            j ].j  .8 r.x.V y.V V V V [.E.F.E.G.H.I.J.B C |                                     ",
"                                            j ].j  .8 r.x.V y.V V V V V V V V K y c.c d.e.f.                                    ",
"                                            ].].j  .8 r.x.V y.[.E.K.E.L.M.N.O.P.Q.R.S.T.U.V.                                    ",
"                                            j ].j  .8 r.x.V y.V V E.V W.X.Y.Z.Y.`.v. +U..+k.                                    ",
"                                            @ Q `  .8 r.++y.@+L.M.#+O.$+%+&+*+f.f.f.f.=+&+k.                                    ",
"                                            8 /.l. .t r.x.E.y.W.X.Y.Z.-+;+*+>+,+'+)+| !+*+V.                                    ",
"                                            {.R @ F 8 ~+{+]+^+/+(+_+:+f.<+[+}+. {.. . |+1+2+                                    ",
"                                            # 8 g.@ + 3+4+5+6+-+7+*+>+,+| |+8+{.{.{.{.8+|+|                                     ",
"                                            | 9+0+% $ a+' | f.j.b+*+!+c+,+,+| |+8+. . . . 1                                     ",
"                                            f.d+e+$ % & * '+f+V.k._+:+<+<+f.f.1+|+. . . . g+h+j                                 ",
"                                            V.i+| R j+j+8 k+l+m+n+o+p+p+q+-+;+*+r+|+8+# . * ^ j                                 ",
"                                            k.l+s+8 j+j++ ,+2+t+u+v+w+w+x+$+y+z+*+1+|+. . 1                                     ",
"                                            V.A+B+(.C+D+E+9+F+G+H+I+J+K+L+M.M+t+;+f.| . {..                                     ",
"                                            V.N+O+_.(.$ P+Q+9+R+S+T+U+V+W+X+Y+$+-+Z+,+. {..                                     ",
"                                            V.#.i.`+ @.@+@@@* #@1+$@%@&@*@E.t.=@Y.f.,+. {..                                     ",
"                                            V.#.-@;@>@,@'@a+)@!@#@~@{@]@^@K./@(@Y.f.,+. {..                                     ",
"                                            V.Y i.d W _@:@r.<@<@r.&@]@V t.E.V =@Y.f.,+. {..                                     ",
"                                            V.Y i.[@I.}@|@1@2@3@3@*@^@t./@E.V =@Y.f.,+. {..                                     ",
"                                            V.4@5@3.6@1.|.K }.V V V V V V [.K 7@Y.f.,+. {..                                     ",
"                                            V.8@4@!.9@w 0@a@b@y.y.t.c@V V d@>.Q.`.f.,+. {..                                     ",
"                                            V.e@V.Y i.c W y K V V V V V V f@y g@`.f.,+. {..                                     ",
"                                                V.Y i.c W y K V V V V V V f@y g@`.7 ,+.                                         ",
"                                                V.Y i.c W y K V V V V V V f@|.h@i@f.,+.                                         ",
"                                                V.Y i.c W y K V V V V V V f@y g@`.7 ,+.                                         ",
"                                                V.j@i.e k@z l@V V V V [.V m@n@o@p@1+#@.                                         ",
"                                                V.j@i.f q@7.r@V [.V V E.V s@t@u@v@|+8+.                                         ",
"                                                V.4@5@w@x@y@z@'.V V V E.'.P.Y.f.,+. {..                                         ",
"                                                V.8@4@A@w@c B@>.C@V V d@>.Q.D@E@'+. {..                                         ",
"                                                V.e@V.j@F@e k@z L K K G@z H@I@J@,+. {..                                         ",
"                                                    V.Y i.f q@w z y y o.w S. +7 | .                                             ",
"                                                    V.4@5@w@x@e n W W K@9@L@[ 1+#@.                                             ",
"                                        V.V.V.V.    V.8@4@h w@f e c c M@!.N@} |+8+.             . . . .                         ",
"                                        V.V.V.V.    V.e@V.j@F@x@O@P@@.Q@R@J@| . {..             . . . .                         ",
"                                        V.V.V.V.        V.j@i.w@A@Y Y R@8@<+| S@                    . .                         ",
"                                        V.V.V.V.        V.U.5@T@[ 7 <+f.7 U@|+.                     . .                         ",
"                                                        V.V@4@N@} | )+| | |+W@.                                                 ",
"                                                        V.k.V.=+!+c+| c+c+X@Y@.                                                 ",
"                                                            V._+:+7 <+7 7 Z@                                                    ",
"                                                            V.V.V.V.V.V.V.V.                                                    ",
"                                                                                                                                ",
"                                                                                                                                ",
"                                                                                                                                "};
