/* XPM */
static char * exit_open2_xpm[] = {
"64 64 468 2",
"  	c None",
". 	c #3CA470",
"+ 	c #3CA570",
"@ 	c #52B06D",
"# 	c #3DA270",
"$ 	c #3C9C70",
"% 	c #3C9A70",
"& 	c #3CA270",
"* 	c #3CA370",
"= 	c #8CDB5E",
"- 	c #6BC068",
"; 	c #3E9D70",
"> 	c #3C8370",
", 	c #3D7970",
"' 	c #3D8370",
") 	c #6FC367",
"! 	c #5CAD6B",
"~ 	c #3E8870",
"{ 	c #3D7370",
"] 	c #3D6B70",
"^ 	c #3D8770",
"/ 	c #3C9970",
"( 	c #459F6F",
"_ 	c #3D7070",
": 	c #3C6B6E",
"< 	c #3C6A6D",
"[ 	c #3D6F70",
"} 	c #3D8870",
"| 	c #80CB62",
"1 	c #51906D",
"2 	c #3A7170",
"3 	c #3A5F66",
"4 	c #395A62",
"5 	c #3D7470",
"6 	c #3D8270",
"7 	c #3C9B70",
"8 	c #B1EF67",
"9 	c #71C667",
"0 	c #69B769",
"a 	c #4B846E",
"b 	c #3A656D",
"c 	c #36505B",
"d 	c #354957",
"e 	c #3C676D",
"f 	c #3D7A70",
"g 	c #A0E662",
"h 	c #B9F369",
"i 	c #CEFE70",
"j 	c #53B16D",
"k 	c #3F9C70",
"l 	c #3D7B70",
"m 	c #3B6269",
"n 	c #37535E",
"o 	c #334453",
"p 	c #323D4F",
"q 	c #3A6169",
"r 	c #3C7A70",
"s 	c #3B9A70",
"t 	c #3BA470",
"u 	c #C5F96D",
"v 	c #CAFC6E",
"w 	c #CFFF70",
"x 	c #8DDD5E",
"y 	c #6CC268",
"z 	c #3E9C70",
"A 	c #3B6168",
"B 	c #37525D",
"C 	c #334352",
"D 	c #323D4E",
"E 	c #3C6368",
"F 	c #407D6F",
"G 	c #3FA570",
"H 	c #40A570",
"I 	c #D0FF70",
"J 	c #8FDE5D",
"K 	c #395D65",
"L 	c #354A57",
"M 	c #324051",
"N 	c #30384E",
"O 	c #2E3650",
"P 	c #324556",
"Q 	c #578860",
"R 	c #6FB467",
"S 	c #70C167",
"T 	c #83D361",
"U 	c #69BF69",
"V 	c #3E9C6F",
"W 	c #3B776D",
"X 	c #375560",
"Y 	c #323F50",
"Z 	c #323E4F",
"` 	c #425E50",
" .	c #4E7452",
"..	c #517952",
"+.	c #74B358",
"@.	c #8DDB5D",
"#.	c #8EDD5D",
"$.	c #8DDD5D",
"%.	c #54B06D",
"&.	c #4AAB6F",
"*.	c #3C986E",
"=.	c #396D66",
"-.	c #354B59",
";.	c #384A4F",
">.	c #669C55",
",.	c #82CA5A",
"'.	c #84CC5B",
").	c #8AD65C",
"!.	c #91DF5D",
"~.	c #38A170",
"{.	c #3B9871",
"].	c #3C846D",
"^.	c #396363",
"/.	c #314157",
"(.	c #405A51",
"_.	c #659B55",
":.	c #80C75A",
"<.	c #8EDE5D",
"[.	c #8FE05D",
"}.	c #A2E762",
"|.	c #B2EF67",
"1.	c #B3EF67",
"2.	c #3BA270",
"3.	c #3C8C6F",
"4.	c #3B686A",
"5.	c #395860",
"6.	c #426157",
"7.	c #5F9054",
"8.	c #85CE5B",
"9.	c #97E25F",
"0.	c #9DE461",
"a.	c #9FE561",
"b.	c #B8F269",
"c.	c #CDFE6F",
"d.	c #CEFF70",
"e.	c #56B16C",
"f.	c #3DA370",
"g.	c #3CA170",
"h.	c #3B856A",
"i.	c #375861",
"j.	c #374D56",
"k.	c #659A56",
"l.	c #90DD5D",
"m.	c #AEED65",
"n.	c #C4F96C",
"o.	c #38A270",
"p.	c #3C9F70",
"q.	c #3C9070",
"r.	c #3A7468",
"s.	c #35505D",
"t.	c #344352",
"u.	c #6BA655",
"v.	c #95E05F",
"w.	c #ADED65",
"x.	c #C3F86C",
"y.	c #D1FF71",
"z.	c #3C5C5E",
"A.	c #4E7455",
"B.	c #7DB859",
"C.	c #A8E964",
"D.	c #C6FA6D",
"E.	c #CAFC6F",
"F.	c #C7FA6D",
"G.	c #385D68",
"H.	c #4D785F",
"I.	c #7BBD5C",
"J.	c #A9E564",
"K.	c #CCFD6F",
"L.	c #9EE561",
"M.	c #A9EA64",
"N.	c #375C68",
"O.	c #528060",
"P.	c #87CF5E",
"Q.	c #B5F268",
"R.	c #B9F269",
"S.	c #A1E762",
"T.	c #8FDF5D",
"U.	c #8EDF5D",
"V.	c #96E25F",
"W.	c #ADEC65",
"X.	c #518060",
"Y.	c #85CD5E",
"Z.	c #B5F267",
"`.	c #C4F96D",
" +	c #A0E661",
".+	c #89D55C",
"++	c #83CB5B",
"@+	c #83CB5A",
"#+	c #86CF5B",
"$+	c #8EDC5D",
"%+	c #9FE661",
"&+	c #B4F167",
"*+	c #9CE261",
"=+	c #71B157",
"-+	c #517852",
";+	c #4F7452",
">+	c #4D7252",
",+	c #5F9154",
"'+	c #84CE5B",
")+	c #8DDE5D",
"!+	c #38A370",
"~+	c #3A9970",
"{+	c #3C7970",
"]+	c #375B68",
"^+	c #A4EA62",
"/+	c #A8E464",
"(+	c #7EB75A",
"_+	c #527B52",
":+	c #30344E",
"<+	c #2D2C4E",
"[+	c #2B2A4E",
"}+	c #405B52",
"|+	c #679F5C",
"1+	c #7FC75E",
"2+	c #9EE461",
"3+	c #D2FF71",
"4+	c #55B26D",
"5+	c #50A86D",
"6+	c #42876F",
"7+	c #366469",
"8+	c #84CD5D",
"9+	c #92E25D",
"0+	c #85CC5B",
"a+	c #527952",
"b+	c #304B53",
"c+	c #335C57",
"d+	c #345C56",
"e+	c #334E52",
"f+	c #334353",
"g+	c #3D5B5D",
"h+	c #6DAC5E",
"i+	c #9BE260",
"j+	c #BCF56A",
"k+	c #86D660",
"l+	c #7ACB64",
"m+	c #51A76D",
"n+	c #347869",
"o+	c #528160",
"p+	c #91E25D",
"q+	c #4F7652",
"r+	c #34715E",
"s+	c #3D976A",
"t+	c #3B966A",
"u+	c #36755E",
"v+	c #324754",
"w+	c #3A565D",
"x+	c #6EAB5F",
"y+	c #91DE5E",
"z+	c #9BE460",
"A+	c #92E15C",
"B+	c #85D561",
"C+	c #53AF6D",
"D+	c #307D69",
"E+	c #538160",
"F+	c #85CE5E",
"G+	c #92E35D",
"H+	c #4E7552",
"I+	c #55915C",
"J+	c #67BD69",
"K+	c #389269",
"L+	c #377761",
"M+	c #3B6460",
"N+	c #6FAB5F",
"O+	c #8DDC5D",
"P+	c #8CDD5C",
"Q+	c #8BDC5C",
"R+	c #91E05C",
"S+	c #63B96A",
"T+	c #448F69",
"U+	c #4E8662",
"V+	c #7ABE5C",
"W+	c #8BD85C",
"X+	c #85CF5B",
"Y+	c #629554",
"Z+	c #74B357",
"`+	c #82D261",
" @	c #54B16D",
".@	c #39A270",
"+@	c #3A966D",
"@@	c #3C6E63",
"#@	c #6EAB5E",
"$@	c #8DDC5E",
"%@	c #85D560",
"&@	c #67BA68",
"*@	c #419368",
"=@	c #4D8159",
"-@	c #74B458",
";@	c #8BD85D",
">@	c #89D45B",
",@	c #39A371",
"'@	c #3A986D",
")@	c #3C6F63",
"!@	c #6CAA5E",
"~@	c #9AE260",
"{@	c #90DF5D",
"]@	c #90DF5C",
"^@	c #6FC468",
"/@	c #3A9D6E",
"(@	c #328265",
"_@	c #56A364",
":@	c #6EBE64",
"<@	c #6FAF59",
"[@	c #6FA755",
"}@	c #66A55B",
"|@	c #46A26C",
"1@	c #3A976D",
"2@	c #D3FF71",
"3@	c #83D461",
"4@	c #8CDC5E",
"5@	c #77C965",
"6@	c #53AF6C",
"7@	c #4AAB6E",
"8@	c #3D9A6B",
"9@	c #38725C",
"0@	c #365D56",
"a@	c #3F775B",
"b@	c #50A569",
"c@	c #4AAD6F",
"d@	c #3B986D",
"e@	c #64BB6A",
"f@	c #89D95F",
"g@	c #84D461",
"h@	c #83D362",
"i@	c #68BF69",
"j@	c #40A36E",
"k@	c #3C996B",
"l@	c #38946A",
"m@	c #4FA469",
"n@	c #78C864",
"o@	c #3D976D",
"p@	c #3B6E63",
"q@	c #6FC467",
"r@	c #78CB65",
"s@	c #8BDB5E",
"t@	c #72C667",
"u@	c #70C567",
"v@	c #5AB56C",
"w@	c #4CAC6F",
"x@	c #5BA864",
"y@	c #387963",
"z@	c #3A6967",
"A@	c #6EAD63",
"B@	c #81D262",
"C@	c #3A9E70",
"D@	c #52A96D",
"E@	c #84D561",
"F@	c #82D362",
"G@	c #67BE69",
"H@	c #3FA36F",
"I@	c #38765F",
"J@	c #3B5B59",
"K@	c #518568",
"L@	c #77BC66",
"M@	c #42A56F",
"N@	c #3A8F70",
"O@	c #41876F",
"P@	c #50A76D",
"Q@	c #55B06C",
"R@	c #54AF6C",
"S@	c #4AAA6E",
"T@	c #3B986B",
"U@	c #356E5C",
"V@	c #324F59",
"W@	c #4D775E",
"X@	c #7ABF60",
"Y@	c #8BD85F",
"Z@	c #3D8B70",
"`@	c #3C726F",
" #	c #387D6A",
".#	c #357F65",
"+#	c #347C62",
"@#	c #347B62",
"##	c #367E62",
"$#	c #36745E",
"%#	c #334D53",
"&#	c #313F57",
"*#	c #52805F",
"=#	c #85CE5D",
"-#	c #90E05C",
";#	c #3C8C70",
">#	c #3C6C6E",
",#	c #3A6066",
"'#	c #36515A",
")#	c #324250",
"!#	c #32414F",
"~#	c #32475A",
"{#	c #528262",
"]#	c #84CD5E",
"^#	c #98E35F",
"/#	c #93E05E",
"(#	c #3FA370",
"_#	c #3E8E70",
":#	c #37575F",
"<#	c #345260",
"[#	c #538A6A",
"}#	c #85CF61",
"|#	c #AEEE65",
"1#	c #C2F76C",
"2#	c #5CAC6B",
"3#	c #3C7470",
"4#	c #395E65",
"5#	c #324050",
"6#	c #365A65",
"7#	c #548C6C",
"8#	c #86CF62",
"9#	c #D1FF70",
"0#	c #3E9B70",
"a#	c #3B646A",
"b#	c #385760",
"c#	c #344856",
"d#	c #334252",
"e#	c #37606A",
"f#	c #C0F56C",
"g#	c #54B26D",
"h#	c #3D7C70",
"i#	c #3D6C6F",
"j#	c #3B666A",
"k#	c #385861",
"l#	c #37515D",
"m#	c #3B6A6F",
"n#	c #568F6C",
"o#	c #99E45E",
"p#	c #93DC64",
"q#	c #5FB56D",
"r#	c #71C567",
"s#	c #69BB69",
"t#	c #4A996E",
"u#	c #3B7D70",
"v#	c #3D6D6F",
"w#	c #3B656A",
"x#	c #3B6368",
"y#	c #3E6E6F",
"z#	c #5A946C",
"A#	c #76BB65",
"B#	c #8AD75F",
"C#	c #78CC63",
"D#	c #49AA6E",
"E#	c #80D162",
"F#	c #50AD6D",
"G#	c #398970",
"H#	c #3D6D70",
"I#	c #3D6E70",
"J#	c #3C6C70",
"K#	c #3F7170",
"L#	c #6FB167",
"M#	c #8DDB5E",
"N#	c #45A76F",
"O#	c #3D8D70",
"P#	c #42746F",
"Q#	c #71B467",
"R#	c #5BAB6C",
"S#	c #3B8670",
"T#	c #397070",
"U#	c #386771",
"V#	c #487B6F",
"W#	c #69A869",
"X#	c #82CB62",
"Y#	c #73C766",
"Z#	c #56AB6C",
"`#	c #55956D",
" $	c #548A6D",
".$	c #63A16A",
"+$	c #85D061",
"@$	c #84D361",
"#$	c #84CF61",
"$$	c #84CE61",
"%$	c #86D160",
"&$	c #91E15C",
"                                                                                                                                ",
"                                                                                                                                ",
"                                                                                                                                ",
"                                                                                                                                ",
"                                                                                                                                ",
"                                                                                                                                ",
"                                                                                                                                ",
"                                                                                                                                ",
"                                                                . + .                                                           ",
"                                                            @ # $ % $ & *                                                       ",
"                                                          = - ; > , ' $ * *                                                     ",
"                                                          ) ! ~ { ] { ^ / *                                                     ",
"                                                          ( ~ _ : < : [ } %                                                     ",
"                                                        | 1 2 < 3 4 3 < 5 6 7                                                   ",
"                                          8           9 0 a b 3 c d c 3 e f % +                                                 ",
"                                        g h i         j k l m n o p o n q r s t                                                 ",
"                                        u v w       x y z r A B C D C B E F k G H                                               ",
"                                          I         J 9 k r K L M N O P Q R S ) )                                               ",
"                                                    T U V W X Y Z `  ...+.@.#.$.$.                                              ",
"                                                    %.&.*.=.-.Z ;.>.,.'.).!.!.!.!.                                              ",
"                                                    ~.{.].^./.(._.:.<.[.}.|.1.1.1.                                              ",
"                                              J     2.3.4.5.6.7.8.9.0.a.b.c.d.i i                                               ",
"                                                e.f.g.h.i.j.k.8.l.m.n.u v w w w w w                                             ",
"                                                o.p.q.r.s.t.u.v.w.x.y.y.y.I w w w w w                                           ",
"                                                + 7 l q z.A.B.C.D.E.u u u F.c.w w w w                                           ",
"                                                + % f G.H.I.J.D.K.b.a.L.0.M.D.w d.w w                                           ",
"                                                + 7 f N.O.P.Q.v R.S.T.U.U.V.W.1.R.v I                                           ",
"                                                + 7 f N.X.Y.Z.`. +.+'.++@+#+$+T.%+u y.                                          ",
"                                                + 7 f N.X.Y.&+x.*+=+-+;+>+,+'+)+L.u y.                                          ",
"                                                !+~+{+]+O.Y.^+/+(+_+:+<+[+}+|+1+2+D.3+                                          ",
"                                                4+5+6+7+O.8+9+0+a+b+c+d+e+f+g+h+i+j+F.                                          ",
"                                                k+l+m+n+o+8+p+@+q+r+s+t+u+v+w+x+y+z+a.                                          ",
"                                                A+B+C+D+E+F+G+@+H+I+J+&.K+L+M+N+O+P+Q+                                          ",
"                                                R+k+S+T+U+V+W+X+Y+Z+`+ @.@+@@@#@y+z+a.                                          ",
"                                                J $@%@&@*@=@-@;@8.>@T %.,@'@)@!@~@j+F.                                          ",
"                                                {@]@J ^@/@(@_@:@<@[@}@|@,@1@)@!@2+F.2@                                          ",
"                                                3@k+4@5@e.6@7@8@9@0@a@b@c@d@@@!@~@j+F.                                          ",
"                                                C+e@B+f@g@h@i@j@k@l@m@n@i@o@p@#@y+z+a.                                          ",
"                                                ) ) ) q@r@s@T t@u@v@w@i@x@y@z@A@$+<.$.                                          ",
"                                                  B@C+C@D@l+E@3@F@G@H@k@I@J@K@L@#.J J                                           ",
"                                                    M@N@O@P@Q@Q@R@S@T@U@V@W@X@Y@J J J                                           ",
"                                                    2.Z@`@ #.#+#@###$#%#&#*#=#-##.J J                                           ",
"                                                    2.;#>#,#'#)#)#)#!#Y ~#{#]#^#z+/#                                            ",
"                                                    (#_#_ < :#Y p p p Y <#[#}#|#1#                                              ",
"                                                    ) 2#~ 3#4#d 5#D 5#d 6#7#8#Z.9#                                              ",
"                                                    = - 0#{+a#b#c#d#c#b#e#7#}#|#f#                                              ",
"                                                      g#k h#i#j#k#l#k#j#m#n#}#o#p#q#                                            ",
"                                                      r#s#t#u#v#w#x#w#y#z#A#B#-#C#D#.@                                          ",
"                                                        E#F#G#[ H#I#J#K#L#M#J     *                                             ",
"                                                          N#O#_ I#I#I#P#Q##.                                                    ",
"                                                          ) R#S#T#U#V#W#X##.                                                    ",
"                                                          4@Y#Z#`# $.$+$T.J                                                     ",
"                                                            k+@$#$$$%$M#{@                                                      ",
"                                                                &$&$&$                                                          ",
"                                                                                                                                ",
"                                                                                                                                ",
"                                                                                                                                ",
"                                                                                                                                ",
"                                                                                                                                ",
"                                                                                                                                ",
"                                                                                                                                ",
"                                                                                                                                ",
"                                                                                                                                ",
"                                                                                                                                "};
