/* XPM */
static char * exit_open6_xpm[] = {
"64 64 465 2",
"  	c #87CEEB",
". 	c #8FDE5D",
"+ 	c #90DF5D",
"@ 	c #80D162",
"# 	c #5BB56B",
"$ 	c #3CA370",
"% 	c #3AA270",
"& 	c #81D262",
"* 	c #82D162",
"= 	c #84D160",
"- 	c #7AC763",
"; 	c #5FB26A",
"> 	c #46A46E",
", 	c #3EA370",
"' 	c #48A96F",
") 	c #69BF68",
"! 	c #63B66A",
"~ 	c #6DB666",
"{ 	c #6EB366",
"] 	c #63AA68",
"^ 	c #55A46B",
"/ 	c #46A36E",
"( 	c #56B26C",
"_ 	c #7BCD64",
": 	c #63B669",
"< 	c #50A26D",
"[ 	c #589C6B",
"} 	c #5E9A6A",
"| 	c #5CB26B",
"1 	c #74C666",
"2 	c #4E896D",
"3 	c #4A7E6E",
"4 	c #4A7F6E",
"5 	c #508B6D",
"6 	c #599D6B",
"7 	c #5DAA6A",
"8 	c #5CB56B",
"9 	c #87D35F",
"0 	c #7DC562",
"a 	c #6AAB67",
"b 	c #568F6A",
"c 	c #46776C",
"d 	c #3B686C",
"e 	c #47786C",
"f 	c #49A46E",
"g 	c #79C063",
"h 	c #57906B",
"i 	c #47786B",
"j 	c #3D6667",
"k 	c #385C64",
"l 	c #3E6667",
"m 	c #57A46B",
"n 	c #84CF60",
"o 	c #6EB066",
"p 	c #45776C",
"q 	c #3A6368",
"r 	c #375761",
"s 	c #36505C",
"t 	c #569C6B",
"u 	c #47A16E",
"v 	c #82CB62",
"w 	c #63A06A",
"x 	c #3C6467",
"y 	c #354B58",
"z 	c #344553",
"A 	c #478A6E",
"B 	c #409B6F",
"C 	c #96E15F",
"D 	c #80C963",
"E 	c #5C976B",
"F 	c #3C696C",
"G 	c #385B65",
"H 	c #37515C",
"I 	c #344554",
"J 	c #323E4F",
"K 	c #395C65",
"L 	c #3C686C",
"M 	c #3D7E70",
"N 	c #3C9770",
"O 	c #CFFF70",
"P 	c #BEF66A",
"Q 	c #9FE661",
"R 	c #5A966B",
"S 	c #375A65",
"T 	c #323D4F",
"U 	c #395C64",
"V 	c #3C7E70",
"W 	c #3CA470",
"X 	c #D0FF70",
"Y 	c #C2F86B",
"Z 	c #A4E863",
"` 	c #3B686B",
" .	c #375762",
"..	c #354C59",
"+.	c #334352",
"@.	c #323C4F",
"#.	c #334152",
"$.	c #354A58",
"%.	c #385E61",
"&.	c #3B756B",
"*.	c #3D8970",
"=.	c #3C9B70",
"-.	c #C1F86B",
";.	c #5A956B",
">.	c #3B656A",
",.	c #344F5C",
"'.	c #334353",
").	c #323F50",
"!.	c #323E50",
"~.	c #36635C",
"{.	c #3A886A",
"].	c #3CA170",
"^.	c #C1F76B",
"/.	c #B6F268",
"(.	c #80C961",
"_.	c #5A9368",
":.	c #396066",
"<.	c #334958",
"[.	c #323C4E",
"}.	c #334951",
"|.	c #345D56",
"1.	c #356459",
"2.	c #356659",
"3.	c #367960",
"4.	c #39956B",
"5.	c #3AA370",
"6.	c #A3E762",
"7.	c #95E15E",
"8.	c #7FC75F",
"9.	c #5A8E63",
"0.	c #38565F",
"a.	c #324455",
"b.	c #345D57",
"c.	c #388263",
"d.	c #3A9169",
"e.	c #3A9269",
"f.	c #3A966B",
"g.	c #3B9F6E",
"h.	c #8CD95F",
"i.	c #84CF61",
"j.	c #72B462",
"k.	c #528161",
"l.	c #324154",
"m.	c #334851",
"n.	c #345C56",
"o.	c #39966B",
"p.	c #45A76F",
"q.	c #54B06D",
"r.	c #8FDF5D",
"s.	c #8EDE5D",
"t.	c #83CE61",
"u.	c #6CAD68",
"v.	c #548969",
"w.	c #426A63",
"x.	c #364F5C",
"y.	c #334454",
"z.	c #3CA06F",
"A.	c #3BA370",
"B.	c #54B16D",
"C.	c #73C666",
"D.	c #5B9468",
"E.	c #365561",
"F.	c #36555B",
"G.	c #35605A",
"H.	c #5AB46C",
"I.	c #6CC168",
"J.	c #84D461",
"K.	c #7FC65F",
"L.	c #598D63",
"M.	c #375560",
"N.	c #334859",
"O.	c #388264",
"P.	c #8CDB5E",
"Q.	c #8CD95E",
"R.	c #364E5B",
"S.	c #324153",
"T.	c #346459",
"U.	c #3A9168",
"V.	c #85D561",
"W.	c #364F5B",
"X.	c #334453",
"Y.	c #336459",
"Z.	c #73C767",
"`.	c #37595E",
" +	c #36615B",
".+	c #347860",
"++	c #5BB56C",
"@+	c #80D163",
"#+	c #8BDB5E",
"$+	c #80C863",
"%+	c #5C966B",
"&+	c #3B666C",
"*+	c #386962",
"=+	c #398566",
"-+	c #38956B",
";+	c #5CB66B",
">+	c #84D561",
",+	c #6DC168",
"'+	c #3C676C",
")+	c #397065",
"!+	c #3B946C",
"~+	c #387065",
"{+	c #73C766",
"]+	c #39A170",
"^+	c #44A76F",
"/+	c #376F65",
"(+	c #73C364",
"_+	c #53A567",
":+	c #389069",
"<+	c #94E05E",
"[+	c #9EE561",
"}+	c #A3E763",
"|+	c #80D262",
"1+	c #40805E",
"2+	c #356559",
"3+	c #B5F068",
"4+	c #89D95F",
"5+	c #7FC862",
"6+	c #5B966B",
"7+	c #3A666C",
"8+	c #80CE60",
"9+	c #5BAB66",
"0+	c #378163",
"a+	c #315957",
"b+	c #30394F",
"c+	c #30374F",
"d+	c #313D4F",
"e+	c #345E58",
"f+	c #398466",
"g+	c #3A976D",
"h+	c #AEED66",
"i+	c #C2F76C",
"j+	c #62BA6A",
"k+	c #83D361",
"l+	c #5D976B",
"m+	c #7FC75C",
"n+	c #58925A",
"o+	c #335B57",
"p+	c #304551",
"q+	c #323B4E",
"r+	c #344D55",
"s+	c #37665F",
"t+	c #387F68",
"u+	c #3A986D",
"v+	c #C2F86C",
"w+	c #65B96D",
"x+	c #90D866",
"y+	c #95D665",
"z+	c #75B169",
"A+	c #548868",
"B+	c #3B936C",
"C+	c #55B26D",
"D+	c #71B85E",
"E+	c #517D54",
"F+	c #3F5750",
"G+	c #4F7552",
"H+	c #588453",
"I+	c #578353",
"J+	c #3D5450",
"K+	c #324053",
"L+	c #354F5C",
"M+	c #74BE6F",
"N+	c #AAE46D",
"O+	c #B3ED69",
"P+	c #96D765",
"Q+	c #72B362",
"R+	c #518061",
"S+	c #3A936C",
"T+	c #46A96F",
"U+	c #529F65",
"V+	c #406D57",
"W+	c #71AD57",
"X+	c #7FC55A",
"Y+	c #71AE57",
"Z+	c #4F7652",
"`+	c #344354",
" @	c #354D5C",
".@	c #85C770",
"+@	c #BCEF70",
"@@	c #A4E862",
"#@	c #7FC55E",
"$@	c #57895F",
"%@	c #386F65",
"&@	c #39926C",
"*@	c #388F68",
"=@	c #4F7B54",
"-@	c #72B85D",
";@	c #83CB5A",
">@	c #69A156",
",@	c #507856",
"'@	c #41625D",
")@	c #C8F970",
"!@	c #80C65D",
"~@	c #588B5F",
"{@	c #397164",
"]@	c #388F69",
"^@	c #346559",
"/@	c #3F6E58",
"(@	c #54A165",
"_@	c #6DC268",
":@	c #85D661",
"<@	c #8CD95C",
"[@	c #84CC5A",
"}@	c #71AF5B",
"|@	c #527F5E",
"1@	c #83CC5D",
"2@	c #69A55E",
"3@	c #528C62",
"4@	c #418D66",
"5@	c #399E6E",
"6@	c #367A60",
"7@	c #347960",
"8@	c #91D966",
"9@	c #7FC65E",
"0@	c #598B5F",
"a@	c #8CD95D",
"b@	c #72B35C",
"c@	c #50875A",
"d@	c #377A60",
"e@	c #3B9E6E",
"f@	c #3A976B",
"g@	c #36946B",
"h@	c #3A9E6E",
"i@	c #ABE56D",
"j@	c #80C65E",
"k@	c #C5F96D",
"l@	c #B0EE66",
"m@	c #93E05E",
"n@	c #82CA5A",
"o@	c #68A055",
"p@	c #57925A",
"q@	c #59A866",
"r@	c #54AC6B",
"s@	c #439B6A",
"t@	c #338E68",
"u@	c #378F68",
"v@	c #7AB66B",
"w@	c #B7E96E",
"x@	c #CCFD6F",
"y@	c #B6F168",
"z@	c #8BD85C",
"A@	c #80C85C",
"B@	c #7FCD60",
"C@	c #72BC60",
"D@	c #518D5C",
"E@	c #306359",
"F@	c #7AA260",
"G@	c #B7E46B",
"H@	c #C6FA6D",
"I@	c #B1EE66",
"J@	c #82CB5A",
"K@	c #548052",
"L@	c #568153",
"M@	c #7FAC5A",
"N@	c #ADE066",
"O@	c #C1F76C",
"P@	c #9FE561",
"Q@	c #7EC359",
"R@	c #7FC359",
"S@	c #8ACE5C",
"T@	c #9ADF60",
"U@	c #95E15F",
"V@	c #7FD063",
"W@	c #94DB65",
"X@	c #B3EE69",
"Y@	c #BAF369",
"Z@	c #ACEC65",
"`@	c #83CC5A",
" #	c #74B35C",
".#	c #5A8D60",
"+#	c #448066",
"@#	c #3E976D",
"##	c #55B16D",
"$#	c #72C666",
"%#	c #5AB46B",
"&#	c #73C369",
"*#	c #598858",
"=#	c #5A9061",
"-#	c #559A68",
";#	c #46A06D",
">#	c #46A86F",
",#	c #67BD69",
"'#	c #77CA65",
")#	c #80CE62",
"!#	c #80CB62",
"~#	c #71AE58",
"{#	c #507855",
"]#	c #42695A",
"^#	c #549264",
"/#	c #56A56B",
"(#	c #47A46F",
"_#	c #65BC69",
":#	c #59AC6B",
"<#	c #599E6B",
"[#	c #6AAC68",
"}#	c #4F7755",
"|#	c #3E5D59",
"1#	c #3B6D61",
"2#	c #45936A",
"3#	c #47A46E",
"4#	c #40A470",
"5#	c #7CCE64",
"6#	c #3B9670",
"7#	c #3B7D70",
"8#	c #548C6C",
"9#	c #72B463",
"0#	c #7FC55D",
"a#	c #7FC45A",
"b#	c #354E5C",
"c#	c #47A96F",
"d#	c #3A9670",
"e#	c #45756C",
"f#	c #538364",
"g#	c #58895C",
"h#	c #578556",
"i#	c #558253",
"j#	c #568353",
"k#	c #324054",
"l#	c #397165",
"m#	c #3F6767",
"n#	c #344755",
"o#	c #344655",
"p#	c #3A7468",
"q#	c #3B956D",
"r#	c #46766B",
"s#	c #385D65",
"t#	c #324758",
"u#	c #30384E",
"v#	c #303A4F",
"w#	c #3B7A6D",
"x#	c #3C976F",
"y#	c #56996B",
"z#	c #477F6E",
"A#	c #3A656A",
"B#	c #36515C",
"C#	c #3C9870",
"D#	c #40A46F",
"E#	c #47996F",
"F#	c #417F6F",
"G#	c #385862",
"H#	c #385962",
"I#	c #3B7E70",
"J#	c #385760",
"K#	c #46896E",
"L#	c #3F9A70",
"M#	c #56B16C",
"N#	c #3C696D",
"O#	c #3A6168",
"P#	c #395D64",
"Q#	c #47996E",
"R#	c #3D6D6F",
"S#	c #407E70",
"T#	c #75C765",
"U#	c #477B6E",
"V#	c #41726F",
"W#	c #3C6D70",
"X#	c #56906B",
"Y#	c #487B6E",
"Z#	c #3D6E70",
"`#	c #4B7F6E",
" $	c #40A36F",
".$	c #5E9A69",
"+$	c #75C666",
"@$	c #5DA569",
"#$	c #4AA46E",
"                                                                                                                                ",
"                                                            . + . @ # $ % $                                                     ",
"                                                            & * = - ; > , '                                                     ",
"                                                        . & ) ! ~ { ] ^ / ( _ .                                                 ",
"                                                        . * : < [ } } [ < | 1 @                                                 ",
"                                                        . = ~ [ 2 3 4 5 6 7 | 8                                                 ",
"                                                        9 0 a b c d d e b 6 < f                                                 ",
"                                                    . 9 g a h i j k k l i 5 [ m f $                                             ",
"                                                    . n o b p q r s s r q i b t u $                                             ",
"                                                    . v w c x r y z z y r l e A B $                                             ",
"                                                    C D E F G H I J J I H K L M N $                                             ",
"                                                O P Q D R d S s z T T z s U d V N $ W $                                         ",
"                                                X Y Z D R `  ...+.T @.#.$.%.&.*.=.$ $ $                                         ",
"                                                O -.Z D ;.>.,.'.).J J !.'.~.{.=.].$ $ $                                         ",
"                                                ^./.Q (._.:.<.T [.}.|.1.2.3.4.% 5.% % %                                         ",
"                                                6.Q 7.8.9.0.a.@.T b.c.d.e.f.g.$ $ $ $ $                                         ",
"                                                . h.i.j.k.s l.m.n.3.o.% 5.p.q.# # # # #                                         ",
"                                            . r.s.t.u.v.w.x.y.|.c.f.z.A.W B.C.@ @ @ @ @                                         ",
"                                            . + r.(.D.q E.F.G.3.4.p.B.H.# I.J.. . . . .                                         ",
"                                            . + . K.L.M.N.G.O.o.z.B.C.@ @ J.P.+ + + + . . .                                     ",
"                                            . Q.i.j.k.R.S.T.U.p.B.I.V.+ + + + . . . . . . .                                     ",
"                                            . i.u.v.w.W.X.Y.d.B.Z.J.P.+ + . . . . . . . . .                                     ",
"                                            . D E L G `. +.+4.++@+#+V.@ @ @ @ J.P.. . . . .                                     ",
"                                            . $+%+&+S *+=+-+g.;+@ >+,+# H.H.# I.J.. . . . .                                     ",
"                                            . D E '+G )+!+p.B.,+V.@ ;+W 5.A.W B.C.J.P.. . .                                     ",
"                                            . D E '+G ~+!+B.{+V.P.@ ++% ]+% % ^+q.I.J.. . .     . . . .                         ",
"                                            . D E '+G /+!+# @+P.V.(+_+d.:+d.d.o.g.B.C.J.P..     s.<+[+}+                        ",
"                                            . D E '+G /+!+;+|+V.,+_+1+2+T.1.2+3.4.^+B.I.J..     . [+3+^.                        ",
"                                            4+5+6+7+S /+!+;+|+8+9+0+a+b+c+b+d+e+f+g+z.8 @ .     Z h+i+O                         ",
"                                        $ j+k+D l+'+G /+!+;+@+m+n+o+p+@.q+q+@.r+s+t+u+# @+s.    i+v+                            ",
"                                        $ w+x+y+z+A+w.~+B+C+{+D+E+F+G+H+I+G+J+K+L+/+!+8 @+s.    X O                             ",
"                                        $ M+N+O+P+Q+R+)+S+T+B.U+V+G+W+X+X+Y+Z+`+ @/+!+8 @+.                                     ",
"                                        $ .@+@-.@@#@$@%@&@W W *@1.=@-@>+#+;@>@,@'@/+B+8 @+.                                     ",
"                                            )@v+@@!@~@{@&@$ A.]@^@/@(@_@:@<@[@}@|@/+S+8 @+.                                     ",
"                                            O ^.6.1@2@3@4@-+5@4.6@7@f.w+8@Q 7.9@0@/+&@8 @+.                                     ",
"                                            O ^.}+a@1@b@c@d@4.e@f@g@h@M+i@/.Q j@0@/+&@8 @+.                                     ",
"                                            X k@l@[+m@n@o@p@q@r@s@t@u@v@w@v+Z 9@~@/+&@8 @+.                                     ",
"                                            O x@k@y@[+z@;@A@B@C@D@E@Y.F@G@v+Z 9@~@/+&@8 @+.                                     ",
"                                            ^.H@x@k@I@Z 6.Q <+J@o@K@L@M@N@/.Q j@~@/+&@8 |++                                     ",
"                                            6.l@k@x@k@O@^./.P@z@;@Q@R@S@T@Q U@9@0@/+&@8 @+.                                     ",
"                                            V@W@X@^.Y Y ^.Y@Z@Z 6.P@7.r.r.<@`@ #.#+#@###$#V@                                    ",
"                                            %#&#W@6.@@6.Z Z@Y@O@v+/.Q + s.J@>@*#=#-#;#>#B.#                                     ",
"                                            8 ,#'#)#!#t.Q.Q /.v+v+/.Q <@;@~#{#]#^#/#(#$ A.$                                     ",
"                                            V@'#_#:#<#[#t.<+Q Z Z Q 7.`@>@}#|#1#2#3#4#A.                                        ",
"                                            . 5#( 6#7#8#9#0#X+a#a#X+a#Y+Z+`+b#{@!+$ A.%                                         ",
"                                                c#d#7#e#f#g#h#i#i#j#j#G+J+k#x.l#!+$ W $                                         ",
"                                                $ B A e m#0.n#J T J J T J o#0.p#q#>#B.#                                         ",
"                                                A.u t b r#s#t#b+u#b+b+v#d+y :.w#x###C.@                                         ",
"                                                $ 3#/#y#z#A#B#+.).J J ).+.B#A#7#C#8 @ .                                         ",
"                                                $ D#3#E#F#` G#..+.J J +...H#` I#C#8 @ +                                         ",
"                                                $ $ $ B A i m#J#y z z y J#m#i K#L#M#_ .                                         ",
"                                    $ $ $ $         A.u t b i q r s s r q i b t u '                 . .                         ",
"                                    $ $ $ $         $ 3#/#y#z#N#O#P#P#O#N#z#y#7 | 8                 . .                         ",
"                                    $ $             $ D#3#Q#F#R#N#F F N#R#S#Q#| T#@                                             ",
"                                    $ $             $ $ $ B A U#V#W#W#V#U#K#L#M#_ .                                             ",
"                                                        A.u t X#Y#Z#Z#Y#X#t u '                                                 ",
"                                                        $ 3#/#6 5 `#`#5 6 7 | 8                                                 ",
"                                                        $  $3#< 6 .$.$[ < | +$@                                                 ",
"                                                        $ A.$ > /#@$@$^ > ( _ .                                                 ",
"                                                            A. $3##$#$>  $'                                                     ",
"                                                            $ $ $ $ $ $ $ $                                                     ",
"                                                                                                                                ",
"                                                                                                                                ",
"                                                                                                                                "};
