/* XPM */
static char * bloc_xpm[] = {
"64 64 278 2",
"  	c #584B57",
". 	c #524755",
"+ 	c #473E53",
"@ 	c #3F3851",
"# 	c #654E58",
"$ 	c #7E5B5D",
"% 	c #8C6762",
"& 	c #917267",
"* 	c #937B6D",
"= 	c #948474",
"- 	c #948A7C",
"; 	c #948F83",
"> 	c #948878",
", 	c #948877",
"' 	c #7C595C",
") 	c #5A4555",
"! 	c #584053",
"~ 	c #774C57",
"{ 	c #86565B",
"] 	c #8A5E5E",
"^ 	c #907267",
"/ 	c #927769",
"( 	c #927669",
"_ 	c #8D6862",
": 	c #B8806D",
"< 	c #D4997A",
"[ 	c #DAAA84",
"} 	c #DDB990",
"| 	c #DFC79D",
"1 	c #E0D1AB",
"2 	c #E0D8B8",
"3 	c #E0D8B7",
"4 	c #E0CEA4",
"5 	c #E0CDA3",
"6 	c #B77F6D",
"7 	c #AF6561",
"8 	c #C9796A",
"9 	c #CF8871",
"0 	c #DDB289",
"a 	c #DCB188",
"b 	c #F3B58A",
"c 	c #F9C493",
"d 	c #FCD19D",
"e 	c #FDDDAA",
"f 	c #FEE6B6",
"g 	c #FEECC2",
"h 	c #FEE2B0",
"i 	c #FEE2AF",
"j 	c #FCD19E",
"k 	c #D3997B",
"l 	c #855159",
"m 	c #C67066",
"n 	c #E68D74",
"o 	c #EEA380",
"p 	c #F9C393",
"q 	c #FDDCA9",
"r 	c #FBCA97",
"s 	c #F3B68B",
"t 	c #FCC996",
"u 	c #FCCD9A",
"v 	c #FDD29F",
"w 	c #FDD6A4",
"x 	c #FDD8A9",
"y 	c #FDD4A1",
"z 	c #C77066",
"A 	c #E99478",
"B 	c #F4B389",
"C 	c #FBC996",
"D 	c #FCCB98",
"E 	c #FCCB97",
"F 	c #DCB289",
"G 	c #855059",
"H 	c #E9977A",
"I 	c #F6BB8E",
"J 	c #FBCB97",
"K 	c #FBCA96",
"L 	c #E89478",
"M 	c #F3B389",
"N 	c #FAC896",
"O 	c #D9AA84",
"P 	c #855259",
"Q 	c #E48670",
"R 	c #E99477",
"S 	c #EEA581",
"T 	c #F4B88C",
"U 	c #E3816E",
"V 	c #E58771",
"W 	c #E89377",
"X 	c #895E5E",
"Y 	c #CE8871",
"Z 	c #F5B88C",
"` 	c #C77166",
" .	c #E27F6D",
"..	c #E3806D",
"+.	c #E48671",
"@.	c #EDA380",
"#.	c #F2B389",
"$.	c #F5BA8E",
"%.	c #EFA581",
"&.	c #C67166",
"*.	c #E37F6D",
"=.	c #C77267",
"-.	c #834E57",
";.	c #C46A62",
">.	c #E07969",
",.	c #E37E6C",
"'.	c #7F4654",
").	c #BC5958",
"!.	c #D96B60",
"~.	c #E27E6D",
"{.	c #E27E6C",
"].	c #703E51",
"^.	c #A34952",
"/.	c #BE5A59",
"(.	c #C56A62",
"_.	c #C87267",
":.	c #BD5A59",
"<.	c #E07869",
"[.	c #543A51",
"}.	c #6E3E51",
"|.	c #C77167",
"1.	c #A54A53",
"2.	c #3C3851",
"3.	c #3E3851",
"4.	c #3D3851",
"5.	c #3B3851",
"6.	c #BC5959",
"7.	c #3B3751",
"8.	c #3A3751",
"9.	c #473852",
"0.	c #543853",
"a.	c #5C3854",
"b.	c #613853",
"c.	c #653952",
"d.	c #693B51",
"e.	c #533853",
"f.	c #824F58",
"g.	c #7D4D56",
"h.	c #6E4754",
"i.	c #533E52",
"j.	c #AF6661",
"k.	c #6F3757",
"l.	c #803758",
"m.	c #893957",
"n.	c #913C54",
"o.	c #973F51",
"p.	c #C36F65",
"q.	c #B96A61",
"r.	c #9F5D5B",
"s.	c #6E4855",
"t.	c #813858",
"u.	c #953959",
"v.	c #9F3C56",
"w.	c #A63F53",
"x.	c #AC4350",
"y.	c #803858",
"z.	c #E9987A",
"A.	c #E59276",
"B.	c #DB876F",
"C.	c #BC7365",
"D.	c #7E5258",
"E.	c #9E3C56",
"F.	c #A74053",
"G.	c #AC4250",
"H.	c #AE444F",
"I.	c #883957",
"J.	c #EAA27F",
"K.	c #CA8670",
"L.	c #875D5D",
"M.	c #F8C393",
"N.	c #E48771",
"O.	c #5B3952",
"P.	c #7E3A54",
"Q.	c #903C54",
"R.	c #9A414F",
"S.	c #8F3B54",
"T.	c #7C3954",
"U.	c #593752",
"V.	c #593852",
"W.	c #9B414F",
"X.	c #983F51",
"Y.	c #4B3851",
"Z.	c #5C3952",
"`.	c #663A52",
" +	c #6A3B51",
".+	c #6B3B50",
"++	c #F8C191",
"@+	c #F1AD86",
"#+	c #EA997A",
"$+	c #E58872",
"%+	c #5E3853",
"&+	c #673A51",
"*+	c #6D3D50",
"=+	c #714051",
"-+	c #754453",
";+	c #794A55",
">+	c #7A4D56",
",+	c #F8C192",
"'+	c #F1AE86",
")+	c #EA9A7B",
"!+	c #E58972",
"~+	c #523753",
"{+	c #6E3757",
"]+	c #833957",
"^+	c #933E52",
"/+	c #9E4550",
"(+	c #A54D51",
"_+	c #AC5756",
":+	c #B2625C",
"<+	c #B5685F",
"[+	c #513753",
"}+	c #937E72",
"|+	c #DDBE99",
"1+	c #FCD5A6",
"2+	c #FCCF9D",
"3+	c #843A57",
"4+	c #9B3C56",
"5+	c #A84251",
"6+	c #B44C51",
"7+	c #BE5955",
"8+	c #C6655B",
"9+	c #CB6F60",
"0+	c #CD7363",
"a+	c #948B80",
"b+	c #DFD1B2",
"c+	c #FDE6BD",
"d+	c #FDD6A7",
"e+	c #F2B289",
"f+	c #943F52",
"g+	c #A84151",
"h+	c #AD434F",
"i+	c #B65153",
"j+	c #C4645B",
"k+	c #CD7262",
"l+	c #CE7363",
"m+	c #948B7C",
"n+	c #FEE6B7",
"o+	c #DFC69D",
"p+	c #FDD29E",
"q+	c #937C6D",
"r+	c #DDBA91",
"s+	c #6D3D51",
"t+	c #6D3C50",
"u+	c #613A50",
"v+	c #4D3951",
"w+	c #513B51",
"x+	c #683F51",
"y+	c #6E3D51",
"z+	c #A54C52",
"A+	c #A54C51",
"B+	c #883E4F",
"C+	c #5F3950",
"D+	c #673F51",
"E+	c #954A52",
"F+	c #9E4650",
"G+	c #9B3D56",
"H+	c #AE444E",
"I+	c #C15D57",
"J+	c #BA5755",
"K+	c #A14D53",
"L+	c #6F4052",
"M+	c #764553",
"N+	c #B54D51",
"O+	c #AF444E",
"P+	c #CA6C5F",
"Q+	c #C76B5F",
"R+	c #AE5F5B",
"S+	c #774955",
"T+	c #794B55",
"U+	c #B75253",
"V+	c #A54D52",
"W+	c #603A50",
"X+	c #954B52",
"Y+	c #9F4650",
"Z+	c #553853",
"`+	c #603953",
" @	c #683A51",
".@	c #6C3C50",
"  . + @ @ @ @ @ @ @ @ @ @ @ @ @ @ @ @ @ @ @ @ @ @ @ @ @ @ @ @ @ @ @ @ @ @ @ @ @ @ @ @ @ @ @ @ @ @ @ @ @ @ @ @ @ @ @ @ @ @ + .   ",
". # $ % & * = - ; ; - > , = * & % ' ) ! ~ { ] % ^ * = , > - ; ; - > , = * / ( ^ _ ] { ~ ! ) ' % & * = , > - ; ; - = * & % $ # . ",
"+ $ : < [ } | 1 2 3 1 4 5 | } [ < 6 ' ~ 7 8 9 < [ } | 5 4 1 3 3 1 4 5 | } 0 a [ < 9 8 7 ~ ' 6 < [ } | 5 4 1 3 2 1 | } [ < : $ + ",
"@ _ < b c d e f g g f h i e j c b k _ l m n o b p j e i h f g g f h i q j r r p s o n m l _ k b c j e i h f g g f e d c b < _ @ ",
"@ & [ c t u v w x x w y y v u t c [ & l z A B c C u v y y w x x w y y v u D E C c B A z l & [ c t u v y y w x x w v u t c [ & @ ",
"@ / 0 r D r r r r r r r r r r D r F / G m H I r J r r r r r r r r r r r r r r J r I H m G / F r D r r r r r r r r r r D r 0 / @ ",
"@ / 0 r D r r K C C K r r r r D r 0 / G m H I r J r r r r K C C K r r r r r r J r I H m G / 0 r D r r r r K C C K r r D r 0 / @ ",
"@ / 0 r D r r r r r r r r r r D r 0 / G m L M p N r r r r r r r r r r r r r r N p M L m G / 0 r D r r r r r r r r r r D r 0 / @ ",
"@ / 0 r D r r r r r r r r r r D r F / l m n o s p r r r r r r r r r r r r r r p s o n m l / F r D r r r r r r r r r r D r 0 / @ ",
"@ ^ [ p C r r r r r r r r r r C p O ^ P m Q R S T p N J J J J J J J J J J N p T S R Q m P ^ O p C r r r r r r r r r r C p [ ^ @ ",
"@ _ < s c r r r r r r r r r r c s k _ P m U V W S s p r r r r r r r r r r p s S W V U m P _ k s c r r r r r r r r r r c s < _ @ ",
"@ X Y S Z p N J J J J J J N p Z S Y X P `  ...+.W @.#.$.$.$.$.$.$.$.$.$.$.#.@.W +... .` P X Y S Z p N J J J J J J N p Z S Y X @ ",
"@ { 8 W %.s p r r r r r r p s %.W 8 { P &. .*.U Q n L H H H H H H H H H H L n Q U *. .&.P { 8 W %.s p r r r r r r p s %.W 8 { @ ",
"@ P =.+.A @.#.$.$.$.$.$.$.#.@.A +.=.P -.;.>.,.*...*.*.*.*.*.*.*.*.*.*.*.*.*.*...*.,.>.;.-.P =.+.A @.#.$.$.$.$.$.$.#.@.A +.=.P @ ",
"@ P ` U V n L H H H H H H L n V U ` P '.).!.>. . .~.~.{.{.{.{.{.{.{.{.{.{.~.~. . .>.!.).'.P ` U V n L H H H H H H L n V U ` P @ ",
"@ -.;.>.,.*...*.*.*.*.*.*...*.,.>.;.-.].^./.(._._._._._._._._._._._._._._._._._._.(./.^.].-.;.>.,.*...*.*.*.*.*.*...*.,.>.;.-.@ ",
"@ '.:.!.<.~.~.{.{.{.{.{.{.~.~.<.!.:.'.[.}.'.-.P P P P P P P P P P P P P P P P P P -.'.}.[.'.:.!.<.~.~.{.{.{.{.{.{.~.~.<.!.:.'.@ ",
"@ ].^.).;.` |.` ` ` ` ` ` =.|.;.:.1.].@ 2.@ 3.4.4.4.4.4.4.4.4.3.@ @ 3.4.4.4.4.4.4.4.4.5.@ ].1.:.;.|.=.` ` ` ` ` ` |.` ;.6.^.].@ ",
"@ [.].'.-.P P P P P P P P P P -.'.].[.3.5.7.8.8.8.8.8.8.8.8.8.8.8.8.8.8.8.8.8.8.8.8.7.5.3.[.].'.-.P P P P P P P P P P -.'.].[.@ ",
"@ ! ~ l l G G G l P P P P -.'.].[.@ 3.@ @ 9.0.a.b.c.d.d.c.b.a.e.9.9.e.a.b.c.d.d.c.b.a.0.9.3.@ [.].'.-.P P P P l G G G f.g.h.i.@ ",
"@ ~ j.|.=.` ` ` ` ` ` |.` ;.).^.}.2.5.3.@ 0.k.l.m.n.o.o.n.m.l.k.0.0.k.l.m.n.o.o.n.m.l.k.0.5.5.}.^.).;.` |.` ` ` ` ` ` p.q.r.s.@ ",
"@ { 8 n A H H L n Q U  . .>.!./.'.@ 7.4.@ a.t.u.v.w.x.x.w.v.u.y.a.a.y.u.v.w.x.x.w.v.u.t.a.7.4.'./.!.>. . .U Q n L z.H A.B.C.D.@ ",
"@ ] 9 o B I I M o R V ..*.,.>.(.-.@ 8.4.@ b.m.E.F.G.H.H.G.F.E.I.b.b.I.E.F.G.H.H.G.F.E.m.b.8.4.-.(.>.,.*...V R o M I I M J.K.L.@ ",
"@ _ < s c r r M.s S W N.U *. ._.P @ 8.3.@ O.P.Q.o.R.R.R.R.o.S.T.U.V.T.Q.o.R.R.R.W.X.n.P.O.8.3.P _. .*.U N.W S s M.r r c s < _ @ ",
"@ ^ [ p C J J N p T S W Q .. ._.P @ 8.3.@ Y.Z.`. +.+.+.+.+ +`.Z.Y.Y.Z.`. +.+.+.+.+ +`.Z.Y.8.3.P _. ...Q W S T p N J J C c [ ^ @ ",
"@ ( a K E r r r r ++@+#+$+*. ._.P @ 8.@ @ @ @ 9.e.%+&+*+=+-+;+>+>+;+-+=+*+&+%+e.9.@ @ @ @ 8.@ P _. .*.$+#+@+++r r r r E K a ( @ ",
"@ / 0 r D r r r r ,+'+)+!+*. ._.P @ 8.@ @ 4.3.~+{+]+^+/+(+_+:+<+<+:+_+(+/+^+]+{+[+4.2.3.3.8.@ P _. .*.!+)+'+,+r r r r D r 0 / @ ",
"@ }+|+1+2+r r r r p s @.n *.~._.P @ 8.@ @ 4.@ %+3+4+5+6+7+8+9+0+0+9+8+7+6+5+4+3+%+@ 4.@ @ 8.@ P _.~.*.n @.s p r r r r 2+1+|+}+@ ",
"@ a+b+c+d+r K r r N M.e+L *.~._.P @ 8.@ @ 4.@ &+f+g+h+i+j+9+k+l+l+k+9+j+i+h+g+f+&+@ 4.@ @ 8.@ P _.~.*.L e+M.N r r K r d+c+b+a+@ ",
"@ ; 2 g x r C r r J r $.H *.{._.P @ 8.@ @ 4.@ &+f+g+h+i+j+9+k+l+l+k+9+j+i+h+g+f+&+@ 4.@ @ 8.@ P _.{.*.H $.r J r r C r x g 2 ; @ ",
"@ m+1 n+w r K r r J r $.H *.{._.P @ 8.@ @ 4.@ %+3+4+5+6+7+8+9+0+0+9+8+7+6+5+4+3+%+@ 4.@ @ 8.@ P _.{.*.H $.r J r r K r w n+1 m+@ ",
"@ = o+q p+r r r r J r $.H *.{._.P @ 8.@ 3.2.4.[+{+]+^+/+(+_+:+<+<+:+_+(+/+^+]+{+[+4.2.3.@ 8.@ P _.{.*.H $.r J r r r r p+q o+= @ ",
"@ * } d u r r r r J r $.H *.{._.P @ 8.@ @ @ @ 9.e.%+&+*+=+-+;+>+>+;+-+=+*+&+%+e.9.@ @ @ @ 8.@ P _.{.*.H $.r J r r r r u d } * @ ",
"@ q+r+j u r r r r J r $.H *.{._.P @ 8.9.e.%+&+.+.+.+.+s+=+=+t+u+v+w+x+=+y+.+.+.+.+&+%+e.9.8.@ P _.{.*.H $.r J r r r r u j r+q+@ ",
"@ = o+q p+r r r r J r $.H *.{._.P 3.8.e.k.3+f+W.W.R.R./+z+A+/+B+C+D+E+z+F+R.R.W.W.f+3+k.e.8.3.P _.{.*.H $.r J r r r r p+q o+= @ ",
"@ = | q v r r r r N M.e+L *.~._.P 4.8.%+3+G+5+H+H+H+H+6+7+I+J+K+L+M+_+7+N+H+H+H+H+5+G+3+%+8.4.P _.~.*.L e+M.N r r r r v q | = @ ",
"@ q+r+j u r r r r p s @.n *.~._.P 4.8.&+f+5+h+O+O+H+O+i+j+P+Q+R+S+T+:+j+U+O+H+O+O+h+5+f+&+8.4.P _.~.*.n @.s p r r r r u j r+q+@ ",
"@ / 0 r D r r r r ,+'+)+!+*. ._.P 4.8.&+f+5+h+O+O+H+O+i+j+P+Q+R+S+T+:+j+U+O+H+O+O+h+5+f+&+8.4.P _. .*.!+)+'+,+r r r r D r 0 / @ ",
"@ ( a r E r r r r ++@+#+$+*. ._.P 4.8.%+3+G+5+H+H+H+H+6+7+I+J+K+L+M+_+7+N+H+H+H+H+5+G+3+%+8.4.P _. .*.$+#+@+++r r r r E r a ( @ ",
"@ ^ [ p C J J N p T S W Q .. ._.P 3.8.e.k.3+f+W.W.R.R./+V+V+/+B+W+x+X+V+Y+R.R.W.W.f+3+k.e.8.3.P _. ...Q W S T p N J J C c [ ^ @ ",
"@ _ < s c r r M.s S W N.U *. ._.P @ 8.9.e.%+&+.+.+.+.+s+=+=+t+u+v+w+x+=+y+.+.+.+.+&+%+e.9.8.@ P _. .*.U N.W S s M.r r c s < _ @ ",
"@ ] 9 o B I I M o R V ..*.,.>.(.-.@ 8.@ @ @ @ 9.Z+`+ @.@.@.@.@.@.@.@.@.@.@ @`+Z+9.@ @ @ @ 8.@ -.(.>.,.*...V R o M I I M J.K.L.@ ",
"@ { 8 n A H H L n Q U  . .>.!./.'.@ 7.@ 3.2.4.[+{+]+^+R.R.R.R.R.R.R.R.R.R.^+]+{+[+4.2.3.@ 7.@ './.!.>. . .U Q n L z.H A.B.C.D.@ ",
"@ ~ j.|.=.` ` ` ` ` ` |.` ;.).^.}.2.5.@ @ 3.@ e.k.3+f+W.W.W.W.W.W.W.W.W.W.f+3+k.e.@ 3.@ @ 5.2.}.^.).;.` |.` ` ` ` ` ` p.q.r.s.@ ",
"@ ! ~ l l G G G l P P P P -.'.].[.@ 3.@ @ @ @ 9.Z+`+ @.@.@.@.@.@.@.@.@.@.@ @`+Z+9.@ @ @ @ 3.@ [.].'.-.P P P P l G G G f.g.h.i.@ ",
"@ [.].'.-.P P P P P P P P P P -.'.].[.3.5.7.8.8.8.8.8.8.8.8.8.8.8.8.8.8.8.8.8.8.8.8.7.5.3.[.].'.-.P P P P P P P P P P -.'.].[.@ ",
"@ ].^.).;.` |.` ` ` ` ` ` =.|.;.:.1.].@ 2.@ @ @ 3.4.4.2.2.2.2.2.2.2.2.2.2.4.4.3.@ @ @ 2.@ ].1.:.;.|.=.` ` ` ` ` ` |.` ;.6.^.].@ ",
"@ '.:.!.<.~.~.{.{.{.{.{.{.~.~.<.!.:.'.[.}.'.-.P P P P P P P P P P P P P P P P P P -.'.}.[.'.:.!.<.~.~.{.{.{.{.{.{.~.~.<.!.:.'.@ ",
"@ -.;.>.,.*...*.*.*.*.*.*...*.,.>.;.-.].^./.(._._._._._._._._._._._._._._._._._._.(./.^.].-.;.>.,.*...*.*.*.*.*.*...*.,.>.;.-.@ ",
"@ P ` U V n L H H H H H H L n V U ` P '.).!.>. . .~.~.{.{.{.{.{.{.{.{.{.{.~.~. . .>.!.).'.P ` U V n L H H H H H H L n V U ` P @ ",
"@ P =.+.A @.#.$.$.$.$.$.$.#.@.A +.=.P -.;.>.,.*...*.*.*.*.*.*.*.*.*.*.*.*.*.*...*.,.>.;.-.P =.+.A @.#.$.$.$.$.$.$.#.@.A +.=.P @ ",
"@ { 8 W %.s p r r r r r r p s %.W 8 { P &. .*.U Q n L H H H H H H H H H H L n Q U *. .&.P { 8 W %.s p r r r r r r p s %.W 8 { @ ",
"@ X Y S Z p N J J J J J J N p Z S Y X P `  ...+.W @.#.$.$.$.$.$.$.$.$.$.$.#.@.W +... .` P X Y S Z p N J J J J J J N p Z S Y X @ ",
"@ _ < s c r r r r r r r r r r c s k _ P m U V W S s p r r r r r r r r r r p s S W V U m P _ k s c r r r r r r r r r r c s < _ @ ",
"@ ^ [ p C r r r r r r r r r r C p O ^ P m Q R S T p N J J J J J J J J J J N p T S R Q m P ^ O p C r r r r r r r r r r C p [ ^ @ ",
"@ / 0 r D r r r r r r r r r r D r F / l m n o s p r r r r r r r r r r r r r r p s o n m l / F r D r r r r r r r r r r D r 0 / @ ",
"@ / 0 r D r r r r r r r r r r D r 0 / G m L M p N r r r r r r r r r r r r r r N p M L m G / 0 r D r r r r r r r r r r D r 0 / @ ",
"@ / 0 r D r r K C C K r r r r D r 0 / G m H I r J r r r r r r K C C K r r r r J r I H m G / 0 r D r r r r K C C K r r D r 0 / @ ",
"@ / 0 r D r r r r r r r r r r D r F / G m H I r J r r r r r r r r r r r r r r J r I H m G / F r D r r r r r r r r r r D r 0 / @ ",
"@ & [ c t u v w x x w y y v u t c [ & l z A B c C u v p+u u p+w x x w y y v u C c B A z l & [ c t u v y y w x x w v u t c [ & @ ",
"@ _ < b c d e f g g f h i e j c b k _ l m n o b p j e q j d q f g g f h i e j p b o n m l _ k b c j e i h f g g f e d c b < _ @ ",
"+ $ : < [ } | 1 2 3 1 4 5 | } [ < 6 ' ~ 7 8 9 < [ r+| o+r+} o+1 2 3 1 4 5 | } [ < 9 8 7 ~ ' 6 < [ } | 5 4 1 3 2 1 | } [ < : $ + ",
". # $ % & * = - ; ; - > , = * & % ' ) ! ~ { ] % ^ q+= = q+* = - ; ; - > , = * ^ % ] { ~ ! ) ' % & * = , > - ; ; - = * & % $ # . ",
"  . + @ @ @ @ @ @ @ @ @ @ @ @ @ @ @ @ @ @ @ @ @ @ @ @ @ @ @ @ @ @ @ @ @ @ @ @ @ @ @ @ @ @ @ @ @ @ @ @ @ @ @ @ @ @ @ @ @ @ + .   "};
