/* XPM */
static char * int_h_center_xpm[] = {
"64 64 195 2",
"  	c #4D4155",
". 	c #4A3F54",
"+ 	c #493E54",
"@ 	c #473D54",
"# 	c #473E54",
"$ 	c #483F54",
"% 	c #483F55",
"& 	c #463C53",
"* 	c #453B53",
"= 	c #443B53",
"- 	c #433B53",
"; 	c #948474",
"> 	c #948A7C",
", 	c #948F83",
"' 	c #937B6D",
") 	c #927669",
"! 	c #949186",
"~ 	c #927769",
"{ 	c #907267",
"] 	c #8D6862",
"^ 	c #8A5E5E",
"/ 	c #86565B",
"( 	c #774C57",
"_ 	c #584053",
": 	c #948877",
"< 	c #948878",
"[ 	c #DFC79D",
"} 	c #E0D1AB",
"| 	c #E0D8B8",
"1 	c #DDB990",
"2 	c #DCB188",
"3 	c #E0DBBE",
"4 	c #DDB289",
"5 	c #DAAA84",
"6 	c #D4997A",
"7 	c #CF8871",
"8 	c #C9796A",
"9 	c #AF6661",
"0 	c #E0CDA3",
"a 	c #E0CEA4",
"b 	c #E0D8B7",
"c 	c #FDDDAA",
"d 	c #FEE6B6",
"e 	c #FEECC2",
"f 	c #FDDCA9",
"g 	c #FCD19D",
"h 	c #FBCA97",
"i 	c #FEEFC8",
"j 	c #F9C393",
"k 	c #F3B68B",
"l 	c #EEA380",
"m 	c #E68D74",
"n 	c #C77166",
"o 	c #855159",
"p 	c #FCD19E",
"q 	c #FEE2AF",
"r 	c #FEE2B0",
"s 	c #FDD29F",
"t 	c #FDD6A4",
"u 	c #FDD8A9",
"v 	c #FCCD9A",
"w 	c #FCCB97",
"x 	c #FDD5A4",
"y 	c #FDD9AC",
"z 	c #FCCB98",
"A 	c #FBC996",
"B 	c #F9C493",
"C 	c #F4B389",
"D 	c #E99478",
"E 	c #C77267",
"F 	c #FDD4A1",
"G 	c #FBCB97",
"H 	c #F6BB8E",
"I 	c #E9977A",
"J 	c #855059",
"K 	c #FBCA96",
"L 	c #FAC896",
"M 	c #F3B389",
"N 	c #E89478",
"O 	c #F4B88C",
"P 	c #EEA581",
"Q 	c #E99477",
"R 	c #E48670",
"S 	c #855259",
"T 	c #E89377",
"U 	c #E58771",
"V 	c #E3816E",
"W 	c #F2B389",
"X 	c #F5BA8E",
"Y 	c #EDA380",
"Z 	c #E48671",
"` 	c #E3806D",
" .	c #E27F6D",
"..	c #C77167",
"+.	c #E37F6D",
"@.	c #E37E6C",
"#.	c #E07969",
"$.	c #C46A62",
"%.	c #834E57",
"&.	c #E27E6D",
"*.	c #E27E6C",
"=.	c #D96B60",
"-.	c #BC5A59",
";.	c #7F4654",
">.	c #C87267",
",.	c #C56A62",
"'.	c #BE5A59",
").	c #A44A53",
"!.	c #703E51",
"~.	c #543A51",
"{.	c #3F3851",
"].	c #3E3851",
"^.	c #3D3851",
"/.	c #3C3851",
"(.	c #3A3751",
"_.	c #3B3751",
":.	c #473852",
"<.	c #533853",
"[.	c #5C3854",
"}.	c #613853",
"|.	c #653952",
"1.	c #693B51",
"2.	c #6B3B50",
"3.	c #543853",
"4.	c #6F3757",
"5.	c #803758",
"6.	c #893957",
"7.	c #913C54",
"8.	c #973F51",
"9.	c #9B414F",
"0.	c #803858",
"a.	c #953959",
"b.	c #9F3C56",
"c.	c #A63F53",
"d.	c #AC4350",
"e.	c #AF444E",
"f.	c #603953",
"g.	c #683A51",
"h.	c #6C3C50",
"i.	c #883957",
"j.	c #9E3C56",
"k.	c #A74053",
"l.	c #AC4250",
"m.	c #AE444F",
"n.	c #883956",
"o.	c #6E3757",
"p.	c #843A57",
"q.	c #943F52",
"r.	c #593752",
"s.	c #7C3954",
"t.	c #8F3B54",
"u.	c #963F50",
"v.	c #99404F",
"w.	c #9A414F",
"x.	c #503653",
"y.	c #6C3657",
"z.	c #833957",
"A.	c #933E52",
"B.	c #9A404E",
"C.	c #923E52",
"D.	c #99404E",
"E.	c #4B3851",
"F.	c #5C3952",
"G.	c #663A52",
"H.	c #6A3B51",
"I.	c #7A4D56",
"J.	c #774955",
"K.	c #6F4052",
"L.	c #613A50",
"M.	c #4D3851",
"N.	c #B5685F",
"O.	c #B5675F",
"P.	c #AF5F5B",
"Q.	c #A14D53",
"R.	c #883F4F",
"S.	c #603A50",
"T.	c #B6685F",
"U.	c #CD7363",
"V.	c #C86C5F",
"W.	c #BD5D58",
"X.	c #A24E53",
"Y.	c #CE7363",
"Z.	c #CE7463",
"`.	c #CD7162",
" +	c #AE5F5B",
".+	c #B4675F",
"++	c #883E4F",
"@+	c #5F3950",
"#+	c #A24D53",
"$+	c #893F4F",
"%+	c #553853",
"&+	c #833857",
"*+	c #6D3657",
"=+	c #514457",
"-+	c #4B4055",
"  . + @ @ @ @ @ @ # $ % % % % % % % % $ # @ @ # $ $ # @ @ @ @ @ @ @ @ @ @ @ @ @ @ @ @ @ @ @ @ @ @ @ @ @ @ @ @ @ @ @ @ @ & * = - ",
"; > , , > ; ' ) ) ' ; > , ! ! , > ; ' ~ ) { ] ^ / ( _ _ ( / ^ ] { ) ~ ' ; : < > , , > ; ' ~ ) { ] ^ / ( _ _ ( / ^ ] { ) ~ ' ; > ",
"[ } | | } [ 1 2 2 1 [ } | 3 3 | } [ 1 4 2 5 6 7 8 9 ( ( 9 8 7 6 5 2 4 1 [ 0 a } b | } [ 1 4 2 5 6 7 8 9 ( ( 9 8 7 6 5 2 4 1 [ } ",
"c d e e d f g h h g f d e i i e d f g h h j k l m n o o n m l k j h h p f q r d e e d f g h h j k l m n o o n m l k j h h g f d ",
"s t u u t s v w w v s x u y y u x s v z w A B C D E o o E D C B A w z v s F F t u u t s v z w A B C D E o o E D C B A w z v s t ",
"h h h h h h h h h h h h h h h h h h h h h G h H I n J J n I H h G h h h h h h h h h h h h h h G h H I n J J n I H h G h h h h h ",
"h K A A K h h h h h h h A A A A h h h h h G h H I n J J n I H h G h h h h h h K A A K h h h h G h H I n J J n I H h G h h h h K ",
"h h h h h h h h h h h h h h h h h h h h h L j M N n J J n N M j L h h h h h h h h h h h h h h L j M N n J J n N M j L h h h h h ",
"h h h h h h h h h h h h h h h h h h h h h j k l m n o o n m l k j h h h h h h h h h h h h h h j k l m n o o n m l k j h h h h h ",
"L G G G G G G G G G G G G G G G G G G L j O P Q R n S S n R Q P O j L G G G G G G G G G G L j O P Q R n S S n R Q P O j L G G G ",
"j h h h h h h h h h h h h h h h h h h j k P T U V n S S n V U T P k j h h h h h h h h h h j k P T U V n S S n V U T P k j h h h ",
"W X X X X X X X X X X X X X X X X X X W Y T Z `  ...S S .. .` Z T Y W X X X X X X X X X X W Y T Z `  ...S S .. .` Z T Y W X X X ",
"N I I I I I I I I I I I I I I I I I I N m R V +. .n S S n  .+.V R m N I I I I I I I I I I N m R V +. .n S S n  .+.V R m N I I I ",
"+.+.+.+.+.+.+.+.+.+.+.+.+.+.+.+.+.+.+.+.+.` +.@.#.$.%.%.$.#.@.+.` +.+.+.+.+.+.+.+.+.+.+.+.+.+.` +.@.#.$.%.%.$.#.@.+.` +.+.+.+.+.",
"&.*.*.*.*.*.*.*.*.*.*.*.*.*.*.*.*.*.*.&.&. . .#.=.-.;.;.-.=.#. . .&.&.*.*.*.*.*.*.*.*.*.*.&.&. . .#.=.-.;.;.-.=.#. . .&.&.*.*.*.",
">.>.>.>.>.>.>.>.>.>.>.>.>.>.>.>.>.>.>.>.>.>.>.,.'.).!.!.).'.,.>.>.>.>.>.>.>.>.>.>.>.>.>.>.>.>.>.>.,.'.).!.!.).'.,.>.>.>.>.>.>.>.",
"S S S S S S S S S S S S S S S S S S S S S S S %.;.!.~.~.!.;.%.S S S S S S S S S S S S S S S S S S %.;.!.~.~.!.;.%.S S S S S S S ",
"{.{.].^.^.^.^././././.^.^.^.^.].{.{.{.{.{.{.{.{.{.{.{.{.{.{.{.{.{.{.].^.^.^.^././././.^.^.^.^.].{.{.].^.^.^.^././././.^.^.^.^.].",
"(.(.(.(.(.(.(.(.(.(.(.(.(.(.(.(.(.(.(.(.(.(.(.(._./.].]./._.(.(.(.(.(.(.(.(.(.(.(.(.(.(.(.(.(.(.(.(._./.].]./._.(.(.(.(.(.(.(.(.",
":.:.<.[.}.|.1.2.2.2.2.1.|.}.[.3.:.{.].^.^././././././././.^.^.].{.:.3.[.}.|.1.2.2.2.2.1.|.}.[.<.:.:.<.[.}.|.1.2.2.2.2.1.|.}.[.<.",
"3.3.4.5.6.7.8.9.9.9.9.8.7.6.5.4.3.{.].{.{.{.{.{.{.{.{.{.{.{.{.].{.3.4.5.6.7.8.9.9.9.9.8.7.6.5.4.3.3.4.5.6.7.8.9.9.9.9.8.7.6.5.4.",
"[.[.0.a.b.c.d.e.e.e.e.d.c.b.a.0.[.:.<.f.g.h.h.h.h.h.h.h.h.g.f.<.:.[.0.a.b.c.d.e.e.e.e.d.c.b.a.0.[.[.0.a.b.c.d.e.e.e.e.d.c.b.a.0.",
"}.}.i.j.k.l.m.e.e.e.e.m.l.k.j.n.}.<.o.p.q.9.9.9.9.9.9.9.9.q.p.o.<.}.n.j.k.l.m.e.e.e.e.m.l.k.j.i.}.}.i.j.k.l.m.e.e.e.e.m.l.k.j.i.",
"r.r.s.t.u.v.w.w.w.w.w.w.v.u.t.s.r.x.y.z.A.w.9.w.w.w.v.B.v.C.z.y.x.r.s.t.u.v.w.w.w.w.w.w.v.u.t.s.r.r.s.t.8.w.9.w.w.w.v.D.v.u.t.s.",
"E.E.F.G.H.2.2.2.2.2.2.2.2.H.G.F.E.:.3.f.g.h.h.h.h.h.h.h.h.g.f.3.:.E.F.G.H.2.2.2.2.2.2.2.2.H.G.F.E.E.F.G.H.2.2.2.2.2.2.2.2.H.G.F.",
"I.I.I.I.I.J.K.L.M.M.L.K.J.I.I.I.I.I.I.J.K.L.M.M.L.K.J.I.I.I.I.I.I.I.I.I.I.J.K.L.M.M.L.K.J.I.I.I.I.I.I.J.K.L.M.M.L.K.J.I.I.I.I.I.",
"N.N.N.N.O.P.Q.R.S.S.R.Q.P.O.N.N.N.T.N.P.Q.R.S.S.R.Q.P.O.N.O.N.N.N.N.N.N.O.P.Q.R.S.S.R.Q.P.O.N.N.N.T.N.P.Q.R.S.S.R.Q.P.O.N.O.O.N.",
"U.U.U.U.U.V.W.X.K.K.X.W.V.U.U.U.U.U.U.V.W.X.K.K.X.W.V.U.U.U.U.U.U.U.U.U.U.V.W.X.K.K.X.W.V.U.U.U.U.U.U.V.W.X.K.K.X.W.V.U.U.U.U.U.",
"Y.Y.Y.Z.Y.`.V. +J.J. +V.`.Y.Z.Y.Y.Z.Y.`.V. +J.J. +V.`.Y.Z.Y.Y.Y.Y.Y.Y.Z.Y.`.V. +J.J. +V.`.Y.Z.Y.Y.Z.Y.`.V. +J.J. +V.`.Y.Z.Y.Y.Y.",
"Y.Y.Y.Z.Y.`.V. +J.J. +V.`.Y.Z.Y.Y.Z.Y.`.V. +J.J. +V.`.Y.Z.Y.Y.Y.Y.Y.Y.Z.Y.`.V. +J.J. +V.`.Y.Z.Y.Y.Z.Y.`.V. +J.J. +V.`.Y.Z.Y.Y.Y.",
"U.U.U.U.U.V.W.X.K.K.X.W.V.U.U.U.U.U.U.V.W.X.K.K.X.W.V.U.U.U.U.U.U.U.U.U.U.V.W.X.K.K.X.W.V.U.U.U.U.U.U.V.W.X.K.K.X.W.V.U.U.U.U.U.",
"N.N.O.N..+ +Q.++@+@+++Q. +.+N.O.N.N.O.P.Q.++@+@+++Q. +.+O..+O.O.N.N.O.N..+ +Q.++@+@+++Q. +.+N.O.N.N.O.P.Q.++@+@+++Q. +.+O..+O.O.",
"I.I.I.I.I.J.K.L.M.M.L.K.J.I.I.I.I.I.I.J.K.L.M.M.L.K.J.I.I.I.I.I.I.I.I.I.I.J.K.L.M.M.L.K.J.I.I.I.I.I.I.J.K.L.M.M.L.K.J.I.I.I.I.I.",
"M.M.L.K.J.I.I.I.I.I.I.I.I.J.K.L.M.M.L.K.J.I.I.I.I.I.I.I.I.J.K.L.M.M.L.K.J.I.I.I.I.I.I.I.I.J.K.L.M.M.L.K.J.I.I.I.I.I.I.I.I.J.K.L.",
"@+@+++Q. +.+N.O.N.N.O.N..+ +Q.++@+@+++Q.P.O.N.N.O.O..+O..+ +Q.++@+@+++Q. +.+N.O.N.N.O.N..+ +Q.++@+@+++Q.P.O.N.N.O.O..+O..+ +Q.++",
"K.K.X.W.V.U.U.U.U.U.U.U.U.V.W.X.K.K.X.W.V.U.U.U.U.U.U.U.U.V.W.X.K.K.X.W.V.U.U.U.U.U.U.U.U.V.W.X.K.K.X.W.V.U.U.U.U.U.U.U.U.V.W.X.",
"J.J. +V.`.Y.Z.Y.Y.Y.Y.Z.Y.`.V. +J.J. +V.`.Y.Z.Y.Y.Y.Y.Z.Y.`.V. +J.J. +V.`.Y.Z.Y.Y.Y.Y.Z.Y.`.V. +J.J. +V.`.Y.Z.Y.Y.Y.Y.Z.Y.`.V. +",
"J.J. +V.`.Y.Z.Y.Y.Y.Y.Z.Y.`.V. +J.J. +V.`.Y.Z.Y.Y.Y.Y.Z.Y.`.V. +J.J. +V.`.Y.Z.Y.Y.Y.Y.Z.Y.`.V. +J.J. +V.`.Y.Z.Y.Y.Y.Y.Z.Y.`.V. +",
"K.K.X.W.V.U.U.U.U.U.U.U.U.V.W.X.K.K.X.W.V.U.U.U.U.U.U.U.U.V.W.X.K.K.X.W.V.U.U.U.U.U.U.U.U.V.W.X.K.K.X.W.V.U.U.U.U.U.U.U.U.V.W.X.",
"S.S.R.Q.P.O.N.N.N.N.N.N.O.P.Q.R.S.S.R.Q.P.N.T.N.N.N.O.N.O.P.Q.R.S.S.R.Q.P.O.N.N.N.N.N.T.N.P.#+$+L.L.$+#+P.N.T.N.N.N.O.N.O.P.Q.R.",
"M.M.L.K.J.I.I.I.I.I.I.I.I.J.K.L.M.M.L.K.J.I.I.I.I.I.I.I.I.J.K.L.M.M.L.K.J.I.I.I.I.I.I.I.I.J.K.L.M.M.L.K.J.I.I.I.I.I.I.I.I.J.K.L.",
"h.h.h.h.h.g.f.3.:.:.3.f.g.h.h.h.h.h.h.g.f.3.:.:.3.f.g.h.h.h.h.h.h.h.h.h.h.g.f.%+:.{.{.{.{.{.{.{.{.{.{.{.{.{.{.:.%+f.g.h.h.h.h.h.",
"w.w.w.w.v.C.&+*+x.x.*+&+C.v.w.w.w.9.w.A.z.*+x.x.*+z.C.v.B.v.w.w.w.w.w.w.v.C.&+*+x._.(._._._./.^.].].^./._.(._.x.*+z.C.v.B.v.w.w.",
"9.9.9.9.9.q.p.4.<.<.4.p.q.9.9.9.9.9.9.q.p.4.<.<.4.p.q.9.9.9.9.9.9.9.9.9.9.q.p.4.<.{.].{.{.{.{.{.{.{.{.{.{.].{.<.4.p.q.9.9.9.9.9.",
"h.h.h.h.h.g.f.3.:.:.3.f.g.h.h.h.h.h.h.g.f.3.:.:.3.f.g.h.h.h.h.h.h.h.h.h.h.g.f.%+:.{.{.{.{.{.{.{.{.{.{.{.{.{.{.:.%+f.g.h.h.h.h.h.",
"(.(.(.(.(.(.(.(._./.].]./._.(.(.(.(.(.(.(.(.(.(.(.(.(.(.(.(.(.(.(.(._./.].]./._.(.(.(.(.(.(.(.(.(.(.(.(.(.(.(.(.(.(.(.(.(.(.(.(.",
"/././././.^.^.].{.{.].^.^././././././.^.^.].{.{.].^.^././././././././././.^.^.].{.{.{.{.{.{.{.{.{.{.{.{.{.{.{.{.].^.^./././././.",
"S S S S S S S %.;.!.~.~.!.;.%.S S S S S S S S S S S S S S S S S S %.;.!.~.~.!.;.%.S S S S S S S S S S S S S S S S S S S S S S S ",
">.>.>.>.>.>.>.,.'.).!.!.).'.,.>.>.>.>.>.>.>.>.>.>.>.>.>.>.>.>.>.>.,.'.).!.!.).'.,.>.>.>.>.>.>.>.>.>.>.>.>.>.>.>.>.>.>.>.>.>.>.>.",
"*.*.*.&.&. . .#.=.-.;.;.-.=.#. . .&.&.*.*.*.*.*.*.*.*.*.*.&.&. . .#.=.-.;.;.-.=.#. . .&.&.*.*.*.*.*.*.*.*.*.*.*.*.*.*.*.*.*.*.&.",
"+.+.+.+.+.` +.@.#.$.%.%.$.#.@.+.` +.+.+.+.+.+.+.+.+.+.+.+.+.+.` +.@.#.$.%.%.$.#.@.+.` +.+.+.+.+.+.+.+.+.+.+.+.+.+.+.+.+.+.+.+.+.",
"I I I N m R V +. .n S S n  .+.V R m N I I I I I I I I I I N m R V +. .n S S n  .+.V R m N I I I I I I I I I I I I I I I I I I N ",
"X X X W Y T Z `  ...S S .. .` Z T Y W X X X X X X X X X X W Y T Z `  ...S S .. .` Z T Y W X X X X X X X X X X X X X X X X X X W ",
"h h h j k P T U V n S S n V U T P k j h h h h h h h h h h j k P T U V n S S n V U T P k j h h h h h h h h h h h h h h h h h h j ",
"G G G L j O P Q R n S S n R Q P O j L G G G G G G G G G G L j O P Q R n S S n R Q P O j L G G G G G G G G G G G G G G G G G G L ",
"h h h h h j k l m n o o n m l k j h h h h h h h h h h h h h h j k l m n o o n m l k j h h h h h h h h h h h h h h h h h h h h h ",
"h h h h h L j M N n J J n N M j L h h h h h h h h h h h h h h L j M N n J J n N M j L h h h h h h h h h h h h h h h h h h h h h ",
"K h h h h G h H I n J J n I H h G h h h h K A A K h h h h h h G h H I n J J n I H h G h h h h h A A A A h h h h h h h K A A K h ",
"h h h h h G h H I n J J n I H h G h h h h h h h h h h h h h h G h H I n J J n I H h G h h h h h h h h h h h h h h h h h h h h h ",
"t s v z w A B C D E o o E D C B A w z v s t u u t F F s v z w A B C D E o o E D C B A w z v s x u y y u x s v w w v s t u u t s ",
"d f g h h j k l m n o o n m l k j h h g f d e e d r q f p h h j k l m n o o n m l k j h h g f d e i i e d f g h h g f d e e d c ",
"} [ 1 4 2 5 6 7 8 9 ( ( 9 8 7 6 5 2 4 1 [ } | b } a 0 [ 1 4 2 5 6 7 8 9 ( ( 9 8 7 6 5 2 4 1 [ } | 3 3 | } [ 1 2 2 1 [ } | | } [ ",
"> ; ' ~ ) { ] ^ / ( _ _ ( / ^ ] { ) ~ ' ; > , , > < : ; ' ~ ) { ] ^ / ( _ _ ( / ^ ] { ) ~ ' ; > , ! ! , > ; ' ) ) ' ; > , , > ; ",
"=+-++ @ @ @ @ @ @ @ @ @ @ @ @ @ @ @ @ @ @ @ @ @ @ @ @ @ & * = = * & @ @ @ @ @ @ @ @ @ @ @ @ @ @ @ @ @ @ @ @ @ @ @ @ @ @ @ @ @ @ "};
