/* XPM */
static char * int_m_ctr_xpm[] = {
"64 64 318 2",
"  	c #3F3851",
". 	c #433851",
"+ 	c #4A3951",
"@ 	c #4F3A51",
"# 	c #523D52",
"$ 	c #533D52",
"% 	c #513C52",
"& 	c #4C3A51",
"* 	c #443951",
"= 	c #533E52",
"- 	c #513B52",
"; 	c #4E3A51",
"> 	c #4A3952",
", 	c #453852",
"' 	c #413851",
") 	c #3E3851",
"! 	c #584053",
"~ 	c #784C57",
"{ 	c #855159",
"] 	c #855259",
"^ 	c #885D5E",
"/ 	c #8F6E65",
"( 	c #927669",
"_ 	c #927769",
": 	c #836B64",
"< 	c #67565B",
"[ 	c #544757",
"} 	c #948F83",
"| 	c #948A7C",
"1 	c #948474",
"2 	c #937B6D",
"3 	c #937C6D",
"4 	c #907267",
"5 	c #8D6862",
"6 	c #8A5E5E",
"7 	c #86565B",
"8 	c #774C57",
"9 	c #949186",
"0 	c #948877",
"a 	c #948878",
"b 	c #8C6762",
"c 	c #5A4555",
"d 	c #7C595C",
"e 	c #917267",
"f 	c #7E5B5D",
"g 	c #654E58",
"h 	c #514655",
"i 	c #E0D8B8",
"j 	c #E0D1AB",
"k 	c #DFC69D",
"l 	c #DDB990",
"m 	c #DDBA91",
"n 	c #DFC79D",
"o 	c #DDB289",
"p 	c #DCB188",
"q 	c #DAAA84",
"r 	c #D4997A",
"s 	c #CF8871",
"t 	c #C9796A",
"u 	c #AF6661",
"v 	c #E0DBBE",
"w 	c #E0D8B7",
"x 	c #E0CDA3",
"y 	c #E0CEA4",
"z 	c #AF6561",
"A 	c #B77F6D",
"B 	c #B8806D",
"C 	c #493F55",
"D 	c #FEECC2",
"E 	c #FEE6B6",
"F 	c #FDDCA9",
"G 	c #FCD19D",
"H 	c #FCD19E",
"I 	c #FBCA97",
"J 	c #F9C393",
"K 	c #F3B68B",
"L 	c #EEA380",
"M 	c #E68D74",
"N 	c #C77166",
"O 	c #FEEFC8",
"P 	c #FEE2AF",
"Q 	c #FEE2B0",
"R 	c #FDDDAA",
"S 	c #F3B58A",
"T 	c #C67066",
"U 	c #D3997B",
"V 	c #F9C493",
"W 	c #433B53",
"X 	c #FDD8A9",
"Y 	c #FDD6A4",
"Z 	c #FDD29E",
"` 	c #FCCD9A",
" .	c #FDD29F",
"..	c #FCCB98",
"+.	c #FCCB97",
"@.	c #FBC996",
"#.	c #F4B389",
"$.	c #E99478",
"%.	c #C77267",
"&.	c #FDD5A4",
"*.	c #FDD9AC",
"=.	c #FDD4A1",
"-.	c #C77066",
";.	c #FCC996",
">.	c #FBCB97",
",.	c #F6BB8E",
"'.	c #E9977A",
").	c #855059",
"!.	c #DCB289",
"~.	c #FBCA96",
"{.	c #FAC896",
"].	c #F3B389",
"^.	c #E89478",
"/.	c #F4B88C",
"(.	c #EEA581",
"_.	c #E99477",
":.	c #E48670",
"<.	c #D9AA84",
"[.	c #E89377",
"}.	c #E58771",
"|.	c #E3816E",
"1.	c #F5BA8E",
"2.	c #F2B389",
"3.	c #EDA380",
"4.	c #E48671",
"5.	c #E3806D",
"6.	c #E27F6D",
"7.	c #C77167",
"8.	c #895E5E",
"9.	c #CE8871",
"0.	c #F5B88C",
"a.	c #E37F6D",
"b.	c #C67166",
"c.	c #EFA581",
"d.	c #E37E6C",
"e.	c #E07969",
"f.	c #C46A62",
"g.	c #834E57",
"h.	c #E27E6C",
"i.	c #E27E6D",
"j.	c #D96B60",
"k.	c #BC5A59",
"l.	c #7F4654",
"m.	c #BC5958",
"n.	c #C87267",
"o.	c #C56A62",
"p.	c #BE5A59",
"q.	c #A44A53",
"r.	c #703E51",
"s.	c #A34952",
"t.	c #543A51",
"u.	c #6E3E51",
"v.	c #BD5A59",
"w.	c #E07869",
"x.	c #473D54",
"y.	c #3D3851",
"z.	c #3C3851",
"A.	c #A54A53",
"B.	c #4E4156",
"C.	c #3A3751",
"D.	c #3B3751",
"E.	c #3B3851",
"F.	c #514357",
"G.	c #473852",
"H.	c #543853",
"I.	c #5C3854",
"J.	c #613853",
"K.	c #653952",
"L.	c #693B51",
"M.	c #6B3B50",
"N.	c #533853",
"O.	c #6F3757",
"P.	c #803758",
"Q.	c #893957",
"R.	c #913C54",
"S.	c #973F51",
"T.	c #9B414F",
"U.	c #803858",
"V.	c #953959",
"W.	c #9F3C56",
"X.	c #A63F53",
"Y.	c #AC4350",
"Z.	c #AF444E",
"`.	c #603953",
" +	c #683A51",
".+	c #6C3C50",
"++	c #553853",
"@+	c #883956",
"#+	c #9E3C56",
"$+	c #A74053",
"%+	c #AC4250",
"&+	c #AE444F",
"*+	c #883957",
"=+	c #6E3757",
"-+	c #843A57",
";+	c #943F52",
">+	c #513753",
",+	c #5A3852",
"'+	c #7D3A54",
")+	c #903C54",
"!+	c #9A414F",
"~+	c #6D3757",
"{+	c #833957",
"]+	c #933E52",
"^+	c #4B3851",
"/+	c #5C3952",
"(+	c #663A52",
"_+	c #6A3B51",
":+	c #6A3B50",
"<+	c #663A51",
"[+	c #5E3853",
"}+	c #533753",
"|+	c #463852",
"1+	c #673A51",
"2+	c #B75354",
"3+	c #B75454",
"4+	c #B04F56",
"5+	c #A24658",
"6+	c #883F58",
"7+	c #613A53",
"8+	c #B65153",
"9+	c #B44C50",
"0+	c #B2484F",
"a+	c #AF454E",
"b+	c #A84251",
"c+	c #9B3D56",
"d+	c #C6695E",
"e+	c #C2645C",
"f+	c #B85758",
"g+	c #9E4A54",
"h+	c #6D3F52",
"i+	c #C4645B",
"j+	c #BE5955",
"k+	c #B84F51",
"l+	c #AD434F",
"m+	c #A84151",
"n+	c #CE7363",
"o+	c #CE7463",
"p+	c #CA6C5F",
"q+	c #C05D57",
"r+	c #A54C52",
"s+	c #714051",
"t+	c #CB6F60",
"u+	c #C6655B",
"v+	c #BF5A55",
"w+	c #CD7363",
"x+	c #C86B5E",
"y+	c #BA5755",
"z+	c #9E4650",
"A+	c #6D3C50",
"B+	c #CD7262",
"C+	c #CB6E60",
"D+	c #C3645B",
"E+	c #9B3C56",
"F+	c #B5685F",
"G+	c #B5675F",
"H+	c #B4675F",
"I+	c #AE5F5B",
"J+	c #A14D53",
"K+	c #883E4F",
"L+	c #5F3950",
"M+	c #AF5F5B",
"N+	c #7A4D56",
"O+	c #774955",
"P+	c #6F4052",
"Q+	c #613A50",
"R+	c #4D3951",
"S+	c #7B4D56",
"T+	c #6F4152",
"U+	c #4D3851",
"V+	c #513B51",
"W+	c #683F51",
"X+	c #6E3D51",
"Y+	c #673F51",
"Z+	c #954A52",
"`+	c #A54C51",
" @	c #9E4550",
".@	c #A24E53",
"+@	c #BD5D58",
"@@	c #C86C5F",
"#@	c #764553",
"$@	c #AC5756",
"%@	c #B54D51",
"&@	c #AE444E",
"*@	c #CD7162",
"=@	c #794B55",
"-@	c #B2625C",
";@	c #B75253",
">@	c #694051",
",@	c #754553",
"'@	c #794A55",
")@	c #754453",
"!@	c #663E51",
"~@	c #AB5656",
"{@	c #883E57",
"]@	c #A14E53",
"^@	c #C7675C",
"/@	c #B95858",
"(@	c #6D3D50",
"_@	c #B85051",
":@	c #C05B56",
"<@	c #623A50",
"[@	c #893E4F",
"}@	c #A64D52",
"|@	c #AD5756",
"1@	c #B6685F",
"2@	c #603A50",
"3@	c #A24D53",
"4@	c #8A3F4F",
"5@	c #3C3751",
"6@	c #393751",
"7@	c #503A51",
"8@	c #974B52",
"9@	c #B3625C",
"0@	c #893F4F",
"a@	c #C6665B",
"b@	c #BD5D59",
"c@	c #CE7262",
"                              . + @ # $ % & * . + @ # = = = = = = = = $ - ; > , '         )   ! ~ { ] ^ / ( _ ( ( ( ( _ ( : < [ ",
"} } | 1 2 3 1 1 3 _ ( 4 5 6 7 8 ! ! 8 7 6 5 4 ( _ 2 1 | } 9 9 } | 0 0 a 0 1 2 4 b 6 7 8 ! c d b e 2 1 0 a | } } | 1 2 e b f g h ",
"i i j k l m k n m o p q r s t u 8 8 u t s r q p o l n j i v v w j x x y x n l q r s t z 8 d A r q l n x y j w i j n l q r B f C ",
"D D E F G H F F H I I J K L M N { { N M L K J I I G F E D O O D E P P Q P R H J S L M T { 5 U S V H R P Q E D D E R G V S r 5 W ",
"X X Y Z ` ` Z  .` ..+.@.V #.$.%.{ { %.$.#.V @.+...`  .&.X *.*.X &.=.=.=.=. .` @.V #.$.-.{ e q V ;.`  .=.=.Y X X Y  .` ;.V q e W ",
"I I I I I I I I I I I >.I ,.'.N ).).N '.,.I >.I I I I I I I I I I I I I I I I >.I ,.'.T )._ !.I ..I I I I I I I I I I ..I o _ W ",
"@.@.~.I I I I I I I I >.I ,.'.N ).).N '.,.I >.I I I I I @.@.@.@.I I I I I I I >.I ,.'.T )._ o I ..I I I I ~.@.@.~.I I ..I o _ W ",
"I I I I I I I I I I I {.J ].^.N ).).N ^.].J {.I I I I I I I I I I I I I I I I {.J ].^.T )._ o I ..I I I I I I I I I I ..I o _ W ",
"I I I I I I I I I I I J K L M N { { N M L K J I I I I I I I I I I I I I I I I J K L M T { _ !.I ..I I I I I I I I I I ..I o _ W ",
">.>.>.>.>.>.>.>.>.{.J /.(._.:.N ] ] N :._.(./.J {.>.>.>.>.>.>.>.>.>.>.>.>.{.J /.(._.:.T ] 4 <.J @.I I I I I I I I I I @.J q 4 W ",
"I I I I I I I I I J K (.[.}.|.N ] ] N |.}.[.(.K J I I I I I I I I I I I I J K (.[.}.|.T ] 5 U K V I I I I I I I I I I V K r 5 W ",
"1.1.1.1.1.1.1.1.1.2.3.[.4.5.6.7.] ] 7.6.5.4.[.3.2.1.1.1.1.1.1.1.1.1.1.1.1.2.3.[.4.5.6.N ] 8.9.(.0.J {.>.>.>.>.>.>.{.J 0.(.9.8.W ",
"'.'.'.'.'.'.'.'.'.^.M :.|.a.6.N ] ] N 6.a.|.:.M ^.'.'.'.'.'.'.'.'.'.'.'.'.^.M :.|.a.6.b.] 7 t [.c.K J I I I I I I J K c.[.t 7 W ",
"a.a.a.a.a.a.a.a.a.a.a.5.a.d.e.f.g.g.f.e.d.a.5.a.a.a.a.a.a.a.a.a.a.a.a.a.a.a.a.5.a.d.e.f.g.] %.4.$.3.2.1.1.1.1.1.1.2.3.$.4.%.] W ",
"h.h.h.h.h.h.h.h.h.i.i.6.6.e.j.k.l.l.k.j.e.6.6.i.i.h.h.h.h.h.h.h.h.h.h.h.h.i.i.6.6.e.j.m.l.] N |.}.M ^.'.'.'.'.'.'.^.M }.|.N ] W ",
"n.n.n.n.n.n.n.n.n.n.n.n.n.o.p.q.r.r.q.p.o.n.n.n.n.n.n.n.n.n.n.n.n.n.n.n.n.n.n.n.n.o.p.s.r.g.f.e.d.a.5.a.a.a.a.a.a.5.a.d.e.f.g.W ",
"] ] ] ] ] ] ] ] ] ] ] ] ] g.l.r.t.t.r.l.g.] ] ] ] ] ] ] ] ] ] ] ] ] ] ] ] ] ] ] ] g.l.u.t.l.v.j.w.i.i.h.h.h.h.h.h.i.i.w.j.v.l.x.",
"    ) y.y.y.y.z.z.z.z.y.y.y.y.)     ) y.y.y.y.z.z.z.z.y.y.y.y.)                       z.  r.A.v.f.7.%.N N N N N N 7.N f.m.s.r.B.",
"C.C.C.C.C.C.C.C.C.C.C.C.C.C.D.z.) ) z.D.C.C.C.C.C.C.C.C.C.C.C.C.C.C.C.C.C.C.C.C.C.C.D.E.) t.r.l.g.] ] ] ] ] ] ] ] ] ] g.l.r.t.F.",
"  G.H.I.J.K.L.M.M.M.M.L.K.J.I.N.G.G.N.I.J.K.L.M.M.M.M.L.K.J.I.H.G.  ) y.y.z.z.z.z.y.y.)   )   t.r.l.g.] ] ] ] { ).).).{ { 8 ! F.",
"  H.O.P.Q.R.S.T.T.T.T.S.R.Q.P.O.H.H.O.P.Q.R.S.T.T.T.T.S.R.Q.P.O.H.  )                     E.z.u.s.m.f.N 7.N N N N N N %.7.u 8 F.",
"G.I.U.V.W.X.Y.Z.Z.Z.Z.Y.X.W.V.U.I.I.U.V.W.X.Y.Z.Z.Z.Z.Y.X.W.V.U.I.G.N.`. +.+.+.+.+ +`.++G.D.  l.p.j.e.6.6.|.:.M ^.'.'.$.M t 7 F.",
"N.J.@+#+$+%+&+Z.Z.Z.Z.&+%+$+#+*+J.J.*+#+$+%+&+Z.Z.Z.Z.&+%+$+#+@+J.N.=+-+;+T.T.T.T.;+-+O.N.C.) g.o.e.d.a.5.}._.L ].,.,.#.L s 6 F.",
">+,+'+)+S.!+!+!+T.T.!+!+!+S.)+'+,+,+'+)+S.!+T.T.!+!+!+!+!+S.)+'+,+>+~+{+]+!+!+T.T.;+-+O.N.C.) ] n.6.a.|.4.[.(.K J I I V S r b F.",
"G.^+/+(+_+M.M.M.M.M.M.M.M._+(+/+^+^+/+(+_+M.M.M.M.M.M.M.M._+(+/+^+G.H.`. +.+.+.+.+ +`.++G.C.  ] n.6.5.:.[.(./.J {.>.>.@.J q 4 F.",
":+:+:+:+:+<+[+}+|+|+}+[+<+:+:+:+:+:+:+<+[+}+|+|+}+[+<+:+:+:+:+:+:+:+M.M.M.1+[+N.G.        C.  ] n.i.a.M 3.K J I I I I ` H l 2 F.",
"T.!+!+!+!+]+{+~+>+>+~+{+]+!+!+!+!+T.!+]+{+~+>+>+~+{+]+!+!+!+!+!+!+T.!+!+!+]+{+=+>+y.z.)   C.  ] n.i.a.^.2.J {.I I I I  .R n 1 F.",
"2+2+2+3+2+4+5+6+7+7+6+5+4+2+3+2+2+3+2+4+5+6+7+7+6+5+4+2+3+2+2+3+2+8+9+0+a+b+c+-+[+  y.    C.  ] n.h.a.'.1.I >.I I I I =.Q y a F.",
"d+d+d+d+d+e+f+g+h+h+g+f+e+d+d+d+d+d+d+e+f+g+h+h+g+f+e+d+d+d+d+d+d+i+j+k+0+l+m+;+1+  y.    C.  ] n.h.a.'.1.I >.I I I I =.Q y a F.",
"n+n+n+o+n+p+q+r+s+s+r+q+p+n+o+n+n+o+n+p+q+r+s+s+r+q+p+n+o+n+n+o+n+t+u+v+9+l+m+;+1+  y.    C.  ] n.h.a.'.1.I >.I I I I Z F k 1 F.",
"w+w+w+o+w+x+y+z+A+A+z+y+x+w+o+w+w+o+w+x+y+z+A+A+z+y+x+w+o+w+w+w+w+B+C+D+8+b+E+-+[+  y.    C.  ] n.h.a.'.1.I >.I I I I ` H l 2 B.",
"F+F+G+F+H+I+J+K+L+L+K+J+I+H+F+G+F+F+G+M+J+K+L+L+K+J+I+H+G+H+G+G+F+F+G+I+J+]+{+=+>+y.z.)   C.  ] n.h.a.'.1.I >.I I I I ` G l 2 x.",
"N+N+N+N+N+O+P+Q+R+R+Q+P+O+N+N+N+N+N+N+O+P+Q+R+R+Q+P+O+N+N+N+N+N+N+S+S+O+T+1+[+N.G.        C.  ] n.h.a.'.1.I >.I I I I Z F k 1 W ",
"U+U+Q+P+O+N+N+N+N+N+N+N+N+O+P+Q+U+U+Q+P+O+N+N+N+N+N+N+N+N+O+P+Q+U+V+W+s+X+M.M.M.M.1+[+N.G.C.  ] n.h.a.'.1.I >.I I ~.I Y E j | W ",
"L+L+K+J+I+H+F+G+F+F+G+F+H+I+J+K+L+L+K+J+M+G+F+F+G+G+H+G+H+I+J+K+L+Y+Z+`+ @!+!+T.T.;+-+O.N.C.) ] n.h.a.'.1.I >.I I @.I X D i } W ",
"P+P+.@+@@@w+w+w+w+w+w+w+w+@@+@.@P+P+.@+@@@w+w+w+w+w+w+w+w+@@+@J+P+#@$@j+%@&@&@&@&@b+c+-+[+C.y.] n.h.a.'.1.I >.I I @.I X D i } W ",
"O+O+I+@@*@n+o+n+n+n+n+o+n+*@@@I+O+O+I+@@*@n+o+n+n+n+n+o+n+*@@@I+O+=@-@i+;@Z.&@Z.Z.l+b+;+1+C.y.] n.h.a.'.1.I >.I I ~.I Y E j | W ",
"O+O+I+@@*@n+o+n+n+n+n+o+n+*@@@I+O+O+I+@@*@n+o+n+n+n+n+o+n+*@@@I+O+=@-@i+;@Z.&@Z.Z.l+b+;+1+C.y.] n.h.a.'.1.I >.I I I I  .F n 1 W ",
"P+P+.@+@@@w+w+w+w+w+w+w+w+@@+@.@P+P+.@+@@@w+w+w+w+w+w+w+w+@@+@J+P+#@$@j+%@&@&@&@&@b+c+-+[+C.y.] n.h.a.'.1.I >.I I I I ` G l 2 W ",
"L+L+K+J+I+H+F+G+F+G+G+F+H+I+J+K+L+L+K+J+M+G+F+F+G+G+H+G+H+I+J+K+L+Y+Z+`+ @!+!+T.T.;+-+O.N.C.) ] n.i.a.^.2.J {.I I I I ..I o _ W ",
"U+U+Q+P+O+N+N+N+N+N+N+N+N+O+P+Q+U+U+Q+P+O+N+N+N+N+N+N+N+N+O+P+Q+U+V+W+s+X+M.M.M.M.1+[+N.G.C.  ] n.i.a.M 3.K J I I I I +.I p ( W ",
"N+N+N+N+N+O+P+Q+U+V+>@,@=@S+N+N+N+N+S+=@,@>@V+U+Q+P+O+N+N+N+N+N+N+N+N+'@)@h+7+N.|+        C.  ] n.6.5.:.[.(./.J {.>.>.@.J q 4 W ",
"F+F+G+F+H+I+J+K+L+!@Z+~@-@H+F+G+F+F+G+-@$@Z+!@L+K+J+I+H+G+H+G+G+F+F+G+-@$@g+{@=+>+y.z.)   C.  ] n.6.a.|.4.[.(.K J I I V K r 5 W ",
"w+w+w+w+w+@@+@]@P+s+`+v+^@t+B+n+n+B+t+^@v+`+s+P+]@+@@@w+w+w+w+w+w+w+w+t+u+/@5+-+[+  y.    C.  g.o.e.d.a.5.}._.L ].,.,.#.L s 6 W ",
"n+n+n+o+n+*@@@M+O+(@ @_@:@u+t+o+o+t+u+:@_@ @(@O+M+@@*@n+o+n+n+n+n+n+n+B+t+e+4+;+<+  y.    D.  l.p.j.e.6.6.|.:.M ^.'.'.$.M t 7 W ",
"n+n+n+o+n+*@@@M+O+<@[@ @}@|@-@1@1@-@|@}@ @[@<@O+M+@@*@n+o+n+n+n+n+n+n+B+t+e+4+;+<+  y.    z.  r.q.k.f.N 7.N N N N N N %.N u 8 W ",
"w+w+w+w+w+@@+@.@P+R+2@(@s+)@'@N+N+'@)@s+(@2@R+P+.@+@@@w+w+w+w+w+w+w+w+t+u+/@5+-+[+  y.    )   t.r.l.g.] ] ] ] { ).).).{ { 8 ! W ",
"F+F+F+1@F+M+3@4@Q+  y.                    z.y.2@[@J+I+H+G+H+G+G+F+F+G+-@$@g+{@=+>+y.z.)   )   t.r.l.g.] ] ] ] { ).).).{ { 8 ! W ",
"N+N+N+N+N+O+P+Q+U+) z.z.z.5@D.D.D.D.5@z.z.z.) U+Q+P+O+N+N+N+N+N+N+N+N+'@)@h+7+N.|+        z.  r.q.k.f.N 7.N N N N N N %.N u 8 x.",
"                                      )   U+Q+P+O+N+N+N+N+O+P+Q+U+V+W+s+X+M.M.M.M.1+[+N.G.D.  l.p.j.e.6.6.|.:.M ^.'.'.$.M t 7 B.",
"D.D.D.D.D.D.z.y.)                     y.  Q+4@3@M+G+G+G+H+I+J+K+L+Y+Z+`+ @!+!+T.T.;+-+O.N.C.) g.o.e.d.a.5.}._.L ].,.,.#.L s 6 F.",
"                                      z.  P+.@+@@@w+w+w+w+@@+@J+P+#@$@j+%@&@&@&@&@b+c+-+[+C.y.] n.6.a.|.4.[.(.K J I I V S r b F.",
"                                      D.  O+M+@@*@n+o+o+n+*@@@I+O+=@-@i+;@Z.&@Z.Z.l+b+;+1+C.y.] n.6.5.:.[.(./.J {.>.>.@.J q 4 F.",
"                                      D.  O+M+@@*@n+o+o+n+*@@@I+O+=@-@i+;@Z.&@Z.Z.l+b+;+1+C.y.] n.i.a.M 3.K J I I I I ` G l 2 F.",
"                                      z.  P+.@+@@@w+w+w+w+@@+@J+P+#@$@j+%@&@&@&@&@b+c+-+[+C.y.] n.i.a.^.2.J {.I I I I  .R n 1 F.",
"                              ) y.5@D.6@z.2@4@3@M+G+G+G+H+I+J+K+L+Y+Z+`+ @!+!+T.T.;+-+O.N.C.) ] n.h.a.'.1.I >.I I I I &.E j | F.",
"                                      )   U+Q+P+O+N+N+N+N+O+P+Q+U+V+W+s+X+M.M.M.M.1+[+N.G.C.  ] n.h.a.'.1.I >.I I @.I X D i } F.",
"                          )   7@W+,@'@O+P+Q+U+U+Q+P+O+N+N+N+N+N+N+N+N+'@)@h+7+N.|+        C.  ] n.h.a.'.1.I >.I I @.I *.O v 9 F.",
"                          y.  W+8@|@9@M+.@0@2@2@K+J+I+H+G+H+G+G+F+F+G+-@$@g+{@=+>+y.z.)   C.  ] n.h.a.'.1.I >.I I @.I *.O v 9 F.",
"                          5@  ,@|@a@t+@@b@J+P+P+.@+@@@w+w+w+w+w+w+w+w+t+u+/@5+-+[+  y.    C.  ] n.h.a.'.1.I >.I I @.I X D i } F.",
"                          D.  '@9@t+c@*@@@I+O+O+I+@@*@n+o+n+n+n+n+n+n+B+t+e+4+;+<+  y.    C.  ] n.h.a.'.1.I >.I I I I &.E j | F.",
"                          D.  O+M+@@*@c@t+-@'@O+I+@@*@n+o+n+n+n+n+n+n+B+t+e+4+;+<+  y.    C.  ] n.h.a.'.1.I >.I I I I  .F n 1 F.",
"                          z.  P+.@b@@@t+a@$@,@P+J++@@@w+w+w+w+w+w+w+w+t+u+/@5+-+[+  y.    C.  ] n.h.a.'.1.I >.I I I I ` G l 2 B.",
"                          y.  Q+4@.@M+-@$@Z+!@L+K+J+I+H+G+H+G+G+F+F+G+-@$@g+{@=+>+y.z.)   C.  ] n.h.a.'.1.I >.I I I I +.I p ( x."};
