/* XPM */
static char * int_h_cr_xpm[] = {
"64 64 334 2",
"  	c #433B52",
". 	c #423A52",
"+ 	c #413952",
"@ 	c #413A52",
"# 	c #463E53",
"$ 	c #4F4454",
"% 	c #4F4455",
"& 	c #948F83",
"* 	c #948A7C",
"= 	c #948474",
"- 	c #937B6D",
"; 	c #937C6D",
"> 	c #927769",
", 	c #927669",
"' 	c #907267",
") 	c #8D6862",
"! 	c #8A5E5E",
"~ 	c #86565B",
"{ 	c #774C57",
"] 	c #584053",
"^ 	c #949186",
"/ 	c #948878",
"( 	c #948877",
"_ 	c #5A4555",
": 	c #7C595C",
"< 	c #8C6762",
"[ 	c #917267",
"} 	c #7E5B5D",
"| 	c #654E58",
"1 	c #685E61",
"2 	c #E0D8B8",
"3 	c #E0D1AB",
"4 	c #DFC69D",
"5 	c #DDB990",
"6 	c #DDBA91",
"7 	c #DFC79D",
"8 	c #DDB289",
"9 	c #DCB188",
"0 	c #DAAA84",
"a 	c #D4997A",
"b 	c #CF8871",
"c 	c #C9796A",
"d 	c #AF6661",
"e 	c #E0DBBE",
"f 	c #E0D8B7",
"g 	c #E0CEA4",
"h 	c #E0CDA3",
"i 	c #AF6561",
"j 	c #B77F6D",
"k 	c #B8806D",
"l 	c #857A72",
"m 	c #FEECC2",
"n 	c #FEE6B6",
"o 	c #FDDCA9",
"p 	c #FCD19D",
"q 	c #FCD19E",
"r 	c #FBCA97",
"s 	c #F9C393",
"t 	c #F3B68B",
"u 	c #EEA380",
"v 	c #E68D74",
"w 	c #C77166",
"x 	c #855159",
"y 	c #FEEFC8",
"z 	c #FEE2B0",
"A 	c #FEE2AF",
"B 	c #C67066",
"C 	c #D3997B",
"D 	c #F3B58A",
"E 	c #F9C493",
"F 	c #FDDDAA",
"G 	c #938576",
"H 	c #FDD8A9",
"I 	c #FDD6A4",
"J 	c #FDD29E",
"K 	c #FCCD9A",
"L 	c #FDD29F",
"M 	c #FCCB98",
"N 	c #FCCB97",
"O 	c #FBC996",
"P 	c #F4B389",
"Q 	c #E99478",
"R 	c #C77267",
"S 	c #FDD5A4",
"T 	c #FDD9AC",
"U 	c #FDD4A1",
"V 	c #C77066",
"W 	c #FCC996",
"X 	c #937D6E",
"Y 	c #FBCB97",
"Z 	c #F6BB8E",
"` 	c #E9977A",
" .	c #855059",
"..	c #DCB289",
"+.	c #FBCA96",
"@.	c #FAC896",
"#.	c #F3B389",
"$.	c #E89478",
"%.	c #F4B88C",
"&.	c #EEA581",
"*.	c #E99477",
"=.	c #E48670",
"-.	c #855259",
";.	c #D9AA84",
">.	c #E89377",
",.	c #E58771",
"'.	c #E3816E",
").	c #F5BA8E",
"!.	c #F2B389",
"~.	c #EDA380",
"{.	c #E48671",
"].	c #E3806D",
"^.	c #E27F6D",
"/.	c #C77167",
"(.	c #895E5E",
"_.	c #CE8871",
":.	c #F5B88C",
"<.	c #8F6E65",
"[.	c #E37F6D",
"}.	c #C67166",
"|.	c #EFA581",
"1.	c #885D5E",
"2.	c #E37E6C",
"3.	c #E07969",
"4.	c #C46A62",
"5.	c #834E57",
"6.	c #E27E6C",
"7.	c #E27E6D",
"8.	c #D96B60",
"9.	c #BC5A59",
"0.	c #7F4654",
"a.	c #BC5958",
"b.	c #C87267",
"c.	c #C56A62",
"d.	c #BE5A59",
"e.	c #A44A53",
"f.	c #703E51",
"g.	c #A34952",
"h.	c #784C57",
"i.	c #543A51",
"j.	c #6E3E51",
"k.	c #BD5A59",
"l.	c #E07869",
"m.	c #3F3851",
"n.	c #3E3851",
"o.	c #3D3851",
"p.	c #3C3851",
"q.	c #3B3851",
"r.	c #A54A53",
"s.	c #BC5959",
"t.	c #3A3751",
"u.	c #3B3751",
"v.	c #473852",
"w.	c #533853",
"x.	c #5C3854",
"y.	c #613853",
"z.	c #653952",
"A.	c #693B51",
"B.	c #6B3B50",
"C.	c #543853",
"D.	c #824F58",
"E.	c #7D4D56",
"F.	c #6E4754",
"G.	c #533E52",
"H.	c #453852",
"I.	c #6F3757",
"J.	c #803758",
"K.	c #893957",
"L.	c #913C54",
"M.	c #973F51",
"N.	c #9B414F",
"O.	c #C36F65",
"P.	c #B96A61",
"Q.	c #9F5D5B",
"R.	c #6E4855",
"S.	c #4F3853",
"T.	c #803858",
"U.	c #953959",
"V.	c #9F3C56",
"W.	c #A63F53",
"X.	c #AC4350",
"Y.	c #AF444E",
"Z.	c #603953",
"`.	c #683A51",
" +	c #6C3C50",
".+	c #813858",
"++	c #E9987A",
"@+	c #E59276",
"#+	c #DB876F",
"$+	c #BC7365",
"%+	c #7E5258",
"&+	c #563853",
"*+	c #883957",
"=+	c #9E3C56",
"-+	c #A74053",
";+	c #AC4250",
">+	c #AE444F",
",+	c #883956",
"'+	c #6E3757",
")+	c #843A57",
"!+	c #943F52",
"~+	c #EAA27F",
"{+	c #CA8670",
"]+	c #875D5D",
"^+	c #593853",
"/+	c #593752",
"(+	c #7C3954",
"_+	c #8F3B54",
":+	c #963F50",
"<+	c #99404F",
"[+	c #9A414F",
"}+	c #503653",
"|+	c #6C3657",
"1+	c #833957",
"2+	c #933E52",
"3+	c #9A404E",
"4+	c #923E52",
"5+	c #593852",
"6+	c #903C54",
"7+	c #983F51",
"8+	c #7E3A54",
"9+	c #5B3952",
"0+	c #E48771",
"a+	c #F8C393",
"b+	c #543852",
"c+	c #4B3851",
"d+	c #5C3952",
"e+	c #663A52",
"f+	c #6A3B51",
"g+	c #483851",
"h+	c #7A4D56",
"i+	c #774955",
"j+	c #6F4052",
"k+	c #613A50",
"l+	c #4D3851",
"m+	c #794A55",
"n+	c #754453",
"o+	c #714051",
"p+	c #6D3D50",
"q+	c #673A51",
"r+	c #5E3853",
"s+	c #E58872",
"t+	c #EA997A",
"u+	c #F1AD86",
"v+	c #F8C191",
"w+	c #B5685F",
"x+	c #B5675F",
"y+	c #AF5F5B",
"z+	c #A14D53",
"A+	c #883F4F",
"B+	c #603A50",
"C+	c #B6685F",
"D+	c #B2625C",
"E+	c #AC5756",
"F+	c #A54D51",
"G+	c #9E4550",
"H+	c #513753",
"I+	c #E58972",
"J+	c #EA9A7B",
"K+	c #F1AE86",
"L+	c #F8C192",
"M+	c #CD7363",
"N+	c #C86C5F",
"O+	c #BD5D58",
"P+	c #A24E53",
"Q+	c #CB6F60",
"R+	c #C6655B",
"S+	c #BE5955",
"T+	c #B44C51",
"U+	c #A84251",
"V+	c #9B3C56",
"W+	c #FCCF9D",
"X+	c #FCD5A6",
"Y+	c #DDBE99",
"Z+	c #937E72",
"`+	c #CE7363",
" @	c #CE7463",
".@	c #CD7162",
"+@	c #AE5F5B",
"@@	c #CD7262",
"#@	c #C4645B",
"$@	c #B65153",
"%@	c #AD434F",
"&@	c #A84151",
"*@	c #F2B289",
"=@	c #FDD6A7",
"-@	c #FDE6BD",
";@	c #DFD1B2",
">@	c #948B80",
",@	c #7B4D56",
"'@	c #FEE6B7",
")@	c #948B7C",
"!@	c #B4675F",
"~@	c #883E4F",
"{@	c #5F3950",
"]@	c #513B51",
"^@	c #683F51",
"/@	c #6E3D51",
"(@	c #4A3951",
"_@	c #673F51",
":@	c #954A52",
"<@	c #A54C52",
"[@	c #9E4650",
"}@	c #593A50",
"|@	c #764553",
"1@	c #B54D51",
"2@	c #AE444E",
"3@	c #9B3D56",
"4@	c #653F52",
"5@	c #794B55",
"6@	c #B75253",
"7@	c #6B4554",
"8@	c #954B52",
"9@	c #A54D52",
"0@	c #9F4650",
"a@	c #553853",
"b@	c #4E3951",
"c@	c #833857",
"d@	c #6D3657",
"e@	c #623A50",
"f@	c #885C5D",
"g@	c #8D6B63",
"h@	c #917367",
"i@	c #917569",
"j@	c #937A6C",
"k@	c #938071",
"l@	c #84756C",
"m@	c #685C5E",
"n@	c #443B52",
"o@	c #413951",
"p@	c #403951",
"q@	c #473E54",
"r@	c #4F4555",
"s@	c #514555",
"  . + + + + + + + + @ @ @ @ @ @ @ @ @ @ + + + + @ @ + + + + + + + + + + + + + + + + + + + + + + + + + + + + + + + + + + + # $ % ",
"& & * = - ; = = ; > , ' ) ! ~ { ] ] { ~ ! ) ' , > - = * & ^ ^ & * / ( = - > , ' ) ! ~ { ] _ : < [ - = ( / * & & * = - [ < } | 1 ",
"2 2 3 4 5 6 4 7 6 8 9 0 a b c d { { d c b a 0 9 8 5 7 3 2 e e f 3 g h 7 5 8 9 0 a b c i { : j a 0 5 7 h g 3 f 2 3 7 5 0 a k } l ",
"m m n o p q o o q r r s t u v w x x w v u t s r r p o n m y y m n z A o q r r s t u v B x ) C D E q F A z n m m n F p E D a ) G ",
"H H I J K K J L K M N O E P Q R x x R Q P E O N M K L S H T T H S U U L K M N O E P Q V x [ 0 E W K L U U I H H I L K W E 0 [ X ",
"r r r r r r r r r r r Y r Z ` w  . .w ` Z r Y r r r r r r r r r r r r r r r r Y r Z ` B  .> ..r M r r r r r r r r r r M r 8 > , ",
"O O +.r r r r r r r r Y r Z ` w  . .w ` Z r Y r r r r r O O O O r r r r r r r Y r Z ` B  .> 8 r M r r r r +.O O +.r r M r 8 > , ",
"r r r r r r r r r r r @.s #.$.w  . .w $.#.s @.r r r r r r r r r r r r r r r r @.s #.$.B  .> 8 r M r r r r r r r r r r M r 8 > , ",
"r r r r r r r r r r r s t u v w x x w v u t s r r r r r r r r r r r r r r r r s t u v B x > ..r M r r r r r r r r r r M r 8 > , ",
"Y Y Y Y Y Y Y Y Y @.s %.&.*.=.w -.-.w =.*.&.%.s @.Y Y Y Y Y Y Y Y Y Y Y Y @.s %.&.*.=.B -.' ;.s O r r r r r r r r r r O s 0 ' > ",
"r r r r r r r r r s t &.>.,.'.w -.-.w '.,.>.&.t s r r r r r r r r r r r r s t &.>.,.'.B -.) C t E r r r r r r r r r r E t a ) , ",
").).).).).).).).).!.~.>.{.].^./.-.-./.^.].{.>.~.!.).).).).).).).).).).).).!.~.>.{.].^.w -.(._.&.:.s @.Y Y Y Y Y Y @.s :.&._.(.<.",
"` ` ` ` ` ` ` ` ` $.v =.'.[.^.w -.-.w ^.[.'.=.v $.` ` ` ` ` ` ` ` ` ` ` ` $.v =.'.[.^.}.-.~ c >.|.t s r r r r r r s t |.>.c ~ 1.",
"[.[.[.[.[.[.[.[.[.[.[.].[.2.3.4.5.5.4.3.2.[.].[.[.[.[.[.[.[.[.[.[.[.[.[.[.[.[.].[.2.3.4.5.-.R {.Q ~.!.).).).).).).!.~.Q {.R -.-.",
"6.6.6.6.6.6.6.6.6.7.7.^.^.3.8.9.0.0.9.8.3.^.^.7.7.6.6.6.6.6.6.6.6.6.6.6.6.7.7.^.^.3.8.a.0.-.w '.,.v $.` ` ` ` ` ` $.v ,.'.w -.x ",
"b.b.b.b.b.b.b.b.b.b.b.b.b.c.d.e.f.f.e.d.c.b.b.b.b.b.b.b.b.b.b.b.b.b.b.b.b.b.b.b.b.c.d.g.f.5.4.3.2.[.].[.[.[.[.[.[.].[.2.3.4.5.h.",
"-.-.-.-.-.-.-.-.-.-.-.-.-.5.0.f.i.i.f.0.5.-.-.-.-.-.-.-.-.-.-.-.-.-.-.-.-.-.-.-.-.5.0.j.i.0.k.8.l.7.7.6.6.6.6.6.6.7.7.l.8.k.0.] ",
"m.m.n.o.o.o.o.p.p.p.p.o.o.o.o.n.m.m.m.m.m.m.m.m.m.m.m.m.m.m.m.m.m.m.n.o.o.o.o.o.o.o.o.q.m.f.r.k.4./.R w w w w w w /.w 4.s.g.f.m.",
"t.t.t.t.t.t.t.t.t.t.t.t.t.t.u.p.n.n.p.u.t.t.t.t.t.t.t.t.t.t.t.t.t.t.t.t.t.t.t.t.t.t.u.q.n.i.f.0.5.-.-.-.-.-.-.-.-.-.-.5.0.f.i.n.",
"v.v.w.x.y.z.A.B.B.B.B.A.z.y.x.C.v.m.n.o.o.p.p.p.p.p.p.p.p.o.o.n.m.v.C.x.y.z.A.A.z.y.x.C.v.n.m.i.f.0.5.-.-.-.-.x  . . .D.E.F.G.H.",
"C.C.I.J.K.L.M.N.N.N.N.M.L.K.J.I.C.m.n.m.m.m.m.m.m.m.m.m.m.m.m.n.m.C.I.J.K.L.M.M.L.K.J.I.C.q.q.j.g.a.4.w /.w w w w w w O.P.Q.R.S.",
"x.x.T.U.V.W.X.Y.Y.Y.Y.X.W.V.U.T.x.v.w.Z.`. + + + + + + + +`.Z.w.v.x.T.U.V.W.X.X.W.V.U..+x.u.o.0.d.8.3.^.^.'.=.v $.++` @+#+$+%+&+",
"y.y.*+=+-+;+>+Y.Y.Y.Y.>+;+-+=+,+y.w.'+)+!+N.N.N.N.N.N.N.N.!+)+'+w.y.,+=+-+;+>+>+;+-+=+K.y.t.o.5.c.3.2.[.].,.*.u #.Z Z #.~+{+]+^+",
"/+/+(+_+:+<+[+[+[+[+[+[+<+:+_+(+/+}+|+1+2+[+N.[+[+[+<+3+<+4+1+|+}+5+(+6+M.[+[+[+N.7+L.8+9+t.n.-.b.^.[.'.0+>.&.t a+r r E t a ) b+",
"c+c+d+e+f+B.B.B.B.B.B.B.B.f+e+d+c+v.C.Z.`. + + + + + + + +`.Z.C.v.c+d+e+f+B.B.B.B.f+e+d+c+t.n.-.b.^.].=.>.&.%.s @.Y Y O E 0 ' g+",
"h+h+h+h+h+i+j+k+l+l+k+j+i+h+h+h+h+h+h+i+j+k+l+l+k+j+i+h+h+h+h+h+h+m+n+o+p+q+r+w.v.m.m.m.m.t.m.-.b.^.[.s+t+u+v+r r r r N +.9 , G.",
"w+w+w+w+x+y+z+A+B+B+A+z+y+x+w+w+w+C+w+y+z+A+B+B+A+z+y+x+w+x+w+w+w+D+E+F+G+2+1+'+H+o.p.n.n.t.m.-.b.^.[.I+J+K+L+r r r r M r 8 > R.",
"M+M+M+M+M+N+O+P+j+j+P+O+N+M+M+M+M+M+M+N+O+P+j+j+P+O+N+M+M+M+M+M+M+Q+R+S+T+U+V+)+r+m.o.m.m.t.m.-.b.7.[.v ~.t s r r r r W+X+Y+Z+h+",
"`+`+`+ @`+.@N++@i+i++@N+.@`+ @`+`+ @`+.@N++@i+i++@N+.@`+ @`+`+`+`+@@Q+#@$@%@&@!+q+m.o.m.m.t.m.-.b.7.[.$.*@a+@.r r +.r =@-@;@>@,@",
"`+`+`+ @`+.@N++@i+i++@N+.@`+ @`+`+ @`+.@N++@i+i++@N+.@`+ @`+`+`+`+@@Q+#@$@%@&@!+q+m.o.m.m.t.m.-.b.6.[.` ).r Y r r O r H m 2 & ,@",
"M+M+M+M+M+N+O+P+j+j+P+O+N+M+M+M+M+M+M+N+O+P+j+j+P+O+N+M+M+M+M+M+M+Q+R+S+T+U+V+)+r+m.o.m.m.t.m.-.b.6.[.` ).r Y r r +.r I '@3 )@h+",
"w+w+x+w+!@+@z+~@{@{@~@z++@!@w+x+w+w+x+y+z+~@{@{@~@z++@!@x+!@x+w+w+D+E+F+G+2+1+'+H+o.p.n.m.t.m.-.b.6.[.` ).r Y r r r r J o 4 = R.",
"h+h+h+h+h+i+j+k+l+l+k+j+i+h+h+h+h+h+h+i+j+k+l+l+k+j+i+h+h+h+h+h+h+m+n+o+p+q+r+w.v.m.m.m.m.t.m.-.b.6.[.` ).r Y r r r r K p 5 - G.",
"l+l+k+j+i+h+h+h+h+h+h+h+h+i+j+k+l+l+k+j+i+h+h+h+h+h+h+h+h+i+j+k+l+]@^@o+/@B.B.B.B.q+r+w.v.t.m.-.b.6.[.` ).r Y r r r r K q 6 ; (@",
"{@{@~@z++@!@w+x+w+w+x+w+!@+@z+~@{@{@~@z+y+x+w+w+x+x+!@x+!@+@z+~@{@_@:@<@[@[+[+N.N.!+)+I.w.t.n.-.b.6.[.` ).r Y r r r r J o 4 = }@",
"j+j+P+O+N+M+M+M+M+M+M+M+M+N+O+P+j+j+P+O+N+M+M+M+M+M+M+M+M+N+O+z+j+|@E+S+1@2@2@2@2@U+3@)+r+t.o.-.b.7.[.$.*@a+@.r r r r L o 7 = 4@",
"i+i++@N+.@`+ @`+`+`+`+ @`+.@N++@i+i++@N+.@`+ @`+`+`+`+ @`+.@N++@i+5@D+#@6@Y.2@Y.Y.%@U+!+q+t.o.-.b.7.[.v ~.t s r r r r K q 6 ; 7@",
"i+i++@N+.@`+ @`+`+`+`+ @`+.@N++@i+i++@N+.@`+ @`+`+`+`+ @`+.@N++@i+5@D+#@6@Y.2@Y.Y.%@U+!+q+t.o.-.b.^.[.I+J+K+L+r r r r M r 8 > 7@",
"j+j+P+O+N+M+M+M+M+M+M+M+M+N+O+P+j+j+P+O+N+M+M+M+M+M+M+M+M+N+O+z+j+|@E+S+1@2@2@2@2@U+3@)+r+t.o.-.b.^.[.s+t+u+v+r r r r N r 9 , 4@",
"B+B+A+z+y+x+w+w+w+w+w+w+x+y+z+A+B+B+A+z+y+w+C+w+w+w+x+w+x+y+z+~@B+^@8@9@0@[+[+N.N.!+)+I.w.t.n.-.b.^.].=.>.&.%.s @.Y Y O E 0 ' }@",
"l+l+k+j+i+h+h+h+h+h+h+h+h+i+j+k+l+l+k+j+i+h+h+h+h+h+h+h+h+i+j+k+l+]@^@o+/@B.B.B.B.q+r+w.v.t.m.-.b.^.[.'.0+>.&.t a+r r E t a ) (@",
" + + + + +`.Z.C.v.v.C.Z.`. + + + + + +`.Z.C.v.v.C.Z.`. + + + + + + + + + +`.Z.a@v.m.m.m.m.t.m.5.c.3.2.[.].,.*.u #.Z Z #.~+{+]+b@",
"[+[+[+[+<+4+c@d@}+}+d@c@4+<+[+[+[+N.[+2+1+d@}+}+d@1+4+<+3+<+[+[+[+[+[+[+[+2+1+'+H+o.p.n.m.u.m.0.d.8.3.^.^.'.=.v $.++` @+#+$+%+k+",
"N.N.N.N.N.!+)+I.w.w.I.)+!+N.N.N.N.N.N.!+)+I.w.w.I.)+!+N.N.N.N.N.N.N.N.N.N.!+)+I.w.m.n.m.m.q.p.j.g.a.4.w /.w w w w w w O.P.Q.R.e@",
" + + + + +`.Z.C.v.v.C.Z.`. + + + + + +`.Z.C.v.v.C.Z.`. + + + + + + + + + +`.Z.a@v.m.m.m.m.n.m.i.f.0.5.-.-.-.-.x  . . .D.E.F.G.b@",
"t.t.t.t.u.p.n.n.p.u.t.t.t.t.t.t.t.t.t.t.t.t.t.t.t.t.t.t.t.t.t.t.t.t.t.t.t.t.t.t.t.t.u.q.n.i.f.0.5.-.-.-.-.-.-.-.-.-.-.5.0.f.i.n.",
"p.p.p.p.p.o.o.n.m.m.n.o.o.p.p.p.p.p.p.o.o.n.m.m.n.o.o.p.p.p.p.p.p.p.p.p.p.o.o.n.m.m.m.p.m.f.r.k.4./.R w w w w w w /.w 4.s.g.f.n.",
"-.-.-.5.0.f.i.i.f.0.5.-.-.-.-.-.-.-.-.-.-.-.-.-.-.-.-.-.-.-.-.-.-.-.-.-.-.-.-.-.-.5.0.j.i.0.k.8.l.7.7.6.6.6.6.6.6.7.7.l.8.k.0.] ",
"b.b.b.c.d.e.f.f.e.d.c.b.b.b.b.b.b.b.b.b.b.b.b.b.b.b.b.b.b.b.b.b.b.b.b.b.b.b.b.b.b.c.d.g.f.5.4.3.2.[.].[.[.[.[.[.[.].[.2.3.4.5.h.",
"7.^.^.3.8.9.0.0.9.8.3.^.^.7.7.6.6.6.6.6.6.6.6.6.6.6.6.6.6.6.6.6.6.6.6.6.6.7.7.^.^.3.8.a.0.-.w '.,.v $.` ` ` ` ` ` $.v ,.'.w -.x ",
"[.].[.2.3.4.5.5.4.3.2.[.].[.[.[.[.[.[.[.[.[.[.[.[.[.[.[.[.[.[.[.[.[.[.[.[.[.[.].[.2.3.4.5.-.R {.Q ~.!.).).).).).).!.~.Q {.R -.-.",
"v =.'.[.^.w -.-.w ^.[.'.=.v $.` ` ` ` ` ` ` ` ` ` ` ` ` ` ` ` ` ` ` ` ` ` $.v =.'.[.^.}.-.~ c >.|.t s r r r r r r s t |.>.c ~ f@",
"~.>.{.].^./.-.-./.^.].{.>.~.!.).).).).).).).).).).).).).).).).).).).).).).!.~.>.{.].^.w -.(._.&.:.s @.Y Y Y Y Y Y @.s :.&._.(.g@",
"t &.>.,.'.w -.-.w '.,.>.&.t s r r r r r r r r r r r r r r r r r r r r r r s t &.>.,.'.B -.) C t E r r r r r r r r r r E t a ) h@",
"s %.&.*.=.w -.-.w =.*.&.%.s @.Y Y Y Y Y Y Y Y Y Y Y Y Y Y Y Y Y Y Y Y Y Y @.s %.&.*.=.B -.' ;.s O r r r r r r r r r r O s 0 ' i@",
"r s t u v w x x w v u t s r r r r r r r r r r r r r r r r r r r r r r r r r r s t u v B x > ..r M r r r r r r r r r r M r 8 > , ",
"r @.s #.$.w  . .w $.#.s @.r r r r r r r r r r r r r r r r r r r r r r r r r r @.s #.$.B  .> 8 r M r r r r r r r r r r M r 8 > , ",
"r Y r Z ` w  . .w ` Z r Y r r r r r r r r +.O O +.r r r r r r +.O O +.r r r r Y r Z ` B  .> 8 r M r r r r +.O O +.r r M r 8 > , ",
"r Y r Z ` w  . .w ` Z r Y r r r r r r r r r r r r r r r r r r r r r r r r r r Y r Z ` B  .> ..r M r r r r r r r r r r M r 8 > , ",
"K O E P Q R x x R Q P E O N M K L J K K J I H H I J K K J U U I H H I U U L K O E P Q V x [ 0 E W K L U U I H H I L K W E 0 [ j@",
"p s D u v w x x w v u t s r r q o o q p o n m m n o p q o A z n m m n z A F q s D u v B x ) C D E q F A z n m m n F p E D a ) k@",
"5 0 a b c d { { d c b a 0 9 8 6 7 4 6 5 4 3 2 2 3 4 5 5 4 h g 3 f f 3 g h 7 5 0 a b c i { : j a 0 5 7 h g 3 f 2 3 7 5 0 a k } l@",
"- ' < ! ~ { ] ] { ~ ! ) ' , > ; = = ; - = * & & * = - - = ( / * & & * / ( = - ' < ! ~ { ] _ : < [ - = ( / * & & * = - [ < } | m@",
"n@. + + + + + + + + + + + + + + + + + + + + + + + + + + + o@p@p@o@+ + + + + + + + + + + + + + + + + + + + + + + + + + + + q@r@s@"};
