/* XPM */
static char * int_m_cbl_xpm[] = {
"64 64 302 2",
"  	c #4D4155",
". 	c #927669",
"+ 	c #DCB188",
"@ 	c #FBCA97",
"# 	c #FCCB97",
"$ 	c #FBCB97",
"% 	c #F5BA8E",
"& 	c #E9977A",
"* 	c #E37F6D",
"= 	c #E27E6C",
"- 	c #C87267",
"; 	c #855259",
"> 	c #3F3851",
", 	c #3A3751",
"' 	c #463852",
") 	c #533853",
"! 	c #613A53",
"~ 	c #6D3F52",
"{ 	c #754453",
"] 	c #794A55",
"^ 	c #7A4D56",
"/ 	c #774955",
"( 	c #6F4052",
"_ 	c #613A50",
": 	c #4D3851",
"< 	c #3E3851",
"[ 	c #4C3F55",
"} 	c #937B6D",
"| 	c #DDB990",
"1 	c #FCD19D",
"2 	c #FCCD9A",
"3 	c #473852",
"4 	c #5E3853",
"5 	c #673A51",
"6 	c #6B3B50",
"7 	c #6D3D51",
"8 	c #714051",
"9 	c #6D3C50",
"0 	c #4D3951",
"a 	c #4D3F55",
"b 	c #948474",
"c 	c #DFC79D",
"d 	c #FDDCA9",
"e 	c #FDD29F",
"f 	c #6F3757",
"g 	c #843A57",
"h 	c #943F52",
"i 	c #9B414F",
"j 	c #9A414F",
"k 	c #9E4550",
"l 	c #A54C51",
"m 	c #883E4F",
"n 	c #5F3950",
"o 	c #A14D53",
"p 	c #AE5F5B",
"q 	c #B4675F",
"r 	c #B5685F",
"s 	c #B5675F",
"t 	c #893E4F",
"u 	c #603A50",
"v 	c #3D3851",
"w 	c #3C3851",
"x 	c #4D4055",
"y 	c #948A7C",
"z 	c #E0D1AB",
"A 	c #FEE6B6",
"B 	c #FDD5A4",
"C 	c #9B3D56",
"D 	c #A84251",
"E 	c #AE444E",
"F 	c #B44C51",
"G 	c #BE5955",
"H 	c #C15D57",
"I 	c #BA5755",
"J 	c #A24E53",
"K 	c #BD5D58",
"L 	c #C86C5F",
"M 	c #CD7363",
"N 	c #4E4156",
"O 	c #948F83",
"P 	c #E0D8B8",
"Q 	c #FEECC2",
"R 	c #FDD8A9",
"S 	c #FBC996",
"T 	c #AD434F",
"U 	c #AF444E",
"V 	c #B65153",
"W 	c #C4645B",
"X 	c #CA6C5F",
"Y 	c #C76B5F",
"Z 	c #CD7162",
"` 	c #CE7363",
" .	c #CE7463",
"..	c #AF5F5B",
"+.	c #3B3751",
"@.	c #949186",
"#.	c #E0DBBE",
"$.	c #FEEFC8",
"%.	c #FDD9AC",
"&.	c #B6685F",
"*.	c #A24D53",
"=.	c #8A3F4F",
"-.	c #FDDDAA",
";.	c #FAC896",
">.	c #F9C393",
",.	c #F2B389",
"'.	c #E89478",
").	c #E27E6D",
"!.	c #F3B68B",
"~.	c #EDA380",
"{.	c #E68D74",
"].	c #513753",
"^.	c #6E3757",
"/.	c #883E57",
"(.	c #9E4A54",
"_.	c #AC5756",
":.	c #B2625C",
"<.	c #393751",
"[.	c #907267",
"}.	c #DAAA84",
"|.	c #F4B88C",
"1.	c #EEA581",
"2.	c #E89377",
"3.	c #E48670",
"4.	c #E3806D",
"5.	c #E27F6D",
"6.	c #A24658",
"7.	c #B95858",
"8.	c #C6655B",
"9.	c #CB6F60",
"0.	c #8C6762",
"a.	c #D4997A",
"b.	c #F3B58A",
"c.	c #F9C493",
"d.	c #E48671",
"e.	c #E3816E",
"f.	c #663A51",
"g.	c #B04F56",
"h.	c #C2645C",
"i.	c #CD7262",
"j.	c #4C3E55",
"k.	c #8A5E5E",
"l.	c #CF8871",
"m.	c #EEA380",
"n.	c #F4B389",
"o.	c #F6BB8E",
"p.	c #F3B389",
"q.	c #E99477",
"r.	c #E58771",
"s.	c #E37E6C",
"t.	c #E07969",
"u.	c #C56A62",
"v.	c #834E57",
"w.	c #493C54",
"x.	c #86565B",
"y.	c #C9796A",
"z.	c #E99478",
"A.	c #D96B60",
"B.	c #BE5A59",
"C.	c #7F4654",
"D.	c #453B53",
"E.	c #774C57",
"F.	c #AF6661",
"G.	c #C77166",
"H.	c #C77267",
"I.	c #C77167",
"J.	c #C46A62",
"K.	c #BC5A59",
"L.	c #A44A53",
"M.	c #703E51",
"N.	c #483F54",
"O.	c #584053",
"P.	c #855159",
"Q.	c #855059",
"R.	c #543A51",
"S.	c #4F4458",
"T.	c #3C3751",
"U.	c #534659",
"V.	c #524558",
"W.	c #6D3D50",
"X.	c #514357",
"Y.	c #623A50",
"Z.	c #A64D52",
"`.	c #AD5756",
" +	c #8D6862",
".+	c #B85051",
"++	c #C05B56",
"@+	c #A14E53",
"#+	c #BF5A55",
"$+	c #C7675C",
"%+	c #663E51",
"&+	c #954A52",
"*+	c #AB5656",
"=+	c #927769",
"-+	c #DDB289",
";+	c #FCCB98",
">+	c #513B51",
",+	c #694051",
"'+	c #754553",
")+	c #794B55",
"!+	c #7B4D56",
"~+	c #FDD6A4",
"{+	c #FBCA96",
"]+	c #473D54",
"^+	c #DFC69D",
"/+	c #FDD29E",
"(+	c #FCD19E",
"_+	c #6F4152",
":+	c #9A404F",
"<+	c #948878",
"[+	c #E0CEA4",
"}+	c #FEE2B0",
"|+	c #FDD4A1",
"1+	c #AE434E",
"2+	c #C3645B",
"3+	c #C6675D",
"4+	c #BD5C57",
"5+	c #C86B5E",
"6+	c #9E4650",
"7+	c #C5635A",
"8+	c #C05D57",
"9+	c #A54C52",
"0+	c #B2484F",
"a+	c #B84F51",
"b+	c #BD5956",
"c+	c #BE635E",
"d+	c #A85E5D",
"e+	c #734856",
"f+	c #B85758",
"g+	c #C6695E",
"h+	c #AF454E",
"i+	c #B1484F",
"j+	c #AE4A53",
"k+	c #A44C5A",
"l+	c #8D485B",
"m+	c #633E55",
"n+	c #B75354",
"o+	c #B75454",
"p+	c #883F58",
"q+	c #933E52",
"r+	c #833957",
"s+	c #6D3757",
"t+	c #5D3853",
"u+	c #523753",
"v+	c #533753",
"w+	c #6A3B50",
"x+	c #553853",
"y+	c #603953",
"z+	c #683A51",
"A+	c #6C3C50",
"B+	c #3B3851",
"C+	c #BC5958",
"D+	c #A34952",
"E+	c #6E3E51",
"F+	c #BD5A59",
"G+	c #A54A53",
"H+	c #E07869",
"I+	c #EFA581",
"J+	c #C67166",
"K+	c #895E5E",
"L+	c #CE8871",
"M+	c #F5B88C",
"N+	c #D3997B",
"O+	c #C67066",
"P+	c #D9AA84",
"Q+	c #DCB289",
"R+	c #917267",
"S+	c #FCC996",
"T+	c #C77066",
"U+	c #FEE2AF",
"V+	c #554759",
"W+	c #7E5B5D",
"X+	c #B8806D",
"Y+	c #E0D8B7",
"Z+	c #E0CDA3",
"`+	c #B77F6D",
" @	c #7C595C",
".@	c #AF6561",
"+@	c #DDBA91",
"@@	c #5A4B59",
"#@	c #654E58",
"$@	c #948877",
"%@	c #5A4555",
"&@	c #937C6D",
"*@	c #5A4A59",
"=@	c #685D60",
"-@	c #85796F",
";@	c #938374",
">@	c #8F6E65",
",@	c #885D5E",
"'@	c #784C57",
")@	c #443852",
"!@	c #4F3853",
"~@	c #5B3C54",
"{@	c #684454",
"]@	c #6E4855",
"^@	c #6B4554",
"/@	c #653E52",
"(@	c #593A50",
"_@	c #493851",
":@	c #5A3A50",
"<@	c #4A3951",
"  . + @ # @ @ @ @ $ @ % & * = - ; > , > > > > ' ) ! ~ { ] ^ ^ ^ ^ ^ ^ ^ ^ / ( _ : : _ ( / ^ ^ / ( _ : > < > > > > > > > > > > > ",
"[ } | 1 2 @ @ @ @ $ @ % & * = - ; > , 3 ) 4 5 6 6 6 6 7 8 8 9 _ 0 : _ ( / ^ ^ ^ ^ ^ ^ ^ ^ / ( _ : > < > > > > > > > > > > > > > ",
"a b c d e @ @ @ @ $ @ % & * = - ; < , ) f g h i i j j k l l k m n n m o p q r s r r s r q p o t u v w > > > > > > > > > > > > > ",
"x y z A B @ @ @ @ $ @ % & * = - ; v , 4 g C D E E E E F G H I J ( ( J K L M M M M M M M M L K J ( > w > > > > > > > > > > > > > ",
"N O P Q R @ S @ @ $ @ % & * = - ; v , 5 h D T U U E U V W X Y p / / p L Z `  .` ` ` `  .` Z L ../ > +.> > > > > > > > > > > > > ",
"N @.#.$.%.@ S @ @ $ @ % & * = - ; v , 5 h D T U U E U V W X Y p / / p L Z `  .` ` ` `  .` Z L ../ > +.> > > > > > > > > > > > > ",
"N @.#.$.%.@ S @ @ $ @ % & * = - ; v , 4 g C D E E E E F G H I J ( ( J K L M M M M M M M M L K J ( > w > > > > > > > > > > > > > ",
"N O P Q R @ S @ @ $ @ % & * = - ; < , ) f g h i i j j k l l k m n n m o p q r s r r r &.r ..*.=._ > v > > > > > > > > > > > > > ",
"N y z A B @ @ @ @ $ @ % & * = - ; > , 3 ) 4 5 6 6 6 6 7 8 8 9 _ 0 : _ ( / ^ ^ ^ ^ ^ ^ ^ ^ / ( _ : > < > > > > > > > > > > > > > ",
"N b c -.e @ @ @ @ ;.>.,.'.* ).- ; > , > > > > ' ) ! ~ { ] ^ ^ ^ ^ ^ ^ ^ ^ / ( _ : > < > > > > > > > > > > > > > > > > > > > > > ",
"N } | 1 2 @ @ @ @ >.!.~.{.* ).- ; > , > < w v ].^./.(._.:.s r s r r s r q p o t n +.<.+.+.+.w v < > > > > > > > > > > > > > > > ",
"N [.}.>.S $ $ ;.>.|.1.2.3.4.5.- ; > , > > v > 4 g 6.7.8.9.M M M M M M M M L K J ( > w > > > > > > > > > > > > > > > > > > > > > ",
"x 0.a.b.c.@ @ >.!.1.2.d.e.* 5.- ; > , > > v > f.h g.h.9.i.` ` ` ` ` `  .` Z L ../ > +.> > > > > > > > > > > > > > > > > > > > > ",
"j.k.l.m.n.o.o.p.m.q.r.4.* s.t.u.v.> , > > v > f.h g.h.9.i.` ` ` ` ` `  .` Z L ../ > +.> > > > > > > > > > > > > > > > > > > > > ",
"w.x.y.{.z.& & '.{.3.e.5.5.t.A.B.C.> +.> > v > 4 g 6.7.8.9.M M M M M M M M L K J ( > w > > > > > > > > > > > > > > > > > > > > > ",
"D.E.F.G.H.G.G.G.G.G.G.I.G.J.K.L.M.> w > < w v ].^./.(._.:.s r s r r r &.r ..*.=._ > v > > > > > > < v w +.+.+.+.+.+.+.+.+.+.w v ",
"N.O.E.P.P.Q.Q.Q.P.; ; ; ; v.C.M.R.> < > > > > ' ) ! ~ { ] ^ ^ ^ ^ ^ ^ ^ ^ / ( _ : > < > > > > > > > > > > > > > > > > > > > > > ",
"S.O.E.P.P.Q.Q.Q.P.; ; ; ; v.C.M.R.> < 3 ) 4 5 6 6 6 6 7 8 8 9 _ 0 < w w w T.+.+.+.+.+.+.T.w w w < : _ ( / ^ ^ ^ ^ ^ ^ ^ ^ / ( _ ",
"U.E.F.G.H.G.G.G.G.G.G.I.G.J.K.L.M.< w ) f g h i i j j k l l k t n +.<.+.+.+.w v < > > > > > > v > _ =.*...r &.r r r r &.r ..*.=.",
"V.x.y.{.z.& & '.{.3.e.5.5.t.A.B.C.v +.4 g C D E E E E F G H I J ( 0 u W.8 { ] ^ ^ ^ ^ ] { 8 W.u 0 ( J K L M M M M M M M M L K J ",
"X.k.l.m.n.o.o.p.m.q.r.4.* s.t.u.v.v , 5 h D T U U E U V W X Y ../ Y.t k Z.`.:.r &.&.r :.`.Z.k t Y./ ..L Z `  .` ` ` `  .` Z L ..",
"X. +a.!.c.@ @ >.!.1.2.d.e.* 5.- ; v , 5 h D T U U E U V W X Y ../ W.k .+++8.9.`  . .` 9.8.++.+k W./ ..L Z `  .` ` ` `  .` Z L ..",
"X.[.}.>.S $ $ ;.>.|.1.2.3.4.5.- ; v , 4 g C D E E E E F G H I @+( 8 l #+$+9.i.` ` ` ` i.9.$+#+l 8 ( @+K L M M M M M M M M L K @+",
"X.. + @ # @ @ @ @ >.!.~.{.* ).- ; < , ) f g h i i j j k l l k m n %+&+*+:.q r s r r s r q :.*+&+%+n m o ..s r r s s q s q p o m ",
"X.=+-+@ ;+@ @ @ @ ;.>.,.'.* ).- ; > , 3 ) 4 5 6 6 6 6 7 8 8 9 _ 0 >+,+'+)+!+^ ^ ^ ^ ^ ^ !+)+'+,+>+: _ ( / ^ ^ ^ ^ ^ ^ ^ ^ / ( _ ",
"X.} | 1 2 @ @ @ @ $ @ % & * = - ; > , > > > > ' ) ! ~ { ] ^ ^ ^ ^ ^ ^ ^ ^ / ( _ : : _ ( / ^ ^ ^ ^ ^ ^ / ( _ : : _ ( / ^ ^ ^ ^ ^ ",
"X.b c d e @ @ @ @ $ @ % & * = - ; > , > < w v ].^./.(._.:.s r s r s s r q p o m n n m o p q r s s r s ..o m n n m o p q s q s s ",
"X.y z A ~+@ {+@ @ $ @ % & * = - ; > , > > v > 4 g 6.7.8.9.M M M M M M M M L K J ( ( J K L M M M M M M L K J ( ( J K L M M M M M ",
"X.O P Q R @ S @ @ $ @ % & * = - ; > , > > v > f.h g.h.9.i.` ` ` ` ` `  .` Z L p / / p L Z `  .` `  .` Z L p / / p L Z `  .` ` ` ",
"X.O P Q R @ S @ @ $ @ % & * = - ; > , > > v > f.h g.h.9.i.` ` ` ` ` `  .` Z L p / / p L Z `  .` `  .` Z L p / / p L Z `  .` ` ` ",
"N y z A ~+@ {+@ @ $ @ % & * = - ; > , > > v > 4 g 6.7.8.9.M M M M M M M M L K J ( ( J K L M M M M M M L K J ( ( J K L M M M M M ",
"]+b ^+d /+@ @ @ @ $ @ % & * = - ; > , > < w v ].^./.(._.:.q r s r r s r q p o m n n m o p q r s r r s ..o m n n m o p q s q s s ",
"D.} | 1 2 @ @ @ @ $ @ % & * = - ; > , > > > > ' ) ! ~ { ] ^ ^ ^ ^ ^ ^ ^ ^ / ( _ : : _ ( / ^ ^ ^ ^ ^ ^ / ( _ : : _ ( / ^ ^ ^ ^ ^ ",
"w.} | (+2 @ @ @ @ $ @ % & * = - ; > , 3 ) 4 5 6 6 6 6 _+/ / ( _ : 0 _ ( / ^ ^ ^ ^ ^ ^ ^ ^ / ( _ 0 0 _ ( / ^ ^ ^ ^ ^ ^ ^ ^ / ( _ ",
"j.b ^+d /+@ @ @ @ $ @ % & * = - ; < , ) f g h i i :+j o p p o m n n m o p q r s r r s r q p o m n n m o ..s r r s s q s q p o m ",
"x <+[+}+|+@ @ @ @ $ @ % & * = - ; v , 4 g C D E E 1+E V 2+3+4+J ( 9 k I 5+M  .M M M M  .M 5+I 6+9 9 6+I 5+M  .M M M M  .M 5+I 6+",
"N <+[+}+|+@ @ @ @ $ @ % & * = - ; v , 5 h D T U U E U F #+7+3+../ 8 l 8+X `  .` ` ` `  .` X 8+9+8 8 9+8+X `  .` ` ` `  .` X 8+9+",
"N b c -.e @ @ @ @ ;.>.,.'.* ).- ; v , 5 h D T U U U U 0+a+b+c+d+e+~ (.f+h.g+g+g+g+g+g+g+g+h.f+(.~ ~ (.f+h.g+g+g+g+g+g+g+g+h.f+(.",
"N } | (+2 @ @ @ @ >.!.~.{.* ).- ; v , 4 g C D E E E E h+i+j+k+l+m+! /.6.g.n+o+n+n+n+n+o+n+g.6.p+! ! p+6.g.n+o+n+n+n+n+o+n+g.6.p+",
"N [.}.>.S $ $ ;.>.|.1.2.3.4.5.- ; < , ) f g h i i j j j j q+r+s+].].s+r+q+j j j i i i i i h g f ) ) f g h i i i j j j j j q+r+s+",
"N 0.a.b.c.@ @ >.!.1.2.d.e.* 5.- ; > , 3 ) 4 5 6 6 6 6 6 6 f.t+u+' ' v+4 f.w+w+w+w+w+w+w+w+f.4 v+' ' v+4 f.w+w+w+w+w+w+w+w+f.4 v+",
"N k.l.m.n.o.o.p.m.q.r.4.* s.t.u.v.> , > > > > 3 x+y+z+A+A+A+A+A+A+A+A+A+A+z+y+x+3 > > > > > > > > > > > > > > 3 x+y+z+A+A+A+A+A+",
"N x.y.{.z.& & '.{.3.e.5.5.t.A.B.C.> +.> < w v ].^.r+q+j j j j j i i j j j q+r+^.].w B+w w v v < > > < v v B+w ].^.r+q+j j j j j ",
"N E.F.I.H.G.G.G.G.G.G.I.G.J.C+D+E+w B+> > < > ) f g h i i i i i i i i i i h g f ) > < > > > > > > > > > > < > ) f g h i i i i i ",
"x O.E.P.P.Q.Q.Q.P.; ; ; ; v.C.M.R.> < > > > > 3 x+y+z+A+A+A+A+A+A+A+A+A+A+z+y+x+3 > > > > > > > > > > > > > > 3 x+y+z+A+A+A+A+A+",
"j.R.M.C.v.; ; ; ; ; ; ; ; ; ; v.C.M.R.< B++., , , , , , , , , , , , , , , , , , , , , , +.w < < w +., , , , , , , , , , , , , , ",
"w.M.D+C+J.G.I.G.G.G.G.G.G.H.I.J.F+G+M.> w > > > < v v w w w w w w w w w w v v < > > > > > > > > > > > > > > > > < v v w w w w w ",
"D.C.F+A.H+).).= = = = = = ).).H+A.F+C.R.E+C.v.; ; ; ; ; ; ; ; ; ; ; ; ; ; ; ; ; ; ; ; v.C.M.R.R.M.C.v.; ; ; ; ; ; ; ; ; ; ; ; ; ",
"]+v.J.t.s.* 4.* * * * * * 4.* s.t.J.v.M.D+B.u.- - - - - - - - - - - - - - - - - - - - u.B.L.M.M.L.B.u.- - - - - - - - - - - - - ",
"N ; G.e.r.{.'.& & & & & & '.{.r.e.G.; C.C+A.t.5.5.).).= = = = = = = = = = = = ).).5.5.t.A.K.C.C.K.A.t.5.5.).).= = = = = = = = = ",
"X.; H.d.z.~.,.% % % % % % ,.~.z.d.H.; v.J.t.s.* 4.* * * * * * * * * * * * * * * * 4.* s.t.J.v.v.J.t.s.* 4.* * * * * * * * * * * ",
"X.x.y.2.I+!.>.@ @ @ @ @ @ >.!.I+2.y.x.; J+5.* e.3.{.'.& & & & & & & & & & & & '.{.3.e.* 5.G.; ; G.5.* e.3.{.'.& & & & & & & & & ",
"X.K+L+1.M+>.;.$ $ $ $ $ $ ;.>.M+1.L+K+; G.5.4.d.2.~.,.% % % % % % % % % % % % ,.~.2.d.4.5.I.; ; I.5.4.d.2.~.,.% % % % % % % % % ",
"X. +a.!.c.@ @ @ @ @ @ @ @ @ @ c.!.N+ +; O+e.r.2.1.!.>.@ @ @ @ @ @ @ @ @ @ @ @ >.!.1.2.r.e.G.; ; G.e.r.2.1.!.>.@ @ @ @ @ @ @ @ @ ",
"X.[.}.>.S @ @ @ @ @ @ @ @ @ @ S >.P+[.; O+3.q.1.|.>.;.$ $ $ $ $ $ $ $ $ $ $ $ ;.>.|.1.q.3.G.; ; G.3.q.1.|.>.;.$ $ $ $ $ $ $ $ $ ",
"X.=+-+@ ;+@ @ @ @ @ @ @ @ @ @ ;+@ Q+=+P.O+{.m.!.>.@ @ @ @ @ @ @ @ @ @ @ @ @ @ @ @ >.!.m.{.G.P.P.G.{.m.!.>.@ @ @ @ @ @ @ @ @ @ @ ",
"X.=+-+@ ;+@ @ @ @ @ @ @ @ @ @ ;+@ -+=+Q.O+'.p.>.;.@ @ @ @ @ @ @ @ @ @ @ @ @ @ @ @ ;.>.p.'.G.Q.Q.G.'.p.>.;.@ @ @ @ @ @ @ @ @ @ @ ",
"X.=+-+@ ;+@ @ {+S S {+@ @ @ @ ;+@ -+=+Q.O+& o.@ $ @ @ @ @ @ @ @ @ {+S S {+@ @ @ @ $ @ o.& G.Q.Q.G.& o.@ $ @ @ @ @ @ @ @ @ {+S S ",
"X.=+-+@ ;+@ @ @ @ @ @ @ @ @ @ ;+@ Q+=+Q.O+& o.@ $ @ @ @ @ @ @ @ @ @ @ @ @ @ @ @ @ $ @ o.& G.Q.Q.G.& o.@ $ @ @ @ @ @ @ @ @ @ @ @ ",
"X.R+}.c.S+2 e ~+R R ~+|+|+e 2 S+c.}.R+P.T+z.n.c.S # ;+2 e /+2 2 /+~+R R ~+e 2 ;+# S c.n.z.H.P.P.H.z.n.c.S # ;+2 e /+2 2 /+~+R R ",
"X. +a.b.c.1 -.A Q Q A }+U+-.(+c.b.N+ +P.O+{.m.!.>.@ @ (+d d (+1 d A Q Q A d 1 @ @ >.!.m.{.G.P.P.G.{.m.!.>.@ @ (+d d (+1 d A Q Q ",
"V+W+X+a.}.| c z P Y+z [+Z+c | }.a.`+ @E..@y.l.a.}.+ -++@c ^++@| ^+z P P z c | -++ }.a.l.y.F.E.E.F.y.l.a.}.+ -++@c ^++@| ^+z P P ",
"@@#@W+0.R+} b y O O y <+$@b } R+0. @%@O.E.x.k. +[.. =+&@b b &@} b y O O y b } =+. [. +k.x.E.O.O.E.x.k. +[.. =+&@b b &@} b y O O ",
"*@=@-@;@} . . . . =+. >@,@; P.'@O.> < > > < < )@!@~@{@]@]@]@]@]@]@]@]@]@]@^@/@(@_@_@(@/@^@]@]@^@/@:@<@> < > > > > > > > > > > > "};
