/* XPM */
static char * int_m_wl_xpm[] = {
"64 64 200 2",
"  	c #433B52",
". 	c #948877",
"+ 	c #E0CDA3",
"@ 	c #FEE2AF",
"# 	c #FDD4A1",
"$ 	c #FBCA97",
"% 	c #FBCB97",
"& 	c #F5BA8E",
"* 	c #E9977A",
"= 	c #E37F6D",
"- 	c #E27E6C",
"; 	c #C87267",
"> 	c #855259",
", 	c #3F3851",
"' 	c #3A3751",
") 	c #463852",
"! 	c #533853",
"~ 	c #633E55",
"{ 	c #734856",
"] 	c #7A4D56",
"^ 	c #7B4D56",
"/ 	c #774955",
"( 	c #6F4052",
"_ 	c #613A50",
": 	c #4D3851",
"< 	c #3E3851",
"[ 	c #423A52",
"} 	c #948474",
"| 	c #DFC79D",
"1 	c #FDDCA9",
"2 	c #FDD29F",
"3 	c #473852",
"4 	c #5E3853",
"5 	c #673A51",
"6 	c #6B3B50",
"7 	c #6D3D51",
"8 	c #714051",
"9 	c #6D3C50",
"0 	c #4D3951",
"a 	c #937B6D",
"b 	c #DDB990",
"c 	c #FCD19E",
"d 	c #FCCD9A",
"e 	c #6F3757",
"f 	c #843A57",
"g 	c #943F52",
"h 	c #9B414F",
"i 	c #9A414F",
"j 	c #9A404F",
"k 	c #9E4550",
"l 	c #A44C51",
"m 	c #A54C51",
"n 	c #883E4F",
"o 	c #5F3950",
"p 	c #A14D53",
"q 	c #AE5F5B",
"r 	c #B4675F",
"s 	c #B5685F",
"t 	c #B5675F",
"u 	c #893E4F",
"v 	c #603A50",
"w 	c #3D3851",
"x 	c #3C3851",
"y 	c #433A52",
"z 	c #927769",
"A 	c #DDB289",
"B 	c #FCCB98",
"C 	c #FAC896",
"D 	c #F9C393",
"E 	c #F2B389",
"F 	c #E89478",
"G 	c #E27E6D",
"H 	c #9B3D56",
"I 	c #A84251",
"J 	c #AE444E",
"K 	c #B44C51",
"L 	c #BE5955",
"M 	c #C15D57",
"N 	c #BA5755",
"O 	c #A24E53",
"P 	c #BD5D58",
"Q 	c #C86C5F",
"R 	c #CD7363",
"S 	c #927669",
"T 	c #DCB188",
"U 	c #FCCB97",
"V 	c #F3B68B",
"W 	c #EDA380",
"X 	c #E68D74",
"Y 	c #AD434F",
"Z 	c #AF444E",
"` 	c #B65153",
" .	c #C4645B",
"..	c #CA6C5F",
"+.	c #C76B5F",
"@.	c #CD7162",
"#.	c #CE7363",
"$.	c #CE7463",
"%.	c #AF5F5B",
"&.	c #3B3751",
"*.	c #907267",
"=.	c #DAAA84",
"-.	c #FBC996",
";.	c #F4B88C",
">.	c #EEA581",
",.	c #E89377",
"'.	c #E48670",
").	c #E3806D",
"!.	c #E27F6D",
"~.	c #8D6862",
"{.	c #D4997A",
"].	c #F9C493",
"^.	c #E48671",
"/.	c #E3816E",
"(.	c #8A5E5E",
"_.	c #CF8871",
":.	c #EEA380",
"<.	c #F4B389",
"[.	c #F6BB8E",
"}.	c #F3B389",
"|.	c #E99477",
"1.	c #E58771",
"2.	c #E37E6C",
"3.	c #E07969",
"4.	c #C56A62",
"5.	c #834E57",
"6.	c #86565B",
"7.	c #C9796A",
"8.	c #E99478",
"9.	c #D96B60",
"0.	c #BE5A59",
"a.	c #7F4654",
"b.	c #774C57",
"c.	c #AF6661",
"d.	c #C77166",
"e.	c #C77267",
"f.	c #C77167",
"g.	c #C46A62",
"h.	c #BC5A59",
"i.	c #A44A53",
"j.	c #703E51",
"k.	c #613A53",
"l.	c #6D3F52",
"m.	c #754453",
"n.	c #794A55",
"o.	c #584053",
"p.	c #855159",
"q.	c #855059",
"r.	c #543A51",
"s.	c #513753",
"t.	c #6E3757",
"u.	c #883E57",
"v.	c #9E4A54",
"w.	c #AC5756",
"x.	c #B2625C",
"y.	c #A24D53",
"z.	c #8A3F4F",
"A.	c #A24658",
"B.	c #B95858",
"C.	c #C6655B",
"D.	c #CB6F60",
"E.	c #663A51",
"F.	c #B04F56",
"G.	c #C2645C",
"H.	c #CD7262",
"I.	c #413952",
"J.	c #413951",
"K.	c #413A52",
"L.	c #433B53",
"M.	c #443C53",
"N.	c #443B53",
"O.	c #FCD19D",
"P.	c #443B52",
"Q.	c #948A7C",
"R.	c #E0D1AB",
"S.	c #FEE6B6",
"T.	c #FDD6A4",
"U.	c #FBCA96",
"V.	c #948F83",
"W.	c #E0D8B8",
"X.	c #FEECC2",
"Y.	c #FDD8A9",
"Z.	c #E0D8B7",
"`.	c #948878",
" +	c #E0CEA4",
".+	c #FEE2B0",
"++	c #8C6762",
"@+	c #F3B58A",
"#+	c #FDDDAA",
"$+	c #DFC69D",
"%+	c #FDD29E",
"&+	c #948E83",
"*+	c #FEEBC2",
"=+	c #FDD5A4",
"-+	c #949186",
";+	c #E0DBBE",
">+	c #FEEFC8",
",+	c #FDD9AC",
"'+	c #463C52",
")+	c #473D53",
"  . + @ # $ $ $ $ % $ & * = - ; > , ' , , , , ) ! ~ { ] ^ ] ] ] ] ] ] ] ] / ( _ : : _ ( / ] ] / ( _ : , < , , , , , , , , , , , ",
"[ } | 1 2 $ $ $ $ % $ & * = - ; > , ' 3 ! 4 5 6 6 6 6 7 8 8 9 _ 0 : _ ( / ] ] ] ] ] ] ] ] / ( _ : , < , , , , , , , , , , , , , ",
"[ a b c d $ $ $ $ % $ & * = - ; > < ' ! e f g h h i j k l m k n o o n p q r s t s s t s r q p u v w x , , , , , , , , , , , , , ",
"y z A $ B $ $ $ $ C D E F = G ; > w ' 4 f H I J J J J K L M N O ( ( O P Q R R R R R R R R Q P O ( , x , , , , , , , , , , , , , ",
"y S T $ U $ $ $ $ D V W X = G ; > w ' 5 g I Y Z Z J Z `  ...+.q / / q Q @.#.$.#.#.#.#.$.#.@.Q %./ , &., , , , , , , , , , , , , ",
"y *.=.D -.% % C D ;.>.,.'.).!.; > w ' 5 g I Y Z Z J Z `  ...+.q / / q Q @.#.$.#.#.#.#.$.#.@.Q %./ , &., , , , , , , , , , , , , ",
"y ~.{.V ].$ $ D V >.,.^./.= !.; > w ' 4 f H I J J J J K L M N O ( ( O P Q R R R R R R R R Q P O ( , x , , , , , , , , , , , , , ",
"y (._.:.<.[.[.}.:.|.1.).= 2.3.4.5.< ' ! e f g h h i i k m m k n o o n p q r s t s s t s r q p u v w x , , , , , , , , , , , , , ",
"y 6.7.X 8.* * F X './.!.!.3.9.0.a., &.3 ! 4 5 6 6 6 6 7 8 8 9 _ 0 : _ ( / ] ] ] ] ] ] ] ] / ( _ : , < , , , , , , , , , , , , , ",
"y b.c.d.e.d.d.d.d.d.d.f.d.g.h.i.j., x , , , , ) ! k.l.m.n.] ] ] ] ] ] ] ] / ( _ : : _ ( / ] ] / ( _ : , < , , , , , , , , , , , ",
"y o.b.p.p.q.q.q.p.> > > > 5.a.j.r., < , < x w s.t.u.v.w.x.t s t s s t s r q p n o o n p q t s %.y.z._ , w , , , , , , , , , , , ",
"y o.b.p.p.q.q.q.p.> > > > 5.a.j.r., < , , w , 4 f A.B.C.D.R R R R R R R R Q P O ( ( O P Q R R Q P O ( , x , , , , , , , , , , , ",
"y b.c.d.e.d.d.d.d.d.d.f.d.g.h.i.j., x , , w , E.g F.G.D.H.#.#.#.#.#.#.$.#.@.Q q / / q Q @.$.$.@.Q %./ , &., , , , , , , , , , , ",
"[ 6.7.X 8.* * F X './.!.!.3.9.0.a., &., , w , E.g F.G.D.H.#.#.#.#.#.#.$.#.@.Q q / / q Q @.$.$.@.Q %./ , &., , , , , , , , , , , ",
"I.(._.:.<.[.[.}.:.|.1.).= 2.3.4.5., ' , , w , 4 f A.B.C.D.R R R R R R R R Q P O ( ( O P Q R R Q P O ( , x , , , , , , , , , , , ",
"J.~.{.V ].$ $ D V >.,.^./.= !.; > , ' , < x w s.t.u.v.w.x.t s t s s t s r q p n o o n p q t s %.y.z._ , w , , , , , , , , , , , ",
"K.*.=.D -.% % C D ;.>.,.'.).!.; > , ' , , , , ) ! k.l.m.n.] ] ] ] ] ] ] ] / ( _ : : _ ( / ] ] / ( _ : , < , , , , , , , , , , , ",
"L.S T $ U $ $ $ $ D V W X = G ; > , ' 3 ! 4 5 6 6 6 6 7 8 8 9 _ 0 : _ ( / ] ] ] ] ] ] ] ] / ( _ : , < , , , , , , , , , , , , , ",
"M.z A $ B $ $ $ $ C D E F = G ; > < ' ! e f g h h i i k m m k n o o n p q r s t s s t s r q p u v w x , , , , , , , , , , , , , ",
"N.a b O.d $ $ $ $ % $ & * = - ; > w ' 4 f H I J J J J K L M N O ( ( O P Q R R R R R R R R Q P O ( , x , , , , , , , , , , , , , ",
"P.} | 1 2 $ $ $ $ % $ & * = - ; > w ' 5 g I Y Z Z J Z `  ...+.q / / q Q @.#.$.#.#.#.#.$.#.@.Q %./ , &., , , , , , , , , , , , , ",
"P.Q.R.S.T.$ U.$ $ % $ & * = - ; > w ' 5 g I Y Z Z J Z `  ...+.q / / q Q @.#.$.#.#.#.#.$.#.@.Q %./ , &., , , , , , , , , , , , , ",
"P.V.W.X.Y.$ -.$ $ % $ & * = - ; > w ' 4 f H I J J J J K L M N O ( ( O P Q R R R R R R R R Q P O ( , x , , , , , , , , , , , , , ",
"P.V.Z.X.Y.$ -.$ $ % $ & * = - ; > < ' ! e f g h h i i k m m k n o o n p q r s t s s t s r q p u v w x , , , , , , , , , , , , , ",
"P.Q.R.S.T.$ U.$ $ % $ & * = - ; > , ' 3 ! 4 5 6 6 6 6 7 8 8 9 _ 0 : _ ( / ] ] ] ] ] ] ] ] / ( _ : , < , , , , , , , , , , , , , ",
"P.`. +.+# $ $ $ $ % $ & * = - ; > , ' , , , , ) ! k.l.m.n.] ] ] ] ] ] ] ] / ( _ : : _ ( / ] ] / ( _ : , < , , , , , , , , , , , ",
"P.. + @ # $ $ $ $ % $ & * = - ; > , ' , < x w s.t.u.v.w.x.t s t s s t s r q p n o o n p q t s %.y.z._ , w , , , , , , , , , , , ",
"P.} | 1 2 $ $ $ $ % $ & * = - ; > , ' , , w , 4 f A.B.C.D.R R R R R R R R Q P O ( ( O P Q R R Q P O ( , x , , , , , , , , , , , ",
"P.a b c d $ $ $ $ % $ & * = - ; > , ' , , w , E.g F.G.D.H.#.#.#.#.#.#.$.#.@.Q q / / q Q @.$.$.@.Q %./ , &., , , , , , , , , , , ",
"P.z A $ B $ $ $ $ C D E F = G ; > , ' , , w , E.g F.G.D.H.#.#.#.#.#.#.$.#.@.Q q / / q Q @.$.$.@.Q %./ , &., , , , , , , , , , , ",
"y S T $ U $ $ $ $ D V W X = G ; > , ' , , w , 4 f A.B.C.D.R R R R R R R R Q P O ( ( O P Q R R Q P O ( , x , , , , , , , , , , , ",
"I.*.=.D -.% % C D ;.>.,.'.).!.; > , ' , < x w s.t.u.v.w.x.t s t s s t s r q p n o o n p q t s %.y.z._ , w , , , , , , , , , , , ",
"J.~.{.V ].$ $ D V >.,.^./.= !.; > , ' , , , , ) ! k.l.m.n.] ] ] ] ] ] ] ] / ( _ : : _ ( / ] ] / ( _ : , < , , , , , , , , , , , ",
"I.(._.:.<.[.[.}.:.|.1.).= 2.3.4.5., ' 3 ! 4 5 6 6 6 6 7 8 8 9 _ 0 : _ ( / ] ] ] ] ] ] ] ] / ( _ : , < , , , , , , , , , , , , , ",
"[ 6.7.X 8.* * F X './.!.!.3.9.0.a.< &.! e f g h h i i k m m k n o o n p q r s t s s t s r q p u v w x , , , , , , , , , , , , , ",
"y b.c.d.e.d.d.d.d.d.d.f.d.g.h.i.j.w x 4 f H I J J J J K L M N O ( ( O P Q R R R R R R R R Q P O ( , x , , , , , , , , , , , , , ",
"y o.b.p.p.q.q.q.p.> > > > 5.a.j.r.w < 5 g I Y Z Z J Z `  ...+.q / / q Q @.#.$.#.#.#.#.$.#.@.Q %./ , &., , , , , , , , , , , , , ",
"y o.b.p.p.q.q.q.p.> > > > 5.a.j.r.w < 5 g I Y Z Z J Z `  ...+.q / / q Q @.#.$.#.#.#.#.$.#.@.Q %./ , &., , , , , , , , , , , , , ",
"y b.c.d.e.d.d.d.d.d.d.f.d.g.h.i.j.w x 4 f H I J J J J K L M N O ( ( O P Q R R R R R R R R Q P O ( , x , , , , , , , , , , , , , ",
"y 6.7.X 8.* * F X './.!.!.3.9.0.a.< &.! e f g h h i i k m m k n o o n p q r s t s s t s r q p u v w x , , , , , , , , , , , , , ",
"y (._.:.<.[.[.}.:.|.1.).= 2.3.4.5., ' 3 ! 4 5 6 6 6 6 7 8 8 9 _ 0 : _ ( / ] ] ] ] ] ] ] ] / ( _ : , < , , , , , , , , , , , , , ",
"y ++{.@+].$ $ D V >.,.^./.= !.; > , ' , , , , ) ! k.l.m.n.] ] ] ] ] ] ] ] / ( _ : : _ ( / ] ] / ( _ : , < , , , , , , , , , , , ",
"y *.=.D -.% % C D ;.>.,.'.).!.; > , ' , < x w s.t.u.v.w.x.t s t s s t s r q p n o o n p q t s %.y.z._ , w , , , , , , , , , , , ",
"y a b c d $ $ $ $ D V W X = G ; > , ' , , w , 4 f A.B.C.D.R R R R R R R R Q P O ( ( O P Q R R Q P O ( , x , , , , , , , , , , , ",
"y } | #+2 $ $ $ $ C D E F = G ; > , ' , , w , E.g F.G.D.H.#.#.#.#.#.#.$.#.@.Q q / / q Q @.$.$.@.Q %./ , &., , , , , , , , , , , ",
"[ `. +.+# $ $ $ $ % $ & * = - ; > , ' , , w , E.g F.G.D.H.#.#.#.#.#.#.$.#.@.Q q / / q Q @.$.$.@.Q %./ , &., , , , , , , , , , , ",
"I.`. +.+# $ $ $ $ % $ & * = - ; > , ' , , w , 4 f A.B.C.D.R R R R R R R R Q P O ( ( O P Q R R Q P O ( , x , , , , , , , , , , , ",
"J.} $+1 %+$ $ $ $ % $ & * = - ; > , ' , < x w s.t.u.v.w.x.t s t s s t s r q p n o o n p q t s %.y.z._ , w , , , , , , , , , , , ",
"I.a b c d $ $ $ $ % $ & * = - ; > , ' , , , , ) ! k.l.m.n.] ] ] ] ] ] ] ] / ( _ : : _ ( / ] ] / ( _ : , < , , , , , , , , , , , ",
"y a b O.d $ $ $ $ % $ & * = - ; > , ' 3 ! 4 5 6 6 6 6 7 8 8 9 _ 0 : _ ( / ] ] ] ] ] ] ] ] / ( _ : , < , , , , , , , , , , , , , ",
"P.} $+1 %+$ $ $ $ % $ & * = - ; > < ' ! e f g h h i i k m m k n o o n p q r s t s s t s r q p u v w x , , , , , , , , , , , , , ",
"P.Q.R.S.T.$ U.$ $ % $ & * = - ; > w ' 4 f H I J J J J K L M N O ( ( O P Q R R R R R R R R Q P O ( , x , , , , , , , , , , , , , ",
"P.V.W.X.Y.$ -.$ $ % $ & * = - ; > w ' 5 g I Y Z Z J Z `  ...+.q / / q Q @.#.$.#.#.#.#.$.#.@.Q %./ , &., , , , , , , , , , , , , ",
"P.&+Z.*+Y.$ -.$ $ % $ & * = - ; > w ' 5 g I Y Z Z J Z `  ...+.q / / q Q @.#.$.#.#.#.#.$.#.@.Q %./ , &., , , , , , , , , , , , , ",
"P.Q.R.S.T.$ U.$ $ % $ & * = - ; > w ' 4 f H I J J J J K L M N O ( ( O P Q R R R R R R R R Q P O ( , x , , , , , , , , , , , , , ",
"P.Q.R.S.=+$ $ $ $ % $ & * = - ; > < ' ! e f g h h i i k m m k n o o n p q r s t s s t s r q p u v w x , , , , , , , , , , , , , ",
"P.&+Z.*+Y.$ -.$ $ % $ & * = - ; > , ' 3 ! 4 5 6 6 6 6 7 8 8 9 _ 0 : _ ( / ] ] ] ] ] ] ] ] / ( _ : , < , , , , , , , , , , , , , ",
"P.-+;+>+,+$ -.$ $ % $ & * = - ; > , ' , , , , ) ! k.l.m.n.] ] ] ] ] ] ] ] / ( _ : : _ ( / ] ] / ( _ : , < , , , , , , , , , , , ",
"P.-+;+>+,+$ -.$ $ % $ & * = - ; > , ' , < x w s.t.u.v.w.x.t s t s s t s r q p n o o n p q t s %.y.z._ , w , , , , , , , , , , , ",
"P.V.W.X.Y.$ -.$ $ % $ & * = - ; > , ' , , w , 4 f A.B.C.D.R R R R R R R R Q P O ( ( O P Q R R Q P O ( , x , , , , , , , , , , , ",
"P.Q.R.S.=+$ $ $ $ % $ & * = - ; > , ' , , w , E.g F.G.D.H.#.#.#.#.#.#.$.#.@.Q q / / q Q @.$.$.@.Q %./ , &., , , , , , , , , , , ",
"'+} | 1 2 $ $ $ $ % $ & * = - ; > , ' , , w , E.g F.G.D.H.#.#.#.#.#.#.$.#.@.Q q / / q Q @.$.$.@.Q %./ , &., , , , , , , , , , , ",
")+a b O.d $ $ $ $ % $ & * = - ; > , ' , , w , 4 f A.B.C.D.R R R R R R R R Q P O ( ( O P Q R R Q P O ( , x , , , , , , , , , , , ",
")+S T $ U $ $ $ $ % $ & * = - ; > , ' , < x w s.t.u.v.w.x.t s t s s t s r q p n o o n p q t s %.y.z._ , w , , , , , , , , , , , "};
