/* XPM */
static char * int_v_ct_xpm[] = {
"64 64 309 2",
"  	c #6B5461",
". 	c #624F5C",
"+ 	c #5D4C5C",
"@ 	c #5B4A5B",
"# 	c #5B4A5C",
"$ 	c #5B4B5C",
"% 	c #5C4E5D",
"& 	c #5D4F5E",
"* 	c #5A495B",
"= 	c #58465A",
"- 	c #58485A",
"; 	c #5C4C5A",
"> 	c #63525F",
", 	c #68505E",
"' 	c #654E58",
") 	c #7E5B5D",
"! 	c #8C6762",
"~ 	c #917267",
"{ 	c #937B6D",
"] 	c #948474",
"^ 	c #948A7C",
"/ 	c #948F83",
"( 	c #948878",
"_ 	c #948877",
": 	c #7C595C",
"< 	c #5A4555",
"[ 	c #584053",
"} 	c #774C57",
"| 	c #86565B",
"1 	c #8A5E5E",
"2 	c #8D6862",
"3 	c #907267",
"4 	c #927669",
"5 	c #927769",
"6 	c #937E72",
"7 	c #948B80",
"8 	c #948B7C",
"9 	c #937C6D",
"0 	c #5A4C5A",
"a 	c #694F5F",
"b 	c #B8806D",
"c 	c #D4997A",
"d 	c #DAAA84",
"e 	c #DDB990",
"f 	c #DFC79D",
"g 	c #E0D1AB",
"h 	c #E0D8B8",
"i 	c #E0D8B7",
"j 	c #E0CEA4",
"k 	c #E0CDA3",
"l 	c #B77F6D",
"m 	c #AF6561",
"n 	c #C9796A",
"o 	c #CF8871",
"p 	c #DCB188",
"q 	c #DDB289",
"r 	c #DDBE99",
"s 	c #DFD1B2",
"t 	c #DFC69D",
"u 	c #DDBA91",
"v 	c #534659",
"w 	c #6B5361",
"x 	c #F3B58A",
"y 	c #F9C493",
"z 	c #FCD19D",
"A 	c #FDDDAA",
"B 	c #FEE6B6",
"C 	c #FEECC2",
"D 	c #FEE2B0",
"E 	c #FEE2AF",
"F 	c #FCD19E",
"G 	c #D3997B",
"H 	c #855159",
"I 	c #C67066",
"J 	c #E68D74",
"K 	c #EEA380",
"L 	c #F3B68B",
"M 	c #F9C393",
"N 	c #FBCA96",
"O 	c #FBCA97",
"P 	c #FCD5A6",
"Q 	c #FDE6BD",
"R 	c #FEE6B7",
"S 	c #FDDCA9",
"T 	c #4E4257",
"U 	c #6D5663",
"V 	c #FCC996",
"W 	c #FCCD9A",
"X 	c #FDD29F",
"Y 	c #FDD6A4",
"Z 	c #FDD8A9",
"` 	c #FDD4A1",
" .	c #C77066",
"..	c #E99478",
"+.	c #F4B389",
"@.	c #FBC996",
"#.	c #FCCB97",
"$.	c #FCCB98",
"%.	c #FCCF9D",
"&.	c #FDD6A7",
"*.	c #FDD29E",
"=.	c #DCB289",
"-.	c #855059",
";.	c #E9977A",
">.	c #F6BB8E",
",.	c #FBCB97",
"'.	c #E89478",
").	c #F3B389",
"!.	c #F8C393",
"~.	c #FAC896",
"{.	c #D9AA84",
"].	c #855259",
"^.	c #E48670",
"/.	c #E99477",
"(.	c #EEA581",
"_.	c #F4B88C",
":.	c #F8C191",
"<.	c #F8C192",
"[.	c #E3816E",
"}.	c #E58771",
"|.	c #E89377",
"1.	c #F1AD86",
"2.	c #F1AE86",
"3.	c #895E5E",
"4.	c #CE8871",
"5.	c #F5B88C",
"6.	c #C77166",
"7.	c #E27F6D",
"8.	c #E3806D",
"9.	c #E48771",
"0.	c #EA997A",
"a.	c #EA9A7B",
"b.	c #EDA380",
"c.	c #F2B289",
"d.	c #F5BA8E",
"e.	c #EFA581",
"f.	c #C67166",
"g.	c #E37F6D",
"h.	c #E58872",
"i.	c #E58972",
"j.	c #664D5E",
"k.	c #C77267",
"l.	c #E48671",
"m.	c #F2B389",
"n.	c #834E57",
"o.	c #C46A62",
"p.	c #E07969",
"q.	c #E37E6C",
"r.	c #5F475B",
"s.	c #7F4654",
"t.	c #BC5958",
"u.	c #D96B60",
"v.	c #E27E6D",
"w.	c #E27E6C",
"x.	c #554459",
"y.	c #703E51",
"z.	c #A34952",
"A.	c #BE5A59",
"B.	c #C56A62",
"C.	c #C87267",
"D.	c #4F4257",
"E.	c #BD5A59",
"F.	c #E07869",
"G.	c #543A51",
"H.	c #6E3E51",
"I.	c #715E68",
"J.	c #C77167",
"K.	c #A54A53",
"L.	c #3F3851",
"M.	c #3B3851",
"N.	c #3D3851",
"O.	c #3C3851",
"P.	c #3E3851",
"Q.	c #79646B",
"R.	c #3B3751",
"S.	c #3A3751",
"T.	c #755C66",
"U.	c #775F68",
"V.	c #473852",
"W.	c #543853",
"X.	c #5C3854",
"Y.	c #613853",
"Z.	c #653952",
"`.	c #693B51",
" +	c #6B3B50",
".+	c #765C66",
"++	c #AF6661",
"@+	c #6F3757",
"#+	c #803758",
"$+	c #893957",
"%+	c #913C54",
"&+	c #973F51",
"*+	c #9B414F",
"=+	c #813858",
"-+	c #953959",
";+	c #9F3C56",
">+	c #A63F53",
",+	c #AC4350",
"'+	c #AF444E",
")+	c #803858",
"!+	c #533853",
"~+	c #603953",
"{+	c #683A51",
"]+	c #6C3C50",
"^+	c #553853",
"/+	c #9E3C56",
"(+	c #A74053",
"_+	c #AC4250",
":+	c #AE444F",
"<+	c #883956",
"[+	c #6E3757",
"}+	c #843A57",
"|+	c #943F52",
"1+	c #5B3952",
"2+	c #7E3A54",
"3+	c #903C54",
"4+	c #9A414F",
"5+	c #99404F",
"6+	c #963F50",
"7+	c #8F3B54",
"8+	c #7C3954",
"9+	c #593752",
"0+	c #503653",
"a+	c #6C3657",
"b+	c #833957",
"c+	c #933E52",
"d+	c #933F52",
"e+	c #4B3851",
"f+	c #5C3952",
"g+	c #663A52",
"h+	c #6A3B51",
"i+	c #533753",
"j+	c #4D3851",
"k+	c #613A50",
"l+	c #6F4052",
"m+	c #774955",
"n+	c #7A4D56",
"o+	c #6D3757",
"p+	c #603A50",
"q+	c #893F4F",
"r+	c #A14D53",
"s+	c #AF5F5B",
"t+	c #B5675F",
"u+	c #B5685F",
"v+	c #B6685F",
"w+	c #A24E53",
"x+	c #BD5D58",
"y+	c #C86C5F",
"z+	c #CD7363",
"A+	c #923E52",
"B+	c #CD7162",
"C+	c #CE7363",
"D+	c #CE7463",
"E+	c #6C5663",
"F+	c #FDD5A4",
"G+	c #AE5F5B",
"H+	c #B4675F",
"I+	c #883F4F",
"J+	c #949186",
"K+	c #E0DBBE",
"L+	c #FEEFC8",
"M+	c #FDD9AC",
"N+	c #463852",
"O+	c #613A53",
"P+	c #6D3F52",
"Q+	c #754553",
"R+	c #794A55",
"S+	c #4D3951",
"T+	c #6D3C50",
"U+	c #714051",
"V+	c #6D3D51",
"W+	c #673A51",
"X+	c #5E3853",
"Y+	c #523753",
"Z+	c #893E57",
"`+	c #9F4A54",
" @	c #AC5756",
".@	c #B2625C",
"+@	c #883E4F",
"@@	c #5F3950",
"#@	c #9E4550",
"$@	c #A54C51",
"%@	c #A54D52",
"&@	c #9F4650",
"*@	c #A24658",
"=@	c #B95858",
"-@	c #C6655B",
";@	c #CB6F60",
">@	c #BD5E59",
",@	c #BA5755",
"'@	c #C15D57",
")@	c #BE5955",
"!@	c #B44C51",
"~@	c #AE444E",
"{@	c #A84251",
"]@	c #9B3D56",
"^@	c #663A51",
"/@	c #B04F56",
"(@	c #C2645C",
"_@	c #CD7262",
":@	c #C76B5F",
"<@	c #CA6C5F",
"[@	c #C4645B",
"}@	c #B65153",
"|@	c #AD434F",
"1@	c #3A3851",
"2@	c #BC5A59",
"3@	c #A44A53",
"4@	c #6D3D50",
"  . + @ # @ @ @ @ $ % & & & & & & & & % $ @ @ $ % % $ @ @ @ @ @ @ @ @ @ @ @ @ @ @ @ @ @ @ @ @ @ @ @ @ @ @ @ @ @ @ # @ * = - ; > ",
", ' ) ! ~ { ] ^ / / ^ ( _ ] { ~ ! : < [ } | 1 2 3 4 5 6 7 / 8 ] { 9 ] ] 9 5 4 3 2 1 | } [ < : ! ~ { ] _ ( ^ / / ^ ] { ~ ! ) ' 0 ",
"a ) b c d e f g h i g j k f e d c l : } m n o c d p q r s h g t e u t f u q p d c o n m } : l c d e f k j g i h g f e d c b ) v ",
"w 2 c x y z A B C C B D E A F y x G 2 H I J K L M N O P Q C R S z F S S F O O M L K J I H 2 G x y F A E D B C C B A z y x c 2 T ",
"U ~ d y V W X Y Z Z Y ` ` X W V y d ~ H  ...+.y @.#.$.%.&.Z Y *.W W *.X W $.#.@.y +... .H ~ d y V W X ` ` Y Z Z Y X W V y d ~ T ",
"U 5 q O $.O O O O O O O O O O $.O =.5 -.I ;.>.O ,.O O O O O O O O O O O O O O ,.O >.;.I -.5 =.O $.O O O O O O O O O O $.O q 5 T ",
"U 5 q O $.O O N @.@.N O O O O $.O q 5 -.I ;.>.O ,.O O O N @.N O O O O O O O O ,.O >.;.I -.5 q O $.O O O O N @.@.N O O $.O q 5 T ",
"U 5 q O $.O O O O O O O O O O $.O q 5 -.I '.).!.~.O O O O O O O O O O O O O O ~.!.).'.I -.5 q O $.O O O O O O O O O O $.O q 5 T ",
"U 5 q O $.O O O O O O O O O O $.O =.5 H I J K L M O O O O O O O O O O O O O O M L K J I H 5 =.O $.O O O O O O O O O O $.O q 5 T ",
"U 3 d M @.O O O O O O O O O O @.M {.3 ].I ^./.(._.:.<.M ~.,.,.,.,.,.,.~.M <.:._.(./.^.I ].3 {.M @.O O O O O O O O O O @.M d 3 T ",
"U 2 c L y O O O O O O O O O O y L G 2 ].I [.}.|.(.1.2.L !.O O O O O O !.L 2.1.(.|.}.[.I ].2 G L y O O O O O O O O O O y L c 2 T ",
"U 3.4.(.5.M ~.,.,.,.,.,.,.~.M 5.(.4.3.].6.7.8.9.|.0.a.b.c.d.d.d.d.d.d.c.b.a.0.|.9.8.7.6.].3.4.(.5.M ~.,.,.,.,.,.,.~.M 5.(.4.3.T ",
"w | n |.e.L M O O O O O O M L e.|.n | ].f.7.g.[.^.h.i.J '.;.;.;.;.;.;.'.J i.h.^.[.g.7.f.].| n |.e.L M O O O O O O M L e.|.n | T ",
"j.].k.l...b.m.d.d.d.d.d.d.m.b...l.k.].n.o.p.q.g.8.g.g.g.g.g.g.g.g.g.g.g.g.g.g.8.g.q.p.o.n.].k.l...b.m.d.d.d.d.d.d.m.b...l.k.].T ",
"r.].6.[.}.J '.;.;.;.;.;.;.'.J }.[.6.].s.t.u.p.7.7.7.7.v.v.w.w.w.w.w.w.v.v.7.7.7.7.p.u.t.s.].6.[.}.J '.;.;.;.;.;.;.'.J }.[.6.].T ",
"x.n.o.p.q.g.8.g.g.g.g.g.g.8.g.q.p.o.n.y.z.A.B.C.C.C.C.C.C.C.C.C.C.C.C.C.C.C.C.C.C.B.A.z.y.n.o.p.q.g.8.g.g.g.g.g.g.8.g.q.p.o.n.D.",
"% s.E.u.F.v.v.w.w.w.w.w.w.v.v.F.u.E.s.G.H.s.n.].].].].].].].].].].].].].].].].].].n.s.H.G.s.E.u.F.v.v.w.w.w.w.w.w.v.v.F.u.E.s.@ ",
"I.y.z.t.o.6.J.6.6.6.6.6.6.k.J.o.E.K.y.L.M.N.N.N.N.O.O.N.N.N.N.P.L.L.L.L.L.L.L.L.L.L.L.O.L.y.K.E.o.J.k.6.6.6.6.6.6.J.6.o.t.z.y.U ",
"Q.G.y.s.n.].].].].].].].].].].n.s.y.G.P.M.R.S.S.S.S.S.S.S.S.S.S.S.S.S.S.S.S.S.S.S.S.R.M.P.G.y.s.n.].].].].].].].].].].n.s.y.G.T.",
"U.[ } H H -.-.-.H ].].].].n.s.y.G.L.P.V.W.X.Y.Z.`. + +`.Z.Y.X.W.V.L.P.N.N.O.O.O.O.N.N.P.L.P.L.G.y.s.n.].].].].H -.-.-.H H } [ .+",
"T.} ++J.k.6.6.6.6.6.6.J.6.o.t.z.H.M.M.W.@+#+$+%+&+*+*+&+%+$+#+@+W.L.P.L.L.L.L.L.L.L.L.L.L.M.O.H.z.t.o.6.J.6.6.6.6.6.6.k.J.++} T.",
"T.| n J ..;.;.'.J ^.[.7.7.p.u.A.s.N.R.X.=+-+;+>+,+'+'+,+>+;+-+)+X.V.!+~+{+]+]+]+]+{+~+^+V.R.L.s.A.u.p.7.7.[.^.J '.;.;...J n | T.",
"T.1 o K +.>.>.).K /.}.8.g.q.p.B.n.N.S.Y.$+/+(+_+:+'+'+:+_+(+/+<+Y.!+[+}+|+*+*+*+*+|+}+@+!+S.P.n.B.p.q.g.8.}./.K ).>.>.+.K o 1 T.",
"T.2 c L y O O M L (.|.l.[.g.7.C.].P.S.1+2+3+&+4+*+4+4+4+5+6+7+8+9+0+a+b+c+4+*+*+4+d+}+@+!+S.P.].C.7.g.[.l.|.(.L M O O y L c 2 T.",
"T.3 d M @.,.,.~.M _.(.|.^.8.7.C.].P.S.e+f+g+h+ + + + + + +h+g+f+e+V.W.~+{+]+]+]+]+{+~+^+V.S.L.].C.7.8.^.|.(._.M ~.,.,.@.M d 3 T.",
"T.4 p O #.O O O O M L b.J g.v.C.].L.S.L.L.V.!+i+V.j+k+l+m+n+n+n+n+n+n+m+l+k+j+V.i+!+V.L.L.S.L.].C.v.g.J b.L M O O O O #.O p 4 T.",
"T.5 q O $.O O O O ~.M m.'.g.v.C.].L.S.N.P.!+[+o+i+p+q+r+s+t+u+u+u+v+u+s+r+q+p+i+o+[+!+P.P.S.L.].C.v.g.'.m.M ~.O O O O $.O q 5 T.",
"T.{ e F W O O O O ,.O d.;.g.w.C.].L.S.N.L.~+}+b+~+l+w+x+y+z+z+z+z+z+z+y+x+w+l+~+b+}+~+L.N.S.L.].C.w.g.;.d.O ,.O O O O W F u 9 T.",
".+] f S X O O O O ,.O d.;.g.w.C.].L.S.N.L.{+|+A+{+m+s+y+B+C+D+C+C+D+C+B+y+s+m+{+A+|+{+L.N.S.L.].C.w.g.;.d.O ,.O O O O X S f ] .+",
"T._ k E ` O O O O ,.O d.;.g.w.C.].L.S.N.L.{+|+A+{+m+s+y+B+C+D+C+C+D+C+B+y+s+m+{+A+|+{+L.N.S.L.].C.w.g.;.d.O ,.O O O O *.S t ] T.",
"E+( j D ` O O O O ,.O d.;.g.w.C.].L.S.N.L.~+}+b+~+l+w+x+y+z+z+z+z+z+z+y+x+w+l+~+b+}+~+L.N.S.L.].C.w.g.;.d.O ,.O O O O W F u 9 U ",
"@ ^ g B F+O O O O ,.O d.;.g.w.C.].L.S.P.L.^+@+[+W.p+q+r+G+H+u+t+u+u+t+s+r+I+p+i+o+[+!+P.P.S.L.].C.w.g.;.d.O ,.O O O O W z e { @ ",
"x./ i C Z O @.O O ,.O d.;.g.w.C.].L.S.L.L.V.!+i+V.j+k+l+m+n+n+n+n+n+n+m+l+k+j+V.i+!+V.L.L.S.L.].C.w.g.;.d.O ,.O O O O *.S t ] D.",
"r.J+K+L+M+O @.O O ,.O d.;.g.w.C.].L.S.L.L.L.L.N+!+O+P+Q+R+m+l+k+j+S+k+T+U+U+V+ + +W+X+!+V.S.L.].C.w.g.;.d.O ,.O O N O Y B g ^ T ",
"j.J+K+L+M+O @.O O ,.O d.;.g.w.C.].L.S.L.L.P.P.Y+@+Z+`+ @.@G+r++@@@@@+@#@$@%@&@*+4+d+}+@+!+S.P.].C.w.g.;.d.O ,.O O @.O Z C h / T ",
"w / h C Z O @.O O ,.O d.;.g.w.C.].L.S.L.L.N.L.X+}+*@=@-@;@y+>@w+l+l+w+,@'@)@!@~@~@{@]@}+X+S.N.].C.w.g.;.d.O ,.O O @.O Z C h / T ",
"U ^ g B F+O O O O ,.O d.;.g.w.C.].L.S.L.L.N.L.^@|+/@(@;@_@B+y+G+m+m+G+:@<@[@}@'+~@|@{@|+W+S.N.].C.w.g.;.d.O ,.O O N O Y B g ^ T ",
"U ] f S X O O O O ,.O d.;.g.w.C.].L.S.L.L.N.L.^@|+/@(@;@_@B+y+G+m+m+G+:@<@[@}@'+~@|@{@|+W+S.N.].C.w.g.;.d.O ,.O O O O X S f ] T ",
"U { e z W O O O O ,.O d.;.g.w.C.].L.S.L.L.N.L.X+}+*@=@-@;@y+>@w+l+l+w+,@'@)@!@~@~@{@]@}+X+S.N.].C.w.g.;.d.O ,.O O O O W z e { T ",
"U 5 q O $.O O O O ~.M m.'.g.v.C.].L.S.L.L.P.P.Y+@+Z+`+ @.@G+r++@@@@@+@#@$@%@&@*+4+|+}+@+!+S.P.].C.v.g.'.m.M ~.O O O O $.O q 5 T ",
"U 4 p O #.O O O O M L b.J g.v.C.].L.S.L.L.L.L.N+!+O+P+Q+R+m+l+k+j+S+k+T+U+U+V+ + +W+X+!+V.S.L.].C.v.g.J b.L M O O O O #.O p 4 T ",
"U 3 d M @.,.,.~.M _.(.|.^.8.7.C.].L.S.L.L.V.!+i+V.j+k+l+m+n+n+n+n+n+n+m+l+k+j+L.P.L.L.L.L.S.L.].C.7.8.^.|.(._.M ~.,.,.@.M d 3 T ",
"U 2 c L y O O M L (.|.l.[.g.7.C.].L.S.P.L.^+@+[+W.p+q+r+G+H+u+t+u+u+t+s+r+q+p+O.1@N.N.P.L.S.L.].C.7.g.[.l.|.(.L M O O y L c 2 T ",
"U 1 o K +.>.>.).K /.}.8.g.q.p.B.n.L.S.N.L.~+}+b+~+l+w+x+y+z+z+z+z+z+z+y+x+w+l+L.O.L.L.L.L.S.L.n.B.p.q.g.8.}./.K ).>.>.+.K o 1 T ",
"w | n J ..;.;.'.J ^.[.7.7.p.u.A.s.L.R.N.L.{+|+A+{+m+s+y+B+C+D+C+C+D+C+B+y+s+m+L.R.L.L.L.L.R.L.s.A.u.p.7.7.[.^.J '.;.;...J n | T ",
"j.} ++6.k.6.6.6.6.6.6.J.6.o.2@3@y.L.O.N.L.{+|+A+{+m+s+y+B+C+D+C+C+D+C+B+y+s+m+L.R.L.L.L.L.O.L.y.3@2@o.6.J.6.6.6.6.6.6.k.6.++} T ",
"r.[ } H H -.-.-.H ].].].].n.s.y.G.L.P.N.L.~+}+b+~+l+w+x+y+z+z+z+z+z+z+y+x+w+l+L.O.L.L.L.L.P.L.G.y.s.n.].].].].H -.-.-.H H } [ T ",
"x.[ } H H -.-.-.H ].].].].n.s.y.G.L.P.P.P.!+[+o+i+p+I+r+G+H+u+t+u+u+t+s+r+q+p+O.1@N.N.P.L.P.L.G.y.s.n.].].].].H -.-.-.H H } [ D.",
"@ } ++6.k.6.6.6.6.6.6.J.6.o.2@3@y.L.O.L.L.V.!+i+V.j+k+l+m+n+n+n+n+n+n+m+l+k+j+L.P.L.L.L.L.O.L.y.3@2@o.6.J.6.6.6.6.6.6.k.6.++} @ ",
"E+| n J ..;.;.'.J ^.[.7.7.p.u.A.s.L.R.V.!+X+W+ + +4@U+Q+R+m+l+k+j+S+k+T+U+U+V+ + +W+X+!+V.R.L.s.A.u.p.7.7.[.^.J '.;.;...J n | U ",
"T.1 o K +.>.>.).K /.}.8.g.q.p.B.n.P.S.!+@+}+d+4+*+#@%@ @.@G+r++@@@@@+@#@$@%@&@*+4+|+}+@+!+S.P.n.B.p.q.g.8.}./.K ).>.>.+.K o 1 T.",
".+2 c L y O O M L (.|.l.[.g.7.C.].N.S.X+}+]@{@~@~@!@)@-@;@y+>@w+l+l+w+,@'@)@!@~@~@{@]@}+X+S.N.].C.7.g.[.l.|.(.L M O O y x c ! .+",
"T.3 d M @.,.,.~.M _.(.|.^.8.7.C.].N.S.W+|+{@|@~@'+}@[@;@_@B+y+G+m+m+G+:@<@[@}@'+~@|@{@|+W+S.N.].C.7.8.^.|.(._.M ~.,.,.@.M d 3 T.",
"T.4 p O #.O O O O M L b.J g.v.C.].N.S.W+|+{@|@~@'+}@[@;@_@B+y+G+m+m+G+:@<@[@}@'+~@|@{@|+W+S.N.].C.v.g.J b.L M O O O O W z e { T.",
"T.5 q O $.O O O O ~.M m.'.g.v.C.].N.S.X+}+]@{@~@~@!@)@-@;@y+>@w+l+l+w+,@'@)@!@~@~@{@]@}+X+S.N.].C.v.g.'.m.M ~.O O O O X A f ] T.",
"T.9 u F W O O O O ,.O d.;.g.w.C.].P.S.!+@+}+d+4+*+#@%@ @.@G+r++@@@@@+@#@$@%@&@*+4+d+}+@+!+S.P.].C.w.g.;.d.O ,.O O O O F+B g ^ T.",
"T.] f S X O O O O ,.O d.;.g.w.C.].L.S.V.!+X+W+ + +4@U+Q+R+m+l+k+j+S+k+T+U+U+V+ + +W+X+!+V.S.L.].C.w.g.;.d.O ,.O O @.O Z C h / T.",
"T.] t S *.O O O O ,.O d.;.g.w.C.].L.S.L.L.V.!+i+V.j+k+l+m+n+n+n+n+n+n+m+l+k+j+V.i+!+V.L.L.S.L.].C.w.g.;.d.O ,.O O @.O M+L+K+J+T.",
"T.9 u F W O O O O ,.O d.;.g.w.C.].L.S.P.P.!+[+o+i+p+I+r+G+H+u+t+u+u+t+s+r+I+p+i+o+[+!+P.P.S.L.].C.w.g.;.d.O ,.O O @.O M+L+K+J+T.",
"T.{ e F W O O O O ,.O d.;.g.w.C.].L.S.N.L.~+}+b+~+l+w+x+y+z+z+z+z+z+z+y+x+w+l+~+b+}+~+L.N.S.L.].C.w.g.;.d.O ,.O O @.O Z C h / T.",
".+] t S *.O O O O ,.O d.;.g.w.C.].L.S.N.L.{+|+A+{+m+s+y+B+C+D+C+C+D+C+B+y+s+m+{+A+|+{+L.N.S.L.].C.w.g.;.d.O ,.O O O O F+B g ^ .+",
"T._ k E ` O O O O ,.O d.;.g.w.C.].L.S.N.L.{+|+A+{+m+s+y+B+C+D+C+C+D+C+B+y+s+m+{+A+|+{+L.N.S.L.].C.w.g.;.d.O ,.O O O O X S f ] T.",
"E+( j D ` O O O O ,.O d.;.g.w.C.].L.S.N.L.~+}+b+~+l+w+x+y+z+z+z+z+z+z+y+x+w+l+~+b+}+~+L.N.S.L.].C.w.g.;.d.O ,.O O O O W z e { U ",
"@ ( j D ` O O O O ,.O d.;.g.w.C.].L.S.P.P.!+[+o+i+p+I+r+G+H+u+t+u+u+t+s+r+I+p+i+o+[+!+P.P.S.L.].C.w.g.;.d.O ,.O O O O #.O p 4 @ "};
