/* XPM */
static char * int_h_cl_xpm[] = {
"64 64 299 2",
"  	c #6B5461",
". 	c #624F5C",
"+ 	c #5D4C5C",
"@ 	c #5B4A5B",
"# 	c #5B4A5C",
"$ 	c #5B4B5C",
"% 	c #5C4E5D",
"& 	c #5D4F5E",
"* 	c #5A495B",
"= 	c #58465A",
"- 	c #554459",
"; 	c #504358",
"> 	c #4F4257",
", 	c #68505E",
"' 	c #654E58",
") 	c #7E5B5D",
"! 	c #8C6762",
"~ 	c #917267",
"{ 	c #937B6D",
"] 	c #948474",
"^ 	c #948A7C",
"/ 	c #948F83",
"( 	c #948878",
"_ 	c #948877",
": 	c #7C595C",
"< 	c #5A4555",
"[ 	c #584053",
"} 	c #774C57",
"| 	c #86565B",
"1 	c #8A5E5E",
"2 	c #907267",
"3 	c #937C6D",
"4 	c #927769",
"5 	c #927669",
"6 	c #8D6862",
"7 	c #694F5F",
"8 	c #B8806D",
"9 	c #D4997A",
"0 	c #DAAA84",
"a 	c #DDB990",
"b 	c #DFC79D",
"c 	c #E0D1AB",
"d 	c #E0D8B8",
"e 	c #E0D8B7",
"f 	c #E0CEA4",
"g 	c #E0CDA3",
"h 	c #B77F6D",
"i 	c #AF6561",
"j 	c #C9796A",
"k 	c #CF8871",
"l 	c #DFC69D",
"m 	c #DDBA91",
"n 	c #DDB289",
"o 	c #DCB188",
"p 	c #AF6661",
"q 	c #6B5361",
"r 	c #F3B58A",
"s 	c #F9C493",
"t 	c #FCD19D",
"u 	c #FDDDAA",
"v 	c #FEE6B6",
"w 	c #FEECC2",
"x 	c #FEE2B0",
"y 	c #FEE2AF",
"z 	c #FCD19E",
"A 	c #D3997B",
"B 	c #855159",
"C 	c #C67066",
"D 	c #E68D74",
"E 	c #EEA380",
"F 	c #F9C393",
"G 	c #FDDCA9",
"H 	c #FBCA97",
"I 	c #F3B68B",
"J 	c #C77166",
"K 	c #6D5663",
"L 	c #FCC996",
"M 	c #FCCD9A",
"N 	c #FDD29F",
"O 	c #FDD6A4",
"P 	c #FDD8A9",
"Q 	c #FDD4A1",
"R 	c #C77066",
"S 	c #E99478",
"T 	c #F4B389",
"U 	c #FBC996",
"V 	c #FDD29E",
"W 	c #FCCB98",
"X 	c #FCCB97",
"Y 	c #C77267",
"Z 	c #DCB289",
"` 	c #855059",
" .	c #E9977A",
"..	c #F6BB8E",
"+.	c #FBCB97",
"@.	c #FBCA96",
"#.	c #E89478",
"$.	c #F3B389",
"%.	c #FAC896",
"&.	c #D9AA84",
"*.	c #855259",
"=.	c #E48670",
"-.	c #E99477",
";.	c #EEA581",
">.	c #F4B88C",
",.	c #E3816E",
"'.	c #E58771",
").	c #E89377",
"!.	c #895E5E",
"~.	c #CE8871",
"{.	c #F5B88C",
"].	c #E27F6D",
"^.	c #E3806D",
"/.	c #E48671",
"(.	c #EDA380",
"_.	c #F2B389",
":.	c #F5BA8E",
"<.	c #C77167",
"[.	c #EFA581",
"}.	c #C67166",
"|.	c #E37F6D",
"1.	c #664D5E",
"2.	c #834E57",
"3.	c #C46A62",
"4.	c #E07969",
"5.	c #E37E6C",
"6.	c #5F475B",
"7.	c #7F4654",
"8.	c #BC5958",
"9.	c #D96B60",
"0.	c #E27E6D",
"a.	c #E27E6C",
"b.	c #BC5A59",
"c.	c #703E51",
"d.	c #A34952",
"e.	c #BE5A59",
"f.	c #C56A62",
"g.	c #C87267",
"h.	c #A44A53",
"i.	c #BD5A59",
"j.	c #E07869",
"k.	c #543A51",
"l.	c #6E3E51",
"m.	c #715E68",
"n.	c #A54A53",
"o.	c #3F3851",
"p.	c #3C3851",
"q.	c #3E3851",
"r.	c #3D3851",
"s.	c #79646B",
"t.	c #3B3851",
"u.	c #3B3751",
"v.	c #3A3751",
"w.	c #775F68",
"x.	c #473852",
"y.	c #543853",
"z.	c #5C3854",
"A.	c #613853",
"B.	c #653952",
"C.	c #693B51",
"D.	c #6B3B50",
"E.	c #533853",
"F.	c #755C66",
"G.	c #6F3757",
"H.	c #803758",
"I.	c #893957",
"J.	c #913C54",
"K.	c #973F51",
"L.	c #9B414F",
"M.	c #813858",
"N.	c #953959",
"O.	c #9F3C56",
"P.	c #A63F53",
"Q.	c #AC4350",
"R.	c #803858",
"S.	c #603953",
"T.	c #683A51",
"U.	c #6C3C50",
"V.	c #AF444E",
"W.	c #9E3C56",
"X.	c #A74053",
"Y.	c #AC4250",
"Z.	c #AE444F",
"`.	c #883956",
" +	c #6E3757",
".+	c #843A57",
"++	c #943F52",
"@+	c #883957",
"#+	c #F8C393",
"$+	c #E48771",
"%+	c #5B3952",
"&+	c #7E3A54",
"*+	c #903C54",
"=+	c #9A414F",
"-+	c #8F3B54",
";+	c #7C3954",
">+	c #593752",
",+	c #503653",
"'+	c #6C3657",
")+	c #833857",
"!+	c #923E52",
"~+	c #99404F",
"{+	c #99404E",
"]+	c #963F50",
"^+	c #4B3851",
"/+	c #5C3952",
"(+	c #663A52",
"_+	c #6A3B51",
":+	c #F8C191",
"<+	c #F1AD86",
"[+	c #EA997A",
"}+	c #E58872",
"|+	c #5E3853",
"1+	c #673A51",
"2+	c #6D3D50",
"3+	c #714051",
"4+	c #754453",
"5+	c #794A55",
"6+	c #7A4D56",
"7+	c #774955",
"8+	c #6F4052",
"9+	c #613A50",
"0+	c #4D3851",
"a+	c #F8C192",
"b+	c #F1AE86",
"c+	c #EA9A7B",
"d+	c #E58972",
"e+	c #523753",
"f+	c #833957",
"g+	c #933E52",
"h+	c #9E4550",
"i+	c #A54D51",
"j+	c #AC5756",
"k+	c #B2625C",
"l+	c #B5685F",
"m+	c #B5675F",
"n+	c #AF5F5B",
"o+	c #A14D53",
"p+	c #883F4F",
"q+	c #603A50",
"r+	c #B6685F",
"s+	c #937E72",
"t+	c #DDBE99",
"u+	c #FCD5A6",
"v+	c #FCCF9D",
"w+	c #9B3C56",
"x+	c #A84251",
"y+	c #B44C51",
"z+	c #BE5955",
"A+	c #C6655B",
"B+	c #CB6F60",
"C+	c #CD7363",
"D+	c #C86C5F",
"E+	c #BD5D58",
"F+	c #A24E53",
"G+	c #765C66",
"H+	c #948B80",
"I+	c #DFD1B2",
"J+	c #FDE6BD",
"K+	c #FDD6A7",
"L+	c #F2B289",
"M+	c #A84151",
"N+	c #AD434F",
"O+	c #B65153",
"P+	c #C4645B",
"Q+	c #CD7262",
"R+	c #CE7363",
"S+	c #CE7463",
"T+	c #CD7162",
"U+	c #AE5F5B",
"V+	c #6C5663",
"W+	c #948B7C",
"X+	c #FEE6B7",
"Y+	c #513753",
"Z+	c #B4675F",
"`+	c #883E4F",
" @	c #5F3950",
".@	c #6D3D51",
"+@	c #6D3C50",
"@@	c #4D3951",
"#@	c #A54C52",
"$@	c #A54C51",
"%@	c #9B3D56",
"&@	c #AE444E",
"*@	c #C15D57",
"=@	c #BA5755",
"-@	c #CA6C5F",
";@	c #C76B5F",
">@	c #A54D52",
",@	c #A24D53",
"'@	c #893F4F",
")@	c #553853",
"!@	c #6D3657",
"~@	c #9A404E",
"{@	c #775D67",
"]@	c #755D65",
"^@	c #735C65",
"/@	c #65535E",
"(@	c #5E4D5C",
"  . + @ # @ @ @ @ $ % & & & & & & & & % $ @ @ $ % % $ @ @ @ @ @ @ @ @ @ @ @ @ @ @ @ @ @ @ @ @ @ @ @ @ @ @ @ @ @ @ # @ * = - ; > ",
", ' ) ! ~ { ] ^ / / ^ ( _ ] { ~ ! : < [ } | 1 ! 2 { ] _ ( ^ / / ^ ( _ ] { { ] ^ / / ^ ] { 3 ] ] 3 4 5 2 6 1 | } [ [ } | 1 ! 2 { ",
"7 ) 8 9 0 a b c d e c f g b a 0 9 h : } i j k 9 0 a b g f c e e c f g l a a l c d d c l a m l b m n o 0 9 k j p } } p j k 9 0 a ",
"q 6 9 r s t u v w w v x y u z s r A 6 B C D E r F z u y x v w w v x y G z t G v w w v G t z G G z H H F I E D J B B J D E r F t ",
"K ~ 0 s L M N O P P O Q Q N M L s 0 ~ B R S T s U M N Q Q O P P O Q Q V M M V O P P O V M M V N M W X U s T S Y B B Y S T s U M ",
"K 4 n H W H H H H H H H H H H W H Z 4 ` C  ...H +.H H H H H H H H H H H H H H H H H H H H H H H H H H +.H .. .J ` ` J  ...H +.H ",
"K 4 n H W H H @.U U @.H H H H W H n 4 ` C  ...H +.H H H H @.U U @.H H H H H H @.U U @.H H H H H H H H +.H .. .J ` ` J  ...H +.H ",
"K 4 n H W H H H H H H H H H H W H n 4 ` C #.$.F %.H H H H H H H H H H H H H H H H H H H H H H H H H H %.F $.#.J ` ` J #.$.F %.H ",
"K 4 n H W H H H H H H H H H H W H Z 4 B C D E I F H H H H H H H H H H H H H H H H H H H H H H H H H H F I E D J B B J D E I F H ",
"K 2 0 F U H H H H H H H H H H U F &.2 *.C =.-.;.>.F %.+.+.+.+.+.+.+.+.+.+.+.+.+.+.+.+.+.+.+.+.+.+.%.F >.;.-.=.J *.*.J =.-.;.>.F ",
"K 6 9 I s H H H H H H H H H H s I A 6 *.C ,.'.).;.I F H H H H H H H H H H H H H H H H H H H H H H F I ;.).'.,.J *.*.J ,.'.).;.I ",
"K !.~.;.{.F %.+.+.+.+.+.+.%.F {.;.~.!.*.J ].^./.).(._.:.:.:.:.:.:.:.:.:.:.:.:.:.:.:.:.:.:.:.:.:.:._.(.)./.^.].<.*.*.<.].^./.).(.",
"q | j ).[.I F H H H H H H F I [.).j | *.}.].|.,.=.D #. . . . . . . . . . . . . . . . . . . . . . .#.D =.,.|.].J *.*.J ].|.,.=.D ",
"1.*.Y /.S (._.:.:.:.:.:.:._.(.S /.Y *.2.3.4.5.|.^.|.|.|.|.|.|.|.|.|.|.|.|.|.|.|.|.|.|.|.|.|.|.|.|.|.|.^.|.5.4.3.2.2.3.4.5.|.^.|.",
"6.*.J ,.'.D #. . . . . . .#.D '.,.J *.7.8.9.4.].].0.0.a.a.a.a.a.a.a.a.a.a.a.a.a.a.a.a.a.a.a.a.a.a.0.0.].].4.9.b.7.7.b.9.4.].].0.",
"- 2.3.4.5.|.^.|.|.|.|.|.|.^.|.5.4.3.2.c.d.e.f.g.g.g.g.g.g.g.g.g.g.g.g.g.g.g.g.g.g.g.g.g.g.g.g.g.g.g.g.g.g.f.e.h.c.c.h.e.f.g.g.g.",
"% 7.i.9.j.0.0.a.a.a.a.a.a.0.0.j.9.i.7.k.l.7.2.*.*.*.*.*.*.*.*.*.*.*.*.*.*.*.*.*.*.*.*.*.*.*.*.*.*.*.*.*.*.2.7.c.k.k.c.7.2.*.*.*.",
"m.c.d.8.3.J <.J J J J J J Y <.3.i.n.c.o.p.o.q.r.r.r.r.r.r.r.r.q.o.o.o.o.o.o.o.o.o.o.o.o.o.o.o.o.o.o.q.r.r.r.r.p.p.p.p.r.r.r.r.q.",
"s.k.c.7.2.*.*.*.*.*.*.*.*.*.*.2.7.c.k.q.t.u.v.v.v.v.v.v.v.v.v.v.v.v.v.v.v.v.v.v.v.v.v.v.v.v.v.v.v.v.v.v.v.v.u.p.q.q.p.u.v.v.v.v.",
"w.[ } B B ` ` ` B *.*.*.*.2.7.c.k.o.q.o.o.x.y.z.A.B.C.C.B.A.z.y.x.o.q.r.r.p.p.p.p.p.p.p.p.r.r.q.o.x.y.z.A.B.C.D.D.D.D.C.B.A.z.E.",
"F.} p <.Y J J J J J J <.J 3.8.d.l.p.t.q.o.y.G.H.I.J.K.K.J.I.H.G.y.o.q.o.o.o.o.o.o.o.o.o.o.o.o.q.o.y.G.H.I.J.K.L.L.L.L.K.J.I.H.G.",
"F.| j D S  . .#.D =.,.].].4.9.e.7.o.u.r.o.z.M.N.O.P.Q.Q.P.O.N.R.z.x.E.S.T.U.U.U.U.U.U.U.U.T.S.E.x.z.R.N.O.P.Q.V.V.V.V.Q.P.O.N.R.",
"F.1 k E T ....$.E -.'.^.|.5.4.f.2.o.v.r.o.A.I.W.X.Y.Z.Z.Y.X.W.`.A.E. +.+++L.L.L.L.L.L.L.L.++.+ +E.A.`.W.X.Y.Z.V.V.V.V.Z.Y.X.W.@+",
"F.6 9 I s H H #+I ;.).$+,.|.].g.*.o.v.q.o.%+&+*+K.=+=+=+=+K.-+;+>+,+'+)+!+~+=+=+=+=+=+=+~+!+)+'+,+>+;+-+K.=+L.=+=+=+~+{+~+]+-+;+",
"F.2 0 F U +.+.%.F >.;.).=.^.].g.*.o.v.q.o.^+/+(+_+D.D.D.D._+(+/+^+x.y.S.T.U.U.U.U.U.U.U.U.T.S.y.x.^+/+(+_+D.D.D.D.D.D.D.D._+(+/+",
"F.5 o @.X H H H H :+<+[+}+|.].g.*.o.v.o.o.o.o.x.E.|+1+2+3+4+5+6+6+6+6+6+6+7+8+9+0+0+9+8+7+6+6+6+6+6+6+7+8+9+0+0+9+8+7+6+6+6+6+6+",
"F.4 n H W H H H H a+b+c+d+|.].g.*.o.v.o.o.r.q.e+ +f+g+h+i+j+k+l+l+l+l+l+m+n+o+p+q+q+p+o+n+m+l+l+l+r+l+n+o+p+q+q+p+o+n+m+l+m+m+l+",
"F.s+t+u+v+H H H H F I (.D |.0.g.*.o.v.o.o.r.o.|+.+w+x+y+z+A+B+C+C+C+C+C+C+D+E+F+8+8+F+E+D+C+C+C+C+C+C+D+E+F+8+8+F+E+D+C+C+C+C+C+",
"G+H+I+J+K+H @.H H %.#+L+#.|.0.g.*.o.v.o.o.r.o.1+++M+N+O+P+B+Q+R+R+R+R+S+R+T+D+U+7+7+U+D+T+R+S+R+R+S+R+T+D+U+7+7+U+D+T+R+S+R+R+R+",
"F./ d w P H U H H +.H :. .|.a.g.*.o.v.o.o.r.o.1+++M+N+O+P+B+Q+R+R+R+R+S+R+T+D+U+7+7+U+D+T+R+S+R+R+S+R+T+D+U+7+7+U+D+T+R+S+R+R+R+",
"V+W+c X+O H @.H H +.H :. .|.a.g.*.o.v.o.o.r.o.|+.+w+x+y+z+A+B+C+C+C+C+C+C+D+E+F+8+8+F+E+D+C+C+C+C+C+C+D+E+F+8+8+F+E+D+C+C+C+C+C+",
"@ ] l G V H H H H +.H :. .|.a.g.*.o.v.o.q.p.r.Y+ +f+g+h+i+j+k+m+l+l+m+l+Z+U+o+`+ @ @`+o+U+Z+l+m+l+l+m+n+o+`+ @ @`+o+U+Z+m+Z+m+m+",
"- { a t M H H H H +.H :. .|.a.g.*.o.v.o.o.o.o.x.E.|+1+2+3+4+5+6+6+6+6+6+6+7+8+9+0+0+9+8+7+6+6+6+6+6+6+7+8+9+0+0+9+8+7+6+6+6+6+6+",
"6.3 m z M H H H H +.H :. .|.a.g.*.o.v.x.E.|+1+D.D.D.D..@3+3++@9+@@0+9+8+7+6+6+6+6+6+6+6+6+7+8+9+0+0+9+8+7+6+6+6+6+6+6+6+6+7+8+9+",
"1.] l G V H H H H +.H :. .|.a.g.*.q.v.E.G..+++L.L.=+=+h+#@$@h+`+ @ @`+o+U+Z+l+m+l+l+m+l+Z+U+o+`+ @ @`+o+n+m+l+l+m+m+Z+m+Z+U+o+`+",
"q ] b G N H H H H %.#+L+#.|.0.g.*.r.v.|+.+%@x+&@&@&@&@y+z+*@=@F+8+8+F+E+D+C+C+C+C+C+C+C+C+D+E+F+8+8+F+E+D+C+C+C+C+C+C+C+C+D+E+F+",
"K 3 m z M H H H H F I (.D |.0.g.*.r.v.1+++x+N+V.V.&@V.O+P+-@;@U+7+7+U+D+T+R+S+R+R+R+R+S+R+T+D+U+7+7+U+D+T+R+S+R+R+R+R+S+R+T+D+U+",
"K 4 n H W H H H H a+b+c+d+|.].g.*.r.v.1+++x+N+V.V.&@V.O+P+-@;@U+7+7+U+D+T+R+S+R+R+R+R+S+R+T+D+U+7+7+U+D+T+R+S+R+R+R+R+S+R+T+D+U+",
"K 5 o H X H H H H :+<+[+}+|.].g.*.r.v.|+.+%@x+&@&@&@&@y+z+*@=@F+8+8+F+E+D+C+C+C+C+C+C+C+C+D+E+F+8+8+F+E+D+C+C+C+C+C+C+C+C+D+E+F+",
"K 2 0 F U +.+.%.F >.;.).=.^.].g.*.q.v.E.G..+++L.L.=+=+h+>@>@h+p+q+q+p+o+n+m+l+l+l+l+l+r+l+n+,@'@9+9+'@,@n+l+r+l+l+l+m+l+m+n+o+p+",
"K 6 9 I s H H #+I ;.).$+,.|.].g.*.o.v.x.E.|+1+D.D.D.D..@3+3++@9+@@0+9+8+7+6+6+6+6+6+6+6+6+7+8+9+0+0+9+8+7+6+6+6+6+6+6+6+6+7+8+9+",
"K 1 k E T ....$.E -.'.^.|.5.4.f.2.o.v.o.o.o.o.x.)@S.T.U.U.U.U.U.U.U.U.U.U.T.S.)@x.o.o.o.o.o.o.o.o.o.o.o.o.o.o.x.)@S.T.U.U.U.U.U.",
"K | j D S  . .#.D =.,.].].4.9.e.7.o.u.o.q.p.r.Y+ +f+g+=+=+=+=+=+=+=+=+=+~+!+)+!@,+u.v.u.u.u.p.r.q.q.r.p.u.v.u.,+!@f+!+~+~@~+=+=+",
"K } p <.Y J J J J J J <.J 3.8.d.l.p.t.o.o.q.o.E.G..+++L.L.L.L.L.L.L.L.L.L.++.+G.E.o.q.o.o.o.o.o.o.o.o.o.o.q.o.E.G..+++L.L.L.L.L.",
"q [ } B B ` ` ` B *.*.*.*.2.7.c.k.o.q.o.o.o.o.x.)@S.T.U.U.U.U.U.U.U.U.U.U.T.S.)@x.o.o.o.o.o.o.o.o.o.o.o.o.o.o.x.)@S.T.U.U.U.U.U.",
"1.k.c.7.2.*.*.*.*.*.*.*.*.*.*.2.7.c.k.q.t.u.v.v.v.v.v.v.v.v.v.v.v.v.v.v.v.v.v.v.v.v.v.v.u.p.q.q.p.u.v.v.v.v.v.v.v.v.v.v.v.v.v.v.",
"6.c.d.8.3.J <.J J J J J J Y <.3.i.n.c.o.p.o.o.o.q.r.r.p.p.p.p.p.p.p.p.p.p.r.r.q.o.o.o.o.o.o.o.o.o.o.o.o.o.o.o.o.q.r.r.p.p.p.p.p.",
"- 7.i.9.j.0.0.a.a.a.a.a.a.0.0.j.9.i.7.k.l.7.2.*.*.*.*.*.*.*.*.*.*.*.*.*.*.*.*.*.*.*.*.2.7.c.k.k.c.7.2.*.*.*.*.*.*.*.*.*.*.*.*.*.",
"@ 2.3.4.5.|.^.|.|.|.|.|.|.^.|.5.4.3.2.c.d.e.f.g.g.g.g.g.g.g.g.g.g.g.g.g.g.g.g.g.g.g.g.f.e.h.c.c.h.e.f.g.g.g.g.g.g.g.g.g.g.g.g.g.",
"V+*.J ,.'.D #. . . . . . .#.D '.,.J *.7.8.9.4.].].0.0.a.a.a.a.a.a.a.a.a.a.a.a.0.0.].].4.9.b.7.7.b.9.4.].].0.0.a.a.a.a.a.a.a.a.a.",
"F.*.Y /.S (._.:.:.:.:.:.:._.(.S /.Y *.2.3.4.5.|.^.|.|.|.|.|.|.|.|.|.|.|.|.|.|.|.|.^.|.5.4.3.2.2.3.4.5.|.^.|.|.|.|.|.|.|.|.|.|.|.",
"G+| j ).[.I F H H H H H H F I [.).j | *.}.].|.,.=.D #. . . . . . . . . . . . .#.D =.,.|.].J *.*.J ].|.,.=.D #. . . . . . . . . .",
"F.!.~.;.{.F %.+.+.+.+.+.+.%.F {.;.~.!.*.J ].^./.).(._.:.:.:.:.:.:.:.:.:.:.:.:._.(.)./.^.].<.*.*.<.].^./.).(._.:.:.:.:.:.:.:.:.:.",
"F.6 9 I s H H H H H H H H H H s I A 6 *.C ,.'.).;.I F H H H H H H H H H H H H F I ;.).'.,.J *.*.J ,.'.).;.I F H H H H H H H H H ",
"F.2 0 F U H H H H H H H H H H U F &.2 *.C =.-.;.>.F %.+.+.+.+.+.+.+.+.+.+.+.+.%.F >.;.-.=.J *.*.J =.-.;.>.F %.+.+.+.+.+.+.+.+.+.",
"F.4 n H W H H H H H H H H H H W H Z 4 B C D E I F H H H H H H H H H H H H H H H H F I E D J B B J D E I F H H H H H H H H H H H ",
"F.4 n H W H H H H H H H H H H W H n 4 ` C #.$.F %.H H H H H H H H H H H H H H H H %.F $.#.J ` ` J #.$.F %.H H H H H H H H H H H ",
"F.4 n H W H H @.U U @.H H H H W H n 4 ` C  ...H +.H H H H H H H H @.U U @.H H H H +.H .. .J ` ` J  ...H +.H H H H H H H H @.U U ",
"F.4 n H W H H H H H H H H H H W H Z 4 ` C  ...H +.H H H H H H H H H H H H H H H H +.H .. .J ` ` J  ...H +.H H H H H H H H H H H ",
"F.~ 0 s L M N O P P O Q Q N M L s 0 ~ B R S T s U M N N M X X M N O P P O N M W X U s T S Y B B Y S T s U X W M N V M M V O P P ",
"G+6 9 r s t u v w w v x y u z s r A 6 B C D E r F z u G z H H t G v w w v G t H H F I E D J B B J D E I F H H z G G z t G v w w ",
"{@) 8 9 0 a b c d e c f g b a 0 9 h : } i j k 9 0 m b b m o o a b c d d c b a n o 0 9 k j p } } p j k 9 0 o n m b l m a l c d d ",
"]@' ) ! ~ { ] ^ / / ^ ( _ ] { ~ ! : < [ } | 1 ! 2 3 ] ] 3 5 5 { ] ^ / / ^ ] { 4 5 2 6 1 | } [ [ } | 1 6 2 5 4 3 ] ] 3 { ] ^ / / ",
"^@/@(@@ @ @ @ @ @ @ @ @ @ @ @ @ @ @ @ @ @ @ @ @ @ # @ * = - ; ; - = * @ # @ @ @ @ @ @ @ @ @ @ @ @ @ @ @ @ @ @ @ @ @ @ @ @ @ @ @ "};
