/* XPM */
static char * int_m_wr_xpm[] = {
"64 64 198 2",
"  	c #3F3851",
". 	c #3E3851",
"+ 	c #4D3851",
"@ 	c #613A50",
"# 	c #6F4052",
"$ 	c #774955",
"% 	c #794A55",
"& 	c #754553",
"* 	c #683F51",
"= 	c #503A51",
"- 	c #7A4D56",
"; 	c #754453",
"> 	c #6D3F52",
", 	c #613A53",
"' 	c #533853",
") 	c #463852",
"! 	c #3A3751",
"~ 	c #855259",
"{ 	c #C87267",
"] 	c #E27E6C",
"^ 	c #E37F6D",
"/ 	c #E9977A",
"( 	c #F5BA8E",
"_ 	c #FBCA97",
": 	c #FBCB97",
"< 	c #FCCB97",
"[ 	c #DCB188",
"} 	c #927669",
"| 	c #4F4257",
"1 	c #513B51",
"2 	c #714051",
"3 	c #6E3D51",
"4 	c #6B3B50",
"5 	c #673A51",
"6 	c #5E3853",
"7 	c #473852",
"8 	c #FCCD9A",
"9 	c #FCD19D",
"0 	c #DDB990",
"a 	c #937B6D",
"b 	c #4E4257",
"c 	c #3C3851",
"d 	c #3D3851",
"e 	c #603A50",
"f 	c #893E4F",
"g 	c #A14D53",
"h 	c #AF5F5B",
"i 	c #B5675F",
"j 	c #B5685F",
"k 	c #B4675F",
"l 	c #AE5F5B",
"m 	c #883E4F",
"n 	c #5F3950",
"o 	c #673F51",
"p 	c #954A52",
"q 	c #A54C51",
"r 	c #9E4550",
"s 	c #9A414F",
"t 	c #9B414F",
"u 	c #943F52",
"v 	c #843A57",
"w 	c #6F3757",
"x 	c #FDD29F",
"y 	c #FDDCA9",
"z 	c #DFC79D",
"A 	c #948474",
"B 	c #A24E53",
"C 	c #BD5D58",
"D 	c #C86C5F",
"E 	c #CD7363",
"F 	c #764553",
"G 	c #AC5756",
"H 	c #BE5955",
"I 	c #B54D51",
"J 	c #AE444E",
"K 	c #A84251",
"L 	c #9B3D56",
"M 	c #FDD5A4",
"N 	c #FEE6B6",
"O 	c #E0D1AB",
"P 	c #948A7C",
"Q 	c #3B3751",
"R 	c #CD7162",
"S 	c #CE7363",
"T 	c #CE7463",
"U 	c #794B55",
"V 	c #B2625C",
"W 	c #C4645B",
"X 	c #B75253",
"Y 	c #AF444E",
"Z 	c #AD434F",
"` 	c #FBC996",
" .	c #FDD8A9",
"..	c #FEECC2",
"+.	c #E0D8B8",
"@.	c #948F83",
"#.	c #FDD9AC",
"$.	c #FEEFC8",
"%.	c #E0DBBE",
"&.	c #949186",
"*.	c #FEEBC2",
"=.	c #E0D8B7",
"-.	c #948E83",
";.	c #FBCA96",
">.	c #FDD6A4",
",.	c #974B52",
"'.	c #AD5756",
").	c #9E4A54",
"!.	c #883E57",
"~.	c #6E3757",
"{.	c #513753",
"].	c #3C3751",
"^.	c #C6665B",
"/.	c #CB6F60",
"(.	c #BD5D59",
"_.	c #C6655B",
":.	c #B95858",
"<.	c #A24658",
"[.	c #B3625C",
"}.	c #CE7262",
"|.	c #CD7262",
"1.	c #C2645C",
"2.	c #B04F56",
"3.	c #663A51",
"4.	c #FDD29E",
"5.	c #DFC69D",
"6.	c #8A3F4F",
"7.	c #663E51",
"8.	c #FCD19E",
"9.	c #5B4A5B",
"0.	c #FDD4A1",
"a.	c #FEE2B0",
"b.	c #E0CEA4",
"c.	c #948878",
"d.	c #6D5663",
"e.	c #755C66",
"f.	c #E27E6D",
"g.	c #E89478",
"h.	c #F2B389",
"i.	c #F9C393",
"j.	c #FAC896",
"k.	c #FDDDAA",
"l.	c #765C66",
"m.	c #E68D74",
"n.	c #EDA380",
"o.	c #F3B68B",
"p.	c #E27F6D",
"q.	c #E3806D",
"r.	c #E48670",
"s.	c #E89377",
"t.	c #EEA581",
"u.	c #F4B88C",
"v.	c #DAAA84",
"w.	c #907267",
"x.	c #E3816E",
"y.	c #E48671",
"z.	c #F9C493",
"A.	c #F3B58A",
"B.	c #D4997A",
"C.	c #8C6762",
"D.	c #834E57",
"E.	c #C56A62",
"F.	c #E07969",
"G.	c #E37E6C",
"H.	c #E58771",
"I.	c #E99477",
"J.	c #EEA380",
"K.	c #F3B389",
"L.	c #F6BB8E",
"M.	c #F4B389",
"N.	c #CF8871",
"O.	c #8A5E5E",
"P.	c #7F4654",
"Q.	c #BE5A59",
"R.	c #D96B60",
"S.	c #E99478",
"T.	c #C9796A",
"U.	c #86565B",
"V.	c #703E51",
"W.	c #A44A53",
"X.	c #BC5A59",
"Y.	c #C46A62",
"Z.	c #C77166",
"`.	c #C77167",
" +	c #C77267",
".+	c #AF6661",
"++	c #774C57",
"@+	c #543A51",
"#+	c #855159",
"$+	c #855059",
"%+	c #584053",
"&+	c #8D6862",
"*+	c #FCCB98",
"=+	c #DDB289",
"-+	c #927769",
";+	c #FEE2AF",
">+	c #E0CDA3",
",+	c #948877",
"                          .   + @ # $ % & * = + @ # $ - - - - - - - - % ; > , ' )         !   ~ { ] ^ / ( _ : _ _ _ _ < _ [ } | ",
"                              .   + @ # $ - - - - - - - - $ # @ + 1 * 2 3 4 4 4 4 5 6 ' 7 !   ~ { ] ^ / ( _ : _ _ _ _ 8 9 0 a b ",
"                              c d e f g h i j j i i k i k l g m n o p q r s s t t u v w ' ! . ~ { ] ^ / ( _ : _ _ _ _ x y z A b ",
"                              c   # B C D E E E E E E E E D C g # F G H I J J J J K L v 6 ! d ~ { ] ^ / ( _ : _ _ _ _ M N O P b ",
"                              Q   $ h D R S T S S S S T S R D l $ U V W X Y J Y Y Z K u 5 ! d ~ { ] ^ / ( _ : _ _ ` _  ...+.@.b ",
"                              Q   $ h D R S T S S S S T S R D l $ U V W X Y J Y Y Z K u 5 ! d ~ { ] ^ / ( _ : _ _ ` _ #.$.%.&.b ",
"                              c   # B C D E E E E E E E E D C g # F G H I J J J J K L v 6 ! d ~ { ] ^ / ( _ : _ _ ` _ #.$.%.&.b ",
"                              c d n f g h i j j i i k i k l g m n o p q r s s t t u v w ' ! . ~ { ] ^ / ( _ : _ _ ` _  .*.=.-.b ",
"                              .   + @ # $ - - - - - - - - $ # @ + 1 * 2 3 4 4 4 4 5 6 ' 7 !   ~ { ] ^ / ( _ : _ _ _ _ M N O P b ",
"                          .   = * & % $ # @ + + @ # $ - - - - - - - - % ; > , ' )         !   ~ { ] ^ / ( _ : _ _ ;._ >.N O P b ",
"                          d   * ,.'.V h g m n n m g l k i k i i j j i V G ).!.~.{.d c .   !   ~ { ] ^ / ( _ : _ _ ` _  .*.=.-.b ",
"                          ].  & '.^./.D (.g # # B C D E E E E E E E E /._.:.<.v 6   d     !   ~ { ] ^ / ( _ : _ _ ` _  ...+.@.b ",
"                          Q   % [./.}.R D l $ $ l D R S T S S S S S S |./.1.2.u 3.  d     !   ~ { ] ^ / ( _ : _ _ ;._ >.N O P b ",
"                          Q   $ h D R }./.V % $ l D R S T S S S S S S |./.1.2.u 3.  d     !   ~ { ] ^ / ( _ : _ _ _ _ 4.y 5.A b ",
"                          c   # B (.D /.^.G & # g C D E E E E E E E E /._.:.<.v 6   d     !   ~ { ] ^ / ( _ : _ _ _ _ 8 9 0 a b ",
"                          d   @ 6.B h V G p 7.n m g l k i k i i j j i V G ).!.~.{.d c .   !   ~ { ] ^ / ( _ : _ _ _ _ 8 8.0 a | ",
"                          .   + @ # $ % & * = + @ # $ - - - - - - - - % ; > , ' )         !   ~ { ] ^ / ( _ : _ _ _ _ 4.y 5.A 9.",
"                              .   + @ # $ - - - - - - - - $ # @ + 1 * 2 3 4 4 4 4 5 6 ' 7 !   ~ { ] ^ / ( _ : _ _ _ _ 0.a.b.c.d.",
"                              c d e f g h i j j i i k i k l g m n o p q r s s t t u v w ' ! . ~ { ] ^ / ( _ : _ _ _ _ 0.a.b.c.e.",
"                              c   # B C D E E E E E E E E D C g # F G H I J J J J K L v 6 ! d ~ { f.^ g.h.i.j._ _ _ _ x k.z A l.",
"                              Q   $ h D R S T S S S S T S R D l $ U V W X Y J Y Y Z K u 5 ! d ~ { f.^ m.n.o.i._ _ _ _ 8 8.0 a e.",
"                              Q   $ h D R S T S S S S T S R D l $ U V W X Y J Y Y Z K u 5 ! d ~ { p.q.r.s.t.u.i.j.: : ` i.v.w.e.",
"                              c   # B C D E E E E E E E E D C g # F G H I J J J J K L v 6 ! d ~ { p.^ x.y.s.t.o.i._ _ z.A.B.C.e.",
"                              c d n f g h i j j i i k i k l g m n o p q r s s t t u v w ' ! . D.E.F.G.^ q.H.I.J.K.L.L.M.J.N.O.e.",
"                              .   + @ # $ - - - - - - - - $ # @ + 1 * 2 3 4 4 4 4 5 6 ' 7 Q   P.Q.R.F.p.p.x.r.m.g./ / S.m.T.U.e.",
"                          .   = * & % $ # @ + + @ # $ - - - - - - - - % ; > , ' )         c   V.W.X.Y.Z.`.Z.Z.Z.Z.Z.Z. +Z..+++e.",
"                          d   * ,.'.V h g m n n m g l k i k i i j j i V G ).!.~.{.d c .   .   @+V.P.D.~ ~ ~ ~ #+$+$+$+#+#+++%+e.",
"                          ].  & '.^./.D (.g # # B C D E E E E E E E E /._.:.<.v 6   d     .   @+V.P.D.~ ~ ~ ~ #+$+$+$+#+#+++%+e.",
"                          Q   % [./.}.R D l $ $ l D R S T S S S S S S |./.1.2.u 3.  d     c   V.W.X.Y.Z.`.Z.Z.Z.Z.Z.Z. +Z..+++l.",
"                          Q   $ h D R }./.V % $ l D R S T S S S S S S |./.1.2.u 3.  d     Q   P.Q.R.F.p.p.x.r.m.g./ / S.m.T.U.e.",
"                          c   # B (.D /.^.G & # g C D E E E E E E E E /._.:.<.v 6   d     !   D.E.F.G.^ q.H.I.J.K.L.L.M.J.N.O.d.",
"                          d   @ 6.B h V G p 7.n m g l k i k i i j j i V G ).!.~.{.d c .   !   ~ { p.^ x.y.s.t.o.i._ _ z.o.B.&+9.",
"                          .   + @ # $ % & * = + @ # $ - - - - - - - - % ; > , ' )         !   ~ { p.q.r.s.t.u.i.j.: : ` i.v.w.| ",
"                              .   + @ # $ - - - - - - - - $ # @ + 1 * 2 3 4 4 4 4 5 6 ' 7 !   ~ { f.^ m.n.o.i._ _ _ _ < _ [ } b ",
"                              c d e f g h i j j i i k i k l g m n o p q r s s t t u v w ' ! . ~ { f.^ g.h.i.j._ _ _ _ *+_ =+-+b ",
"                              c   # B C D E E E E E E E E D C g # F G H I J J J J K L v 6 ! d ~ { ] ^ / ( _ : _ _ _ _ 8 8.0 a b ",
"                              Q   $ h D R S T S S S S T S R D l $ U V W X Y J Y Y Z K u 5 ! d ~ { ] ^ / ( _ : _ _ _ _ x y z A b ",
"                              Q   $ h D R S T S S S S T S R D l $ U V W X Y J Y Y Z K u 5 ! d ~ { ] ^ / ( _ : _ _ _ _ 0.;+>+,+b ",
"                              c   # B C D E E E E E E E E D C g # F G H I J J J J K L v 6 ! d ~ { ] ^ / ( _ : _ _ _ _ 0.a.b.c.b ",
"                              c d n f g h i j j i i k i k l g m n o p q r s s t t u v w ' ! . ~ { ] ^ / ( _ : _ _ ;._ >.N O P b ",
"                              .   + @ # $ - - - - - - - - $ # @ + 1 * 2 3 4 4 4 4 5 6 ' 7 !   ~ { ] ^ / ( _ : _ _ ` _  ...=.@.b ",
"                          .   = * & % $ # @ + + @ # $ - - - - - - - - % ; > , ' )         !   ~ { ] ^ / ( _ : _ _ ` _  ...+.@.b ",
"                          d   * ,.'.V h g m n n m g l k i k i i j j i V G ).!.~.{.d c .   !   ~ { ] ^ / ( _ : _ _ ;._ >.N O P b ",
"                          ].  & '.^./.D (.g # # B C D E E E E E E E E /._.:.<.v 6   d     !   ~ { ] ^ / ( _ : _ _ _ _ x y z A b ",
"                          Q   % [./.}.R D l $ $ l D R S T S S S S S S |./.1.2.u 3.  d     !   ~ { ] ^ / ( _ : _ _ _ _ 8 9 0 a b ",
"                          Q   $ h D R }./.V % $ l D R S T S S S S S S |./.1.2.u 3.  d     !   ~ { f.^ g.h.i.j._ _ _ _ *+_ =+-+b ",
"                          c   # B (.D /.^.G & # g C D E E E E E E E E /._.:.<.v 6   d     !   ~ { f.^ m.n.o.i._ _ _ _ < _ [ } b ",
"                          d   @ 6.B h V G p 7.n m g l k i k i i j j i V G ).!.~.{.d c .   !   ~ { p.q.r.s.t.u.i.j.: : ` i.v.w.| ",
"                          .   + @ # $ % & * = + @ # $ - - - - - - - - % ; > , ' )         !   ~ { p.^ x.y.s.t.o.i._ _ z.o.B.&+9.",
"                              .   + @ # $ - - - - - - - - $ # @ + 1 * 2 3 4 4 4 4 5 6 ' 7 !   D.E.F.G.^ q.H.I.J.K.L.L.M.J.N.O.d.",
"                              c d e f g h i j j i i k i k l g m n o p q r s s t t u v w ' Q . P.Q.R.F.p.p.x.r.m.g./ / S.m.T.U.e.",
"                              c   # B C D E E E E E E E E D C g # F G H I J J J J K L v 6 c d V.W.X.Y.Z.`.Z.Z.Z.Z.Z.Z. +Z..+++l.",
"                              Q   $ h D R S T S S S S T S R D l $ U V W X Y J Y Y Z K u 5 . d @+V.P.D.~ ~ ~ ~ #+$+$+$+#+#+++%+e.",
"                              Q   $ h D R S T S S S S T S R D l $ U V W X Y J Y Y Z K u 5 . d @+V.P.D.~ ~ ~ ~ #+$+$+$+#+#+++%+e.",
"                              c   # B C D E E E E E E E E D C g # F G H I J J J J K L v 6 c d V.W.X.Y.Z.`.Z.Z.Z.Z.Z.Z. +Z..+++e.",
"                              c d n f g h i j j i i k i k l g m n o p q r s s t t u v w ' Q . P.Q.R.F.p.p.x.r.m.g./ / S.m.T.U.e.",
"                              .   + @ # $ - - - - - - - - $ # @ + 1 * 2 3 4 4 4 4 5 6 ' 7 !   D.E.F.G.^ q.H.I.J.K.L.L.M.J.N.O.e.",
"                          .   = * & % $ # @ + + @ # $ - - - - - - - - % ; > , ' )         !   ~ { p.^ x.y.s.t.o.i._ _ z.o.B.&+e.",
"                          d   * ,.'.V h g m n n m g l k i k i i j j i V G ).!.~.{.d c .   !   ~ { p.q.r.s.t.u.i.j.: : ` i.v.w.e.",
"                          ].  & '.^./.D (.g # # B C D E E E E E E E E /._.:.<.v 6   d     !   ~ { f.^ m.n.o.i._ _ _ _ < _ [ } e.",
"                          Q   % [./.}.R D l $ $ l D R S T S S S S S S |./.1.2.u 3.  d     !   ~ { f.^ g.h.i.j._ _ _ _ *+_ =+-+l.",
"                          Q   $ h D R }./.V % $ l D R S T S S S S S S |./.1.2.u 3.  d     !   ~ { ] ^ / ( _ : _ _ _ _ 8 8.0 a e.",
"                          c   # B (.D /.^.G & # g C D E E E E E E E E /._.:.<.v 6   d     !   ~ { ] ^ / ( _ : _ _ _ _ x y z A d.",
"                          d   @ 6.B h V G p 7.n m g l k i k i i j j i V G ).!.~.{.d c .   !   ~ { ] ^ / ( _ : _ _ _ _ 0.;+>+,+9."};
