/* XPM */
static char * int_v_center_xpm[] = {
"64 64 216 2",
"  	c #4D4155",
". 	c #948877",
"+ 	c #E0CDA3",
"@ 	c #FEE2AF",
"# 	c #FDD4A1",
"$ 	c #FBCA97",
"% 	c #FBCB97",
"& 	c #F5BA8E",
"* 	c #E9977A",
"= 	c #E37F6D",
"- 	c #E27E6C",
"; 	c #C87267",
"> 	c #855259",
", 	c #3F3851",
"' 	c #3A3751",
") 	c #473852",
"! 	c #533853",
"~ 	c #533753",
"{ 	c #4D3851",
"] 	c #613A50",
"^ 	c #6F4052",
"/ 	c #774955",
"( 	c #7A4D56",
"_ 	c #FCCB97",
": 	c #DCB188",
"< 	c #927669",
"[ 	c #4A4055",
"} 	c #4C3F55",
"| 	c #948474",
"1 	c #DFC79D",
"2 	c #FDDCA9",
"3 	c #FDD29F",
"4 	c #5E3853",
"5 	c #673A51",
"6 	c #6B3B50",
"7 	c #6D3D50",
"8 	c #714051",
"9 	c #754553",
"0 	c #794A55",
"a 	c #4D3951",
"b 	c #6D3C50",
"c 	c #6D3D51",
"d 	c #FCCD9A",
"e 	c #FCD19D",
"f 	c #DDB990",
"g 	c #937B6D",
"h 	c #473D54",
"i 	c #4D3F55",
"j 	c #FCD19E",
"k 	c #3E3851",
"l 	c #6F3757",
"m 	c #843A57",
"n 	c #933F52",
"o 	c #9A414F",
"p 	c #9B414F",
"q 	c #9E4550",
"r 	c #A54D52",
"s 	c #AC5756",
"t 	c #B2625C",
"u 	c #AE5F5B",
"v 	c #A14D53",
"w 	c #883E4F",
"x 	c #5F3950",
"y 	c #A54C51",
"z 	c #9F4650",
"A 	c #453C53",
"B 	c #4D4055",
"C 	c #927769",
"D 	c #DDB289",
"E 	c #FCCB98",
"F 	c #FAC896",
"G 	c #F9C393",
"H 	c #F2B389",
"I 	c #E89478",
"J 	c #E27E6D",
"K 	c #3D3851",
"L 	c #9B3D56",
"M 	c #A84251",
"N 	c #AE444E",
"O 	c #B44C51",
"P 	c #BE5955",
"Q 	c #C6655B",
"R 	c #CB6F60",
"S 	c #C86C5F",
"T 	c #BD5E59",
"U 	c #A24E53",
"V 	c #BA5755",
"W 	c #C15D57",
"X 	c #FDD5A4",
"Y 	c #FEE6B6",
"Z 	c #E0D1AB",
"` 	c #948A7C",
" .	c #433B53",
"..	c #4E4156",
"+.	c #F3B68B",
"@.	c #EDA380",
"#.	c #E68D74",
"$.	c #943F52",
"%.	c #AD434F",
"&.	c #AF444E",
"*.	c #B65153",
"=.	c #C4645B",
"-.	c #CD7262",
";.	c #CD7162",
">.	c #C76B5F",
",.	c #CA6C5F",
"'.	c #FBC996",
").	c #FDD8A9",
"!.	c #FEECC2",
"~.	c #E0D8B8",
"{.	c #948F83",
"].	c #907267",
"^.	c #DAAA84",
"/.	c #F4B88C",
"(.	c #EEA581",
"_.	c #E89377",
":.	c #E48670",
"<.	c #E3806D",
"[.	c #E27F6D",
"}.	c #FDD9AC",
"|.	c #FEEFC8",
"1.	c #E0DBBE",
"2.	c #949186",
"3.	c #8D6862",
"4.	c #D4997A",
"5.	c #F9C493",
"6.	c #E48671",
"7.	c #E3816E",
"8.	c #8A5E5E",
"9.	c #CF8871",
"0.	c #EEA380",
"a.	c #F4B389",
"b.	c #F6BB8E",
"c.	c #F3B389",
"d.	c #E99477",
"e.	c #E58771",
"f.	c #E37E6C",
"g.	c #E07969",
"h.	c #C56A62",
"i.	c #834E57",
"j.	c #FEEBC2",
"k.	c #E0D8B7",
"l.	c #948E83",
"m.	c #86565B",
"n.	c #C9796A",
"o.	c #E99478",
"p.	c #D96B60",
"q.	c #BE5A59",
"r.	c #7F4654",
"s.	c #3B3751",
"t.	c #774C57",
"u.	c #AF6661",
"v.	c #C77166",
"w.	c #C77267",
"x.	c #C77167",
"y.	c #C46A62",
"z.	c #BC5A59",
"A.	c #A44A53",
"B.	c #703E51",
"C.	c #3C3851",
"D.	c #FBCA96",
"E.	c #FDD6A4",
"F.	c #584053",
"G.	c #855159",
"H.	c #855059",
"I.	c #543A51",
"J.	c #6E3757",
"K.	c #6D3757",
"L.	c #603A50",
"M.	c #883F4F",
"N.	c #B4675F",
"O.	c #B5685F",
"P.	c #B5675F",
"Q.	c #AF5F5B",
"R.	c #603953",
"S.	c #833957",
"T.	c #BD5D58",
"U.	c #CD7363",
"V.	c #683A51",
"W.	c #923E52",
"X.	c #CE7363",
"Y.	c #CE7463",
"Z.	c #4C3E55",
"`.	c #FDD29E",
" +	c #DFC69D",
".+	c #493C54",
"++	c #453B53",
"@+	c #553853",
"#+	c #543853",
"$+	c #893F4F",
"%+	c #483F54",
"&+	c #4F4458",
"*+	c #463852",
"=+	c #613A53",
"-+	c #6D3F52",
";+	c #FEE2B0",
">+	c #E0CEA4",
",+	c #948878",
"'+	c #534659",
")+	c #523753",
"!+	c #893E57",
"~+	c #9F4A54",
"{+	c #514357",
"]+	c #524558",
"^+	c #A24658",
"/+	c #B95858",
"(+	c #FDDDAA",
"_+	c #663A51",
":+	c #B04F56",
"<+	c #C2645C",
"[+	c #F3B58A",
"}+	c #8C6762",
"|+	c #A54D51",
"1+	c #843957",
"2+	c #9B3C56",
"3+	c #A84151",
"  . + @ # $ $ $ $ % $ & * = - ; > , ' , , ) ! ~ ) { ] ^ / ( ( ( ( ( ( / ^ ] { ) ~ ! ) , , ' , > ; - = * & $ % $ $ $ $ _ $ : < [ ",
"} | 1 2 3 $ $ $ $ % $ & * = - ; > , ' ) ! 4 5 6 6 7 8 9 0 / ^ ] { a ] b 8 8 c 6 6 5 4 ! ) ' , > ; - = * & $ % $ $ $ $ d e f g h ",
"i g f j d $ $ $ $ % $ & * = - ; > k ' ! l m n o p q r s t u v w x x w q y r z p o n m l ! ' k > ; - = * & $ % $ $ $ $ 3 2 1 | A ",
"B C D $ E $ $ $ $ F G H I = J ; > K ' 4 m L M N N O P Q R S T U ^ ^ U V W P O N N M L m 4 ' K > ; - = * & $ % $ $ $ $ X Y Z `  .",
"..< : $ _ $ $ $ $ G +.@.#.= J ; > K ' 5 $.M %.N &.*.=.R -.;.S u / / u >.,.=.*.&.N %.M $.5 ' K > ; - = * & $ % $ $ '.$ ).!.~.{. .",
"..].^.G '.% % F G /.(._.:.<.[.; > K ' 5 $.M %.N &.*.=.R -.;.S u / / u >.,.=.*.&.N %.M $.5 ' K > ; - = * & $ % $ $ '.$ }.|.1.2. .",
"..3.4.+.5.$ $ G +.(._.6.7.= [.; > K ' 4 m L M N N O P Q R S T U ^ ^ U V W P O N N M L m 4 ' K > ; - = * & $ % $ $ '.$ }.|.1.2. .",
"..8.9.0.a.b.b.c.0.d.e.<.= f.g.h.i.k ' ! l m n o p q r s t u v w x x w q y r z p o n m l ! ' k > ; - = * & $ % $ $ '.$ ).j.k.l. .",
"..m.n.#.o.* * I #.:.7.[.[.g.p.q.r., s.) ! 4 5 6 6 7 8 9 0 / ^ ] { a ] b 8 8 c 6 6 5 4 ! ) ' , > ; - = * & $ % $ $ $ $ X Y Z `  .",
"..t.u.v.w.v.v.v.v.v.v.x.v.y.z.A.B., C., , ) ! ~ ) { ] ^ / ( ( ( ( ( ( / ^ ] { ) ~ ! ) , , ' , > ; - = * & $ % $ $ D.$ E.Y Z `  .",
"..F.t.G.G.H.H.H.G.> > > > i.r.B.I., k k k ! J.K.~ L.M.v u N.O.P.O.O.P.Q.v M.L.~ K.J.! k k ' , > ; - = * & $ % $ $ '.$ ).j.k.l. .",
"..F.t.G.G.H.H.H.G.> > > > i.r.B.I., k K , R.m S.R.^ U T.S U.U.U.U.U.U.S T.U ^ R.S.m R., K ' , > ; - = * & $ % $ $ '.$ ).!.~.{. .",
"B t.u.v.w.v.v.v.v.v.v.x.v.y.z.A.B., C.K , V.$.W.V./ Q.S ;.X.Y.X.X.Y.X.;.S Q./ V.W.$.V., K ' , > ; - = * & $ % $ $ D.$ E.Y Z `  .",
"Z.m.n.#.o.* * I #.:.7.[.[.g.p.q.r., s.K , V.$.W.V./ Q.S ;.X.Y.X.X.Y.X.;.S Q./ V.W.$.V., K ' , > ; - = * & $ % $ $ $ $ `.2  +|  .",
".+8.9.0.a.b.b.c.0.d.e.<.= f.g.h.i., ' K , R.m S.R.^ U T.S U.U.U.U.U.U.S T.U ^ R.S.m R., K ' , > ; - = * & $ % $ $ $ $ d e f g  .",
"++3.4.+.5.$ $ G +.(._.6.7.= [.; > , ' k , @+l J.#+L.$+v u N.O.P.O.O.P.Q.v M.L.~ K.J.! k k ' , > ; - = * & $ % $ $ $ $ d j f g  .",
"%+].^.G '.% % F G /.(._.:.<.[.; > , ' , , ) ! ~ ) { ] ^ / ( ( ( ( ( ( / ^ ] { ) ~ ! ) , , ' , > ; - = * & $ % $ $ $ $ `.2  +| h ",
"&+< : $ _ $ $ $ $ G +.@.#.= J ; > , ' , , , , *+! =+-+9 0 / ^ ] { a ] b 8 8 c 6 6 5 4 ! ) ' , > ; - = * & $ % $ $ $ $ # ;+>+,+..",
"'+C D $ E $ $ $ $ F G H I = J ; > , ' , , k k )+l !+~+s t u v w x x w q y r z p o n m l ! ' k > ; - = * & $ % $ $ $ $ # ;+>+,+{+",
"]+g f e d $ $ $ $ % $ & * = - ; > , ' , , K , 4 m ^+/+Q R S T U ^ ^ U V W P O N N M L m 4 ' K > ; J = I H G F $ $ $ $ 3 (+1 | {+",
"{+| 1 2 3 $ $ $ $ % $ & * = - ; > , ' , , K , _+$.:+<+R -.;.S u / / u >.,.=.*.&.N %.M $.5 ' K > ; J = #.@.+.G $ $ $ $ d j f g {+",
"{+` Z Y E.$ D.$ $ % $ & * = - ; > , ' , , K , _+$.:+<+R -.;.S u / / u >.,.=.*.&.N %.M $.5 ' K > ; [.<.:._.(./.G F % % '.G ^.].{+",
"{+{.~.!.).$ '.$ $ % $ & * = - ; > , ' , , K , 4 m ^+/+Q R S T U ^ ^ U V W P O N N M L m 4 ' K > ; [.= 7.6._.(.+.G $ $ 5.[+4.}+{+",
"{+{.k.!.).$ '.$ $ % $ & * = - ; > , ' , , k k )+l !+~+s t u v w x x w q y r z p o n m l ! ' k i.h.g.f.= <.e.d.0.c.b.b.a.0.9.8.{+",
"{+` Z Y E.$ D.$ $ % $ & * = - ; > , ' , , , , *+! =+-+9 0 / ^ ] { a ] b 8 8 c 6 6 5 4 ! ) s., r.q.p.g.[.[.7.:.#.I * * o.#.n.m.{+",
"{+,+>+;+# $ $ $ $ % $ & * = - ; > , ' , , ) ! ~ ) { ] ^ / ( ( ( ( ( ( / ^ ] { ) ~ ! ) , , C., B.A.z.y.v.x.v.v.v.v.v.v.w.v.u.t.{+",
"{+. + @ # $ $ $ $ % $ & * = - ; > , ' k , @+l J.#+L.$+v u N.O.P.O.O.P.Q.v M.L.~ K.J.! k k k , I.B.r.i.> > > > G.H.H.H.G.G.t.F.{+",
"{+| 1 2 3 $ $ $ $ % $ & * = - ; > , ' K , R.m S.R.^ U T.S U.U.U.U.U.U.S T.U ^ R.S.m R., K k , I.B.r.i.> > > > G.H.H.H.G.G.t.F.{+",
"{+g f j d $ $ $ $ % $ & * = - ; > , ' K , V.$.W.V./ Q.S ;.X.Y.X.X.Y.X.;.S Q./ V.W.$.V., K C., B.A.z.y.v.x.v.v.v.v.v.v.w.v.u.t.{+",
"{+C D $ E $ $ $ $ F G H I = J ; > , ' K , V.$.W.V./ Q.S ;.X.Y.X.X.Y.X.;.S Q./ V.W.$.V., K s., r.q.p.g.[.[.7.:.#.I * * o.#.n.m.{+",
"..< : $ _ $ $ $ $ G +.@.#.= J ; > , ' K , R.m S.R.^ U T.S U.U.U.U.U.U.S T.U ^ R.S.m R., K ' , i.h.g.f.= <.e.d.0.c.b.b.a.0.9.8...",
"h ].^.G '.% % F G /.(._.:.<.[.; > , ' k k ! J.K.~ L.M.v u N.O.P.O.O.P.Q.v M.L.~ K.J.! k k ' , > ; [.= 7.6._.(.+.G $ $ 5.+.4.3.h ",
"++3.4.+.5.$ $ G +.(._.6.7.= [.; > , ' , , ) ! ~ ) { ] ^ / ( ( ( ( ( ( / ^ ] { ) ~ ! ) , , ' , > ; [.<.:._.(./.G F % % '.G ^.]. .",
".+8.9.0.a.b.b.c.0.d.e.<.= f.g.h.i., ' ) ! 4 5 6 6 7 8 9 0 / ^ ] { a ] b 8 8 c 6 6 5 4 ! ) ' , > ; J = #.@.+.G $ $ $ $ _ $ : <  .",
"Z.m.n.#.o.* * I #.:.7.[.[.g.p.q.r.k s.! l m n o p q r s t u v w x x w q y r z p o n m l ! ' k > ; J = I H G F $ $ $ $ E $ D C  .",
"B t.u.v.w.v.v.v.v.v.v.x.v.y.z.A.B.K C.4 m L M N N O P Q R S T U ^ ^ U V W P O N N M L m 4 ' K > ; - = * & $ % $ $ $ $ d j f g  .",
"..F.t.G.G.H.H.H.G.> > > > i.r.B.I.K k 5 $.M %.N &.*.=.R -.;.S u / / u >.,.=.*.&.N %.M $.5 ' K > ; - = * & $ % $ $ $ $ 3 2 1 |  .",
"..F.t.G.G.H.H.H.G.> > > > i.r.B.I.K k 5 $.M %.N &.*.=.R -.;.S u / / u >.,.=.*.&.N %.M $.5 ' K > ; - = * & $ % $ $ $ $ # @ + .  .",
"..t.u.v.w.v.v.v.v.v.v.x.v.y.z.A.B.K C.4 m L M N N O P Q R S T U ^ ^ U V W P O N N M L m 4 ' K > ; - = * & $ % $ $ $ $ # ;+>+,+ .",
"..m.n.#.o.* * I #.:.7.[.[.g.p.q.r.k s.! l m n o p q r s t u v w x x w q y r z p o n m l ! ' k > ; - = * & $ % $ $ D.$ E.Y Z `  .",
"..8.9.0.a.b.b.c.0.d.e.<.= f.g.h.i., ' ) ! 4 5 6 6 7 8 9 0 / ^ ] { a ] b 8 8 c 6 6 5 4 ! ) ' , > ; - = * & $ % $ $ '.$ ).!.k.{. .",
"..}+4.[+5.$ $ G +.(._.6.7.= [.; > , ' , , ) ! ~ ) { ] ^ / ( ( ( ( ( ( / ^ ] { ) ~ ! ) , , ' , > ; - = * & $ % $ $ '.$ ).!.~.{. .",
"..].^.G '.% % F G /.(._.:.<.[.; > , ' k k ! J.K.~ L.M.v u N.O.P.O.O.P.Q.v M.L.~ K.J.! k k ' , > ; - = * & $ % $ $ D.$ E.Y Z `  .",
"..g f j d $ $ $ $ G +.@.#.= J ; > , ' K , R.m S.R.^ U T.S U.U.U.U.U.U.S T.U ^ R.S.m R., K ' , > ; - = * & $ % $ $ $ $ 3 2 1 |  .",
"B | 1 (+3 $ $ $ $ F G H I = J ; > , ' K , V.$.W.V./ Q.S ;.X.Y.X.X.Y.X.;.S Q./ V.W.$.V., K ' , > ; - = * & $ % $ $ $ $ d e f g  .",
"Z.,+>+;+# $ $ $ $ % $ & * = - ; > , ' K , V.$.W.V./ Q.S ;.X.Y.X.X.Y.X.;.S Q./ V.W.$.V., K ' , > ; J = I H G F $ $ $ $ E $ D C  .",
".+,+>+;+# $ $ $ $ % $ & * = - ; > , ' K , R.m S.R.^ U T.S U.U.U.U.U.U.S T.U ^ R.S.m R., K ' , > ; J = #.@.+.G $ $ $ $ _ $ : <  .",
"++|  +2 `.$ $ $ $ % $ & * = - ; > , ' k k ! J.K.~ L.M.v u N.O.P.O.O.P.Q.v M.L.! K.l #+, k ' , > ; [.<.:._.(./.G F % % '.G ^.]. .",
"h g f j d $ $ $ $ % $ & * = - ; > , ' , , ) ! ~ ) { ] ^ / ( ( ( ( ( ( / ^ ] { ) ~ ! ) , , ' , > ; [.= 7.6._.(.+.G $ $ 5.+.4.3.h ",
"..g f e d $ $ $ $ % $ & * = - ; > , ' ) ! 4 5 6 6 7 8 9 0 / ^ ] { a ] b 8 8 c 5 4 ! ) , , ' , i.h.g.f.= <.e.d.0.c.b.b.a.0.9.8...",
"{+|  +2 `.$ $ $ $ % $ & * = - ; > k ' ! l m n o p q r s t u v w x x w q y |+z n 1+l ! , k s., r.q.p.g.[.[.7.:.#.I * * o.#.n.m.{+",
"{+` Z Y E.$ D.$ $ % $ & * = - ; > K ' 4 m L M N N O P Q R S T U ^ ^ U V W P O M 2+m 4 , K C., B.A.z.y.v.x.v.v.v.v.v.v.w.v.u.t.{+",
"{+{.~.!.).$ '.$ $ % $ & * = - ; > K ' 5 $.M %.N &.*.=.R -.;.S u / / u >.,.=.*.%.3+$.5 , K k , I.B.r.i.> > > > G.H.H.H.G.G.t.F.{+",
"{+l.k.j.).$ '.$ $ % $ & * = - ; > K ' 5 $.M %.N &.*.=.R -.;.S u / / u >.,.=.*.%.3+$.5 , K k , I.B.r.i.> > > > G.H.H.H.G.G.t.F.{+",
"{+` Z Y E.$ D.$ $ % $ & * = - ; > K ' 4 m L M N N O P Q R S T U ^ ^ U V W P O M 2+m 4 , K C., B.A.z.y.v.x.v.v.v.v.v.v.w.v.u.t.{+",
"{+` Z Y X $ $ $ $ % $ & * = - ; > k ' ! l m n o p q r s t u v w x x w q y |+z n 1+l ! , k s., r.q.p.g.[.[.7.:.#.I * * o.#.n.m.{+",
"{+l.k.j.).$ '.$ $ % $ & * = - ; > , ' ) ! 4 5 6 6 7 8 9 0 / ^ ] { a ] b 8 8 c 5 4 ! ) , , ' , i.h.g.f.= <.e.d.0.c.b.b.a.0.9.8.{+",
"{+2.1.|.}.$ '.$ $ % $ & * = - ; > , ' , , ) ! ~ ) { ] ^ / ( ( ( ( ( ( / ^ ] { ) ~ ! ) , , ' , > ; [.= 7.6._.(.+.G $ $ 5.+.4.3.{+",
"{+2.1.|.}.$ '.$ $ % $ & * = - ; > , ' k k ! J.K.~ L.M.v u N.O.P.O.O.P.Q.v M.L.! K.l #+, k ' , > ; [.<.:._.(./.G F % % '.G ^.].{+",
"{+{.~.!.).$ '.$ $ % $ & * = - ; > , ' K , R.m S.R.^ U T.S U.U.U.U.U.U.S T.U ^ R.S.m R., K ' , > ; J = #.@.+.G $ $ $ $ _ $ : < {+",
"{+` Z Y X $ $ $ $ % $ & * = - ; > , ' K , V.$.W.V./ Q.S ;.X.Y.X.X.Y.X.;.S Q./ V.W.$.V., K ' , > ; J = I H G F $ $ $ $ E $ D C {+",
"{+| 1 2 3 $ $ $ $ % $ & * = - ; > , ' K , V.$.W.V./ Q.S ;.X.Y.X.X.Y.X.;.S Q./ V.W.$.V., K ' , > ; - = * & $ % $ $ $ $ d j f g {+",
"..g f e d $ $ $ $ % $ & * = - ; > , ' K , R.m S.R.^ U T.S U.U.U.U.U.U.S T.U ^ R.S.m R., K ' , > ; - = * & $ % $ $ $ $ 3 2 1 | ..",
"h < : $ _ $ $ $ $ % $ & * = - ; > , ' k k ! J.K.~ L.M.v u N.O.P.O.O.P.Q.v M.L.~ K.J.! k k ' , > ; - = * & $ % $ $ $ $ # @ + . h "};
