/* XPM */
static char * int_m_wt_xpm[] = {
"64 64 237 2",
"  	c #554459",
". 	c #58465A",
"+ 	c #5A495B",
"@ 	c #5B4A5B",
"# 	c #5B4A5C",
"$ 	c #5B4B5C",
"% 	c #5C4E5D",
"& 	c #5D4F5E",
"* 	c #504358",
"= 	c #4F4257",
"- 	c #948474",
"; 	c #948A7C",
"> 	c #948F83",
", 	c #937B6D",
"' 	c #927669",
") 	c #949186",
"! 	c #927769",
"~ 	c #907267",
"{ 	c #8D6862",
"] 	c #8A5E5E",
"^ 	c #86565B",
"/ 	c #774C57",
"( 	c #584053",
"_ 	c #948877",
": 	c #948878",
"< 	c #DFC79D",
"[ 	c #E0D1AB",
"} 	c #E0D8B8",
"| 	c #DDB990",
"1 	c #DCB188",
"2 	c #E0DBBE",
"3 	c #DDB289",
"4 	c #DAAA84",
"5 	c #D4997A",
"6 	c #CF8871",
"7 	c #C9796A",
"8 	c #AF6661",
"9 	c #E0CDA3",
"0 	c #E0CEA4",
"a 	c #E0D8B7",
"b 	c #FDDDAA",
"c 	c #FEE6B6",
"d 	c #FEECC2",
"e 	c #FDDCA9",
"f 	c #FCD19D",
"g 	c #FBCA97",
"h 	c #FEEFC8",
"i 	c #F9C393",
"j 	c #F3B68B",
"k 	c #EEA380",
"l 	c #E68D74",
"m 	c #C77166",
"n 	c #855159",
"o 	c #FCD19E",
"p 	c #FEE2AF",
"q 	c #FEE2B0",
"r 	c #FDD29F",
"s 	c #FDD6A4",
"t 	c #FDD8A9",
"u 	c #FCCD9A",
"v 	c #FCCB97",
"w 	c #FDD5A4",
"x 	c #FDD9AC",
"y 	c #FCCB98",
"z 	c #FBC996",
"A 	c #F9C493",
"B 	c #F4B389",
"C 	c #E99478",
"D 	c #C77267",
"E 	c #FDD4A1",
"F 	c #FBCB97",
"G 	c #F6BB8E",
"H 	c #E9977A",
"I 	c #855059",
"J 	c #FBCA96",
"K 	c #FAC896",
"L 	c #F3B389",
"M 	c #E89478",
"N 	c #F4B88C",
"O 	c #EEA581",
"P 	c #E99477",
"Q 	c #E48670",
"R 	c #855259",
"S 	c #E89377",
"T 	c #E58771",
"U 	c #E3816E",
"V 	c #F2B389",
"W 	c #F5BA8E",
"X 	c #EDA380",
"Y 	c #E48671",
"Z 	c #E3806D",
"` 	c #E27F6D",
" .	c #C77167",
"..	c #E37F6D",
"+.	c #E37E6C",
"@.	c #E07969",
"#.	c #C46A62",
"$.	c #834E57",
"%.	c #E27E6D",
"&.	c #E27E6C",
"*.	c #D96B60",
"=.	c #BC5A59",
"-.	c #7F4654",
";.	c #C87267",
">.	c #C56A62",
",.	c #BE5A59",
"'.	c #A44A53",
").	c #703E51",
"!.	c #543A51",
"~.	c #3F3851",
"{.	c #3E3851",
"].	c #3D3851",
"^.	c #3C3851",
"/.	c #3A3751",
"(.	c #3B3751",
"_.	c #473852",
":.	c #533853",
"<.	c #5C3854",
"[.	c #613853",
"}.	c #653952",
"|.	c #693B51",
"1.	c #6B3B50",
"2.	c #543853",
"3.	c #6F3757",
"4.	c #803758",
"5.	c #893957",
"6.	c #913C54",
"7.	c #973F51",
"8.	c #9B414F",
"9.	c #803858",
"0.	c #953959",
"a.	c #9F3C56",
"b.	c #A63F53",
"c.	c #AC4350",
"d.	c #AF444E",
"e.	c #603953",
"f.	c #683A51",
"g.	c #6C3C50",
"h.	c #883957",
"i.	c #9E3C56",
"j.	c #A74053",
"k.	c #AC4250",
"l.	c #AE444F",
"m.	c #883956",
"n.	c #6E3757",
"o.	c #843A57",
"p.	c #943F52",
"q.	c #5A3852",
"r.	c #7D3A54",
"s.	c #903C54",
"t.	c #9A414F",
"u.	c #513753",
"v.	c #6D3757",
"w.	c #833957",
"x.	c #933F52",
"y.	c #933E52",
"z.	c #4B3851",
"A.	c #5C3952",
"B.	c #663A52",
"C.	c #6A3B51",
"D.	c #6A3B50",
"E.	c #663A51",
"F.	c #5E3853",
"G.	c #533753",
"H.	c #463852",
"I.	c #B75354",
"J.	c #B75454",
"K.	c #B04F56",
"L.	c #A24658",
"M.	c #883F58",
"N.	c #613A53",
"O.	c #C6695E",
"P.	c #C2645C",
"Q.	c #B85758",
"R.	c #9E4A54",
"S.	c #6D3F52",
"T.	c #CE7363",
"U.	c #CE7463",
"V.	c #CA6C5F",
"W.	c #C05D57",
"X.	c #A54C52",
"Y.	c #714051",
"Z.	c #CD7363",
"`.	c #C86B5E",
" +	c #BA5755",
".+	c #9E4650",
"++	c #6D3C50",
"@+	c #B5685F",
"#+	c #B5675F",
"$+	c #B4675F",
"%+	c #AE5F5B",
"&+	c #A14D53",
"*+	c #883E4F",
"=+	c #5F3950",
"-+	c #AF5F5B",
";+	c #7A4D56",
">+	c #774955",
",+	c #6F4052",
"'+	c #613A50",
")+	c #4D3951",
"!+	c #4D3851",
"~+	c #A24E53",
"{+	c #BD5D58",
"]+	c #C86C5F",
"^+	c #CD7162",
"/+	c #513B51",
"(+	c #694051",
"_+	c #754553",
":+	c #794B55",
"<+	c #7B4D56",
"[+	c #663E51",
"}+	c #954A52",
"|+	c #AB5656",
"1+	c #B2625C",
"2+	c #AC5756",
"3+	c #A14E53",
"4+	c #A54C51",
"5+	c #BF5A55",
"6+	c #C7675C",
"7+	c #CB6F60",
"8+	c #CD7262",
"9+	c #6D3D50",
"0+	c #9E4550",
"a+	c #B85051",
"b+	c #C05B56",
"c+	c #C6655B",
"d+	c #623A50",
"e+	c #893E4F",
"f+	c #A64D52",
"g+	c #AD5756",
"h+	c #B6685F",
"i+	c #603A50",
"j+	c #754453",
"k+	c #794A55",
"l+	c #A24D53",
"m+	c #8A3F4F",
"n+	c #3C3751",
"  . + @ # @ @ @ @ $ % & & & & & & & & % $ @ @ $ % % $ @ @ @ @ @ @ @ @ @ @ @ @ @ @ @ @ @ @ @ @ @ @ @ @ @ @ @ @ @ @ # @ + .   * = ",
"- ; > > ; - , ' ' , - ; > ) ) > ; - , ! ' ~ { ] ^ / ( ( / ^ ] { ~ ' ! , - _ : ; > > ; - , ! ' ~ { ] ^ / ( ( / ^ ] { ~ ' ! , - ; ",
"< [ } } [ < | 1 1 | < [ } 2 2 } [ < | 3 1 4 5 6 7 8 / / 8 7 6 5 4 1 3 | < 9 0 [ a } [ < | 3 1 4 5 6 7 8 / / 8 7 6 5 4 1 3 | < [ ",
"b c d d c e f g g f e c d h h d c e f g g i j k l m n n m l k j i g g o e p q c d d c e f g g i j k l m n n m l k j i g g f e c ",
"r s t t s r u v v u r w t x x t w r u y v z A B C D n n D C B A z v y u r E E s t t s r u y v z A B C D n n D C B A z v y u r s ",
"g g g g g g g g g g g g g g g g g g g g g F g G H m I I m H G g F g g g g g g g g g g g g g g F g G H m I I m H G g F g g g g g ",
"g J z z J g g g g g g g z z z z g g g g g F g G H m I I m H G g F g g g g g g J z z J g g g g F g G H m I I m H G g F g g g g J ",
"g g g g g g g g g g g g g g g g g g g g g K i L M m I I m M L i K g g g g g g g g g g g g g g K i L M m I I m M L i K g g g g g ",
"g g g g g g g g g g g g g g g g g g g g g i j k l m n n m l k j i g g g g g g g g g g g g g g i j k l m n n m l k j i g g g g g ",
"K F F F F F F F F F F F F F F F F F F K i N O P Q m R R m Q P O N i K F F F F F F F F F F K i N O P Q m R R m Q P O N i K F F F ",
"i g g g g g g g g g g g g g g g g g g i j O S T U m R R m U T S O j i g g g g g g g g g g i j O S T U m R R m U T S O j i g g g ",
"V W W W W W W W W W W W W W W W W W W V X S Y Z `  .R R  .` Z Y S X V W W W W W W W W W W V X S Y Z `  .R R  .` Z Y S X V W W W ",
"M H H H H H H H H H H H H H H H H H H M l Q U ..` m R R m ` ..U Q l M H H H H H H H H H H M l Q U ..` m R R m ` ..U Q l M H H H ",
"..........................................Z ..+.@.#.$.$.#.@.+...Z ............................Z ..+.@.#.$.$.#.@.+...Z ..........",
"%.&.&.&.&.&.&.&.&.&.&.&.&.&.&.&.&.&.&.%.%.` ` @.*.=.-.-.=.*.@.` ` %.%.&.&.&.&.&.&.&.&.&.&.%.%.` ` @.*.=.-.-.=.*.@.` ` %.%.&.&.&.",
";.;.;.;.;.;.;.;.;.;.;.;.;.;.;.;.;.;.;.;.;.;.;.>.,.'.).).'.,.>.;.;.;.;.;.;.;.;.;.;.;.;.;.;.;.;.;.;.>.,.'.).).'.,.>.;.;.;.;.;.;.;.",
"R R R R R R R R R R R R R R R R R R R R R R R $.-.).!.!.).-.$.R R R R R R R R R R R R R R R R R R $.-.).!.!.).-.$.R R R R R R R ",
"~.~.{.].].].].^.^.^.^.].].].].{.~.~.~.~.~.~.~.~.~.~.~.~.~.~.~.~.~.~.{.].].].].^.^.^.^.].].].].{.~.~.~.~.~.~.~.~.~.~.~.~.~.~.~.~.",
"/./././././././././././././././././././././././.(.^.{.{.^.(././././././././././././././././././././.(.^.{.{.^.(././././././././.",
"_._.:.<.[.}.|.1.1.1.1.|.}.[.<.2._.~.{.].].^.^.^.^.^.^.^.^.].].{.~._.2.<.[.}.|.1.1.1.1.|.}.[.<.2._.~.{.].].^.^.^.^.^.^.^.^.].].{.",
"2.2.3.4.5.6.7.8.8.8.8.7.6.5.4.3.2.~.{.~.~.~.~.~.~.~.~.~.~.~.~.{.~.2.3.4.5.6.7.8.8.8.8.7.6.5.4.3.2.~.{.~.~.~.~.~.~.~.~.~.~.~.~.{.",
"<.<.9.0.a.b.c.d.d.d.d.c.b.a.0.9.<._.:.e.f.g.g.g.g.g.g.g.g.f.e.:._.<.9.0.a.b.c.d.d.d.d.c.b.a.0.9.<._.:.e.f.g.g.g.g.g.g.g.g.f.e.:.",
"[.[.h.i.j.k.l.d.d.d.d.l.k.j.i.m.[.:.n.o.p.8.8.8.8.8.8.8.8.p.o.n.:.[.m.i.j.k.l.d.d.d.d.l.k.j.i.m.[.:.n.o.p.8.8.8.8.8.8.8.8.p.o.n.",
"q.q.r.s.7.t.t.t.8.8.t.t.t.7.s.r.q.u.v.w.x.t.8.8.t.t.t.t.t.y.w.v.u.q.r.s.7.t.t.t.8.8.t.t.t.7.s.r.q.u.v.w.x.t.8.8.t.t.t.t.t.y.w.v.",
"z.z.A.B.C.1.1.1.1.1.1.1.1.C.B.A.z._.2.e.f.g.g.g.g.g.g.g.g.f.e.2._.z.A.B.C.1.1.1.1.1.1.1.1.C.B.A.z._.2.e.f.g.g.g.g.g.g.g.g.f.e.2.",
"D.D.D.D.D.E.F.G.H.H.G.F.E.D.D.D.D.D.D.E.F.G.H.H.G.F.E.D.D.D.D.D.D.D.D.D.D.E.F.G.H.H.G.F.E.D.D.D.D.D.D.E.F.G.H.H.G.F.E.D.D.D.D.D.",
"t.t.t.t.t.y.w.v.u.u.v.w.y.t.t.t.t.8.t.x.w.v.u.u.v.w.y.t.t.t.t.t.8.t.t.t.t.y.w.v.u.u.v.w.y.t.t.t.t.8.t.x.w.v.u.u.v.w.y.t.t.t.t.t.",
"I.I.I.J.I.K.L.M.N.N.M.L.K.I.J.I.I.J.I.K.L.M.N.N.M.L.K.I.J.I.I.I.I.I.I.J.I.K.L.M.N.N.M.L.K.I.J.I.I.J.I.K.L.M.N.N.M.L.K.I.J.I.I.I.",
"O.O.O.O.O.P.Q.R.S.S.R.Q.P.O.O.O.O.O.O.P.Q.R.S.S.R.Q.P.O.O.O.O.O.O.O.O.O.O.P.Q.R.S.S.R.Q.P.O.O.O.O.O.O.P.Q.R.S.S.R.Q.P.O.O.O.O.O.",
"T.T.T.U.T.V.W.X.Y.Y.X.W.V.T.U.T.T.U.T.V.W.X.Y.Y.X.W.V.T.U.T.T.T.T.T.T.U.T.V.W.X.Y.Y.X.W.V.T.U.T.T.U.T.V.W.X.Y.Y.X.W.V.T.U.T.T.T.",
"Z.Z.Z.U.Z.`. +.+++++.+ +`.Z.U.Z.Z.U.Z.`. +.+++++.+ +`.Z.U.Z.Z.Z.Z.Z.Z.U.Z.`. +.+++++.+ +`.Z.U.Z.Z.U.Z.`. +.+++++.+ +`.Z.U.Z.Z.Z.",
"@+@+#+@+$+%+&+*+=+=+*+&+%+$+@+#+@+@+#+-+&+*+=+=+*+&+%+$+#+$+#+#+@+@+#+@+$+%+&+*+=+=+*+&+%+$+@+#+@+@+#+-+&+*+=+=+*+&+%+$+#+$+#+#+",
";+;+;+;+;+>+,+'+)+)+'+,+>+;+;+;+;+;+;+>+,+'+)+)+'+,+>+;+;+;+;+;+;+;+;+;+;+>+,+'+)+)+'+,+>+;+;+;+;+;+;+>+,+'+)+)+'+,+>+;+;+;+;+;+",
"!+!+'+,+>+;+;+;+;+;+;+;+;+>+,+'+!+!+'+,+>+;+;+;+;+;+;+;+;+>+,+'+!+!+'+,+>+;+;+;+;+;+;+;+;+>+,+'+!+!+'+,+>+;+;+;+;+;+;+;+;+>+,+'+",
"=+=+*+&+%+$+@+#+@+@+#+@+$+%+&+*+=+=+*+&+-+#+@+@+#+#+$+#+$+%+&+*+=+=+*+&+%+$+@+#+@+@+#+@+$+%+&+*+=+=+*+&+-+#+@+@+#+#+$+#+$+%+&+*+",
",+,+~+{+]+Z.Z.Z.Z.Z.Z.Z.Z.]+{+~+,+,+~+{+]+Z.Z.Z.Z.Z.Z.Z.Z.]+{+~+,+,+~+{+]+Z.Z.Z.Z.Z.Z.Z.Z.]+{+~+,+,+~+{+]+Z.Z.Z.Z.Z.Z.Z.Z.]+{+~+",
">+>+%+]+^+T.U.T.T.T.T.U.T.^+]+%+>+>+%+]+^+T.U.T.T.T.T.U.T.^+]+%+>+>+%+]+^+T.U.T.T.T.T.U.T.^+]+%+>+>+%+]+^+T.U.T.T.T.T.U.T.^+]+%+",
">+>+%+]+^+T.U.T.T.T.T.U.T.^+]+%+>+>+%+]+^+T.U.T.T.T.T.U.T.^+]+%+>+>+%+]+^+T.U.T.T.T.T.U.T.^+]+%+>+>+%+]+^+T.U.T.T.T.T.U.T.^+]+%+",
",+,+~+{+]+Z.Z.Z.Z.Z.Z.Z.Z.]+{+~+,+,+~+{+]+Z.Z.Z.Z.Z.Z.Z.Z.]+{+~+,+,+~+{+]+Z.Z.Z.Z.Z.Z.Z.Z.]+{+~+,+,+~+{+]+Z.Z.Z.Z.Z.Z.Z.Z.]+{+~+",
"=+=+*+&+%+$+@+#+@+#+#+@+$+%+&+*+=+=+*+&+-+#+@+@+#+#+$+#+$+%+&+*+=+=+*+&+%+$+@+#+@+#+#+@+$+%+&+*+=+=+*+&+-+#+@+@+#+#+$+#+$+%+&+*+",
"!+!+'+,+>+;+;+;+;+;+;+;+;+>+,+'+!+!+'+,+>+;+;+;+;+;+;+;+;+>+,+'+!+!+'+,+>+;+;+;+;+;+;+;+;+>+,+'+!+!+'+,+>+;+;+;+;+;+;+;+;+>+,+'+",
";+;+;+;+;+>+,+'+!+/+(+_+:+<+;+;+;+;+<+:+_+(+/+!+'+,+>+;+;+;+;+;+;+;+;+;+;+>+,+'+!+/+(+_+:+<+;+;+;+;+<+:+_+(+/+!+'+,+>+;+;+;+;+;+",
"@+@+#+@+$+%+&+*+=+[+}+|+1+$+@+#+@+@+#+1+2+}+[+=+*+&+%+$+#+$+#+#+@+@+#+@+$+%+&+*+=+[+}+|+1+$+@+#+@+@+#+1+2+}+[+=+*+&+%+$+#+$+#+#+",
"Z.Z.Z.Z.Z.]+{+3+,+Y.4+5+6+7+8+T.T.8+7+6+5+4+Y.,+3+{+]+Z.Z.Z.Z.Z.Z.Z.Z.Z.Z.]+{+3+,+Y.4+5+6+7+8+T.T.8+7+6+5+4+Y.,+3+{+]+Z.Z.Z.Z.Z.",
"T.T.T.U.T.^+]+-+>+9+0+a+b+c+7+U.U.7+c+b+a+0+9+>+-+]+^+T.U.T.T.T.T.T.T.U.T.^+]+-+>+9+0+a+b+c+7+U.U.7+c+b+a+0+9+>+-+]+^+T.U.T.T.T.",
"T.T.T.U.T.^+]+-+>+d+e+0+f+g+1+h+h+1+g+f+0+e+d+>+-+]+^+T.U.T.T.T.T.T.T.U.T.^+]+-+>+d+e+0+f+g+1+h+h+1+g+f+0+e+d+>+-+]+^+T.U.T.T.T.",
"Z.Z.Z.Z.Z.]+{+~+,+)+i+9+Y.j+k+;+;+k+j+Y.9+i+)+,+~+{+]+Z.Z.Z.Z.Z.Z.Z.Z.Z.Z.]+{+~+,+)+i+9+Y.j+k+;+;+k+j+Y.9+i+)+,+~+{+]+Z.Z.Z.Z.Z.",
"@+@+@+h+@+-+l+m+'+~.].~.~.~.~.~.~.~.~.~.~.].~.'+m+l+-+@+h+@+@+@+@+@+@+h+@+-+l+m+'+~.].~.~.~.~.~.~.~.~.~.~.].~.'+m+l+-+@+h+@+@+@+",
";+;+;+;+;+>+,+'+!+{.^.^.^.n+(.(.(.(.n+^.^.^.{.!+'+,+>+;+;+;+;+;+;+;+;+;+;+>+,+'+!+{.^.^.^.n+(.(.(.(.n+^.^.^.{.!+'+,+>+;+;+;+;+;+",
"~.~.~.~.~.~.~.~.~.~.~.~.~.~.~.~.~.~.~.~.~.~.~.~.~.~.~.~.~.~.~.~.~.~.~.~.~.~.~.~.~.~.~.~.~.~.~.~.~.~.~.~.~.~.~.~.~.~.~.~.~.~.~.~.",
"(.(.(.(.(.(.^.].{.~.~.~.~.~.~.~.~.~.~.~.~.~.~.{.].^.(.(.(.(.(.(.(.(.(.(.(.(.^.].{.~.~.~.~.~.~.~.~.~.~.~.~.~.~.{.].^.(.(.(.(.(.(.",
"~.~.~.~.~.~.~.~.~.~.~.~.~.~.~.~.~.~.~.~.~.~.~.~.~.~.~.~.~.~.~.~.~.~.~.~.~.~.~.~.~.~.~.~.~.~.~.~.~.~.~.~.~.~.~.~.~.~.~.~.~.~.~.~.",
"~.~.~.~.~.~.~.~.~.~.~.~.~.~.~.~.~.~.~.~.~.~.~.~.~.~.~.~.~.~.~.~.~.~.~.~.~.~.~.~.~.~.~.~.~.~.~.~.~.~.~.~.~.~.~.~.~.~.~.~.~.~.~.~.",
"~.~.~.~.~.~.~.~.~.~.~.~.~.~.~.~.~.~.~.~.~.~.~.~.~.~.~.~.~.~.~.~.~.~.~.~.~.~.~.~.~.~.~.~.~.~.~.~.~.~.~.~.~.~.~.~.~.~.~.~.~.~.~.~.",
"~.~.~.~.~.~.~.~.~.~.~.~.~.~.~.~.~.~.~.~.~.~.~.~.~.~.~.~.~.~.~.~.~.~.~.~.~.~.~.~.~.~.~.~.~.~.~.~.~.~.~.~.~.~.~.~.~.~.~.~.~.~.~.~.",
"~.~.~.~.~.~.~.~.~.~.~.~.~.~.~.~.~.~.~.~.~.~.~.~.~.~.~.~.~.~.~.~.~.~.~.~.~.~.~.~.~.~.~.~.~.~.~.~.~.~.~.~.~.~.~.~.~.~.~.~.~.~.~.~.",
"~.~.~.~.~.~.~.~.~.~.~.~.~.~.~.~.~.~.~.~.~.~.~.~.~.~.~.~.~.~.~.~.~.~.~.~.~.~.~.~.~.~.~.~.~.~.~.~.~.~.~.~.~.~.~.~.~.~.~.~.~.~.~.~.",
"~.~.~.~.~.~.~.~.~.~.~.~.~.~.~.~.~.~.~.~.~.~.~.~.~.~.~.~.~.~.~.~.~.~.~.~.~.~.~.~.~.~.~.~.~.~.~.~.~.~.~.~.~.~.~.~.~.~.~.~.~.~.~.~.",
"~.~.~.~.~.~.~.~.~.~.~.~.~.~.~.~.~.~.~.~.~.~.~.~.~.~.~.~.~.~.~.~.~.~.~.~.~.~.~.~.~.~.~.~.~.~.~.~.~.~.~.~.~.~.~.~.~.~.~.~.~.~.~.~.",
"~.~.~.~.~.~.~.~.~.~.~.~.~.~.~.~.~.~.~.~.~.~.~.~.~.~.~.~.~.~.~.~.~.~.~.~.~.~.~.~.~.~.~.~.~.~.~.~.~.~.~.~.~.~.~.~.~.~.~.~.~.~.~.~.",
"~.~.~.~.~.~.~.~.~.~.~.~.~.~.~.~.~.~.~.~.~.~.~.~.~.~.~.~.~.~.~.~.~.~.~.~.~.~.~.~.~.~.~.~.~.~.~.~.~.~.~.~.~.~.~.~.~.~.~.~.~.~.~.~.",
"~.~.~.~.~.~.~.~.~.~.~.~.~.~.~.~.~.~.~.~.~.~.~.~.~.~.~.~.~.~.~.~.~.~.~.~.~.~.~.~.~.~.~.~.~.~.~.~.~.~.~.~.~.~.~.~.~.~.~.~.~.~.~.~.",
"~.~.~.~.~.~.~.~.~.~.~.~.~.~.~.~.~.~.~.~.~.~.~.~.~.~.~.~.~.~.~.~.~.~.~.~.~.~.~.~.~.~.~.~.~.~.~.~.~.~.~.~.~.~.~.~.~.~.~.~.~.~.~.~.",
"~.~.~.~.~.~.~.~.~.~.~.~.~.~.~.~.~.~.~.~.~.~.~.~.~.~.~.~.~.~.~.~.~.~.~.~.~.~.~.~.~.~.~.~.~.~.~.~.~.~.~.~.~.~.~.~.~.~.~.~.~.~.~.~."};
