/* XPM */
static char * int_v_cb_xpm[] = {
"64 64 278 2",
"  	c #554459",
". 	c #927669",
"+ 	c #DCB188",
"@ 	c #FBCA97",
"# 	c #FCCB97",
"$ 	c #FBCB97",
"% 	c #F5BA8E",
"& 	c #E9977A",
"* 	c #E37F6D",
"= 	c #E27E6C",
"- 	c #C87267",
"; 	c #855259",
"> 	c #3F3851",
", 	c #3A3751",
"' 	c #473852",
") 	c #533853",
"! 	c #533753",
"~ 	c #4D3851",
"{ 	c #613A50",
"] 	c #6F4052",
"^ 	c #774955",
"/ 	c #7A4D56",
"( 	c #FDD4A1",
"_ 	c #FEE2B0",
": 	c #E0CEA4",
"< 	c #948878",
"[ 	c #4F4257",
"} 	c #5F475B",
"| 	c #937B6D",
"1 	c #DDB990",
"2 	c #FCD19D",
"3 	c #FCCD9A",
"4 	c #5E3853",
"5 	c #673A51",
"6 	c #6B3B50",
"7 	c #6D3D50",
"8 	c #714051",
"9 	c #754553",
"0 	c #794A55",
"a 	c #4D3951",
"b 	c #6D3C50",
"c 	c #6D3D51",
"d 	c #4E4257",
"e 	c #664D5E",
"f 	c #948474",
"g 	c #DFC79D",
"h 	c #FDDCA9",
"i 	c #FDD29F",
"j 	c #3E3851",
"k 	c #6F3757",
"l 	c #843A57",
"m 	c #933F52",
"n 	c #9A414F",
"o 	c #9B414F",
"p 	c #9E4550",
"q 	c #A54D52",
"r 	c #AC5756",
"s 	c #B2625C",
"t 	c #AE5F5B",
"u 	c #A14D53",
"v 	c #883E4F",
"w 	c #5F3950",
"x 	c #A54C51",
"y 	c #9F4650",
"z 	c #FEE2AF",
"A 	c #E0CDA3",
"B 	c #948877",
"C 	c #6B5361",
"D 	c #948A7C",
"E 	c #E0D1AB",
"F 	c #FEE6B6",
"G 	c #FDD5A4",
"H 	c #3D3851",
"I 	c #9B3D56",
"J 	c #A84251",
"K 	c #AE444E",
"L 	c #B44C51",
"M 	c #BE5955",
"N 	c #C6655B",
"O 	c #CB6F60",
"P 	c #C86C5F",
"Q 	c #BD5E59",
"R 	c #A24E53",
"S 	c #BA5755",
"T 	c #C15D57",
"U 	c #FDD29E",
"V 	c #DFC69D",
"W 	c #6D5663",
"X 	c #948F83",
"Y 	c #E0D8B8",
"Z 	c #FEECC2",
"` 	c #FDD8A9",
" .	c #FBC996",
"..	c #943F52",
"+.	c #AD434F",
"@.	c #AF444E",
"#.	c #B65153",
"$.	c #C4645B",
"%.	c #CD7262",
"&.	c #CD7162",
"*.	c #C76B5F",
"=.	c #CA6C5F",
"-.	c #FCD19E",
";.	c #949186",
">.	c #E0DBBE",
",.	c #FEEFC8",
"'.	c #FDD9AC",
").	c #DDBA91",
"!.	c #937C6D",
"~.	c #FDDDAA",
"{.	c #FAC896",
"].	c #F9C393",
"^.	c #F2B389",
"/.	c #E89478",
"(.	c #E27E6D",
"_.	c #FCCB98",
":.	c #DDB289",
"<.	c #927769",
"[.	c #F3B68B",
"}.	c #EDA380",
"|.	c #E68D74",
"1.	c #6E3757",
"2.	c #6D3757",
"3.	c #603A50",
"4.	c #883F4F",
"5.	c #B4675F",
"6.	c #B5685F",
"7.	c #B5675F",
"8.	c #AF5F5B",
"9.	c #907267",
"0.	c #DAAA84",
"a.	c #F4B88C",
"b.	c #EEA581",
"c.	c #E89377",
"d.	c #E48670",
"e.	c #E3806D",
"f.	c #E27F6D",
"g.	c #603953",
"h.	c #833957",
"i.	c #BD5D58",
"j.	c #CD7363",
"k.	c #8C6762",
"l.	c #D4997A",
"m.	c #F3B58A",
"n.	c #F9C493",
"o.	c #E48671",
"p.	c #E3816E",
"q.	c #683A51",
"r.	c #923E52",
"s.	c #CE7363",
"t.	c #CE7463",
"u.	c #8D6862",
"v.	c #8A5E5E",
"w.	c #CF8871",
"x.	c #EEA380",
"y.	c #F4B389",
"z.	c #F6BB8E",
"A.	c #F3B389",
"B.	c #E99477",
"C.	c #E58771",
"D.	c #E37E6C",
"E.	c #E07969",
"F.	c #C56A62",
"G.	c #834E57",
"H.	c #86565B",
"I.	c #C9796A",
"J.	c #E99478",
"K.	c #D96B60",
"L.	c #BE5A59",
"M.	c #7F4654",
"N.	c #3B3751",
"O.	c #774C57",
"P.	c #AF6661",
"Q.	c #C77166",
"R.	c #C77267",
"S.	c #C77167",
"T.	c #C46A62",
"U.	c #BC5A59",
"V.	c #A44A53",
"W.	c #703E51",
"X.	c #3C3851",
"Y.	c #5C4E5D",
"Z.	c #584053",
"`.	c #855159",
" +	c #855059",
".+	c #543A51",
"++	c #5B4A5B",
"@+	c #715E68",
"#+	c #79646B",
"$+	c #755C66",
"%+	c #775F68",
"&+	c #765C66",
"*+	c #3A3851",
"=+	c #893F4F",
"-+	c #FDD6A4",
";+	c #FBCA96",
">+	c #6C5663",
",+	c #543853",
"'+	c #553853",
")+	c #6D3F52",
"!+	c #613A53",
"~+	c #463852",
"{+	c #9F4A54",
"]+	c #893F58",
"^+	c #523753",
"/+	c #BB5855",
"(+	c #B95858",
"_+	c #A24658",
":+	c #C86B5E",
"<+	c #C2645C",
"[+	c #B04F56",
"}+	c #663A51",
"|+	c #A54D51",
"1+	c #A14E53",
"2+	c #9E4650",
"3+	c #A64D51",
"4+	c #9F4B54",
"5+	c #6C3C50",
"6+	c #3B3851",
"7+	c #513753",
"8+	c #99404F",
"9+	c #933E52",
"0+	c #BC5958",
"a+	c #A34952",
"b+	c #6E3E51",
"c+	c #BD5A59",
"d+	c #A54A53",
"e+	c #E07869",
"f+	c #EFA581",
"g+	c #C67166",
"h+	c #E58872",
"i+	c #E58972",
"j+	c #895E5E",
"k+	c #CE8871",
"l+	c #F5B88C",
"m+	c #E48771",
"n+	c #EA997A",
"o+	c #EA9A7B",
"p+	c #F2B289",
"q+	c #D3997B",
"r+	c #C67066",
"s+	c #F1AD86",
"t+	c #F1AE86",
"u+	c #F8C393",
"v+	c #D9AA84",
"w+	c #F8C191",
"x+	c #F8C192",
"y+	c #DCB289",
"z+	c #917267",
"A+	c #FCC996",
"B+	c #C77066",
"C+	c #FCCF9D",
"D+	c #FDD6A7",
"E+	c #FCD5A6",
"F+	c #FDE6BD",
"G+	c #FEE6B7",
"H+	c #775D67",
"I+	c #7E5B5D",
"J+	c #B8806D",
"K+	c #E0D8B7",
"L+	c #B77F6D",
"M+	c #7C595C",
"N+	c #AF6561",
"O+	c #DDBE99",
"P+	c #DFD1B2",
"Q+	c #755D65",
"R+	c #654E58",
"S+	c #5A4555",
"T+	c #937E72",
"U+	c #948B80",
"V+	c #948B7C",
"W+	c #735C65",
"X+	c #65535E",
"Y+	c #5E4D5C",
"Z+	c #5B4A5C",
"`+	c #5A495B",
" @	c #58465A",
".@	c #504358",
"  . + @ # @ @ @ @ $ @ % & * = - ; > , > > ' ) ! ' ~ { ] ^ / / / / / / ^ ] { ~ ' ! ) ' > > , > ; - = * & % @ $ @ @ @ @ ( _ : < [ ",
"} | 1 2 3 @ @ @ @ $ @ % & * = - ; > , ' ) 4 5 6 6 7 8 9 0 ^ ] { ~ a { b 8 8 c 6 6 5 4 ) ' , > ; - = * & % @ $ @ @ @ @ ( _ : < d ",
"e f g h i @ @ @ @ $ @ % & * = - ; j , ) k l m n o p q r s t u v w w v p x q y o n m l k ) , j ; - = * & % @ $ @ @ @ @ ( z A B d ",
"C D E F G @ @ @ @ $ @ % & * = - ; H , 4 l I J K K L M N O P Q R ] ] R S T M L K K J I l 4 , H ; - = * & % @ $ @ @ @ @ U h V f d ",
"W X Y Z ` @  .@ @ $ @ % & * = - ; H , 5 ..J +.K @.#.$.O %.&.P t ^ ^ t *.=.$.#.@.K +.J ..5 , H ; - = * & % @ $ @ @ @ @ 3 -.1 | d ",
"W ;.>.,.'.@  .@ @ $ @ % & * = - ; H , 5 ..J +.K @.#.$.O %.&.P t ^ ^ t *.=.$.#.@.K +.J ..5 , H ; - = * & % @ $ @ @ @ @ 3 -.).!.d ",
"W ;.>.,.'.@  .@ @ $ @ % & * = - ; H , 4 l I J K K L M N O P Q R ] ] R S T M L K K J I l 4 , H ; - = * & % @ $ @ @ @ @ U h V f d ",
"W X Y Z ` @  .@ @ $ @ % & * = - ; j , ) k l m n o p q r s t u v w w v p x q y o n m l k ) , j ; - = * & % @ $ @ @ @ @ i h g f d ",
"W D E F G @ @ @ @ $ @ % & * = - ; > , ' ) 4 5 6 6 7 8 9 0 ^ ] { ~ a { b 8 8 c 6 6 5 4 ) ' , > ; - = * & % @ $ @ @ @ @ 3 -.).!.d ",
"W f g ~.i @ @ @ @ {.].^./.* (.- ; > , > > ' ) ! ' ~ { ] ^ / / / / / / ^ ] { ~ ' ! ) ' > > , > ; - (.* /.^.].{.@ @ @ @ _.@ :.<.d ",
"W | 1 2 3 @ @ @ @ ].[.}.|.* (.- ; > , j j ) 1.2.! 3.4.u t 5.6.7.6.6.7.8.u 4.3.! 2.1.) j j , > ; - (.* |.}.[.].@ @ @ @ # @ + . d ",
"W 9.0.]. .$ $ {.].a.b.c.d.e.f.- ; > , H > g.l h.g.] R i.P j.j.j.j.j.j.P i.R ] g.h.l g.> H , > ; - f.e.d.c.b.a.].{.$ $  .].0.9.d ",
"C k.l.m.n.@ @ ].[.b.c.o.p.* f.- ; > , H > q...r.q.^ 8.P &.s.t.s.s.t.s.&.P 8.^ q.r...q.> H , > ; - f.* p.o.c.b.[.].@ @ n.[.l.u.d ",
"e v.w.x.y.z.z.A.x.B.C.e.* D.E.F.G.> , H > q...r.q.^ 8.P &.s.t.s.s.t.s.&.P 8.^ q.r...q.> H , > G.F.E.D.* e.C.B.x.A.z.z.y.x.w.v.d ",
"} H.I.|.J.& & /.|.d.p.f.f.E.K.L.M.> N.H > g.l h.g.] R i.P j.j.j.j.j.j.P i.R ] g.h.l g.> H N.> M.L.K.E.f.f.p.d.|./.& & J.|.I.H.d ",
"  O.P.Q.R.Q.Q.Q.Q.Q.Q.S.Q.T.U.V.W.> X.j j ) 1.2.! 3.4.u t 5.6.7.6.6.7.8.u 4.3.! 2.1.) j j X.> W.V.U.T.Q.S.Q.Q.Q.Q.Q.Q.R.Q.P.O.[ ",
"Y.Z.O.`.`. + + +`.; ; ; ; G.M.W..+> j > > ' ) ! ' ~ { ] ^ / / / / / / ^ ] { ~ ' ! ) ' > > j > .+W.M.G.; ; ; ; `. + + +`.`.O.Z.++",
"@+Z.O.`.`. + + +`.; ; ; ; G.M.W..+> j ' ) 4 5 6 6 7 8 9 0 ^ ] { ~ a { b 8 8 c 6 6 5 4 ) ' j > .+W.M.G.; ; ; ; `. + + +`.`.O.Z.W ",
"#+O.P.Q.R.Q.Q.Q.Q.Q.Q.S.Q.T.U.V.W.j X.) k l m n o p q r s t u v w w v p x q y o n m l k ) X.j W.V.U.T.Q.S.Q.Q.Q.Q.Q.Q.R.Q.P.O.$+",
"%+H.I.|.J.& & /.|.d.p.f.f.E.K.L.M.H N.4 l I J K K L M N O P Q R ] ] R S T M L K K J I l 4 N.H M.L.K.E.f.f.p.d.|./.& & J.|.I.H.&+",
"$+v.w.x.y.z.z.A.x.B.C.e.* D.E.F.G.H , 5 ..J +.K @.#.$.O %.&.P t ^ ^ t *.=.$.#.@.K +.J ..5 , H G.F.E.D.* e.C.B.x.A.z.z.y.x.w.v.$+",
"$+u.l.[.n.@ @ ].[.b.c.o.p.* f.- ; H , 5 ..J +.K @.#.$.O %.&.P t ^ ^ t *.=.$.#.@.K +.J ..5 , H ; - f.* p.o.c.b.[.].@ @ n.[.l.u.$+",
"$+9.0.]. .$ $ {.].a.b.c.d.e.f.- ; H , 4 l I J K K L M N O P Q R ] ] R S T M L K K J I l 4 , H ; - f.e.d.c.b.a.].{.$ $  .].0.9.$+",
"$+. + @ # @ @ @ @ ].[.}.|.* (.- ; j , ) k l ..n o p q r s t u v w w v p x q y o n m l k ) , j ; - (.* |.}.[.].@ @ @ @ # @ + . $+",
"$+<.:.@ _.@ @ @ @ {.].^./.* (.- ; > , ' ) 4 5 6 6 7 8 9 0 ^ ] { ~ a { b 8 8 c 6 6 5 4 ) ' , > ; - (.* /.^.].{.@ @ @ @ _.@ :.<.$+",
"$+| 1 2 3 @ @ @ @ $ @ % & * = - ; > , > > > > j > ~ { ] ^ / / / / / / ^ ] { ~ ' ! ) ' > > , > ; - = * & % @ $ @ @ @ @ 3 2 1 | $+",
"$+f g h i @ @ @ @ $ @ % & * = - ; > , > j H H *+X.3.=+u t 5.6.7.6.6.7.8.u 4.3.! 2.1.) j j , > ; - = * & % @ $ @ @ @ @ i h g f $+",
"$+D E F -+@ ;+@ @ $ @ % & * = - ; > , > > > > X.> ] R i.P j.j.j.j.j.j.P i.R ] g.h.l g.> H , > ; - = * & % @ $ @ @ ;+@ -+F E D $+",
"&+X Y Z ` @  .@ @ $ @ % & * = - ; > , > > > > N.> ^ 8.P &.s.t.s.s.t.s.&.P 8.^ q.r...q.> H , > ; - = * & % @ $ @ @  .@ ` Z Y X &+",
"$+X Y Z ` @  .@ @ $ @ % & * = - ; > , > > > > N.> ^ 8.P &.s.t.s.s.t.s.&.P 8.^ q.r...q.> H , > ; - = * & % @ $ @ @  .@ ` Z Y X $+",
">+D E F -+@ ;+@ @ $ @ % & * = - ; > , > > > > X.> ] R i.P j.j.j.j.j.j.P i.R ] g.h.l g.> H , > ; - = * & % @ $ @ @ ;+@ -+F E D W ",
"++f V h U @ @ @ @ $ @ % & * = - ; > , > j H H *+X.3.=+u t 5.6.7.6.6.7.8.u =+3.,+1.k '+> j , > ; - = * & % @ $ @ @ @ @ U h V f ++",
"  | 1 2 3 @ @ @ @ $ @ % & * = - ; > , > > > > j > ~ { ] ^ / / / / / / ^ ] { ~ ' ! ) ' > > , > ; - = * & % @ $ @ @ @ @ 3 2 1 | [ ",
"} !.).-.3 @ @ @ @ $ @ % & * = - ; > , ' ) 4 5 6 6 7 8 9 0 ^ ] { ~ a { b 8 )+!+) ~+> > > > , > ; - = * & % @ $ @ @ @ @ 3 -.).!.d ",
"e f V h U @ @ @ @ $ @ % & * = - ; j , ) k l ..n o p q r s t u v w w v p x {+]+k ^+j j > > , > ; - = * & % @ $ @ @ @ @ U h V f d ",
"C f g h i @ @ @ @ $ @ % & * = - ; H , 4 l I J K K L M N O P Q R ] ] R /+T (+_+l 4 > H > > , > ; - = * & % @ $ @ @ @ @ i h g f d ",
"W !.).-.3 @ @ @ @ $ @ % & * = - ; H , 5 ..J +.K @.#.$.O %.&.P t ^ ^ t :+=.<+[+..}+> H > > , > ; - = * & % @ $ @ @ @ @ 3 -.).!.d ",
"W <.:.@ _.@ @ @ @ {.].^./.* (.- ; H , 5 ..J +.K @.#.$.O %.&.P t ^ ^ t :+=.<+[+..}+> H > > , > ; - (.* /.^.].{.@ @ @ @ _.@ :.<.d ",
"W . + @ # @ @ @ @ ].[.}.|.* (.- ; H , 4 l I J K K L M N O P Q R ] ] R /+T (+_+l 4 > H > > , > ; - (.* |.}.[.].@ @ @ @ # @ + . d ",
"W 9.0.]. .$ $ {.].a.b.c.d.e.f.- ; j , ) k l ..n o p |+r s 8.1+4.3.3.4.2+3+4+]+k ! > j > > , > ; - f.e.d.c.b.a.].{.$ $  .].0.9.d ",
"W u.l.[.n.@ @ ].[.b.c.o.p.* f.- ; > , ' ) 4 5 6 6 7 8 9 0 ^ ] { ~ a { b 8 )+!+) ~+> > > > , > ; - f.* p.o.c.b.[.].@ @ n.[.l.u.d ",
"W v.w.x.y.z.z.A.x.B.C.e.* D.E.F.G.> , > > > > > > ' '+g.q.5+5+5+5+5+5+q.g.'+' > > > > > > , > G.F.E.D.* e.C.B.x.A.z.z.y.x.w.v.d ",
"W H.I.|.J.& & /.|.d.p.f.f.E.K.L.M.> N.> j H H 6+X.7+1.h.r.8+n n n o n 9+h.1.^+j j > > > > N.> M.L.K.E.f.f.p.d.|./.& & J.|.I.H.d ",
"W O.P.S.R.Q.Q.Q.Q.Q.Q.S.Q.T.0+a+b+X.6+> > > > j > ) k l ..o o o o o o ..l k ) > j > > > > 6+X.b+a+0+T.Q.S.Q.Q.Q.Q.Q.Q.R.S.P.O.d ",
"C Z.O.`.`. + + +`.; ; ; ; G.M.W..+> j > > > > > > ' '+g.q.5+5+5+5+5+5+q.g.'+' > > > > > > j > .+W.M.G.; ; ; ; `. + + +`.`.O.Z.d ",
"e .+W.M.G.; ; ; ; ; ; ; ; ; ; G.M.W..+j 6+N., , , , , , , , , , , , , , , , , , , , N.6+j .+W.M.G.; ; ; ; ; ; ; ; ; ; G.M.W..+d ",
"} W.a+0+T.Q.S.Q.Q.Q.Q.Q.Q.R.S.T.c+d+W.> X.> > > > > j H H X.X.X.X.X.X.H H j > > > > > X.> W.d+c+T.S.R.Q.Q.Q.Q.Q.Q.S.Q.T.0+a+W.d ",
"  M.c+K.e+(.(.= = = = = = (.(.e+K.c+M..+b+M.G.; ; ; ; ; ; ; ; ; ; ; ; ; ; ; ; ; ; G.M.b+.+M.c+K.e+(.(.= = = = = = (.(.e+K.c+M.[ ",
"++G.T.E.D.* e.* * * * * * e.* D.E.T.G.W.a+L.F.- - - - - - - - - - - - - - - - - - F.L.a+W.G.T.E.D.* e.* * * * * * e.* D.E.T.G.++",
">+; Q.p.C.|./.& & & & & & /.|.C.p.Q.; M.0+K.E.f.f.f.f.(.(.= = = = = = (.(.f.f.f.f.E.K.0+M.; Q.p.C.|./.& & & & & & /.|.C.p.Q.; W ",
"$+; R.o.J.}.^.% % % % % % ^.}.J.o.R.; G.T.E.D.* e.* * * * * * * * * * * * * * e.* D.E.T.G.; R.o.J.}.^.% % % % % % ^.}.J.o.R.; $+",
"&+H.I.c.f+[.].@ @ @ @ @ @ ].[.f+c.I.H.; g+f.* p.d.h+i+|./.& & & & & & /.|.i+h+d.p.* f.g+; H.I.c.f+[.].@ @ @ @ @ @ ].[.f+c.I.H.&+",
"$+j+k+b.l+].{.$ $ $ $ $ $ {.].l+b.k+j+; Q.f.e.m+c.n+o+}.p+% % % % % % p+}.o+n+c.m+e.f.Q.; j+k+b.l+].{.$ $ $ $ $ $ {.].l+b.k+j+$+",
"$+u.l.[.n.@ @ @ @ @ @ @ @ @ @ n.[.q+u.; r+p.C.c.b.s+t+[.u+@ @ @ @ @ @ u+[.t+s+b.c.C.p.r+; u.q+[.n.@ @ @ @ @ @ @ @ @ @ n.[.l.u.$+",
"$+9.0.]. .@ @ @ @ @ @ @ @ @ @  .].v+9.; r+d.B.b.a.w+x+].{.$ $ $ $ $ $ {.].x+w+a.b.B.d.r+; 9.v+]. .@ @ @ @ @ @ @ @ @ @  .].0.9.$+",
"$+<.:.@ _.@ @ @ @ @ @ @ @ @ @ _.@ y+<.`.r+|.x.[.].@ @ @ @ @ @ @ @ @ @ @ @ @ @ ].[.x.|.r+`.<.y+@ _.@ @ @ @ @ @ @ @ @ @ _.@ :.<.$+",
"$+<.:.@ _.@ @ @ @ @ @ @ @ @ @ _.@ :.<. +r+/.A.u+{.@ @ @ @ @ @ @ @ @ @ @ @ @ @ {.u+A./.r+ +<.:.@ _.@ @ @ @ @ @ @ @ @ @ _.@ :.<.$+",
"$+<.:.@ _.@ @ ;+ . .;+@ @ @ @ _.@ :.<. +r+& z.@ $ @ @ @ ;+ .;+@ @ @ @ @ @ @ @ $ @ z.& r+ +<.:.@ _.@ @ @ @ ;+ . .;+@ @ _.@ :.<.$+",
"$+<.:.@ _.@ @ @ @ @ @ @ @ @ @ _.@ y+<. +r+& z.@ $ @ @ @ @ @ @ @ @ @ @ @ @ @ @ $ @ z.& r+ +<.y+@ _.@ @ @ @ @ @ @ @ @ @ _.@ :.<.$+",
"$+z+0.n.A+3 i -+` ` -+( ( i 3 A+n.0.z+`.B+J.y.n. .# _.C+D+` -+U 3 3 U i 3 _.#  .n.y.J.B+`.z+0.n.A+3 i ( ( -+` ` -+i 3 A+n.0.z+$+",
"&+u.l.m.n.2 ~.F Z Z F _ z ~.-.n.m.q+u.`.r+|.x.[.].;+@ E+F+Z G+h 2 -.h h -.@ @ ].[.x.|.r+`.u.q+m.n.-.~.z _ F Z Z F ~.2 n.m.l.u.&+",
"H+I+J+l.0.1 g E Y K+E : A g 1 0.l.L+M+O.N+I.w.l.0.+ :.O+P+Y E V 1 ).V g ).:.+ 0.l.w.I.N+O.M+L+l.0.1 g A : E K+Y E g 1 0.l.J+I+H+",
"Q+R+I+k.z+| f D X X D < B f | z+k.M+S+Z.O.H.v.u.9.. <.T+U+X V+f | !.f f !.<.. 9.u.v.H.O.Z.S+M+k.z+| f B < D X X D f | z+k.I+R+Q+",
"W+X+Y+++++++++++++++++++++++++++++++++++++++++++++Z+++`+ @  .@.@   @`+++Z+++++++++++++++++++++++++++++++++++++++++++++++++Y+X+W+"};
