/* XPM */
static char * int_m_ctl_xpm[] = {
"64 64 319 2",
"  	c #6B5461",
". 	c #624F5C",
"+ 	c #5D4C5C",
"@ 	c #5B4A5B",
"# 	c #5B4A5C",
"$ 	c #5B4B5C",
"% 	c #5C4E5D",
"& 	c #5D4F5E",
"* 	c #5A495B",
"= 	c #58465A",
"- 	c #554459",
"; 	c #504358",
"> 	c #4F4257",
", 	c #68505E",
"' 	c #654E58",
") 	c #7E5B5D",
"! 	c #8C6762",
"~ 	c #917267",
"{ 	c #937B6D",
"] 	c #948474",
"^ 	c #948A7C",
"/ 	c #948F83",
"( 	c #948878",
"_ 	c #948877",
": 	c #7C595C",
"< 	c #5A4555",
"[ 	c #584053",
"} 	c #774C57",
"| 	c #86565B",
"1 	c #8A5E5E",
"2 	c #8D6862",
"3 	c #907267",
"4 	c #927669",
"5 	c #927769",
"6 	c #937C6D",
"7 	c #694F5F",
"8 	c #B8806D",
"9 	c #D4997A",
"0 	c #DAAA84",
"a 	c #DDB990",
"b 	c #DFC79D",
"c 	c #E0D1AB",
"d 	c #E0D8B8",
"e 	c #E0D8B7",
"f 	c #E0CEA4",
"g 	c #E0CDA3",
"h 	c #B77F6D",
"i 	c #AF6561",
"j 	c #C9796A",
"k 	c #CF8871",
"l 	c #DCB188",
"m 	c #DDB289",
"n 	c #DFC69D",
"o 	c #DDBA91",
"p 	c #AF6661",
"q 	c #6B5361",
"r 	c #F3B58A",
"s 	c #F9C493",
"t 	c #FCD19D",
"u 	c #FDDDAA",
"v 	c #FEE6B6",
"w 	c #FEECC2",
"x 	c #FEE2B0",
"y 	c #FEE2AF",
"z 	c #FCD19E",
"A 	c #D3997B",
"B 	c #855159",
"C 	c #C67066",
"D 	c #E68D74",
"E 	c #EEA380",
"F 	c #F3B68B",
"G 	c #F9C393",
"H 	c #FBCA97",
"I 	c #FDDCA9",
"J 	c #C77166",
"K 	c #6D5663",
"L 	c #FCC996",
"M 	c #FCCD9A",
"N 	c #FDD29F",
"O 	c #FDD6A4",
"P 	c #FDD8A9",
"Q 	c #FDD4A1",
"R 	c #C77066",
"S 	c #E99478",
"T 	c #F4B389",
"U 	c #FBC996",
"V 	c #FCCB97",
"W 	c #FCCB98",
"X 	c #FDD29E",
"Y 	c #C77267",
"Z 	c #DCB289",
"` 	c #855059",
" .	c #E9977A",
"..	c #F6BB8E",
"+.	c #FBCB97",
"@.	c #FBCA96",
"#.	c #E89478",
"$.	c #F3B389",
"%.	c #FAC896",
"&.	c #D9AA84",
"*.	c #855259",
"=.	c #E48670",
"-.	c #E99477",
";.	c #EEA581",
">.	c #F4B88C",
",.	c #E3816E",
"'.	c #E58771",
").	c #E89377",
"!.	c #895E5E",
"~.	c #CE8871",
"{.	c #F5B88C",
"].	c #E27F6D",
"^.	c #E3806D",
"/.	c #E48671",
"(.	c #EDA380",
"_.	c #F2B389",
":.	c #F5BA8E",
"<.	c #C77167",
"[.	c #EFA581",
"}.	c #C67166",
"|.	c #E37F6D",
"1.	c #664D5E",
"2.	c #834E57",
"3.	c #C46A62",
"4.	c #E07969",
"5.	c #E37E6C",
"6.	c #5F475B",
"7.	c #7F4654",
"8.	c #BC5958",
"9.	c #D96B60",
"0.	c #E27E6D",
"a.	c #E27E6C",
"b.	c #BC5A59",
"c.	c #703E51",
"d.	c #A34952",
"e.	c #BE5A59",
"f.	c #C56A62",
"g.	c #C87267",
"h.	c #A44A53",
"i.	c #BD5A59",
"j.	c #E07869",
"k.	c #543A51",
"l.	c #6E3E51",
"m.	c #715E68",
"n.	c #A54A53",
"o.	c #3F3851",
"p.	c #3C3851",
"q.	c #3E3851",
"r.	c #3D3851",
"s.	c #79646B",
"t.	c #3B3851",
"u.	c #3B3751",
"v.	c #3A3751",
"w.	c #775F68",
"x.	c #473852",
"y.	c #543853",
"z.	c #5C3854",
"A.	c #613853",
"B.	c #653952",
"C.	c #693B51",
"D.	c #6B3B50",
"E.	c #533853",
"F.	c #755C66",
"G.	c #6F3757",
"H.	c #803758",
"I.	c #893957",
"J.	c #913C54",
"K.	c #973F51",
"L.	c #9B414F",
"M.	c #553853",
"N.	c #603953",
"O.	c #683A51",
"P.	c #6C3C50",
"Q.	c #803858",
"R.	c #953959",
"S.	c #9F3C56",
"T.	c #A63F53",
"U.	c #AC4350",
"V.	c #AF444E",
"W.	c #843A57",
"X.	c #943F52",
"Y.	c #6E3757",
"Z.	c #883956",
"`.	c #9E3C56",
" +	c #A74053",
".+	c #AC4250",
"++	c #AE444F",
"@+	c #883957",
"#+	c #9A414F",
"$+	c #933E52",
"%+	c #833957",
"&+	c #6D3757",
"*+	c #513753",
"=+	c #5A3852",
"-+	c #7D3A54",
";+	c #903C54",
">+	c #4B3851",
",+	c #5C3952",
"'+	c #663A52",
")+	c #6A3B51",
"!+	c #5E3853",
"~+	c #673A51",
"{+	c #6A3B50",
"]+	c #663A51",
"^+	c #533753",
"/+	c #463852",
"(+	c #9B3D56",
"_+	c #A84251",
":+	c #AF454E",
"<+	c #B2484F",
"[+	c #B44C50",
"}+	c #B65153",
"|+	c #B75354",
"1+	c #B75454",
"2+	c #B04F56",
"3+	c #A24658",
"4+	c #883F58",
"5+	c #613A53",
"6+	c #765C66",
"7+	c #A84151",
"8+	c #AD434F",
"9+	c #B84F51",
"0+	c #BE5955",
"a+	c #C4645B",
"b+	c #C6695E",
"c+	c #C2645C",
"d+	c #B85758",
"e+	c #9E4A54",
"f+	c #6D3F52",
"g+	c #BF5A55",
"h+	c #C6655B",
"i+	c #CB6F60",
"j+	c #CE7363",
"k+	c #CE7463",
"l+	c #CA6C5F",
"m+	c #C05D57",
"n+	c #A54C52",
"o+	c #714051",
"p+	c #6C5663",
"q+	c #9B3C56",
"r+	c #C3645B",
"s+	c #CB6E60",
"t+	c #CD7262",
"u+	c #CD7363",
"v+	c #C86B5E",
"w+	c #BA5755",
"x+	c #9E4650",
"y+	c #6D3C50",
"z+	c #FDD5A4",
"A+	c #A14D53",
"B+	c #AE5F5B",
"C+	c #B5675F",
"D+	c #B5685F",
"E+	c #B4675F",
"F+	c #883E4F",
"G+	c #5F3950",
"H+	c #AF5F5B",
"I+	c #6F4152",
"J+	c #774955",
"K+	c #7B4D56",
"L+	c #7A4D56",
"M+	c #6F4052",
"N+	c #613A50",
"O+	c #4D3951",
"P+	c #949186",
"Q+	c #E0DBBE",
"R+	c #FEEFC8",
"S+	c #FDD9AC",
"T+	c #6D3D51",
"U+	c #4D3851",
"V+	c #9E4550",
"W+	c #A54C51",
"X+	c #AE444E",
"Y+	c #B44C51",
"Z+	c #C15D57",
"`+	c #A24E53",
" @	c #BD5D58",
".@	c #C86C5F",
"+@	c #C76B5F",
"@@	c #CD7162",
"#@	c #754453",
"$@	c #794A55",
"%@	c #513B51",
"&@	c #694051",
"*@	c #754553",
"=@	c #794B55",
"-@	c #883E57",
";@	c #AC5756",
">@	c #B2625C",
",@	c #663E51",
"'@	c #954A52",
")@	c #AB5656",
"!@	c #B95858",
"~@	c #A14E53",
"{@	c #C7675C",
"]@	c #6D3D50",
"^@	c #B85051",
"/@	c #C05B56",
"(@	c #623A50",
"_@	c #893E4F",
":@	c #A64D52",
"<@	c #AD5756",
"[@	c #B6685F",
"}@	c #603A50",
"|@	c #393751",
"1@	c #8A3F4F",
"2@	c #A24D53",
"3@	c #3C3751",
"4@	c #9A404F",
"5@	c #A44C51",
"6@	c #3A3851",
"7@	c #633E55",
"8@	c #734856",
"9@	c #8C475B",
"0@	c #A85E5D",
"a@	c #A54E5B",
"b@	c #C16860",
"c@	c #B15257",
"d@	c #C5695F",
"  . + @ # @ @ @ @ $ % & & & & & & & & % $ @ @ $ % % $ @ @ @ @ @ @ @ @ @ @ @ @ @ @ @ @ @ @ @ @ @ @ @ @ @ @ @ @ @ @ # @ * = - ; > ",
", ' ) ! ~ { ] ^ / / ^ ( _ ] { ~ ! : < [ } | 1 2 3 4 5 { ] ^ / / ^ ( _ ] { { ] ^ / / ^ ] { 6 ] ] 6 5 4 3 2 1 | } [ [ } | 1 ! 3 { ",
"7 ) 8 9 0 a b c d e c f g b a 0 9 h : } i j k 9 0 l m a b c d e c f g n a a n c d d c n a o n b o m l 0 9 k j p } } p j k 9 0 a ",
"q 2 9 r s t u v w w v x y u z s r A 2 B C D E F G H H t I v w w v x y I z t I v w w v I t z I I z H H G F E D J B B J D E r G t ",
"K ~ 0 s L M N O P P O Q Q N M L s 0 ~ B R S T s U V W M N O P P O Q Q X M M X O P P O X M M X N M W V U s T S Y B B Y S T s U M ",
"K 5 m H W H H H H H H H H H H W H Z 5 ` C  ...H +.H H H H H H H H H H H H H H H H H H H H H H H H H H +.H .. .J ` ` J  ...H +.H ",
"K 5 m H W H H @.U U @.H H H H W H m 5 ` C  ...H +.H H H H @.U U @.H H H H H H @.U U @.H H H H H H H H +.H .. .J ` ` J  ...H +.H ",
"K 5 m H W H H H H H H H H H H W H m 5 ` C #.$.G %.H H H H H H H H H H H H H H H H H H H H H H H H H H %.G $.#.J ` ` J #.$.G %.H ",
"K 5 m H W H H H H H H H H H H W H Z 5 B C D E F G H H H H H H H H H H H H H H H H H H H H H H H H H H G F E D J B B J D E F G H ",
"K 3 0 G U H H H H H H H H H H U G &.3 *.C =.-.;.>.G %.+.+.+.+.+.+.+.+.+.+.+.+.+.+.+.+.+.+.+.+.+.+.%.G >.;.-.=.J *.*.J =.-.;.>.G ",
"K 2 9 F s H H H H H H H H H H s F A 2 *.C ,.'.).;.F G H H H H H H H H H H H H H H H H H H H H H H G F ;.).'.,.J *.*.J ,.'.).;.F ",
"K !.~.;.{.G %.+.+.+.+.+.+.%.G {.;.~.!.*.J ].^./.).(._.:.:.:.:.:.:.:.:.:.:.:.:.:.:.:.:.:.:.:.:.:.:._.(.)./.^.].<.*.*.<.].^./.).(.",
"q | j ).[.F G H H H H H H G F [.).j | *.}.].|.,.=.D #. . . . . . . . . . . . . . . . . . . . . . .#.D =.,.|.].J *.*.J ].|.,.=.D ",
"1.*.Y /.S (._.:.:.:.:.:.:._.(.S /.Y *.2.3.4.5.|.^.|.|.|.|.|.|.|.|.|.|.|.|.|.|.|.|.|.|.|.|.|.|.|.|.|.|.^.|.5.4.3.2.2.3.4.5.|.^.|.",
"6.*.J ,.'.D #. . . . . . .#.D '.,.J *.7.8.9.4.].].0.0.a.a.a.a.a.a.a.a.a.a.a.a.a.a.a.a.a.a.a.a.a.a.0.0.].].4.9.b.7.7.b.9.4.].].0.",
"- 2.3.4.5.|.^.|.|.|.|.|.|.^.|.5.4.3.2.c.d.e.f.g.g.g.g.g.g.g.g.g.g.g.g.g.g.g.g.g.g.g.g.g.g.g.g.g.g.g.g.g.g.f.e.h.c.c.h.e.f.g.g.g.",
"% 7.i.9.j.0.0.a.a.a.a.a.a.0.0.j.9.i.7.k.l.7.2.*.*.*.*.*.*.*.*.*.*.*.*.*.*.*.*.*.*.*.*.*.*.*.*.*.*.*.*.*.*.2.7.c.k.k.c.7.2.*.*.*.",
"m.c.d.8.3.J <.J J J J J J Y <.3.i.n.c.o.p.o.o.o.o.o.o.o.o.o.o.o.o.o.q.r.r.r.r.p.p.p.p.r.r.r.r.q.o.o.q.r.r.r.r.p.p.p.p.r.r.r.r.q.",
"s.k.c.7.2.*.*.*.*.*.*.*.*.*.*.2.7.c.k.q.t.u.v.v.v.v.v.v.v.v.v.v.v.v.v.v.v.v.v.v.v.v.v.v.v.v.v.v.v.v.v.v.v.v.u.p.q.q.p.u.v.v.v.v.",
"w.[ } B B ` ` ` B *.*.*.*.2.7.c.k.o.q.o.q.r.r.p.p.p.p.p.p.r.r.q.o.x.y.z.A.B.C.D.D.D.D.C.B.A.z.E.x.x.E.z.A.B.C.D.D.D.D.C.B.A.z.E.",
"F.} p <.Y J J J J J J <.J 3.8.d.l.p.t.o.o.o.o.o.o.o.o.o.o.o.o.q.o.y.G.H.I.J.K.L.L.L.L.K.J.I.H.G.y.y.G.H.I.J.K.L.L.L.L.K.J.I.H.G.",
"F.| j D S  . .#.D =.,.].].4.9.e.7.o.u.x.M.N.O.P.P.P.P.P.P.O.N.E.x.z.Q.R.S.T.U.V.V.V.V.U.T.S.R.Q.z.z.Q.R.S.T.U.V.V.V.V.U.T.S.R.Q.",
"F.1 k E T ....$.E -.'.^.|.5.4.f.2.q.v.E.G.W.X.L.L.L.L.L.L.X.W.Y.E.A.Z.`. +.+++V.V.V.V.++.+ +`.@+A.A.@+`. +.+++V.V.V.V.++.+ +`.@+",
"F.2 9 F s H H G F ;.)./.,.|.].g.*.q.v.E.G.W.X.L.L.#+#+#+#+$+%+&+*+=+-+;+K.#+#+#+L.L.#+#+#+K.;+-+=+=+-+;+K.#+L.L.#+#+#+#+#+K.;+-+",
"F.3 0 G U +.+.%.G >.;.).=.^.].g.*.o.v.x.M.N.O.P.P.P.P.P.P.O.N.y.x.>+,+'+)+D.D.D.D.D.D.D.D.)+'+,+>+>+,+'+)+D.D.D.D.D.D.D.D.)+'+,+",
"F.4 l H V H H H H G F (.D |.0.g.*.o.v.o.o.o.o.x.E.!+~+D.D.D.{+{+{+{+{+{+{+]+!+^+/+/+^+!+]+{+{+{+{+{+{+]+!+^+/+/+^+!+]+{+{+{+{+{+",
"F.5 m H W H H H H %.G _.#.|.0.g.*.o.v.o.q.p.r.*+Y.%+$+#+#+#+#+#+L.#+#+#+#+$+%+&+*+*+&+%+$+#+#+#+#+L.#+$+%+&+*+*+&+%+$+#+#+#+#+#+",
"F.{ a z M H H H H +.H :. .|.a.g.*.o.v.o.o.r.o.!+W.(+_+:+<+[+}+|+1+|+|+1+|+2+3+4+5+5+4+3+2+|+1+|+|+1+|+2+3+4+5+5+4+3+2+|+1+|+|+|+",
"6+] b I N H H H H +.H :. .|.a.g.*.o.v.o.o.r.o.~+X.7+8+<+9+0+a+b+b+b+b+b+b+c+d+e+f+f+e+d+c+b+b+b+b+b+b+c+d+e+f+f+e+d+c+b+b+b+b+b+",
"F._ g y Q H H H H +.H :. .|.a.g.*.o.v.o.o.r.o.~+X.7+8+[+g+h+i+j+k+j+j+k+j+l+m+n+o+o+n+m+l+j+k+j+j+k+j+l+m+n+o+o+n+m+l+j+k+j+j+j+",
"p+( f x Q H H H H +.H :. .|.a.g.*.o.v.o.o.r.o.!+W.q+_+}+r+s+t+u+u+u+u+k+u+v+w+x+y+y+x+w+v+u+k+u+u+k+u+v+w+x+y+y+x+w+v+u+k+u+u+u+",
"@ ^ c v z+H H H H +.H :. .|.a.g.*.o.v.o.q.p.r.*+Y.%+$+A+B+C+D+C+D+D+C+D+E+B+A+F+G+G+F+A+B+E+D+C+D+D+C+H+A+F+G+G+F+A+B+E+C+E+C+C+",
"- / e w P H U H H +.H :. .|.a.g.*.o.v.o.o.o.o.x.E.!+~+I+J+K+K+L+L+L+L+L+L+J+M+N+O+O+N+M+J+L+L+L+L+L+L+J+M+N+O+O+N+M+J+L+L+L+L+L+",
"6.P+Q+R+S+H U H H +.H :. .|.a.g.*.o.v.x.E.!+~+D.D.D.D.T+o+o+y+N+O+U+N+M+J+L+L+L+L+L+L+L+L+J+M+N+U+U+N+M+J+L+L+L+L+L+L+L+L+J+M+N+",
"1.P+Q+R+S+H U H H +.H :. .|.a.g.*.q.v.E.G.W.X.L.L.#+#+V+W+W+V+F+G+G+F+A+B+E+D+C+D+D+C+D+E+B+A+F+G+G+F+A+H+C+D+D+C+C+E+C+E+B+A+F+",
"q / d w P H U H H +.H :. .|.a.g.*.r.v.!+W.(+_+X+X+X+X+Y+0+Z+w+`+M+M+`+ @.@u+u+u+u+u+u+u+u+.@ @`+M+M+`+ @.@u+u+u+u+u+u+u+u+.@ @`+",
"K ^ c v z+H H H H +.H :. .|.a.g.*.r.v.~+X._+8+V.V.X+V.}+a+l++@B+J+J+B+.@@@j+k+j+j+j+j+k+j+@@.@B+J+J+B+.@@@j+k+j+j+j+j+k+j+@@.@B+",
"K ] b I N H H H H +.H :. .|.a.g.*.r.v.~+X._+8+V.V.X+V.}+a+l++@B+J+J+B+.@@@j+k+j+j+j+j+k+j+@@.@B+J+J+B+.@@@j+k+j+j+j+j+k+j+@@.@B+",
"K { a t M H H H H +.H :. .|.a.g.*.r.v.!+W.(+_+X+X+X+X+Y+0+Z+w+`+M+M+`+ @.@u+u+u+u+u+u+u+u+.@ @`+M+M+`+ @.@u+u+u+u+u+u+u+u+.@ @`+",
"K 5 m H W H H H H %.G _.#.|.0.g.*.q.v.E.G.W.X.L.L.#+#+V+W+W+V+F+G+G+F+A+B+E+D+C+D+C+C+D+E+B+A+F+G+G+F+A+H+C+D+D+C+C+E+C+E+B+A+F+",
"K 4 l H V H H H H G F (.D |.0.g.*.o.v.x.E.!+~+D.D.D.D.T+o+o+y+N+O+U+N+M+J+L+L+L+L+L+L+L+L+J+M+N+U+U+N+M+J+L+L+L+L+L+L+L+L+J+M+N+",
"K 3 0 G U +.+.%.G >.;.).=.^.].g.*.o.v.o.o.o.o./+E.5+f+#@$@L+L+L+L+L+L+L+L+J+M+N+U+%@&@*@=@K+L+L+L+L+K+=@*@&@%@U+N+M+J+L+L+L+L+L+",
"K 2 9 F s H H G F ;.)./.,.|.].g.*.o.v.o.q.p.r.*+Y.-@e+;@>@C+D+C+D+D+C+D+E+B+A+F+G+,@'@)@>@E+D+C+D+D+C+>@;@'@,@G+F+A+B+E+C+E+C+C+",
"K 1 k E T ....$.E -.'.^.|.5.4.f.2.o.v.o.o.r.o.!+W.3+!@h+i+u+u+u+u+u+u+u+u+.@ @~@M+o+W+g+{@i+t+j+j+t+i+{@g+W+o+M+~@ @.@u+u+u+u+u+",
"q | j D S  . .#.D =.,.].].4.9.e.7.o.u.o.o.r.o.]+X.2+c+i+t+j+j+j+j+j+j+k+j+@@.@H+J+]@V+^@/@h+i+k+k+i+h+/@^@V+]@J+H+.@@@j+k+j+j+j+",
"1.} p J Y J J J J J J <.J 3.b.h.c.o.p.o.o.r.o.]+X.2+c+i+t+j+j+j+j+j+j+k+j+@@.@H+J+(@_@V+:@<@>@[@[@>@<@:@V+_@(@J+H+.@@@j+k+j+j+j+",
"6.[ } B B ` ` ` B *.*.*.*.2.7.c.k.o.q.o.o.r.o.!+W.3+!@h+i+u+u+u+u+u+u+u+u+.@ @`+M+O+}@]@o+#@$@L+L+$@#@o+]@}@O+M+`+ @.@u+u+u+u+u+",
"- [ } B B ` ` ` B *.*.*.*.2.7.c.k.o.q.o.q.p.r.*+Y.-@e+;@>@C+D+C+D+D+C+D+E+B+A+_@G+u.|@u.p.r.q.o.o.o.o.o.o.r.o.N+1@2@H+D+[@D+D+D+",
"@ } p J Y J J J J J J <.J 3.b.h.c.o.p.o.o.o.o./+E.5+f+#@$@L+L+L+L+L+L+L+L+J+M+N+U+q.p.p.p.3@u.u.u.u.3@p.p.p.q.U+N+M+J+L+L+L+L+L+",
"p+| j D S  . .#.D =.,.].].4.9.e.7.o.u.x.E.!+~+D.D.D.D.T+o+o+y+N+O+U+N+M+J+L+L+L+L+L+L+J+M+N+U+o.q.o.o.o.o.o.o.o.o.o.o.o.o.o.o.o.",
"F.1 k E T ....$.E -.'.^.|.5.4.f.2.q.v.E.G.W.X.L.L.#+#+V+W+W+V+F+G+G+F+A+B+E+D+C+D+[@D+H+2@1@N+o.r.o.o.o.o.o.o.q.r.p.u.u.u.u.u.u.",
"6+2 9 F s H H G F ;.)./.,.|.].g.*.r.v.!+W.(+_+X+X+X+X+Y+0+Z+w+`+M+M+`+ @.@u+u+u+u+u+u+.@ @`+M+o.p.o.o.o.o.o.o.o.o.o.o.o.o.o.o.o.",
"F.3 0 G U +.+.%.G >.;.).=.^.].g.*.r.v.~+X._+8+V.V.X+V.}+a+l++@B+J+J+B+.@@@j+k+j+j+k+j+@@.@H+J+o.u.o.o.o.o.o.o.o.o.o.o.o.o.o.o.o.",
"F.4 l H V H H H H G F (.D |.0.g.*.r.v.~+X._+8+V.V.X+V.}+a+l++@B+J+J+B+.@@@j+k+j+j+k+j+@@.@H+J+o.u.o.o.o.o.o.o.o.o.o.o.o.o.o.o.o.",
"F.5 m H W H H H H %.G _.#.|.0.g.*.r.v.!+W.(+_+X+X+X+X+Y+0+Z+w+`+M+M+`+ @.@u+u+u+u+u+u+.@ @`+M+o.p.o.o.o.o.o.o.o.o.o.o.o.o.o.o.o.",
"F.6 o z M H H H H +.H :. .|.a.g.*.q.v.E.G.W.X.L.L.#+4@V+5@W+V+F+G+G+F+A+B+E+D+C+D+D+C+H+A+F+G+u.6@r.q.o.o.o.o.o.o.o.o.o.o.o.o.o.",
"F.] b I N H H H H +.H :. .|.a.g.*.o.v.x.E.!+~+D.D.D.D.T+o+o+y+N+O+U+N+M+J+L+L+L+L+L+L+J+M+N+U+o.q.o.o.o.o.o.o.o.o.o.o.o.o.o.o.o.",
"F.] n I X H H H H +.H :. .|.a.g.*.o.v.o.o.o.o./+E.7@8@L+K+L+L+L+L+L+L+L+L+J+M+N+U+U+N+M+J+L+L+J+M+N+U+o.q.o.o.o.o.o.o.o.o.o.o.o.",
"F.6 o z M H H H H +.H :. .|.a.g.*.o.v.o.q.p.r.*+Y.9@0@C+D+C+C+C+D+D+C+D+E+B+A+F+G+G+F+A+H+D+D+H+2@1@N+o.r.o.o.o.o.o.o.o.o.o.o.o.",
"F.{ a z M H H H H +.H :. .|.a.g.*.o.v.o.o.r.o.!+W.a@b@u+u+u+u+u+u+u+u+u+u+.@ @`+M+M+`+ @.@u+u+.@ @`+M+o.p.o.o.o.o.o.o.o.o.o.o.o.",
"6+] n I X H H H H +.H :. .|.a.g.*.o.v.o.o.r.o.]+X.c@d@j+k+j+j+j+j+j+j+k+j+@@.@B+J+J+B+.@@@k+k+@@.@H+J+o.u.o.o.o.o.o.o.o.o.o.o.o.",
"F._ g y Q H H H H +.H :. .|.a.g.*.o.v.o.o.r.o.]+X.c@d@j+k+j+j+j+j+j+j+k+j+@@.@B+J+J+B+.@@@k+k+@@.@H+J+o.u.o.o.o.o.o.o.o.o.o.o.o.",
"p+( f x Q H H H H +.H :. .|.a.g.*.o.v.o.o.r.o.!+W.a@b@u+u+u+u+u+u+u+u+u+u+.@ @`+M+M+`+ @.@u+u+.@ @`+M+o.p.o.o.o.o.o.o.o.o.o.o.o.",
"@ ( f x Q H H H H +.H :. .|.a.g.*.o.v.o.q.p.r.*+Y.9@0@C+D+C+C+C+D+D+C+D+E+B+A+F+G+G+F+A+B+C+D+H+2@1@N+o.r.o.o.o.o.o.o.o.o.o.o.o."};
