/* XPM */
static char * int_m_cbr_xpm[] = {
"64 64 298 2",
"  	c #3F3851",
". 	c #3E3851",
"+ 	c #4D3851",
"@ 	c #613A50",
"# 	c #6F4052",
"$ 	c #774955",
"% 	c #794A55",
"& 	c #754553",
"* 	c #683F51",
"= 	c #503A51",
"- 	c #7A4D56",
"; 	c #754453",
"> 	c #6D3F52",
", 	c #613A53",
"' 	c #533853",
") 	c #463852",
"! 	c #3A3751",
"~ 	c #855259",
"{ 	c #C87267",
"] 	c #E27E6C",
"^ 	c #E37F6D",
"/ 	c #E9977A",
"( 	c #F5BA8E",
"_ 	c #FBCA97",
": 	c #FBCB97",
"< 	c #FDD4A1",
"[ 	c #FEE2B0",
"} 	c #E0CEA4",
"| 	c #948878",
"1 	c #513B51",
"2 	c #714051",
"3 	c #6E3D51",
"4 	c #6B3B50",
"5 	c #673A51",
"6 	c #5E3853",
"7 	c #473852",
"8 	c #3C3851",
"9 	c #3D3851",
"0 	c #603A50",
"a 	c #893E4F",
"b 	c #A14D53",
"c 	c #AF5F5B",
"d 	c #B5675F",
"e 	c #B5685F",
"f 	c #B4675F",
"g 	c #AE5F5B",
"h 	c #883E4F",
"i 	c #5F3950",
"j 	c #673F51",
"k 	c #954A52",
"l 	c #A54C51",
"m 	c #9E4550",
"n 	c #9A414F",
"o 	c #9B414F",
"p 	c #943F52",
"q 	c #843A57",
"r 	c #6F3757",
"s 	c #FEE2AF",
"t 	c #E0CDA3",
"u 	c #948877",
"v 	c #A24E53",
"w 	c #BD5D58",
"x 	c #C86C5F",
"y 	c #CD7363",
"z 	c #764553",
"A 	c #AC5756",
"B 	c #BE5955",
"C 	c #B54D51",
"D 	c #AE444E",
"E 	c #A84251",
"F 	c #9B3D56",
"G 	c #FDD29E",
"H 	c #FDDCA9",
"I 	c #DFC69D",
"J 	c #948474",
"K 	c #3B3751",
"L 	c #CD7162",
"M 	c #CE7363",
"N 	c #CE7463",
"O 	c #794B55",
"P 	c #B2625C",
"Q 	c #C4645B",
"R 	c #B75253",
"S 	c #AF444E",
"T 	c #AD434F",
"U 	c #FCCD9A",
"V 	c #FCD19E",
"W 	c #DDB990",
"X 	c #937B6D",
"Y 	c #DDBA91",
"Z 	c #937C6D",
"` 	c #8A3F4F",
" .	c #A24D53",
"..	c #B6685F",
"+.	c #FDD29F",
"@.	c #DFC79D",
"#.	c #E27E6D",
"$.	c #E89478",
"%.	c #F2B389",
"&.	c #F9C393",
"*.	c #FAC896",
"=.	c #FCCB98",
"-.	c #DDB289",
";.	c #927769",
">.	c #393751",
",.	c #9E4A54",
"'.	c #883E57",
").	c #6E3757",
"!.	c #513753",
"~.	c #E68D74",
"{.	c #EDA380",
"].	c #F3B68B",
"^.	c #FCCB97",
"/.	c #DCB188",
"(.	c #927669",
"_.	c #CB6F60",
":.	c #C6655B",
"<.	c #B95858",
"[.	c #A24658",
"}.	c #E27F6D",
"|.	c #E3806D",
"1.	c #E48670",
"2.	c #E89377",
"3.	c #EEA581",
"4.	c #F4B88C",
"5.	c #FBC996",
"6.	c #DAAA84",
"7.	c #907267",
"8.	c #CD7262",
"9.	c #C2645C",
"0.	c #B04F56",
"a.	c #663A51",
"b.	c #E3816E",
"c.	c #E48671",
"d.	c #F9C493",
"e.	c #D4997A",
"f.	c #8D6862",
"g.	c #834E57",
"h.	c #C56A62",
"i.	c #E07969",
"j.	c #E37E6C",
"k.	c #E58771",
"l.	c #E99477",
"m.	c #EEA380",
"n.	c #F3B389",
"o.	c #F6BB8E",
"p.	c #F4B389",
"q.	c #CF8871",
"r.	c #8A5E5E",
"s.	c #7F4654",
"t.	c #BE5A59",
"u.	c #D96B60",
"v.	c #E99478",
"w.	c #C9796A",
"x.	c #86565B",
"y.	c #703E51",
"z.	c #A44A53",
"A.	c #BC5A59",
"B.	c #C46A62",
"C.	c #C77166",
"D.	c #C77167",
"E.	c #C77267",
"F.	c #AF6661",
"G.	c #774C57",
"H.	c #543A51",
"I.	c #855159",
"J.	c #855059",
"K.	c #584053",
"L.	c #3C3751",
"M.	c #4A3951",
"N.	c #5A3A50",
"O.	c #4D3951",
"P.	c #6D3D50",
"Q.	c #653F52",
"R.	c #623A50",
"S.	c #A64D52",
"T.	c #AD5756",
"U.	c #6B4554",
"V.	c #B85051",
"W.	c #C05B56",
"X.	c #BF5A55",
"Y.	c #C7675C",
"Z.	c #A14E53",
"`.	c #663E51",
" +	c #AB5656",
".+	c #593A50",
"++	c #694051",
"@+	c #7B4D56",
"#+	c #FCD19D",
"$+	c #533E52",
"%+	c #6E4855",
"&+	c #FBCA96",
"*+	c #FDD6A4",
"=+	c #FEE6B6",
"-+	c #E0D1AB",
";+	c #948A7C",
">+	c #FDD8A9",
",+	c #FEECC2",
"'+	c #E0D8B8",
")+	c #948F83",
"!+	c #543F52",
"~+	c #704152",
"{+	c #873D4F",
"]+	c #6D4855",
"^+	c #9F5D5B",
"/+	c #9A404F",
"(+	c #6D3C50",
"_+	c #9E4650",
":+	c #BA5755",
"<+	c #C86B5E",
"[+	c #C3645B",
"}+	c #AE434E",
"|+	c #633C51",
"1+	c #A54C52",
"2+	c #C05D57",
"3+	c #CA6C5F",
"4+	c #B85758",
"5+	c #C6695E",
"6+	c #6E3F52",
"7+	c #B24D54",
"8+	c #B14850",
"9+	c #633D52",
"0+	c #883F58",
"a+	c #B75354",
"b+	c #B75454",
"c+	c #9F4157",
"d+	c #A94351",
"e+	c #593A53",
"f+	c #6D3757",
"g+	c #833957",
"h+	c #933E52",
"i+	c #4E3853",
"j+	c #533753",
"k+	c #6A3B50",
"l+	c #453852",
"m+	c #6C3C50",
"n+	c #683A51",
"o+	c #603953",
"p+	c #553853",
"q+	c #4E3951",
"r+	c #3B3851",
"s+	c #6E3E51",
"t+	c #A34952",
"u+	c #BC5958",
"v+	c #A54A53",
"w+	c #BD5A59",
"x+	c #E07869",
"y+	c #784C57",
"z+	c #C67166",
"A+	c #EFA581",
"B+	c #885C5D",
"C+	c #895E5E",
"D+	c #CE8871",
"E+	c #F5B88C",
"F+	c #8D6B63",
"G+	c #C67066",
"H+	c #D3997B",
"I+	c #917367",
"J+	c #D9AA84",
"K+	c #917569",
"L+	c #DCB289",
"M+	c #C77066",
"N+	c #917267",
"O+	c #FCC996",
"P+	c #937A6C",
"Q+	c #F3B58A",
"R+	c #FDDDAA",
"S+	c #938071",
"T+	c #E0D8B7",
"U+	c #AF6561",
"V+	c #7C595C",
"W+	c #B77F6D",
"X+	c #B8806D",
"Y+	c #7E5B5D",
"Z+	c #84756C",
"`+	c #8C6762",
" @	c #5A4555",
".@	c #654E58",
"+@	c #685C5E",
"@@	c #403851",
"#@	c #493F53",
"$@	c #574956",
"%@	c #5E4E58",
"&@	c #5C4B57",
"*@	c #594455",
"=@	c #533E53",
"-@	c #463A52",
";@	c #443852",
">@	c #473952",
",@	c #4D3B51",
"'@	c #4E3C52",
")@	c #4F3D52",
"!@	c #4D3C52",
"~@	c #4B3A51",
"{@	c #473951",
"]@	c #423851",
"^@	c #453D53",
"/@	c #4E4354",
"                          .   + @ # $ % & * = + @ # $ - - - - - - - - % ; > , ' )         !   ~ { ] ^ / ( _ : _ _ _ _ < [ } |   ",
"                              .   + @ # $ - - - - - - - - $ # @ + 1 * 2 3 4 4 4 4 5 6 ' 7 !   ~ { ] ^ / ( _ : _ _ _ _ < [ } |   ",
"                              8 9 0 a b c d e e d d f d f g b h i j k l m n n o o p q r ' ! . ~ { ] ^ / ( _ : _ _ _ _ < s t u   ",
"                              8   # v w x y y y y y y y y x w b # z A B C D D D D E F q 6 ! 9 ~ { ] ^ / ( _ : _ _ _ _ G H I J   ",
"                              K   $ c x L M N M M M M N M L x g $ O P Q R S D S S T E p 5 ! 9 ~ { ] ^ / ( _ : _ _ _ _ U V W X   ",
"                              K   $ c x L M N M M M M N M L x g $ O P Q R S D S S T E p 5 ! 9 ~ { ] ^ / ( _ : _ _ _ _ U V Y Z   ",
"                              8   # v w x y y y y y y y y x w b # z A B C D D D D E F q 6 ! 9 ~ { ] ^ / ( _ : _ _ _ _ G H I J   ",
"                              9   @ `  .c e ..e d d f d f g b h i j k l m n n o o p q r ' ! . ~ { ] ^ / ( _ : _ _ _ _ +.H @.J   ",
"                              .   + @ # $ - - - - - - - - $ # @ + 1 * 2 3 4 4 4 4 5 6 ' 7 !   ~ { ] ^ / ( _ : _ _ _ _ U V Y Z   ",
"                                          .   + @ # $ - - - - - - - - % ; > , ' )         !   ~ { #.^ $.%.&.*._ _ _ _ =._ -.;.  ",
"                                  . 9 8 K >.K i a b g f d f d d e e d P A ,.'.).!.9 8 .   !   ~ { #.^ ~.{.].&._ _ _ _ ^._ /.(.  ",
"                                          8   # v w x y y y y y y y y _.:.<.[.q 6   9     !   ~ { }.|.1.2.3.4.&.*.: : 5.&.6.7.  ",
"                                          K   $ c x L M N M M M M M M 8._.9.0.p a.  9     !   ~ { }.^ b.c.2.3.].&._ _ d.].e.f.  ",
"                                          K   $ c x L M N M M M M M M 8._.9.0.p a.  9     !   g.h.i.j.^ |.k.l.m.n.o.o.p.m.q.r.  ",
"                                          8   # v w x y y y y y y y y _.:.<.[.q 6   9     K   s.t.u.i.}.}.b.1.~.$./ / v.~.w.x.  ",
".                                 . 9 8 K >.K i a b g f d f d d e e d P A ,.'.).!.9 8 .   8   y.z.A.B.C.D.C.C.C.C.C.C.E.C.F.G.. ",
"                                          .   + @ # $ - - - - - - - - % ; > , ' )         .   H.y.s.g.~ ~ ~ ~ I.J.J.J.I.I.G.K.  ",
"+ . 8 8 8 L.K K K K K K L.8 8 8 . + @ # $ - - - - - - - - $ # @ + 1 * 2 3 4 4 4 4 5 6 ' 7 .   H.y.s.g.~ ~ ~ ~ I.J.J.J.I.I.G.K.M.",
"@   9                         9   @ `  .c e ..e d d f d f g b h i j k l m n n o o p q r ' 8 . y.z.A.B.C.D.C.C.C.C.C.C.E.C.F.G.N.",
"# O.0 P.2 ; % - - - - % ; 2 P.0 O.# v w x y y y y y y y y x w b # z A B C D D D D E F q 6 K 9 s.t.u.i.}.}.b.1.~.$./ / v.~.w.x.Q.",
"$ R.a m S.T.P e ....e P T.S.m a R.$ c x L M N M M M M N M L x g $ O P Q R S D S S T E p 5 ! 9 g.h.i.j.^ |.k.l.m.n.o.o.p.m.q.r.U.",
"$ P.m V.W.:._.M N N M _.:.W.V.m P.$ c x L M N M M M M N M L x g $ O P Q R S D S S T E p 5 ! 9 ~ { }.^ b.c.2.3.].&._ _ d.].e.f.U.",
"# 2 l X.Y._.8.M M M M 8._.Y.X.l 2 # Z.w x y y y y y y y y x w b # z A B C D D D D E F q 6 ! 9 ~ { }.|.1.2.3.4.&.*.: : 5.&.6.7.Q.",
"i `.k  +P f e d e e d e f P  +k `.i h b c d e e d d f d f g b h i j k l m n n o o p q r ' ! . ~ { #.^ ~.{.].&._ _ _ _ ^._ /.(..+",
"+ 1 ++& O @+- - - - - - @+O & ++1 + @ # $ - - - - - - - - $ # @ + 1 * 2 3 4 4 4 4 5 6 ' 7 !   ~ { #.^ $.%.&.*._ _ _ _ =._ -.;.M.",
"- - - - - $ # @ + + @ # $ - - - - - - $ # @ + + @ # $ - - - - - - - - % ; > , ' )         !   ~ { ] ^ / ( _ : _ _ _ _ U #+W X $+",
"e d d e f g b h i i h b g f e d d e d c b h i i h b g f d f d d e e d P A ,.'.).!.9 8 .   !   ~ { ] ^ / ( _ : _ _ _ _ +.H @.J %+",
"y y y y y x w v # # v w x y y y y y y x w v # # v w x y y y y y y y y _.:.<.[.q 6   9     !   ~ { ] ^ / ( _ : _ _ &+_ *+=+-+;+- ",
"M M M N M L x g $ $ g x L M N M M N M L x g $ $ g x L M N M M M M M M 8._.9.0.p a.  9     !   ~ { ] ^ / ( _ : _ _ 5._ >+,+'+)+@+",
"M M M N M L x g $ $ g x L M N M M N M L x g $ $ g x L M N M M M M M M 8._.9.0.p a.  9     !   ~ { ] ^ / ( _ : _ _ 5._ >+,+'+)+@+",
"y y y y y x w v # # v w x y y y y y y x w v # # v w x y y y y y y y y _.:.<.[.q 6   9     !   ~ { ] ^ / ( _ : _ _ &+_ *+=+-+;+- ",
"e e d e f g b h i i h b g f e d e e d c b h i i h b g f d f d d e e d P A ,.'.).!.9 8 .   !   ~ { ] ^ / ( _ : _ _ _ _ G H I J %+",
"- - - - - $ # @ + + @ # $ - - - - - - $ # @ + + @ # $ - - - - - - - - % ; > , ' )         !   ~ { ] ^ / ( _ : _ _ _ _ U #+W X $+",
"O.O.@ # $ - - - - - - - - $ # @ O.O.@ # $ - - - - - - - - $ # @ O.!+%+$ ~+4 4 4 4 5 6 ' 7 !   ~ { ] ^ / ( _ : _ _ _ _ U V Y Z M.",
"i i h b g f e d e e d e f g b h i i h b c d e e d d f d f g b {+i ]+^+g  .n /+o o p q r ' ! . ~ { ] ^ / ( _ : _ _ _ _ G H I J .+",
"(+(+_+:+<+y N y y y y N y <+:+_+(+(+_+:+<+y N y y y y N y <+:+m (+O P [+R D }+D D E F q 6 ! 9 ~ { ] ^ / ( _ : _ _ _ _ +.H @.J |+",
"2 2 1+2+3+M N M M M M N M 3+2+1+2 2 1+2+3+M N M M M M N M 3+2+l 2 z A X.C S D S S T E p 5 ! 9 ~ { ] ^ / ( _ : _ _ _ _ U V Y Z `.",
"> > ,.4+9.5+5+5+5+5+5+5+5+9.4+,.> > ,.4+9.5+5+5+5+5+5+5+5+9.4+,.> 6+,.7+8+S S S S T E p 5 ! 9 ~ { #.^ $.%.&.*._ _ _ _ =._ -.;.9+",
", , 0+[.0.a+b+a+a+a+a+b+a+0.[.0+, , 0+[.0.a+b+a+a+a+a+b+a+0.[.0+, , '.c+d+D D D D E F q 6 ! 9 ~ { #.^ ~.{.].&._ _ _ _ ^._ /.(.e+",
"!.!.f+g+h+n n n o o o o o p q r ' ' r q p o o o n n n n n h+g+f+!.!.f+g+h+n n o o p q r ' ! . ~ { }.|.1.2.3.4.&.*.: : 5.&.6.7.i+",
") ) j+6 a.k+k+k+k+k+k+k+k+a.6 j+) ) j+6 a.k+k+k+k+k+k+k+k+a.6 j+) ) j+6 5 4 4 4 4 5 6 ' 7 !   ~ { }.^ b.c.2.3.].&._ _ d.].e.f.l+",
"m+m+m+m+m+n+o+p+7                             7 p+o+n+m+m+m+m+m+m+m+m+m+m+n+o+p+7         !   g.h.i.j.^ |.k.l.m.n.o.o.p.m.q.r.q+",
"o o n n n h+g+).!.8 r+8 8 9 9 .     . 9 9 r+8 !.).g+h+n n n n n o o n n n h+g+).!.9 8 .   K   s.t.u.i.}.}.b.1.~.$./ / v.~.w.x.@ ",
"o o o o o p q r '   .                     .   ' r q p o o o o o o o o o o p q r '   .     r+8 s+t+u+B.C.D.C.C.C.C.C.C.E.D.F.G.R.",
"m+m+m+m+m+n+o+p+7                             7 p+o+n+m+m+m+m+m+m+m+m+m+m+n+o+p+7         .   H.y.s.g.~ ~ ~ ~ I.J.J.J.I.I.G.K.q+",
"! ! ! ! K 8 . . 8 K ! ! ! ! ! ! ! ! ! ! ! ! ! ! ! ! ! ! ! ! ! ! ! ! ! ! ! ! ! ! ! ! K r+. H.y.s.g.~ ~ ~ ~ ~ ~ ~ ~ ~ ~ g.s.y.H.. ",
"8 8 8 8 8 9 9 .                                 . 9 9 8 8 8 8 8 8 8 8 8 8 9 9 .       8   y.v+w+B.D.E.C.C.C.C.C.C.D.C.B.u+t+y.. ",
"~ ~ ~ g.s.y.H.H.y.s.g.~ ~ ~ ~ ~ ~ ~ ~ ~ ~ ~ ~ ~ ~ ~ ~ ~ ~ ~ ~ ~ ~ ~ ~ ~ ~ ~ ~ ~ ~ g.s.s+H.s.w+u.x+#.#.] ] ] ] ] ] #.#.x+u.w+s.K.",
"{ { { h.t.z.y.y.z.t.h.{ { { { { { { { { { { { { { { { { { { { { { { { { { { { { { h.t.t+y.g.B.i.j.^ |.^ ^ ^ ^ ^ ^ |.^ j.i.B.g.y+",
"#.}.}.i.u.A.s.s.A.u.i.}.}.#.#.] ] ] ] ] ] ] ] ] ] ] ] ] ] ] ] ] ] ] ] ] ] #.#.}.}.i.u.u+s.~ C.b.k.~.$./ / / / / / $.~.k.b.C.~ I.",
"^ |.^ j.i.B.g.g.B.i.j.^ |.^ ^ ^ ^ ^ ^ ^ ^ ^ ^ ^ ^ ^ ^ ^ ^ ^ ^ ^ ^ ^ ^ ^ ^ ^ ^ |.^ j.i.B.g.~ E.c.v.{.%.( ( ( ( ( ( %.{.v.c.E.~ ~ ",
"~.1.b.^ }.C.~ ~ C.}.^ b.1.~.$./ / / / / / / / / / / / / / / / / / / / / / $.~.1.b.^ }.z+~ x.w.2.A+].&._ _ _ _ _ _ &.].A+2.w.x.B+",
"{.2.c.|.}.D.~ ~ D.}.|.c.2.{.%.( ( ( ( ( ( ( ( ( ( ( ( ( ( ( ( ( ( ( ( ( ( %.{.2.c.|.}.C.~ C+D+3.E+&.*.: : : : : : *.&.E+3.D+C+F+",
"].3.2.k.b.C.~ ~ C.b.k.2.3.].&._ _ _ _ _ _ _ _ _ _ _ _ _ _ _ _ _ _ _ _ _ _ &.].3.2.k.b.G+~ f.H+].d._ _ _ _ _ _ _ _ _ _ d.].e.f.I+",
"&.4.3.l.1.C.~ ~ C.1.l.3.4.&.*.: : : : : : : : : : : : : : : : : : : : : : *.&.4.3.l.1.G+~ 7.J+&.5._ _ _ _ _ _ _ _ _ _ 5.&.6.7.K+",
"_ &.].m.~.C.I.I.C.~.m.].&._ _ _ _ _ _ _ _ _ _ _ _ _ _ _ _ _ _ _ _ _ _ _ _ _ _ &.].m.~.G+I.;.L+_ =._ _ _ _ _ _ _ _ _ _ =._ -.;.(.",
"_ *.&.n.$.C.J.J.C.$.n.&.*._ _ _ _ _ _ _ _ _ _ _ _ _ _ _ _ _ _ _ _ _ _ _ _ _ _ *.&.n.$.G+J.;.-._ =._ _ _ _ _ _ _ _ _ _ =._ -.;.(.",
"_ : _ o./ C.J.J.C./ o._ : _ _ _ _ _ _ _ _ &+5.5.&+_ _ _ _ _ _ &+5.5.&+_ _ _ _ : _ o./ G+J.;.-._ =._ _ _ _ &+5.5.&+_ _ =._ -.;.(.",
"_ : _ o./ C.J.J.C./ o._ : _ _ _ _ _ _ _ _ _ _ _ _ _ _ _ _ _ _ _ _ _ _ _ _ _ _ : _ o./ G+J.;.L+_ =._ _ _ _ _ _ _ _ _ _ =._ -.;.(.",
"U 5.d.p.v.E.I.I.E.v.p.d.5.^.=.U +.G U U G *+>+>+*+G U U G < < *+>+>+*++.U =.^.5.d.p.v.M+I.N+6.d.O+U +.< < *+>+>+*++.U O+d.6.N+P+",
"#+&.Q+m.~.C.I.I.C.~.m.].&._ _ V H H V #+H =+,+,+=+H #+V H s [ =+,+,+=+H #+_ _ &.].m.~.G+I.f.H+Q+d.V R+s [ =+,+,+=+R+#+d.Q+e.f.S+",
"W 6.e.q.w.F.G.G.F.w.q.e.6./.-.Y @.I Y W I -+'+'+-+I W W I t } -+T+'+-+@.W -./.6.e.q.w.U+G.V+W+e.6.W @.t } -+T+'+-+@.W 6.e.X+Y+Z+",
"X 7.`+r.x.G.K.K.G.x.r.f.7.(.;.Z J J Z X J ;+)+)+;+J X X J u | ;+)+)+;+J X ;.(.7.f.r.x.G.K. @V+`+N+X J u | ;+)+)+;+J X N+`+Y+.@+@",
"@@#@$@%@%@%@%@%@%@%@%@&@*@K.K.=@-@            @@;@>@M.,@'@)@)@)@)@)@)@)@)@!@~@{@]@]@{@~@!@)@)@!@~@{@]@                    ^@/@/@"};
