/* XPM */
static char * int_m_wb_xpm[] = {
"64 64 219 2",
"  	c #3F3851",
". 	c #3E3851",
"+ 	c #3D3851",
"@ 	c #3C3851",
"# 	c #3B3751",
"$ 	c #4D3851",
"% 	c #3C3751",
"& 	c #613A50",
"* 	c #6F4052",
"= 	c #774955",
"- 	c #7A4D56",
"; 	c #8A3F4F",
"> 	c #A24D53",
", 	c #AF5F5B",
"' 	c #B5685F",
") 	c #B6685F",
"! 	c #4D3951",
"~ 	c #603A50",
"{ 	c #6D3D50",
"] 	c #714051",
"^ 	c #754453",
"/ 	c #794A55",
"( 	c #A24E53",
"_ 	c #BD5D58",
": 	c #C86C5F",
"< 	c #CD7363",
"[ 	c #623A50",
"} 	c #893E4F",
"| 	c #9E4550",
"1 	c #A64D52",
"2 	c #AD5756",
"3 	c #B2625C",
"4 	c #CD7162",
"5 	c #CE7363",
"6 	c #CE7463",
"7 	c #B85051",
"8 	c #C05B56",
"9 	c #C6655B",
"0 	c #CB6F60",
"a 	c #A54C51",
"b 	c #BF5A55",
"c 	c #C7675C",
"d 	c #CD7262",
"e 	c #A14E53",
"f 	c #5F3950",
"g 	c #663E51",
"h 	c #954A52",
"i 	c #AB5656",
"j 	c #B4675F",
"k 	c #B5675F",
"l 	c #883E4F",
"m 	c #A14D53",
"n 	c #AE5F5B",
"o 	c #513B51",
"p 	c #694051",
"q 	c #754553",
"r 	c #794B55",
"s 	c #7B4D56",
"t 	c #6D3C50",
"u 	c #9E4650",
"v 	c #BA5755",
"w 	c #C86B5E",
"x 	c #A54C52",
"y 	c #C05D57",
"z 	c #CA6C5F",
"A 	c #6D3F52",
"B 	c #9E4A54",
"C 	c #B85758",
"D 	c #C2645C",
"E 	c #C6695E",
"F 	c #613A53",
"G 	c #883F58",
"H 	c #A24658",
"I 	c #B04F56",
"J 	c #B75354",
"K 	c #B75454",
"L 	c #513753",
"M 	c #6D3757",
"N 	c #833957",
"O 	c #933E52",
"P 	c #9A414F",
"Q 	c #9B414F",
"R 	c #933F52",
"S 	c #943F52",
"T 	c #843A57",
"U 	c #6F3757",
"V 	c #533853",
"W 	c #463852",
"X 	c #533753",
"Y 	c #5E3853",
"Z 	c #663A51",
"` 	c #6A3B50",
" .	c #6C3C50",
"..	c #683A51",
"+.	c #603953",
"@.	c #543853",
"#.	c #473852",
"$.	c #553853",
"%.	c #6E3757",
"&.	c #3B3851",
"*.	c #3A3751",
"=.	c #855259",
"-.	c #834E57",
";.	c #7F4654",
">.	c #703E51",
",.	c #543A51",
"'.	c #C87267",
").	c #C56A62",
"!.	c #BE5A59",
"~.	c #A44A53",
"{.	c #E27E6C",
"].	c #E27E6D",
"^.	c #E27F6D",
"/.	c #E07969",
"(.	c #D96B60",
"_.	c #BC5A59",
":.	c #E37F6D",
"<.	c #E3806D",
"[.	c #E37E6C",
"}.	c #C46A62",
"|.	c #E9977A",
"1.	c #E89478",
"2.	c #E68D74",
"3.	c #E48670",
"4.	c #E3816E",
"5.	c #C77166",
"6.	c #F5BA8E",
"7.	c #F2B389",
"8.	c #EDA380",
"9.	c #E89377",
"0.	c #E48671",
"a.	c #C77167",
"b.	c #FBCA97",
"c.	c #F9C393",
"d.	c #F3B68B",
"e.	c #EEA581",
"f.	c #E58771",
"g.	c #FBCB97",
"h.	c #FAC896",
"i.	c #F4B88C",
"j.	c #E99477",
"k.	c #EEA380",
"l.	c #855159",
"m.	c #F3B389",
"n.	c #855059",
"o.	c #FBCA96",
"p.	c #F6BB8E",
"q.	c #FBC996",
"r.	c #FDD6A4",
"s.	c #FDD29F",
"t.	c #FCCD9A",
"u.	c #FCCB98",
"v.	c #FCCB97",
"w.	c #F9C493",
"x.	c #F4B389",
"y.	c #E99478",
"z.	c #C77267",
"A.	c #FDD8A9",
"B.	c #FDD4A1",
"C.	c #FDD5A4",
"D.	c #FDD9AC",
"E.	c #FEE6B6",
"F.	c #FDDCA9",
"G.	c #FCD19D",
"H.	c #FEECC2",
"I.	c #FEE2B0",
"J.	c #FEE2AF",
"K.	c #FCD19E",
"L.	c #FEEFC8",
"M.	c #FDDDAA",
"N.	c #E0D1AB",
"O.	c #DFC79D",
"P.	c #DDB990",
"Q.	c #DDB289",
"R.	c #DCB188",
"S.	c #DAAA84",
"T.	c #D4997A",
"U.	c #CF8871",
"V.	c #C9796A",
"W.	c #AF6661",
"X.	c #774C57",
"Y.	c #E0D8B8",
"Z.	c #E0D8B7",
"`.	c #E0CEA4",
" +	c #E0CDA3",
".+	c #E0DBBE",
"++	c #948A7C",
"@+	c #948474",
"#+	c #937B6D",
"$+	c #927769",
"%+	c #927669",
"&+	c #907267",
"*+	c #8D6862",
"=+	c #8A5E5E",
"-+	c #86565B",
";+	c #584053",
">+	c #948F83",
",+	c #948878",
"'+	c #948877",
")+	c #949186",
"!+	c #413A51",
"~+	c #5E4E58",
"{+	c #826A63",
"]+	c #8F6E65",
"^+	c #885D5E",
"/+	c #784C57",
"(+	c #443852",
"_+	c #4F3853",
":+	c #593A53",
"<+	c #633D52",
"[+	c #6A4252",
"}+	c #6D4654",
"|+	c #6E4855",
"1+	c #6B4554",
"2+	c #653E52",
"3+	c #593A50",
"4+	c #493851",
"5+	c #5A3A50",
"6+	c #4A3951",
"                                                                                                                                ",
"                                                                                                                                ",
"                                                                                                                                ",
"                                                                                                                                ",
"                                                                                                                                ",
"                                                                                                                                ",
"                                                                                                                                ",
"                                                                                                                                ",
"                                                                                                                                ",
"                                                                                                                                ",
"                                                                                                                                ",
"                                                                                                                                ",
"                                                                                                                                ",
"                                                                                                                                ",
"                                                                                                                                ",
".                                 . + @ # # # # # # # # # # @ + .                                 . + @ # # # # # # # # # # @ + ",
"                                                                                                                                ",
"$ . @ @ @ % # # # # # # % @ @ @ . $ & * = - - - - - - - - = * & $ . @ @ @ % # # # # # # % @ @ @ . $ & * = - - - - - - - - = * & ",
"&   +                         +   & ; > , ' ) ' ' ' ' ) ' , > ; &   +                         +   & ; > , ' ) ' ' ' ' ) ' , > ; ",
"* ! ~ { ] ^ / - - - - / ^ ] { ~ ! * ( _ : < < < < < < < < : _ ( * ! ~ { ] ^ / - - - - / ^ ] { ~ ! * ( _ : < < < < < < < < : _ ( ",
"= [ } | 1 2 3 ' ) ) ' 3 2 1 | } [ = , : 4 5 6 5 5 5 5 6 5 4 : , = [ } | 1 2 3 ' ) ) ' 3 2 1 | } [ = , : 4 5 6 5 5 5 5 6 5 4 : , ",
"= { | 7 8 9 0 5 6 6 5 0 9 8 7 | { = , : 4 5 6 5 5 5 5 6 5 4 : , = { | 7 8 9 0 5 6 6 5 0 9 8 7 | { = , : 4 5 6 5 5 5 5 6 5 4 : , ",
"* ] a b c 0 d 5 5 5 5 d 0 c b a ] * e _ : < < < < < < < < : _ e * ] a b c 0 d 5 5 5 5 d 0 c b a ] * e _ : < < < < < < < < : _ e ",
"f g h i 3 j ' k ' ' k ' j 3 i h g f l m , k ' ' k k j k j n m l f g h i 3 j ' k ' ' k ' j 3 i h g f l m , k ' ' k k j k j n m l ",
"$ o p q r s - - - - - - s r q p o $ & * = - - - - - - - - = * & $ o p q r s - - - - - - s r q p o $ & * = - - - - - - - - = * & ",
"- - - - - = * & $ $ & * = - - - - - - = * & $ $ & * = - - - - - - - - - - = * & $ $ & * = - - - - - - = * & $ $ & * = - - - - - ",
"' k k ' j n m l f f l m n j ' k k ' k , m l f f l m n j k j k k ' k k ' j n m l f f l m n j ' k k ' k , m l f f l m n j k j k k ",
"< < < < < : _ ( * * ( _ : < < < < < < : _ ( * * ( _ : < < < < < < < < < < : _ ( * * ( _ : < < < < < < : _ ( * * ( _ : < < < < < ",
"5 5 5 6 5 4 : n = = n : 4 5 6 5 5 6 5 4 : n = = n : 4 5 6 5 5 5 5 5 5 6 5 4 : n = = n : 4 5 6 5 5 6 5 4 : n = = n : 4 5 6 5 5 5 ",
"5 5 5 6 5 4 : n = = n : 4 5 6 5 5 6 5 4 : n = = n : 4 5 6 5 5 5 5 5 5 6 5 4 : n = = n : 4 5 6 5 5 6 5 4 : n = = n : 4 5 6 5 5 5 ",
"< < < < < : _ ( * * ( _ : < < < < < < : _ ( * * ( _ : < < < < < < < < < < : _ ( * * ( _ : < < < < < < : _ ( * * ( _ : < < < < < ",
"' ' k ' j n m l f f l m n j ' k ' ' k , m l f f l m n j k j k k ' ' k ' j n m l f f l m n j ' k ' ' k , m l f f l m n j k j k k ",
"- - - - - = * & $ $ & * = - - - - - - = * & $ $ & * = - - - - - - - - - - = * & $ $ & * = - - - - - - = * & $ $ & * = - - - - - ",
"! ! & * = - - - - - - - - = * & ! ! & * = - - - - - - - - = * & ! ! & * = - - - - - - - - = * & ! ! & * = - - - - - - - - = * & ",
"f f l m n j ' k ' ' k ' j n m l f f l m , k ' ' k k j k j n m l f f l m n j ' k ' ' k ' j n m l f f l m , k ' ' k k j k j n m l ",
"t t u v w < 6 < < < < 6 < w v u t t u v w < 6 < < < < 6 < w v u t t u v w < 6 < < < < 6 < w v u t t u v w < 6 < < < < 6 < w v u ",
"] ] x y z 5 6 5 5 5 5 6 5 z y x ] ] x y z 5 6 5 5 5 5 6 5 z y x ] ] x y z 5 6 5 5 5 5 6 5 z y x ] ] x y z 5 6 5 5 5 5 6 5 z y x ",
"A A B C D E E E E E E E E D C B A A B C D E E E E E E E E D C B A A B C D E E E E E E E E D C B A A B C D E E E E E E E E D C B ",
"F F G H I J K J J J J K J I H G F F G H I J K J J J J K J I H G F F G H I J K J J J J K J I H G F F G H I J K J J J J K J I H G ",
"L L M N O P P P Q Q P P P O N M L L M N R P Q Q Q Q Q Q Q S T U V V U T S Q Q Q Q Q P P P O N M L L M N R P Q Q P P P P P O N M ",
"W W X Y Z ` ` ` ` ` ` ` ` Z Y X W W X Y Z ` ` ` ` ` ` ` ` Z Y X W W X Y Z ` ` ` ` ` ` ` ` Z Y X W W X Y Z ` ` ` ` ` ` ` ` Z Y X ",
" . . . . ...+.@.#.#.@.+... . . . . . ...+.$.#.                                    #.$.+... . . . . . ...+.@.#.#.@.+... . . . . .",
"Q Q P P P O N M L L M N O P P P Q Q P R N %.L @ &.@ @ @ @ + + .     . + + @ @ &.@ L %.N O P P P Q Q P R N M L L M N O P P P P P ",
"Q Q Q Q Q S T U V V U T S Q Q Q Q Q Q S T U V   .                             .   V U T S Q Q Q Q Q Q S T U V V U T S Q Q Q Q Q ",
" . . . . ...+.@.#.#.@.+... . . . . . ...+.$.#.                                    #.$.+... . . . . . ...+.@.#.#.@.+... . . . . .",
"*.*.*.*.*.*.*.*.# @ . . @ # *.*.*.*.*.*.*.*.*.*.*.*.*.*.*.*.*.*.*.*.# @ . . @ # *.*.*.*.*.*.*.*.*.*.*.*.*.*.*.*.*.*.*.*.*.*.*.*.",
"@ @ @ @ @ + + .     . + + @ @ @ @ @ @ + + .                                         . + + @ @ @ @ @ @ + + .     . + + @ @ @ @ @ ",
"=.=.=.=.=.=.=.-.;.>.,.,.>.;.-.=.=.=.=.=.=.=.=.=.=.=.=.=.=.=.=.=.=.-.;.>.,.,.>.;.-.=.=.=.=.=.=.=.=.=.=.=.=.=.=.=.=.=.=.=.=.=.=.=.",
"'.'.'.'.'.'.'.).!.~.>.>.~.!.).'.'.'.'.'.'.'.'.'.'.'.'.'.'.'.'.'.'.).!.~.>.>.~.!.).'.'.'.'.'.'.'.'.'.'.'.'.'.'.'.'.'.'.'.'.'.'.'.",
"{.{.{.].].^.^./.(._.;.;._.(./.^.^.].].{.{.{.{.{.{.{.{.{.{.].].^.^./.(._.;.;._.(./.^.^.].].{.{.{.{.{.{.{.{.{.{.{.{.{.{.{.{.{.{.].",
":.:.:.:.:.<.:.[./.}.-.-.}./.[.:.<.:.:.:.:.:.:.:.:.:.:.:.:.:.:.<.:.[./.}.-.-.}./.[.:.<.:.:.:.:.:.:.:.:.:.:.:.:.:.:.:.:.:.:.:.:.:.",
"|.|.|.1.2.3.4.:.^.5.=.=.5.^.:.4.3.2.1.|.|.|.|.|.|.|.|.|.|.1.2.3.4.:.^.5.=.=.5.^.:.4.3.2.1.|.|.|.|.|.|.|.|.|.|.|.|.|.|.|.|.|.|.1.",
"6.6.6.7.8.9.0.<.^.a.=.=.a.^.<.0.9.8.7.6.6.6.6.6.6.6.6.6.6.7.8.9.0.<.^.a.=.=.a.^.<.0.9.8.7.6.6.6.6.6.6.6.6.6.6.6.6.6.6.6.6.6.6.7.",
"b.b.b.c.d.e.9.f.4.5.=.=.5.4.f.9.e.d.c.b.b.b.b.b.b.b.b.b.b.c.d.e.9.f.4.5.=.=.5.4.f.9.e.d.c.b.b.b.b.b.b.b.b.b.b.b.b.b.b.b.b.b.b.c.",
"g.g.g.h.c.i.e.j.3.5.=.=.5.3.j.e.i.c.h.g.g.g.g.g.g.g.g.g.g.h.c.i.e.j.3.5.=.=.5.3.j.e.i.c.h.g.g.g.g.g.g.g.g.g.g.g.g.g.g.g.g.g.g.h.",
"b.b.b.b.b.c.d.k.2.5.l.l.5.2.k.d.c.b.b.b.b.b.b.b.b.b.b.b.b.b.b.c.d.k.2.5.l.l.5.2.k.d.c.b.b.b.b.b.b.b.b.b.b.b.b.b.b.b.b.b.b.b.b.b.",
"b.b.b.b.b.h.c.m.1.5.n.n.5.1.m.c.h.b.b.b.b.b.b.b.b.b.b.b.b.b.b.h.c.m.1.5.n.n.5.1.m.c.h.b.b.b.b.b.b.b.b.b.b.b.b.b.b.b.b.b.b.b.b.b.",
"o.b.b.b.b.g.b.p.|.5.n.n.5.|.p.b.g.b.b.b.b.o.q.q.o.b.b.b.b.b.b.g.b.p.|.5.n.n.5.|.p.b.g.b.b.b.b.b.q.q.q.q.b.b.b.b.b.b.b.o.q.q.o.b.",
"b.b.b.b.b.g.b.p.|.5.n.n.5.|.p.b.g.b.b.b.b.b.b.b.b.b.b.b.b.b.b.g.b.p.|.5.n.n.5.|.p.b.g.b.b.b.b.b.b.b.b.b.b.b.b.b.b.b.b.b.b.b.b.b.",
"r.s.t.u.v.q.w.x.y.z.l.l.z.y.x.w.q.v.u.t.s.r.A.A.r.B.B.s.t.u.v.q.w.x.y.z.l.l.z.y.x.w.q.v.u.t.s.C.A.D.D.A.C.s.t.v.v.t.s.r.A.A.r.s.",
"E.F.G.b.b.c.d.k.2.5.l.l.5.2.k.d.c.b.b.G.F.E.H.H.E.I.J.F.K.b.b.c.d.k.2.5.l.l.5.2.k.d.c.b.b.G.F.E.H.L.L.H.E.F.G.b.b.G.F.E.H.H.E.M.",
"N.O.P.Q.R.S.T.U.V.W.X.X.W.V.U.T.S.R.Q.P.O.N.Y.Z.N.`. +O.P.Q.R.S.T.U.V.W.X.X.W.V.U.T.S.R.Q.P.O.N.Y..+.+Y.N.O.P.R.R.P.O.N.Y.Y.N.O.",
"++@+#+$+%+&+*+=+-+X.;+;+X.-+=+*+&+%+$+#+@+++>+>+++,+'+@+#+$+%+&+*+=+-+X.;+;+X.-+=+*+&+%+$+#+@+++>+)+)+>+++@+#+%+%+#+@+++>+>+++@+",
"!+~+{+%+$+%+%+%+%+$+%+]+^+=.l./+;+  .     . . (+_+:+<+[+}+|+|+|+|+|+|+|+|+1+2+3+4+4+3+2+1+|+|+1+2+5+6+  .                       "};
