/* XPM */
static char * diam09_xpm[] = {
"64 64 176 2",
"  	c None",
". 	c #3F3851",
"+ 	c #3F374F",
"@ 	c #41405E",
"# 	c #454E73",
"$ 	c #47577E",
"% 	c #495B80",
"& 	c #4A6281",
"* 	c #4C6983",
"= 	c #4C6D84",
"- 	c #4C6E84",
"; 	c #517486",
"> 	c #597F8A",
", 	c #5D848C",
"' 	c #5A7E88",
") 	c #454F74",
"! 	c #4E6C9E",
"~ 	c #557CB2",
"{ 	c #5883B5",
"] 	c #5B8EB7",
"^ 	c #5E9CBA",
"/ 	c #5FA2BB",
"( 	c #69ADBF",
"_ 	c #79BEC6",
": 	c #80C7CA",
"< 	c #81C8CA",
"[ 	c #76B5B9",
"} 	c #5B7F88",
"| 	c #4D6796",
"1 	c #5781B8",
"2 	c #5D92C9",
"3 	c #619DCD",
"4 	c #64A8CF",
"5 	c #67B3D2",
"6 	c #68B8D3",
"7 	c #68B9D3",
"8 	c #71C1D6",
"9 	c #80D1DD",
"0 	c #89DCE1",
"a 	c #8EE1E3",
"b 	c #90E4E5",
"c 	c #90E3E4",
"d 	c #85CFD1",
"e 	c #6EA4A9",
"f 	c #5B8089",
"g 	c #4E6C9F",
"h 	c #5680B8",
"i 	c #5C8EC5",
"j 	c #619CCD",
"k 	c #65AAD1",
"l 	c #68B7D3",
"m 	c #68B9D4",
"n 	c #6BBCD5",
"o 	c #72C2D7",
"p 	c #7DCEDC",
"q 	c #8ADDE2",
"r 	c #91E4E5",
"s 	c #8DDDDF",
"t 	c #46537D",
"u 	c #5173B0",
"v 	c #5884C6",
"w 	c #5B8BC9",
"x 	c #5F98CB",
"y 	c #64A9CF",
"z 	c #66B0D1",
"A 	c #66B1D1",
"B 	c #73BFD6",
"C 	c #87D7DF",
"D 	c #8EE1E4",
"E 	c #597E8A",
"F 	c #454E7C",
"G 	c #4E69AE",
"H 	c #5276C3",
"I 	c #5479C4",
"J 	c #5886C6",
"K 	c #5F99CB",
"L 	c #63A1CE",
"M 	c #63A2CE",
"N 	c #62A0CE",
"O 	c #62A1CE",
"P 	c #71B5D4",
"Q 	c #86D4DE",
"R 	c #90E4E4",
"S 	c #6AAEC0",
"T 	c #517386",
"U 	c #444A7B",
"V 	c #4B63AC",
"W 	c #4F6DC0",
"X 	c #4F6DC1",
"Y 	c #5479C3",
"Z 	c #5B8BC8",
"` 	c #6095CB",
" .	c #6197CC",
"..	c #6198CC",
"+.	c #6097CC",
"@.	c #70B0D3",
"#.	c #86D3DE",
"$.	c #91E4E4",
"%.	c #88DAE1",
"&.	c #74C5D8",
"*.	c #5FA3BC",
"=.	c #4C6C84",
"-.	c #4B62AC",
";.	c #4F6CC0",
">.	c #5275C2",
",.	c #5D8FC9",
"'.	c #70AFD3",
").	c #87D9E0",
"!.	c #74C4D7",
"~.	c #4B6C83",
"{.	c #424671",
"].	c #485A9A",
"^.	c #4C65B1",
"/.	c #4E6BBC",
"(.	c #5173C2",
"_.	c #557CC4",
":.	c #5987C6",
"<.	c #5F93CA",
"[.	c #7ECDD8",
"}.	c #6BB2C6",
"|.	c #5993AC",
"1.	c #4A6880",
"2.	c #403D5D",
"3.	c #424672",
"4.	c #475591",
"5.	c #4C65B2",
"6.	c #506EC0",
"7.	c #567FC4",
"8.	c #5D90C9",
"9.	c #8ADCE1",
"0.	c #7DCEDB",
"a.	c #6BB3C6",
"b.	c #588A9F",
"c.	c #4B6A80",
"d.	c #86D3DF",
"e.	c #86D5DB",
"f.	c #6FB7C7",
"g.	c #4A687F",
"h.	c #403C5B",
"i.	c #475491",
"j.	c #5276C2",
"k.	c #5885C6",
"l.	c #70B1D3",
"m.	c #82CCD0",
"n.	c #6499A4",
"o.	c #424571",
"p.	c #4E6BB3",
"q.	c #547AC0",
"r.	c #5C8FC9",
"s.	c #639BCD",
"t.	c #6CAAD1",
"u.	c #75B8D2",
"v.	c #7DC2CD",
"w.	c #5B8088",
"x.	c #475792",
"y.	c #547AC3",
"z.	c #5986C7",
"A.	c #69A3CE",
"B.	c #7CC4D9",
"C.	c #7DC2CC",
"D.	c #6A9EA7",
"E.	c #424471",
"F.	c #5579B6",
"G.	c #6599C7",
"H.	c #72B1CF",
"I.	c #7CC0CC",
"J.	c #3F395B",
"K.	c #5B819D",
"L.	c #78B9C9",
"M.	c #7CC0CB",
"N.	c #3E334E",
"O.	c #577781",
"P.	c #74B0B4",
"Q.	c #5C818A",
"R.	c #495564",
"S.	c #577680",
"                                                                                                                                ",
"                                                                                                                                ",
"                                                                                                                                ",
"                                                                                                                                ",
"                                                                                                                                ",
"                                                                                                                                ",
"                                                                                                                                ",
"                                                                                                                                ",
"                                                                                                                                ",
"                                                                                                                                ",
"                                                                                                                                ",
"                                                                                                                                ",
"                                                                                                                                ",
"                                                                                                                                ",
"                                                                                                                                ",
"                                                                                                                                ",
"                                                                                                                                ",
"                                                                                                                                ",
"                                                                                                                                ",
"                                                                                                                                ",
"                                                                                                                                ",
"                                                                                                                                ",
"                                              . . . . . . . . . . . . . . . .                                                   ",
"                                              + @ # $ % & * = - ; > , , , , '                                                   ",
"                                          . + . ) ! ~ { ] ^ / / ( _ : < < : [ } .                                               ",
"                                          . @ ) | 1 2 3 4 5 6 7 8 9 0 a b c d e f                                               ",
"                                        + . # g h i j k 5 l m m n o p q r r s d [ ' .                                           ",
"                                        + . t u v w x y z A z z z z B C c c D 0 _ E .                                           ",
"                                        + . F G H I J K L M L L N O P Q c R q p S T .                                           ",
"                                        + . U V W X Y Z `  .....+...@.#.c $.%.&.*.=..                                           ",
"                                        + . U -.;.X >.v ,.` ....+...'.#.c R ).!./ ~..                                           ",
"                                        + . {.].^./.(._.:.<.....+...@.#.a q [.}.|.1..                                           ",
"                                          . 2.3.4.5.6.(.7.8.....+...@.#.9.0.a.b.c.                                              ",
"                                          . + . {.].^./.Y Z `  .+. .@.d.e.f.|.g..                                               ",
"                                              + h.{.i.^.j.k.,.` +...l.#.m.n.1.                                                  ",
"                                              . + . o.].p.q.J r.s.t.u.v.[ w..                                                   ",
"                                                  + h.{.x.p.y.z.A.B.C.D.}                                                       ",
"                                                  . + . E.].F.G.H.I.[ w..                                                       ",
"                                                      + J.o.K.L.M.D.w.                                                          ",
"                                                      . N.. O.P.[ Q..                                                           ",
"                                                          + R.S.w.                                                              ",
"                                                          . . . .                                                               ",
"                                                                                                                                ",
"                                                                                                                                ",
"                                                                                                                                ",
"                                                                                                                                ",
"                                                                                                                                ",
"                                                                                                                                ",
"                                                                                                                                ",
"                                                                                                                                ",
"                                                                                                                                ",
"                                                                                                                                ",
"                                                                                                                                ",
"                                                                                                                                ",
"                                                                                                                                ",
"                                                                                                                                ",
"                                                                                                                                ",
"                                                                                                                                ",
"                                                                                                                                ",
"                                                                                                                                ",
"                                                                                                                                ",
"                                                                                                                                ",
"                                                                                                                                ",
"                                                                                                                                "};
