/* XPM */
static char * diam06_xpm[] = {
"64 64 162 2",
"  	c None",
". 	c #3F3851",
"+ 	c #3E334E",
"@ 	c #485363",
"# 	c #567680",
"$ 	c #597C8A",
"% 	c #506A84",
"& 	c #4A6281",
"* 	c #4B6983",
"= 	c #4C6D84",
"- 	c #4C6E84",
"; 	c #517486",
"> 	c #597F8A",
", 	c #5D848D",
"' 	c #5D848C",
") 	c #5A7E88",
"! 	c #577680",
"~ 	c #74B0B4",
"{ 	c #78B9C5",
"] 	c #669CBC",
"^ 	c #5B8EB7",
"/ 	c #5D9BBA",
"( 	c #5FA2BB",
"_ 	c #69ADBF",
": 	c #79BEC6",
"< 	c #81C8CA",
"[ 	c #76B5B9",
"} 	c #5B7F88",
"| 	c #485263",
"1 	c #567580",
"2 	c #6A9EA7",
"3 	c #7DC3CD",
"4 	c #7EC7DA",
"5 	c #6EB1D3",
"6 	c #64A8CF",
"7 	c #66B2D2",
"8 	c #68B8D3",
"9 	c #68B9D3",
"0 	c #71C1D6",
"a 	c #80D1DD",
"b 	c #8ADDE2",
"c 	c #8EE1E3",
"d 	c #85D0D2",
"e 	c #6EA4A9",
"f 	c #5B8089",
"g 	c #74B0B5",
"h 	c #7DC2CD",
"i 	c #76B8D2",
"j 	c #69B1D3",
"k 	c #67B3D2",
"l 	c #68B7D3",
"m 	c #68B9D4",
"n 	c #6BBCD5",
"o 	c #72C2D7",
"p 	c #7DCEDC",
"q 	c #8DDDDF",
"r 	c #85D0D1",
"s 	c #3D324D",
"t 	c #5E858D",
"u 	c #81C8CB",
"v 	c #85D1DD",
"w 	c #6EABD2",
"x 	c #5F98CB",
"y 	c #63A7CF",
"z 	c #66B0D1",
"A 	c #66B1D1",
"B 	c #70BCD5",
"C 	c #7FCFDC",
"D 	c #88DAE1",
"E 	c #87D9E0",
"F 	c #597E8A",
"G 	c #5E868D",
"H 	c #81C9CC",
"I 	c #84CFDD",
"J 	c #69A0CE",
"K 	c #5885C6",
"L 	c #5E97CB",
"M 	c #63A1CE",
"N 	c #63A2CE",
"O 	c #62A1CE",
"P 	c #67ABD0",
"Q 	c #75C6D9",
"R 	c #75C6D8",
"S 	c #6AAEC0",
"T 	c #83CDDC",
"U 	c #6699CB",
"V 	c #5377C2",
"W 	c #5A89C7",
"X 	c #6095CB",
"Y 	c #6197CC",
"Z 	c #6198CC",
"` 	c #5FA3BC",
" .	c #83CCDB",
"..	c #5275C2",
"+.	c #5782C5",
"@.	c #5D8FC9",
"#.	c #68B8D4",
"$.	c #7BBECB",
"%.	c #6EA8CC",
"&.	c #6293C9",
"*.	c #5A86C6",
"=.	c #5986C6",
"-.	c #5E92CA",
";.	c #619ACC",
">.	c #629FCD",
",.	c #64A8D0",
"'.	c #66B4CE",
").	c #62A9C2",
"!.	c #5993AC",
"~.	c #4B6980",
"{.	c #699CA6",
"].	c #7BBDCB",
"^.	c #78BAD5",
"/.	c #567FC4",
"(.	c #65AAD0",
"_.	c #68B6D3",
":.	c #62A8C2",
"<.	c #55869E",
"[.	c #4B6A80",
"}.	c #6498CB",
"|.	c #6195CB",
"1.	c #6097CC",
"2.	c #66B1D2",
"3.	c #475061",
"4.	c #699DA6",
"5.	c #7ABED6",
"6.	c #68A1CE",
"7.	c #5F94CB",
"8.	c #63A2CF",
"9.	c #55879E",
"0.	c #78B9C9",
"a.	c #6599C7",
"b.	c #5986C7",
"c.	c #5C8FC9",
"d.	c #6098CC",
"e.	c #629FCE",
"f.	c #62A3CA",
"g.	c #60A2C1",
"h.	c #485362",
"i.	c #5B819D",
"j.	c #557AB6",
"k.	c #547AC3",
"l.	c #54849D",
"m.	c #3F374F",
"n.	c #424571",
"o.	c #485A9A",
"p.	c #4E6BB3",
"q.	c #547AC0",
"r.	c #598BC3",
"s.	c #5D9BBE",
"t.	c #4B6B80",
"u.	c #3F395B",
"v.	c #424471",
"w.	c #485792",
"x.	c #5073B4",
"y.	c #4E7098",
"z.	c #434673",
"A.	c #48599A",
"B.	c #495B9D",
"C.	c #434A79",
"D.	c #403D5D",
"E.	c #434877",
"                                                                                                                                ",
"                                                                                                                                ",
"                                                                                                                                ",
"                                                                                                                                ",
"                                                                                                                                ",
"                                                                                                                                ",
"                                                                                                                                ",
"                                                                                                                                ",
"                                                                                                                                ",
"                                                                                                                                ",
"                                                                                                                                ",
"                                                                                                                                ",
"                                                                                                                                ",
"                                                                                                                                ",
"                                                                                                                                ",
"                                                                                                                                ",
"                                                                                                                                ",
"                                                                                                                                ",
"                                                                                                                                ",
"                                                                                                                                ",
"                                                                                                                                ",
"                                                                                                                                ",
"                                              . . . . . . . . . . . . . . . .                                                   ",
"                                              + @ # $ % & * = - = = ; > , ' )                                                   ",
"                                          . + . ! ~ { ] ^ / ( ( ( ( _ : < < [ } .                                               ",
"                                          . | 1 2 3 4 5 6 7 8 9 8 8 0 a b c d e f                                               ",
"                                        + . # g h i 5 j k l m m m m n o p b q r [ ) .                                           ",
"                                        s . t u v w x y z A z z z z z z B C D E : F .                                           ",
"                                        s . G H I J K L M N M M M M M O P B Q R S ; .                                           ",
"                                        s . G H T U V W X Y Z Z Z Z Z Z M z m m ` = .                                           ",
"                                        s . t u  .U ..+.@.X Z Z Z Z Y Z M z #.8 ( = .                                           ",
"                                        + . ! g $.%.&.*.=.-.Z Z Z Z ;.>.,.k '.).!.~..                                           ",
"                                          . | 1 {.].^.&./.@.Z Z Z Z >.(.k _.:.<.[.                                              ",
"                                          . + . ! g ].%.}.|.X 1.Z Z M 2.'.).!.~..                                               ",
"                                              + 3.! 4.$.5.6.@.7.Z Z 8.A ).9.~.                                                  ",
"                                              . + . ! g 0.a.b.c.d.e.f.g.!.[..                                                   ",
"                                                  + h.! i.j.k.=.L 6 g.l.~.                                                      ",
"                                                  . m.. n.o.p.q.r.s.!.t..                                                       ",
"                                                      + u.v.w.p.x.y.[.                                                          ",
"                                                      . m.. z.A.B.C..                                                           ",
"                                                          m.D.n.E.                                                              ",
"                                                          . . . .                                                               ",
"                                                                                                                                ",
"                                                                                                                                ",
"                                                                                                                                ",
"                                                                                                                                ",
"                                                                                                                                ",
"                                                                                                                                ",
"                                                                                                                                ",
"                                                                                                                                ",
"                                                                                                                                ",
"                                                                                                                                ",
"                                                                                                                                ",
"                                                                                                                                ",
"                                                                                                                                ",
"                                                                                                                                ",
"                                                                                                                                ",
"                                                                                                                                ",
"                                                                                                                                ",
"                                                                                                                                ",
"                                                                                                                                ",
"                                                                                                                                ",
"                                                                                                                                ",
"                                                                                                                                "};
