/* XPM */
static char * diam10_xpm[] = {
"64 64 154 2",
"  	c None",
". 	c #3F3851",
"+ 	c #3F374F",
"@ 	c #41405E",
"# 	c #454E73",
"$ 	c #47577E",
"% 	c #495B80",
"& 	c #4A6281",
"* 	c #4C6983",
"= 	c #4C6D84",
"- 	c #4C6E84",
"; 	c #517486",
"> 	c #597F8A",
", 	c #5D848D",
"' 	c #5D848C",
") 	c #5A7E88",
"! 	c #454F74",
"~ 	c #4E6C9E",
"{ 	c #557CB2",
"] 	c #5883B5",
"^ 	c #5B8EB7",
"/ 	c #5E9CBA",
"( 	c #5FA2BB",
"_ 	c #69ADBF",
": 	c #79BEC6",
"< 	c #81C8CA",
"[ 	c #76B5B9",
"} 	c #5B7F88",
"| 	c #4D6796",
"1 	c #5781B8",
"2 	c #5D92C9",
"3 	c #619DCD",
"4 	c #64A8CF",
"5 	c #67B3D2",
"6 	c #68B8D3",
"7 	c #68B9D3",
"8 	c #71C1D6",
"9 	c #80D1DD",
"0 	c #8ADDE2",
"a 	c #8EE1E3",
"b 	c #85D0D1",
"c 	c #6DA4A9",
"d 	c #4E6C9F",
"e 	c #5680B8",
"f 	c #5C8EC5",
"g 	c #619CCD",
"h 	c #65AAD1",
"i 	c #68B7D3",
"j 	c #68B9D4",
"k 	c #6BBCD5",
"l 	c #72C2D7",
"m 	c #7DCEDC",
"n 	c #8DDDDF",
"o 	c #46537D",
"p 	c #5173B0",
"q 	c #5884C6",
"r 	c #5B8BC9",
"s 	c #5F98CB",
"t 	c #64A9CF",
"u 	c #66B0D1",
"v 	c #66B1D1",
"w 	c #70BCD5",
"x 	c #7FCFDC",
"y 	c #80C7CA",
"z 	c #454E7C",
"A 	c #4E69AE",
"B 	c #5276C3",
"C 	c #5479C4",
"D 	c #5886C6",
"E 	c #5F99CB",
"F 	c #63A1CE",
"G 	c #63A2CE",
"H 	c #62A1CE",
"I 	c #67AAD0",
"J 	c #444A7B",
"K 	c #4B63AC",
"L 	c #4F6DC0",
"M 	c #4F6DC1",
"N 	c #5479C3",
"O 	c #5B8BC8",
"P 	c #6095CB",
"Q 	c #6197CC",
"R 	c #6198CC",
"S 	c #62A0CE",
"T 	c #75C6D9",
"U 	c #87DAE0",
"V 	c #5E858D",
"W 	c #4B62AC",
"X 	c #4F6CC0",
"Y 	c #5275C2",
"Z 	c #5D8FC9",
"` 	c #75C5D8",
" .	c #87D9E0",
"..	c #5E848C",
"+.	c #424671",
"@.	c #485A9A",
"#.	c #4C65B1",
"$.	c #4E6BBC",
"%.	c #5173C2",
"&.	c #557CC4",
"*.	c #5987C6",
"=.	c #5F93CA",
"-.	c #619ACC",
";.	c #629ECD",
">.	c #67ABD1",
",.	c #70BDD6",
"'.	c #78C7D5",
").	c #7EC7CE",
"!.	c #403D5D",
"~.	c #424672",
"{.	c #475591",
"].	c #4C65B2",
"^.	c #506EC0",
"/.	c #567FC4",
"(.	c #5D90C9",
"_.	c #65AAD0",
":.	c #80D0DC",
"<.	c #6AA0A8",
"[.	c #66A5CF",
"}.	c #70BBD5",
"|.	c #403C5B",
"1.	c #475491",
"2.	c #5276C2",
"3.	c #5885C6",
"4.	c #6DADD2",
"5.	c #7FCBDB",
"6.	c #6BA1A8",
"7.	c #424571",
"8.	c #4E6BB3",
"9.	c #547AC0",
"0.	c #5986C7",
"a.	c #6097CC",
"b.	c #629FCE",
"c.	c #6CAECE",
"d.	c #7ABFCB",
"e.	c #5B8088",
"f.	c #475792",
"g.	c #547AC3",
"h.	c #5E97CB",
"i.	c #64A6C2",
"j.	c #6092A2",
"k.	c #598BC3",
"l.	c #5D9BBE",
"m.	c #5993AC",
"n.	c #4B6B80",
"o.	c #485792",
"p.	c #5073B4",
"q.	c #4E7098",
"r.	c #4B6A80",
"s.	c #434673",
"t.	c #48599A",
"u.	c #495B9D",
"v.	c #434A79",
"w.	c #434877",
"                                                                                                                                ",
"                                                                                                                                ",
"                                                                                                                                ",
"                                                                                                                                ",
"                                                                                                                                ",
"                                                                                                                                ",
"                                                                                                                                ",
"                                                                                                                                ",
"                                                                                                                                ",
"                                                                                                                                ",
"                                                                                                                                ",
"                                                                                                                                ",
"                                                                                                                                ",
"                                                                                                                                ",
"                                                                                                                                ",
"                                                                                                                                ",
"                                                                                                                                ",
"                                                                                                                                ",
"                                                                                                                                ",
"                                                                                                                                ",
"                                                                                                                                ",
"                                                                                                                                ",
"                                              . . . . . . . . . . . . . . . .                                                   ",
"                                              + @ # $ % & * = - = = ; > , ' )                                                   ",
"                                          . + . ! ~ { ] ^ / ( ( ( ( _ : < < [ } .                                               ",
"                                          . @ ! | 1 2 3 4 5 6 7 6 6 8 9 0 a b c }                                               ",
"                                        + . # d e f g h 5 i j j j j k l m 0 n b [ ) .                                           ",
"                                        + . o p q r s t u v u u u u u u w x 0 a y ' .                                           ",
"                                        + . z A B C D E F G F F F F F H I w m 0 < , .                                           ",
"                                        + . J K L M N O P Q R R R R R R S u T U < V .                                           ",
"                                        + . J W X M Y q Z P R R R R Q R S u `  .y ...                                           ",
"                                        + . +.@.#.$.%.&.*.=.R R R R -.;.>.,.'.).[ } .                                           ",
"                                          . !.~.{.].^.%./.(.R R R R ;._.,.:.).<.}                                               ",
"                                          . + . +.@.#.$.N O P Q Q R [.}.'.).[ } .                                               ",
"                                              + |.+.1.#.2.3.Z P Q R 4.5.).6.}                                                   ",
"                                              . + . 7.@.8.9.0.(.a.b.c.d.[ e..                                                   ",
"                                                  + |.+.f.8.g.0.h.4 i.j.}                                                       ",
"                                                  . + . 7.@.8.9.k.l.m.n..                                                       ",
"                                                      + |.7.o.8.p.q.r.                                                          ",
"                                                      . + . s.t.u.v..                                                           ",
"                                                          + !.7.w.                                                              ",
"                                                          . . . .                                                               ",
"                                                                                                                                ",
"                                                                                                                                ",
"                                                                                                                                ",
"                                                                                                                                ",
"                                                                                                                                ",
"                                                                                                                                ",
"                                                                                                                                ",
"                                                                                                                                ",
"                                                                                                                                ",
"                                                                                                                                ",
"                                                                                                                                ",
"                                                                                                                                ",
"                                                                                                                                ",
"                                                                                                                                ",
"                                                                                                                                ",
"                                                                                                                                ",
"                                                                                                                                ",
"                                                                                                                                ",
"                                                                                                                                ",
"                                                                                                                                ",
"                                                                                                                                ",
"                                                                                                                                "};
