/* XPM */
static char * diam07_xpm[] = {
"64 64 158 2",
"  	c None",
". 	c #3F3851",
"+ 	c #3F374F",
"@ 	c #403E5D",
"# 	c #444D73",
"$ 	c #4D6381",
"% 	c #587989",
"& 	c #5D848C",
"* 	c #5E858D",
"= 	c #597F8A",
"- 	c #517486",
"; 	c #4C6D84",
"> 	c #5D848D",
", 	c #5A7E88",
"' 	c #4E6C9E",
") 	c #6192B7",
"! 	c #77B7C4",
"~ 	c #81C8CA",
"{ 	c #79BEC6",
"] 	c #69ADBF",
"^ 	c #5FA2BB",
"/ 	c #76B5B9",
"( 	c #5B7F88",
"_ 	c #41405E",
": 	c #454F74",
"< 	c #527198",
"[ 	c #6396BE",
"} 	c #76B8D4",
"| 	c #88D6DF",
"1 	c #8EE1E3",
"2 	c #8ADCE1",
"3 	c #80D1DD",
"4 	c #71C1D6",
"5 	c #68B8D3",
"6 	c #8ADDE2",
"7 	c #85D0D2",
"8 	c #6EA4A9",
"9 	c #5B8089",
"0 	c #4E6C9F",
"a 	c #7ABFD4",
"b 	c #88D6E0",
"c 	c #8EE0E3",
"d 	c #7DCEDC",
"e 	c #72C2D7",
"f 	c #6BBCD5",
"g 	c #68B9D4",
"h 	c #8DDDDF",
"i 	c #85D0D1",
"j 	c #45507C",
"k 	c #5173B0",
"l 	c #69A2CD",
"m 	c #84CFDD",
"n 	c #90E3E4",
"o 	c #90E4E4",
"p 	c #87D7DF",
"q 	c #73BFD6",
"r 	c #66B0D1",
"s 	c #70BCD5",
"t 	c #7FCFDC",
"u 	c #88DAE1",
"v 	c #87D9E0",
"w 	c #597E8A",
"x 	c #434B7B",
"y 	c #4E69AE",
"z 	c #679CCC",
"A 	c #84CEDD",
"B 	c #91E4E4",
"C 	c #86D4DE",
"D 	c #71B5D4",
"E 	c #62A1CE",
"F 	c #62A0CE",
"G 	c #63A1CE",
"H 	c #67ABD0",
"I 	c #75C6D9",
"J 	c #75C6D8",
"K 	c #6AAEC0",
"L 	c #42477B",
"M 	c #4B63AC",
"N 	c #6598CB",
"O 	c #83CEDC",
"P 	c #86D3DE",
"Q 	c #70B0D3",
"R 	c #6198CC",
"S 	c #6097CC",
"T 	c #5FA3BC",
"U 	c #42477A",
"V 	c #4B62AC",
"W 	c #6598CA",
"X 	c #83CDDC",
"Y 	c #70AFD3",
"Z 	c #6197CC",
"` 	c #68B8D4",
" .	c #414371",
"..	c #485A9A",
"+.	c #5E89BA",
"@.	c #78B9D1",
"#.	c #87D4DE",
"$.	c #8DDEE2",
"%.	c #619ACC",
"&.	c #629FCD",
"*.	c #64A8D0",
"=.	c #67B3D2",
"-.	c #66B4CE",
";.	c #62A9C2",
">.	c #5993AC",
",.	c #4B6980",
"'.	c #403C5D",
").	c #424672",
"!.	c #4D6495",
"~.	c #73B0D2",
"{.	c #87D3DE",
"].	c #70B1D3",
"^.	c #65AAD0",
"/.	c #68B6D3",
"(.	c #62A8C2",
"_.	c #55869E",
":.	c #4B6A80",
"<.	c #414270",
"[.	c #6494BD",
"}.	c #83CCD8",
"|.	c #86D3DF",
"1.	c #66B1D2",
"2.	c #3E365A",
"3.	c #5F899F",
"4.	c #81C9CF",
"5.	c #63A2CF",
"6.	c #66B1D1",
"7.	c #55879E",
"8.	c #3E334E",
"9.	c #567680",
"0.	c #74B0B5",
"a.	c #7DC3CD",
"b.	c #76B8D2",
"c.	c #6DABD2",
"d.	c #659ECE",
"e.	c #619ACD",
"f.	c #629FCE",
"g.	c #62A3CA",
"h.	c #60A2C1",
"i.	c #475262",
"j.	c #56757F",
"k.	c #6A9EA7",
"l.	c #7DC2CD",
"m.	c #7DC5DA",
"n.	c #639FCE",
"o.	c #64AAD0",
"p.	c #54839D",
"q.	c #6CAECE",
"r.	c #64A6C2",
"s.	c #475061",
"t.	c #6B9FA8",
"u.	c #7ABFCB",
"v.	c #6092A3",
"w.	c #577781",
"x.	c #74B0B4",
"y.	c #5C818A",
"z.	c #485363",
"A.	c #5B8088",
"                                                                                                                                ",
"                                                                                                                                ",
"                                                                                                                                ",
"                                                                                                                                ",
"                                                                                                                                ",
"                                                                                                                                ",
"                                                                                                                                ",
"                                                                                                                                ",
"                                                                                                                                ",
"                                                                                                                                ",
"                                                                                                                                ",
"                                                                                                                                ",
"                                                                                                                                ",
"                                                                                                                                ",
"                                                                                                                                ",
"                                                                                                                                ",
"                                                                                                                                ",
"                                                                                                                                ",
"                                                                                                                                ",
"                                                                                                                                ",
"                                                                                                                                ",
"                                                                                                                                ",
"                                              . . . . . . . . . . . . . . . .                                                   ",
"                                              + @ # $ % & * = - ; ; - = > & ,                                                   ",
"                                          . + . # ' ) ! ~ ~ { ] ^ ^ ] { ~ ~ / ( .                                               ",
"                                          . _ : < [ } | 1 2 3 4 5 5 4 3 6 1 7 8 9                                               ",
"                                        + . # 0 [ a b c 6 d e f g g f e d 6 h i / , .                                           ",
"                                        + . j k l m n o p q r r r r r r s t u v { w .                                           ",
"                                        + . x y z A B B C D E F G G G E H s I J K - .                                           ",
"                                        + . L M N O B B P Q R S R R R R G r g g T ; .                                           ",
"                                        + . U V W X o o P Y R S R R Z R G r ` 5 ^ ; .                                           ",
"                                        + .  ...+.@.#.$.P Q R S R R %.&.*.=.-.;.>.,..                                           ",
"                                          . '.).!.+.~.{.P ].R S R R &.^.=./.(._.:.                                              ",
"                                          . + . <...[.}.|.].Z S R R G 1.-.;.>.,..                                               ",
"                                              + 2. .3.4.P ].R S R R 5.6.;.7.,.                                                  ",
"                                              . 8.. 9.0.a.b.c.d.e.f.g.h.>.:..                                                   ",
"                                                  + i.j.k.l.m.c.n.o.h.p.,.                                                      ",
"                                                  . 8.. 9.0.a.b.q.r.>.:..                                                       ",
"                                                      8.s.9.t.a.u.v.:.                                                          ",
"                                                      . 8.. w.x./ y..                                                           ",
"                                                          8.z.9.A.                                                              ",
"                                                          . . . .                                                               ",
"                                                                                                                                ",
"                                                                                                                                ",
"                                                                                                                                ",
"                                                                                                                                ",
"                                                                                                                                ",
"                                                                                                                                ",
"                                                                                                                                ",
"                                                                                                                                ",
"                                                                                                                                ",
"                                                                                                                                ",
"                                                                                                                                ",
"                                                                                                                                ",
"                                                                                                                                ",
"                                                                                                                                ",
"                                                                                                                                ",
"                                                                                                                                ",
"                                                                                                                                ",
"                                                                                                                                ",
"                                                                                                                                ",
"                                                                                                                                ",
"                                                                                                                                ",
"                                                                                                                                "};
