/* XPM */
static char * diam03_xpm[] = {
"64 64 153 2",
"  	c None",
". 	c #3F3851",
"+ 	c #3F374F",
"@ 	c #41405E",
"# 	c #454E73",
"$ 	c #47577E",
"% 	c #495B80",
"& 	c #4A6281",
"* 	c #4C6983",
"= 	c #4C6D84",
"- 	c #4C6E84",
"; 	c #517486",
"> 	c #597F8A",
", 	c #5D848D",
"' 	c #5D848C",
") 	c #5A7E88",
"! 	c #454F74",
"~ 	c #4E6C9E",
"{ 	c #557CB2",
"] 	c #5883B5",
"^ 	c #5B8EB7",
"/ 	c #5E9CBA",
"( 	c #5FA2BB",
"_ 	c #69ADBF",
": 	c #79BEC6",
"< 	c #81C8CA",
"[ 	c #76B5B9",
"} 	c #5B7F88",
"| 	c #4D6796",
"1 	c #5781B8",
"2 	c #5D92C9",
"3 	c #619DCD",
"4 	c #64A8CF",
"5 	c #67B3D2",
"6 	c #68B8D3",
"7 	c #68B9D3",
"8 	c #71C1D6",
"9 	c #80D1DD",
"0 	c #8ADDE2",
"a 	c #8EE1E3",
"b 	c #85D0D2",
"c 	c #6EA4A9",
"d 	c #5B8089",
"e 	c #4E6C9F",
"f 	c #5680B8",
"g 	c #5C8EC5",
"h 	c #619CCD",
"i 	c #65AAD1",
"j 	c #68B7D3",
"k 	c #68B9D4",
"l 	c #6BBCD5",
"m 	c #72C2D7",
"n 	c #7DCEDC",
"o 	c #8DDDDF",
"p 	c #85D0D1",
"q 	c #46537D",
"r 	c #5173B0",
"s 	c #5884C6",
"t 	c #5B8BC9",
"u 	c #5F98CB",
"v 	c #64A9CF",
"w 	c #66B0D1",
"x 	c #66B1D1",
"y 	c #70BCD5",
"z 	c #7FCFDC",
"A 	c #88DAE1",
"B 	c #87D9E0",
"C 	c #597E8A",
"D 	c #454E7C",
"E 	c #4E69AE",
"F 	c #5276C3",
"G 	c #5479C4",
"H 	c #5886C6",
"I 	c #5F99CB",
"J 	c #63A1CE",
"K 	c #63A2CE",
"L 	c #62A1CE",
"M 	c #67ABD0",
"N 	c #75C6D9",
"O 	c #75C6D8",
"P 	c #6AAEC0",
"Q 	c #444A7B",
"R 	c #4B63AC",
"S 	c #4F6DC0",
"T 	c #4F6DC1",
"U 	c #5479C3",
"V 	c #5B8BC8",
"W 	c #6095CB",
"X 	c #6197CC",
"Y 	c #6198CC",
"Z 	c #5FA3BC",
"` 	c #4B62AC",
" .	c #4F6CC0",
"..	c #5275C2",
"+.	c #5D8FC9",
"@.	c #68B8D4",
"#.	c #424671",
"$.	c #485A9A",
"%.	c #4C65B1",
"&.	c #4E6BBC",
"*.	c #5173C2",
"=.	c #557CC4",
"-.	c #5987C6",
";.	c #5F93CA",
">.	c #619ACC",
",.	c #629FCD",
"'.	c #64A8D0",
").	c #66B4CE",
"!.	c #62A9C2",
"~.	c #5993AC",
"{.	c #4B6980",
"].	c #403D5D",
"^.	c #424672",
"/.	c #475591",
"(.	c #4C65B2",
"_.	c #506EC0",
":.	c #567FC4",
"<.	c #5D90C9",
"[.	c #65AAD0",
"}.	c #68B6D3",
"|.	c #62A8C2",
"1.	c #55869E",
"2.	c #4B6A80",
"3.	c #66B1D2",
"4.	c #403C5B",
"5.	c #475491",
"6.	c #5276C2",
"7.	c #5885C6",
"8.	c #63A2CF",
"9.	c #55879E",
"0.	c #424571",
"a.	c #4E6BB3",
"b.	c #547AC0",
"c.	c #5986C7",
"d.	c #6098CC",
"e.	c #629FCE",
"f.	c #62A3CA",
"g.	c #60A2C1",
"h.	c #475792",
"i.	c #547AC3",
"j.	c #5E97CB",
"k.	c #54849D",
"l.	c #598BC3",
"m.	c #5D9BBE",
"n.	c #4B6B80",
"o.	c #485792",
"p.	c #5073B4",
"q.	c #4E7098",
"r.	c #434673",
"s.	c #48599A",
"t.	c #495B9D",
"u.	c #434A79",
"v.	c #434877",
"                                                                                                                                ",
"                                                                                                                                ",
"                                                                                                                                ",
"                                                                                                                                ",
"                                                                                                                                ",
"                                                                                                                                ",
"                                                                                                                                ",
"                                                                                                                                ",
"                                                                                                                                ",
"                                                                                                                                ",
"                                                                                                                                ",
"                                                                                                                                ",
"                                                                                                                                ",
"                                                                                                                                ",
"                                                                                                                                ",
"                                                                                                                                ",
"                                                                                                                                ",
"                                                                                                                                ",
"                                                                                                                                ",
"                                                                                                                                ",
"                                                                                                                                ",
"                                                                                                                                ",
"                                              . . . . . . . . . . . . . . . .                                                   ",
"                                              + @ # $ % & * = - = = ; > , ' )                                                   ",
"                                          . + . ! ~ { ] ^ / ( ( ( ( _ : < < [ } .                                               ",
"                                          . @ ! | 1 2 3 4 5 6 7 6 6 8 9 0 a b c d                                               ",
"                                        + . # e f g h i 5 j k k k k l m n 0 o p [ ) .                                           ",
"                                        + . q r s t u v w x w w w w w w y z A B : C .                                           ",
"                                        + . D E F G H I J K J J J J J L M y N O P ; .                                           ",
"                                        + . Q R S T U V W X Y Y Y Y Y Y J w k k Z = .                                           ",
"                                        + . Q `  .T ..s +.W Y Y Y Y X Y J w @.6 ( = .                                           ",
"                                        + . #.$.%.&.*.=.-.;.Y Y Y Y >.,.'.5 ).!.~.{..                                           ",
"                                          . ].^./.(._.*.:.<.Y Y Y Y ,.[.5 }.|.1.2.                                              ",
"                                          . + . #.$.%.&.U V W X Y Y J 3.).!.~.{..                                               ",
"                                              + 4.#.5.%.6.7.+.W Y Y 8.x !.9.{.                                                  ",
"                                              . + . 0.$.a.b.c.<.d.e.f.g.~.2..                                                   ",
"                                                  + 4.#.h.a.i.c.j.4 g.k.{.                                                      ",
"                                                  . + . 0.$.a.b.l.m.~.n..                                                       ",
"                                                      + 4.0.o.a.p.q.2.                                                          ",
"                                                      . + . r.s.t.u..                                                           ",
"                                                          + ].0.v.                                                              ",
"                                                          . . . .                                                               ",
"                                                                                                                                ",
"                                                                                                                                ",
"                                                                                                                                ",
"                                                                                                                                ",
"                                                                                                                                ",
"                                                                                                                                ",
"                                                                                                                                ",
"                                                                                                                                ",
"                                                                                                                                ",
"                                                                                                                                ",
"                                                                                                                                ",
"                                                                                                                                ",
"                                                                                                                                ",
"                                                                                                                                ",
"                                                                                                                                ",
"                                                                                                                                ",
"                                                                                                                                ",
"                                                                                                                                ",
"                                                                                                                                ",
"                                                                                                                                ",
"                                                                                                                                ",
"                                                                                                                                "};
