/* XPM */
static char * anim04_xpm[] = {
"64 64 639 2",
"  	c None",
". 	c #7B636C",
"+ 	c #79606B",
"@ 	c #725B68",
"# 	c #7C646D",
"$ 	c #7C646C",
"% 	c #7C676F",
"& 	c #7C656D",
"* 	c #7C686F",
"= 	c #7C6970",
"- 	c #7A616B",
"; 	c #755D69",
"> 	c #705A68",
", 	c #785E6A",
"' 	c #7B626C",
") 	c #7C666E",
"! 	c #735D69",
"~ 	c #BE998C",
"{ 	c #E4B39F",
"] 	c #D99D92",
"^ 	c #9F7577",
"/ 	c #D89D92",
"( 	c #E5B49F",
"_ 	c #E7BAA3",
": 	c #E7B9A2",
"< 	c #E7BCA4",
"[ 	c #E6CEB6",
"} 	c #E6CCB4",
"| 	c #E7BFA8",
"1 	c #E6D1BA",
"2 	c #E6D8C0",
"3 	c #E6CFB8",
"4 	c #E6BAA4",
"5 	c #DFA596",
"6 	c #B58380",
"7 	c #8D6A71",
"8 	c #CD938B",
"9 	c #E3AF9C",
"0 	c #E7BAA2",
"a 	c #E6C8B1",
"b 	c #E6D1B9",
"c 	c #E6CBB4",
"d 	c #E6D7BF",
"e 	c #E6D6BF",
"f 	c #E6CAB2",
"g 	c #D89D91",
"h 	c #6B5766",
"i 	c #665364",
"j 	c #9F7376",
"k 	c #CD948B",
"l 	c #D8A998",
"m 	c #ECBEA5",
"n 	c #FCC9AE",
"o 	c #F4BFA7",
"p 	c #AE8882",
"q 	c #F4BEA7",
"r 	c #FCCBAF",
"s 	c #FCCCB0",
"t 	c #FCD3B7",
"u 	c #FCD2B6",
"v 	c #FCCDB1",
"w 	c #FCD4B8",
"x 	c #FCD7BB",
"y 	c #FCD4B7",
"z 	c #FAC4AA",
"A 	c #CA9D90",
"B 	c #977778",
"C 	c #E7B49F",
"D 	c #FCC8AD",
"E 	c #FCD1B4",
"F 	c #FCD7BA",
"G 	c #FCD1B5",
"H 	c #8B676F",
"I 	c #BC8883",
"J 	c #C7AA9D",
"K 	c #DAC5B1",
"L 	c #F4D0B9",
"M 	c #FCCDB2",
"N 	c #FCCBAE",
"O 	c #F7C7AC",
"P 	c #B18F86",
"Q 	c #FBCAAE",
"R 	c #FBCAAD",
"S 	c #FBC9AD",
"T 	c #CDA595",
"U 	c #997B7A",
"V 	c #EABDA5",
"W 	c #FDCCAF",
"X 	c #9A6F73",
"Y 	c #C2928A",
"Z 	c #ECC2AE",
"` 	c #FAD8BE",
" .	c #FCE0C3",
"..	c #FBDDC0",
"+.	c #FBD0B4",
"@.	c #FBC8AD",
"#.	c #F2BBA4",
"$.	c #AD8681",
"%.	c #FBCBAF",
"&.	c #F8C1A9",
"*.	c #C89A8E",
"=.	c #967677",
"-.	c #E5B09D",
";.	c #FBC6AC",
">.	c #9F7477",
",.	c #CC9D93",
"'.	c #F3C7B2",
").	c #F9DDC2",
"!.	c #FBD4B8",
"~.	c #F8C3A9",
"{.	c #F5BDA6",
"].	c #F2B4A1",
"^.	c #E79F94",
"/.	c #A77679",
"(.	c #E8A095",
"_.	c #F3B4A1",
":.	c #F5B9A4",
"<.	c #F4B9A4",
"[.	c #F4B7A3",
"}.	c #EEA799",
"|.	c #C08582",
"1.	c #926B72",
"2.	c #DB968E",
"3.	c #F2AF9E",
"4.	c #82656E",
"5.	c #D59C90",
"6.	c #F6CAB4",
"7.	c #FADEC3",
"8.	c #FBCFB3",
"9.	c #FAC8AD",
"0.	c #F7C1A8",
"a.	c #EEAB9B",
"b.	c #E79690",
"c.	c #E38A8A",
"d.	c #DC8486",
"e.	c #A26B73",
"f.	c #996972",
"g.	c #CD8082",
"h.	c #D18283",
"i.	c #AE7278",
"j.	c #89636D",
"k.	c #C47B7F",
"l.	c #D28284",
"m.	c #977576",
"n.	c #E1B49E",
"o.	c #FBCCB0",
"p.	c #ECA698",
"q.	c #E5928D",
"r.	c #DE8888",
"s.	c #D68184",
"t.	c #C9737D",
"u.	c #97626F",
"v.	c #735B68",
"w.	c #805F6B",
"x.	c #7E5E6B",
"y.	c #7A5D6A",
"z.	c #785C69",
"A.	c #745B68",
"B.	c #705A67",
"C.	c #775C69",
"D.	c #795D69",
"E.	c #795D6A",
"F.	c #7F5F6B",
"G.	c #815F6C",
"H.	c #805F6C",
"I.	c #665565",
"J.	c #A17778",
"K.	c #E0A395",
"L.	c #F6C1A8",
"M.	c #FBCBAE",
"N.	c #F3B8A3",
"O.	c #EBA196",
"P.	c #E38E8C",
"Q.	c #DF8888",
"R.	c #B9767B",
"S.	c #84606C",
"T.	c #7F5D6A",
"U.	c #755A68",
"V.	c #88626E",
"W.	c #A26B77",
"X.	c #956675",
"Y.	c #7F5E6D",
"Z.	c #6E5967",
"`.	c #6D5967",
" +	c #765B69",
".+	c #9A6874",
"++	c #A76E79",
"@+	c #A56D78",
"#+	c #87616E",
"$+	c #695465",
"%+	c #A98680",
"&+	c #F2BFA7",
"*+	c #FBC9AE",
"=+	c #EDA99B",
"-+	c #E48D8B",
";+	c #DA8586",
">+	c #A96F76",
",+	c #6F5967",
"'+	c #815E6E",
")+	c #996776",
"!+	c #AB6F7A",
"~+	c #A86E7A",
"{+	c #8D6370",
"]+	c #745B69",
"^+	c #8F6473",
"/+	c #A36B79",
"(+	c #AD707B",
"_+	c #735C68",
":+	c #B58280",
"<+	c #DEA797",
"[+	c #F8C7AC",
"}+	c #F9C6AC",
"|+	c #F3B6A2",
"1+	c #E99B93",
"2+	c #CF7F82",
"3+	c #A06B73",
"4+	c #6B5866",
"5+	c #765B6A",
"6+	c #7F5E6C",
"7+	c #85616E",
"8+	c #86616E",
"9+	c #7B5D6A",
"0+	c #6F5968",
"a+	c #775C6A",
"b+	c #805F6D",
"c+	c #805E6D",
"d+	c #775B6A",
"e+	c #745D69",
"f+	c #CB9C8F",
"g+	c #F9C1A9",
"h+	c #F7C1A9",
"i+	c #EA9F95",
"j+	c #E68E8C",
"k+	c #C67C7F",
"l+	c #6A5866",
"m+	c #785C6B",
"n+	c #876170",
"o+	c #936672",
"p+	c #966773",
"q+	c #956773",
"r+	c #926572",
"s+	c #86606F",
"t+	c #6C5866",
"u+	c #6C5867",
"v+	c #745E69",
"w+	c #CFA796",
"x+	c #F7C0A8",
"y+	c #E5948F",
"z+	c #CC7D80",
"A+	c #A66E75",
"B+	c #765C69",
"C+	c #7A5C6C",
"D+	c #A26B79",
"E+	c #AC707B",
"F+	c #AE717B",
"G+	c #896170",
"H+	c #6E5866",
"I+	c #7F5F6C",
"J+	c #8E6470",
"K+	c #87616F",
"L+	c #CC9F91",
"M+	c #FAC4AB",
"N+	c #FCCAAE",
"O+	c #FBC7AC",
"P+	c #F4B8A3",
"Q+	c #E3928D",
"R+	c #A86D75",
"S+	c #695866",
"T+	c #936574",
"U+	c #A66D7A",
"V+	c #AE707B",
"W+	c #A76D7A",
"X+	c #8C6370",
"Y+	c #6D5B69",
"Z+	c #6A6271",
"`+	c #6C5E6D",
" @	c #B68381",
".@	c #DEA596",
"+@	c #E5B7A1",
"@@	c #E6B9A2",
"#@	c #E1AD9B",
"$@	c #D9978E",
"%@	c #CF8484",
"&@	c #9E6A72",
"*@	c #755B69",
"=@	c #976773",
"-@	c #A36C77",
";@	c #A26C77",
">@	c #9F6A76",
",@	c #916473",
"'@	c #7D5D6C",
")@	c #617282",
"!@	c #666978",
"~@	c #82646D",
"{@	c #917073",
"]@	c #947677",
"^@	c #947777",
"/@	c #927275",
"(@	c #8F6A71",
"_@	c #8B646E",
":@	c #725A68",
"<@	c #785C6A",
"[@	c #7B5D6B",
"}@	c #7C5E6B",
"|@	c #7C5D6B",
"1@	c #795C6A",
"2@	c #735A69",
"3@	c #705968",
"4@	c #6C5F6D",
"5@	c #617283",
"6@	c #666979",
"7@	c #765C6A",
"8@	c #BD8984",
"9@	c #E8AD9B",
"0@	c #EFBFA6",
"a@	c #F0C1A8",
"b@	c #EAB4A0",
"c@	c #E29E93",
"d@	c #D78887",
"e@	c #A26C74",
"f@	c #6C5A68",
"g@	c #6F5E6B",
"h@	c #6E5C6A",
"i@	c #7D5E6E",
"j@	c #A46C78",
"k@	c #A86E79",
"l@	c #A26B78",
"m@	c #916474",
"n@	c #7A5C6B",
"o@	c #627181",
"p@	c #676878",
"q@	c #896171",
"r@	c #9C6977",
"s@	c #A76D79",
"t@	c #CDA293",
"u@	c #FAC7AC",
"v@	c #F5BAA5",
"w@	c #E3938E",
"x@	c #A86C74",
"y@	c #73717C",
"z@	c #7D8F98",
"A@	c #6B7D8B",
"B@	c #6A6777",
"C@	c #A66D79",
"D@	c #85606E",
"E@	c #6D5866",
"F@	c #6D5A68",
"G@	c #6B5F6E",
"H@	c #6C5D6B",
"I@	c #9C6976",
"J@	c #AC6F7B",
"K@	c #745F6A",
"L@	c #CFB9A7",
"M@	c #FBDCBF",
"N@	c #E3948E",
"O@	c #A76B73",
"P@	c #757782",
"Q@	c #839BA4",
"R@	c #738C99",
"S@	c #6A707F",
"T@	c #AA6F7A",
"U@	c #656B7B",
"V@	c #696473",
"W@	c #A16B77",
"X@	c #74606B",
"Y@	c #CEC1AF",
"Z@	c #FBE3C7",
"`@	c #FBCDB1",
" #	c #A76C74",
".#	c #6F6773",
"+#	c #777B85",
"@#	c #717481",
"##	c #786877",
"$#	c #8E6372",
"%#	c #6D5B6A",
"&#	c #696574",
"*#	c #6B606F",
"=#	c #CEB5A3",
"-#	c #FBD8BC",
";#	c #FBCBB0",
">#	c #A76D75",
",#	c #725968",
"'#	c #805D6C",
")#	c #8C626F",
"!#	c #986774",
"~#	c #A16B78",
"{#	c #825F6D",
"]#	c #986775",
"^#	c #A96E7A",
"/#	c #745E6A",
"(#	c #CFAF9E",
"_#	c #FBD3B7",
":#	c #755B6A",
"<#	c #986874",
"[#	c #9D6A75",
"}#	c #9D6975",
"|#	c #926573",
"1#	c #9C6975",
"2#	c #745F6B",
"3#	c #CEBBA9",
"4#	c #FBDDC1",
"5#	c #715A68",
"6#	c #7D5E6B",
"7#	c #CFA897",
"8#	c #7C5D6C",
"9#	c #956575",
"0#	c #A56D79",
"a#	c #CFA695",
"b#	c #84606D",
"c#	c #A76D74",
"d#	c #F7BFA7",
"e#	c #83606D",
"f#	c #AB6F7B",
"g#	c #6C5967",
"h#	c #735C69",
"i#	c #C8958B",
"j#	c #F6BBA5",
"k#	c #F0AD9D",
"l#	c #E28F8C",
"m#	c #A86E75",
"n#	c #7D5E6C",
"o#	c #9C6877",
"p#	c #AA6E7A",
"q#	c #A56C79",
"r#	c #9B6877",
"s#	c #997175",
"t#	c #B58782",
"u#	c #BA948A",
"v#	c #BB968B",
"w#	c #B78D85",
"x#	c #B17E7D",
"y#	c #AA7277",
"z#	c #8A626D",
"A#	c #725A69",
"B#	c #89626F",
"C#	c #8D6470",
"D#	c #7B5D6C",
"E#	c #8B6270",
"F#	c #88616F",
"G#	c #6C5966",
"H#	c #7A5D6B",
"I#	c #617383",
"J#	c #CFAC9B",
"K#	c #646E7D",
"L#	c #686675",
"M#	c #CEBFAC",
"N#	c #FBE1C5",
"O#	c #7E5E6C",
"P#	c #6E5E6C",
"Q#	c #6F606E",
"R#	c #6E5F6D",
"S#	c #6D5C6A",
"T#	c #6E5A68",
"U#	c #6E5D6B",
"V#	c #6E5B69",
"W#	c #A36C78",
"X#	c #6E5867",
"Y#	c #707785",
"Z#	c #718492",
"`#	c #717E8C",
" $	c #6F6371",
".$	c #707583",
"+$	c #707F8D",
"@$	c #6F6573",
"#$	c #CFAD9B",
"$$	c #FCD0B4",
"%$	c #6E5968",
"&$	c #667281",
"*$	c #688291",
"=$	c #718290",
"-$	c #6F6572",
";$	c #717986",
">$	c #6D8594",
",$	c #647989",
"'$	c #6B6371",
")$	c #CEB8A6",
"!$	c #FBDBBF",
"~$	c #636E7F",
"{$	c #65808F",
"]$	c #6B8493",
"^$	c #607687",
"/$	c #6A6270",
"($	c #7E5D6D",
"_$	c #8F6472",
":$	c #9B6975",
"<$	c #976774",
"[$	c #886170",
"}$	c #745B6A",
"|$	c #CFB3A1",
"1$	c #FBD6BA",
"2$	c #7E5E6D",
"3$	c #8D6371",
"4$	c #636F7F",
"5$	c #66808F",
"6$	c #956674",
"7$	c #A86D7A",
"8$	c #9B6974",
"9$	c #CFA795",
"0$	c #9A6875",
"a$	c #946673",
"b$	c #A46C79",
"c$	c #CDA292",
"d$	c #FAC6AC",
"e$	c #856070",
"f$	c #976775",
"g$	c #7D5D6D",
"h$	c #825F6E",
"i$	c #9D6976",
"j$	c #8D6372",
"k$	c #735B69",
"l$	c #735A68",
"m$	c #7A5D69",
"n$	c #9D6A72",
"o$	c #8E6471",
"p$	c #916571",
"q$	c #CFB6A4",
"r$	c #FCD9BD",
"s$	c #9E6977",
"t$	c #906472",
"u$	c #835F6F",
"v$	c #906572",
"w$	c #956672",
"x$	c #946672",
"y$	c #86616F",
"z$	c #896270",
"A$	c #8C6371",
"B$	c #668090",
"C$	c #717987",
"D$	c #607787",
"E$	c #795C6B",
"F$	c #84606E",
"G$	c #8C6271",
"H$	c #A56C78",
"I$	c #84606F",
"J$	c #656B7A",
"K$	c #677988",
"L$	c #707B88",
"M$	c #6F6270",
"N$	c #707381",
"O$	c #6C7C8B",
"P$	c #637181",
"Q$	c #946575",
"R$	c #CEBCAA",
"S$	c #FBDFC2",
"T$	c #6E5D6A",
"U$	c #736471",
"V$	c #736370",
"W$	c #816271",
"X$	c #976675",
"Y$	c #906571",
"Z$	c #CFAA98",
"`$	c #FCCEB1",
" %	c #74747E",
".%	c #80949D",
"+%	c #768996",
"@%	c #70707F",
"#%	c #83606E",
"$%	c #757781",
"%%	c #8199A2",
"&%	c #6D8694",
"*%	c #6C5D6C",
"=%	c #646E7E",
"-%	c #6F6370",
";%	c #74727D",
">%	c #6C6977",
",%	c #786271",
"'%	c #9F6A78",
")%	c #CA998E",
"!%	c #F8BFA7",
"~%	c #F2B19F",
"{%	c #E3918D",
"]%	c #A96E75",
"^%	c #6D5765",
"/%	c #6D5766",
"(%	c #8B6370",
"_%	c #815F6D",
":%	c #A47779",
"<%	c #C49289",
"[%	c #CAA192",
"}%	c #CBA393",
"|%	c #C6988D",
"1%	c #BF8683",
"2%	c #B8787C",
"3%	c #91656F",
"4%	c #906B71",
"5%	c #A67D7C",
"6%	c #AA8882",
"7%	c #AB8982",
"8%	c #A7827E",
"9%	c #A27578",
"0%	c #9D6C73",
"a%	c #82606B",
"b%	c #6E5966",
"c%	c #83606B",
"d%	c #C69189",
"e%	c #F3B7A2",
"f%	c #F9C7AC",
"g%	c #FAC9AD",
"h%	c #F5BEA7",
"i%	c #EDA89A",
"j%	c #E08E8B",
"k%	c #A66D75",
"l%	c #A06B76",
"m%	c #CEA898",
"n%	c #FBCCB1",
"o%	c #F6BEA7",
"p%	c #9E6A76",
"q%	c #CEBDAB",
"r%	c #FBE0C4",
"s%	c #8C6272",
"t%	c #A06A78",
"u%	c #CEC0AE",
"v%	c #FBE2C6",
"w%	c #C9988D",
"x%	c #F7BEA6",
"y%	c #F8C3AA",
"z%	c #F1B19F",
"A%	c #E2908C",
"B%	c #C28382",
"C%	c #EDA297",
"D%	c #F1B09F",
"E%	c #F2B2A0",
"F%	c #EEA89A",
"G%	c #E89690",
"H%	c #DC8386",
"I%	c #A46973",
"J%	c #AF717C",
"K%	c #AA6E7B",
"L%	c #996775",
"M%	c #A56A73",
"N%	c #A86F76",
"O%	c #C77C7F",
"P%	c #C67B7F",
"Q%	c #C4797E",
"R%	c #B96D78",
"S%	c #91606D",
"T%	c #936573",
"U%	c #91606E",
"V%	c #705967",
"                        . . + @ @ + . # $ # % % & * = % # - ; > , ' # $ $ ) * & % = = = ) . + @ @ + . .                         ",
"                    @ ! ~ { ] ^ ^ / ( _ : < [ } | 1 2 3 4 5 6 7 8 9 _ 0 0 a b | c d e e f ( g ^ ^ ] { ~ ! @                     ",
"              h i j k l m n o p p q n r r s t u v w x y r z A B C D r r r E w v u x F F G n q p p o n m l k j i h               ",
"            H I J K L M N r O P P O r Q Q Q R Q Q S S S Q r T U V W Q Q Q Q S Q Q S S S Q r O P P O r N M L K J I H             ",
"          X Y Z `  ...+.N @.#.$.$.#.@.r %.%.%.%.%.%.%.r Q &.*.=.-.;.r %.%.%.%.%.%.%.%.%.r @.#.$.$.#.@.N +... .` Z Y X           ",
"        >.,.'.).!.Q S ~.{.].^././.(._.:.<.<.<.<.<.<.<.:.[.}.|.1.2.3.:.<.<.<.<.<.<.<.<.<.:._.(././.^.].{.~.S Q !.).'.,.>.        ",
"      4.5.6.7.8.Q 9.0.a.b.c.d.e.f.g.h.h.h.h.h.h.h.h.h.h.h.h.i.j.k.l.h.h.h.h.h.h.h.h.h.h.h.h.g.f.e.d.c.b.a.0.9.Q 8.7.6.5.4.      ",
"      m.n.r o.Q 9.{.p.q.r.s.t.u.v.w.x.y.z.z.z.z.z.z.z.z.z.z.A.B.C.D.z.z.z.z.z.z.z.z.E.F.G.G.H.v.u.t.s.r.q.p.{.9.Q o.r n.m.      ",
"  I.J.K.L.M.Q S N.O.P.Q.R.S.T.U.V.W.X.Y.Z.Z.Z.Z.Z.Z.Z.Z.Z.Z.Z.Z.Z.Z.Z.Z.Z.Z.Z.Z.Z.`. +.+++++@+#+U.T.S.R.Q.P.O.N.S Q M.L.K.J.I.  ",
"  $+%+&+*+Q Q 9.=+-+;+>+x.`.,+'+)+!+~+{+Z.Z.Z.Z.Z.Z.Z.Z.Z.Z.Z.Z.Z.Z.Z.Z.Z.Z.Z.Z.Z.`.]+^+/+(+!+)+'+,+`.x.>+;+-+=+9.Q Q *+&+%+$+  ",
"_+:+<+[+M.Q }+|+1+2+3+D.4+`.Z.5+6+7+8+9+Z.Z.Z.Z.Z.Z.Z.Z.Z.Z.Z.Z.Z.Z.Z.Z.Z.Z.Z.Z.Z.Z.0+a+b+8+8+c+d+,+Z.4+D.3+2+1+|+}+Q M.[+<+:+_+",
"e+f+g+S Q %.h+i+j+k+C.l+m+n+o+p+q+r+s+m+Z.Z.Z.Z.Z.Z.Z.Z.Z.Z.Z.Z.Z.Z.Z.Z.Z.Z.Z.Z.Z.Z.Z.`.t+4+4+4+t+u+u+`.l+C.k+j+i+h+%.Q S g+f+e+",
"v+w+r Q Q r x+y+z+A+B+C+^+D+E+F+F+E+/+G+Z.Z.Z.Z.Z.H+Z.Z.Z.Z.Z.Z.Z.Z.Z.Z.Z.Z.Z.Z.Z.Z.Z.Z.I+J+J+J+J+J+J+K+C+B+A+z+y+x+r Q Q r w+v+",
"e+L+M+N+r O+P+Q+R+S+]+T+U+V+V+V+V+(+W+X+Z.Z.Z.Z.Y+Z+`+Z.Z.Z.Z.Z.Z.Z.Z.Z.Z.Z.Z.Z.Z.Z.Z.Z.X+W+(+F+V+V+V+U+T+]+S+R+Q+P+O+r N+M+L+e+",
"@  @.@+@@@#@$@%@&@4+*@=@-@;@;@;@;@>@,@'@Z.Z.Z.H+`+)@!@Z.Z.Z.Z.Z.Z.Z.Z.Z.Z.Z.Z.Z.Z.Z.Z.Z.'@,@>@;@;@;@;@-@=@*@4+&@%@$@#@@@+@.@ @@ ",
",+~@{@]@^@/@(@_@9+Z.Z.:@*@<@[@}@|@|@y.1@C.2@3@H+4@5@6@Z.Z.Z.Z.Z.Z.Z.Z.Z.Z.Z.Z.Z.Z.Z.,+:@7@y.|@|@}@[@<@*@:@Z.Z.9+_@(@/@^@]@{@~@,+",
"_+8@9@0@a@b@c@d@e@f@g@h@i@T+j@++++++++k@l@m@n@H+`+o@p@Z.Z.Z.Z.Z.Z.Z.Z.Z.Z.Z.Z.Z.Z.`.:@q@r@s@++++++j@T+i@h@g@f@e@d@c@b@a@0@9@8@_+",
"e+t@u@Q N @.v@w@x@y@z@A@B@7+k@V+(+(+(+(+E+C@D@E@F@G@H@Z.Z.Z.Z.Z.Z.Z.Z.Z.Z.Z.Z.Z.Z.`.B+I@J@(+(+(+V+k@7+B@A@z@y@x@w@v@@.N Q u@t@e+",
"K@L@M@o.Q r x+N@O@P@Q@R@S@I+s@V+(+(+(+(+V+T@#+E@H@U@V@Z.Z.Z.Z.Z.Z.Z.Z.Z.Z.Z.Z.Z.Z.`.C.W@F+(+(+(+V+s@I+S@R@Q@P@O@N@x+r Q o.M@L@K@",
"X@Y@Z@`@Q %.x+N@ #.#+#@###$#~+V+(+(+(+(+V+T@#+E@%#&#*#Z.Z.Z.Z.Z.Z.Z.Z.Z.Z.Z.Z.Z.Z.`.C.W@F+(+(+(+V+~+$###@#+#.# #N@x+%.Q `@Z@Y@X@",
"K@=#-#;#Q %.x+N@>#,#'#)#!#/+E+F+V+V+V+F+J@~#{#E@%#&#*#Z.Z.Z.Z.Z.Z.Z.Z.Z.Z.Z.Z.Z.Z.`.*@]#^#V+V+V+F+E+/+!#)#'#,#>#N@x+%.Q ;#-#=#K@",
"/#(#_#%.Q %.x+N@>#:#q@<#[#}#}#}#}#}#}#[#!#q@d+H+4@5@6@Z.Z.Z.Z.Z.Z.Z.Z.Z.Z.Z.Z.Z.Z.`.> '+|#1#1#1#1#1#1#}#!#q@:#>#N@x+%.Q %._#(#/#",
"2#3#4#o.Q %.x+N@>#u+Z.,+,+,+,+,+,+,+,+,+,+,+Z.H+4@5@6@Z.Z.Z.Z.Z.Z.Z.Z.Z.Z.Z.Z.Z.Z.5#a+6#I+I+I+I+I+I+I+H.x.a+0+>#N@x+%.Q o.4#3#2#",
"v+7#s Q Q %.x+N@>#`.2@C.<@<@<@<@<@<@<@*@:@,+Z.H+4@5@6@Z.Z.Z.Z.Z.Z.Z.Z.Z.Z.Z.Z.Z.`.8#9#0#!+T@T@T@T@T@T@!+0#9#n@>#N@x+%.Q Q s 7#v+",
"v+a#N Q Q %.x+N@>#m+m@l@k@++++++++++s@r@q@:@`.H+4@5@6@Z.Z.Z.Z.Z.Z.Z.Z.Z.Z.Z.Z.Z.`.8+k@(+(+(+(+(+(+(+(+(+(+k@b#c#N@x+%.Q Q N a#v+",
"v+a#N+Q Q %.d#N@>#e#0#E+(+(+(+(+(+(+(+f#1#B+`.H+4@5@6@Z.Z.Z.Z.Z.Z.Z.Z.Z.Z.Z.Z.Z.g##+T@(+(+(+(+(+(+(+(+(+(+T@7+c#N@d#%.Q Q N+a#v+",
"h#i#j#*+r &.k#l#m#n#o#p#V+(+(+(+(+V+(+q#|#]+`.H+4@5@6@Z.Z.Z.Z.Z.Z.Z.Z.Z.Z.Z.Z.Z.`.Y.r#p#V+(+(+(+(+(+(+V+p#r#'@m#l#k#&.r *+j#i#h#",
"> s#t#u#v#w#x#y#z#A#Y.B#C#{+{+{+{+C#J+K+D#> Z.H+4@5@6@Z.Z.Z.Z.Z.Z.Z.Z.Z.Z.Z.Z.Z.Z.]+Y.E#J+J+C#{+{+{+{+C#B#Y.A#z#y#x#w#v#u#t#s#> ",
"> s#t#u#v#w#x#y#z#A#Y.B#C#{+{+{+F#8#3@G#`.Z.Z.H+4@5@6@Z.Z.Z.Z.Z.Z.Z.Z.Z.Z.Z.Z.Z.Z.Z.`.g#t+3@8#F#{+{+{+C#B#Y.A#z#y#x#w#v#u#t#s#> ",
"h#i#j#S r &.k#l#m#'@r#p#V+(+(+V+~+]#H#`.Z.Z.Z.H+4@I#6@Z.Z.Z.Z.Z.Z.Z.Z.Z.Z.Z.Z.Z.Z.Z.Z.Z.`.H#]#~+V+(+(+V+p#r#'@m#l#k#&.r S j#i#h#",
"/#J#+.%.Q %.d#N@c#7+T@(+(+(+(+(+V+C@I+u+Z.Z.Z.H+H@K#L#Z.Z.Z.Z.Z.Z.Z.Z.Z.Z.Z.Z.Z.Z.Z.Z.Z.u+I+C@V+(+(+(+(+(+T@7+c#N@d#%.Q %.+.J#/#",
"X@M#N#`@Q %.x+N@c#b#k@(+(+(+(+(+(+j@O#u+Z.Z.P#Q#R#S#T#Z.Z.Z.Z.Z.Z.Z.Z.Z.Z.Z.Z.Z.U#Q#R#V#t+O#j@(+(+(+(+(+(+k@b#c#N@x+%.Q `@N#M#X@",
"X@M#N#`@Q %.x+N@>#n@9#0#!+T@T@!+W#m@a+`.X#h@Y#Z#`# $H+Z.Z.Z.Z.Z.Z.Z.Z.Z.Z.Z.Z.V#.$Z#+$@$E@a+m@W#!+T@T@!+0#9#n@>#N@x+%.Q `@N#M#X@",
"/##$$$%.Q %.x+N@>#%$a+6#6+O#O#6+|@5+3@Z.Z.S#&$*$=$-$H+Z.Z.Z.Z.Z.Z.Z.Z.Z.Z.Z.Z.V#;$>$,$'$H+3@5+|@I+I+I+H.x.a+0+>#N@x+%.Q %.$$#$/#",
"K@)$!$o.Q %.x+N@>#4+`.`.t+t+t+t+t+`.`.Z.Z.Y+~${$=$-$H+Z.Z.Z.Z.Z.Z.Z.Z.Z.Z.Z.Z.V#;$]$^$/$H+Z.,+($_$:$1#1#<$[$}$>#N@x+%.Q o.!$)$K@",
"K@|$1$%.Q %.x+N@>#4+5#2$3$q+p+p+p+o+n+m+Z.Y+4$5$=$-$H+Z.Z.Z.Z.Z.Z.Z.Z.Z.Z.Z.Z.V#;$]$^$/$H+`.5#|#W+(+V+F+J@~#b+>#N@x+%.Q %.1$|$K@",
"v+a#N+Q Q %.x+N@>#4+*@6$7$V+V+V+F+E+/+G+Z.Y+4$5$=$-$H+Z.Z.Z.Z.Z.Z.Z.Z.Z.Z.Z.Z.V#;$]$^$/$H+`.:@8$F+(+(+(+V+!+8+ #N@x+%.Q Q N+a#v+",
"v+9$r Q Q r x+N@>#l+ +0$f#V+V+V+V+(+W+X+Z.Y+4$5$=$-$H+Z.Z.Z.Z.Z.Z.Z.Z.Z.Z.Z.Z.V#;$]$^$/$H+`.:@a$^#(+V+V+E+b${#>#N@x+r Q Q r 9$v+",
"e+c$d$Q N @.v@w@R+4+5#e$f$W.;@;@;@>@,@g$Z.Y+4$5$=$-$H+Z.Z.Z.Z.Z.Z.Z.Z.Z.Z.Z.Z.V#;$]$^$/$H+Z.3@h$6$W@-@-@i$j$5+R+w@v@@.N Q d$c$e+",
"_+8@9@0@a@b@c@d@e@Z.k$<@[@|@|@|@}@[@a+5#Z.Y+4$5$=$-$H+Z.Z.Z.Z.Z.Z.Z.Z.Z.Z.Z.Z.V#;$]$^$/$H+Z.Z.0+5#:@l$l$:@> `.e@d@c@b@a@0@9@8@_+",
",+~@{@]@^@/@(@_@m$n@m@l@++++++++++j@X.Y.Z.Y+4$5$=$-$H+Z.Z.Z.Z.Z.Z.Z.Z.Z.Z.Z.Z.V#;$]$^$/$H+Z.Z.0+5#:@l$5#3@Z.Z.9+_@(@/@^@]@{@~@,+",
"@  @.@+@@@#@$@%@n$e#C@E+(+(+(+(+(+(+^#o$Z.Y+4$5$=$-$H+Z.Z.Z.Z.Z.Z.Z.Z.Z.Z.Z.Z.V#;$]$^$/$H+Z.3@h$6$W@;@]#e$:@t+&@%@$@#@@@+@.@ @@ ",
"e+L+z N+r O+P+Q+>#8+T@V+(+(+(+(+(+(+(+p$Z.Y+4$5$=$-$H+Z.Z.Z.Z.Z.Z.Z.Z.Z.Z.Z.Z.V#;$]$^$/$H+`.:@a$^#(+V+f#0$ +l+m#Q+P+O+r N+z L+e+",
"K@q$r$o.Q r x+N@>#6+s$f#F+V+V+V+F+E+D+[$Z.Y+4$5$=$-$H+Z.Z.Z.Z.Z.Z.Z.Z.Z.Z.Z.Z.V#;$]$^$/$H+Z.5#t$C@(+V+7$6$*@4+>#N@x+r Q o.r$q$K@",
"X@Y@Z@`@Q %.x+N@>#2@u$v$w$x$x$x$w$r+y$m+Z.Y+4$5$=$-$H+Z.Z.Z.Z.Z.Z.Z.Z.Z.Z.Z.Z.V#;$]$^$/$H+Z.Z.C+z$x$x$A$g$3@4+>#N@x+%.Q `@Z@Y@X@",
"K@)$!$o.Q %.x+N@>#3@8#b#8+8+8+7+8+b#8#]+Z.%#4$B$=$-$H+Z.Z.Z.Z.Z.Z.Z.Z.Z.Z.Z.Z.V#C$]$D$Z+H+5#E${#8+8+8+#+F$8#3@>#N@x+%.Q o.!$)$K@",
"/##$$$%.Q %.x+N@>#5+G$}#H$~+J@E+(+T@r@I$Z.Y+J$K$L$M$H+Z.Z.Z.Z.Z.Z.Z.Z.Z.Z.Z.Z.V#N$O$P$*#E@E$Q$C@(+J@~+H$}#G$5+>#N@x+%.Q %.$$#$/#",
"2#R$S$o.Q %.x+N@>#T$U$V$W$X$p#(+(+(+f#Y$Z.Z.F@h@h@T#Z.Z.Z.Z.Z.Z.Z.Z.Z.Z.Z.Z.Z.Z.V#h@Y+%$t+6+@+(+(+p#X$W$V$U$T$>#N@x+%.Q o.S$R$2#",
"/#Z$`$Q Q %.x+N@ # %.%+%@%#%s@V+(+(+(+p$Z.Z.Z.Z.Z.Y+T#Z.Z.Z.Z.Z.Z.Z.Z.Z.Z.Z.Z.Z.Z.Z.Z.Z.u+I+s@V+V+s@#%@%+%.% % #N@x+%.Q Q `$Z$/#",
"v+a#N+Q Q %.x+N@O@$%%%&%U@H.s@V+(+(+E+p$Z.Z.Z.H+*%=%L#Z.Z.Z.Z.Z.Z.Z.Z.Z.Z.Z.Z.Z.Z.Z.Z.Z.u+I+C@V+V+s@H.U@&%%%$%O@N@x+%.Q Q N+a#v+",
"v+9$r Q Q r x+N@ #-%;%>%,%,@^#V+V+f#'%s+Z.Z.Z.H+4@I#6@Z.Z.Z.Z.Z.Z.Z.Z.Z.Z.Z.Z.Z.Z.Z.Z.Z.`.H#]#~+F+^#,@,%>%;%-% #N@x+r Q Q r 9$v+",
"e+)%!%N+W z ~%{%]%h ^%/%*@h$(%{+C#(%_%:#`.Z.Z.H+4@5@6@Z.Z.Z.Z.Z.Z.Z.Z.Z.Z.Z.Z.Z.Z.Z.Z.`.G#3@8#F#C#(%h$*@/%^%h ]%{%~%z W N+!%)%e+",
"5#:%<%[%}%|%1%2%3%A#Y.E#J+C#{+{+{+{+C#y$D#> Z.H+4@I#6@Z.Z.Z.Z.Z.Z.Z.Z.Z.Z.Z.Z.Z.Z.Z.> D#K+J+C#{+{+{+C#J+E#Y.A#3%2%1%|%}%[%<%:%5#",
"B.4%5%6%7%8%9%0%a%6+o#p#V+(+(+(+(+V+(+q#|#]+`.b%H@J$V@Z.Z.Z.Z.Z.Z.Z.Z.Z.Z.Z.Z.Z.Z.`.]+|#q#(+V+(+(+(+(+V+p#r#O#c%0%9%8%7%6%5%4%B.",
"h#d%e%f%g%h%i%j%k%e#0#E+(+(+(+(+(+(+(+f#1#B+`.Z.F@G@H@Z.Z.Z.Z.Z.Z.Z.Z.Z.Z.Z.Z.Z.Z.`.C.l%V+(+(+(+(+(+(+(+(+T@7+k%j%i%h%g%f%e%d%h#",
"v+m%n%Q Q Q o%w@>#m+m@l@k@++++++++++s@r@q@:@`.H+`+o@p@Z.Z.Z.Z.Z.Z.Z.Z.Z.Z.Z.Z.Z.Z.`.B+p%(+(+(+(+(+(+(+(+(+k@b#>#w@o%Q Q Q n%m%v+",
"X@q%r%o.Q %.x+N@>#`.2@C.<@<@<@<@<@<@<@*@:@,+Z.H+4@5@6@Z.Z.Z.Z.Z.Z.Z.Z.Z.Z.Z.Z.Z.Z.`.2@s%t%T@T@T@T@T@T@!+0#9#n@>#N@x+%.Q o.r%q%X@",
"X@u%v%`@Q %.x+N@>#u+Z.,+,+,+,+,+,+,+,+,+,+,+Z.H+4@5@6@Z.Z.Z.Z.Z.Z.Z.Z.Z.Z.Z.Z.Z.Z.Z.,+]+[@O#O#O#O#O#O#6+6#a+%$>#N@x+%.Q `@v%u%X@",
"/#(#t %.Q r x+N@>#:#q@!#[#}#}#}#}#}#}#[#!#q@d+H+4@5@6@Z.Z.Z.Z.Z.Z.Z.Z.Z.Z.Z.Z.Z.Z.Z.Z.Z.`.u+t+t+t+t+t+t+u+`.4+>#N@x+r Q %.t (#/#",
"! w%x%Q r y%z%A%>#b+l@J@F+V+V+V+V+V+V+F+J@l@{#E@4@5@6@Z.Z.Z.Z.Z.Z.Z.Z.Z.Z.Z.Z.Z.Z.Z.Z.Z.m+n+o+p+p+p+p+=@J+v.4+m#A%z%y%r Q x%w%! ",
"v.B%C%D%E%F%G%H%I%_%l@J@F+V+V+V+V+V+V+F+J@l@{#E@4@I#6@Z.Z.Z.Z.Z.Z.Z.Z.Z.Z.Z.Z.Z.Z.Z.Z.Z.z$/+(+J%J%J%J%K%L%*@4+M%H%G%F%E%D%C%B%v.",
"5#N%O%P%P%O%Q%R%S%5+q@!#[#}#}#}#}#}#}#[#!#q@d+H+H@U@V@Z.Z.Z.Z.Z.Z.Z.Z.Z.Z.Z.Z.Z.Z.Z.Z.Z.#+1#}#}#}#}#1#T%h$5#g#U%R%Q%O%P%P%O%N%5#",
"Z.B.5#5#5#5#5#V%,+Z.,+,+,+,+,+,+,+,+,+,+,+,+Z.Z.Z.Z.Z.Z.Z.Z.Z.Z.Z.Z.Z.Z.Z.Z.Z.Z.Z.Z.Z.Z.,+,+,+,+,+,+,+,+Z.Z.Z.,+V%5#5#5#5#5#B.Z.",
"Z.Z.Z.Z.Z.Z.Z.Z.Z.Z.Z.Z.Z.Z.Z.Z.Z.Z.Z.Z.Z.Z.Z.Z.Z.Z.Z.Z.Z.Z.Z.Z.Z.Z.Z.Z.Z.Z.Z.Z.Z.Z.Z.Z.Z.Z.Z.Z.Z.Z.Z.Z.Z.Z.Z.Z.Z.Z.Z.Z.Z.Z.Z.Z."};
