/* XPM */
static char * exit5_xpm[] = {
"64 64 491 2",
"  	c #7D5E6B",
". 	c #84636E",
"+ 	c #896972",
"@ 	c #8B6C73",
"# 	c #8B6C74",
"$ 	c #8C7076",
"% 	c #8F7679",
"& 	c #91797B",
"* 	c #735A68",
"= 	c #6E5967",
"- 	c #946672",
"; 	c #A4727A",
"> 	c #AD8082",
", 	c #B18786",
"' 	c #B18787",
") 	c #B48E8B",
"! 	c #BA9A93",
"~ 	c #BDA098",
"{ 	c #B18887",
"] 	c #B28887",
"^ 	c #7C5D6A",
"/ 	c #6C5866",
"( 	c #A5737B",
"_ 	c #B78285",
": 	c #C08E8C",
"< 	c #C39490",
"[ 	c #C69A94",
"} 	c #CBA59C",
"| 	c #CDAAA0",
"1 	c #CEAAA0",
"2 	c #C69A95",
"3 	c #C08F8D",
"4 	c #B88285",
"5 	c #A5747B",
"6 	c #85636E",
"7 	c #6D5967",
"8 	c #AE8183",
"9 	c #C3938F",
"0 	c #C49490",
"a 	c #C49590",
"b 	c #C59792",
"c 	c #C79B95",
"d 	c #C89D96",
"e 	c #6D5867",
"f 	c #C1928F",
"g 	c #BF8E8C",
"h 	c #C1918E",
"i 	c #C1928E",
"j 	c #BD8B8B",
"k 	c #BD8B8A",
"l 	c #C2928F",
"m 	c #BF918E",
"n 	c #B68B89",
"o 	c #A37D7F",
"p 	c #846870",
"q 	c #6D5866",
"r 	c #B37B81",
"s 	c #B37A81",
"t 	c #9C787C",
"u 	c #8B6D74",
"v 	c #8A6C73",
"w 	c #846871",
"x 	c #765F6A",
"y 	c #B98587",
"z 	c #C29491",
"A 	c #C29591",
"B 	c #B47E83",
"C 	c #B68286",
"D 	c #B78588",
"E 	c #B78B89",
"F 	c #8A6A72",
"G 	c #866670",
"H 	c #80626D",
"I 	c #755C69",
"J 	c #C9A39B",
"K 	c #C0928F",
"L 	c #C59D97",
"M 	c #C8A39B",
"N 	c #AF8384",
"O 	c #AA7B7F",
"P 	c #9B6F77",
"Q 	c #80616D",
"R 	c #CBA49C",
"S 	c #BD8989",
"T 	c #AB7B7F",
"U 	c #876670",
"V 	c #C49792",
"W 	c #C69B95",
"X 	c #C79D96",
"Y 	c #B08484",
"Z 	c #FBCAAE",
"` 	c #EDA799",
" .	c #FAEBCF",
"..	c #946572",
"+.	c #E28989",
"@.	c #D2727E",
"#.	c #8C8C70",
"$.	c #8BA86A",
"%.	c #87C563",
"&.	c #7DC562",
"*.	c #6AAB67",
"=.	c #568F6A",
"-.	c #46776C",
";.	c #3B686C",
">.	c #47786C",
",.	c #599D6B",
"'.	c #50A26D",
").	c #5A9B6F",
"!.	c #728B73",
"~.	c #BA9A94",
"{.	c #AD707B",
"].	c #926475",
"^.	c #A0BD73",
"/.	c #90C768",
"(.	c #7DBD65",
"_.	c #57906B",
":.	c #47786B",
"<.	c #3D6667",
"[.	c #385C64",
"}.	c #3E6667",
"|.	c #508B6D",
"1.	c #589C6B",
"2.	c #5FA26D",
"3.	c #69A074",
"4.	c #9FCE6D",
"5.	c #84CF60",
"6.	c #6EB066",
"7.	c #45776C",
"8.	c #3A6368",
"9.	c #375761",
"0.	c #36505C",
"a.	c #569C6B",
"b.	c #47A16E",
"c.	c #9ECF6D",
"d.	c #82CB62",
"e.	c #63A06A",
"f.	c #3C6467",
"g.	c #354B58",
"h.	c #344553",
"i.	c #478A6E",
"j.	c #409B6F",
"k.	c #9FD56A",
"l.	c #80C963",
"m.	c #5C976B",
"n.	c #3C696C",
"o.	c #385B65",
"p.	c #37515C",
"q.	c #344554",
"r.	c #323E4F",
"s.	c #395C65",
"t.	c #3C686C",
"u.	c #3D7E70",
"v.	c #3C9770",
"w.	c #A0E264",
"x.	c #5A966B",
"y.	c #375A65",
"z.	c #323D4F",
"A.	c #395C64",
"B.	c #3C7E70",
"C.	c #A4E863",
"D.	c #3B686B",
"E.	c #375762",
"F.	c #354C59",
"G.	c #334352",
"H.	c #323C4F",
"I.	c #334152",
"J.	c #354A58",
"K.	c #385E61",
"L.	c #3B756B",
"M.	c #3D8970",
"N.	c #3C9B70",
"O.	c #5A956B",
"P.	c #3B656A",
"Q.	c #344F5C",
"R.	c #334353",
"S.	c #323F50",
"T.	c #323E50",
"U.	c #36635C",
"V.	c #3A886A",
"W.	c #3CA170",
"X.	c #9FE661",
"Y.	c #80C961",
"Z.	c #5A9368",
"`.	c #396066",
" +	c #334958",
".+	c #323C4E",
"++	c #334951",
"@+	c #345D56",
"#+	c #356459",
"$+	c #356659",
"%+	c #367960",
"&+	c #39956B",
"*+	c #3AA270",
"=+	c #3AA370",
"-+	c #86A0A8",
";+	c #5D7889",
">+	c #95E15E",
",+	c #7FC75F",
"'+	c #5A8E63",
")+	c #38565F",
"!+	c #324455",
"~+	c #345D57",
"{+	c #388263",
"]+	c #3A9169",
"^+	c #3A9269",
"/+	c #3A966B",
"(+	c #3B9F6E",
"_+	c #3CA370",
":+	c #728896",
"<+	c #84CF61",
"[+	c #72B462",
"}+	c #528161",
"|+	c #324154",
"1+	c #334851",
"2+	c #345C56",
"3+	c #39966B",
"4+	c #45A76F",
"5+	c #54B06D",
"6+	c #5BB56B",
"7+	c #6CAD68",
"8+	c #548969",
"9+	c #426A63",
"0+	c #364F5C",
"a+	c #334454",
"b+	c #3CA06F",
"c+	c #3BA370",
"d+	c #3CA470",
"e+	c #54B16D",
"f+	c #73C666",
"g+	c #80D162",
"h+	c #5B9468",
"i+	c #365561",
"j+	c #36555B",
"k+	c #35605A",
"l+	c #5AB46C",
"m+	c #6CC168",
"n+	c #84D461",
"o+	c #8FDE5D",
"p+	c #598D63",
"q+	c #375560",
"r+	c #334859",
"s+	c #388264",
"t+	c #8CDB5E",
"u+	c #90DF5D",
"v+	c #364E5B",
"w+	c #324153",
"x+	c #346459",
"y+	c #3A9168",
"z+	c #85D561",
"A+	c #364F5B",
"B+	c #334453",
"C+	c #336459",
"D+	c #73C767",
"E+	c #37595E",
"F+	c #36615B",
"G+	c #347860",
"H+	c #5BB56C",
"I+	c #80D163",
"J+	c #8BDB5E",
"K+	c #386962",
"L+	c #398566",
"M+	c #38956B",
"N+	c #5CB66B",
"O+	c #84D561",
"P+	c #6DC168",
"Q+	c #397065",
"R+	c #3B946C",
"S+	c #387065",
"T+	c #73C766",
"U+	c #39A170",
"V+	c #44A76F",
"W+	c #376F65",
"X+	c #73C364",
"Y+	c #53A567",
"Z+	c #389069",
"`+	c #80D262",
" @	c #40805E",
".@	c #356559",
"+@	c #80CE60",
"@@	c #5BAB66",
"#@	c #378163",
"$@	c #315957",
"%@	c #30394F",
"&@	c #30374F",
"*@	c #313D4F",
"=@	c #345E58",
"-@	c #398466",
";@	c #7FC75C",
">@	c #58925A",
",@	c #335B57",
"'@	c #304551",
")@	c #323B4E",
"!@	c #344D55",
"~@	c #37665F",
"{@	c #3B936C",
"]@	c #55B26D",
"^@	c #71B85E",
"/@	c #517D54",
"(@	c #3F5750",
"_@	c #4F7552",
":@	c #588453",
"<@	c #578353",
"[@	c #3D5450",
"}@	c #324053",
"|@	c #354F5C",
"1@	c #518061",
"2@	c #3A936C",
"3@	c #46A96F",
"4@	c #529F65",
"5@	c #406D57",
"6@	c #71AD57",
"7@	c #7FC55A",
"8@	c #71AE57",
"9@	c #4F7652",
"0@	c #344354",
"a@	c #354D5C",
"b@	c #57895F",
"c@	c #386F65",
"d@	c #39926C",
"e@	c #388F68",
"f@	c #4F7B54",
"g@	c #72B85D",
"h@	c #83CB5A",
"i@	c #69A156",
"j@	c #507856",
"k@	c #41625D",
"l@	c #8C6F75",
"m@	c #588B5F",
"n@	c #397164",
"o@	c #388F69",
"p@	c #346559",
"q@	c #3F6E58",
"r@	c #54A165",
"s@	c #6DC268",
"t@	c #85D661",
"u@	c #8CD95C",
"v@	c #84CC5A",
"w@	c #71AF5B",
"x@	c #527F5E",
"y@	c #69A55E",
"z@	c #528C62",
"A@	c #418D66",
"B@	c #399E6E",
"C@	c #367A60",
"D@	c #347960",
"E@	c #65B96D",
"F@	c #91D966",
"G@	c #7FC65E",
"H@	c #598B5F",
"I@	c #83CC5D",
"J@	c #72B35C",
"K@	c #50875A",
"L@	c #377A60",
"M@	c #3B9E6E",
"N@	c #3A976B",
"O@	c #36946B",
"P@	c #3A9E6E",
"Q@	c #74BE6F",
"R@	c #ABE56D",
"S@	c #B6F268",
"T@	c #80C65E",
"U@	c #93E05E",
"V@	c #82CA5A",
"W@	c #68A055",
"X@	c #57925A",
"Y@	c #59A866",
"Z@	c #54AC6B",
"`@	c #439B6A",
" #	c #338E68",
".#	c #378F68",
"+#	c #7AB66B",
"@#	c #B7E96E",
"##	c #C2F86C",
"$#	c #B18686",
"%#	c #9EE561",
"&#	c #8BD85C",
"*#	c #80C85C",
"=#	c #7FCD60",
"-#	c #72BC60",
";#	c #518D5C",
">#	c #306359",
",#	c #7AA260",
"'#	c #B7E46B",
")#	c #B1EE66",
"!#	c #A3E762",
"~#	c #94E05E",
"{#	c #82CB5A",
"]#	c #548052",
"^#	c #568153",
"/#	c #7FAC5A",
"(#	c #ADE066",
"_#	c #948183",
":#	c #927C7E",
"<#	c #91787B",
"[#	c #C5F96D",
"}#	c #C1F76C",
"|#	c #C1F76B",
"1#	c #9FE561",
"2#	c #7EC359",
"3#	c #7FC359",
"4#	c #8ACE5C",
"5#	c #9ADF60",
"6#	c #95E15F",
"7#	c #C4B0A7",
"8#	c #BFA59D",
"9#	c #BD9F97",
"0#	c #B28787",
"a#	c #C2F86B",
"b#	c #BAF369",
"c#	c #ACEC65",
"d#	c #8FDF5D",
"e#	c #83CC5A",
"f#	c #74B35C",
"g#	c #5A8D60",
"h#	c #D4B9AF",
"i#	c #D0AFA5",
"j#	c #A4E862",
"k#	c #8EDE5D",
"l#	c #598858",
"m#	c #5A9061",
"n#	c #CAA39C",
"o#	c #C89F99",
"p#	c #80CB62",
"q#	c #83CE61",
"r#	c #8CD95E",
"s#	c #71AE58",
"t#	c #507855",
"u#	c #42695A",
"v#	c #549264",
"w#	c #599E6B",
"x#	c #6AAC68",
"y#	c #4F7755",
"z#	c #3E5D59",
"A#	c #3B6D61",
"B#	c #45936A",
"C#	c #C39390",
"D#	c #3B7D70",
"E#	c #548C6C",
"F#	c #72B463",
"G#	c #7FC55D",
"H#	c #7FC45A",
"I#	c #354E5C",
"J#	c #45756C",
"K#	c #538364",
"L#	c #58895C",
"M#	c #578556",
"N#	c #558253",
"O#	c #568353",
"P#	c #324054",
"Q#	c #397165",
"R#	c #3F6767",
"S#	c #344755",
"T#	c #344655",
"U#	c #3A7468",
"V#	c #3B956D",
"W#	c #46766B",
"X#	c #385D65",
"Y#	c #324758",
"Z#	c #30384E",
"`#	c #303A4F",
" $	c #3B7A6D",
".$	c #3C976F",
"+$	c #56A56B",
"@$	c #56996B",
"#$	c #477F6E",
"$$	c #3A656A",
"%$	c #36515C",
"&$	c #3C9870",
"*$	c #47A46E",
"=$	c #47996F",
"-$	c #417F6F",
";$	c #385862",
">$	c #385962",
",$	c #3B7E70",
"'$	c #4DA272",
")$	c #385760",
"!$	c #46896E",
"~$	c #3F9A70",
"{$	c #68A077",
"]$	c #6A9D76",
"^$	c #3C696D",
"/$	c #3A6168",
"($	c #395D64",
"_$	c #5DAA6A",
":$	c #5CB26B",
"<$	c #5A9771",
"[$	c #40A46F",
"}$	c #47996E",
"|$	c #3D6D6F",
"1$	c #407E70",
"2$	c #75C765",
"  . + @ # @ @ @ @ $ % & & & & & & & & % $ @ @ $ % % $ @ @ @ @ @ @ @ @ @ @ @ @ @ @ @ @ @ @ @ @ @ @ @ @ @ @ @ @ @ @ # @ + .   * = ",
"- ; > , ' , , , , ) ! ~ ~ ~ ~ ~ ~ ~ ~ ! ) , , ) ! ! ) , , { ] ] { ' , , , , , , , , , , , , , , , , , , , , , , , ' , > ; - ^ / ",
"( _ : < < < < < < [ } | 1 | | | | 1 | } [ < < 2 } } 2 < < < < < < < < < < < < < < < < < < < < < < < < < < < < < < < < 3 4 5 6 7 ",
"8 : 9 0 a 0 0 0 0 b c d d d d d d d d c b 0 0 b c c b 0 0 0 0 0 0 0 0 0 0 0 0 0 0 0 0 0 0 0 0 0 0 0 0 0 0 0 0 0 0 a 0 9 : 8 + e ",
"] < 0 < < < < < < < < < < < < < < < < < < < < < < < < < < < < < < < < < < < < f g g h i g j k k k k k k j g l < < m n ] , o p q ",
"] < a < < < < < < < < < < < < < < < < < < < < < < < < < < < < < < < < < < < < g _ 4 g g 4 r s r r r r s r _ g < < n t u v w x q ",
"] < 0 < < < < < < < < < < < < < < < < < < < < < < < < < < < < < < < < < < < < g _ y z A y B C D D D D C B _ g < < E t F G H I q ",
"] < 0 < < < < < < < < < < < < < < < < < < < < < < < < < < < < < < < < < < < < h g A J J A K L M M M M L K g i < < m n N O P Q q ",
"] < 0 < < < < < < < < < < < < < < < < < < < < < < < < < < < < < < < < < < < < < < 2 } R 2 [ R | 1 1 | } [ < < < < < < h S T U q ",
"] < 0 < < < < < < < < < < < < < < < < < < < < < < < < < < < < < < < < < < < < < < V 2 2 V V W X X X X W V < < < < < < < h Y F q ",
"] < a < < < < < < < < < < < < < < < = = = = = = = = = = = = = = = = = = = = = = = = = = = = < < < < < < < < < < < < < a < ] # q ",
"] < 0 < < < < < < < < < < < < < = = Z ` = ` Z Z Z  .Z  . .Z ` = ` Z Z Z  .Z  . . .Z ` = ` Z = = < < < < < < < < < < < a < ] # q ",
"8 : 9 0 a 0 0 0 0 0 0 0 0 0 = = ` Z Z Z = Z Z Z Z Z Z Z Z Z Z = Z Z Z Z Z Z Z Z Z Z Z = Z Z Z ` = = 0 0 0 0 0 0 0 a 0 9 : 8 + e ",
"( _ : < < < < < < < < < < = `  . .Z Z Z = Z Z Z Z Z Z Z Z Z Z = Z Z Z Z Z Z Z Z Z Z Z = Z Z Z  . .` = < < < < < < < < : _ ( . 7 ",
"..; > , , , , , , , , , = `  .Z Z Z Z ` = ` Z Z Z Z Z Z Z Z ` = ` Z Z Z Z Z Z Z Z Z ` = ` Z Z Z Z  .` = , , , , , ' , > ; - ^ / ",
"  . + @ # @ @ @ @ @ @ = `  .Z Z Z ` +.+.= +.+.+.+.+.+.+.+.+.+.= +.+.+.+.+.+.+.+.+.+.+.= +.+.` Z Z Z  .` = @ @ @ @ # @ + .   * = ",
"% & & & & % $ @ @ @ @ = Z Z Z Z ` +.+.@.= = = = = #.$.%.&.*.=.-.;.;.>.=.,.'.).!.= = = = @.+.+.` Z Z Z Z = % $ @ @ @ @ @ @ @ @ @ ",
"~.~ ~ ~ ~ ! ) , , , = ` Z Z Z ` +.+.= = = {.].= = ^./.(.*._.:.<.[.[.}.:.|.1.2.3.= ].{.= = = +.+.` Z Z Z ` = ) , , , , , ' { ] ] ",
"} | 1 1 | } [ < < < = Z Z Z Z +.+.= = = ].{.{.= = 4.5.6.=.7.8.9.0.0.9.8.:.=.a.b.= {.{.].= = = +.+.Z Z Z Z = [ < < < < < < < < < ",
"c d d d d c b 0 0 = ` Z Z Z ` +.= = = = = = = = = c.d.e.-.f.9.g.h.h.g.9.}.>.i.j.= = = = = = = = +.` Z Z Z ` = 0 0 0 0 0 0 0 0 0 ",
"< < < < < < < < < = Z Z Z Z +.+.= = ].{.{.].= = = k.l.m.n.o.p.q.r.r.q.p.s.t.u.v.= = = = = = = = +.+.Z Z Z Z = < < < < < < < < < ",
"< < < < < < < < < = Z Z Z Z +.= = ].{.{.{.{.= = = w.l.x.;.y.0.h.z.z.h.0.A.;.B.v.= = = {.{.{.].= = +.Z Z Z Z = < < < < < < < < < ",
"< < < < < < < < < = ` Z Z ` +.= = {.{.{.{.].= = = C.l.x.D.E.F.G.z.H.I.J.K.L.M.N.= = = ].{.{.{.= = +.` Z Z ` = < < < < < < < < < ",
"< < < < < < < < < = = = = = = = = = = = = = = = = C.l.O.P.Q.R.S.r.r.T.R.U.V.N.W.= = = = = = = = = = = = = = = < < < < < < < < < ",
"< < < < < < < < < = ` Z Z ` +.= = = ].{.{.{.].= = X.Y.Z.`. +z..+++@+#+$+%+&+*+=+= = ].{.{.].= = = +.` Z Z ` = < < < < < < < < < ",
"< < < < < < < < < = Z Z Z Z +.= -+;+= {.{.{.{.= = >+,+'+)+!+H.z.~+{+]+^+/+(+_+_+= = {.{.{.= ;+-+= +.Z Z Z Z = < < < < < < < < < ",
"< < < < < < < < < =  .Z Z Z +.= -+:+= {.{.{.{.= = <+[+}+0.|+1+2+%+3+*+=+4+5+6+6+= = {.{.{.= :+-+= +.Z Z Z  .= < < < < < < < < < ",
"< < < < < < < < < =  .Z Z Z +.= = = ].{.{.{.{.= = 7+8+9+0+a+@+{+/+b+c+d+e+f+g+g+= = {.{.{.].= = = +.Z Z Z  .= < < < < < < < < < ",
"0 0 0 0 0 0 0 0 0 = Z Z Z Z +.= ].{.{.{.{.{.].= = h+8.i+j+k+%+&+4+e+l+6+m+n+o+o+= = ].{.{.{.{.].= +.Z Z Z Z = 0 0 0 0 0 0 0 0 0 ",
"< < < < < < < < < =  .Z Z Z +.= = = = = = = = = = p+q+r+k+s+3+b+e+f+g+g+n+t+u+u+= = = = = = = = = +.Z Z Z  .= < < < < < < < < < ",
"{ ' , , , , , , , = Z Z Z Z +.= = = = = = = = = = }+v+w+x+y+4+e+m+z+u+u+u+u+o+o+= ].{.{.{.{.{.].= +.Z Z Z Z = , , , , , ' { ] ] ",
"@ @ @ @ @ @ @ @ @ = Z Z Z Z +.= ].{.{.{.{.].= = = 9+A+B+C+]+e+D+n+t+u+u+o+o+o+o+= {.{.{.{.{.{.{.= +.Z Z Z Z = @ @ @ @ @ @ @ @ @ ",
"  . + @ # @ @ $ % = Z Z Z Z +.= {.{.{.{.{.{.= = = o.E+F+G+&+H+I+J+z+g+g+g+g+n+t+= {.{.{.{.{.{.{.= +.Z Z Z Z = @ @ # @ + .   * = ",
"- ; > , ' , , ) ! = ` Z Z ` +.= ].{.{.{.{.].= = = y.K+L+M+(+N+g+O+P+6+l+l+6+m+n+= ].{.{.{.{.{.].= +.` Z Z ` = , , ' , > ; - ^ / ",
"( _ : < < < < 2 } = = = = = = = = = = = = = = = = o.Q+R+4+e+P+z+g+N+d+=+c+d+e+f+= = = = = = = = = = = = = = = < < < < : _ ( . 7 ",
"8 : 9 0 a 0 0 b c = ` Z Z ` +.= ].{.{.{.].= = = = o.S+R+e+T+z+t+g+H+*+U+*+*+V+5+= = = = ].{.{.].= +.` Z Z ` = 0 0 a 0 9 : 8 + e ",
"] < 0 < < < < < < = Z Z Z Z +.= {.{.{.{.{.= = = = o.W+R+6+I+t+z+X+Y+]+Z+]+]+3+(+= = = = {.{.{.{.= +.Z Z Z Z = < < < < a < ] # q ",
"] < a < < < < < < =  .Z Z Z +.= {.{.{.{.{.= = = = o.W+R+N+`+z+P+Y+ @.@x+#+.@%+&+= = = = {.{.{.{.= +.Z Z Z  .= < < < < a < ] # q ",
"] < 0 < < < < < < =  .Z Z Z +.= ].{.{.{.].= = :+:+y.W+R+N+`++@@@#@$@%@&@%@*@=@-@:+:+= = ].{.{.].= +.Z Z Z  .= 0 0 a 0 < h Y F q ",
"] < 0 < < < < < < = Z Z Z Z +.= = = = = = = = ;+:+o.W+R+N+I+;@>@,@'@H.)@)@H.!@~@:+;+= = = = = = = +.Z Z Z Z = < < < < h S T U q ",
"] < 0 < < < < < < =  .Z Z Z +.= = = = = = = = ;+:+9+S+{@]@T+^@/@(@_@:@<@_@[@}@|@:+;+= = = ].{.].= +.Z Z Z  .= , , ' , N O P Q q ",
"] < 0 < < < < < < = Z Z Z Z +.= = ].{.{.= = = ;+:+1@Q+2@3@e+4@5@_@6@7@7@8@9@0@a@:+;+= = = {.{.{.= +.Z Z Z Z = @ v # @ F U H I q ",
"] < a < < < < < < = Z Z Z Z +.= = {.{.{.= = = ;+:+b@c@d@d+d+e@#+f@g@O+J+h@i@j@k@:+;+= = = {.{.{.= +.Z Z Z Z = % l@@ @ u u w x q ",
"] < 0 < < < < < < = Z Z Z Z +.= = ].{.{.= = = ;+:+m@n@d@_+c+o@p@q@r@s@t@u@v@w@x@:+;+= = = ].{.].= +.Z Z Z Z = ! ) , , ] ' o p q ",
"8 : 9 0 a 0 0 0 0 = ` Z Z ` +.= = = = = = = = ;+:+y@z@A@M+B@&+C@D@/+E@F@X.>+G@H@:+;+= = = = = = = +.` Z Z ` = } W a 0 9 : 8 + e ",
"( _ : < < < < < < = = = = = = = ].{.{.{.].= = ;+:+I@J@K@L@&+M@N@O@P@Q@R@S@X.T@H@:+;+= = = = = = = = = = = = = c b a 0 3 4 5 6 7 ",
"- ; > , ' , , , , = ` Z Z ` +.= {.{.{.{.{.= = ;+:+U@V@W@X@Y@Z@`@ #.#+#@###C.G@m@:+;+= = ].{.].= = +.` Z Z ` = $#, , , > ; - ^ / ",
"  . + @ # @ @ @ @ = Z Z Z Z +.= {.{.{.{.{.= = ;+:+%#&#h@*#=#-#;#>#C+,#'###C.G@m@:+;+= = {.{.{.= = +.Z Z Z Z = @ @ # @ + .   * = ",
"@ @ @ @ @ @ @ @ @ =  .Z Z Z +.= ].{.{.{.].= = ;+:+)#C.!#X.~#{#W@]#^#/#(#S@X.T@m@:+;+= = ].{.].= = +.Z Z Z  .= _#:#& <#% $ @ @ @ ",
"{ ' , , , , , , , =  .Z Z Z +.= = = = = = = = ;+:+[#}#|#S@1#&#h@2#3#4#5#X.6#G@H@:+;+= = = = = = = +.Z Z Z  .= 7#8#~ 9#! ) { 0#] ",
"< < < < < < < < < = Z Z Z Z +.= ].{.{.{.].= = ;+:+a#a#|#b#c#C.!#1#>+d#d#u@e#f#g#:+;+= ].{.{.{.].= +.Z Z Z Z = h#i#1 | } [ < < < ",
"0 0 0 0 0 0 0 0 0 =  .Z Z Z +.= = = ].{.{.= = = = j#!#C.c#b#}###S@X.u+k#{#i@l#m#= = = {.{.].= = = +.Z Z Z  .= n#o#d d c b 0 0 0 ",
"< < < < < < < l g = Z Z Z Z +.= -+:+= {.{.= = = = p#q#r#X.S@####S@X.u@h@s#t#u#v#= = = {.{.= :+-+= +.Z Z Z Z = < < < < < < < < < ",
"< < < < < < < g _ = Z Z Z Z +.= -+;+= {.{.= = = = w#x#q#~#X.C.C.X.>+e#i@y#z#A#B#= = = {.{.= ;+-+= +.Z Z Z Z = C#< < < < < < < < ",
"< < < < < < < g _ = Z Z Z Z +.= = = ].{.].= = = = D#E#F#G#7@H#H#7@H#8@9@0@I#n@R+= = = ].{.].= = = +.Z Z Z Z = < < < < < < < < < ",
"< < < < < < < i g = ` Z Z ` +.= = = = = = = = = = D#J#K#L#M#N#N#O#O#_@[@P#0+Q#R+= = = = = = = = = +.` Z Z ` = < < < < < < < < < ",
"< < < < < < < < < = = = = = = = ].{.{.{.{.].= = = i.>.R#)+S#r.z.r.r.z.r.T#)+U#V#= = ].{.{.{.{.].= = = = = = = < < < < < < < < < ",
"< < < < < < < < < = ` Z Z ` +.= {.{.{.{.{.{.= = = a.=.W#X#Y#%@Z#%@%@`#*@g.`. $.$= = {.{.{.{.{.{.= +.` Z Z ` = < < < < < < < < < ",
"< < < < < < < < < = Z Z Z Z +.= ].{.{.{.{.].= = = +$@$#$$$%$G.S.r.r.S.G.%$$$D#&$= = {.{.{.{.{.{.= +.Z Z Z Z = < < < < < < < < < ",
"< < < < < < < < < =  .Z Z Z +.= = = = = = = = = = *$=$-$D.;$F.G.r.r.G.F.>$D.,$&$= = ].{.{.{.{.].= +.Z Z Z  .= < < < < < < < < < ",
"0 0 0 0 0 0 0 0 0 =  .Z Z Z +.= = = = = = = = = = '$j.i.:.R#)$g.h.h.g.)$R#:.!$~$= = = = = = = = = +.Z Z Z  .= 0 0 0 0 0 0 0 0 0 ",
"< < < < < < < < < = Z Z Z Z +.= ].{.{.{.].= = = = {$b.a.=.:.8.9.0.0.9.8.:.=.a.b.= = = = = = = = = +.Z Z Z Z = < < < < < < < < < ",
"{ ' , , , , , , , = ` Z Z ` +.= {.{.{.{.{.= = = = ]$*$+$@$#$^$/$($($/$^$#$@$_$:$= = = ].{.{.{.= = +.` Z Z ` = , , , , , ' { ] ] ",
"@ @ @ @ @ @ @ @ @ = +.+.+.+.@.= ].{.{.{.].= = = = <$[$*$}$-$|$^$n.n.^$|$1$}$:$2$= = = {.{.{.].= = @.+.+.+.+.= @ @ @ @ @ @ @ @ @ "};
