/* XPM */
static char * exit6_xpm[] = {
"64 64 455 2",
"  	c #7D5E6B",
". 	c #84636E",
"+ 	c #896972",
"@ 	c #8B6C73",
"# 	c #8B6C74",
"$ 	c #8C7076",
"% 	c #8F7679",
"& 	c #91797B",
"* 	c #735A68",
"= 	c #6E5967",
"- 	c #946672",
"; 	c #A4727A",
"> 	c #AD8082",
", 	c #B18786",
"' 	c #B18787",
") 	c #B48E8B",
"! 	c #BA9A93",
"~ 	c #BDA098",
"{ 	c #B18887",
"] 	c #B28887",
"^ 	c #7C5D6A",
"/ 	c #6C5866",
"( 	c #A5737B",
"_ 	c #B78285",
": 	c #C08E8C",
"< 	c #C39490",
"[ 	c #C69A94",
"} 	c #CBA59C",
"| 	c #CDAAA0",
"1 	c #CEAAA0",
"2 	c #C69A95",
"3 	c #C08F8D",
"4 	c #B88285",
"5 	c #A5747B",
"6 	c #85636E",
"7 	c #6D5967",
"8 	c #AE8183",
"9 	c #C3938F",
"0 	c #C49490",
"a 	c #C49590",
"b 	c #C59792",
"c 	c #C79B95",
"d 	c #C89D96",
"e 	c #6D5867",
"f 	c #C1928F",
"g 	c #BF8E8C",
"h 	c #C1918E",
"i 	c #C1928E",
"j 	c #BD8B8B",
"k 	c #BD8B8A",
"l 	c #C2928F",
"m 	c #BF918E",
"n 	c #B68B89",
"o 	c #A37D7F",
"p 	c #846870",
"q 	c #6D5866",
"r 	c #B37B81",
"s 	c #B37A81",
"t 	c #9C787C",
"u 	c #8B6D74",
"v 	c #8A6C73",
"w 	c #846871",
"x 	c #765F6A",
"y 	c #B98587",
"z 	c #C29491",
"A 	c #C29591",
"B 	c #B47E83",
"C 	c #B68286",
"D 	c #B78588",
"E 	c #B78B89",
"F 	c #8A6A72",
"G 	c #866670",
"H 	c #80626D",
"I 	c #755C69",
"J 	c #C9A39B",
"K 	c #C0928F",
"L 	c #C59D97",
"M 	c #C8A39B",
"N 	c #AF8384",
"O 	c #AA7B7F",
"P 	c #9B6F77",
"Q 	c #80616D",
"R 	c #CBA49C",
"S 	c #BD8989",
"T 	c #AB7B7F",
"U 	c #876670",
"V 	c #C49792",
"W 	c #C69B95",
"X 	c #C79D96",
"Y 	c #B08484",
"Z 	c #FBCAAE",
"` 	c #EDA799",
" .	c #FAEBCF",
"..	c #946572",
"+.	c #E28989",
"@.	c #D2727E",
"#.	c #8C8D70",
"$.	c #7E966E",
"%.	c #5A976F",
"&.	c #3C9A70",
"*.	c #3CA070",
"=.	c #45A76F",
"-.	c #54B16D",
";.	c #6CC168",
">.	c #84D461",
",.	c #8FDE5D",
"'.	c #8ECF62",
").	c #8DAE6C",
"!.	c #BA9A94",
"~.	c #AD707B",
"{.	c #926475",
"].	c #A0BD73",
"^.	c #88BB6C",
"/.	c #5F996D",
"(.	c #3B8970",
"_.	c #3B9A70",
":.	c #54B06D",
"<.	c #73C666",
"[.	c #8CDB5E",
"}.	c #90DF5D",
"|.	c #91DA60",
"1.	c #97D268",
"2.	c #95C370",
"3.	c #73BF66",
"4.	c #559A6D",
"5.	c #3A8870",
"6.	c #3A9970",
"7.	c #5AB46C",
"8.	c #80D162",
"9.	c #81AE76",
"0.	c #55AE6D",
"a.	c #46A06F",
"b.	c #3B9970",
"c.	c #5BB56B",
"d.	c #6CA676",
"e.	c #3CA370",
"f.	c #5FAF6E",
"g.	c #3AA270",
"h.	c #3AA370",
"i.	c #5CAE6B",
"j.	c #3A9F70",
"k.	c #8BDB5E",
"l.	c #80D163",
"m.	c #84D561",
"n.	c #5CA06B",
"o.	c #3B8870",
"p.	c #5BB56C",
"q.	c #3B9F6E",
"r.	c #39956B",
"s.	c #39916A",
"t.	c #3B936B",
"u.	c #54A66A",
"v.	c #73C365",
"w.	c #86A0A8",
"x.	c #5D7889",
"y.	c #459F6F",
"z.	c #38956B",
"A.	c #337760",
"B.	c #34665C",
"C.	c #366C62",
"D.	c #428567",
"E.	c #728896",
"F.	c #3BA370",
"G.	c #73C364",
"H.	c #53A567",
"I.	c #388263",
"J.	c #335B57",
"K.	c #344454",
"L.	c #364F5C",
"M.	c #386B65",
"N.	c #3B8A6C",
"O.	c #40805E",
"P.	c #345C56",
"Q.	c #324751",
"R.	c #344353",
"S.	c #386064",
"T.	c #3A756C",
"U.	c #80D263",
"V.	c #3A9269",
"W.	c #336459",
"X.	c #323E4F",
"Y.	c #323C4F",
"Z.	c #344554",
"`.	c #37515C",
" +	c #395A63",
".+	c #3B6469",
"++	c #389069",
"@+	c #326359",
"#+	c #323C4E",
"$+	c #323B4E",
"%+	c #385661",
"&+	c #395B63",
"*+	c #3B9670",
"=+	c #85D561",
"-+	c #385560",
";+	c #385660",
">+	c #5CB56B",
",+	c #6DC168",
"'+	c #345D57",
")+	c #324952",
"!+	c #323D4F",
"~+	c #3A9169",
"{+	c #334353",
"]+	c #354C59",
"^+	c #37515D",
"/+	c #38555F",
"(+	c #5CB66B",
"_+	c #324050",
":+	c #354857",
"<+	c #37525D",
"[+	c #344453",
"}+	c #36505C",
"|+	c #80CE60",
"1+	c #5BAA66",
"2+	c #325B57",
"3+	c #7FC85C",
"4+	c #59935A",
"5+	c #314752",
"6+	c #5CB66C",
"7+	c #7FC559",
"8+	c #588453",
"9+	c #313D4F",
"0+	c #2E354F",
"a+	c #30394F",
"b+	c #303A4F",
"c+	c #7FC45A",
"d+	c #588352",
"e+	c #30384F",
"f+	c #3A9670",
"g+	c #55B26D",
"h+	c #71B85E",
"i+	c #517D54",
"j+	c #3F5750",
"k+	c #4F7552",
"l+	c #578353",
"m+	c #3D5450",
"n+	c #324253",
"o+	c #354F5C",
"p+	c #46A96F",
"q+	c #529F65",
"r+	c #406E57",
"s+	c #4F7652",
"t+	c #71AD57",
"u+	c #7FC55A",
"v+	c #71AE57",
"w+	c #354E5C",
"x+	c #3CA470",
"y+	c #388F68",
"z+	c #356459",
"A+	c #507B54",
"B+	c #72B85E",
"C+	c #8CDB5F",
"D+	c #84CC5A",
"E+	c #6AA256",
"F+	c #507856",
"G+	c #3F605D",
"H+	c #8C6F75",
"I+	c #54AE6D",
"J+	c #388F69",
"K+	c #346559",
"L+	c #406F58",
"M+	c #54A165",
"N+	c #5BB66C",
"O+	c #5DB76C",
"P+	c #6DC268",
"Q+	c #8CD95C",
"R+	c #71B05B",
"S+	c #527F5E",
"T+	c #5AAB68",
"U+	c #3B996D",
"V+	c #3A9F6F",
"W+	c #3A966B",
"X+	c #377A60",
"Y+	c #36725D",
"Z+	c #388664",
"`+	c #54AD6B",
" @	c #72BD60",
".@	c #8BD85C",
"+@	c #84CD5D",
"@@	c #6BA65F",
"#@	c #599762",
"$@	c #3A8068",
"%@	c #3A976D",
"&@	c #388665",
"*@	c #35725D",
"=@	c #357960",
"-@	c #429A69",
";@	c #518C5C",
">@	c #8CD95D",
",@	c #84CE5E",
"'@	c #57895F",
")@	c #376762",
"!@	c #378266",
"~@	c #3A976B",
"{@	c #377B60",
"]@	c #36745E",
"^@	c #388765",
"/@	c #368063",
"(@	c #345E57",
"_@	c #7FC459",
":@	c #B18686",
"<@	c #588A5F",
"[@	c #37585E",
"}@	c #345F5B",
"|@	c #315956",
"1@	c #314751",
"2@	c #568153",
"3@	c #90E05D",
"4@	c #69A55E",
"5@	c #517D5C",
"6@	c #3F5C57",
"7@	c #35605A",
"8@	c #388264",
"9@	c #2F384F",
"0@	c #7EC359",
"a@	c #8FDF5D",
"b@	c #948183",
"c@	c #927C7E",
"d@	c #91787B",
"e@	c #83CC5D",
"f@	c #72B15D",
"g@	c #517C5C",
"h@	c #36555B",
"i@	c #345E5A",
"j@	c #356659",
"k@	c #334A52",
"l@	c #30374F",
"m@	c #C4B0A7",
"n@	c #BFA59D",
"o@	c #BD9F97",
"p@	c #B28787",
"q@	c #94E05E",
"r@	c #7FC65E",
"s@	c #354D5C",
"t@	c #2F3D54",
"u@	c #3A5150",
"v@	c #4E7452",
"w@	c #71A557",
"x@	c #94D35F",
"y@	c #9FE661",
"z@	c #95E15F",
"A@	c #D4B9AF",
"B@	c #D0AFA5",
"C@	c #9EE561",
"D@	c #80C75E",
"E@	c #598B5F",
"F@	c #37505C",
"G@	c #324054",
"H@	c #B3EC67",
"I@	c #B6F168",
"J@	c #9FE561",
"K@	c #CAA39C",
"L@	c #C89F99",
"M@	c #A3E762",
"N@	c #68A55E",
"O@	c #57885C",
"P@	c #558356",
"Q@	c #558253",
"R@	c #548153",
"S@	c #568353",
"T@	c #B1EE67",
"U@	c #C6FA6D",
"V@	c #C2F86B",
"W@	c #A4E862",
"X@	c #A4E863",
"Y@	c #8BD85D",
"Z@	c #7FC55D",
"`@	c #7FC45B",
" #	c #CCFE6F",
".#	c #C39390",
"+#	c #B1EE66",
"@#	c #A2E762",
"##	c #A3E763",
"$#	c #95E15E",
"%#	c #B5F168",
"&#	c #B4ED69",
"*#	c #95D665",
"=#	c #C5F96D",
"-#	c #C1F76B",
";#	c #C1F86B",
">#	c #C1F86C",
",#	c #C2F86C",
"'#	c #B6F268",
")#	c #74B069",
"!#	c #CCFD6F",
"~#	c #D0FF70",
"{#	c #8CDA5E",
"]#	c #84CF61",
"^#	c #73B666",
"/#	c #558C6D",
"(#	c #C5FA6D",
"_#	c #B0EE66",
":#	c #8EDE5D",
"<#	c #83CE61",
"[#	c #6BAC68",
"}#	c #538C6D",
"|#	c #44776F",
"1#	c #B3EE69",
"2#	c #83CB5A",
"3#	c #73B463",
"4#	c #558C6C",
"5#	c #3D7270",
"6#	c #3C7970",
"7#	c #94DB65",
"8#	c #A3E862",
"9#	c #69A156",
"0#	c #588556",
"a#	c #58885C",
"b#	c #538464",
"c#	c #45756C",
"d#	c #3C8D70",
"e#	c #7CC568",
"f#	c #80CF62",
"g#	c #80CB62",
"h#	c #80C862",
"i#	c #80C961",
"j#	c #7FC75F",
"k#	c #507956",
"l#	c #354C58",
"m#	c #375560",
"n#	c #3A6168",
"o#	c #3C6A6D",
"p#	c #3D7E70",
"q#	c #3C9770",
"r#	c #76AE74",
"s#	c #5AAD6B",
"t#	c #5A9F6B",
"u#	c #5A966B",
"v#	c #5A956B",
"w#	c #5A9368",
"x#	c #5A8E63",
"y#	c #527E5E",
"z#	c #41625D",
"A#	c #365460",
"B#	c #386068",
"C#	c #3B676D",
"D#	c #3C6C6F",
"E#	c #3D7F70",
"F#	c #3C9870",
"G#	c #6A9D76",
"H#	c #3C9B70",
"I#	c #3D8A70",
"J#	c #3D7B70",
"K#	c #3A6268",
"L#	c #395D64",
"M#	c #599671",
"N#	c #3AA070",
"O#	c #3B8D70",
"P#	c #3B7970",
"Q#	c #3B6A6F",
"R#	c #3A676D",
"S#	c #3A676C",
"T#	c #3B686C",
"U#	c #3D6D6F",
"V#	c #3C8E70",
"  . + @ # @ @ @ @ $ % & & & & & & & & % $ @ @ $ % % $ @ @ @ @ @ @ @ @ @ @ @ @ @ @ @ @ @ @ @ @ @ @ @ @ @ @ @ @ @ @ # @ + .   * = ",
"- ; > , ' , , , , ) ! ~ ~ ~ ~ ~ ~ ~ ~ ! ) , , ) ! ! ) , , { ] ] { ' , , , , , , , , , , , , , , , , , , , , , , , ' , > ; - ^ / ",
"( _ : < < < < < < [ } | 1 | | | | 1 | } [ < < 2 } } 2 < < < < < < < < < < < < < < < < < < < < < < < < < < < < < < < < 3 4 5 6 7 ",
"8 : 9 0 a 0 0 0 0 b c d d d d d d d d c b 0 0 b c c b 0 0 0 0 0 0 0 0 0 0 0 0 0 0 0 0 0 0 0 0 0 0 0 0 0 0 0 0 0 0 a 0 9 : 8 + e ",
"] < 0 < < < < < < < < < < < < < < < < < < < < < < < < < < < < < < < < < < < < f g g h i g j k k k k k k j g l < < m n ] , o p q ",
"] < a < < < < < < < < < < < < < < < < < < < < < < < < < < < < < < < < < < < < g _ 4 g g 4 r s r r r r s r _ g < < n t u v w x q ",
"] < 0 < < < < < < < < < < < < < < < < < < < < < < < < < < < < < < < < < < < < g _ y z A y B C D D D D C B _ g < < E t F G H I q ",
"] < 0 < < < < < < < < < < < < < < < < < < < < < < < < < < < < < < < < < < < < h g A J J A K L M M M M L K g i < < m n N O P Q q ",
"] < 0 < < < < < < < < < < < < < < < < < < < < < < < < < < < < < < < < < < < < < < 2 } R 2 [ R | 1 1 | } [ < < < < < < h S T U q ",
"] < 0 < < < < < < < < < < < < < < < < < < < < < < < < < < < < < < < < < < < < < < V 2 2 V V W X X X X W V < < < < < < < h Y F q ",
"] < a < < < < < < < < < < < < < < < = = = = = = = = = = = = = = = = = = = = = = = = = = = = < < < < < < < < < < < < < a < ] # q ",
"] < 0 < < < < < < < < < < < < < = = Z ` = ` Z Z Z  .Z  . .Z ` = ` Z Z Z  .Z  . . .Z ` = ` Z = = < < < < < < < < < < < a < ] # q ",
"8 : 9 0 a 0 0 0 0 0 0 0 0 0 = = ` Z Z Z = Z Z Z Z Z Z Z Z Z Z = Z Z Z Z Z Z Z Z Z Z Z = Z Z Z ` = = 0 0 0 0 0 0 0 a 0 9 : 8 + e ",
"( _ : < < < < < < < < < < = `  . .Z Z Z = Z Z Z Z Z Z Z Z Z Z = Z Z Z Z Z Z Z Z Z Z Z = Z Z Z  . .` = < < < < < < < < : _ ( . 7 ",
"..; > , , , , , , , , , = `  .Z Z Z Z ` = ` Z Z Z Z Z Z Z Z ` = ` Z Z Z Z Z Z Z Z Z ` = ` Z Z Z Z  .` = , , , , , ' , > ; - ^ / ",
"  . + @ # @ @ @ @ @ @ = `  .Z Z Z ` +.+.= +.+.+.+.+.+.+.+.+.+.= +.+.+.+.+.+.+.+.+.+.+.= +.+.` Z Z Z  .` = @ @ @ @ # @ + .   * = ",
"% & & & & % $ @ @ @ @ = Z Z Z Z ` +.+.@.= = = = = #.$.%.&.*.=.-.;.>.,.,.,.,.'.).= = = = @.+.+.` Z Z Z Z = % $ @ @ @ @ @ @ @ @ @ ",
"!.~ ~ ~ ~ ! ) , , , = ` Z Z Z ` +.+.= = = ~.{.= = ].^./.(._.:.<.>.[.}.}.}.}.|.1.= {.~.= = = +.+.` Z Z Z ` = ) , , , , , ' { ] ] ",
"} | 1 1 | } [ < < < = Z Z Z Z +.+.= = = {.~.~.= = 2.3.4.5.6.7.8.,.}.,.,.,.,.,.,.= ~.~.{.= = = +.+.Z Z Z Z = [ < < < < < < < < < ",
"c d d d d c b 0 0 = ` Z Z Z ` +.= = = = = = = = = 9.0.a.b.*.c.8.,.}.,.,.,.,.,.,.= = = = = = = = +.` Z Z Z ` = 0 0 0 0 0 0 0 0 0 ",
"< < < < < < < < < = Z Z Z Z +.+.= = {.~.~.{.= = = d.e.e.=.:.;.>.,.}.}.}.}.}.,.,.= = = = = = = = +.+.Z Z Z Z = < < < < < < < < < ",
"< < < < < < < < < = Z Z Z Z +.= = {.~.~.~.~.= = = f.g.h.-.<.>.[.,.,.,.,.,.,.,.,.= = = ~.~.~.{.= = +.Z Z Z Z = < < < < < < < < < ",
"< < < < < < < < < = ` Z Z ` +.= = ~.~.~.~.{.= = = i.b.j.c.8.,.}.k.>.8.l.l.l.m.[.= = = {.~.~.~.= = +.` Z Z ` = < < < < < < < < < ",
"< < < < < < < < < = = = = = = = = = = = = = = = = n.o.b.c.8.}.}.>.;.c.7.7.c.;.>.= = = = = = = = = = = = = = = < < < < < < < < < ",
"< < < < < < < < < = ` Z Z ` +.= = = {.~.~.~.{.= = 4.5.6.7.8.}.}.8.p.q.r.s.t.u.v.= = {.~.~.{.= = = +.` Z Z ` = < < < < < < < < < ",
"< < < < < < < < < = Z Z Z Z +.= w.x.= ~.~.~.~.= = y.b.*.c.8.}.}.l.7.z.A.B.C.D.u.= = ~.~.~.= x.w.= +.Z Z Z Z = < < < < < < < < < ",
"< < < < < < < < < =  .Z Z Z +.= w.E.= ~.~.~.~.= = F.=.:.;.>.[.m.G.H.I.J.K.L.M.N.= = ~.~.~.= E.w.= +.Z Z Z  .= < < < < < < < < < ",
"< < < < < < < < < =  .Z Z Z +.= = = {.~.~.~.~.= = F.-.<.m.[.m.;.H.O.P.Q.R.L.S.T.= = ~.~.~.{.= = = +.Z Z Z  .= < < < < < < < < < ",
"0 0 0 0 0 0 0 0 0 = Z Z Z Z +.= {.~.~.~.~.~.{.= = *.c.8.}.}.U.p.V.W.X.Y.Z.`. +.+= = {.~.~.~.~.{.= +.Z Z Z Z = 0 0 0 0 0 0 0 0 0 ",
"< < < < < < < < < =  .Z Z Z +.= = = = = = = = = = _.c.8.}.}.l.7.++@+#+$+Z.`.%+&+= = = = = = = = = +.Z Z Z  .= < < < < < < < < < ",
"{ ' , , , , , , , = Z Z Z Z +.= = = = = = = = = = *+c.8.[.=+G.H.I.J.X.Y.Z.`.-+;+= {.~.~.~.~.~.{.= +.Z Z Z Z = , , , , , ' { ] ] ",
"@ @ @ @ @ @ @ @ @ = Z Z Z Z +.= {.~.~.~.~.{.= = = *+>+8.m.,+H.O.'+)+X.!+Z.`.-+;+= ~.~.~.~.~.~.~.= +.Z Z Z Z = @ @ @ @ @ @ @ @ @ ",
"  . + @ # @ @ $ % = Z Z Z Z +.= ~.~.~.~.~.~.= = = *+>+8.l.>+~+W.X.Y.X.X.{+]+^+/+= ~.~.~.~.~.~.~.= +.Z Z Z Z = @ @ # @ + .   * = ",
"- ; > , ' , , ) ! = ` Z Z ` +.= {.~.~.~.~.{.= = = *+(+8.l.c.++@+Y.$+X.X._+{+:+<+= {.~.~.~.~.~.{.= +.` Z Z ` = , , ' , > ; - ^ / ",
"( _ : < < < < 2 } = = = = = = = = = = = = = = = = *+>+8.l.(+V.W.X.Y.X.X.X.X.K.`.= = = = = = = = = = = = = = = < < < < : _ ( . 7 ",
"8 : 9 0 a 0 0 b c = ` Z Z ` +.= {.~.~.~.{.= = = = *+>+8.l.>+~+W.X.Y.X.X.X.X.[+}+= = = = {.~.~.{.= +.` Z Z ` = 0 0 a 0 9 : 8 + e ",
"] < 0 < < < < < < = Z Z Z Z +.= ~.~.~.~.~.= = = = *+(+8.|+1+I.2+X.Y.X.X.X.X.Z.`.= = = = ~.~.~.~.= +.Z Z Z Z = < < < < a < ] # q ",
"] < a < < < < < < =  .Z Z Z +.= ~.~.~.~.~.= = = = *+(+8.3+4+'+5+X.!+X.X.X.X.Z.`.= = = = ~.~.~.~.= +.Z Z Z  .= < < < < a < ] # q ",
"] < 0 < < < < < < =  .Z Z Z +.= {.~.~.~.{.= = E.E.*+6+8.7+8+9+0+a+a+a+a+b+9+Z.`.E.E.= = {.~.~.{.= +.Z Z Z  .= 0 0 a 0 < h Y F q ",
"] < 0 < < < < < < = Z Z Z Z +.= = = = = = = = x.E.*+6+8.c+d+Y.e+X.X.X.X.X.X.Z.`.E.x.= = = = = = = +.Z Z Z Z = < < < < h S T U q ",
"] < 0 < < < < < < =  .Z Z Z +.= = = = = = = = x.E.f+g+<.h+i+j+k+8+8+8+l+k+m+n+o+E.x.= = = {.~.{.= +.Z Z Z  .= , , ' , N O P Q q ",
"] < 0 < < < < < < = Z Z Z Z +.= = {.~.~.= = = x.E.*+p+-.q+r+s+t+c+u+u+c+v+s+Z.w+E.x.= = = ~.~.~.= +.Z Z Z Z = @ v # @ F U H I q ",
"] < a < < < < < < = Z Z Z Z +.= = ~.~.~.= = = x.E.y.x+e.y+z+A+B+l.U.=+C+D+E+F+G+E.x.= = = ~.~.~.= +.Z Z Z Z = % H+@ @ u u w x q ",
"] < 0 < < < < < < = Z Z Z Z +.= = {.~.~.= = = x.E.I+e.g.J+K+L+M+N+O+P+=+Q+D+R+S+E.x.= = = {.~.{.= +.Z Z Z Z = ! ) , , ] ' o p q ",
"8 : 9 0 a 0 0 0 0 = ` Z Z ` +.= = = = = = = = x.E.T+U+V+W+X+Y+Z+r.q.`+ @D+.@+@@@E.x.= = = = = = = +.` Z Z ` = } W a 0 9 : 8 + e ",
"( _ : < < < < < < = = = = = = = {.~.~.~.{.= = x.E.#@$@%@q.W+&@*@=@z.-@;@E+D+>@,@E.x.= = = = = = = = = = = = = c b a 0 3 4 5 6 7 ",
"- ; > , ' , , , , = ` Z Z ` +.= ~.~.~.~.~.= = x.E.'@)@!@~@q.W+{@]@^@/@(@l+_@}.}.E.x.= = {.~.{.= = +.` Z Z ` = :@, , , > ; - ^ / ",
"  . + @ # @ @ @ @ = Z Z Z Z +.= ~.~.~.~.~.= = x.E.<@[@}@X+~@q.W+^@Y+|@1@2@_@}.3@E.x.= = ~.~.~.= = +.Z Z Z Z = @ @ # @ + .   * = ",
"@ @ @ @ @ @ @ @ @ =  .Z Z Z +.= {.~.~.~.{.= = x.E.4@5@6@7@8@V.V.I.'+9@a+2@0@a@a@E.x.= = {.~.{.= = +.Z Z Z  .= b@c@& d@% $ @ @ @ ",
"{ ' , , , , , , , =  .Z Z Z +.= = = = = = = = x.E.e@f@g@h@i@j@j@(@k@l@!+l+c+}.}.E.x.= = = = = = = +.Z Z Z  .= m@n@~ o@! ) { p@] ",
"< < < < < < < < < = Z Z Z Z +.= {.~.~.~.{.= = x.E.q@r@<@s@t@a+a+9@a+u@v@w@x@y@z@E.x.= {.~.~.~.{.= +.Z Z Z Z = A@B@1 | } [ < < < ",
"0 0 0 0 0 0 0 0 0 =  .Z Z Z +.= = = {.~.~.= = = = C@D@E@F@G@Y.$+a+!+v@v+x@H@I@J@= = = ~.~.{.= = = +.Z Z Z  .= K@L@d d c b 0 0 0 ",
"< < < < < < < l g = Z Z Z Z +.= w.E.= ~.~.= = = = M@e@N@O@P@Q@Q@R@S@w@x@T@U@V@W@= = = ~.~.= E.w.= +.Z Z Z Z = < < < < < < < < < ",
"< < < < < < < g _ = Z Z Z Z +.= w.x.= ~.~.= = = = X@Y@e@Z@`@c+c+0@c+x@H@U@ #V@M@= = = ~.~.= x.w.= +.Z Z Z Z = .#< < < < < < < < ",
"< < < < < < < g _ = Z Z Z Z +.= = = {.~.{.= = = = +#M@@#M@M@M@##C@$#C@%#V@V@&#*#= = = {.~.{.= = = +.Z Z Z Z = < < < < < < < < < ",
"< < < < < < < i g = ` Z Z ` +.= = = = = = = = = = =#-#-#;#>#,#>#'#y@z@C@W@M@*#)#= = = = = = = = = +.` Z Z ` = < < < < < < < < < ",
"< < < < < < < < < = = = = = = = {.~.~.~.~.{.= = = !#~#~#~#~#!#=#I@C@}.a@{#]#^#/#= = {.~.~.~.~.{.= = = = = = = < < < < < < < < < ",
"< < < < < < < < < = ` Z Z ` +.= ~.~.~.~.~.~.= = = =#~#~#~#~#(#_#J@q@,.:#<#[#}#|#= = ~.~.~.~.~.~.= +.` Z Z ` = < < < < < < < < < ",
"< < < < < < < < < = Z Z Z Z +.= {.~.~.~.~.{.= = = 1#-#V@V@;#'#y@.@2#u+Z@3#4#5#6#= = ~.~.~.~.~.~.= +.Z Z Z Z = < < < < < < < < < ",
"< < < < < < < < < =  .Z Z Z +.= = = = = = = = = = 7#M@8#M@M@C@q@2#9#0#a#b#c#6#d#= = {.~.~.~.~.{.= +.Z Z Z  .= < < < < < < < < < ",
"0 0 0 0 0 0 0 0 0 =  .Z Z Z +.= = = = = = = = = = e#f#g#h#h#i#j#R+k#l#m#n#o#p#q#= = = = = = = = = +.Z Z Z  .= 0 0 0 0 0 0 0 0 0 ",
"< < < < < < < < < = Z Z Z Z +.= {.~.~.~.{.= = = = r#s#t#u#v#w#x#y#z#A#B#C#D#E#F#= = = = = = = = = +.Z Z Z Z = < < < < < < < < < ",
"{ ' , , , , , , , = ` Z Z ` +.= ~.~.~.~.~.= = = = G#H#I#J#5#o#K#L#L#K#o#5#J#I#H#= = = {.~.~.~.= = +.` Z Z ` = , , , , , ' { ] ] ",
"@ @ @ @ @ @ @ @ @ = +.+.+.+.@.= {.~.~.~.{.= = = = M#N#b.O#P#Q#R#S#T#o#U#J#V#H#*.= = = ~.~.~.{.= = @.+.+.+.+.= @ @ @ @ @ @ @ @ @ "};
