/* XPM */
static char * exit2_xpm[] = {
"64 64 470 2",
"  	c #7D5E6B",
". 	c #84636E",
"+ 	c #896972",
"@ 	c #8B6C73",
"# 	c #8B6C74",
"$ 	c #8C7076",
"% 	c #8F7679",
"& 	c #91797B",
"* 	c #735A68",
"= 	c #6E5967",
"- 	c #946672",
"; 	c #A4727A",
"> 	c #AD8082",
", 	c #B18786",
"' 	c #B18787",
") 	c #B48E8B",
"! 	c #BA9A93",
"~ 	c #BDA098",
"{ 	c #B18887",
"] 	c #B28887",
"^ 	c #7C5D6A",
"/ 	c #6C5866",
"( 	c #A5737B",
"_ 	c #B78285",
": 	c #C08E8C",
"< 	c #C39490",
"[ 	c #C69A94",
"} 	c #CBA59C",
"| 	c #CDAAA0",
"1 	c #CEAAA0",
"2 	c #C69A95",
"3 	c #C08F8D",
"4 	c #B88285",
"5 	c #A5747B",
"6 	c #85636E",
"7 	c #6D5967",
"8 	c #AE8183",
"9 	c #C3938F",
"0 	c #C49490",
"a 	c #C49590",
"b 	c #C59792",
"c 	c #C79B95",
"d 	c #C89D96",
"e 	c #6D5867",
"f 	c #C1928F",
"g 	c #BF8E8C",
"h 	c #C1918E",
"i 	c #C1928E",
"j 	c #BD8B8B",
"k 	c #BD8B8A",
"l 	c #C2928F",
"m 	c #BF918E",
"n 	c #B68B89",
"o 	c #A37D7F",
"p 	c #846870",
"q 	c #6D5866",
"r 	c #B37B81",
"s 	c #B37A81",
"t 	c #9C787C",
"u 	c #8B6D74",
"v 	c #8A6C73",
"w 	c #846871",
"x 	c #765F6A",
"y 	c #B98587",
"z 	c #C29491",
"A 	c #C29591",
"B 	c #B47E83",
"C 	c #B68286",
"D 	c #B78588",
"E 	c #B78B89",
"F 	c #8A6A72",
"G 	c #866670",
"H 	c #80626D",
"I 	c #755C69",
"J 	c #C9A39B",
"K 	c #C0928F",
"L 	c #C59D97",
"M 	c #C8A39B",
"N 	c #AF8384",
"O 	c #AA7B7F",
"P 	c #9B6F77",
"Q 	c #80616D",
"R 	c #CBA49C",
"S 	c #BD8989",
"T 	c #AB7B7F",
"U 	c #876670",
"V 	c #C49792",
"W 	c #C69B95",
"X 	c #C79D96",
"Y 	c #B08484",
"Z 	c #FBCAAE",
"` 	c #EDA799",
" .	c #FAEBCF",
"..	c #946572",
"+.	c #E28989",
"@.	c #D2727E",
"#.	c #8C8D70",
"$.	c #7E976E",
"%.	c #5A986F",
"&.	c #3C8E70",
"*.	c #3C7B70",
"=.	c #3D6D6F",
"-.	c #3C6A6D",
";.	c #3C696C",
">.	c #3D7B70",
",.	c #529171",
"'.	c #708773",
").	c #BA9A94",
"!.	c #AD707B",
"~.	c #926475",
"{.	c #A0BD73",
"].	c #88BC6C",
"^.	c #5E986D",
"/.	c #3C7A70",
"(.	c #3B7170",
"_.	c #3C696D",
":.	c #3A6168",
"<.	c #395D64",
"[.	c #3D7270",
"}.	c #3D7A70",
"|.	c #4B8771",
"1.	c #639776",
"2.	c #95C370",
"3.	c #73BD66",
"4.	c #55916D",
"5.	c #3B686D",
"6.	c #3A6368",
"7.	c #385760",
"8.	c #36505C",
"9.	c #3D7F70",
"0.	c #3C9770",
"a.	c #81AE76",
"b.	c #55A76D",
"c.	c #47866F",
"d.	c #3A6068",
"e.	c #354C58",
"f.	c #344553",
"g.	c #3C9870",
"h.	c #6CA576",
"i.	c #3C7F70",
"j.	c #395C65",
"k.	c #37515C",
"l.	c #344554",
"m.	c #323E4F",
"n.	c #3B676C",
"o.	c #3B7D70",
"p.	c #3B9770",
"q.	c #5FAF6E",
"r.	c #3B7E70",
"s.	c #395C64",
"t.	c #323D4F",
"u.	c #5CB56B",
"v.	c #3B686B",
"w.	c #385962",
"x.	c #354C59",
"y.	c #334352",
"z.	c #313D4F",
"A.	c #303A4F",
"B.	c #303D52",
"C.	c #334859",
"D.	c #416660",
"E.	c #548868",
"F.	c #5B9F6B",
"G.	c #5CAE6C",
"H.	c #3B656A",
"I.	c #36515C",
"J.	c #334353",
"K.	c #323F50",
"L.	c #313C50",
"M.	c #507A58",
"N.	c #72B25F",
"O.	c #80CB62",
"P.	c #80CF63",
"Q.	c #55B16D",
"R.	c #3C976F",
"S.	c #3B7B6D",
"T.	c #396066",
"U.	c #354B58",
"V.	c #313B4F",
"W.	c #3D5450",
"X.	c #4F7552",
"Y.	c #568153",
"Z.	c #578353",
"`.	c #69A156",
" +	c #83CB5A",
".+	c #8EDE5D",
"++	c #8FDE5D",
"@+	c #86A0A8",
"#+	c #5D7889",
"$+	c #46A86F",
"%+	c #3B956D",
"&+	c #3A7468",
"*+	c #38565F",
"=+	c #344655",
"-+	c #4F7652",
";+	c #71AE57",
">+	c #7FC45A",
",+	c #7FC55A",
"'+	c #8BD85C",
")+	c #90DF5D",
"!+	c #728896",
"~+	c #3C9B70",
"{+	c #3B8A6C",
"]+	c #396C65",
"^+	c #364F5C",
"/+	c #324154",
"(+	c #3C5250",
"_+	c #94E05E",
":+	c #9EE561",
"<+	c #A3E762",
"[+	c #3C8970",
"}+	c #3C766C",
"|+	c #396264",
"1+	c #354E5C",
"2+	c #344454",
"3+	c #83CC5B",
"4+	c #8CD95C",
"5+	c #8FDF5D",
"6+	c #9EE661",
"7+	c #B6F168",
"8+	c #C1F76B",
"9+	c #C1F76C",
"0+	c #3C7C6D",
"a+	c #3A6268",
"b+	c #385660",
"c+	c #405F5A",
"d+	c #507855",
"e+	c #A2E762",
"f+	c #B0EE66",
"g+	c #C5F96D",
"h+	c #CFFF70",
"i+	c #375560",
"j+	c #71AE58",
"k+	c #CCFD6F",
"l+	c #D0FF70",
"m+	c #396C64",
"n+	c #344C5C",
"o+	c #324153",
"p+	c #558153",
"q+	c #7EC359",
"r+	c #93E05E",
"s+	c #344D5C",
"t+	c #344453",
"u+	c #568353",
"v+	c #7FC559",
"w+	c #B6F268",
"x+	c #40625D",
"y+	c #507956",
"z+	c #70A457",
"A+	c #94D35F",
"B+	c #C6FA6D",
"C+	c #507E5E",
"D+	c #71B05B",
"E+	c #B3EC67",
"F+	c #CCFE6F",
"G+	c #588B5F",
"H+	c #7FC65E",
"I+	c #C1F86B",
"J+	c #80C75E",
"K+	c #A4E863",
"L+	c #C2F86C",
"M+	c #B1EE66",
"N+	c #82CB5A",
"O+	c #83CC5A",
"P+	c #68A055",
"Q+	c #9FE561",
"R+	c #71AD57",
"S+	c #4E7451",
"T+	c #323C4F",
"U+	c #30384E",
"V+	c #30394F",
"W+	c #4F7653",
"X+	c #71AF5A",
"Y+	c #598B5F",
"Z+	c #95E15F",
"`+	c #9FE661",
" @	c #71A557",
".@	c #3B5150",
"+@	c #2F384F",
"@@	c #2F374F",
"#@	c #3D5654",
"$@	c #517C5B",
"%@	c #396265",
"&@	c #324A52",
"*@	c #315957",
"=@	c #336559",
"-@	c #346559",
";@	c #345C56",
">@	c #334951",
",@	c #324054",
"'@	c #386B65",
")@	c #335B56",
"!@	c #357F63",
"~@	c #3A9269",
"{@	c #388263",
"]@	c #345D57",
"^@	c #314054",
"/@	c #354D5C",
"(@	c #376E65",
"_@	c #5A8B5F",
":@	c #80C65E",
"<@	c #90E05D",
"[@	c #3F6C57",
"}@	c #519F65",
"|@	c #54B16D",
"1@	c #46A96F",
"2@	c #3A966B",
"3@	c #367960",
"4@	c #345F5B",
"5@	c #37595E",
"6@	c #8C6F75",
"7@	c #377065",
"8@	c #517D54",
"9@	c #71B85E",
"0@	c #73C767",
"a@	c #55B26D",
"b@	c #3B9F6E",
"c@	c #39966B",
"d@	c #378366",
"e@	c #386962",
"f@	c #438666",
"g@	c #528C62",
"h@	c #71B25C",
"i@	c #84CC5A",
"j@	c #8CD85C",
"k@	c #6AA356",
"l@	c #6BA356",
"m@	c #80D162",
"n@	c #5CB66C",
"o@	c #3CA470",
"p@	c #3AA270",
"q@	c #39926C",
"r@	c #397164",
"s@	c #54A66A",
"t@	c #428E66",
"u@	c #50875A",
"v@	c #69A256",
"w@	c #8BD75C",
"x@	c #84CC5B",
"y@	c #3AA370",
"z@	c #39936C",
"A@	c #397165",
"B@	c #5AB46C",
"C@	c #37946B",
"D@	c #337760",
"E@	c #508C5C",
"F@	c #72BC60",
"G@	c #7FCD60",
"H@	c #80C85C",
"I@	c #7FC459",
"J@	c #7FC359",
"K@	c #53AC6B",
"L@	c #3BA370",
"M@	c #B18686",
"N@	c #5BB56C",
"O@	c #3A9E6E",
"P@	c #439B6A",
"Q@	c #54AC6B",
"R@	c #5AAA66",
"S@	c #59945A",
"T@	c #588453",
"U@	c #518C5C",
"V@	c #449B69",
"W@	c #3CA370",
"X@	c #6DC168",
"Y@	c #5CB66B",
"Z@	c #45A76F",
"`@	c #38956B",
" #	c #347860",
".#	c #336359",
"+#	c #346459",
"@#	c #42815E",
"##	c #54A567",
"$#	c #47A96F",
"%#	c #948183",
"&#	c #927C7E",
"*#	c #91787B",
"=#	c #84D561",
"-#	c #80D163",
";#	c #73C667",
">#	c #54B06D",
",#	c #368E69",
"'#	c #388F68",
")#	c #53A467",
"!#	c #72C264",
"~#	c #73C766",
"{#	c #387065",
"]#	c #C4B0A7",
"^#	c #BFA59D",
"/#	c #BD9F97",
"(#	c #B28787",
"_#	c #85D561",
":#	c #8CDB5E",
"<#	c #5BB56B",
"[#	c #73C666",
"}#	c #73C364",
"|#	c #378468",
"1#	c #376B66",
"2#	c #D4B9AF",
"3#	c #D0AFA5",
"4#	c #35645F",
"5#	c #396667",
"6#	c #CAA39C",
"7#	c #C89F99",
"8#	c #3B9A70",
"9#	c #54A96D",
"0#	c #73C466",
"a#	c #80D263",
"b#	c #3CA06F",
"c#	c #35605A",
"d#	c #40615B",
"e#	c #538666",
"f#	c #3A8870",
"g#	c #458F6F",
"h#	c #54A86D",
"i#	c #357860",
"j#	c #325D5A",
"k#	c #35545B",
"l#	c #517E5E",
"m#	c #72B361",
"n#	c #C39390",
"o#	c #3C796F",
"p#	c #3B8B6D",
"q#	c #3B936B",
"r#	c #3A9169",
"s#	c #3C6E6D",
"t#	c #396E68",
"u#	c #366D62",
"v#	c #34675C",
"w#	c #336459",
"x#	c #5A8C5F",
"y#	c #3C7E70",
"z#	c #344755",
"A#	c #324455",
"B#	c #5A8E63",
"C#	c #7FC75F",
"D#	c #3C686D",
"E#	c #395E65",
"F#	c #354A57",
"G#	c #323B4E",
"H#	c #323C4E",
"I#	c #334958",
"J#	c #5A9368",
"K#	c #80C862",
"L#	c #47906F",
"M#	c #36525C",
"N#	c #344F5C",
"O#	c #5A956B",
"P#	c #80C963",
"Q#	c #55A96D",
"R#	c #3D8E70",
"S#	c #375762",
"T#	c #5A966B",
"U#	c #61B06F",
"V#	c #385F68",
"W#	c #3B696D",
"X#	c #80C863",
"Y#	c #6EA675",
"Z#	c #385860",
"`#	c #3A686D",
" $	c #5B966B",
".$	c #80C962",
"+$	c #79AB73",
"@$	c #45796F",
"#$	c #558D6D",
"$$	c #6CAD68",
"%$	c #84CF61",
"&$	c #83BD67",
"*$	c #73B666",
"=$	c #8CD95E",
"  . + @ # @ @ @ @ $ % & & & & & & & & % $ @ @ $ % % $ @ @ @ @ @ @ @ @ @ @ @ @ @ @ @ @ @ @ @ @ @ @ @ @ @ @ @ @ @ @ # @ + .   * = ",
"- ; > , ' , , , , ) ! ~ ~ ~ ~ ~ ~ ~ ~ ! ) , , ) ! ! ) , , { ] ] { ' , , , , , , , , , , , , , , , , , , , , , , , ' , > ; - ^ / ",
"( _ : < < < < < < [ } | 1 | | | | 1 | } [ < < 2 } } 2 < < < < < < < < < < < < < < < < < < < < < < < < < < < < < < < < 3 4 5 6 7 ",
"8 : 9 0 a 0 0 0 0 b c d d d d d d d d c b 0 0 b c c b 0 0 0 0 0 0 0 0 0 0 0 0 0 0 0 0 0 0 0 0 0 0 0 0 0 0 0 0 0 0 a 0 9 : 8 + e ",
"] < 0 < < < < < < < < < < < < < < < < < < < < < < < < < < < < < < < < < < < < f g g h i g j k k k k k k j g l < < m n ] , o p q ",
"] < a < < < < < < < < < < < < < < < < < < < < < < < < < < < < < < < < < < < < g _ 4 g g 4 r s r r r r s r _ g < < n t u v w x q ",
"] < 0 < < < < < < < < < < < < < < < < < < < < < < < < < < < < < < < < < < < < g _ y z A y B C D D D D C B _ g < < E t F G H I q ",
"] < 0 < < < < < < < < < < < < < < < < < < < < < < < < < < < < < < < < < < < < h g A J J A K L M M M M L K g i < < m n N O P Q q ",
"] < 0 < < < < < < < < < < < < < < < < < < < < < < < < < < < < < < < < < < < < < < 2 } R 2 [ R | 1 1 | } [ < < < < < < h S T U q ",
"] < 0 < < < < < < < < < < < < < < < < < < < < < < < < < < < < < < < < < < < < < < V 2 2 V V W X X X X W V < < < < < < < h Y F q ",
"] < a < < < < < < < < < < < < < < < = = = = = = = = = = = = = = = = = = = = = = = = = = = = < < < < < < < < < < < < < a < ] # q ",
"] < 0 < < < < < < < < < < < < < = = Z ` = ` Z Z Z  .Z  . .Z ` = ` Z Z Z  .Z  . . .Z ` = ` Z = = < < < < < < < < < < < a < ] # q ",
"8 : 9 0 a 0 0 0 0 0 0 0 0 0 = = ` Z Z Z = Z Z Z Z Z Z Z Z Z Z = Z Z Z Z Z Z Z Z Z Z Z = Z Z Z ` = = 0 0 0 0 0 0 0 a 0 9 : 8 + e ",
"( _ : < < < < < < < < < < = `  . .Z Z Z = Z Z Z Z Z Z Z Z Z Z = Z Z Z Z Z Z Z Z Z Z Z = Z Z Z  . .` = < < < < < < < < : _ ( . 7 ",
"..; > , , , , , , , , , = `  .Z Z Z Z ` = ` Z Z Z Z Z Z Z Z ` = ` Z Z Z Z Z Z Z Z Z ` = ` Z Z Z Z  .` = , , , , , ' , > ; - ^ / ",
"  . + @ # @ @ @ @ @ @ = `  .Z Z Z ` +.+.= +.+.+.+.+.+.+.+.+.+.= +.+.+.+.+.+.+.+.+.+.+.= +.+.` Z Z Z  .` = @ @ @ @ # @ + .   * = ",
"% & & & & % $ @ @ @ @ = Z Z Z Z ` +.+.@.= = = = = #.$.%.&.*.=.-.;.;.-.=.>.&.,.'.= = = = @.+.+.` Z Z Z Z = % $ @ @ @ @ @ @ @ @ @ ",
").~ ~ ~ ~ ! ) , , , = ` Z Z Z ` +.+.= = = !.~.= = {.].^./.(._.:.<.<.:._.[.}.|.1.= ~.!.= = = +.+.` Z Z Z ` = ) , , , , , ' { ] ] ",
"} | 1 1 | } [ < < < = Z Z Z Z +.+.= = = ~.!.!.= = 2.3.4.=.5.6.7.8.8.7.6._.=.9.0.= !.!.~.= = = +.+.Z Z Z Z = [ < < < < < < < < < ",
"c d d d d c b 0 0 = ` Z Z Z ` +.= = = = = = = = = a.b.c.-.d.7.e.f.f.e.7.:.-.9.g.= = = = = = = = +.` Z Z Z ` = 0 0 0 0 0 0 0 0 0 ",
"< < < < < < < < < = Z Z Z Z +.+.= = ~.!.!.~.= = = h.g.i.;.j.k.l.m.m.l.k.j.n.o.p.= = = = = = = = +.+.Z Z Z Z = < < < < < < < < < ",
"< < < < < < < < < = Z Z Z Z +.= = ~.!.!.!.!.= = = q.p.r.;.s.8.f.t.t.f.8.s.;.9.g.= = = !.!.!.~.= = +.Z Z Z Z = < < < < < < < < < ",
"< < < < < < < < < = ` Z Z ` +.= = !.!.!.!.~.= = = u.g.r.v.w.x.y.z.A.B.C.D.E.F.G.= = = ~.!.!.!.= = +.` Z Z ` = < < < < < < < < < ",
"< < < < < < < < < = = = = = = = = = = = = = = = = u.g.o.H.I.J.K.m.m.L.J.M.N.O.P.= = = = = = = = = = = = = = = < < < < < < < < < ",
"< < < < < < < < < = ` Z Z ` +.= = = ~.!.!.!.~.= = Q.R.S.T.U.V.A.W.X.Y.Z.`. +.+++= = ~.!.!.~.= = = +.` Z Z ` = < < < < < < < < < ",
"< < < < < < < < < = Z Z Z Z +.= @+#+= !.!.!.!.= = $+%+&+*+=+A.t.-+;+>+,+ +'+)+)+= = !.!.!.= #+@+= +.Z Z Z Z = < < < < < < < < < ",
"< < < < < < < < < =  .Z Z Z +.= @+!+= !.!.!.!.= = ~+{+]+^+/+(+X.`. +.+++_+:+<+<+= = !.!.!.= !+@+= +.Z Z Z  .= < < < < < < < < < ",
"< < < < < < < < < =  .Z Z Z +.= = = ~.!.!.!.!.= = [+}+|+1+2+X.;+3+4+5+)+6+7+8+9+= = !.!.!.~.= = = +.Z Z Z  .= < < < < < < < < < ",
"0 0 0 0 0 0 0 0 0 = Z Z Z Z +.= ~.!.!.!.!.!.~.= = 0+a+b+c+d+`. +_+:+e+<+f+g+h+h+= = ~.!.!.!.!.~.= +.Z Z Z Z = 0 0 0 0 0 0 0 0 0 ",
"< < < < < < < < < =  .Z Z Z +.= = = = = = = = = = &+i+U.d+j+ +4+6+7+8+9+g+k+l+l+= = = = = = = = = +.Z Z Z  .= < < < < < < < < < ",
"{ ' , , , , , , , = Z Z Z Z +.= = = = = = = = = = m+n+o+p+q+r+6+f+g+l+l+l+l+h+h+= ~.!.!.!.!.!.~.= +.Z Z Z Z = , , , , , ' { ] ] ",
"@ @ @ @ @ @ @ @ @ = Z Z Z Z +.= ~.!.!.!.!.~.= = = |+s+t+u+v+:+w+g+k+l+l+h+h+h+h+= !.!.!.!.!.!.!.= +.Z Z Z Z = @ @ @ @ @ @ @ @ @ ",
"  . + @ # @ @ $ % = Z Z Z Z +.= !.!.!.!.!.!.= = = s.x+y+z+A+f+B+k+g+8+8+8+8+g+k+= !.!.!.!.!.!.!.= +.Z Z Z Z = @ @ # @ + .   * = ",
"- ; > , ' , , ) ! = ` Z Z ` +.= ~.!.!.!.!.~.= = = s.C+D+A+E+g+F+g+f+<+e+e+<+f+g+= ~.!.!.!.!.!.~.= +.` Z Z ` = , , ' , > ; - ^ / ",
"( _ : < < < < 2 } = = = = = = = = = = = = = = = = s.G+H+<+I+k+g+7+:+)+5+5+)+6+7+= = = = = = = = = = = = = = = < < < < : _ ( . 7 ",
"8 : 9 0 a 0 0 b c = ` Z Z ` +.= ~.!.!.!.~.= = = = s.G+J+K+L+g+M+:+r+.+.+.+.+_+:+= = = = ~.!.!.~.= +.` Z Z ` = 0 0 a 0 9 : 8 + e ",
"] < 0 < < < < < < = Z Z Z Z +.= !.!.!.!.!.= = = = s.G+H+K+L+L+K+'+N+>+>+>+>+O+'+= = = = !.!.!.!.= +.Z Z Z Z = < < < < a < ] # q ",
"] < a < < < < < < =  .Z Z Z +.= !.!.!.!.!.= = = = s.G+H+K+I+8+<+ +P+Z.Y.Y.Z.`. += = = = !.!.!.!.= +.Z Z Z  .= < < < < a < ] # q ",
"] < 0 < < < < < < =  .Z Z Z +.= ~.!.!.!.~.= = !+!+s.G+H+Q+w+E+A+R+S+T+U+V+t.W+X+!+!+= = ~.!.!.~.= +.Z Z Z  .= 0 0 a 0 < h Y F q ",
"] < 0 < < < < < < = Z Z Z Z +.= = = = = = = = #+!+s.Y+H+Z+`+A+ @X..@V++@@@V+#@$@!+#+= = = = = = = +.Z Z Z Z = < < < < h S T U q ",
"] < 0 < < < < < < =  .Z Z Z +.= = = = = = = = #+!+%@Y+H+)+)+>+Z.&@*@=@-@;@>@,@8.!+#+= = = ~.!.~.= +.Z Z Z  .= , , ' , N O P Q q ",
"] < 0 < < < < < < = Z Z Z Z +.= = ~.!.!.= = = #+!+'@Y+H+5+5+q+Y.)@!@~@~@{@]@^@/@!+#+= = = !.!.!.= +.Z Z Z Z = @ v # @ F U H I q ",
"] < a < < < < < < = Z Z Z Z +.= = !.!.!.= = = #+!+(@_@:@<@)+q+Y.[@}@|@1@2@3@4@5@!+#+= = = !.!.!.= +.Z Z Z Z = % 6@@ @ u u w x q ",
"] < 0 < < < < < < = Z Z Z Z +.= = ~.!.!.= = = #+!+7@Y+H+)+)+q+Z.8@9@0@a@b@c@d@e@!+#+= = = ~.!.~.= +.Z Z Z Z = ! ) , , ] ' o p q ",
"8 : 9 0 a 0 0 0 0 = ` Z Z ` +.= = = = = = = = #+!+f@g@h@i@j@ +k@l@3+m@n@o@p@q@r@!+#+= = = = = = = +.` Z Z ` = } W a 0 9 : 8 + e ",
"( _ : < < < < < < = = = = = = = ~.!.!.!.~.= = #+!+s@t@u@v@ +w@x@i@'+m@u.o@y@z@A@!+#+= = = = = = = = = = = = = c b a 0 3 4 5 6 7 ",
"- ; > , ' , , , , = ` Z Z ` +.= !.!.!.!.!.= = #+!+B@C@D@E@F@G@H@I@J@F@K@L@p@q@r@!+#+= = ~.!.~.= = +.` Z Z ` = M@, , , > ; - ^ / ",
"  . + @ # @ @ @ @ = Z Z Z Z +.= !.!.!.!.!.= = #+!+N@O@C@P@Q@R@S@T@Z.U@V@o@W@q@r@!+#+= = !.!.!.= = +.Z Z Z Z = @ @ # @ + .   * = ",
"@ @ @ @ @ @ @ @ @ =  .Z Z Z +.= ~.!.!.!.~.= = #+!+X@Y@N@|@Z@`@ #.#+#@###a@$#z@r@!+#+= = ~.!.~.= = +.Z Z Z  .= %#&#& *#% $ @ @ @ ",
"{ ' , , , , , , , =  .Z Z Z +.= = = = = = = = #+!+=#m@-#;#>#O@C@,#'#)#!#~#Q.q@{#!+#+= = = = = = = +.Z Z Z  .= ]#^#~ /#! ) { (#] ",
"< < < < < < < < < = Z Z Z Z +.= ~.!.!.!.~.= = #+!+m@_#:#_#X@Y@<#>#$+Q.[#}###|#1#!+#+= ~.!.!.!.~.= +.Z Z Z Z = 2#3#1 | } [ < < < ",
"0 0 0 0 0 0 0 0 0 =  .Z Z Z +.= = = ~.!.!.= = = = <#X@_#:#_#m@-#;#|@$#|@##@#4#5#= = = !.!.~.= = = +.Z Z Z  .= 6#7#d d c b 0 0 0 ",
"< < < < < < < l g = Z Z Z Z +.= @+!+= !.!.= = = = 8#9#0#-#a#a#-#0@|@b#c@{@c#d#e#= = = !.!.= !+@+= +.Z Z Z Z = < < < < < < < < < ",
"< < < < < < < g _ = Z Z Z Z +.= @+#+= !.!.= = = = f#g#h#<#Y@Y@Y@Q.$+2@i#j#k#l#m#= = = !.!.= #+@+= +.Z Z Z Z = n#< < < < < < < < ",
"< < < < < < < g _ = Z Z Z Z +.= = = ~.!.~.= = = = 9.o#p#q#~@r#r#~@r#{@]@/+^+Y+H+= = = ~.!.~.= = = +.Z Z Z Z = < < < < < < < < < ",
"< < < < < < < i g = ` Z Z ` +.= = = = = = = = = = 9.s#t#u#v#w#w#=@-@;@>@,@8.x#J+= = = = = = = = = +.` Z Z ` = < < < < < < < < < ",
"< < < < < < < < < = = = = = = = ~.!.!.!.!.~.= = = y#-.:.*+z#m.t.m.m.t.m.A#*+B#C#= = ~.!.!.!.!.~.= = = = = = = < < < < < < < < < ",
"< < < < < < < < < = ` Z Z ` +.= !.!.!.!.!.!.= = = 9.=.D#E#F#T+G#T+T+H#t.I#T.J#K#= = !.!.!.!.!.!.= +.` Z Z ` = < < < < < < < < < ",
"< < < < < < < < < = Z Z Z Z +.= ~.!.!.!.!.~.= = = L#>.[.H.M#y.K.m.m.K.y.N#H.O#P#= = !.!.!.!.!.!.= +.Z Z Z Z = < < < < < < < < < ",
"< < < < < < < < < =  .Z Z Z +.= = = = = = = = = = Q#R#/.v.w.x.y.m.m.y.x.S#v.T#P#= = ~.!.!.!.!.~.= +.Z Z Z  .= < < < < < < < < < ",
"0 0 0 0 0 0 0 0 0 =  .Z Z Z +.= = = = = = = = = = U#p.o.-.:.7.e.f.f.e.7.V#W#O#X#= = = = = = = = = +.Z Z Z  .= 0 0 0 0 0 0 0 0 0 ",
"< < < < < < < < < = Z Z Z Z +.= ~.!.!.!.~.= = = = Y#g.i.=._.6.Z#8.8.Z#6.`#=. $.$= = = = = = = = = +.Z Z Z Z = < < < < < < < < < ",
"{ ' , , , , , , , = ` Z Z ` +.= !.!.!.!.!.= = = = +$Q#L#>.[.-.a+<.<.:.-.@$#$$$%$= = = ~.!.!.!.= = +.` Z Z ` = , , , , , ' { ] ] ",
"@ @ @ @ @ @ @ @ @ = +.+.+.+.@.= ~.!.!.!.~.= = = = &$0#Q#&./.=.-.;.;.W#=.#$*$%$=$= = = !.!.!.~.= = @.+.+.+.+.= @ @ @ @ @ @ @ @ @ "};
