/* XPM */
static char * exit3_xpm[] = {
"64 64 457 2",
"  	c #7D5E6B",
". 	c #84636E",
"+ 	c #896972",
"@ 	c #8B6C73",
"# 	c #8B6C74",
"$ 	c #8C7076",
"% 	c #8F7679",
"& 	c #91797B",
"* 	c #735A68",
"= 	c #6E5967",
"- 	c #946672",
"; 	c #A4727A",
"> 	c #AD8082",
", 	c #B18786",
"' 	c #B18787",
") 	c #B48E8B",
"! 	c #BA9A93",
"~ 	c #BDA098",
"{ 	c #B18887",
"] 	c #B28887",
"^ 	c #7C5D6A",
"/ 	c #6C5866",
"( 	c #A5737B",
"_ 	c #B78285",
": 	c #C08E8C",
"< 	c #C39490",
"[ 	c #C69A94",
"} 	c #CBA59C",
"| 	c #CDAAA0",
"1 	c #CEAAA0",
"2 	c #C69A95",
"3 	c #C08F8D",
"4 	c #B88285",
"5 	c #A5747B",
"6 	c #85636E",
"7 	c #6D5967",
"8 	c #AE8183",
"9 	c #C3938F",
"0 	c #C49490",
"a 	c #C49590",
"b 	c #C59792",
"c 	c #C79B95",
"d 	c #C89D96",
"e 	c #6D5867",
"f 	c #C1928F",
"g 	c #BF8E8C",
"h 	c #C1918E",
"i 	c #C1928E",
"j 	c #BD8B8B",
"k 	c #BD8B8A",
"l 	c #C2928F",
"m 	c #BF918E",
"n 	c #B68B89",
"o 	c #A37D7F",
"p 	c #846870",
"q 	c #6D5866",
"r 	c #B37B81",
"s 	c #B37A81",
"t 	c #9C787C",
"u 	c #8B6D74",
"v 	c #8A6C73",
"w 	c #846871",
"x 	c #765F6A",
"y 	c #B98587",
"z 	c #C29491",
"A 	c #C29591",
"B 	c #B47E83",
"C 	c #B68286",
"D 	c #B78588",
"E 	c #B78B89",
"F 	c #8A6A72",
"G 	c #866670",
"H 	c #80626D",
"I 	c #755C69",
"J 	c #C9A39B",
"K 	c #C0928F",
"L 	c #C59D97",
"M 	c #C8A39B",
"N 	c #AF8384",
"O 	c #AA7B7F",
"P 	c #9B6F77",
"Q 	c #80616D",
"R 	c #CBA49C",
"S 	c #BD8989",
"T 	c #AB7B7F",
"U 	c #876670",
"V 	c #C49792",
"W 	c #C69B95",
"X 	c #C79D96",
"Y 	c #B08484",
"Z 	c #FBCAAE",
"` 	c #EDA799",
" .	c #FAEBCF",
"..	c #946572",
"+.	c #E28989",
"@.	c #D2727E",
"#.	c #807973",
"$.	c #718771",
"%.	c #599A6F",
"&.	c #60B46A",
"*.	c #80D062",
"=.	c #A2E762",
"-.	c #C1F76B",
";.	c #CFFF70",
">.	c #D0FF70",
",.	c #C5F96D",
"'.	c #B0EE66",
").	c #9EE561",
"!.	c #93E05E",
"~.	c #BA9A94",
"{.	c #AD707B",
"].	c #926475",
"^.	c #82977B",
"/.	c #679E73",
"(.	c #5FA36D",
"_.	c #6CB666",
":.	c #85D160",
"<.	c #A3E862",
"[.	c #C2F86B",
"}.	c #CCFD6F",
"|.	c #B5F168",
"1.	c #759F79",
"2.	c #4EA86D",
"3.	c #67B268",
"4.	c #81C564",
"5.	c #98DC63",
"6.	c #73A079",
"7.	c #56B06C",
"8.	c #78C664",
"9.	c #B4EE68",
"0.	c #66A076",
"a.	c #59B46B",
"b.	c #7FD063",
"c.	c #A3E762",
"d.	c #C5FA6D",
"e.	c #4BA272",
"f.	c #5AB56B",
"g.	c #80D162",
"h.	c #B1EE66",
"i.	c #46A36E",
"j.	c #81D062",
"k.	c #B6F168",
"l.	c #8FDE5D",
"m.	c #8FDF5D",
"n.	c #90DF5D",
"o.	c #9FE661",
"p.	c #56A56B",
"q.	c #84D160",
"r.	c #A3E763",
"s.	c #8EDE5D",
"t.	c #8BD85C",
"u.	c #83CC5B",
"v.	c #7FC45B",
"w.	c #7FC55D",
"x.	c #83CC5D",
"y.	c #8CD95D",
"z.	c #86A0A8",
"A.	c #5D7889",
"B.	c #83CB5A",
"C.	c #69A156",
"D.	c #578456",
"E.	c #58885C",
"F.	c #69A55E",
"G.	c #83CC5E",
"H.	c #728896",
"I.	c #C1F76C",
"J.	c #82CB5A",
"K.	c #71AE57",
"L.	c #4F7552",
"M.	c #324254",
"N.	c #354E5C",
"O.	c #518061",
"P.	c #72B462",
"Q.	c #C1F86C",
"R.	c #68A155",
"S.	c #3C5250",
"T.	c #314054",
"U.	c #344C5C",
"V.	c #416863",
"W.	c #548969",
"X.	c #81D162",
"Y.	c #B6F268",
"Z.	c #7FC55A",
"`.	c #568353",
" +	c #323E4F",
".+	c #30394F",
"++	c #344554",
"@+	c #37515C",
"#+	c #375963",
"$+	c #3B6469",
"%+	c #94E05E",
"&+	c #7FC45A",
"*+	c #568153",
"=+	c #303A4F",
"-+	c #2F384F",
";+	c #365461",
">+	c #385A64",
",+	c #84CF60",
"'+	c #A4E863",
")+	c #365360",
"!+	c #385660",
"~+	c #82CB62",
"{+	c #C1F86B",
"]+	c #68A055",
"^+	c #4F7652",
"/+	c #3D5450",
"(+	c #313D4F",
"_+	c #80C862",
":+	c #9FE561",
"<+	c #568253",
"[+	c #334353",
"}+	c #354C59",
"|+	c #354F5D",
"1+	c #38555F",
"2+	c #95E15E",
"3+	c #324050",
"4+	c #334657",
"5+	c #37525D",
"6+	c #578353",
"7+	c #334454",
"8+	c #36505C",
"9+	c #95E15F",
"0+	c #9BDF60",
"a+	c #8ACE5C",
"b+	c #4E7552",
"c+	c #ADE066",
"d+	c #7FAC5A",
"e+	c #3B5350",
"f+	c #B6E169",
"g+	c #799559",
"h+	c #323D4F",
"i+	c #2C354E",
"j+	c #323C4F",
"k+	c #323C4E",
"l+	c #A4E963",
"m+	c #B7E169",
"n+	c #789459",
"o+	c #2C364F",
"p+	c #334B52",
"q+	c #2F5956",
"r+	c #346559",
"s+	c #336559",
"t+	c #345C56",
"u+	c #334951",
"v+	c #B6E168",
"w+	c #345D57",
"x+	c #337F62",
"y+	c #3A9169",
"z+	c #3A9269",
"A+	c #388263",
"B+	c #364F5C",
"C+	c #80CB62",
"D+	c #9FE761",
"E+	c #AAD965",
"F+	c #708F58",
"G+	c #336359",
"H+	c #358F69",
"I+	c #46A96F",
"J+	c #54B16D",
"K+	c #3A976B",
"L+	c #367960",
"M+	c #36615B",
"N+	c #37585E",
"O+	c #8C6F75",
"P+	c #80CF62",
"Q+	c #90CC5D",
"R+	c #618855",
"S+	c #379069",
"T+	c #55B26D",
"U+	c #73C767",
"V+	c #3B9F6E",
"W+	c #39966B",
"X+	c #398566",
"Y+	c #386962",
"Z+	c #72BD63",
"`+	c #84CE5E",
" @	c #84CC5A",
".@	c #6AA256",
"+@	c #4F8559",
"@@	c #408B63",
"#@	c #5BAA66",
"$@	c #80CE60",
"%@	c #5BAB66",
"&@	c #3A966B",
"*@	c #3A9E6E",
"=@	c #3B986D",
"-@	c #3A8068",
";@	c #529164",
">@	c #6BA65F",
",@	c #83CC5A",
"'@	c #70B059",
")@	c #508659",
"!@	c #59945A",
"~@	c #7FC75C",
"{@	c #7FC85C",
"]@	c #377A60",
"^@	c #38956B",
"/@	c #3CA06F",
"(@	c #3B996D",
"_@	c #376F65",
":@	c #527E5E",
"<@	c #71AF5B",
"[@	c #84CC5B",
"}@	c #8CD95C",
"|@	c #6AA356",
"1@	c #659A55",
"2@	c #76B558",
"3@	c #71AD57",
"4@	c #507752",
"5@	c #378F69",
"6@	c #3BA370",
"7@	c #3CA370",
"8@	c #B18686",
"9@	c #366E65",
"0@	c #3F605D",
"a@	c #507856",
"b@	c #76B658",
"c@	c #639755",
"d@	c #4F7451",
"e@	c #356459",
"f@	c #399069",
"g@	c #3CA470",
"h@	c #387F68",
"i@	c #366660",
"j@	c #355258",
"k@	c #507855",
"l@	c #71AE58",
"m@	c #313A4F",
"n@	c #406D57",
"o@	c #53A065",
"p@	c #948183",
"q@	c #927C7E",
"r@	c #91787B",
"s@	c #3A976D",
"t@	c #398568",
"u@	c #366560",
"v@	c #405F5A",
"w@	c #507755",
"x@	c #588453",
"y@	c #588553",
"z@	c #3D5550",
"A@	c #2F364F",
"B@	c #313B4F",
"C@	c #517D54",
"D@	c #72B95E",
"E@	c #73C666",
"F@	c #C4B0A7",
"G@	c #BFA59D",
"H@	c #BD9F97",
"I@	c #B28787",
"J@	c #45A76F",
"K@	c #3B946C",
"L@	c #397064",
"M@	c #334253",
"N@	c #323B4E",
"O@	c #314651",
"P@	c #345D56",
"Q@	c #59935A",
"R@	c #5CB66B",
"S@	c #D4B9AF",
"T@	c #D0AFA5",
"U@	c #387065",
"V@	c #324054",
"W@	c #325B57",
"X@	c #CAA39C",
"Y@	c #C89F99",
"Z@	c #5BB46C",
"`@	c #367E68",
" #	c #366D62",
".#	c #34665C",
"+#	c #336459",
"@#	c #337760",
"##	c #39956B",
"$#	c #5CB56B",
"%#	c #80D163",
"&#	c #3C9F6F",
"*#	c #3B936B",
"=#	c #3A926A",
"-#	c #C39390",
";#	c #6DC268",
">#	c #5BB56C",
",#	c #5BB56B",
"'#	c #68BE69",
")#	c #78CA65",
"!#	c #73C466",
"~#	c #55A96D",
"{#	c #84D461",
"]#	c #66BD69",
"^#	c #54A96D",
"/#	c #468F6F",
"(#	c #8CDB5E",
"_#	c #84D561",
":#	c #80D263",
"<#	c #40916F",
"[#	c #46866E",
"}#	c #6DC168",
"|#	c #85D561",
"1#	c #45856F",
"2#	c #56926B",
"3#	c #54B06D",
"4#	c #80D262",
"5#	c #72C364",
"6#	c #53A567",
"7#	c #39926B",
"8#	c #3B8A6D",
"9#	c #3C796F",
"0#	c #467E6F",
"a#	c #56996B",
"b#	c #3AA270",
"c#	c #40805E",
"d#	c #34675C",
"e#	c #366B62",
"f#	c #396E68",
"g#	c #3C6E6D",
"h#	c #3F7E70",
"i#	c #47986E",
"j#	c #4DA272",
"k#	c #40A36F",
"l#	c #47A46E",
"m#	c #47A16E",
"n#	c #409B6F",
"o#	c #3C976F",
"p#	c #3B946D",
"q#	c #354B58",
"r#	c #3F6767",
"s#	c #47786B",
"t#	c #46896E",
"u#	c #3F9A70",
"v#	c #68A077",
"w#	c #46A46E",
"x#	c #55A46B",
"y#	c #559C6B",
"z#	c #3A7A6D",
"A#	c #387368",
"B#	c #376862",
"C#	c #37595E",
"D#	c #375560",
"E#	c #3A6168",
"F#	c #47776B",
"G#	c #568F6A",
"H#	c #569C6B",
"I#	c #6B9C76",
"J#	c #477F6E",
"K#	c #3C696D",
"L#	c #395D64",
"M#	c #5DAA6A",
"N#	c #5CB26B",
"O#	c #5A9771",
"P#	c #40A46F",
"Q#	c #417E6F",
"R#	c #3D6C6F",
"S#	c #3C686D",
"T#	c #3C686C",
"U#	c #3D6D6F",
"V#	c #407E70",
"W#	c #47996E",
"X#	c #75C765",
"  . + @ # @ @ @ @ $ % & & & & & & & & % $ @ @ $ % % $ @ @ @ @ @ @ @ @ @ @ @ @ @ @ @ @ @ @ @ @ @ @ @ @ @ @ @ @ @ @ # @ + .   * = ",
"- ; > , ' , , , , ) ! ~ ~ ~ ~ ~ ~ ~ ~ ! ) , , ) ! ! ) , , { ] ] { ' , , , , , , , , , , , , , , , , , , , , , , , ' , > ; - ^ / ",
"( _ : < < < < < < [ } | 1 | | | | 1 | } [ < < 2 } } 2 < < < < < < < < < < < < < < < < < < < < < < < < < < < < < < < < 3 4 5 6 7 ",
"8 : 9 0 a 0 0 0 0 b c d d d d d d d d c b 0 0 b c c b 0 0 0 0 0 0 0 0 0 0 0 0 0 0 0 0 0 0 0 0 0 0 0 0 0 0 0 0 0 0 a 0 9 : 8 + e ",
"] < 0 < < < < < < < < < < < < < < < < < < < < < < < < < < < < < < < < < < < < f g g h i g j k k k k k k j g l < < m n ] , o p q ",
"] < a < < < < < < < < < < < < < < < < < < < < < < < < < < < < < < < < < < < < g _ 4 g g 4 r s r r r r s r _ g < < n t u v w x q ",
"] < 0 < < < < < < < < < < < < < < < < < < < < < < < < < < < < < < < < < < < < g _ y z A y B C D D D D C B _ g < < E t F G H I q ",
"] < 0 < < < < < < < < < < < < < < < < < < < < < < < < < < < < < < < < < < < < h g A J J A K L M M M M L K g i < < m n N O P Q q ",
"] < 0 < < < < < < < < < < < < < < < < < < < < < < < < < < < < < < < < < < < < < < 2 } R 2 [ R | 1 1 | } [ < < < < < < h S T U q ",
"] < 0 < < < < < < < < < < < < < < < < < < < < < < < < < < < < < < < < < < < < < < V 2 2 V V W X X X X W V < < < < < < < h Y F q ",
"] < a < < < < < < < < < < < < < < < = = = = = = = = = = = = = = = = = = = = = = = = = = = = < < < < < < < < < < < < < a < ] # q ",
"] < 0 < < < < < < < < < < < < < = = Z ` = ` Z Z Z  .Z  . .Z ` = ` Z Z Z  .Z  . . .Z ` = ` Z = = < < < < < < < < < < < a < ] # q ",
"8 : 9 0 a 0 0 0 0 0 0 0 0 0 = = ` Z Z Z = Z Z Z Z Z Z Z Z Z Z = Z Z Z Z Z Z Z Z Z Z Z = Z Z Z ` = = 0 0 0 0 0 0 0 a 0 9 : 8 + e ",
"( _ : < < < < < < < < < < = `  . .Z Z Z = Z Z Z Z Z Z Z Z Z Z = Z Z Z Z Z Z Z Z Z Z Z = Z Z Z  . .` = < < < < < < < < : _ ( . 7 ",
"..; > , , , , , , , , , = `  .Z Z Z Z ` = ` Z Z Z Z Z Z Z Z ` = ` Z Z Z Z Z Z Z Z Z ` = ` Z Z Z Z  .` = , , , , , ' , > ; - ^ / ",
"  . + @ # @ @ @ @ @ @ = `  .Z Z Z ` +.+.= +.+.+.+.+.+.+.+.+.+.= +.+.+.+.+.+.+.+.+.+.+.= +.+.` Z Z Z  .` = @ @ @ @ # @ + .   * = ",
"% & & & & % $ @ @ @ @ = Z Z Z Z ` +.+.@.= = = = = #.$.%.&.*.=.-.;.>.;.;.,.'.).!.= = = = @.+.+.` Z Z Z Z = % $ @ @ @ @ @ @ @ @ @ ",
"~.~ ~ ~ ~ ! ) , , , = ` Z Z Z ` +.+.= = = {.].= = ^./.(._.:.<.[.>.>.>.>.}.,.|.).= ].{.= = = +.+.` Z Z Z ` = ) , , , , , ' { ] ] ",
"} | 1 1 | } [ < < < = Z Z Z Z +.+.= = = ].{.{.= = 1.2.3.4.5.'.,.;.>.>.>.>.>.,.'.= {.{.].= = = +.+.Z Z Z Z = [ < < < < < < < < < ",
"c d d d d c b 0 0 = ` Z Z Z ` +.= = = = = = = = = 6.7.8.5.9.,.}.;.;.;.;.;.;.}.,.= = = = = = = = +.` Z Z Z ` = 0 0 0 0 0 0 0 0 0 ",
"< < < < < < < < < = Z Z Z Z +.+.= = ].{.{.].= = = 0.a.b.c.-.;.>.}.,.-.-.-.-.d.}.= = = = = = = = +.+.Z Z Z Z = < < < < < < < < < ",
"< < < < < < < < < = Z Z Z Z +.= = ].{.{.{.{.= = = e.f.g.<.[.>.>.,.'.c.=.=.c.h.,.= = = {.{.{.].= = +.Z Z Z Z = < < < < < < < < < ",
"< < < < < < < < < = ` Z Z ` +.= = {.{.{.{.].= = = i.&.j.c.-.}.,.k.).l.l.m.n.o.k.= = = ].{.{.{.= = +.` Z Z ` = < < < < < < < < < ",
"< < < < < < < < < = = = = = = = = = = = = = = = = p._.q.r.-.,.'.).!.s.s.s.s.!.).= = = = = = = = = = = = = = = < < < < < < < < < ",
"< < < < < < < < < = ` Z Z ` +.= = = ].{.{.{.].= = 3.4.5.'.,.-.r.m.l.t.u.v.w.x.y.= = ].{.{.].= = = +.` Z Z ` = < < < < < < < < < ",
"< < < < < < < < < = Z Z Z Z +.= z.A.= {.{.{.{.= = 8.5.9.,.}.-.c.l.s.B.C.D.E.F.G.= = {.{.{.= A.z.= +.Z Z Z Z = < < < < < < < < < ",
"< < < < < < < < < =  .Z Z Z +.= z.H.= {.{.{.{.= = b.c.-.>.>.I.c.t.J.K.L.M.N.O.P.= = {.{.{.= H.z.= +.Z Z Z  .= < < < < < < < < < ",
"< < < < < < < < < =  .Z Z Z +.= = = ].{.{.{.{.= = g.<.[.>.>.Q.c.u.R.L.S.T.U.V.W.= = {.{.{.].= = = +.Z Z Z  .= < < < < < < < < < ",
"0 0 0 0 0 0 0 0 0 = Z Z Z Z +.= ].{.{.{.{.{.].= = X.c.-.}.,.Y.).Z.`. +.+++@+#+$+= = ].{.{.{.{.].= +.Z Z Z Z = 0 0 0 0 0 0 0 0 0 ",
"< < < < < < < < < =  .Z Z Z +.= = = = = = = = = = q.r.-.,.'.o.%+&+*+=+-+++@+;+>+= = = = = = = = = +.Z Z Z  .= < < < < < < < < < ",
"{ ' , , , , , , , = Z Z Z Z +.= = = = = = = = = = ,+'+[.I.'+t.J.K.L. +=+++@+)+!+= ].{.{.{.{.{.].= +.Z Z Z Z = , , , , , ' { ] ] ",
"@ @ @ @ @ @ @ @ @ = Z Z Z Z +.= ].{.{.{.{.].= = = ~+'+{+-.c.B.]+^+/+ +(+++@+)+!+= {.{.{.{.{.{.{.= +.Z Z Z Z = @ @ @ @ @ @ @ @ @ ",
"  . + @ # @ @ $ % = Z Z Z Z +.= {.{.{.{.{.{.= = = _+:+Y.Y.:+&+<+ +.+ + +[+}+|+1+= {.{.{.{.{.{.{.= +.Z Z Z Z = @ @ # @ + .   * = ",
"- ; > , ' , , ) ! = ` Z Z ` +.= ].{.{.{.{.].= = = _+2+o.o.2+&+*+=+-+ + +3+[+4+5+= ].{.{.{.{.{.].= +.` Z Z ` = , , ' , > ; - ^ / ",
"( _ : < < < < 2 } = = = = = = = = = = = = = = = = _+l.m.m.m.Z.6+ +.+ + + + +M.@+= = = = = = = = = = = = = = = < < < < : _ ( . 7 ",
"8 : 9 0 a 0 0 b c = ` Z Z ` +.= ].{.{.{.].= = = = _+l.m.m.l.&+6+ +.+ + + + +7+8+= = = = ].{.{.].= +.` Z Z ` = 0 0 a 0 9 : 8 + e ",
"] < 0 < < < < < < = Z Z Z Z +.= {.{.{.{.{.= = = = _+9+o.0+a+K.b+ +=+ + + + +++@+= = = = {.{.{.{.= +.Z Z Z Z = < < < < a < ] # q ",
"] < a < < < < < < =  .Z Z Z +.= {.{.{.{.{.= = = = _+o.Y.c+d+^+e+ +(+ + + + +++@+= = = = {.{.{.{.= +.Z Z Z  .= < < < < a < ] # q ",
"] < 0 < < < < < < =  .Z Z Z +.= ].{.{.{.].= = H.H._+'+{+f+g+h+i+j+j+j+j+k+h+++@+H.H.= = ].{.{.].= +.Z Z Z  .= 0 0 a 0 < h Y F q ",
"] < 0 < < < < < < = Z Z Z Z +.= = = = = = = = A.H._+l+[.m+n+=+o+ + + + + + +++@+H.A.= = = = = = = +.Z Z Z Z = < < < < h S T U q ",
"] < 0 < < < < < < =  .Z Z Z +.= = = = = = = = A.H._+l+[.m+g+p+q+r+s+s+r+t+u+[+8+H.A.= = = ].{.].= +.Z Z Z  .= , , ' , N O P Q q ",
"] < 0 < < < < < < = Z Z Z Z +.= = ].{.{.= = = A.H._+'+{+v+g+w+x+y+z+z+y+A+w+++B+H.A.= = = {.{.{.= +.Z Z Z Z = @ v # @ F U H I q ",
"] < a < < < < < < = Z Z Z Z +.= = {.{.{.= = = A.H.C+D+Y.E+F+G+H+I+J+J+I+K+L+M+N+H.A.= = = {.{.{.= +.Z Z Z Z = % O+@ @ u u w x q ",
"] < 0 < < < < < < = Z Z Z Z +.= = ].{.{.= = = A.H.P+9+:+Q+R+s+S+T+U+U+T+V+W+X+Y+H.A.= = = ].{.].= +.Z Z Z Z = ! ) , , ] ' o p q ",
"8 : 9 0 a 0 0 0 0 = ` Z Z ` +.= = = = = = = = A.H.Z+`+y. @.@+@@@#@$@$@%@&@*@=@-@H.A.= = = = = = = +.` Z Z ` = } W a 0 9 : 8 + e ",
"( _ : < < < < < < = = = = = = = ].{.{.{.].= = A.H.;@>@x.t.,@'@)@!@~@{@!@]@^@/@(@H.A.= = = = = = = = = = = = = c b a 0 3 4 5 6 7 ",
"- ; > , ' , , , , = ` Z Z ` +.= {.{.{.{.{.= = A.H._@:@<@[@}@[@|@1@2@3@4@r+5@6@7@H.A.= = ].{.].= = +.` Z Z ` = 8@, , , > ; - ^ / ",
"  . + @ # @ @ @ @ = Z Z Z Z +.= {.{.{.{.{.= = A.H.9@0@a@.@ @}@ @b@c@d@/+e@f@g@g@H.A.= = {.{.{.= = +.Z Z Z Z = @ @ # @ + .   * = ",
"@ @ @ @ @ @ @ @ @ =  .Z Z Z +.= ].{.{.{.].= = A.H.h@i@j@k@l@Z.Z.K.^+m@.+n@o@J+I+H.A.= = ].{.].= = +.Z Z Z  .= p@q@& r@% $ @ @ @ ",
"{ ' , , , , , , , =  .Z Z Z +.= = = = = = = = A.H.s@t@u@v@w@x@y@4@z@A@B@C@D@E@T+H.A.= = = = = = = +.Z Z Z  .= F@G@~ H@! ) { I@] ",
"< < < < < < < < < = Z Z Z Z +.= ].{.{.{.].= = A.H.J@K@L@B+M@j+N@N@j+O@P@Q@{@g.R@H.A.= ].{.{.{.].= +.Z Z Z Z = S@T@1 | } [ < < < ",
"0 0 0 0 0 0 0 0 0 =  .Z Z Z +.= = = ].{.{.= = = = J+K@U@8+V@.+.+.+(+W@A+%@$@g.R@= = = {.{.].= = = +.Z Z Z  .= X@Y@d d c b 0 0 0 ",
"< < < < < < < l g = Z Z Z Z +.= z.H.= {.{.= = = = Z@s@`@ #.#+#+#G++#@###$#%#g.R@= = = {.{.= H.z.= +.Z Z Z Z = < < < < < < < < < ",
"< < < < < < < g _ = Z Z Z Z +.= z.A.= {.{.= = = = $#&#s@*#=#y+y+y+y+##V+R@%#g.$#= = = {.{.= A.z.= +.Z Z Z Z = -#< < < < < < < < ",
"< < < < < < < g _ = Z Z Z Z +.= = = ].{.].= = = = ;#$#>#,#,#,#,#,#$#$#R@'#)#!#~#= = = ].{.].= = = +.Z Z Z Z = < < < < < < < < < ",
"< < < < < < < i g = ` Z Z ` +.= = = = = = = = = = {#g.%#%#%#%#%#%#%#%#g.)#]#^#/#= = = = = = = = = +.` Z Z ` = < < < < < < < < < ",
"< < < < < < < < < = = = = = = = ].{.{.{.{.].= = = g.{#(#n.n.n.n.(#_#:#%#!#^#<#[#= = ].{.{.{.{.].= = = = = = = < < < < < < < < < ",
"< < < < < < < < < = ` Z Z ` +.= {.{.{.{.{.{.= = = $#}#|#n.n.n.n.|#}#R@,#~#/#1#2#= = {.{.{.{.{.{.= +.` Z Z ` = < < < < < < < < < ",
"< < < < < < < < < = Z Z Z Z +.= ].{.{.{.{.].= = = 7@3#E@g.g.4#%#5#6#z+7#8#9#0#a#= = {.{.{.{.{.{.= +.Z Z Z Z = < < < < < < < < < ",
"< < < < < < < < < =  .Z Z Z +.= = = = = = = = = = b#J@3#,#,#>#,#6#c#d#e#f#g#h#i#= = ].{.{.{.{.].= +.Z Z Z  .= < < < < < < < < < ",
"0 0 0 0 0 0 0 0 0 =  .Z Z Z +.= = = = = = = = = = j#k#l#m#n#o#p#X+M+q#!+r#s#t#u#= = = = = = = = = +.Z Z Z  .= 0 0 0 0 0 0 0 0 0 ",
"< < < < < < < < < = Z Z Z Z +.= ].{.{.{.].= = = = v#w#x#y#t#z#A#B#C#D#E#F#G#H#m#= = = = = = = = = +.Z Z Z Z = < < < < < < < < < ",
"{ ' , , , , , , , = ` Z Z ` +.= {.{.{.{.{.= = = = I#l#p.a#J#K#E#L#L#E#K#J#a#M#N#= = = ].{.{.{.= = +.` Z Z ` = , , , , , ' { ] ] ",
"@ @ @ @ @ @ @ @ @ = +.+.+.+.@.= ].{.{.{.].= = = = O#P#l#i#Q#R#S#T#T#K#U#V#W#N#X#= = = {.{.{.].= = @.+.+.+.+.= @ @ @ @ @ @ @ @ @ "};
