/* XPM */
static char * exit1_xpm[] = {
"64 64 430 2",
"  	c #7D5E6B",
". 	c #84636E",
"+ 	c #896972",
"@ 	c #8B6C73",
"# 	c #8B6C74",
"$ 	c #8C7076",
"% 	c #8F7679",
"& 	c #91797B",
"* 	c #735A68",
"= 	c #6E5967",
"- 	c #946672",
"; 	c #A4727A",
"> 	c #AD8082",
", 	c #B18786",
"' 	c #B18787",
") 	c #B48E8B",
"! 	c #BA9A93",
"~ 	c #BDA098",
"{ 	c #B18887",
"] 	c #B28887",
"^ 	c #7C5D6A",
"/ 	c #6C5866",
"( 	c #A5737B",
"_ 	c #B78285",
": 	c #C08E8C",
"< 	c #C39490",
"[ 	c #C69A94",
"} 	c #CBA59C",
"| 	c #CDAAA0",
"1 	c #CEAAA0",
"2 	c #C69A95",
"3 	c #C08F8D",
"4 	c #B88285",
"5 	c #A5747B",
"6 	c #85636E",
"7 	c #6D5967",
"8 	c #AE8183",
"9 	c #C3938F",
"0 	c #C49490",
"a 	c #C49590",
"b 	c #C59792",
"c 	c #C79B95",
"d 	c #C89D96",
"e 	c #6D5867",
"f 	c #C1928F",
"g 	c #BF8E8C",
"h 	c #C1918E",
"i 	c #C1928E",
"j 	c #BD8B8B",
"k 	c #BD8B8A",
"l 	c #C2928F",
"m 	c #BF918E",
"n 	c #B68B89",
"o 	c #A37D7F",
"p 	c #846870",
"q 	c #6D5866",
"r 	c #B37B81",
"s 	c #B37A81",
"t 	c #9C787C",
"u 	c #8B6D74",
"v 	c #8A6C73",
"w 	c #846871",
"x 	c #765F6A",
"y 	c #B98587",
"z 	c #C29491",
"A 	c #C29591",
"B 	c #B47E83",
"C 	c #B68286",
"D 	c #B78588",
"E 	c #B78B89",
"F 	c #8A6A72",
"G 	c #866670",
"H 	c #80626D",
"I 	c #755C69",
"J 	c #C9A39B",
"K 	c #C0928F",
"L 	c #C59D97",
"M 	c #C8A39B",
"N 	c #AF8384",
"O 	c #AA7B7F",
"P 	c #9B6F77",
"Q 	c #80616D",
"R 	c #CBA49C",
"S 	c #BD8989",
"T 	c #AB7B7F",
"U 	c #876670",
"V 	c #C49792",
"W 	c #C69B95",
"X 	c #C79D96",
"Y 	c #B08484",
"Z 	c #FBCAAE",
"` 	c #EDA799",
" .	c #FAEBCF",
"..	c #946572",
"+.	c #E28989",
"@.	c #D2727E",
"#.	c #8C8C70",
"$.	c #89A86B",
"%.	c #83C465",
"&.	c #75C766",
"*.	c #5CB26B",
"=.	c #50A16C",
"-.	c #589A68",
";.	c #558C67",
">.	c #46766A",
",.	c #47786C",
"'.	c #568F6A",
").	c #599D6B",
"!.	c #50A26D",
"~.	c #5A9B6F",
"{.	c #728B73",
"].	c #BA9A94",
"^.	c #AD707B",
"/.	c #926475",
"(.	c #A0BD73",
"_.	c #8CC66A",
":.	c #6FBC6B",
"<.	c #5CB16B",
"[.	c #5CA96A",
"}.	c #589A67",
"|.	c #4E8264",
"1.	c #446C62",
"2.	c #3D6264",
"3.	c #3E6667",
"4.	c #46776B",
"5.	c #508B6D",
"6.	c #5FA36D",
"7.	c #69A074",
"8.	c #9FCE6D",
"9.	c #80D163",
"0.	c #5CB56B",
"a.	c #47A06D",
"b.	c #549968",
"c.	c #558863",
"d.	c #43685E",
"e.	c #36505C",
"f.	c #364F5C",
"g.	c #375761",
"h.	c #3A6368",
"i.	c #47786B",
"j.	c #569C6B",
"k.	c #47A16E",
"l.	c #9ECF6D",
"m.	c #5BB56B",
"n.	c #3E986D",
"o.	c #438066",
"p.	c #395257",
"q.	c #334454",
"r.	c #334453",
"s.	c #354B58",
"t.	c #478A6E",
"u.	c #409B6F",
"v.	c #9AD268",
"w.	c #80D262",
"x.	c #3B946C",
"y.	c #376F65",
"z.	c #37515C",
"A.	c #344454",
"B.	c #323E4F",
"C.	c #344554",
"D.	c #395C65",
"E.	c #3C696C",
"F.	c #3D7F70",
"G.	c #3C9870",
"H.	c #92DA60",
"I.	c #334353",
"J.	c #323D4F",
"K.	c #344553",
"L.	c #395C64",
"M.	c #3B686C",
"N.	c #3C7E70",
"O.	c #3C9770",
"P.	c #84D461",
"Q.	c #46956B",
"R.	c #3C7164",
"S.	c #395A63",
"T.	c #3B6469",
"U.	c #407C6C",
"V.	c #47986D",
"W.	c #6CC168",
"X.	c #559667",
"Y.	c #447163",
"Z.	c #334354",
"`.	c #385761",
" +	c #395B63",
".+	c #457566",
"++	c #569768",
"@+	c #354C59",
"#+	c #334252",
"$+	c #36515D",
"%+	c #38555F",
"&+	c #456D62",
"*+	c #568C67",
"=+	c #86A0A8",
"-+	c #5D7889",
";+	c #43695E",
">+	c #3A5358",
",+	c #323F50",
"'+	c #324050",
")+	c #354957",
"!+	c #37525D",
"~+	c #3E6264",
"{+	c #47776A",
"]+	c #728896",
"^+	c #377065",
"/+	c #3B936B",
"(+	c #366D62",
"_+	c #385560",
":+	c #385660",
"<+	c #3A926A",
"[+	c #34675C",
"}+	c #323E50",
"|+	c #375560",
"1+	c #3A9169",
"2+	c #336459",
"3+	c #323C4F",
"4+	c #313D4F",
"5+	c #303A4F",
"6+	c #313F52",
"7+	c #334859",
"8+	c #344D5D",
"9+	c #36525F",
"0+	c #2F384F",
"a+	c #30394F",
"b+	c #3D5450",
"c+	c #4F7552",
"d+	c #568253",
"e+	c #568353",
"f+	c #568456",
"g+	c #57885C",
"h+	c #4F7652",
"i+	c #71AE57",
"j+	c #7FC45A",
"k+	c #7FC55A",
"l+	c #7FC55B",
"m+	c #7FC55D",
"n+	c #5BB56C",
"o+	c #389069",
"p+	c #326359",
"q+	c #313A4F",
"r+	c #30374E",
"s+	c #568153",
"t+	c #68A055",
"u+	c #82CB5A",
"v+	c #94E05E",
"w+	c #9EE561",
"x+	c #A3E762",
"y+	c #83CB5A",
"z+	c #8BD85C",
"A+	c #9FE661",
"B+	c #B6F268",
"C+	c #C2F86C",
"D+	c #6DC168",
"E+	c #53A567",
"F+	c #40805E",
"G+	c #3F6C57",
"H+	c #4F7B54",
"I+	c #69A156",
"J+	c #95E15E",
"K+	c #A4E863",
"L+	c #B0EE66",
"M+	c #C5F96D",
"N+	c #D0FF70",
"O+	c #85D561",
"P+	c #72C264",
"Q+	c #52A065",
"R+	c #71B85E",
"S+	c #8CD95C",
"T+	c #C1F76B",
"U+	c #C1F76C",
"V+	c #CCFD6F",
"W+	c #8CDB5E",
"X+	c #80D162",
"Y+	c #8FDE5D",
"Z+	c #90DF5D",
"`+	c #B6F168",
" @	c #C1F86B",
".@	c #5CB66B",
"+@	c #5BB66C",
"@@	c #8FDF5D",
"#@	c #9FE561",
"$@	c #73C666",
"%@	c #72C666",
"&@	c #54B06D",
"*@	c #7FCD60",
"=@	c #7FC85C",
"-@	c #7FC75C",
";@	c #8C6F75",
">@	c #46A86F",
",@	c #5AA966",
"'@	c #58925A",
")@	c #59A965",
"!@	c #58A865",
"~@	c #56925A",
"{@	c #82CA5A",
"]@	c #93E05E",
"^@	c #3CA070",
"/@	c #46A96F",
"(@	c #55B16D",
"_@	c #3A956A",
":@	c #367960",
"<@	c #377B60",
"[@	c #3A966B",
"}@	c #356759",
"|@	c #71AD57",
"1@	c #3B9A70",
"2@	c #3A9D6E",
"3@	c #37946B",
"4@	c #39956B",
"5@	c #379069",
"6@	c #336359",
"7@	c #3C5250",
"8@	c #4F7451",
"9@	c #3B8A6D",
"0@	c #55A76A",
"a@	c #73C465",
"b@	c #73C766",
"c@	c #55B26D",
"d@	c #3CA470",
"e@	c #3BA370",
"f@	c #3CA06F",
"g@	c #388263",
"h@	c #345D56",
"i@	c #558253",
"j@	c #B18686",
"k@	c #3A6F68",
"l@	c #458766",
"m@	c #55A769",
"n@	c #3CA370",
"o@	c #3A976B",
"p@	c #377A60",
"q@	c #345D57",
"r@	c #334951",
"s@	c #548153",
"t@	c #396A63",
"u@	c #3A8769",
"v@	c #3A9269",
"w@	c #303B50",
"x@	c #948183",
"y@	c #927C7E",
"z@	c #91787B",
"A@	c #436B63",
"B@	c #385D61",
"C@	c #376863",
"D@	c #376D62",
"E@	c #35685C",
"F@	c #356659",
"G@	c #356559",
"H@	c #313F53",
"I@	c #7FC65D",
"J@	c #C4B0A7",
"K@	c #BFA59D",
"L@	c #BD9F97",
"M@	c #B28787",
"N@	c #447466",
"O@	c #324154",
"P@	c #588B5F",
"Q@	c #7FC65E",
"R@	c #D4B9AF",
"S@	c #D0AFA5",
"T@	c #3E7B6D",
"U@	c #395963",
"V@	c #344353",
"W@	c #323B4E",
"X@	c #CAA39C",
"Y@	c #C89F99",
"Z@	c #3C7F70",
"`@	c #598B5F",
" #	c #C39390",
".#	c #303F54",
"+#	c #354E5C",
"@#	c #638F61",
"##	c #90CE62",
"$#	c #2F4054",
"%#	c #739863",
"&#	c #AADC69",
"*#	c #50906D",
"=#	c #3E6767",
"-#	c #385861",
";#	c #354C58",
">#	c #3C5B57",
",#	c #527E5C",
"'#	c #87B464",
")#	c #BAE96C",
"!#	c #68AB68",
"~#	c #334352",
"{#	c #324053",
"]#	c #4F7C5C",
"^#	c #72B15D",
"/#	c #9AD763",
"(#	c #BFF36C",
"_#	c #6DB766",
":#	c #56996B",
"<#	c #467E6F",
"[#	c #63B669",
"}#	c #47996E",
"|#	c #3F7E70",
"1#	c #598C5F",
"2#	c #80C75E",
"3#	c #3F9A70",
"4#	c #46896F",
"5#	c #3F6767",
"6#	c #385760",
"7#	c #375561",
"8#	c #598D63",
"9#	c #7FC65F",
"0#	c #559C6B",
"a#	c #365561",
"b#	c #5B9368",
"c#	c #80C861",
"d#	c #5BA96A",
"e#	c #55996B",
"f#	c #477F6E",
"g#	c #3C696D",
"h#	c #395F68",
"i#	c #375A65",
"j#	c #385A65",
"k#	c #426D67",
"l#	c #548A6A",
"m#	c #6CAD68",
"n#	c #83CE61",
"o#	c #8EDE5D",
"p#	c #83C466",
"q#	c #75C765",
"r#	c #407E70",
"s#	c #3D6D6F",
"t#	c #3B676C",
"u#	c #73B665",
"v#	c #84CE61",
"w#	c #8CD95E",
"  . + @ # @ @ @ @ $ % & & & & & & & & % $ @ @ $ % % $ @ @ @ @ @ @ @ @ @ @ @ @ @ @ @ @ @ @ @ @ @ @ @ @ @ @ @ @ @ @ # @ + .   * = ",
"- ; > , ' , , , , ) ! ~ ~ ~ ~ ~ ~ ~ ~ ! ) , , ) ! ! ) , , { ] ] { ' , , , , , , , , , , , , , , , , , , , , , , , ' , > ; - ^ / ",
"( _ : < < < < < < [ } | 1 | | | | 1 | } [ < < 2 } } 2 < < < < < < < < < < < < < < < < < < < < < < < < < < < < < < < < 3 4 5 6 7 ",
"8 : 9 0 a 0 0 0 0 b c d d d d d d d d c b 0 0 b c c b 0 0 0 0 0 0 0 0 0 0 0 0 0 0 0 0 0 0 0 0 0 0 0 0 0 0 0 0 0 0 a 0 9 : 8 + e ",
"] < 0 < < < < < < < < < < < < < < < < < < < < < < < < < < < < < < < < < < < < f g g h i g j k k k k k k j g l < < m n ] , o p q ",
"] < a < < < < < < < < < < < < < < < < < < < < < < < < < < < < < < < < < < < < g _ 4 g g 4 r s r r r r s r _ g < < n t u v w x q ",
"] < 0 < < < < < < < < < < < < < < < < < < < < < < < < < < < < < < < < < < < < g _ y z A y B C D D D D C B _ g < < E t F G H I q ",
"] < 0 < < < < < < < < < < < < < < < < < < < < < < < < < < < < < < < < < < < < h g A J J A K L M M M M L K g i < < m n N O P Q q ",
"] < 0 < < < < < < < < < < < < < < < < < < < < < < < < < < < < < < < < < < < < < < 2 } R 2 [ R | 1 1 | } [ < < < < < < h S T U q ",
"] < 0 < < < < < < < < < < < < < < < < < < < < < < < < < < < < < < < < < < < < < < V 2 2 V V W X X X X W V < < < < < < < h Y F q ",
"] < a < < < < < < < < < < < < < < < = = = = = = = = = = = = = = = = = = = = = = = = = = = = < < < < < < < < < < < < < a < ] # q ",
"] < 0 < < < < < < < < < < < < < = = Z ` = ` Z Z Z  .Z  . .Z ` = ` Z Z Z  .Z  . . .Z ` = ` Z = = < < < < < < < < < < < a < ] # q ",
"8 : 9 0 a 0 0 0 0 0 0 0 0 0 = = ` Z Z Z = Z Z Z Z Z Z Z Z Z Z = Z Z Z Z Z Z Z Z Z Z Z = Z Z Z ` = = 0 0 0 0 0 0 0 a 0 9 : 8 + e ",
"( _ : < < < < < < < < < < = `  . .Z Z Z = Z Z Z Z Z Z Z Z Z Z = Z Z Z Z Z Z Z Z Z Z Z = Z Z Z  . .` = < < < < < < < < : _ ( . 7 ",
"..; > , , , , , , , , , = `  .Z Z Z Z ` = ` Z Z Z Z Z Z Z Z ` = ` Z Z Z Z Z Z Z Z Z ` = ` Z Z Z Z  .` = , , , , , ' , > ; - ^ / ",
"  . + @ # @ @ @ @ @ @ = `  .Z Z Z ` +.+.= +.+.+.+.+.+.+.+.+.+.= +.+.+.+.+.+.+.+.+.+.+.= +.+.` Z Z Z  .` = @ @ @ @ # @ + .   * = ",
"% & & & & % $ @ @ @ @ = Z Z Z Z ` +.+.@.= = = = = #.$.%.&.*.=.-.;.>.,.'.).!.~.{.= = = = @.+.+.` Z Z Z Z = % $ @ @ @ @ @ @ @ @ @ ",
"].~ ~ ~ ~ ! ) , , , = ` Z Z Z ` +.+.= = = ^./.= = (._.:.<.[.}.|.1.2.3.4.5.).6.7.= /.^.= = = +.+.` Z Z Z ` = ) , , , , , ' { ] ] ",
"} | 1 1 | } [ < < < = Z Z Z Z +.+.= = = /.^.^.= = 8.9.0.a.b.c.d.e.f.g.h.i.'.j.k.= ^.^./.= = = +.+.Z Z Z Z = [ < < < < < < < < < ",
"c d d d d c b 0 0 = ` Z Z Z ` +.= = = = = = = = = l.9.m.n.o.d.p.q.r.s.g.3.,.t.u.= = = = = = = = +.` Z Z Z ` = 0 0 0 0 0 0 0 0 0 ",
"< < < < < < < < < = Z Z Z Z +.+.= = /.^.^./.= = = v.w.0.x.y.z.A.B.B.C.z.D.E.F.G.= = = = = = = = +.+.Z Z Z Z = < < < < < < < < < ",
"< < < < < < < < < = Z Z Z Z +.= = /.^.^.^.^.= = = H.9.m.x.y.f.I.J.J.K.e.L.M.N.O.= = = ^.^.^./.= = +.Z Z Z Z = < < < < < < < < < ",
"< < < < < < < < < = ` Z Z ` +.= = ^.^.^.^./.= = = P.&.<.Q.R.z.q.B.B.C.z.S.T.U.V.= = = /.^.^.^.= = +.` Z Z ` = < < < < < < < < < ",
"< < < < < < < < < = = = = = = = = = = = = = = = = W.<.[.X.Y.z.Z.B.B.C.z.`. +.+++= = = = = = = = = = = = = = = < < < < < < < < < ",
"< < < < < < < < < = ` Z Z ` +.= = = /.^.^.^./.= = 0.a.b.c.d.@+#+B.B.I.@+$+%+&+*+= = /.^.^./.= = = +.` Z Z ` = < < < < < < < < < ",
"< < < < < < < < < = Z Z Z Z +.= =+-+= ^.^.^.^.= = m.n.o.;+>+I.,+B.B.'+I.)+!+~+{+= = ^.^.^.= -+=+= +.Z Z Z Z = < < < < < < < < < ",
"< < < < < < < < < =  .Z Z Z +.= =+]+= ^.^.^.^.= = 0.x.y.z.A.B.B.B.B.B.B.C.z.D.E.= = ^.^.^.= ]+=+= +.Z Z Z  .= < < < < < < < < < ",
"< < < < < < < < < =  .Z Z Z +.= = = /.^.^.^.^.= = 0.x.y.f.I.B.B.B.B.B.B.K.e.D.M.= = ^.^.^./.= = = +.Z Z Z  .= < < < < < < < < < ",
"0 0 0 0 0 0 0 0 0 = Z Z Z Z +.= /.^.^.^.^.^./.= = 0.x.^+z.A.B.B.B.B.B.B.C.z.S.T.= = /.^.^.^.^./.= +.Z Z Z Z = 0 0 0 0 0 0 0 0 0 ",
"< < < < < < < < < =  .Z Z Z +.= = = = = = = = = = m.x.y.z.A.B.B.B.B.B.B.C.z.`. += = = = = = = = = +.Z Z Z  .= < < < < < < < < < ",
"{ ' , , , , , , , = Z Z Z Z +.= = = = = = = = = = m./+(+@+#+B.B.B.B.B.B.C.z._+:+= /.^.^.^.^.^./.= +.Z Z Z Z = , , , , , ' { ] ] ",
"@ @ @ @ @ @ @ @ @ = Z Z Z Z +.= /.^.^.^.^./.= = = m.<+[+I.}+B.B.B.B.B.B.C.z.|+:+= ^.^.^.^.^.^.^.= +.Z Z Z Z = @ @ @ @ @ @ @ @ @ ",
"  . + @ # @ @ $ % = Z Z Z Z +.= ^.^.^.^.^.^.= = = m.1+2+B.3+B.B.B.B.4+5+6+7+8+9+= ^.^.^.^.^.^.^.= +.Z Z Z Z = @ @ # @ + .   * = ",
"- ; > , ' , , ) ! = ` Z Z ` +.= /.^.^.^.^./.= = = m.1+2+B.3+B.B.B.B.B.B.'+I.)+!+= /.^.^.^.^.^./.= +.` Z Z ` = , , ' , > ; - ^ / ",
"( _ : < < < < 2 } = = = = = = = = = = = = = = = = m.1+2+B.3+4+5+0+a+b+c+d+e+f+g+= = = = = = = = = = = = = = = < < < < : _ ( . 7 ",
"8 : 9 0 a 0 0 b c = ` Z Z ` +.= /.^.^.^./.= = = = m.1+2+B.3+B.B.5+B.h+i+j+k+l+m+= = = = /.^.^./.= +.` Z Z ` = 0 0 a 0 9 : 8 + e ",
"] < 0 < < < < < < = Z Z Z Z +.= ^.^.^.^.^.= = = = n+o+p+q+r+b+c+s+e+t+u+v+w+x+x+= = = = ^.^.^.^.= +.Z Z Z Z = < < < < a < ] # q ",
"] < a < < < < < < =  .Z Z Z +.= ^.^.^.^.^.= = = = 0.1+2+5+3+h+i+j+k+y+z+A+B+C+C+= = = = ^.^.^.^.= +.Z Z Z  .= < < < < a < ] # q ",
"] < 0 < < < < < < =  .Z Z Z +.= /.^.^.^./.= = ]+]+D+E+F+G+H+I+y+J+A+x+K+L+M+N+N+]+]+= = /.^.^./.= +.Z Z Z  .= 0 0 a 0 < h Y F q ",
"] < 0 < < < < < < = Z Z Z Z +.= = = = = = = = -+]+O+P+E+Q+R+y+S+A+B+T+U+M+V+N+N+]+-+= = = = = = = +.Z Z Z Z = < < < < h S T U q ",
"] < 0 < < < < < < =  .Z Z Z +.= = = = = = = = -+]+W+X+0.m.X+Y+Z+A+`+ @C+T+T+M+V+]+-+= = = /.^./.= +.Z Z Z  .= , , ' , N O P Q q ",
"] < 0 < < < < < < = Z Z Z Z +.= = /.^.^.= = = -+]+O+9..@+@9.@@Z+J+#@K+K+x+x+L+M+]+-+= = = ^.^.^.= +.Z Z Z Z = @ v # @ F U H I q ",
"] < a < < < < < < = Z Z Z Z +.= = ^.^.^.= = = -+]+$@%@&@&@%@*@=@-@*@*@=@y+z+w+`+]+-+= = = ^.^.^.= +.Z Z Z Z = % ;@@ @ u u w x q ",
"] < 0 < < < < < < = Z Z Z Z +.= = /.^.^.= = = -+]+&@&@>@>@&@,@'@'@)@!@~@t+{@]@w+]+-+= = = /.^./.= +.Z Z Z Z = ! ) , , ] ' o p q ",
"8 : 9 0 a 0 0 0 0 = ` Z Z ` +.= = = = = = = = -+]+^@/@(@(@>@_@:@<@[@o+}@c+|@u+z+]+-+= = = = = = = +.` Z Z ` = } W a 0 9 : 8 + e ",
"( _ : < < < < < < = = = = = = = /.^.^.^./.= = -+]+1@&@$@$@&@2@3@4@2@5@6@7@8@t+y+]+-+= = = = = = = = = = = = = c b a 0 3 4 5 6 7 ",
"- ; > , ' , , , , = ` Z Z ` +.= ^.^.^.^.^.= = -+]+9@0@a@b@c@d@e@f@[@g@h@a+3+i@j+]+-+= = /.^./.= = +.` Z Z ` = j@, , , > ; - ^ / ",
"  . + @ # @ @ @ @ = Z Z Z Z +.= ^.^.^.^.^.= = -+]+k@l@m@(@/@d@n@o@p@q@r@0+5+s@j+]+-+= = ^.^.^.= = +.Z Z Z Z = @ @ # @ + .   * = ",
"@ @ @ @ @ @ @ @ @ =  .Z Z Z +.= /.^.^.^./.= = -+]+2.t@u@/+<+v@1+g@q@B.3+w@I.f+l+]+-+= = /.^./.= = +.Z Z Z  .= x@y@& z@% $ @ @ @ ",
"{ ' , , , , , , , =  .Z Z Z +.= = = = = = = = -+]+A@B@C@D@E@F@G@h@r@3+J.H@@+g+I@]+-+= = = = = = = +.Z Z Z  .= J@K@~ L@! ) { M@] ",
"< < < < < < < < < = Z Z Z Z +.= /.^.^.^./.= = -+]+N@ +`.z.C.B.B.B.B.B.B.O@z.P@Q@]+-+= /.^.^.^./.= +.Z Z Z Z = R@S@1 | } [ < < < ",
"0 0 0 0 0 0 0 0 0 =  .Z Z Z +.= = = /.^.^.= = = = T@T.U@f.V@3+W@3+J.B.B.O@z.P@Q@= = = ^.^./.= = = +.Z Z Z  .= X@Y@d d c b 0 0 0 ",
"< < < < < < < l g = Z Z Z Z +.= =+]+= ^.^.= = = = N.E.L.z.C.B.B.B.B.B.B.O@z.P@Q@= = = ^.^.= ]+=+= +.Z Z Z Z = < < < < < < < < < ",
"< < < < < < < g _ = Z Z Z Z +.= =+-+= ^.^.= = = = Z@E.D.z.C.B.B.B.B.B.B.O@z.`@Q@= = = ^.^.= -+=+= +.Z Z Z Z =  #< < < < < < < < ",
"< < < < < < < g _ = Z Z Z Z +.= = = /.^./.= = = = N.M.L.e.K.B.B.B.B.B.B..#+#@###= = = /.^./.= = = +.Z Z Z Z = < < < < < < < < < ",
"< < < < < < < i g = ` Z Z ` +.= = = = = = = = = = F.E.L.z.C.B.B.B.B.B.B.$#z.%#&#= = = = = = = = = +.` Z Z ` = < < < < < < < < < ",
"< < < < < < < < < = = = = = = = /.^.^.^.^./.= = = *#i.=#-#;#I.'+B.B.,+I.>#,#'#)#= = /.^.^.^.^./.= = = = = = = < < < < < < < < < ",
"< < < < < < < < < = ` Z Z ` +.= ^.^.^.^.^.^.= = = !#'.4.h.g.@+~#B.B.{#@+]#^#/#(#= = ^.^.^.^.^.^.= +.` Z Z ` = < < < < < < < < < ",
"< < < < < < < < < = Z Z Z Z +.= /.^.^.^.^./.= = = _#:#<#M.L.e.K.J.J.O@e.P@Q@#@B+= = ^.^.^.^.^.^.= +.Z Z Z Z = < < < < < < < < < ",
"< < < < < < < < < =  .Z Z Z +.= = = = = = = = = = [#}#|#E.D.z.C.B.B.O@z.1#2#J+A+= = /.^.^.^.^./.= +.Z Z Z  .= < < < < < < < < < ",
"0 0 0 0 0 0 0 0 0 =  .Z Z Z +.= = = = = = = = = = m.3#4#i.5#6#s.K.K.7+7#8#9#Y+Z+= = = = = = = = = +.Z Z Z  .= 0 0 0 0 0 0 0 0 0 ",
"< < < < < < < < < = Z Z Z Z +.= /.^.^.^./.= = = = 0.k.0#'.i.h.g.e.e.a#h.b#c#Y+@@= = = = = = = = = +.Z Z Z Z = < < < < < < < < < ",
"{ ' , , , , , , , = ` Z Z ` +.= ^.^.^.^.^.= = = = :.<.d#e#f#g#h#i#j#k#l#m#n#o#Y+= = = /.^.^.^.= = +.` Z Z ` = , , , , , ' { ] ] ",
"@ @ @ @ @ @ @ @ @ = +.+.+.+.@.= /.^.^.^./.= = = = p#q#<.}#r#s#g#t#E.l#u#v#w#Y+Y+= = = ^.^.^./.= = @.+.+.+.+.= @ @ @ @ @ @ @ @ @ "};
