/* XPM */
static char * exit4_xpm[] = {
"64 64 407 2",
"  	c #7D5E6B",
". 	c #84636E",
"+ 	c #896972",
"@ 	c #8B6C73",
"# 	c #8B6C74",
"$ 	c #8C7076",
"% 	c #8F7679",
"& 	c #91797B",
"* 	c #735A68",
"= 	c #6E5967",
"- 	c #946672",
"; 	c #A4727A",
"> 	c #AD8082",
", 	c #B18786",
"' 	c #B18787",
") 	c #B48E8B",
"! 	c #BA9A93",
"~ 	c #BDA098",
"{ 	c #B18887",
"] 	c #B28887",
"^ 	c #7C5D6A",
"/ 	c #6C5866",
"( 	c #A5737B",
"_ 	c #B78285",
": 	c #C08E8C",
"< 	c #C39490",
"[ 	c #C69A94",
"} 	c #CBA59C",
"| 	c #CDAAA0",
"1 	c #CEAAA0",
"2 	c #C69A95",
"3 	c #C08F8D",
"4 	c #B88285",
"5 	c #A5747B",
"6 	c #85636E",
"7 	c #6D5967",
"8 	c #AE8183",
"9 	c #C3938F",
"0 	c #C49490",
"a 	c #C49590",
"b 	c #C59792",
"c 	c #C79B95",
"d 	c #C89D96",
"e 	c #6D5867",
"f 	c #C1928F",
"g 	c #BF8E8C",
"h 	c #C1918E",
"i 	c #C1928E",
"j 	c #BD8B8B",
"k 	c #BD8B8A",
"l 	c #C2928F",
"m 	c #BF918E",
"n 	c #B68B89",
"o 	c #A37D7F",
"p 	c #846870",
"q 	c #6D5866",
"r 	c #B37B81",
"s 	c #B37A81",
"t 	c #9C787C",
"u 	c #8B6D74",
"v 	c #8A6C73",
"w 	c #846871",
"x 	c #765F6A",
"y 	c #B98587",
"z 	c #C29491",
"A 	c #C29591",
"B 	c #B47E83",
"C 	c #B68286",
"D 	c #B78588",
"E 	c #B78B89",
"F 	c #8A6A72",
"G 	c #866670",
"H 	c #80626D",
"I 	c #755C69",
"J 	c #C9A39B",
"K 	c #C0928F",
"L 	c #C59D97",
"M 	c #C8A39B",
"N 	c #AF8384",
"O 	c #AA7B7F",
"P 	c #9B6F77",
"Q 	c #80616D",
"R 	c #CBA49C",
"S 	c #BD8989",
"T 	c #AB7B7F",
"U 	c #876670",
"V 	c #C49792",
"W 	c #C69B95",
"X 	c #C79D96",
"Y 	c #B08484",
"Z 	c #FBCAAE",
"` 	c #EDA799",
" .	c #FAEBCF",
"..	c #946572",
"+.	c #E28989",
"@.	c #D2727E",
"#.	c #9DD067",
"$.	c #9EE561",
"%.	c #95E15E",
"&.	c #8CD95E",
"*.	c #84CE61",
"=.	c #73B665",
"-.	c #548968",
";.	c #3B666A",
">.	c #3A646A",
",.	c #3C686C",
"'.	c #3D6C6F",
").	c #3C7B70",
"!.	c #3C8E70",
"~.	c #5A986F",
"{.	c #7E9870",
"].	c #BA9A94",
"^.	c #AD707B",
"/.	c #926475",
"(.	c #BDE273",
"_.	c #B6F168",
":.	c #83CE61",
"<.	c #6BAC68",
"[.	c #548868",
"}.	c #416862",
"|.	c #36535E",
"1.	c #395C63",
"2.	c #3B7170",
"3.	c #3C7A70",
"4.	c #5F986E",
"5.	c #89BD6D",
"6.	c #C9ED75",
"7.	c #C1F86B",
"8.	c #A3E763",
"9.	c #80C861",
"0.	c #599267",
"a.	c #395F65",
"b.	c #344D5B",
"c.	c #344755",
"d.	c #36505B",
"e.	c #3A666C",
"f.	c #55916D",
"g.	c #73BD66",
"h.	c #C4F56F",
"i.	c #C2F86C",
"j.	c #A4E863",
"k.	c #7FC65E",
"l.	c #57895E",
"m.	c #354E5B",
"n.	c #314255",
"o.	c #334151",
"p.	c #344654",
"q.	c #385B63",
"r.	c #47866F",
"s.	c #55A76D",
"t.	c #C5F96D",
"u.	c #A4E862",
"v.	c #80C65B",
"w.	c #578658",
"x.	c #313D51",
"y.	c #323E4F",
"z.	c #37545E",
"A.	c #3C7F70",
"B.	c #3C9870",
"C.	c #CBFD6F",
"D.	c #C1F86C",
"E.	c #A3E762",
"F.	c #7FC55B",
"G.	c #568658",
"H.	c #3B7E70",
"I.	c #3B9770",
"J.	c #B3ED69",
"K.	c #94D665",
"L.	c #72B25F",
"M.	c #4F7A59",
"N.	c #344553",
"O.	c #313D50",
"P.	c #334050",
"Q.	c #3A746C",
"R.	c #3C8D6F",
"S.	c #B0EE66",
"T.	c #95D665",
"U.	c #73B069",
"V.	c #538665",
"W.	c #3F5F59",
"X.	c #323D4F",
"Y.	c #323F4F",
"Z.	c #344655",
"`.	c #36515B",
" +	c #376063",
".+	c #3B766C",
"++	c #395E64",
"@+	c #334857",
"#+	c #86A0A8",
"$+	c #5D7889",
"%+	c #7EC55D",
"&+	c #56895E",
"*+	c #314053",
"=+	c #37535E",
"-+	c #728896",
";+	c #7FC55C",
">+	c #568557",
",+	c #303C51",
"'+	c #364F5B",
")+	c #7FC45A",
"!+	c #568354",
"~+	c #303A4F",
"{+	c #558253",
"]+	c #30394F",
"^+	c #334051",
"/+	c #323C4F",
"(+	c #323C4E",
"_+	c #333F50",
":+	c #344555",
"<+	c #323B4E",
"[+	c #334951",
"}+	c #345D56",
"|+	c #346559",
"1+	c #336559",
"2+	c #33655A",
"3+	c #35685D",
"4+	c #345D57",
"5+	c #388263",
"6+	c #3A9169",
"7+	c #3A9269",
"8+	c #3A926A",
"9+	c #548153",
"0+	c #2F364E",
"a+	c #346459",
"b+	c #347860",
"c+	c #38956B",
"d+	c #45A76F",
"e+	c #54B16D",
"f+	c #5BB56B",
"g+	c #39966B",
"h+	c #3B9F6E",
"i+	c #73C767",
"j+	c #80D163",
"k+	c #80D263",
"l+	c #83CB5A",
"m+	c #68A055",
"n+	c #507B54",
"o+	c #3F6C57",
"p+	c #367960",
"q+	c #3A966B",
"r+	c #46A86F",
"s+	c #55B16D",
"t+	c #5CB66B",
"u+	c #6DC168",
"v+	c #85D561",
"w+	c #8FDE5D",
"x+	c #90DF5D",
"y+	c #8BD85C",
"z+	c #82CB5A",
"A+	c #72B85E",
"B+	c #52A065",
"C+	c #3A9F6E",
"D+	c #80D162",
"E+	c #84D461",
"F+	c #8CDB5E",
"G+	c #ACEC65",
"H+	c #9FE561",
"I+	c #94E05E",
"J+	c #3BA370",
"K+	c #3AA370",
"L+	c #72C666",
"M+	c #7FD063",
"N+	c #BAF369",
"O+	c #9FE661",
"P+	c #5AB56C",
"Q+	c #3CA370",
"R+	c #3AA270",
"S+	c #6CC168",
"T+	c #C2F86B",
"U+	c #7FD062",
"V+	c #58B46B",
"W+	c #3A9D6E",
"X+	c #38946B",
"Y+	c #459B69",
"Z+	c #54AC6B",
"`+	c #459C69",
" @	c #73C666",
".@	c #8C6F75",
"+@	c #5AB46B",
"@@	c #39956B",
"#@	c #357860",
"$@	c #528D5C",
"%@	c #71BB60",
"&@	c #518C5C",
"*@	c #37946B",
"=@	c #44A76F",
"-@	c #B4ED69",
";@	c #BBF469",
">@	c #ADEC65",
",@	c #95DC65",
"'@	c #73C469",
")@	c #52A367",
"!@	c #3F7F5F",
"~@	c #59935A",
"{@	c #7FC85C",
"]@	c #7FC559",
"^@	c #588553",
"/@	c #368063",
"(@	c #BAF469",
"_@	c #B3EE69",
":@	c #72C264",
"<@	c #52A467",
"[@	c #5BAB66",
"}@	c #7FCD60",
"|@	c #7FC459",
"1@	c #588452",
"2@	c #334851",
"3@	c #325A56",
"4@	c #72B361",
"5@	c #95D460",
"6@	c #B3EC67",
"7@	c #B6F268",
"8@	c #84D561",
"9@	c #67BB67",
"0@	c #76C05F",
"a@	c #71AE57",
"b@	c #507652",
"c@	c #336459",
"d@	c #B18686",
"e@	c #507F5F",
"f@	c #72A75B",
"g@	c #94D460",
"h@	c #96E25E",
"i@	c #8CDC5F",
"j@	c #77C15F",
"k@	c #639C57",
"l@	c #4F7652",
"m@	c #3D5550",
"n@	c #313B4F",
"o@	c #336359",
"p@	c #517A57",
"q@	c #71AE59",
"r@	c #7FC55A",
"s@	c #948183",
"t@	c #927C7E",
"u@	c #91787B",
"v@	c #36525E",
"w@	c #3E5B56",
"x@	c #4E7653",
"y@	c #568253",
"z@	c #578353",
"A@	c #588353",
"B@	c #C4B0A7",
"C@	c #BFA59D",
"D@	c #BD9F97",
"E@	c #B28787",
"F@	c #396163",
"G@	c #33655B",
"H@	c #D4B9AF",
"I@	c #D0AFA5",
"J@	c #3B756C",
"K@	c #354D5B",
"L@	c #324153",
"M@	c #303B50",
"N@	c #313D4F",
"O@	c #333E50",
"P@	c #CAA39C",
"Q@	c #C89F99",
"R@	c #3D7F70",
"S@	c #333F51",
"T@	c #35695F",
"U@	c #C39390",
"V@	c #35685E",
"W@	c #39916A",
"X@	c #395B63",
"Y@	c #334453",
"Z@	c #334B53",
"`@	c #36615B",
" #	c #428362",
".#	c #54A668",
"+#	c #3C676C",
"@#	c #344B57",
"##	c #335C57",
"$#	c #388364",
"%#	c #53A568",
"&#	c #73C365",
"*#	c #3D8A70",
"=#	c #3D7B70",
"-#	c #3D7270",
";#	c #3B6569",
">#	c #364F5A",
",#	c #3C9B70",
"'#	c #3D8E70",
")#	c #37535D",
"!#	c #324050",
"~#	c #3A936A",
"{#	c #5BB56C",
"]#	c #4DA272",
"^#	c #3C9770",
"/#	c #3D7E70",
"(#	c #344554",
"_#	c #366E64",
":#	c #3A936C",
"<#	c #5BB46C",
"[#	c #68A077",
"}#	c #3A796C",
"|#	c #3C966F",
"1#	c #5CB56B",
"2#	c #6B9C76",
"3#	c #386063",
"4#	c #458F6F",
"5#	c #55A96D",
"6#	c #5A9771",
"7#	c #3CA070",
"8#	c #3A756C",
"9#	c #54A96D",
"0#	c #73C466",
"  . + @ # @ @ @ @ $ % & & & & & & & & % $ @ @ $ % % $ @ @ @ @ @ @ @ @ @ @ @ @ @ @ @ @ @ @ @ @ @ @ @ @ @ @ @ @ @ @ # @ + .   * = ",
"- ; > , ' , , , , ) ! ~ ~ ~ ~ ~ ~ ~ ~ ! ) , , ) ! ! ) , , { ] ] { ' , , , , , , , , , , , , , , , , , , , , , , , ' , > ; - ^ / ",
"( _ : < < < < < < [ } | 1 | | | | 1 | } [ < < 2 } } 2 < < < < < < < < < < < < < < < < < < < < < < < < < < < < < < < < 3 4 5 6 7 ",
"8 : 9 0 a 0 0 0 0 b c d d d d d d d d c b 0 0 b c c b 0 0 0 0 0 0 0 0 0 0 0 0 0 0 0 0 0 0 0 0 0 0 0 0 0 0 0 0 0 0 a 0 9 : 8 + e ",
"] < 0 < < < < < < < < < < < < < < < < < < < < < < < < < < < < < < < < < < < < f g g h i g j k k k k k k j g l < < m n ] , o p q ",
"] < a < < < < < < < < < < < < < < < < < < < < < < < < < < < < < < < < < < < < g _ 4 g g 4 r s r r r r s r _ g < < n t u v w x q ",
"] < 0 < < < < < < < < < < < < < < < < < < < < < < < < < < < < < < < < < < < < g _ y z A y B C D D D D C B _ g < < E t F G H I q ",
"] < 0 < < < < < < < < < < < < < < < < < < < < < < < < < < < < < < < < < < < < h g A J J A K L M M M M L K g i < < m n N O P Q q ",
"] < 0 < < < < < < < < < < < < < < < < < < < < < < < < < < < < < < < < < < < < < < 2 } R 2 [ R | 1 1 | } [ < < < < < < h S T U q ",
"] < 0 < < < < < < < < < < < < < < < < < < < < < < < < < < < < < < < < < < < < < < V 2 2 V V W X X X X W V < < < < < < < h Y F q ",
"] < a < < < < < < < < < < < < < < < = = = = = = = = = = = = = = = = = = = = = = = = = = = = < < < < < < < < < < < < < a < ] # q ",
"] < 0 < < < < < < < < < < < < < = = Z ` = ` Z Z Z  .Z  . .Z ` = ` Z Z Z  .Z  . . .Z ` = ` Z = = < < < < < < < < < < < a < ] # q ",
"8 : 9 0 a 0 0 0 0 0 0 0 0 0 = = ` Z Z Z = Z Z Z Z Z Z Z Z Z Z = Z Z Z Z Z Z Z Z Z Z Z = Z Z Z ` = = 0 0 0 0 0 0 0 a 0 9 : 8 + e ",
"( _ : < < < < < < < < < < = `  . .Z Z Z = Z Z Z Z Z Z Z Z Z Z = Z Z Z Z Z Z Z Z Z Z Z = Z Z Z  . .` = < < < < < < < < : _ ( . 7 ",
"..; > , , , , , , , , , = `  .Z Z Z Z ` = ` Z Z Z Z Z Z Z Z ` = ` Z Z Z Z Z Z Z Z Z ` = ` Z Z Z Z  .` = , , , , , ' , > ; - ^ / ",
"  . + @ # @ @ @ @ @ @ = `  .Z Z Z ` +.+.= +.+.+.+.+.+.+.+.+.+.= +.+.+.+.+.+.+.+.+.+.+.= +.+.` Z Z Z  .` = @ @ @ @ # @ + .   * = ",
"% & & & & % $ @ @ @ @ = Z Z Z Z ` +.+.@.= = = = = #.$.%.&.*.=.-.;.>.,.'.).!.~.{.= = = = @.+.+.` Z Z Z Z = % $ @ @ @ @ @ @ @ @ @ ",
"].~ ~ ~ ~ ! ) , , , = ` Z Z Z ` +.+.= = = ^./.= = (._.$.:.<.[.}.|.|.1.,.2.3.4.5.= /.^.= = = +.+.` Z Z Z ` = ) , , , , , ' { ] ] ",
"} | 1 1 | } [ < < < = Z Z Z Z +.+.= = = /.^.^.= = 6.7.8.9.0.a.b.c.c.d.a.e.'.f.g.= ^.^./.= = = +.+.Z Z Z Z = [ < < < < < < < < < ",
"c d d d d c b 0 0 = ` Z Z Z ` +.= = = = = = = = = h.i.j.k.l.m.n.o.o.p.d.q.,.r.s.= = = = = = = = +.` Z Z Z ` = 0 0 0 0 0 0 0 0 0 ",
"< < < < < < < < < = Z Z Z Z +.+.= = /.^.^./.= = = t.i.u.v.w.c.x.y.y.o.c.z.;.A.B.= = = = = = = = +.+.Z Z Z Z = < < < < < < < < < ",
"< < < < < < < < < = Z Z Z Z +.= = /.^.^.^.^.= = = C.D.E.F.G.c.x.y.y.o.c.z.;.H.I.= = = ^.^.^./.= = +.Z Z Z Z = < < < < < < < < < ",
"< < < < < < < < < = ` Z Z ` +.= = ^.^.^.^./.= = = t.J.K.L.M.N.O.y.y.P.N.d.a.Q.R.= = = /.^.^.^.= = +.` Z Z ` = < < < < < < < < < ",
"< < < < < < < < < = = = = = = = = = = = = = = = = S.T.U.V.W.o.X.y.y.Y.o.Z.`. +.+= = = = = = = = = = = = = = = < < < < < < < < < ",
"< < < < < < < < < = ` Z Z ` +.= = = /.^.^.^./.= = 8.9.0.++@+y.X.y.y.y.y.o.c.|.;.= = /.^.^./.= = = +.` Z Z ` = < < < < < < < < < ",
"< < < < < < < < < = Z Z Z Z +.= #+$+= ^.^.^.^.= = E.%+&+m.*+y.y.y.y.y.y.o.c.=+;.= = ^.^.^.= $+#+= +.Z Z Z Z = < < < < < < < < < ",
"< < < < < < < < < =  .Z Z Z +.= #+-+= ^.^.^.^.= = j.;+w.c.x.y.y.y.y.y.y.o.c.z.;.= = ^.^.^.= -+#+= +.Z Z Z  .= < < < < < < < < < ",
"< < < < < < < < < =  .Z Z Z +.= = = /.^.^.^.^.= = j.F.G.c.x.y.y.y.y.y.y.o.c.z.;.= = ^.^.^./.= = = +.Z Z Z  .= < < < < < < < < < ",
"0 0 0 0 0 0 0 0 0 = Z Z Z Z +.= /.^.^.^.^.^./.= = 8.F.>+N.,+y.y.y.y.y.y.P.N.'+a.= = /.^.^.^.^./.= +.Z Z Z Z = 0 0 0 0 0 0 0 0 0 ",
"< < < < < < < < < =  .Z Z Z +.= = = = = = = = = = E.)+!+o.~+y.y.y.y.y.y.Y.o.Z.`.= = = = = = = = = +.Z Z Z  .= < < < < < < < < < ",
"{ ' , , , , , , , = Z Z Z Z +.= = = = = = = = = = E.)+{+y.]+y.y.y.y.y.y.y.y.^+c.= /.^.^.^.^.^./.= +.Z Z Z Z = , , , , , ' { ] ] ",
"@ @ @ @ @ @ @ @ @ = Z Z Z Z +.= /.^.^.^.^./.= = = E.)+{+y.]+y.y.y.y.y.y.y.y.^+c.= ^.^.^.^.^.^.^.= +.Z Z Z Z = @ @ @ @ @ @ @ @ @ ",
"  . + @ # @ @ $ % = Z Z Z Z +.= ^.^.^.^.^.^.= = = E.)+{+y.]+y.y.y.y.X./+(+/+_+:+= ^.^.^.^.^.^.^.= +.Z Z Z Z = @ @ # @ + .   * = ",
"- ; > , ' , , ) ! = ` Z Z ` +.= /.^.^.^.^./.= = = E.)+{+y.]+y.y.y.y.y.y.y.y.o.c.= /.^.^.^.^.^./.= +.` Z Z ` = , , ' , > ; - ^ / ",
"( _ : < < < < 2 } = = = = = = = = = = = = = = = = E.)+{+y.]+X./+<+/+[+}+|+1+2+3+= = = = = = = = = = = = = = = < < < < : _ ( . 7 ",
"8 : 9 0 a 0 0 b c = ` Z Z ` +.= /.^.^.^./.= = = = E.)+{+y.]+y.y./+y.4+5+6+7+6+8+= = = = /.^.^./.= +.` Z Z ` = 0 0 a 0 9 : 8 + e ",
"] < 0 < < < < < < = Z Z Z Z +.= ^.^.^.^.^.= = = = E.)+9+]+0+[+}+a+1+b+c+d+e+f+f+= = = = ^.^.^.^.= +.Z Z Z Z = < < < < a < ] # q ",
"] < a < < < < < < =  .Z Z Z +.= ^.^.^.^.^.= = = = 8.)+{+/+]+4+5+6+7+g+h+e+i+j+k+= = = = ^.^.^.^.= +.Z Z Z  .= < < < < a < ] # q ",
"] < 0 < < < < < < =  .Z Z Z +.= /.^.^.^./.= = -+-+E.l+m+n+o+p+q+r+s+f+t+u+v+w+x+-+-+= = /.^.^./.= +.Z Z Z  .= 0 0 a 0 < h Y F q ",
"] < 0 < < < < < < = Z Z Z Z +.= = = = = = = = $+-+j.y+z+A+B+g+C+e+i+j+D+E+F+x+x+-+$+= = = = = = = +.Z Z Z Z = < < < < h S T U q ",
"] < 0 < < < < < < =  .Z Z Z +.= = = = = = = = $+-+G+H+I+D+f+J+K+e+L+M+j+j+D+E+F+-+$+= = = /.^./.= +.Z Z Z  .= , , ' , N O P Q q ",
"] < 0 < < < < < < = Z Z Z Z +.= = /.^.^.= = = $+-+N+_.O+k+P+Q+R+r+s+t+t+f+f+S+E+-+$+= = = ^.^.^.= +.Z Z Z Z = @ v # @ F U H I q ",
"] < a < < < < < < = Z Z Z Z +.= = ^.^.^.= = = $+-+T+T+E.U+V+W+X+Y+Z+Z+`+g+h+e+ @-+$+= = = ^.^.^.= +.Z Z Z Z = % .@@ @ u u w x q ",
"] < 0 < < < < < < = Z Z Z Z +.= = /.^.^.= = = $+-+T+T+j.j++@@@#@$@%@%@&@b+*@=@e+-+$+= = = /.^./.= +.Z Z Z Z = ! ) , , ] ' o p q ",
"8 : 9 0 a 0 0 0 0 = ` Z Z ` +.= = = = = = = = $+-+-@;@>@,@'@)@!@~@{@]@^@}+/@@@h+-+$+= = = = = = = +.` Z Z ` = } W a 0 9 : 8 + e ",
"( _ : < < < < < < = = = = = = = /.^.^.^./.= = $+-+T.G+(@_@,@:@<@[@}@|@1@2@3@b+g+-+$+= = = = = = = = = = = = = c b a 0 3 4 5 6 7 ",
"- ; > , ' , , , , = ` Z Z ` +.= ^.^.^.^.^.= = $+-+4@5@6@7@O+8@S+9@0@a@b@/+~+c@6+-+$+= = /.^./.= = +.` Z Z ` = d@, , , > ; - ^ / ",
"  . + @ # @ @ @ @ = Z Z Z Z +.= ^.^.^.^.^.= = $+-+e@f@g@H+h@i@8@j@k@l@m@<+n@o@6+-+$+= = ^.^.^.= = +.Z Z Z Z = @ @ # @ + .   * = ",
"@ @ @ @ @ @ @ @ @ =  .Z Z Z +.= /.^.^.^./.= = $+-+z.p@q@)+r@r@)+a@l@y.~+/+y.c@6+-+$+= = /.^./.= = +.Z Z Z  .= s@t@& u@% $ @ @ @ ",
"{ ' , , , , , , , =  .Z Z Z +.= = = = = = = = $+-+v@w@x@y@z@A@A@b@m@~+n@/+y.c@6+-+$+= = = = = = = +.Z Z Z  .= B@C@~ D@! ) { E@] ",
"< < < < < < < < < = Z Z Z Z +.= /.^.^.^./.= = $+-+F@`.Z.o.Y.y.y.y.y.y.y.X.o.G@6+-+$+= /.^.^.^./.= +.Z Z Z Z = H@I@1 | } [ < < < ",
"0 0 0 0 0 0 0 0 0 =  .Z Z Z +.= = = /.^.^.= = = = J@a.K@L@M@]+]+~+N@y.y.O@N.3+8+= = = ^.^./.= = = +.Z Z Z  .= P@Q@d d c b 0 0 0 ",
"< < < < < < < l g = Z Z Z Z +.= #+-+= ^.^.= = = = R@;.z.c.o.y.y.y.y.y.y.S@c.T@8+= = = ^.^.= -+#+= +.Z Z Z Z = < < < < < < < < < ",
"< < < < < < < g _ = Z Z Z Z +.= #+$+= ^.^.= = = = R@;.z.c.o.y.y.y.y.y.y.S@c.T@8+= = = ^.^.= $+#+= +.Z Z Z Z = U@< < < < < < < < ",
"< < < < < < < g _ = Z Z Z Z +.= = = /.^./.= = = = R@;.z.c.o.y.y.y.y.y.y.S@Z.V@W@= = = /.^./.= = = +.Z Z Z Z = < < < < < < < < < ",
"< < < < < < < i g = ` Z Z ` +.= = = = = = = = = = R@;.z.c.o.y.y.y.y.y.y.S@c.T@8+= = = = = = = = = +.` Z Z ` = < < < < < < < < < ",
"< < < < < < < < < = = = = = = = /.^.^.^.^./.= = = R@,.X@d.Y@y.y.y.y.X.y.Z@`@ #.#= = /.^.^.^.^./.= = = = = = = < < < < < < < < < ",
"< < < < < < < < < = ` Z Z ` +.= ^.^.^.^.^.^.= = = R@'.+#++@#y.X.y.y./+y.##$#%#&#= = ^.^.^.^.^.^.= +.` Z Z ` = < < < < < < < < < ",
"< < < < < < < < < = Z Z Z Z +.= /.^.^.^.^./.= = = *#=#-#;#>#P.y.y.y./+P.2+6+f+j+= = ^.^.^.^.^.^.= +.Z Z Z Z = < < < < < < < < < ",
"< < < < < < < < < =  .Z Z Z +.= = = = = = = = = = ,#'#=#;.)#N.!#y.y.O@N.3+~#{#k+= = /.^.^.^.^./.= +.Z Z Z  .= < < < < < < < < < ",
"0 0 0 0 0 0 0 0 0 =  .Z Z Z +.= = = = = = = = = = ]#^#/#,.X@d.p.o.o.(#d._#:#<#j+= = = = = = = = = +.Z Z Z  .= 0 0 0 0 0 0 0 0 0 ",
"< < < < < < < < < = Z Z Z Z +.= /.^.^.^./.= = = = [#B.R@'.+#a.d.c.c.'+a.}#|#1#D+= = = = = = = = = +.Z Z Z Z = < < < < < < < < < ",
"{ ' , , , , , , , = ` Z Z ` +.= ^.^.^.^.^.= = = = 2#,#*#=#-#,.1.z.z.3#J@4#5#S+8@= = = /.^.^.^.= = +.` Z Z ` = , , , , , ' { ] ] ",
"@ @ @ @ @ @ @ @ @ = +.+.+.+.@.= /.^.^.^./.= = = = 6#7#,#!.=#'.,.;.;.8#R.9#0#E+F+= = = ^.^.^./.= = @.+.+.+.+.= @ @ @ @ @ @ @ @ @ "};
