/* XPM */
static char * exit22_xpm[] = {
"64 64 333 2",
"  	c #7D5E6B",
". 	c #84636E",
"+ 	c #896972",
"@ 	c #8B6C73",
"# 	c #8B6C74",
"$ 	c #8C7076",
"% 	c #8F7679",
"& 	c #91797B",
"* 	c #735A68",
"= 	c #6E5967",
"- 	c #946672",
"; 	c #A4727A",
"> 	c #AD8082",
", 	c #B18786",
"' 	c #B18787",
") 	c #B48E8B",
"! 	c #BA9A93",
"~ 	c #BDA098",
"{ 	c #B18887",
"] 	c #B28887",
"^ 	c #7C5D6A",
"/ 	c #6C5866",
"( 	c #A5737B",
"_ 	c #B78285",
": 	c #C08E8C",
"< 	c #C39490",
"[ 	c #C69A94",
"} 	c #CBA59C",
"| 	c #CDAAA0",
"1 	c #CEAAA0",
"2 	c #C69A95",
"3 	c #C08F8D",
"4 	c #B88285",
"5 	c #A5747B",
"6 	c #85636E",
"7 	c #6D5967",
"8 	c #AE8183",
"9 	c #C3938F",
"0 	c #C49490",
"a 	c #C49590",
"b 	c #C59792",
"c 	c #C79B95",
"d 	c #C89D96",
"e 	c #6D5867",
"f 	c #C1928F",
"g 	c #BF8E8C",
"h 	c #C1918E",
"i 	c #C1928E",
"j 	c #BD8B8B",
"k 	c #BD8B8A",
"l 	c #C2928F",
"m 	c #BF918E",
"n 	c #B68B89",
"o 	c #A37D7F",
"p 	c #846870",
"q 	c #6D5866",
"r 	c #B37B81",
"s 	c #B37A81",
"t 	c #9C787C",
"u 	c #8B6D74",
"v 	c #8A6C73",
"w 	c #846871",
"x 	c #765F6A",
"y 	c #B98587",
"z 	c #C29491",
"A 	c #C29591",
"B 	c #B47E83",
"C 	c #B68286",
"D 	c #B78588",
"E 	c #B78B89",
"F 	c #8A6A72",
"G 	c #866670",
"H 	c #80626D",
"I 	c #755C69",
"J 	c #C9A39B",
"K 	c #C0928F",
"L 	c #C59D97",
"M 	c #C8A39B",
"N 	c #AF8384",
"O 	c #AA7B7F",
"P 	c #9B6F77",
"Q 	c #80616D",
"R 	c #CBA49C",
"S 	c #BD8989",
"T 	c #AB7B7F",
"U 	c #876670",
"V 	c #C49792",
"W 	c #C69B95",
"X 	c #C79D96",
"Y 	c #B08484",
"Z 	c #FBCAAE",
"` 	c #EDA799",
" .	c #FAEBCF",
"..	c #946572",
"+.	c #E28989",
"@.	c #D2727E",
"#.	c #95E15E",
"$.	c #8CD95E",
"%.	c #84CE61",
"&.	c #73B665",
"*.	c #548968",
"=.	c #3B666A",
"-.	c #3A646A",
";.	c #3C686C",
">.	c #3D6C6F",
",.	c #3C7B70",
"'.	c #3C8E70",
").	c #BA9A94",
"!.	c #AD707B",
"~.	c #926475",
"{.	c #9EE561",
"].	c #83CE61",
"^.	c #6BAC68",
"/.	c #548868",
"(.	c #416862",
"_.	c #36535E",
":.	c #395C63",
"<.	c #3B7170",
"[.	c #3C7A70",
"}.	c #A3E763",
"|.	c #80C861",
"1.	c #599267",
"2.	c #395F65",
"3.	c #344D5B",
"4.	c #344755",
"5.	c #36505B",
"6.	c #3A666C",
"7.	c #A4E863",
"8.	c #7FC65E",
"9.	c #57895E",
"0.	c #354E5B",
"a.	c #314255",
"b.	c #334151",
"c.	c #344654",
"d.	c #385B63",
"e.	c #A4E862",
"f.	c #80C65B",
"g.	c #578658",
"h.	c #313D51",
"i.	c #323E4F",
"j.	c #37545E",
"k.	c #A3E762",
"l.	c #7FC55B",
"m.	c #568658",
"n.	c #94D665",
"o.	c #72B25F",
"p.	c #4F7A59",
"q.	c #344553",
"r.	c #313D50",
"s.	c #334050",
"t.	c #73B069",
"u.	c #538665",
"v.	c #3F5F59",
"w.	c #323D4F",
"x.	c #323F4F",
"y.	c #344655",
"z.	c #36515B",
"A.	c #395E64",
"B.	c #334857",
"C.	c #86A0A8",
"D.	c #5D7889",
"E.	c #56895E",
"F.	c #314053",
"G.	c #728896",
"H.	c #568557",
"I.	c #303C51",
"J.	c #568354",
"K.	c #303A4F",
"L.	c #558253",
"M.	c #30394F",
"N.	c #323C4F",
"O.	c #323C4E",
"P.	c #323B4E",
"Q.	c #334951",
"R.	c #345D56",
"S.	c #346559",
"T.	c #336559",
"U.	c #345D57",
"V.	c #388263",
"W.	c #3A9169",
"X.	c #3A9269",
"Y.	c #548153",
"Z.	c #2F364E",
"`.	c #346459",
" +	c #347860",
".+	c #38956B",
"++	c #45A76F",
"@+	c #54B16D",
"#+	c #39966B",
"$+	c #3B9F6E",
"%+	c #73C767",
"&+	c #68A055",
"*+	c #507B54",
"=+	c #3F6C57",
"-+	c #367960",
";+	c #3A966B",
">+	c #46A86F",
",+	c #55B16D",
"'+	c #5BB56B",
")+	c #5CB66B",
"!+	c #6DC168",
"~+	c #85D561",
"{+	c #82CB5A",
"]+	c #72B85E",
"^+	c #52A065",
"/+	c #3A9F6E",
"(+	c #80D163",
"_+	c #80D162",
":+	c #84D461",
"<+	c #8CDB5E",
"[+	c #94E05E",
"}+	c #3BA370",
"|+	c #3AA370",
"1+	c #72C666",
"2+	c #7FD063",
"3+	c #9FE661",
"4+	c #80D263",
"5+	c #5AB56C",
"6+	c #3CA370",
"7+	c #3AA270",
"8+	c #7FD062",
"9+	c #58B46B",
"0+	c #3A9D6E",
"a+	c #38946B",
"b+	c #459B69",
"c+	c #54AC6B",
"d+	c #459C69",
"e+	c #8C6F75",
"f+	c #5AB46B",
"g+	c #39956B",
"h+	c #357860",
"i+	c #528D5C",
"j+	c #71BB60",
"k+	c #518C5C",
"l+	c #37946B",
"m+	c #ADEC65",
"n+	c #95DC65",
"o+	c #73C469",
"p+	c #52A367",
"q+	c #3F7F5F",
"r+	c #59935A",
"s+	c #7FC85C",
"t+	c #7FC559",
"u+	c #588553",
"v+	c #368063",
"w+	c #BAF469",
"x+	c #B3EE69",
"y+	c #72C264",
"z+	c #52A467",
"A+	c #5BAB66",
"B+	c #7FCD60",
"C+	c #7FC459",
"D+	c #588452",
"E+	c #334851",
"F+	c #325A56",
"G+	c #B3EC67",
"H+	c #B6F268",
"I+	c #84D561",
"J+	c #6CC168",
"K+	c #67BB67",
"L+	c #76C05F",
"M+	c #71AE57",
"N+	c #507652",
"O+	c #B18686",
"P+	c #94D460",
"Q+	c #9FE561",
"R+	c #96E25E",
"S+	c #8CDC5F",
"T+	c #77C15F",
"U+	c #639C57",
"V+	c #4F7652",
"W+	c #3D5550",
"X+	c #313B4F",
"Y+	c #71AE59",
"Z+	c #7FC45A",
"`+	c #7FC55A",
" @	c #948183",
".@	c #927C7E",
"+@	c #91787B",
"@@	c #4E7653",
"#@	c #568253",
"$@	c #578353",
"%@	c #588353",
"&@	c #C4B0A7",
"*@	c #BFA59D",
"=@	c #BD9F97",
"-@	c #B28787",
";@	c #D4B9AF",
">@	c #D0AFA5",
",@	c #354D5B",
"'@	c #324153",
")@	c #303B50",
"!@	c #313D4F",
"~@	c #333E50",
"{@	c #CAA39C",
"]@	c #C89F99",
"^@	c #333F51",
"/@	c #C39390",
"(@	c #395B63",
"_@	c #334453",
":@	c #334B53",
"<@	c #36615B",
"[@	c #3C676C",
"}@	c #344B57",
"|@	c #335C57",
"1@	c #388364",
"2@	c #3D7270",
"3@	c #3B6569",
"4@	c #364F5A",
"5@	c #33655A",
"6@	c #3D7B70",
"7@	c #37535D",
"8@	c #324050",
"9@	c #35685D",
"0@	c #3A936A",
"a@	c #3D7E70",
"b@	c #344554",
"c@	c #366E64",
"d@	c #3A936C",
"e@	c #3D7F70",
"f@	c #364F5B",
"g@	c #3A796C",
"h@	c #3C966F",
"i@	c #3D8A70",
"j@	c #386063",
"k@	c #3B756C",
"l@	c #458F6F",
"m@	c #55A96D",
"n@	c #3C9B70",
"o@	c #3A756C",
"p@	c #3C8D6F",
"q@	c #54A96D",
"r@	c #73C466",
"  . + @ # @ @ @ @ $ % & & & & & & & & % $ @ @ $ % % $ @ @ @ @ @ @ @ @ @ @ @ @ @ @ @ @ @ @ @ @ @ @ @ @ @ @ @ @ @ @ # @ + .   * = ",
"- ; > , ' , , , , ) ! ~ ~ ~ ~ ~ ~ ~ ~ ! ) , , ) ! ! ) , , { ] ] { ' , , , , , , , , , , , , , , , , , , , , , , , ' , > ; - ^ / ",
"( _ : < < < < < < [ } | 1 | | | | 1 | } [ < < 2 } } 2 < < < < < < < < < < < < < < < < < < < < < < < < < < < < < < < < 3 4 5 6 7 ",
"8 : 9 0 a 0 0 0 0 b c d d d d d d d d c b 0 0 b c c b 0 0 0 0 0 0 0 0 0 0 0 0 0 0 0 0 0 0 0 0 0 0 0 0 0 0 0 0 0 0 a 0 9 : 8 + e ",
"] < 0 < < < < < < < < < < < < < < < < < < < < < < < < < < < < < < < < < < < < f g g h i g j k k k k k k j g l < < m n ] , o p q ",
"] < a < < < < < < < < < < < < < < < < < < < < < < < < < < < < < < < < < < < < g _ 4 g g 4 r s r r r r s r _ g < < n t u v w x q ",
"] < 0 < < < < < < < < < < < < < < < < < < < < < < < < < < < < < < < < < < < < g _ y z A y B C D D D D C B _ g < < E t F G H I q ",
"] < 0 < < < < < < < < < < < < < < < < < < < < < < < < < < < < < < < < < < < < h g A J J A K L M M M M L K g i < < m n N O P Q q ",
"] < 0 < < < < < < < < < < < < < < < < < < < < < < < < < < < < < < < < < < < < < < 2 } R 2 [ R | 1 1 | } [ < < < < < < h S T U q ",
"] < 0 < < < < < < < < < < < < < < < < < < < < < < < < < < < < < < < < < < < < < < V 2 2 V V W X X X X W V < < < < < < < h Y F q ",
"] < a < < < < < < < < < < < < < < < = = = = = = = = = = = = = = = = = = = = = = = = = = = = < < < < < < < < < < < < < a < ] # q ",
"] < 0 < < < < < < < < < < < < < = = Z ` = ` Z Z Z  .Z  . .Z ` = ` Z Z Z  .Z  . . .Z ` = ` Z = = < < < < < < < < < < < a < ] # q ",
"8 : 9 0 a 0 0 0 0 0 0 0 0 0 = = ` Z Z Z = Z Z Z Z Z Z Z Z Z Z = Z Z Z Z Z Z Z Z Z Z Z = Z Z Z ` = = 0 0 0 0 0 0 0 a 0 9 : 8 + e ",
"( _ : < < < < < < < < < < = `  . .Z Z Z = Z Z Z Z Z Z Z Z Z Z = Z Z Z Z Z Z Z Z Z Z Z = Z Z Z  . .` = < < < < < < < < : _ ( . 7 ",
"..; > , , , , , , , , , = `  .Z Z Z Z ` = ` Z Z Z Z Z Z Z Z ` = ` Z Z Z Z Z Z Z Z Z ` = ` Z Z Z Z  .` = , , , , , ' , > ; - ^ / ",
"  . + @ # @ @ @ @ @ @ = `  .Z Z Z ` +.+.= +.+.+.+.+.+.+.+.+.+.= +.+.+.+.+.+.+.+.+.+.+.= +.+.` Z Z Z  .` = @ @ @ @ # @ + .   * = ",
"% & & & & % $ @ @ @ @ = Z Z Z Z ` +.+.@.= = = = = = = #.$.%.&.*.=.-.;.>.,.'.= = = = = = @.+.+.` Z Z Z Z = % $ @ @ @ @ @ @ @ @ @ ",
").~ ~ ~ ~ ! ) , , , = ` Z Z Z ` +.+.= = = !.~.= = = = {.].^./.(._._.:.;.<.[.= = !.!.!.= = = +.+.` Z Z Z ` = ) , , , , , ' { ] ] ",
"} | 1 1 | } [ < < < = Z Z Z Z +.+.= = = ~.!.!.= = = = }.|.1.2.3.4.4.5.2.6.>.= = ~.!.!.~.= = = +.+.Z Z Z Z = [ < < < < < < < < < ",
"c d d d d c b 0 0 = ` Z Z Z ` +.= = = = = = = = = = = 7.8.9.0.a.b.b.c.5.d.;.= = = = = = = = = = +.` Z Z Z ` = 0 0 0 0 0 0 0 0 0 ",
"< < < < < < < < < = Z Z Z Z +.+.= = ~.!.!.!.~.= = = = e.f.g.4.h.i.i.b.4.j.=.= = = = = = = = = = +.+.Z Z Z Z = < < < < < < < < < ",
"< < < < < < < < < = Z Z Z Z +.= = ~.!.!.!.!.!.= = = = k.l.m.4.h.i.i.b.4.j.=.= = = !.!.!.!.!.~.= = +.Z Z Z Z = < < < < < < < < < ",
"< < < < < < < < < = ` Z Z ` +.= = !.!.!.!.!.~.= = = = n.o.p.q.r.i.i.s.q.5.2.= = = ~.!.!.!.!.!.= = +.` Z Z ` = < < < < < < < < < ",
"< < < < < < < < < = = = = = = = = = = = = = = = = = = t.u.v.b.w.i.i.x.b.y.z.= = = = = = = = = = = = = = = = = < < < < < < < < < ",
"< < < < < < < < < = ` Z Z ` +.= = = ~.!.!.!.!.!.~.= = 1.A.B.i.w.i.i.i.i.b.4.= = ~.!.!.!.!.~.= = = +.` Z Z ` = < < < < < < < < < ",
"< < < < < < < < < = Z Z Z Z +.= C.D.= !.!.!.!.!.!.= = E.0.F.i.i.i.i.i.i.b.4.= = !.!.!.!.!.= D.C.= +.Z Z Z Z = < < < < < < < < < ",
"< < < < < < < < < =  .Z Z Z +.= C.G.= !.!.!.!.!.!.= = g.4.h.i.i.i.i.i.i.b.4.= = !.!.!.!.!.= G.C.= +.Z Z Z  .= < < < < < < < < < ",
"< < < < < < < < < =  .Z Z Z +.= = = ~.!.!.!.!.!.!.= = m.4.h.i.i.i.i.i.i.b.4.= = !.!.!.!.!.~.= = = +.Z Z Z  .= < < < < < < < < < ",
"0 0 0 0 0 0 0 0 0 = Z Z Z Z +.= ~.!.!.!.!.!.!.!.~.= = H.q.I.i.i.i.i.i.i.s.q.= = ~.!.!.!.!.!.!.~.= +.Z Z Z Z = 0 0 0 0 0 0 0 0 0 ",
"< < < < < < < < < =  .Z Z Z +.= = = = = = = = = = = = J.b.K.i.i.i.i.i.i.x.b.= = = = = = = = = = = +.Z Z Z  .= < < < < < < < < < ",
"{ ' , , , , , , , = Z Z Z Z +.= = = = = = = = = = = = L.i.M.i.i.i.i.i.i.i.i.= ~.!.!.!.!.!.!.!.~.= +.Z Z Z Z = , , , , , ' { ] ] ",
"@ @ @ @ @ @ @ @ @ = Z Z Z Z +.= ~.!.!.!.!.!.!.~.= = = L.i.M.i.i.i.i.i.i.i.i.= !.!.!.!.!.!.!.!.!.= +.Z Z Z Z = @ @ @ @ @ @ @ @ @ ",
"  . + @ # @ @ $ % = Z Z Z Z +.= !.!.!.!.!.!.!.!.= = = L.i.M.i.i.i.i.w.N.O.N.= !.!.!.!.!.!.!.!.!.= +.Z Z Z Z = @ @ # @ + .   * = ",
"- ; > , ' , , ) ! = ` Z Z ` +.= ~.!.!.!.!.!.!.~.= = = L.i.M.i.i.i.i.i.i.i.i.= ~.!.!.!.!.!.!.!.~.= +.` Z Z ` = , , ' , > ; - ^ / ",
"( _ : < < < < 2 } = = = = = = = = = = = = = = = = = = L.i.M.w.N.P.N.Q.R.S.T.= = = = = = = = = = = = = = = = = < < < < : _ ( . 7 ",
"8 : 9 0 a 0 0 b c = ` Z Z ` +.= ~.!.!.!.!.~.= = = = = L.i.M.i.i.N.i.U.V.W.X.= = = = ~.!.!.!.!.~.= +.` Z Z ` = 0 0 a 0 9 : 8 + e ",
"] < 0 < < < < < < = Z Z Z Z +.= !.!.!.!.!.!.= = = = = Y.M.Z.Q.R.`.T. +.+++@+= = = = !.!.!.!.!.!.= +.Z Z Z Z = < < < < a < ] # q ",
"] < a < < < < < < =  .Z Z Z +.= !.!.!.!.!.!.= = = = = L.N.M.U.V.W.X.#+$+@+%+= = = = !.!.!.!.!.!.= +.Z Z Z  .= < < < < a < ] # q ",
"] < 0 < < < < < < =  .Z Z Z +.= ~.!.!.!.!.~.= = = G.G.&+*+=+-+;+>+,+'+)+!+~+G.G.= = ~.!.!.!.!.~.= +.Z Z Z  .= 0 0 a 0 < h Y F q ",
"] < 0 < < < < < < = Z Z Z Z +.= = = = = = = = = = D.G.{+]+^+#+/+@+%+(+_+:+<+G.D.= = = = = = = = = +.Z Z Z Z = < < < < h S T U q ",
"] < 0 < < < < < < =  .Z Z Z +.= = = = = = = = = = D.G.[+_+'+}+|+@+1+2+(+(+_+G.D.= = = ~.!.!.!.~.= +.Z Z Z  .= , , ' , N O P Q q ",
"] < 0 < < < < < < = Z Z Z Z +.= = ~.!.!.!.!.~.= = D.G.3+4+5+6+7+>+,+)+)+'+'+G.D.= = = !.!.!.!.!.= +.Z Z Z Z = @ v # @ F U H I q ",
"] < a < < < < < < = Z Z Z Z +.= = !.!.!.!.!.!.= = D.G.k.8+9+0+a+b+c+c+d+#+$+G.D.= = = !.!.!.!.!.= +.Z Z Z Z = % e+@ @ u u w x q ",
"] < 0 < < < < < < = Z Z Z Z +.= = ~.!.!.!.!.~.= = D.G.7.(+f+g+h+i+j+j+k+ +l+G.D.= = = ~.!.!.!.~.= +.Z Z Z Z = ! ) , , ] ' o p q ",
"8 : 9 0 a 0 0 0 0 = ` Z Z ` +.= = = = = = = = = = D.G.m+n+o+p+q+r+s+t+u+R.v+G.D.= = = = = = = = = +.` Z Z ` = } W a 0 9 : 8 + e ",
"( _ : < < < < < < = = = = = = = ~.!.!.!.!.!.~.= = D.G.w+x+n+y+z+A+B+C+D+E+F+G.D.= = = = = = = = = = = = = = = c b a 0 3 4 5 6 7 ",
"- ; > , ' , , , , = ` Z Z ` +.= !.!.!.!.!.!.!.= = D.G.G+H+3+I+J+K+L+M+N+N.K.G.D.= = = ~.!.!.~.= = +.` Z Z ` = O+, , , > ; - ^ / ",
"  . + @ # @ @ @ @ = Z Z Z Z +.= !.!.!.!.!.!.!.= = D.G.P+Q+R+S+I+T+U+V+W+P.X+G.D.= = = !.!.!.!.= = +.Z Z Z Z = @ @ # @ + .   * = ",
"@ @ @ @ @ @ @ @ @ =  .Z Z Z +.= ~.!.!.!.!.!.~.= = D.G.Y+Z+`+`+Z+M+V+i.K.N.i.G.D.= = = ~.!.!.~.= = +.Z Z Z  .=  @.@& +@% $ @ @ @ ",
"{ ' , , , , , , , =  .Z Z Z +.= = = = = = = = = = D.G.@@#@$@%@%@N+W+K.X+N.i.G.D.= = = = = = = = = +.Z Z Z  .= &@*@~ =@! ) { -@] ",
"< < < < < < < < < = Z Z Z Z +.= ~.!.!.!.!.!.~.= = D.G.y.b.x.i.i.i.i.i.i.w.b.G.D.= = ~.!.!.!.!.~.= +.Z Z Z Z = ;@>@1 | } [ < < < ",
"0 0 0 0 0 0 0 0 0 =  .Z Z Z +.= = = ~.!.!.!.!.= = = = ,@'@)@M.M.K.!@i.i.~@q.= = = = !.!.!.~.= = = +.Z Z Z  .= {@]@d d c b 0 0 0 ",
"< < < < < < < l g = Z Z Z Z +.= C.G.= !.!.!.!.= = = = j.4.b.i.i.i.i.i.i.^@4.= = = = !.!.!.= G.C.= +.Z Z Z Z = < < < < < < < < < ",
"< < < < < < < g _ = Z Z Z Z +.= C.D.= !.!.!.!.= = = = j.4.b.i.i.i.i.i.i.^@4.= = = = !.!.!.= D.C.= +.Z Z Z Z = /@< < < < < < < < ",
"< < < < < < < g _ = Z Z Z Z +.= = = ~.!.!.!.~.= = = = j.4.b.i.i.i.i.i.i.^@y.= = = = ~.!.!.~.= = = +.Z Z Z Z = < < < < < < < < < ",
"< < < < < < < i g = ` Z Z ` +.= = = = = = = = = = = = j.4.b.i.i.i.i.i.i.^@4.= = = = = = = = = = = +.` Z Z ` = < < < < < < < < < ",
"< < < < < < < < < = = = = = = = ~.!.!.!.!.!.!.~.= = = (@5._@i.i.i.i.w.i.:@<@= = ~.!.!.!.!.!.!.~.= = = = = = = < < < < < < < < < ",
"< < < < < < < < < = ` Z Z ` +.= !.!.!.!.!.!.!.!.= = = [@A.}@i.w.i.i.N.i.|@1@= = !.!.!.!.!.!.!.!.= +.` Z Z ` = < < < < < < < < < ",
"< < < < < < < < < = Z Z Z Z +.= ~.!.!.!.!.!.!.~.= = = 2@3@4@s.i.i.i.N.s.5@W.= = !.!.!.!.!.!.!.!.= +.Z Z Z Z = < < < < < < < < < ",
"< < < < < < < < < =  .Z Z Z +.= = = = = = = = = = = = 6@=.7@q.8@i.i.~@q.9@0@= = ~.!.!.!.!.!.!.~.= +.Z Z Z  .= < < < < < < < < < ",
"0 0 0 0 0 0 0 0 0 =  .Z Z Z +.= = = = = = = = = = = = a@;.(@5.c.b.b.b@5.c@d@= = = = = = = = = = = +.Z Z Z  .= 0 0 0 0 0 0 0 0 0 ",
"< < < < < < < < < = Z Z Z Z +.= ~.!.!.!.!.!.!.!.~.= = e@>.[@2.5.4.4.f@2.g@h@= = = = = = = = = = = +.Z Z Z Z = < < < < < < < < < ",
"{ ' , , , , , , , = ` Z Z ` +.= !.!.!.!.!.!.!.!.!.= = i@6@2@;.:.j.j.j@k@l@m@= = = ~.!.!.!.!.!.= = +.` Z Z ` = , , , , , ' { ] ] ",
"@ @ @ @ @ @ @ @ @ = +.+.+.+.@.= ~.!.!.!.!.!.!.!.~.= = n@'.6@>.;.=.=.o@p@q@r@= = = !.!.!.!.!.~.= = @.+.+.+.+.= @ @ @ @ @ @ @ @ @ "};
