/* XPM */
static char * exit19_xpm[] = {
"64 64 219 2",
"  	c #7D5E6B",
". 	c #84636E",
"+ 	c #896972",
"@ 	c #8B6C73",
"# 	c #8B6C74",
"$ 	c #8C7076",
"% 	c #8F7679",
"& 	c #91797B",
"* 	c #735A68",
"= 	c #6E5967",
"- 	c #946672",
"; 	c #A4727A",
"> 	c #AD8082",
", 	c #B18786",
"' 	c #B18787",
") 	c #B48E8B",
"! 	c #BA9A93",
"~ 	c #BDA098",
"{ 	c #B18887",
"] 	c #B28887",
"^ 	c #7C5D6A",
"/ 	c #6C5866",
"( 	c #A5737B",
"_ 	c #B78285",
": 	c #C08E8C",
"< 	c #C39490",
"[ 	c #C69A94",
"} 	c #CBA59C",
"| 	c #CDAAA0",
"1 	c #CEAAA0",
"2 	c #C69A95",
"3 	c #C08F8D",
"4 	c #B88285",
"5 	c #A5747B",
"6 	c #85636E",
"7 	c #6D5967",
"8 	c #AE8183",
"9 	c #C3938F",
"0 	c #C49490",
"a 	c #C49590",
"b 	c #C59792",
"c 	c #C79B95",
"d 	c #C89D96",
"e 	c #6D5867",
"f 	c #C1928F",
"g 	c #BF8E8C",
"h 	c #C1918E",
"i 	c #C1928E",
"j 	c #BD8B8B",
"k 	c #BD8B8A",
"l 	c #C2928F",
"m 	c #BF918E",
"n 	c #B68B89",
"o 	c #A37D7F",
"p 	c #846870",
"q 	c #6D5866",
"r 	c #B37B81",
"s 	c #B37A81",
"t 	c #9C787C",
"u 	c #8B6D74",
"v 	c #8A6C73",
"w 	c #846871",
"x 	c #765F6A",
"y 	c #B98587",
"z 	c #C29491",
"A 	c #C29591",
"B 	c #B47E83",
"C 	c #B68286",
"D 	c #B78588",
"E 	c #B78B89",
"F 	c #8A6A72",
"G 	c #866670",
"H 	c #80626D",
"I 	c #755C69",
"J 	c #C9A39B",
"K 	c #C0928F",
"L 	c #C59D97",
"M 	c #C8A39B",
"N 	c #AF8384",
"O 	c #AA7B7F",
"P 	c #9B6F77",
"Q 	c #80616D",
"R 	c #CBA49C",
"S 	c #BD8989",
"T 	c #AB7B7F",
"U 	c #876670",
"V 	c #C49792",
"W 	c #C69B95",
"X 	c #C79D96",
"Y 	c #B08484",
"Z 	c #FBCAAE",
"` 	c #EDA799",
" .	c #FAEBCF",
"..	c #946572",
"+.	c #E28989",
"@.	c #D2727E",
"#.	c #BA9A94",
"$.	c #926475",
"%.	c #AD707B",
"&.	c #589A67",
"*.	c #4E8264",
"=.	c #446C62",
"-.	c #3D6264",
";.	c #3E6667",
">.	c #558863",
",.	c #43685E",
"'.	c #36505C",
").	c #364F5C",
"!.	c #375761",
"~.	c #395257",
"{.	c #334454",
"].	c #334453",
"^.	c #354B58",
"/.	c #37515C",
"(.	c #344454",
"_.	c #323E4F",
":.	c #344554",
"<.	c #B98080",
"[.	c #334353",
"}.	c #323D4F",
"|.	c #344553",
"1.	c #334354",
"2.	c #354C59",
"3.	c #334252",
"4.	c #86A0A8",
"5.	c #728896",
"6.	c #5D7889",
"7.	c #323F50",
"8.	c #324050",
"9.	c #313D4F",
"0.	c #303A4F",
"a.	c #2F384F",
"b.	c #30394F",
"c.	c #3D5450",
"d.	c #4F7652",
"e.	c #4F7552",
"f.	c #568153",
"g.	c #568353",
"h.	c #68A055",
"i.	c #71AE57",
"j.	c #7FC45A",
"k.	c #7FC55A",
"l.	c #83CB5A",
"m.	c #69A156",
"n.	c #95E15E",
"o.	c #9FE661",
"p.	c #A3E762",
"q.	c #8CD95C",
"r.	c #B6F268",
"s.	c #C1F76B",
"t.	c #8FDE5D",
"u.	c #90DF5D",
"v.	c #B6F168",
"w.	c #C1F86B",
"x.	c #8FDF5D",
"y.	c #9FE561",
"z.	c #A4E863",
"A.	c #7FCD60",
"B.	c #7FC85C",
"C.	c #7FC75C",
"D.	c #8C6F75",
"E.	c #5AA966",
"F.	c #58925A",
"G.	c #59A965",
"H.	c #58A865",
"I.	c #3A956A",
"J.	c #367960",
"K.	c #377B60",
"L.	c #3A966B",
"M.	c #389069",
"N.	c #3A9D6E",
"O.	c #37946B",
"P.	c #39956B",
"Q.	c #379069",
"R.	c #3CA470",
"S.	c #3BA370",
"T.	c #3CA06F",
"U.	c #388263",
"V.	c #B18686",
"W.	c #3CA370",
"X.	c #3A976B",
"Y.	c #377A60",
"Z.	c #345D57",
"`.	c #3A9269",
" +	c #3A9169",
".+	c #948183",
"++	c #927C7E",
"@+	c #91787B",
"#+	c #356659",
"$+	c #356559",
"%+	c #345D56",
"&+	c #334951",
"*+	c #323C4F",
"=+	c #C4B0A7",
"-+	c #BFA59D",
";+	c #BD9F97",
">+	c #B28787",
",+	c #D4B9AF",
"'+	c #D0AFA5",
")+	c #323B4E",
"!+	c #CAA39C",
"~+	c #C89F99",
"{+	c #C39390",
"]+	c #334352",
"^+	c #324053",
"/+	c #324154",
"(+	c #385760",
"_+	c #334859",
":+	c #3A6368",
"<+	c #365561",
"[+	c #3C696D",
"}+	c #395F68",
"|+	c #375A65",
"1+	c #385A65",
"2+	c #426D67",
"3+	c #3D6D6F",
"4+	c #3B676C",
"5+	c #3C696C",
"6+	c #548A6A",
"  . + @ # @ @ @ @ $ % & & & & & & & & % $ @ @ $ % % $ @ @ @ @ @ @ @ @ @ @ @ @ @ @ @ @ @ @ @ @ @ @ @ @ @ @ @ @ @ @ # @ + .   * = ",
"- ; > , ' , , , , ) ! ~ ~ ~ ~ ~ ~ ~ ~ ! ) , , ) ! ! ) , , { ] ] { ' , , , , , , , , , , , , , , , , , , , , , , , ' , > ; - ^ / ",
"( _ : < < < < < < [ } | 1 | | | | 1 | } [ < < 2 } } 2 < < < < < < < < < < < < < < < < < < < < < < < < < < < < < < < < 3 4 5 6 7 ",
"8 : 9 0 a 0 0 0 0 b c d d d d d d d d c b 0 0 b c c b 0 0 0 0 0 0 0 0 0 0 0 0 0 0 0 0 0 0 0 0 0 0 0 0 0 0 0 0 0 0 a 0 9 : 8 + e ",
"] < 0 < < < < < < < < < < < < < < < < < < < < < < < < < < < < < < < < < < < < f g g h i g j k k k k k k j g l < < m n ] , o p q ",
"] < a < < < < < < < < < < < < < < < < < < < < < < < < < < < < < < < < < < < < g _ 4 g g 4 r s r r r r s r _ g < < n t u v w x q ",
"] < 0 < < < < < < < < < < < < < < < < < < < < < < < < < < < < < < < < < < < < g _ y z A y B C D D D D C B _ g < < E t F G H I q ",
"] < 0 < < < < < < < < < < < < < < < < < < < < < < < < < < < < < < < < < < < < h g A J J A K L M M M M L K g i < < m n N O P Q q ",
"] < 0 < < < < < < < < < < < < < < < < < < < < < < < < < < < < < < < < < < < < < < 2 } R 2 [ R | 1 1 | } [ < < < < < < h S T U q ",
"] < 0 < < < < < < < < < < < < < < < < < < < < < < < < < < < < < < < < < < < < < < V 2 2 V V W X X X X W V < < < < < < < h Y F q ",
"] < a < < < < < < < < < < < < < < < = = = = = = = = = = = = = = = = = = = = = = = = = = = = < < < < < < < < < < < < < a < ] # q ",
"] < 0 < < < < < < < < < < < < < = = Z ` = ` Z Z Z  .Z  . .Z ` = ` Z Z Z  .Z  . . .Z ` = ` Z = = < < < < < < < < < < < a < ] # q ",
"8 : 9 0 a 0 0 0 0 0 0 0 0 0 = = ` Z Z Z = Z Z Z Z Z Z Z Z Z Z = Z Z Z Z Z Z Z Z Z Z Z = Z Z Z ` = = 0 0 0 0 0 0 0 a 0 9 : 8 + e ",
"( _ : < < < < < < < < < < = `  . .Z Z Z = Z Z Z Z Z Z Z Z Z Z = Z Z Z Z Z Z Z Z Z Z Z = Z Z Z  . .` = < < < < < < < < : _ ( . 7 ",
"..; > , , , , , , , , , = `  .Z Z Z Z ` = ` Z Z Z Z Z Z Z Z ` = ` Z Z Z Z Z Z Z Z Z ` = ` Z Z Z Z  .` = , , , , , ' , > ; - ^ / ",
"  . + @ # @ @ @ @ @ @ = `  .Z Z Z ` +.+.= +.+.+.+.+.+.+.+.+.+.= +.+.+.+.+.+.+.+.+.+.+.= +.+.` Z Z Z  .` = @ @ @ @ # @ + .   * = ",
"% & & & & % $ @ @ @ @ = Z Z Z Z ` +.+.@.= = = = = = = = = = = = = = = = = = = = = = = = @.+.+.` Z Z Z Z = % $ @ @ @ @ @ @ @ @ @ ",
"#.~ ~ ~ ~ ! ) , , , = ` Z Z Z ` +.+.= = = $.%.%.%.%.$.$.= = &.*.=.-.;.= = $.$.%.%.%.$.= = = +.+.` Z Z Z ` = ) , , , , , ' { ] ] ",
"} | 1 1 | } [ < < < = Z Z Z Z +.+.= = = $.%.%.%.%.%.$.$.= = >.,.'.).!.= = $.$.%.%.%.%.$.= = = +.+.Z Z Z Z = [ < < < < < < < < < ",
"c d d d d c b 0 0 = ` Z Z Z ` +.= = = = = = = = = = = = = = ,.~.{.].^.= = = = = = = = = = = = = +.` Z Z Z ` = 0 0 0 0 0 0 0 0 0 ",
"< < < < < < < < < = Z Z Z Z +.+.= = $.%.%.%.%.%.%.%.$.$.= = /.(._._.:.= = = = = = = = = = = = = +.+.Z Z Z Z = < < < < < < < < < ",
"< < < < < < < < < = Z Z Z Z +.= = $.%.%.<.< < < < %.$.$.= = ).[.}.}.|.= = $.%.%.< < < < <.%.$.= = +.Z Z Z Z = < < < < < < < < < ",
"< < < < < < < < < = ` Z Z ` +.= = %.%.%.< < < < < %.$.$.= = /.{._._.:.= = %.%.%.< < < < < %.%.= = +.` Z Z ` = < < < < < < < < < ",
"< < < < < < < < < = = = = = = = = = = = = = = = = = = = = = /.1._._.:.= = = = = = = = = = = = = = = = = = = = < < < < < < < < < ",
"< < < < < < < < < = ` Z Z ` +.= = = = %.< < < < < < < %.$.= 2.3._._.[.= $.%.< < < < < < %.= = = = +.` Z Z ` = < < < < < < < < < ",
"< < < < < < < < < = Z Z Z Z +.= 4.5.6.= < < < < < < < %.%.= [.7._._.8.= %.%.< < < < < < = 6.5.4.= +.Z Z Z Z = < < < < < < < < < ",
"< < < < < < < < < =  .Z Z Z +.= 4.5.5.= < < < < < < < %.%.= _._._._._.= %.%.< < < < < < = 5.5.4.= +.Z Z Z  .= < < < < < < < < < ",
"< < < < < < < < < =  .Z Z Z +.= = = = %.< < < < < < < %.%.= _._._._._.= %.%.< < < < < < %.= = = = +.Z Z Z  .= < < < < < < < < < ",
"0 0 0 0 0 0 0 0 0 = Z Z Z Z +.= %.< < < < < < < < < < %.$.= _._._._._.= $.%.< < < < < < < < < %.= +.Z Z Z Z = 0 0 0 0 0 0 0 0 0 ",
"< < < < < < < < < =  .Z Z Z +.= = = = = = = = = = = = = = = _._._._._.= = = = = = = = = = = = = = +.Z Z Z  .= < < < < < < < < < ",
"{ ' , , , , , , , = Z Z Z Z +.= = = = = = = = = = = = = = = _._._._._.= $.%.< < < < < < < < < %.= +.Z Z Z Z = , , , , , ' { ] ] ",
"@ @ @ @ @ @ @ @ @ = Z Z Z Z +.= $.%.%.%.%.%.%.%.%.%.%.$.$.= _._._._._.= %.%.< < < < < < < < < < = +.Z Z Z Z = @ @ @ @ @ @ @ @ @ ",
"  . + @ # @ @ $ % = Z Z Z Z +.= %.%.%.%.%.%.%.%.%.%.%.$.$.= _._._._.9.= %.%.< < < < < < < < < < = +.Z Z Z Z = @ @ # @ + .   * = ",
"- ; > , ' , , ) ! = ` Z Z ` +.= $.%.%.%.%.%.%.%.%.%.%.$.$.= _._._._._.= $.%.< < < < < < < < < %.= +.` Z Z ` = , , ' , > ; - ^ / ",
"( _ : < < < < 2 } = = = = = = = = = = = = = = = = = = = = = 9.0.a.b.c.= = = = = = = = = = = = = = = = = = = = < < < < : _ ( . 7 ",
"8 : 9 0 a 0 0 b c = ` Z Z ` +.= %.< < < < < < < < < %.%.$.= _._.0._.d.= $.%.%.< < < < < < < < %.= +.` Z Z ` = 0 0 a 0 9 : 8 + e ",
"] < 0 < < < < < < = Z Z Z Z +.= < < < < < < < < < < %.%.%.= c.e.f.g.h.= %.%.%.< < < < < < < < < = +.Z Z Z Z = < < < < a < ] # q ",
"] < a < < < < < < =  .Z Z Z +.= < < < < < < < < < < %.$.= = d.i.j.k.l.= = $.%.< < < < < < < < < = +.Z Z Z  .= < < < < a < ] # q ",
"] < 0 < < < < < < =  .Z Z Z +.= %.< < < < < < < < < %.= 4.4.m.l.n.o.p.4.4.= %.< < < < < < < < %.= +.Z Z Z  .= 0 0 a 0 < h Y F q ",
"] < 0 < < < < < < = Z Z Z Z +.= = = = = = = = = = = = = 5.4.l.q.o.r.s.5.4.= = = = = = = = = = = = +.Z Z Z Z = < < < < h S T U q ",
"] < 0 < < < < < < =  .Z Z Z +.= = = = = = = = = = = = = 5.4.t.u.o.v.w.5.4.= $.%.< < < < < < < %.= +.Z Z Z  .= , , ' , N O P Q q ",
"] < 0 < < < < < < = Z Z Z Z +.= = $.%.%.%.%.%.%.%.%.$.= 5.4.x.u.n.y.z.5.4.= %.%.< < < < < < < < = +.Z Z Z Z = @ v # @ F U H I q ",
"] < a < < < < < < = Z Z Z Z +.= = %.%.%.%.%.%.%.%.%.$.= 5.4.A.B.C.A.A.5.4.= %.%.< < < < < < < < = +.Z Z Z Z = % D.@ @ u u w x q ",
"] < 0 < < < < < < = Z Z Z Z +.= = $.%.%.%.%.%.%.%.%.$.= 5.4.E.F.F.G.H.5.4.= $.%.< < < < < < < %.= +.Z Z Z Z = ! ) , , ] ' o p q ",
"8 : 9 0 a 0 0 0 0 = ` Z Z ` +.= = = = = = = = = = = = = 5.4.I.J.K.L.M.5.4.= = = = = = = = = = = = +.` Z Z ` = } W a 0 9 : 8 + e ",
"( _ : < < < < < < = = = = = = = %.< < < < < < < < < %.= 5.4.N.O.P.N.Q.5.4.= = = = = = = = = = = = = = = = = = c b a 0 3 4 5 6 7 ",
"- ; > , ' , , , , = ` Z Z ` +.= < < < < < < < < < < %.= 5.4.R.S.T.L.U.5.4.= $.$.%.%.%.%.%.%.$.= = +.` Z Z ` = V., , , > ; - ^ / ",
"  . + @ # @ @ @ @ = Z Z Z Z +.= < < < < < < < < < < %.= 5.4.R.W.X.Y.Z.5.4.= $.$.%.%.%.%.%.%.%.= = +.Z Z Z Z = @ @ # @ + .   * = ",
"@ @ @ @ @ @ @ @ @ =  .Z Z Z +.= %.< < < < < < < < < %.= 5.4.`. +U.Z._.5.4.= $.$.%.%.%.%.%.%.$.= = +.Z Z Z  .= .+++& @+% $ @ @ @ ",
"{ ' , , , , , , , =  .Z Z Z +.= = = = = = = = = = = = = 5.4.#+$+%+&+*+5.4.= = = = = = = = = = = = +.Z Z Z  .= =+-+~ ;+! ) { >+] ",
"< < < < < < < < < = Z Z Z Z +.= %.< < < < < < < < < %.= 6.4._._._._._.6.4.= %.< < < < < < < < < = +.Z Z Z Z = ,+'+1 | } [ < < < ",
"0 0 0 0 0 0 0 0 0 =  .Z Z Z +.= = = = %.< < < < < < %.$.= = *+)+*+}._.= = $.%.< < < < < %.= = = = +.Z Z Z  .= !+~+d d c b 0 0 0 ",
"< < < < < < < l g = Z Z Z Z +.= 4.5.5.= < < < < < < %.%.$.= _._._._._.= $.%.%.< < < < < = 5.5.4.= +.Z Z Z Z = < < < < < < < < < ",
"< < < < < < < g _ = Z Z Z Z +.= 4.5.6.= < < < < < < %.%.%.= _._._._._.= %.%.%.< < < < < = 6.5.4.= +.Z Z Z Z = {+< < < < < < < < ",
"< < < < < < < g _ = Z Z Z Z +.= = = = %.< < < < < < %.%.$.= _._._._._.= $.%.%.< < < < < %.= = = = +.Z Z Z Z = < < < < < < < < < ",
"< < < < < < < i g = ` Z Z ` +.= = = = = = = = = = = = = = = _._._._._.= = = = = = = = = = = = = = +.` Z Z ` = < < < < < < < < < ",
"< < < < < < < < < = = = = = = = $.%.%.%.%.%.%.%.%.%.$.$.= = [.8._._.7.= $.%.< < < < < < < < < %.= = = = = = = < < < < < < < < < ",
"< < < < < < < < < = ` Z Z ` +.= %.%.%.%.%.%.%.%.%.%.$.$.= = 2.]+_._.^+= %.%.< < < < < < < < < < = +.` Z Z ` = < < < < < < < < < ",
"< < < < < < < < < = Z Z Z Z +.= $.%.%.%.%.%.%.%.%.%.$.$.= = '.|.}.}./+= %.%.< < < < < < < < < < = +.Z Z Z Z = < < < < < < < < < ",
"< < < < < < < < < =  .Z Z Z +.= = = = = = = = = = = = = = = /.:._._./+= $.%.< < < < < < < < < %.= +.Z Z Z  .= < < < < < < < < < ",
"0 0 0 0 0 0 0 0 0 =  .Z Z Z +.= = = = = = = = = = = = = = = (+^.|.|._+= = = = = = = = = = = = = = +.Z Z Z  .= 0 0 0 0 0 0 0 0 0 ",
"< < < < < < < < < = Z Z Z Z +.= %.< < < < < < < < < < %.$.= :+!.'.'.<+= = = = = = = = = = = = = = +.Z Z Z Z = < < < < < < < < < ",
"{ ' , , , , , , , = ` Z Z ` +.= < < < < < < < < < < < %.%.= [+}+|+1+2+= = $.$.%.%.%.%.%.%.%.%.= = +.` Z Z ` = , , , , , ' { ] ] ",
"@ @ @ @ @ @ @ @ @ = +.+.+.+.@.= %.< < < < < < < < < < %.$.= 3+[+4+5+6+= = $.$.%.%.%.%.%.%.%.$.= = @.+.+.+.+.= @ @ @ @ @ @ @ @ @ "};
