/* XPM */
static char * exit2_xpm[] = {
"64 64 150 2",
"  	c #7D5E6B",
". 	c #84636E",
"+ 	c #896972",
"@ 	c #8B6C73",
"# 	c #8B6C74",
"$ 	c #8C7076",
"% 	c #8F7679",
"& 	c #91797B",
"* 	c #735A68",
"= 	c #6E5967",
"- 	c #946672",
"; 	c #A4727A",
"> 	c #AD8082",
", 	c #B18786",
"' 	c #B18787",
") 	c #B48E8B",
"! 	c #BA9A93",
"~ 	c #BDA098",
"{ 	c #B18887",
"] 	c #B28887",
"^ 	c #7C5D6A",
"/ 	c #6C5866",
"( 	c #A5737B",
"_ 	c #B78285",
": 	c #C08E8C",
"< 	c #C39490",
"[ 	c #C69A94",
"} 	c #CBA59C",
"| 	c #CDAAA0",
"1 	c #CEAAA0",
"2 	c #C69A95",
"3 	c #C08F8D",
"4 	c #B88285",
"5 	c #A5747B",
"6 	c #85636E",
"7 	c #6D5967",
"8 	c #AE8183",
"9 	c #C3938F",
"0 	c #C49490",
"a 	c #C49590",
"b 	c #C59792",
"c 	c #C79B95",
"d 	c #C89D96",
"e 	c #6D5867",
"f 	c #C1928F",
"g 	c #BF8E8C",
"h 	c #C1918E",
"i 	c #C1928E",
"j 	c #BD8B8B",
"k 	c #BD8B8A",
"l 	c #C2928F",
"m 	c #BF918E",
"n 	c #B68B89",
"o 	c #A37D7F",
"p 	c #846870",
"q 	c #6D5866",
"r 	c #B37B81",
"s 	c #B37A81",
"t 	c #9C787C",
"u 	c #8B6D74",
"v 	c #8A6C73",
"w 	c #846871",
"x 	c #765F6A",
"y 	c #B98587",
"z 	c #C29491",
"A 	c #C29591",
"B 	c #B47E83",
"C 	c #B68286",
"D 	c #B78588",
"E 	c #B78B89",
"F 	c #8A6A72",
"G 	c #866670",
"H 	c #80626D",
"I 	c #755C69",
"J 	c #C9A39B",
"K 	c #C0928F",
"L 	c #C59D97",
"M 	c #C8A39B",
"N 	c #AF8384",
"O 	c #AA7B7F",
"P 	c #9B6F77",
"Q 	c #80616D",
"R 	c #CBA49C",
"S 	c #BD8989",
"T 	c #AB7B7F",
"U 	c #876670",
"V 	c #C49792",
"W 	c #C69B95",
"X 	c #C79D96",
"Y 	c #B08484",
"Z 	c #946572",
"` 	c #7D5D6B",
" .	c #8F7579",
"..	c #BA9A94",
"+.	c #936572",
"@.	c #BA9993",
"#.	c #A4737B",
"$.	c #AD8183",
"%.	c #BF8D8C",
"&.	c #A27D7F",
"*.	c #836770",
"=.	c #B47D83",
"-.	c #BC8C8C",
";.	c #C39793",
">.	c #7F616C",
",.	c #CAA59D",
"'.	c #CCA89F",
").	c #9A6F77",
"!.	c #C49692",
"~.	c #B18686",
"{.	c #91787B",
"].	c #927C7E",
"^.	c #948183",
"/.	c #968486",
"(.	c #8C7075",
"_.	c #BD9F97",
":.	c #BFA59D",
"<.	c #C4B0A7",
"[.	c #C6B5AC",
"}.	c #C6B5AD",
"|.	c #B58E8B",
"1.	c #D0AFA5",
"2.	c #D4B9AF",
"3.	c #D6BEB3",
"4.	c #D6BEB4",
"5.	c #C89F99",
"6.	c #CAA39C",
"7.	c #CBA59F",
"8.	c #C39390",
"9.	c #BE908D",
"0.	c #B68A89",
"a.	c #9C797C",
"b.	c #BB9490",
"c.	c #A18483",
"d.	c #8C6F75",
"e.	c #C9A29B",
"f.	c #C9A89E",
"g.	c #C2A39A",
"h.	c #CEABA0",
"i.	c #B28787",
"j.	c #FBCAAE",
"k.	c #EDA799",
"l.	c #FAEBCF",
"m.	c #E28989",
"n.	c #D2727E",
"o.	c #926475",
"p.	c #AD707B",
"q.	c #5D7889",
"r.	c #B98080",
"s.	c #728896",
"  . + @ # @ @ @ @ $ % & & & & & & & & % $ @ @ $ % % $ @ @ @ @ @ @ @ @ @ @ @ @ @ @ @ @ @ @ @ @ @ @ @ @ @ @ @ @ @ @ # @ + .   * = ",
"- ; > , ' , , , , ) ! ~ ~ ~ ~ ~ ~ ~ ~ ! ) , , ) ! ! ) , , { ] ] { ' , , , , , , , , , , , , , , , , , , , , , , , ' , > ; - ^ / ",
"( _ : < < < < < < [ } | 1 | | | | 1 | } [ < < 2 } } 2 < < < < < < < < < < < < < < < < < < < < < < < < < < < < < < < < 3 4 5 6 7 ",
"8 : 9 0 a 0 0 0 0 b c d d d d d d d d c b 0 0 b c c b 0 0 0 0 0 0 0 0 0 0 0 0 0 0 0 0 0 0 0 0 0 0 0 0 0 0 0 0 0 0 a 0 9 : 8 + e ",
"] < 0 < < < < < < < < < < < < < < < < < < < < < < < < < < < < < < < < < < < < f g g h i g j k k k k k k j g l < < m n ] , o p q ",
"] < a < < < < < < < < < < < < < < < < < < < < < < < < < < < < < < < < < < < < g _ 4 g g 4 r s r r r r s r _ g < < n t u v w x q ",
"] < 0 < < < < < < < < < < < < < < < < < < < < < < < < < < < < < < < < < < < < g _ y z A y B C D D D D C B _ g < < E t F G H I q ",
"] < 0 < < < < < < < < < < < < < < < < < < < < < < < < < < < < < < < < < < < < h g A J J A K L M M M M L K g i < < m n N O P Q q ",
"] < 0 < < < < < < < < < < < < < < < < < < < < < < < < < < < < < < < < < < < < < < 2 } R 2 [ R | 1 1 | } [ < < < < < < h S T U q ",
"] < 0 < < < < < < < < < < < < < < < < < < < < < < < < < < < < < < < < < < < < < < V 2 2 V V W X X X X W V < < < < < < < h Y F q ",
"] < a < < < < < < < < < < < < < < < < < < < < < < < < < < < < < < < < < < < < < < < < < < < < < < < < < < < < < < < < a < ] # q ",
"] < 0 < < < < < < < < < < < < < < < < < < < < < < < < < < < < < < < < < < < < < < < < < < < < < < < < < < < < < < < < a < ] # q ",
"8 : 9 0 a 0 0 0 0 0 0 0 0 0 0 0 0 0 0 0 0 0 0 0 0 0 0 0 0 0 0 0 0 0 0 0 0 0 0 0 0 0 0 0 0 0 0 0 0 0 0 0 0 0 0 0 0 a 0 9 : 8 + e ",
"( _ : < < < < < < < < < < < < < < < < < < < < < < < < < < < < < < < < < < < < < < < < < < < < < < < < < < < < < < < < : _ ( . 7 ",
"Z ; > , , , , , , , , , , , , , , , , , , , , , , , , , ' { ] ] { ' , , , , , , , , , , , , , , , , , , , , , , , ' , > ; - ^ / ",
"  . + @ # @ @ @ @ @ @ @ @ @ @ @ @ @ @ @ @ @ @ @ @ @ @ @ @ @ @ @ @ @ @ @ @ @ @ @ @ @ @ @ @ @ @ @ @ @ @ @ @ @ @ @ @ # @ + .   * = ",
"% & & & & % $ @ @ @ @ @ @ @ @ @ @ @ @ @ @ @ @ @ @ # @ + . ` * * ` . + @ # @ @ $ %  .$ $  .& & & & & & & & % $ @ @ @ @ @ @ @ @ @ ",
"..~ ~ ~ ~ ! ) , , , , , , , , , , , , , , , , , , ' , > ; +.^ ^ +.; > , ' , , ) ! @.) ) @.~ ~ ~ ~ ~ ~ ~ ~ ! ) , , , , , ' { ] ] ",
"} | 1 1 | } [ < < < < < < < < < < < < < < < < < < < < 3 4 ( 6 . #._ : < < < < 2 } R 2 [ R | 1 | | | | 1 | } [ < < < < < < < < < ",
"c d d d d c b 0 0 0 0 0 0 0 0 0 0 0 0 0 0 0 0 0 0 a 0 9 : $.+ + $.: 9 0 a 0 0 b c c b b c d d d d d d d d c b 0 0 0 0 0 0 0 0 0 ",
"< < < < < < < < < < < < < i g j k %.h h g g f < < m n ] , &.p @ ' < 0 < < < < < < < < < < < < < < < < < < < < < < < < < < < < < ",
"< < < < < < < < < < < < < g _ s s 4 g g 4 _ g < < n t u v *.x # ] < a < < < < < < < < < < < < < < < < < < < < < < < < < < < < < ",
"< < < < < < < < < < < V 2 A y =.C -.;.z y _ g < < E t F G >.I @ ] < 0 < < < < < < < < < < < < < < < < < < < < < < < < < < < < < ",
"< < < < < < < < < < < 2 } J z K L ,.'.J z g h < < m n N O ).Q @ ' < 0 < < < < < < < < < < < < < < < < < < < < < < < < < < < < < ",
"< < < < < < < < < < < 2 } R 2 [ R 1 1 } [ < < < < < < h S O U @ ' < 0 < < < < < < < < < < < < < < < < < < < < < < < < < < < < < ",
"< < < < < < < < < < < !.2 2 V V W X X 2 V < < < < < < < h N F @ , < 0 < < < < < < < < < < < < < < < < < < < < < < < < < < < < < ",
"< < < < < < < < < < < < < < < < < < < < < < < < < < < a < ' # # ' < a < < < < < < < < < < < < < < < < < < < < < < < < < < < < < ",
"< < < < < < < < < < < < < < < < < < < < < < < < < < < a < ' # @ , < 0 < < < < < < < < < < < < < < < < < < < < < < < < < < < < < ",
"0 0 0 0 0 0 0 0 0 0 0 0 0 0 0 0 0 0 0 0 0 0 0 0 0 a 0 9 : $.+ + $.: 9 0 a 0 0 0 0 0 0 0 0 0 0 0 0 0 0 0 0 0 0 0 0 0 0 0 0 0 0 0 ",
"< < < < < < < < < < < < < < < < < < < < < < < < < < < : _ #.. . #._ : < < < < < < < < < < < < < < < < < < < < < < < < < < < < < ",
"{ ' , , , , , , , , , , , , , , ~.~.~.~.~.~., , , ' , > ; +.^ ^ +.; > , ' , , , , , , , , , , , , , , , , , , , , , , , ' { ] ] ",
"@ @ @ @ @ @ @ @ @ @ @ @ @ @ @ @ @ @ @ @ @ @ @ @ @ # @ + . ` * * ` . + @ # @ @ @ @ @ @ @ @ @ @ @ @ @ @ @ @ @ @ @ @ @ @ @ @ @ @ @ ",
"  . + @ # @ @ $ %  .$ $  .{.& ].^././././.^.]. .(.$  .& & % $ @ @ @ @ @ @ @ @ @ @ @ @ @ @ @ @ @ @ @ @ @ @ @ @ @ @ # @ + .   * = ",
"- ; > , ' , , ) ! @.) ) @._.~ :.<.[.}.}.[.<.:.@.) ) @.~ ~ ..|.] ' ' , , , , , , , , , , , , , , , , , , , , , , , ' , > ; - ^ / ",
"( _ : < < < < 2 } R 2 [ R | 1 1.2.3.4.4.3.2.1.R [ [ R 1 1 } [ < < < < < < < < < < < < < < < < < < < < < < < < < < < < : _ ( . 7 ",
"8 : 9 0 a 0 0 b c c b b c d d 5.6.7.7.7.7.6.5.c b b c d d c b 0 0 0 0 0 0 0 0 0 0 0 0 0 0 0 0 0 0 0 0 0 0 0 0 0 0 a 0 9 : 8 + e ",
"] < 0 < < < < < < < < < < < < < < < < < < < < < < < < < < < < < < < < < < < < < < < < < < < < < < < < < < < < < < < < a < ] # q ",
"] < a < < < < < < < < < < < < < 8.9 9 9 9 8.< < < < < < < < < < < < < < < < < < < < < < < < < < < < < < < < < < < < < a < ] # q ",
"] < 0 < < < < < < < < < < < < < < < < < < < < < < < < < < < < < < < < < < < < < < < < < < < < < < < < < < < < 0 0 a 0 < h Y F q ",
"] < 0 < < < < < < < < < < < < < < < < < < < < < < < < < < < < < < < < < < < < < < < < < < < < < < < < < < < < < < < < h S T U q ",
"] < 0 < < < < < < < < < < < < < < < < < < < < < < < < < < < < < < < < < < < < < < < < l g j j g i h g g h 9.0., , ' , N O P Q q ",
"] < 0 < < < < < < < < < < < < < < < < < < < < < < < < < < < < < < < < < < < < < < < < g _ s s 4 g g 4 4 g n a.@ v # @ F U H I q ",
"] < a < < < < < < < < < < < < < < < < < < < < < < < < < < < < < < < < < < < < < < < < g _ s s y A z y y z b.c.% d.@ @ u u w x q ",
"] < 0 < < < < < < < < < < < < < < < < < < < < < < < < < < < < < < < < < < < < < < < < l g k j A J e.A z e.f.g.! ) , , ] ' o p q ",
"8 : 9 0 a 0 0 0 0 0 0 0 0 0 0 0 0 0 0 0 0 0 0 0 0 0 0 0 0 0 0 0 0 0 0 0 0 0 0 0 0 0 0 0 0 0 0 c } } c W } h.h.} W a 0 9 : 8 + e ",
"( _ : < < < < < < < < < < < < < < < < < < < < < < < < < < < < < < < < < < < < < < < < < < < < V 2 2 V V 2 X X c b a 0 3 4 5 6 7 ",
"- ; > , ' , , , , , , , , , , , , , , , , , , , , , , , ' { ] ] { ' , , , , , , , , , , , , , , , , ~.~.~.~.~.~., , , > ; - ^ / ",
"  . + @ # @ @ @ @ @ @ @ @ @ @ @ @ @ @ @ @ @ @ @ @ @ @ @ @ @ @ @ @ @ @ @ @ @ @ @ @ @ @ @ @ @ @ @ @ @ @ @ @ @ @ @ @ # @ + .   * = ",
"@ @ @ @ @ @ @ @ @ @ @ @ @ @ @ @ @ @ @ @ @ @ @ @ @ # @ + . ` * * ` . + @ # @ @ $ %  .$ $  .& & {.& ].^././././.^.].& {.% $ @ @ @ ",
"{ ' , , , , , , , , , , , , , , , , , , , , , , , ' , > ; +.^ ^ +.; > , ' , , ) ! @.) ) @.~ ~ _.~ :.<.[.}.}.[.<.:.~ _.! ) { i.] ",
"< < < < < < < < < < < < < < < < < < = = = = = = = = = = = = = = = = = = = = = = = = = = = = 1 | | 1.2.3.4.4.3.2.1.1 | } [ < < < ",
"0 0 0 0 0 0 0 0 0 0 0 0 0 0 0 0 = = j.k.= k.j.j.j.l.j.l.l.j.k.= k.j.j.j.l.j.l.l.l.j.k.= k.j.= = d 5.6.7.7.7.7.6.5.d d c b 0 0 0 ",
"< < < < < < < l g j k k j g = = k.j.j.j.= j.j.j.j.j.j.j.j.j.j.= j.j.j.j.j.j.j.j.j.j.j.= j.j.j.k.= = < < < < < < < < < < < < < < ",
"< < < < < < < g _ r s s r = k.l.l.j.j.j.= j.j.j.j.j.j.j.j.j.j.= j.j.j.j.j.j.j.j.j.j.j.= j.j.j.l.l.k.= 9 9 9 9 8.< < < < < < < < ",
"< < < < < < < g _ B C C = k.l.j.j.j.j.k.= k.j.j.j.j.j.j.j.j.k.= k.j.j.j.j.j.j.j.j.j.k.= k.j.j.j.j.l.k.= < < < < < < < < < < < < ",
"< < < < < < < i g K L = k.l.j.j.j.k.m.m.= m.m.m.m.m.m.m.m.m.m.= m.m.m.m.m.m.m.m.m.m.m.= m.m.k.j.j.j.l.k.= < < < < < < < < < < < ",
"< < < < < < < < < 2 } = j.j.j.j.k.m.m.n.= = = = = = = = = = = = = = = = = = = = = = = = n.m.m.k.j.j.j.j.= < < < < < < < < < < < ",
"< < < < < < < < < V = k.j.j.j.k.m.m.= = = o.p.p.p.p.p.p.p.o.= = q.= = o.p.p.p.p.p.p.o.= = = m.m.k.j.j.j.k.= < < < < < < < < < < ",
"< < < < < < < < < < = j.j.j.j.m.m.= = = o.p.p.p.p.p.p.p.p.p.= = q.= = p.p.p.p.p.p.p.p.o.= = = m.m.j.j.j.j.= < < < < < < < < < < ",
"< < < < < < < < < = k.j.j.j.k.m.= = = = = = = = = = = = = = = = q.= = = = = = = = = = = = = = = m.k.j.j.j.k.= < < < < < < < < < ",
"0 0 0 0 0 0 0 0 0 = j.j.j.j.m.m.= = o.p.p.p.p.p.p.p.p.p.p.o.= = q.= = = = = = = = = = = = = = = m.m.j.j.j.j.= 0 0 0 0 0 0 0 0 0 ",
"< < < < < < < < < = j.j.j.j.m.= = o.p.p.r.< < < < < < < r.p.= = s.= = p.r.< < < < < < < r.p.o.= = m.j.j.j.j.= < < < < < < < < < ",
"{ ' , , , , , , , = k.j.j.k.m.= = p.p.p.< < < < < < < < < p.= = s.= = p.< < < < < < < < < p.p.= = m.k.j.j.k.= , , , , , ' { ] ] ",
"@ @ @ @ @ @ @ @ @ = = = = = = = = = = = = = = = = = = = = = = = q.= = = = = = = = = = = = = = = = = = = = = = @ @ @ @ @ @ @ @ @ "};
