/* XPM */
static char * exit12_xpm[] = {
"64 64 117 2",
"  	c #7D5E6B",
". 	c #84636E",
"+ 	c #896972",
"@ 	c #8B6C73",
"# 	c #8B6C74",
"$ 	c #8C7076",
"% 	c #8F7679",
"& 	c #91797B",
"* 	c #735A68",
"= 	c #6E5967",
"- 	c #946672",
"; 	c #A4727A",
"> 	c #AD8082",
", 	c #B18786",
"' 	c #B18787",
") 	c #B48E8B",
"! 	c #BA9A93",
"~ 	c #BDA098",
"{ 	c #B18887",
"] 	c #B28887",
"^ 	c #7C5D6A",
"/ 	c #6C5866",
"( 	c #A5737B",
"_ 	c #B78285",
": 	c #C08E8C",
"< 	c #C39490",
"[ 	c #C69A94",
"} 	c #CBA59C",
"| 	c #CDAAA0",
"1 	c #CEAAA0",
"2 	c #C69A95",
"3 	c #C08F8D",
"4 	c #B88285",
"5 	c #A5747B",
"6 	c #85636E",
"7 	c #6D5967",
"8 	c #AE8183",
"9 	c #C3938F",
"0 	c #C49490",
"a 	c #C49590",
"b 	c #C59792",
"c 	c #C79B95",
"d 	c #C89D96",
"e 	c #6D5867",
"f 	c #C1928F",
"g 	c #BF8E8C",
"h 	c #C1918E",
"i 	c #C1928E",
"j 	c #BD8B8B",
"k 	c #BD8B8A",
"l 	c #C2928F",
"m 	c #BF918E",
"n 	c #B68B89",
"o 	c #A37D7F",
"p 	c #846870",
"q 	c #6D5866",
"r 	c #B37B81",
"s 	c #B37A81",
"t 	c #9C787C",
"u 	c #8B6D74",
"v 	c #8A6C73",
"w 	c #846871",
"x 	c #765F6A",
"y 	c #B98587",
"z 	c #C29491",
"A 	c #C29591",
"B 	c #B47E83",
"C 	c #B68286",
"D 	c #B78588",
"E 	c #B78B89",
"F 	c #8A6A72",
"G 	c #866670",
"H 	c #80626D",
"I 	c #755C69",
"J 	c #C9A39B",
"K 	c #C0928F",
"L 	c #C59D97",
"M 	c #C8A39B",
"N 	c #AF8384",
"O 	c #AA7B7F",
"P 	c #9B6F77",
"Q 	c #80616D",
"R 	c #CBA49C",
"S 	c #BD8989",
"T 	c #AB7B7F",
"U 	c #876670",
"V 	c #C49792",
"W 	c #C69B95",
"X 	c #C79D96",
"Y 	c #B08484",
"Z 	c #FBCAAE",
"` 	c #EDA799",
" .	c #FAEBCF",
"..	c #946572",
"+.	c #E28989",
"@.	c #D2727E",
"#.	c #BA9A94",
"$.	c #926475",
"%.	c #AD707B",
"&.	c #5D7889",
"*.	c #B98080",
"=.	c #728896",
"-.	c #86A0A8",
";.	c #8C6F75",
">.	c #B18686",
",.	c #948183",
"'.	c #927C7E",
").	c #91787B",
"!.	c #C4B0A7",
"~.	c #BFA59D",
"{.	c #BD9F97",
"].	c #B28787",
"^.	c #D4B9AF",
"/.	c #D0AFA5",
"(.	c #CAA39C",
"_.	c #C89F99",
":.	c #C39390",
"  . + @ # @ @ @ @ $ % & & & & & & & & % $ @ @ $ % % $ @ @ @ @ @ @ @ @ @ @ @ @ @ @ @ @ @ @ @ @ @ @ @ @ @ @ @ @ @ @ # @ + .   * = ",
"- ; > , ' , , , , ) ! ~ ~ ~ ~ ~ ~ ~ ~ ! ) , , ) ! ! ) , , { ] ] { ' , , , , , , , , , , , , , , , , , , , , , , , ' , > ; - ^ / ",
"( _ : < < < < < < [ } | 1 | | | | 1 | } [ < < 2 } } 2 < < < < < < < < < < < < < < < < < < < < < < < < < < < < < < < < 3 4 5 6 7 ",
"8 : 9 0 a 0 0 0 0 b c d d d d d d d d c b 0 0 b c c b 0 0 0 0 0 0 0 0 0 0 0 0 0 0 0 0 0 0 0 0 0 0 0 0 0 0 0 0 0 0 a 0 9 : 8 + e ",
"] < 0 < < < < < < < < < < < < < < < < < < < < < < < < < < < < < < < < < < < < f g g h i g j k k k k k k j g l < < m n ] , o p q ",
"] < a < < < < < < < < < < < < < < < < < < < < < < < < < < < < < < < < < < < < g _ 4 g g 4 r s r r r r s r _ g < < n t u v w x q ",
"] < 0 < < < < < < < < < < < < < < < < < < < < < < < < < < < < < < < < < < < < g _ y z A y B C D D D D C B _ g < < E t F G H I q ",
"] < 0 < < < < < < < < < < < < < < < < < < < < < < < < < < < < < < < < < < < < h g A J J A K L M M M M L K g i < < m n N O P Q q ",
"] < 0 < < < < < < < < < < < < < < < < < < < < < < < < < < < < < < < < < < < < < < 2 } R 2 [ R | 1 1 | } [ < < < < < < h S T U q ",
"] < 0 < < < < < < < < < < < < < < < < < < < < < < < < < < < < < < < < < < < < < < V 2 2 V V W X X X X W V < < < < < < < h Y F q ",
"] < a < < < < < < < < < < < < < < < = = = = = = = = = = = = = = = = = = = = = = = = = = = = < < < < < < < < < < < < < a < ] # q ",
"] < 0 < < < < < < < < < < < < < = = Z ` = ` Z Z Z  .Z  . .Z ` = ` Z Z Z  .Z  . . .Z ` = ` Z = = < < < < < < < < < < < a < ] # q ",
"8 : 9 0 a 0 0 0 0 0 0 0 0 0 = = ` Z Z Z = Z Z Z Z Z Z Z Z Z Z = Z Z Z Z Z Z Z Z Z Z Z = Z Z Z ` = = 0 0 0 0 0 0 0 a 0 9 : 8 + e ",
"( _ : < < < < < < < < < < = `  . .Z Z Z = Z Z Z Z Z Z Z Z Z Z = Z Z Z Z Z Z Z Z Z Z Z = Z Z Z  . .` = < < < < < < < < : _ ( . 7 ",
"..; > , , , , , , , , , = `  .Z Z Z Z ` = ` Z Z Z Z Z Z Z Z ` = ` Z Z Z Z Z Z Z Z Z ` = ` Z Z Z Z  .` = , , , , , ' , > ; - ^ / ",
"  . + @ # @ @ @ @ @ @ = `  .Z Z Z ` +.+.= +.+.+.+.+.+.+.+.+.+.= +.+.+.+.+.+.+.+.+.+.+.= +.+.` Z Z Z  .` = @ @ @ @ # @ + .   * = ",
"% & & & & % $ @ @ @ @ = Z Z Z Z ` +.+.@.= = = = = = = = = = = = = = = = = = = = = = = = @.+.+.` Z Z Z Z = % $ @ @ @ @ @ @ @ @ @ ",
"#.~ ~ ~ ~ ! ) , , , = ` Z Z Z ` +.+.= = = $.%.%.%.%.%.%.%.$.= = &.= = $.%.%.%.%.%.%.$.= = = +.+.` Z Z Z ` = ) , , , , , ' { ] ] ",
"} | 1 1 | } [ < < < = Z Z Z Z +.+.= = = $.%.%.%.%.%.%.%.%.%.= = &.= = %.%.%.%.%.%.%.%.$.= = = +.+.Z Z Z Z = [ < < < < < < < < < ",
"c d d d d c b 0 0 = ` Z Z Z ` +.= = = = = = = = = = = = = = = = &.= = = = = = = = = = = = = = = +.` Z Z Z ` = 0 0 0 0 0 0 0 0 0 ",
"< < < < < < < < < = Z Z Z Z +.+.= = $.%.%.%.%.%.%.%.%.%.%.$.= = &.= = = = = = = = = = = = = = = +.+.Z Z Z Z = < < < < < < < < < ",
"< < < < < < < < < = Z Z Z Z +.= = $.%.%.*.< < < < < < < *.%.= = =.= = %.*.< < < < < < < *.%.$.= = +.Z Z Z Z = < < < < < < < < < ",
"< < < < < < < < < = ` Z Z ` +.= = %.%.%.< < < < < < < < < %.= = =.= = %.< < < < < < < < < %.%.= = +.` Z Z ` = < < < < < < < < < ",
"< < < < < < < < < = = = = = = = = = = = = = = = = = = = = = = = &.= = = = = = = = = = = = = = = = = = = = = = < < < < < < < < < ",
"< < < < < < < < < = ` Z Z ` +.= = = = %.< < < < < < < < < < %.= =.= %.< < < < < < < < < %.= = = = +.` Z Z ` = < < < < < < < < < ",
"< < < < < < < < < = Z Z Z Z +.= &.=.&.= < < < < < < < < < < < = &.= < < < < < < < < < < = &.=.&.= +.Z Z Z Z = < < < < < < < < < ",
"< < < < < < < < < =  .Z Z Z +.= =.-.=.= < < < < < < < < < < < = =.= < < < < < < < < < < = =.-.=.= +.Z Z Z  .= < < < < < < < < < ",
"< < < < < < < < < =  .Z Z Z +.= = = = %.< < < < < < < < < < < = =.= < < < < < < < < < < %.= = = = +.Z Z Z  .= < < < < < < < < < ",
"0 0 0 0 0 0 0 0 0 = Z Z Z Z +.= %.< < < < < < < < < < < < < %.= -.= %.< < < < < < < < < < < < %.= +.Z Z Z Z = 0 0 0 0 0 0 0 0 0 ",
"< < < < < < < < < =  .Z Z Z +.= = = = = = = = = = = = = = = = = -.= = = = = = = = = = = = = = = = +.Z Z Z  .= < < < < < < < < < ",
"{ ' , , , , , , , = Z Z Z Z +.= = = = = = = = = = = = = = = = = -.= %.< < < < < < < < < < < < %.= +.Z Z Z Z = , , , , , ' { ] ] ",
"@ @ @ @ @ @ @ @ @ = Z Z Z Z +.= $.%.%.%.%.%.%.%.%.%.%.%.%.%.$.= =.= < < < < < < < < < < < < < < = +.Z Z Z Z = @ @ @ @ @ @ @ @ @ ",
"  . + @ # @ @ $ % = Z Z Z Z +.= %.%.%.%.%.%.%.%.%.%.%.%.%.%.%.= -.= < < < < < < < < < < < < < < = +.Z Z Z Z = @ @ # @ + .   * = ",
"- ; > , ' , , ) ! = ` Z Z ` +.= $.%.%.%.%.%.%.%.%.%.%.%.%.%.$.= =.= %.< < < < < < < < < < < < %.= +.` Z Z ` = , , ' , > ; - ^ / ",
"( _ : < < < < 2 } = = = = = = = = = = = = = = = = = = = = = = = =.= = = = = = = = = = = = = = = = = = = = = = < < < < : _ ( . 7 ",
"8 : 9 0 a 0 0 b c = ` Z Z ` +.= %.< < < < < < < < < < < < < %.= &.= %.< < < < < < < < < < < < %.= +.` Z Z ` = 0 0 a 0 9 : 8 + e ",
"] < 0 < < < < < < = Z Z Z Z +.= < < < < < < < < < < < < < < < = &.= < < < < < < < < < < < < < < = +.Z Z Z Z = < < < < a < ] # q ",
"] < a < < < < < < =  .Z Z Z +.= < < < < < < < < < < < < < %.= = = = = %.< < < < < < < < < < < < = +.Z Z Z  .= < < < < a < ] # q ",
"] < 0 < < < < < < =  .Z Z Z +.= %.< < < < < < < < < < < *.= -.-.= -.-.= *.< < < < < < < < < < %.= +.Z Z Z  .= 0 0 a 0 < h Y F q ",
"] < 0 < < < < < < = Z Z Z Z +.= = = = = = = = = = = = = = = =.-.= =.-.= = = = = = = = = = = = = = +.Z Z Z Z = < < < < h S T U q ",
"] < 0 < < < < < < =  .Z Z Z +.= = = = = = = = = = = = = = = =.-.= =.-.= %.< < < < < < < < < < %.= +.Z Z Z  .= , , ' , N O P Q q ",
"] < 0 < < < < < < = Z Z Z Z +.= = $.%.%.%.%.%.%.%.%.%.%.$.= =.-.= =.-.= < < < < < < < < < < < < = +.Z Z Z Z = @ v # @ F U H I q ",
"] < a < < < < < < = Z Z Z Z +.= = %.%.%.%.%.%.%.%.%.%.%.%.= =.-.= =.-.= < < < < < < < < < < < < = +.Z Z Z Z = % ;.@ @ u u w x q ",
"] < 0 < < < < < < = Z Z Z Z +.= = $.%.%.%.%.%.%.%.%.%.%.$.= =.-.= =.-.= %.< < < < < < < < < < %.= +.Z Z Z Z = ! ) , , ] ' o p q ",
"8 : 9 0 a 0 0 0 0 = ` Z Z ` +.= = = = = = = = = = = = = = = =.-.= =.-.= = = = = = = = = = = = = = +.` Z Z ` = } W a 0 9 : 8 + e ",
"( _ : < < < < < < = = = = = = = %.< < < < < < < < < < < %.= =.-.= =.-.= = = = = = = = = = = = = = = = = = = = c b a 0 3 4 5 6 7 ",
"- ; > , ' , , , , = ` Z Z ` +.= < < < < < < < < < < < < < = =.-.= =.-.= $.%.%.%.%.%.%.%.%.%.$.= = +.` Z Z ` = >., , , > ; - ^ / ",
"  . + @ # @ @ @ @ = Z Z Z Z +.= < < < < < < < < < < < < < = =.-.= =.-.= %.%.%.%.%.%.%.%.%.%.%.= = +.Z Z Z Z = @ @ # @ + .   * = ",
"@ @ @ @ @ @ @ @ @ =  .Z Z Z +.= %.< < < < < < < < < < < %.= =.-.= =.-.= $.%.%.%.%.%.%.%.%.%.$.= = +.Z Z Z  .= ,.'.& ).% $ @ @ @ ",
"{ ' , , , , , , , =  .Z Z Z +.= = = = = = = = = = = = = = = =.-.= =.-.= = = = = = = = = = = = = = +.Z Z Z  .= !.~.~ {.! ) { ].] ",
"< < < < < < < < < = Z Z Z Z +.= %.< < < < < < < < < < < *.= &.-.= &.-.= *.< < < < < < < < < < < = +.Z Z Z Z = ^./.1 | } [ < < < ",
"0 0 0 0 0 0 0 0 0 =  .Z Z Z +.= = = = %.< < < < < < < < < %.= = &.= = %.< < < < < < < < %.= = = = +.Z Z Z  .= (._.d d c b 0 0 0 ",
"< < < < < < < l g = Z Z Z Z +.= =.-.=.= < < < < < < < < < < *.= &.= *.< < < < < < < < < = =.-.=.= +.Z Z Z Z = < < < < < < < < < ",
"< < < < < < < g _ = Z Z Z Z +.= &.=.&.= < < < < < < < < < < < = =.= < < < < < < < < < < = &.=.&.= +.Z Z Z Z = :.< < < < < < < < ",
"< < < < < < < g _ = Z Z Z Z +.= = = = %.< < < < < < < < < < %.= =.= < < < < < < < < < < %.= = = = +.Z Z Z Z = < < < < < < < < < ",
"< < < < < < < i g = ` Z Z ` +.= = = = = = = = = = = = = = = = = =.= = = = = = = = = = = = = = = = +.` Z Z ` = < < < < < < < < < ",
"< < < < < < < < < = = = = = = = $.%.%.%.%.%.%.%.%.%.%.%.%.$.= = &.= %.< < < < < < < < < < < < %.= = = = = = = < < < < < < < < < ",
"< < < < < < < < < = ` Z Z ` +.= %.%.%.%.%.%.%.%.%.%.%.%.%.%.= = =.= < < < < < < < < < < < < < < = +.` Z Z ` = < < < < < < < < < ",
"< < < < < < < < < = Z Z Z Z +.= $.%.%.%.%.%.%.%.%.%.%.%.%.$.= = &.= < < < < < < < < < < < < < < = +.Z Z Z Z = < < < < < < < < < ",
"< < < < < < < < < =  .Z Z Z +.= = = = = = = = = = = = = = = = = =.= %.< < < < < < < < < < < < %.= +.Z Z Z  .= < < < < < < < < < ",
"0 0 0 0 0 0 0 0 0 =  .Z Z Z +.= = = = = = = = = = = = = = = = = &.= = = = = = = = = = = = = = = = +.Z Z Z  .= 0 0 0 0 0 0 0 0 0 ",
"< < < < < < < < < = Z Z Z Z +.= %.< < < < < < < < < < < < < %.= &.= = = = = = = = = = = = = = = = +.Z Z Z Z = < < < < < < < < < ",
"{ ' , , , , , , , = ` Z Z ` +.= < < < < < < < < < < < < < < < = &.= = %.%.%.%.%.%.%.%.%.%.%.%.= = +.` Z Z ` = , , , , , ' { ] ] ",
"@ @ @ @ @ @ @ @ @ = +.+.+.+.@.= %.< < < < < < < < < < < < < %.= &.= = $.%.%.%.%.%.%.%.%.%.%.$.= = @.+.+.+.+.= @ @ @ @ @ @ @ @ @ "};
