/* XPM */
static char * exit20_xpm[] = {
"64 64 244 2",
"  	c #7D5E6B",
". 	c #84636E",
"+ 	c #896972",
"@ 	c #8B6C73",
"# 	c #8B6C74",
"$ 	c #8C7076",
"% 	c #8F7679",
"& 	c #91797B",
"* 	c #735A68",
"= 	c #6E5967",
"- 	c #946672",
"; 	c #A4727A",
"> 	c #AD8082",
", 	c #B18786",
"' 	c #B18787",
") 	c #B48E8B",
"! 	c #BA9A93",
"~ 	c #BDA098",
"{ 	c #B18887",
"] 	c #B28887",
"^ 	c #7C5D6A",
"/ 	c #6C5866",
"( 	c #A5737B",
"_ 	c #B78285",
": 	c #C08E8C",
"< 	c #C39490",
"[ 	c #C69A94",
"} 	c #CBA59C",
"| 	c #CDAAA0",
"1 	c #CEAAA0",
"2 	c #C69A95",
"3 	c #C08F8D",
"4 	c #B88285",
"5 	c #A5747B",
"6 	c #85636E",
"7 	c #6D5967",
"8 	c #AE8183",
"9 	c #C3938F",
"0 	c #C49490",
"a 	c #C49590",
"b 	c #C59792",
"c 	c #C79B95",
"d 	c #C89D96",
"e 	c #6D5867",
"f 	c #C1928F",
"g 	c #BF8E8C",
"h 	c #C1918E",
"i 	c #C1928E",
"j 	c #BD8B8B",
"k 	c #BD8B8A",
"l 	c #C2928F",
"m 	c #BF918E",
"n 	c #B68B89",
"o 	c #A37D7F",
"p 	c #846870",
"q 	c #6D5866",
"r 	c #B37B81",
"s 	c #B37A81",
"t 	c #9C787C",
"u 	c #8B6D74",
"v 	c #8A6C73",
"w 	c #846871",
"x 	c #765F6A",
"y 	c #B98587",
"z 	c #C29491",
"A 	c #C29591",
"B 	c #B47E83",
"C 	c #B68286",
"D 	c #B78588",
"E 	c #B78B89",
"F 	c #8A6A72",
"G 	c #866670",
"H 	c #80626D",
"I 	c #755C69",
"J 	c #C9A39B",
"K 	c #C0928F",
"L 	c #C59D97",
"M 	c #C8A39B",
"N 	c #AF8384",
"O 	c #AA7B7F",
"P 	c #9B6F77",
"Q 	c #80616D",
"R 	c #CBA49C",
"S 	c #BD8989",
"T 	c #AB7B7F",
"U 	c #876670",
"V 	c #C49792",
"W 	c #C69B95",
"X 	c #C79D96",
"Y 	c #B08484",
"Z 	c #FBCAAE",
"` 	c #EDA799",
" .	c #FAEBCF",
"..	c #946572",
"+.	c #E28989",
"@.	c #D2727E",
"#.	c #BA9A94",
"$.	c #926475",
"%.	c #AD707B",
"&.	c #3C696D",
"*.	c #3A6168",
"=.	c #395D64",
"-.	c #3A6368",
";.	c #385760",
">.	c #36505C",
",.	c #354C58",
"'.	c #344553",
").	c #37515C",
"!.	c #344554",
"~.	c #323E4F",
"{.	c #B98080",
"].	c #323D4F",
"^.	c #354C59",
"/.	c #334352",
"(.	c #313D4F",
"_.	c #303A4F",
":.	c #303D52",
"<.	c #334353",
"[.	c #323F50",
"}.	c #313C50",
"|.	c #313B4F",
"1.	c #3D5450",
"2.	c #4F7552",
"3.	c #568153",
"4.	c #86A0A8",
"5.	c #728896",
"6.	c #5D7889",
"7.	c #4F7652",
"8.	c #71AE57",
"9.	c #7FC45A",
"0.	c #3C5250",
"a.	c #69A156",
"b.	c #83CB5A",
"c.	c #8EDE5D",
"d.	c #83CC5B",
"e.	c #8CD95C",
"f.	c #8FDF5D",
"g.	c #94E05E",
"h.	c #9EE561",
"i.	c #A2E762",
"j.	c #9EE661",
"k.	c #B6F168",
"l.	c #C1F76B",
"m.	c #93E05E",
"n.	c #B0EE66",
"o.	c #C5F96D",
"p.	c #D0FF70",
"q.	c #B6F268",
"r.	c #CCFD6F",
"s.	c #C6FA6D",
"t.	c #CCFE6F",
"u.	c #A3E762",
"v.	c #90DF5D",
"w.	c #B1EE66",
"x.	c #C2F86C",
"y.	c #A4E863",
"z.	c #8BD85C",
"A.	c #82CB5A",
"B.	c #68A055",
"C.	c #578353",
"D.	c #B3EC67",
"E.	c #94D35F",
"F.	c #71AD57",
"G.	c #4E7451",
"H.	c #323C4F",
"I.	c #71A557",
"J.	c #3B5150",
"K.	c #30394F",
"L.	c #324A52",
"M.	c #315957",
"N.	c #336559",
"O.	c #7EC359",
"P.	c #335B56",
"Q.	c #357F63",
"R.	c #3A9269",
"S.	c #3F6C57",
"T.	c #519F65",
"U.	c #54B16D",
"V.	c #8C6F75",
"W.	c #517D54",
"X.	c #71B85E",
"Y.	c #73C767",
"Z.	c #6AA356",
"`.	c #6BA356",
" +	c #80D162",
".+	c #8BD75C",
"++	c #84CC5B",
"@+	c #84CC5A",
"#+	c #7FCD60",
"$+	c #80C85C",
"%+	c #7FC459",
"&+	c #7FC359",
"*+	c #72BC60",
"=+	c #B18686",
"-+	c #5AAA66",
";+	c #59945A",
">+	c #588453",
",+	c #518C5C",
"'+	c #38956B",
")+	c #347860",
"!+	c #336359",
"~+	c #346459",
"{+	c #42815E",
"]+	c #948183",
"^+	c #927C7E",
"/+	c #91787B",
"(+	c #3A9E6E",
"_+	c #37946B",
":+	c #368E69",
"<+	c #388F68",
"[+	c #53A467",
"}+	c #C4B0A7",
"|+	c #BFA59D",
"1+	c #BD9F97",
"2+	c #B28787",
"3+	c #5CB66B",
"4+	c #5BB56B",
"5+	c #54B06D",
"6+	c #46A86F",
"7+	c #55B16D",
"8+	c #D4B9AF",
"9+	c #D0AFA5",
"0+	c #80D163",
"a+	c #73C667",
"b+	c #47A96F",
"c+	c #CAA39C",
"d+	c #C89F99",
"e+	c #80D263",
"f+	c #3CA06F",
"g+	c #3A966B",
"h+	c #C39390",
"i+	c #3A9169",
"j+	c #388263",
"k+	c #336459",
"l+	c #346559",
"m+	c #345C56",
"n+	c #323B4E",
"o+	c #323C4E",
"p+	c #385860",
"q+	c #3C6A6D",
"r+	c #3A6268",
"s+	c #3D6D6F",
"t+	c #3C696C",
"u+	c #3B696D",
"  . + @ # @ @ @ @ $ % & & & & & & & & % $ @ @ $ % % $ @ @ @ @ @ @ @ @ @ @ @ @ @ @ @ @ @ @ @ @ @ @ @ @ @ @ @ @ @ @ # @ + .   * = ",
"- ; > , ' , , , , ) ! ~ ~ ~ ~ ~ ~ ~ ~ ! ) , , ) ! ! ) , , { ] ] { ' , , , , , , , , , , , , , , , , , , , , , , , ' , > ; - ^ / ",
"( _ : < < < < < < [ } | 1 | | | | 1 | } [ < < 2 } } 2 < < < < < < < < < < < < < < < < < < < < < < < < < < < < < < < < 3 4 5 6 7 ",
"8 : 9 0 a 0 0 0 0 b c d d d d d d d d c b 0 0 b c c b 0 0 0 0 0 0 0 0 0 0 0 0 0 0 0 0 0 0 0 0 0 0 0 0 0 0 0 0 0 0 a 0 9 : 8 + e ",
"] < 0 < < < < < < < < < < < < < < < < < < < < < < < < < < < < < < < < < < < < f g g h i g j k k k k k k j g l < < m n ] , o p q ",
"] < a < < < < < < < < < < < < < < < < < < < < < < < < < < < < < < < < < < < < g _ 4 g g 4 r s r r r r s r _ g < < n t u v w x q ",
"] < 0 < < < < < < < < < < < < < < < < < < < < < < < < < < < < < < < < < < < < g _ y z A y B C D D D D C B _ g < < E t F G H I q ",
"] < 0 < < < < < < < < < < < < < < < < < < < < < < < < < < < < < < < < < < < < h g A J J A K L M M M M L K g i < < m n N O P Q q ",
"] < 0 < < < < < < < < < < < < < < < < < < < < < < < < < < < < < < < < < < < < < < 2 } R 2 [ R | 1 1 | } [ < < < < < < h S T U q ",
"] < 0 < < < < < < < < < < < < < < < < < < < < < < < < < < < < < < < < < < < < < < V 2 2 V V W X X X X W V < < < < < < < h Y F q ",
"] < a < < < < < < < < < < < < < < < = = = = = = = = = = = = = = = = = = = = = = = = = = = = < < < < < < < < < < < < < a < ] # q ",
"] < 0 < < < < < < < < < < < < < = = Z ` = ` Z Z Z  .Z  . .Z ` = ` Z Z Z  .Z  . . .Z ` = ` Z = = < < < < < < < < < < < a < ] # q ",
"8 : 9 0 a 0 0 0 0 0 0 0 0 0 = = ` Z Z Z = Z Z Z Z Z Z Z Z Z Z = Z Z Z Z Z Z Z Z Z Z Z = Z Z Z ` = = 0 0 0 0 0 0 0 a 0 9 : 8 + e ",
"( _ : < < < < < < < < < < = `  . .Z Z Z = Z Z Z Z Z Z Z Z Z Z = Z Z Z Z Z Z Z Z Z Z Z = Z Z Z  . .` = < < < < < < < < : _ ( . 7 ",
"..; > , , , , , , , , , = `  .Z Z Z Z ` = ` Z Z Z Z Z Z Z Z ` = ` Z Z Z Z Z Z Z Z Z ` = ` Z Z Z Z  .` = , , , , , ' , > ; - ^ / ",
"  . + @ # @ @ @ @ @ @ = `  .Z Z Z ` +.+.= +.+.+.+.+.+.+.+.+.+.= +.+.+.+.+.+.+.+.+.+.+.= +.+.` Z Z Z  .` = @ @ @ @ # @ + .   * = ",
"% & & & & % $ @ @ @ @ = Z Z Z Z ` +.+.@.= = = = = = = = = = = = = = = = = = = = = = = = @.+.+.` Z Z Z Z = % $ @ @ @ @ @ @ @ @ @ ",
"#.~ ~ ~ ~ ! ) , , , = ` Z Z Z ` +.+.= = = $.%.%.%.%.$.$.= = &.*.=.=.*.= = $.$.%.%.%.$.= = = +.+.` Z Z Z ` = ) , , , , , ' { ] ] ",
"} | 1 1 | } [ < < < = Z Z Z Z +.+.= = = $.%.%.%.%.%.$.$.= = -.;.>.>.;.= = $.$.%.%.%.%.$.= = = +.+.Z Z Z Z = [ < < < < < < < < < ",
"c d d d d c b 0 0 = ` Z Z Z ` +.= = = = = = = = = = = = = = ;.,.'.'.,.= = = = = = = = = = = = = +.` Z Z Z ` = 0 0 0 0 0 0 0 0 0 ",
"< < < < < < < < < = Z Z Z Z +.+.= = $.%.%.%.%.%.%.%.$.$.= = ).!.~.~.!.= = = = = = = = = = = = = +.+.Z Z Z Z = < < < < < < < < < ",
"< < < < < < < < < = Z Z Z Z +.= = $.%.%.{.< < < < %.$.$.= = >.'.].].'.= = $.%.%.< < < < {.%.$.= = +.Z Z Z Z = < < < < < < < < < ",
"< < < < < < < < < = ` Z Z ` +.= = %.%.%.< < < < < %.$.$.= = ^./.(._.:.= = %.%.%.< < < < < %.%.= = +.` Z Z ` = < < < < < < < < < ",
"< < < < < < < < < = = = = = = = = = = = = = = = = = = = = = <.[.~.~.}.= = = = = = = = = = = = = = = = = = = = < < < < < < < < < ",
"< < < < < < < < < = ` Z Z ` +.= = = = %.< < < < < < < %.$.= |._.1.2.3.= $.%.< < < < < < %.= = = = +.` Z Z ` = < < < < < < < < < ",
"< < < < < < < < < = Z Z Z Z +.= 4.5.6.= < < < < < < < %.%.= _.].7.8.9.= %.%.< < < < < < = 6.5.4.= +.Z Z Z Z = < < < < < < < < < ",
"< < < < < < < < < =  .Z Z Z +.= 4.5.5.= < < < < < < < %.%.= 0.2.a.b.c.= %.%.< < < < < < = 5.5.4.= +.Z Z Z  .= < < < < < < < < < ",
"< < < < < < < < < =  .Z Z Z +.= = = = %.< < < < < < < %.%.= 2.8.d.e.f.= %.%.< < < < < < %.= = = = +.Z Z Z  .= < < < < < < < < < ",
"0 0 0 0 0 0 0 0 0 = Z Z Z Z +.= %.< < < < < < < < < < %.$.= a.b.g.h.i.= $.%.< < < < < < < < < %.= +.Z Z Z Z = 0 0 0 0 0 0 0 0 0 ",
"< < < < < < < < < =  .Z Z Z +.= = = = = = = = = = = = = = = b.e.j.k.l.= = = = = = = = = = = = = = +.Z Z Z  .= < < < < < < < < < ",
"{ ' , , , , , , , = Z Z Z Z +.= = = = = = = = = = = = = = = m.j.n.o.p.= $.%.< < < < < < < < < %.= +.Z Z Z Z = , , , , , ' { ] ] ",
"@ @ @ @ @ @ @ @ @ = Z Z Z Z +.= $.%.%.%.%.%.%.%.%.%.%.$.$.= h.q.o.r.p.= %.%.< < < < < < < < < < = +.Z Z Z Z = @ @ @ @ @ @ @ @ @ ",
"  . + @ # @ @ $ % = Z Z Z Z +.= %.%.%.%.%.%.%.%.%.%.%.$.$.= n.s.r.o.l.= %.%.< < < < < < < < < < = +.Z Z Z Z = @ @ # @ + .   * = ",
"- ; > , ' , , ) ! = ` Z Z ` +.= $.%.%.%.%.%.%.%.%.%.%.$.$.= o.t.o.n.u.= $.%.< < < < < < < < < %.= +.` Z Z ` = , , ' , > ; - ^ / ",
"( _ : < < < < 2 } = = = = = = = = = = = = = = = = = = = = = r.o.k.h.v.= = = = = = = = = = = = = = = = = = = = < < < < : _ ( . 7 ",
"8 : 9 0 a 0 0 b c = ` Z Z ` +.= %.< < < < < < < < < %.%.$.= o.w.h.m.c.= $.%.%.< < < < < < < < %.= +.` Z Z ` = 0 0 a 0 9 : 8 + e ",
"] < 0 < < < < < < = Z Z Z Z +.= < < < < < < < < < < %.%.%.= x.y.z.A.9.= %.%.%.< < < < < < < < < = +.Z Z Z Z = < < < < a < ] # q ",
"] < a < < < < < < =  .Z Z Z +.= < < < < < < < < < < %.$.= = l.u.b.B.C.= = $.%.< < < < < < < < < = +.Z Z Z  .= < < < < a < ] # q ",
"] < 0 < < < < < < =  .Z Z Z +.= %.< < < < < < < < < %.= 4.4.D.E.F.G.H.4.4.= %.< < < < < < < < %.= +.Z Z Z  .= 0 0 a 0 < h Y F q ",
"] < 0 < < < < < < = Z Z Z Z +.= = = = = = = = = = = = = 5.4.E.I.2.J.K.5.4.= = = = = = = = = = = = +.Z Z Z Z = < < < < h S T U q ",
"] < 0 < < < < < < =  .Z Z Z +.= = = = = = = = = = = = = 5.4.9.C.L.M.N.5.4.= $.%.< < < < < < < %.= +.Z Z Z  .= , , ' , N O P Q q ",
"] < 0 < < < < < < = Z Z Z Z +.= = $.%.%.%.%.%.%.%.%.$.= 5.4.O.3.P.Q.R.5.4.= %.%.< < < < < < < < = +.Z Z Z Z = @ v # @ F U H I q ",
"] < a < < < < < < = Z Z Z Z +.= = %.%.%.%.%.%.%.%.%.$.= 5.4.O.3.S.T.U.5.4.= %.%.< < < < < < < < = +.Z Z Z Z = % V.@ @ u u w x q ",
"] < 0 < < < < < < = Z Z Z Z +.= = $.%.%.%.%.%.%.%.%.$.= 5.4.O.C.W.X.Y.5.4.= $.%.< < < < < < < %.= +.Z Z Z Z = ! ) , , ] ' o p q ",
"8 : 9 0 a 0 0 0 0 = ` Z Z ` +.= = = = = = = = = = = = = 5.4.b.Z.`.d. +5.4.= = = = = = = = = = = = +.` Z Z ` = } W a 0 9 : 8 + e ",
"( _ : < < < < < < = = = = = = = %.< < < < < < < < < %.= 5.4..+++@+z. +5.4.= = = = = = = = = = = = = = = = = = c b a 0 3 4 5 6 7 ",
"- ; > , ' , , , , = ` Z Z ` +.= < < < < < < < < < < %.= 5.4.#+$+%+&+*+5.4.= $.$.%.%.%.%.%.%.$.= = +.` Z Z ` = =+, , , > ; - ^ / ",
"  . + @ # @ @ @ @ = Z Z Z Z +.= < < < < < < < < < < %.= 5.4.-+;+>+C.,+5.4.= $.$.%.%.%.%.%.%.%.= = +.Z Z Z Z = @ @ # @ + .   * = ",
"@ @ @ @ @ @ @ @ @ =  .Z Z Z +.= %.< < < < < < < < < %.= 5.4.'+)+!+~+{+5.4.= $.$.%.%.%.%.%.%.$.= = +.Z Z Z  .= ]+^+& /+% $ @ @ @ ",
"{ ' , , , , , , , =  .Z Z Z +.= = = = = = = = = = = = = 5.4.(+_+:+<+[+5.4.= = = = = = = = = = = = +.Z Z Z  .= }+|+~ 1+! ) { 2+] ",
"< < < < < < < < < = Z Z Z Z +.= %.< < < < < < < < < %.= 6.4.3+4+5+6+7+6.4.= %.< < < < < < < < < = +.Z Z Z Z = 8+9+1 | } [ < < < ",
"0 0 0 0 0 0 0 0 0 =  .Z Z Z +.= = = = %.< < < < < < %.$.= =  +0+a+U.b+= = $.%.< < < < < %.= = = = +.Z Z Z  .= c+d+d d c b 0 0 0 ",
"< < < < < < < l g = Z Z Z Z +.= 4.5.5.= < < < < < < %.%.$.= e+0+Y.U.f+= $.%.%.< < < < < = 5.5.4.= +.Z Z Z Z = < < < < < < < < < ",
"< < < < < < < g _ = Z Z Z Z +.= 4.5.6.= < < < < < < %.%.%.= 3+3+7+6+g+= %.%.%.< < < < < = 6.5.4.= +.Z Z Z Z = h+< < < < < < < < ",
"< < < < < < < g _ = Z Z Z Z +.= = = = %.< < < < < < %.%.$.= i+i+R.i+j+= $.%.%.< < < < < %.= = = = +.Z Z Z Z = < < < < < < < < < ",
"< < < < < < < i g = ` Z Z ` +.= = = = = = = = = = = = = = = k+k+N.l+m+= = = = = = = = = = = = = = +.` Z Z ` = < < < < < < < < < ",
"< < < < < < < < < = = = = = = = $.%.%.%.%.%.%.%.%.%.$.$.= = ~.].~.~.].= $.%.< < < < < < < < < %.= = = = = = = < < < < < < < < < ",
"< < < < < < < < < = ` Z Z ` +.= %.%.%.%.%.%.%.%.%.%.$.$.= = H.n+H.H.o+= %.%.< < < < < < < < < < = +.` Z Z ` = < < < < < < < < < ",
"< < < < < < < < < = Z Z Z Z +.= $.%.%.%.%.%.%.%.%.%.$.$.= = /.[.~.~.[.= %.%.< < < < < < < < < < = +.Z Z Z Z = < < < < < < < < < ",
"< < < < < < < < < =  .Z Z Z +.= = = = = = = = = = = = = = = ^./.~.~./.= $.%.< < < < < < < < < %.= +.Z Z Z  .= < < < < < < < < < ",
"0 0 0 0 0 0 0 0 0 =  .Z Z Z +.= = = = = = = = = = = = = = = ;.,.'.'.,.= = = = = = = = = = = = = = +.Z Z Z  .= 0 0 0 0 0 0 0 0 0 ",
"< < < < < < < < < = Z Z Z Z +.= %.< < < < < < < < < < %.$.= -.p+>.>.p+= = = = = = = = = = = = = = +.Z Z Z Z = < < < < < < < < < ",
"{ ' , , , , , , , = ` Z Z ` +.= < < < < < < < < < < < %.%.= q+r+=.=.*.= = $.$.%.%.%.%.%.%.%.%.= = +.` Z Z ` = , , , , , ' { ] ] ",
"@ @ @ @ @ @ @ @ @ = +.+.+.+.@.= %.< < < < < < < < < < %.$.= s+q+t+t+u+= = $.$.%.%.%.%.%.%.%.$.= = @.+.+.+.+.= @ @ @ @ @ @ @ @ @ "};
