/* XPM */
static char * coins1_xpm[] = {
"64 64 389 2",
"  	c #7D5E6B",
". 	c #84636E",
"+ 	c #896972",
"@ 	c #8B6C73",
"# 	c #8B6C74",
"$ 	c #8C7076",
"% 	c #8F7679",
"& 	c #91797B",
"* 	c #735A68",
"= 	c #6E5967",
"- 	c #946672",
"; 	c #A4727A",
"> 	c #AD8082",
", 	c #B18786",
"' 	c #B18787",
") 	c #B48E8B",
"! 	c #BA9A93",
"~ 	c #BDA098",
"{ 	c #B18887",
"] 	c #B28887",
"^ 	c #7C5D6A",
"/ 	c #6C5866",
"( 	c #A5737B",
"_ 	c #B48083",
": 	c #C08E8C",
"< 	c #C39490",
"[ 	c #C69A94",
"} 	c #CBA59C",
"| 	c #CDAAA0",
"1 	c #CEAAA0",
"2 	c #C69A95",
"3 	c #C29490",
"4 	c #C2938F",
"5 	c #C1938F",
"6 	c #C1928F",
"7 	c #C08F8D",
"8 	c #B88285",
"9 	c #A5747B",
"0 	c #85636E",
"a 	c #6D5967",
"b 	c #C3938F",
"c 	c #C49490",
"d 	c #C49590",
"e 	c #C59792",
"f 	c #C79B95",
"g 	c #C89D96",
"h 	c #AE8183",
"i 	c #6D5867",
"j 	c #BF8E8C",
"k 	c #C1918E",
"l 	c #C1928E",
"m 	c #BD8B8B",
"n 	c #BD8B8A",
"o 	c #C2928F",
"p 	c #BF918E",
"q 	c #B68B89",
"r 	c #A37D7F",
"s 	c #846870",
"t 	c #6D5866",
"u 	c #B78285",
"v 	c #B37B81",
"w 	c #B37A81",
"x 	c #9C787C",
"y 	c #8B6D74",
"z 	c #8A6C73",
"A 	c #846871",
"B 	c #765F6A",
"C 	c #B98587",
"D 	c #C29491",
"E 	c #C29591",
"F 	c #B47E83",
"G 	c #B68286",
"H 	c #B78588",
"I 	c #B78B89",
"J 	c #8A6A72",
"K 	c #866670",
"L 	c #80626D",
"M 	c #755C69",
"N 	c #C9A39B",
"O 	c #C0928F",
"P 	c #C59D97",
"Q 	c #C8A39B",
"R 	c #B48988",
"S 	c #AF8384",
"T 	c #AA7B7F",
"U 	c #9B6F77",
"V 	c #80616D",
"W 	c #CBA49C",
"X 	c #C0918E",
"Y 	c #BD8989",
"Z 	c #AB7B7F",
"` 	c #876670",
" .	c #C49792",
"..	c #C69B95",
"+.	c #C79D96",
"@.	c #B08484",
"#.	c #000000",
"$.	c #946572",
"%.	c #857A2F",
"&.	c #8B8032",
"*.	c #8B7F30",
"=.	c #8B8357",
"-.	c #8C8A7E",
";.	c #8C8E8E",
">.	c #8C8E8F",
",.	c #85792F",
"'.	c #C7B54A",
").	c #DDC953",
"!.	c #DECA54",
"~.	c #DDC950",
"{.	c #DECF8A",
"].	c #DED9C6",
"^.	c #DEDEDE",
"/.	c #DEDEDF",
"(.	c #B2993D",
"_.	c #E5BF4E",
":.	c #FCD156",
"<.	c #FDD156",
"[.	c #FCD053",
"}.	c #FCD68C",
"|.	c #FDE0C7",
"1.	c #FDE5E0",
"2.	c #FDE5E1",
"3.	c #E5C04E",
"4.	c #BA9A94",
"5.	c #F4AD43",
"6.	c #FAA03B",
"7.	c #FA9F3B",
"8.	c #FAA03A",
"9.	c #FAA35C",
"0.	c #FAA881",
"a.	c #FAAB91",
"b.	c #8B7F32",
"c.	c #FDD356",
"d.	c #FBA93E",
"e.	c #F98728",
"f.	c #F98626",
"g.	c #F98828",
"h.	c #F98827",
"i.	c #F98727",
"j.	c #F98825",
"k.	c #F9871F",
"l.	c #F9861E",
"m.	c #F98724",
"n.	c #F88125",
"o.	c #F77B24",
"p.	c #C89E97",
"q.	c #C79C96",
"r.	c #FED858",
"s.	c #FEB842",
"t.	c #FCA02F",
"u.	c #FC9F2E",
"v.	c #FCA02D",
"w.	c #FCA029",
"x.	c #FCA026",
"y.	c #FCA12F",
"z.	c #FB952B",
"A.	c #FEDA58",
"B.	c #FFC044",
"C.	c #FEAE34",
"D.	c #FEAD33",
"E.	c #FEAB33",
"F.	c #FDA531",
"G.	c #FDAA36",
"H.	c #FEB83F",
"I.	c #FEBB40",
"J.	c #FEB238",
"K.	c #FDAA30",
"L.	c #FDA430",
"M.	c #FDAC58",
"N.	c #FEBE81",
"O.	c #FEC181",
"P.	c #FEB55A",
"Q.	c #FEAE32",
"R.	c #FFC144",
"S.	c #FEAE33",
"T.	c #FEAF34",
"U.	c #FA932B",
"V.	c #FAA339",
"W.	c #FDC94F",
"X.	c #FED050",
"Y.	c #FEBC40",
"Z.	c #FDA42A",
"`.	c #FAAB81",
" +	c #FDD9C5",
".+	c #FFDFC6",
"++	c #FEC383",
"@+	c #FEAE2E",
"#+	c #F98627",
"$+	c #F99E3A",
"%+	c #FCD056",
"&+	c #FEDD5A",
"*+	c #FECB4D",
"=+	c #FEBF43",
"-+	c #FDB63A",
";+	c #FAA73D",
">+	c #FABF96",
",+	c #FDEBE2",
"'+	c #FFEDE1",
")+	c #FEC893",
"!+	c #FEAD2E",
"~+	c #FEAD28",
"{+	c #F99E3B",
"]+	c #FEE45F",
"^+	c #FEDF5B",
"/+	c #FDD753",
"(+	c #FDDF9E",
"_+	c #FEF4E3",
":+	c #FFEEE1",
"<+	c #FEC894",
"[+	c #FEAD2B",
"}+	c #FBA032",
"|+	c #FA9F38",
"1+	c #FAB547",
"2+	c #FDD759",
"3+	c #FEE761",
"4+	c #FEE862",
"5+	c #FEE861",
"6+	c #FEE75F",
"7+	c #FEEC94",
"8+	c #FFF5CC",
"9+	c #FFEED2",
"0+	c #FED6AD",
"a+	c #FEB457",
"b+	c #C49692",
"c+	c #FBC14D",
"d+	c #FEE25F",
"e+	c #FEE860",
"f+	c #FEE974",
"g+	c #FEEC92",
"h+	c #FEEEB5",
"i+	c #FFEDD2",
"j+	c #FEC182",
"k+	c #FDD757",
"l+	c #FDE25E",
"m+	c #FEE75E",
"n+	c #FEEFA2",
"o+	c #FFFAE4",
"p+	c #FEDE5A",
"q+	c #FECA4C",
"r+	c #FDB641",
"s+	c #FAA73C",
"t+	c #FEE75C",
"u+	c #FEEEA1",
"v+	c #FFF9E4",
"w+	c #FDA330",
"x+	c #FA9129",
"y+	c #FAA238",
"z+	c #FDC84E",
"A+	c #FED955",
"B+	c #FEDF8E",
"C+	c #FFE8C7",
"D+	c #FFDFC4",
"E+	c #FDAA32",
"F+	c #FDA32F",
"G+	c #FDA935",
"H+	c #FDB83F",
"I+	c #FEBF42",
"J+	c #FEC161",
"K+	c #FEC583",
"L+	c #FEDE5B",
"M+	c #FEC044",
"N+	c #FED958",
"O+	c #8F7579",
"P+	c #91787B",
"Q+	c #FED857",
"R+	c #FEE15E",
"S+	c #FEE75D",
"T+	c #FEEEA2",
"U+	c #FFF9E3",
"V+	c #FFEDE0",
"W+	c #BA9993",
"X+	c #BD9F97",
"Y+	c #FEBF44",
"Z+	c #FDB741",
"`+	c #FAA83D",
" @	c #FAB647",
".@	c #C49894",
"+@	c #C49893",
"@@	c #FCA02E",
"#@	c #F99D3A",
"$@	c #C89C96",
"%@	c #FEBA3F",
"&@	c #F98526",
"*@	c #BE908D",
"=@	c #B68A89",
"-@	c #9C797C",
";@	c #8C6C73",
">@	c #896771",
",@	c #FFDB58",
"'@	c #FA922A",
")@	c #FAA239",
"!@	c #FECF50",
"~@	c #FDA327",
"{@	c #FA9223",
"]@	c #FAAA7E",
"^@	c #FDD8C3",
"/@	c #FFDEC4",
"(@	c #FEAD2D",
"_@	c #FEAC2A",
":@	c #BB9490",
"<@	c #A18483",
"[@	c #8C6F75",
"}@	c #C9A29B",
"|@	c #C9A89E",
"1@	c #C0A199",
"2@	c #84792F",
"3@	c #E7C750",
"4@	c #F7C349",
"5@	c #FFC042",
"6@	c #FFC361",
"7@	c #FFC785",
"8@	c #FFC994",
"9@	c #FFC995",
"0@	c #CEABA0",
"a@	c #B39D3E",
"b@	c #FEDA55",
"c@	c #FEDF8D",
"d@	c #FFE9C8",
"e@	c #C79E96",
"f@	c #B18686",
"g@	c #8B8356",
"h@	c #8B8A7E",
"i@	c #8C8D8E",
"j@	c #8C8D8F",
"k@	c #030202",
"l@	c #050304",
"m@	c #0D080B",
"n@	c #1A1216",
"o@	c #291C21",
"p@	c #332429",
"q@	c #322529",
"r@	c #302326",
"s@	c #281D20",
"t@	c #251A1D",
"u@	c #181012",
"v@	c #0D0809",
"w@	c #040202",
"x@	c #040203",
"y@	c #927C7E",
"z@	c #948183",
"A@	c #968486",
"B@	c #936572",
"C@	c #BCA29B",
"D@	c #B5A19B",
"E@	c #BDACA5",
"F@	c #C4B3AB",
"G@	c #C6B5AD",
"H@	c #C6B5AC",
"I@	c #C4B0A7",
"J@	c #BFA59D",
"K@	c #B28787",
"L@	c #B58084",
"M@	c #A4737B",
"N@	c #CCA99F",
"O@	c #CDA99F",
"P@	c #CCAAA0",
"Q@	c #CEAEA4",
"R@	c #D4B9AF",
"S@	c #D6BEB3",
"T@	c #D6BEB4",
"U@	c #D0AFA5",
"V@	c #AD8183",
"W@	c #C79C95",
"X@	c #C89F99",
"Y@	c #CAA39C",
"Z@	c #CBA59F",
"`@	c #BF8D8C",
" #	c #A27D7F",
".#	c #836770",
"+#	c #C39390",
"@#	c #C0908E",
"##	c #BB898A",
"$#	c #BC8C8C",
"%#	c #C39792",
"&#	c #B88E8B",
"*#	c #A08081",
"=#	c #7F616C",
"-#	c #C79F98",
";#	c #CAA59D",
">#	c #CCA89F",
",#	c #C29792",
"'#	c #BD9B94",
")#	c #AA7A7F",
"!#	c #9A6F77",
"~#	c #BC8989",
"{#	c #C1908E",
"]#	c #8C6D73",
"^#	c #7D5D6B",
"  . + @ # @ @ @ @ $ % & & & & & & & & % $ @ @ $ % % $ @ @ @ @ @ @ @ @ @ @ @ @ @ @ @ @ @ @ @ @ @ @ @ @ @ @ @ @ @ @ # @ + .   * = ",
"- ; > , ' , , , , ) ! ~ ~ ~ ~ ~ ~ ~ ~ ! ) , , ) ! ! ) , , { ] ] { ' , , , , , , , , , , , , , , , , , , , , , , , ' , > ; - ^ / ",
"( _ : < < < < < < [ } | 1 | | | | 1 | } [ < < 2 } } 2 < < < < < < < < < < < < < < 3 3 4 4 4 5 6 6 6 6 5 4 < < < < < < 7 8 9 0 a ",
"> : b c d c c c c e f g g g g g g g g f e c c e f f e c c c c c c c c c c c c c c c c c c c c c c c c c c c c c c d c b : h + i ",
"] < c < < < < < < < < < < < < < < < < < < < < < < < < < < < < < < < < < < < < 6 j j k l j m n n n n n n m j o < < p q ] , r s t ",
"] < d < < < < < < < < < < < < < < < < < < < < < < < < < < < < < < < < < < < < j u 8 j j 8 v w v v v v w v u j < < q x y z A B t ",
"] < c < < < < < < < < < < < < < < < < < < < < < < < < < < < < < < < < < < < < j u C D E C F G H H H H G F u j < < I x J K L M t ",
"] < c < < < < < < < < < < < < < < < < < < < < < < < < < < < < < < < < < < < < k j E N N E O P Q Q Q Q P O j l < < p R S T U V t ",
"] < c < < < < < < < < < < < < < < < < < < < < < < < < < < < < < < < < < < < < < < 2 } W 2 [ W | 1 1 | } [ < < < < < < X Y Z ` t ",
"] < c < < < < < < < < < < < < < < < < < < < < < < < < < < < < < < < < < < < < < <  ...2  . ...+.+.+.+... .< < < < < < < k @.J t ",
"] < d < < < < < < < < < < < < < < < < < < < < < < < < < < < < < < < < < < < < < < < < < < < < < < < < < < < < < < < < d < ] # t ",
"] < c < < < < < < < < < < < < < < < < < < < < < < < < < < < < < < < < < < < < < < < < < < < < < < < < < < < < < < < < d < ] # t ",
"h : b c d c c c c c c c c c c c c c c c c c c c c c c c c c c c c c c c c c c c c c c c c c c c c c c c c c c c c d c b : h + i ",
"( u : < < < < < < < < < < < < < < < #.#.#.#.#.#.#.#.#.#.#.#.#.#.#.#.#.#.#.#.#.#.#.#.#.#.#.#.< < < < < < < < < < < < < : u ( . a ",
"$.; > , , , , , , , , , , , , , , , %.&.&.&.&.&.&.&.&.&.&.&.&.*.&.=.-.;.>.>.;.-.=.&.*.&.&.%., , , , , , , , , , , ' , > ; - ^ / ",
"  . + @ # @ @ @ @ @ @ @ @ @ @ @ #.,.'.).!.).).).).).).).).).).~.).{.].^././.^.].{.).~.!.).'.,.#.@ @ @ @ @ @ @ @ @ # @ + .   * = ",
"% & & & & % $ @ @ @ @ @ @ @ @ @ ,.(._.:.<.:.:.:.:.:.:.:.:.:.:.[.:.}.|.1.2.2.1.|.}.:.[.<.:.3.(.,.& & & & & % $ @ @ @ @ @ @ @ @ @ ",
"4.~ ~ ~ ~ ! ) , , , , , , , #.%.'.3.5.6.7.6.6.6.6.6.6.6.6.6.6.8.6.9.0.a.a.a.a.0.9.6.8.7.6.5.3.'.%.#.~ ~ ~ ! ) , , , , , ' { ] ] ",
"} | 1 1 | } [ < < < < < < < #.b.).c.d.e.f.e.e.e.e.g.g.h.i.i.i.e.g.g.g.j.k.l.m.e.g.g.e.n.o.6.:.).&.#.| 1 | } [ < < < < < < < < < ",
"f g g g p.q.e c c c c c c c #.b.!.r.s.t.u.t.t.t.t.t.t.t.t.t.t.t.t.v.w.x.x.x.x.w.v.y.t.z.n.7.<.!.&.#.g g g f e c c c c c c c c c ",
"< < < < < < < < < < < < < l #.b.).A.B.C.D.C.C.C.C.E.F.G.H.I.J.D.D.K.L.M.N.O.P.C.Q.C.C.t.e.6.:.).&.#.< < < < < < < < < < < < < < ",
"< < < < < < < < < < < < < j #.b.).A.R.C.S.C.C.T.C.F.U.V.W.X.Y.T.C.Z.U.`. +.+++C.@+T.C.y.g.6.:.).&.#.< < < < < < < < < < < < < < ",
"< < < < < < < < < < <  .2 E #.b.).A.B.C.D.C.C.T.C.t.#+$+%+&+*+=+=+-+;+>+,+'+)+!+~+C.C.t.e.6.:.).&.#.< < < < < < < < < < < < < < ",
"< < < < < < < < < < < 2 } N #.b.).A.B.C.D.C.C.C.C.t.i.{+:.]+^+A.A./+c.(+_+:+<+C.[+C.C.t.e.6.:.).&.#.< < < < < < < < < < < < < < ",
"< < < < < < < < < < < 2 } W #.b.).A.B.C.D.C.C.E.F.}+|+1+2+3+4+5+5+6+3+7+8+9+0+O.a+C.Q.t.e.6.:.).&.#.< < < < < < < < < < < < < < ",
"< < < < < < < < < < < b+2 2 #.b.).A.B.C.D.C.C.L.U.|+c+2+d+3+5+3+5+e+5+f+g+h+i+.+j+C.!+t.e.6.:.).&.#.< < < < < < < < < < < < < < ",
"< < < < < < < < < < < < < < #.b.).A.B.C.D.C.C.t.e.$+:.3+5+]+&+k+c.2+l+m+5+n+o+:+<+C.[+t.e.6.:.).&.#.< < < < < < < < < < < < < < ",
"< < < < < < < < < < < < < < #.b.).A.B.C.D.C.C.t.i.{+:.4+4+p+q+r+s+1+2+t+6+u+v+:+<+C.[+t.e.6.:.).&.#.< < < < < < < < < < < < < < ",
"c c c c c c c c c c c c c c #.b.).A.B.C.D.C.C.t.e.$+:.5+5+A.=+w+x+y+z+A+A.B+C+D+j+C.!+t.e.6.:.).&.#.c c c c c c c c c c c c c c ",
"< < < < < < < < < < < < < < #.b.).A.B.C.D.C.C.t.e.$+:.5+5+A.=+E+F+G+H+I+=+J+K+O.P.C.Q.t.e.6.:.).&.#.< < < < < < < < < < < < < < ",
"{ ' , , , , , , , , , , , , #.b.).A.B.C.D.C.C.t.i.{+:.4+4+L+*+M+=+M+=+I+=+J+K+O.P.C.Q.t.e.6.:.).&.#., , , , , , , , , , ' { ] ] ",
"@ @ @ @ @ @ @ @ @ @ @ @ @ @ #.b.).A.B.C.D.C.C.t.e.$+:.3+5+]+&+A.A.A.A.A+N+B+C+D+j+C.!+t.e.6.:.).&.#.@ @ @ @ @ @ @ @ @ @ @ @ @ @ ",
"  . + @ # @ @ $ % O+$ $ O+P+#.b.).A.B.C.D.C.C.L.U.V.z+N+A.A.A.Q+c.2+R+S+3+T+U+V+<+C.[+t.e.6.:.).&.#.@ @ @ @ @ @ @ # @ + .   * = ",
"- ; > , ' , , ) ! W+) ) W+X+#.b.).A.B.C.D.C.C.E.F.G.H.=+=+=+Y+Z+`+ @2+m+4+n+o+:+<+C.[+t.e.6.:.).&.#., , , , , , , ' , > ; - ^ / ",
"( u : < < < < 2 } W .@+@W | #.b.).A.B.C.D.C.C.E.F.G.H.=+=+I.J.@@f.#@%+S+5+T+U+V+<+C.[+t.e.6.:.).&.#.< < < < < < < < < : u ( . a ",
"h : b c d c c e p.$@e e f g #.b.).A.B.C.D.C.C.L.U.V.z+A.A.X.%@@@&@#@%+S+5+T+U+V+<+C.[+t.e.6.:.).&.#.c c c c c c c d c b : h + i ",
"] < c < < < < < < < < < < < #.b.).A.B.C.D.C.C.t.i.{+:.4+4+p+q+r+s+1+2+t+6+u+v+:+<+C.[+t.e.6.:.).&.#.< < < < < < < < < d < ] # t ",
"] < d < < < < < < < < < < < #.b.).A.B.C.D.C.C.t.i.{+:.5+4+]+p+Q+c.2+R+S+3+T+U+V+<+C.[+t.e.6.:.).&.#.< < < < < < < < < d < ] # t ",
"] < c < < < < < < < < < < < #.b.).A.B.C.D.C.C.L.U.|+c+2+d+3+5+3+5+e+5+f+g+h+i+.+j+C.!+t.e.6.:.).&.#.< < < < < c c d c < k @.J t ",
"] < c < < < < < < < < < < < #.b.).A.B.C.D.C.C.E.F.}+|+1+2+3+4+5+5+6+3+7+8+9+0+O.a+C.Q.t.e.6.:.).&.#.< < < < < < < < < k Y Z ` t ",
"] < c < < < < < < < < < < < #.b.).A.B.C.D.C.C.C.C.t.i.{+:.]+^+A.A./+c.(+_+:+<+C.[+C.C.t.e.6.:.).&.#.j j k *@=@, , ' , S T U V t ",
"] < c < < < < < < < < < < < #.b.).A.B.C.D.C.C.T.C.t.#+$+%+&+*+=+=+-+;+>+,+'+)+!+~+C.C.t.e.6.:.).&.#.8 8 j q -@;@z # @ J >@L M t ",
"] < d < < < < < < < < < < < #.b.!.,@B.D.D.D.D.S.D.w+'@)@z+!@I.S.D.~@{@]@^@/@O.(@_@S.D.u.f.7.<.!.&.#.C C D :@<@% [@@ @ y y A B t ",
"] < c < < < < < < < < < < < #.b.).A.B.C.D.C.C.C.C.E.F.G.H.I.J.D.D.K.L.M.N.O.P.C.Q.C.C.t.e.6.:.).&.#.E D }@|@1@! ) , , ] ' r s t ",
"h : b c d c c c c c c c c c #.2@'.3@4@B.B.B.B.B.B.B.B.B.B.B.B.5@B.6@7@8@9@9@8@7@6@R.5@s.d.5._.'.%.#.f ..} 0@0@} ..d c b : h + i ",
"( u : < < < < < < < < < < < < < ,.a@3@A.,@A.A.A.A.A.A.A.A.A.A.b@A.c@d@V+V+V+V+d@c@A.b@r.c.3.(.,.2 2  . .2 e@+.f e d c 7 8 9 0 a ",
"- ; > , ' , , , , , , , , , , , #.,.'.).!.).).).).).).).).).).~.).{.].^././.^.].{.).~.!.).'.,.#., , f@f@f@f@f@f@, , , > ; - ^ / ",
"  . + @ # @ @ @ @ @ @ @ @ @ @ @ @ @ 2@b.b.b.b.b.b.b.b.b.b.b.b.*.b.g@h@i@j@j@i@h@g@b.*.b.b.%.@ @ @ @ @ @ @ @ @ @ @ # @ + .   * = ",
"@ @ @ @ @ @ @ @ @ @ @ @ @ @ @ @ @ @ #.#.#.#.#.#.#.#.#.k@k@l@m@n@o@p@q@r@s@t@u@v@w@w@k@k@w@x@& P+& y@z@A@A@A@A@z@y@& P+% $ @ @ @ ",
"{ ' , , , , , , , , , , , , , , , , , , , , , , , ' , > ; B@^ ^ B@; > , ' , , ) ! W+) ) W+~ ~ X+~ C@D@E@F@G@H@I@J@~ X+! ) { K@] ",
"< < < < < < < < < < < < < < < < < < < < < < < < < d c 7 L@( 0 . M@u : < < < 3 2 } W 2 [ W N@O@| P@Q@R@S@T@T@S@R@U@1 | } [ < < < ",
"c c c c c c c c c c c c c c c c c c c c c c c c c d c b : V@+ + V@: b c d c c e f f e e W@g g g g X@Y@Z@Z@Z@Z@Y@X@g g q.e c c c ",
"< < < < < < < o j m n n m j o < < 6 `@`@k < < p =@, , ] '  #s @ ' < c < < < < < < < < < < < < < < < < < < < < < < < < < < < < < ",
"< < < < < < < j u v w w v u j < < j u u j < < q x @ z y y .#B # ] < d < < < < < < < < < < < < < < < +#b b b b +#< < < < < < < < ",
"< < < < < < < j u F G G F u j < < @###$#%#.. .&#*#% [@J ` =#M @ ] < c < < < < < < < < < < < < < < < < < < < < < < < < < < < < < ",
"< < < < < < < l j O P P O j l < < +@-#;#>#} [ ,#'#! ) S )#!#V @ ' < c < < < < < < < < < < < < < < < < < < < < < < < < < < < < < ",
"< < < < < < < < < 2 } } 2 < < < < [ } 1 1 W [ 2 W } 2 k ~#T ` @ ' < c < < < < < < < < < < < < < < < < < < < < < < < < < < < < < ",
"< < < < < < < < <  ..... .< < < < b+..+.+.[ b+b+..f e < {#S J @ , < c < < < < < < < < < < < < < < < < < < < < < < < < < < < < < ",
"< < < < < < < < < < < < < < < < < < < < < < < < < < < d < ' # # ' < d < < < < < < < < < < < < < < < < < < < < < < < < < < < < < ",
"< < < < < < < < < < < < < < < < < < < < < < < < < < < d < ' # @ , < c < < < < < < < < < < < < < < < < < < < < < < < < < < < < < ",
"c c c c c c c c c c c c c c c c c c c c c c c c c d c b : V@+ + V@: b c d c c c c c c c c c c c c c c c c c c c c c c c c c c c ",
"< < < < < < < < < < < < < < < < < < < < < < < < < < < : u M@. . M@u : < < < < < < < < < < < < < < < < < < < < < < < < < < < < < ",
"{ ' , , , , , , , , , , , , f@f@f@f@, , , , , , , , , > ; B@^ ^ B@; > , ' , , , , , , , , , , , , , , , , , , , , , , , ' { ] ] ",
"]#;@;@]#]#]#;@;@;@;@;@@ @ @ @ @ @ @ @ @ @ @ @ @ @ # @ + . ^#* * ^#. + @ # @ @ @ @ @ @ @ @ @ @ @ @ @ @ @ @ @ @ @ @ @ @ @ @ @ @ @ "};
