/* XPM */
static char * coins9_xpm[] = {
"64 64 353 2",
"  	c #7D5E6B",
". 	c #84636E",
"+ 	c #896972",
"@ 	c #8B6C73",
"# 	c #8B6C74",
"$ 	c #8C7076",
"% 	c #8F7679",
"& 	c #91797B",
"* 	c #735A68",
"= 	c #6E5967",
"- 	c #946672",
"; 	c #A4727A",
"> 	c #AD8082",
", 	c #B18786",
"' 	c #B18787",
") 	c #B48E8B",
"! 	c #BA9A93",
"~ 	c #BDA098",
"{ 	c #B18887",
"] 	c #B28887",
"^ 	c #7C5D6A",
"/ 	c #6C5866",
"( 	c #A5737B",
"_ 	c #B78285",
": 	c #C08E8C",
"< 	c #C39490",
"[ 	c #C69A94",
"} 	c #CBA59C",
"| 	c #CDAAA0",
"1 	c #CEAAA0",
"2 	c #C69A95",
"3 	c #C08F8D",
"4 	c #B88285",
"5 	c #A5747B",
"6 	c #85636E",
"7 	c #6D5967",
"8 	c #AE8183",
"9 	c #C3938F",
"0 	c #C49490",
"a 	c #C49590",
"b 	c #C59792",
"c 	c #C79B95",
"d 	c #C89D96",
"e 	c #6D5867",
"f 	c #C1928F",
"g 	c #BF8E8C",
"h 	c #C1918E",
"i 	c #C1928E",
"j 	c #BD8B8B",
"k 	c #BD8B8A",
"l 	c #C2928F",
"m 	c #BF918E",
"n 	c #B68B89",
"o 	c #A37D7F",
"p 	c #846870",
"q 	c #6D5866",
"r 	c #B37B81",
"s 	c #B37A81",
"t 	c #9C787C",
"u 	c #8B6D74",
"v 	c #8A6C73",
"w 	c #846871",
"x 	c #765F6A",
"y 	c #B98587",
"z 	c #C29491",
"A 	c #C29591",
"B 	c #B47E83",
"C 	c #B68286",
"D 	c #B78588",
"E 	c #B78B89",
"F 	c #8A6A72",
"G 	c #866670",
"H 	c #80626D",
"I 	c #755C69",
"J 	c #C9A39B",
"K 	c #C0928F",
"L 	c #C59D97",
"M 	c #C8A39B",
"N 	c #AF8384",
"O 	c #AA7B7F",
"P 	c #9B6F77",
"Q 	c #80616D",
"R 	c #CBA49C",
"S 	c #BD8989",
"T 	c #AB7B7F",
"U 	c #876670",
"V 	c #C49792",
"W 	c #C69B95",
"X 	c #C79D96",
"Y 	c #B08484",
"Z 	c #000000",
"` 	c #946572",
" .	c #857A2F",
"..	c #8B8032",
"+.	c #8B7F30",
"@.	c #8B8357",
"#.	c #8C8A7E",
"$.	c #8C8E8E",
"%.	c #8C8E8F",
"&.	c #85792F",
"*.	c #C7B54A",
"=.	c #DDC953",
"-.	c #DECA54",
";.	c #DDC950",
">.	c #DECF8A",
",.	c #DED9C6",
"'.	c #DEDEDE",
").	c #DEDEDF",
"!.	c #B2993D",
"~.	c #E5BF4E",
"{.	c #FCD156",
"].	c #FDD156",
"^.	c #FCD053",
"/.	c #FCD68C",
"(.	c #FDE0C7",
"_.	c #FDE5E0",
":.	c #FDE5E1",
"<.	c #E5C04E",
"[.	c #BA9A94",
"}.	c #F4AD43",
"|.	c #FAA03B",
"1.	c #FA9F3B",
"2.	c #FAA03A",
"3.	c #FAA35C",
"4.	c #FAA881",
"5.	c #FAAB91",
"6.	c #8B7F32",
"7.	c #FDD356",
"8.	c #FBA93E",
"9.	c #F98728",
"0.	c #F98626",
"a.	c #F98828",
"b.	c #F98827",
"c.	c #F98727",
"d.	c #F98825",
"e.	c #F9871F",
"f.	c #F9861E",
"g.	c #F98724",
"h.	c #F88125",
"i.	c #F77B24",
"j.	c #FED858",
"k.	c #FEB842",
"l.	c #FCA02F",
"m.	c #FC9F2E",
"n.	c #FCA02D",
"o.	c #FCA029",
"p.	c #FCA026",
"q.	c #FCA12F",
"r.	c #FB952B",
"s.	c #FEDA58",
"t.	c #FFC044",
"u.	c #FEAE34",
"v.	c #FEAD33",
"w.	c #FEAB33",
"x.	c #FDA531",
"y.	c #FDAA36",
"z.	c #FEB83F",
"A.	c #FEBB40",
"B.	c #FEB238",
"C.	c #FDAA30",
"D.	c #FDA430",
"E.	c #FDAC58",
"F.	c #FEBE81",
"G.	c #FEC181",
"H.	c #FEB55A",
"I.	c #FEAE32",
"J.	c #FFC144",
"K.	c #FEAE33",
"L.	c #FEAF34",
"M.	c #FA932B",
"N.	c #FAA339",
"O.	c #FDC94F",
"P.	c #FED050",
"Q.	c #FEBC40",
"R.	c #FDA42A",
"S.	c #FAAB81",
"T.	c #FDD9C5",
"U.	c #FFDFC6",
"V.	c #FEC383",
"W.	c #FEAE2E",
"X.	c #F98627",
"Y.	c #F99E3A",
"Z.	c #FCD056",
"`.	c #FEDD5A",
" +	c #FECB4D",
".+	c #FEBF43",
"++	c #FDB63A",
"@+	c #FAA73D",
"#+	c #FABF96",
"$+	c #FDEBE2",
"%+	c #FFEDE1",
"&+	c #FEC893",
"*+	c #FEAD2E",
"=+	c #FEAD28",
"-+	c #F99E3B",
";+	c #FEE45F",
">+	c #FEDF5B",
",+	c #FDD753",
"'+	c #FDDF9E",
")+	c #FEF4E3",
"!+	c #FFEEE1",
"~+	c #FEC894",
"{+	c #FEAD2B",
"]+	c #FBA032",
"^+	c #FA9F38",
"/+	c #FAB547",
"(+	c #FDD759",
"_+	c #FEE761",
":+	c #FEE862",
"<+	c #FEE861",
"[+	c #FEE75F",
"}+	c #FEEC94",
"|+	c #FFF5CC",
"1+	c #FFEED2",
"2+	c #FED6AD",
"3+	c #FEB457",
"4+	c #C49692",
"5+	c #FBC14D",
"6+	c #FEE25F",
"7+	c #FEE860",
"8+	c #FEE974",
"9+	c #FEEC92",
"0+	c #FEEEB5",
"a+	c #FFEDD2",
"b+	c #FEC182",
"c+	c #FDD757",
"d+	c #FDE25E",
"e+	c #FEE75E",
"f+	c #FEEFA2",
"g+	c #FFFAE4",
"h+	c #FEDE5A",
"i+	c #FECA4C",
"j+	c #FDB641",
"k+	c #FAA73C",
"l+	c #FEE75C",
"m+	c #FEEEA1",
"n+	c #FFF9E4",
"o+	c #FDA330",
"p+	c #FA9129",
"q+	c #FAA238",
"r+	c #FDC84E",
"s+	c #FED955",
"t+	c #FEDF8E",
"u+	c #FFE8C7",
"v+	c #FFDFC4",
"w+	c #FDAA32",
"x+	c #FDA32F",
"y+	c #FDA935",
"z+	c #FDB83F",
"A+	c #FEBF42",
"B+	c #FEC161",
"C+	c #FEC583",
"D+	c #FEDE5B",
"E+	c #FEC044",
"F+	c #FED958",
"G+	c #8F7579",
"H+	c #91787B",
"I+	c #FED857",
"J+	c #FEE15E",
"K+	c #FEE75D",
"L+	c #FEEEA2",
"M+	c #FFF9E3",
"N+	c #FFEDE0",
"O+	c #BA9993",
"P+	c #BD9F97",
"Q+	c #FEBF44",
"R+	c #FDB741",
"S+	c #FAA83D",
"T+	c #FAB647",
"U+	c #FCA02E",
"V+	c #F99D3A",
"W+	c #FEBA3F",
"X+	c #F98526",
"Y+	c #BE908D",
"Z+	c #B68A89",
"`+	c #9C797C",
" @	c #FFDB58",
".@	c #FA922A",
"+@	c #FAA239",
"@@	c #FECF50",
"#@	c #FEAE31",
"$@	c #FEAC2D",
"%@	c #FDA31E",
"&@	c #FA9120",
"*@	c #FAAA7E",
"=@	c #FDD8C3",
"-@	c #FFDEC4",
";@	c #BB9490",
">@	c #A18483",
",@	c #8C6F75",
"'@	c #C9A29B",
")@	c #C9A89E",
"!@	c #C2A39A",
"~@	c #84792F",
"{@	c #E7C750",
"]@	c #F7C349",
"^@	c #FFC042",
"/@	c #FFC361",
"(@	c #FFC785",
"_@	c #FFC994",
":@	c #FFC995",
"<@	c #CEABA0",
"[@	c #B39D3E",
"}@	c #FEDF8D",
"|@	c #FFE9C8",
"1@	c #FFEDDF",
"2@	c #FEDF8C",
"3@	c #FEDA55",
"4@	c #B18686",
"5@	c #8B8356",
"6@	c #8B8A7E",
"7@	c #8C8D8E",
"8@	c #8C8D8F",
"9@	c #927C7E",
"0@	c #948183",
"a@	c #968486",
"b@	c #936572",
"c@	c #BFA59D",
"d@	c #C4B0A7",
"e@	c #C6B5AC",
"f@	c #C6B5AD",
"g@	c #B28787",
"h@	c #A4737B",
"i@	c #D0AFA5",
"j@	c #D4B9AF",
"k@	c #D6BEB3",
"l@	c #D6BEB4",
"m@	c #AD8183",
"n@	c #C89F99",
"o@	c #CAA39C",
"p@	c #CBA59F",
"q@	c #BF8D8C",
"r@	c #A27D7F",
"s@	c #836770",
"t@	c #C39390",
"u@	c #C0908E",
"v@	c #BB898A",
"w@	c #BC8C8C",
"x@	c #C39792",
"y@	c #B88E8B",
"z@	c #A08081",
"A@	c #7F616C",
"B@	c #C49893",
"C@	c #C79F98",
"D@	c #CAA59D",
"E@	c #CCA89F",
"F@	c #C29792",
"G@	c #BE9C95",
"H@	c #AA7A7F",
"I@	c #9A6F77",
"J@	c #BC8989",
"K@	c #C1908E",
"L@	c #7D5D6B",
"  . + @ # @ @ @ @ $ % & & & & & & & & % $ @ @ $ % % $ @ @ @ @ @ @ @ @ @ @ @ @ @ @ @ @ @ @ @ @ @ @ @ @ @ @ @ @ @ @ # @ + .   * = ",
"- ; > , ' , , , , ) ! ~ ~ ~ ~ ~ ~ ~ ~ ! ) , , ) ! ! ) , , { ] ] { ' , , , , , , , , , , , , , , , , , , , , , , , ' , > ; - ^ / ",
"( _ : < < < < < < [ } | 1 | | | | 1 | } [ < < 2 } } 2 < < < < < < < < < < < < < < < < < < < < < < < < < < < < < < < < 3 4 5 6 7 ",
"8 : 9 0 a 0 0 0 0 b c d d d d d d d d c b 0 0 b c c b 0 0 0 0 0 0 0 0 0 0 0 0 0 0 0 0 0 0 0 0 0 0 0 0 0 0 0 0 0 0 a 0 9 : 8 + e ",
"] < 0 < < < < < < < < < < < < < < < < < < < < < < < < < < < < < < < < < < < < f g g h i g j k k k k k k j g l < < m n ] , o p q ",
"] < a < < < < < < < < < < < < < < < < < < < < < < < < < < < < < < < < < < < < g _ 4 g g 4 r s r r r r s r _ g < < n t u v w x q ",
"] < 0 < < < < < < < < < < < < < < < < < < < < < < < < < < < < < < < < < < < < g _ y z A y B C D D D D C B _ g < < E t F G H I q ",
"] < 0 < < < < < < < < < < < < < < < < < < < < < < < < < < < < < < < < < < < < h g A J J A K L M M M M L K g i < < m n N O P Q q ",
"] < 0 < < < < < < < < < < < < < < < < < < < < < < < < < < < < < < < < < < < < < < 2 } R 2 [ R | 1 1 | } [ < < < < < < h S T U q ",
"] < 0 < < < < < < < < < < < < < < < < < < < < < < < < < < < < < < < < < < < < < < V 2 2 V V W X X X X W V < < < < < < < h Y F q ",
"] < a < < < < < < < < < < < < < < < < < < < < < < < < < < < < < < < < < < < < < < < < < < < < < < < < < < < < < < < < a < ] # q ",
"] < 0 < < < < < < < < < < < < < < < < < < < < < < < < < < < < < < < < < < < < < < < < < < < < < < < < < < < < < < < < a < ] # q ",
"8 : 9 0 a 0 0 0 0 0 0 0 0 0 0 0 0 0 0 0 0 0 0 0 0 0 0 0 0 0 0 0 0 0 0 0 0 0 0 0 0 0 0 0 0 0 0 0 0 0 0 0 0 0 0 0 0 a 0 9 : 8 + e ",
"( _ : < < < < < < < < < < < < < < < Z Z Z Z Z Z Z Z Z Z Z Z Z Z Z Z Z Z Z Z Z Z Z Z Z Z Z Z < < < < < < < < < < < < < : _ ( . 7 ",
"` ; > , , , , , , , , , , , , , , ,  .....................+...@.#.$.%.%.$.#.@...+......... ., , , , , , , , , , , ' , > ; - ^ / ",
"  . + @ # @ @ @ @ @ @ @ @ @ @ @ Z &.*.=.-.=.=.=.=.=.=.=.=.;.=.>.,.'.).).'.,.>.=.;.=.=.-.=.*.&.Z @ @ @ @ @ @ @ @ @ # @ + .   * = ",
"% & & & & % $ @ @ @ @ @ @ @ @ @ &.!.~.{.].{.{.{.{.{.{.{.{.^.{./.(._.:.:._.(./.{.^.{.{.].{.<.!.&.& & & & & % $ @ @ @ @ @ @ @ @ @ ",
"[.~ ~ ~ ~ ! ) , , , , , , , Z  .*.<.}.|.1.|.|.|.|.|.|.|.|.2.|.3.4.5.5.5.5.4.3.|.2.|.|.1.|.}.<.*. .Z ~ ~ ~ ! ) , , , , , ' { ] ] ",
"} | 1 1 | } [ < < < < < < < Z 6.=.7.8.9.0.9.9.9.9.a.a.b.c.c.c.9.a.a.a.d.e.f.g.9.a.a.9.h.i.|.{.=...Z | 1 | } [ < < < < < < < < < ",
"c d d d d c b 0 0 0 0 0 0 0 Z 6.-.j.k.l.m.l.l.l.l.l.l.l.l.l.l.n.o.p.p.p.p.o.n.l.l.q.l.r.h.1.].-...Z d d d c b 0 0 0 0 0 0 0 0 0 ",
"< < < < < < < < < < < < < i Z 6.=.s.t.u.v.u.u.u.u.w.x.y.z.A.B.v.v.C.D.E.F.G.H.u.I.u.u.l.9.|.{.=...Z < < < < < < < < < < < < < < ",
"< < < < < < < < < < < < < g Z 6.=.s.J.u.K.u.u.L.u.x.M.N.O.P.Q.L.u.R.M.S.T.U.V.u.W.L.u.q.a.|.{.=...Z < < < < < < < < < < < < < < ",
"< < < < < < < < < < < V 2 A Z 6.=.s.t.u.v.u.u.L.u.l.X.Y.Z.`. +.+.+++@+#+$+%+&+*+=+u.u.l.9.|.{.=...Z < < < < < < < < < < < < < < ",
"< < < < < < < < < < < 2 } J Z 6.=.s.t.u.v.u.u.u.u.l.c.-+{.;+>+s.s.,+7.'+)+!+~+u.{+u.u.l.9.|.{.=...Z < < < < < < < < < < < < < < ",
"< < < < < < < < < < < 2 } R Z 6.=.s.t.u.v.u.u.w.x.]+^+/+(+_+:+<+<+[+_+}+|+1+2+G.3+u.I.l.9.|.{.=...Z < < < < < < < < < < < < < < ",
"< < < < < < < < < < < 4+2 2 Z 6.=.s.t.u.v.u.u.D.M.^+5+(+6+_+<+_+<+7+<+8+9+0+a+U.b+u.*+l.9.|.{.=...Z < < < < < < < < < < < < < < ",
"< < < < < < < < < < < < < < Z 6.=.s.t.u.v.u.u.l.9.Y.{._+<+;+`.c+7.(+d+e+<+f+g+!+~+u.{+l.9.|.{.=...Z < < < < < < < < < < < < < < ",
"< < < < < < < < < < < < < < Z 6.=.s.t.u.v.u.u.l.c.-+{.:+:+h+i+j+k+/+(+l+[+m+n+!+~+u.{+l.9.|.{.=...Z < < < < < < < < < < < < < < ",
"0 0 0 0 0 0 0 0 0 0 0 0 0 0 Z 6.=.s.t.u.v.u.u.l.9.Y.{.<+<+s..+o+p+q+r+s+s.t+u+v+b+u.*+l.9.|.{.=...Z 0 0 0 0 0 0 0 0 0 0 0 0 0 0 ",
"< < < < < < < < < < < < < < Z 6.=.s.t.u.v.u.u.l.9.Y.{.<+<+s..+w+x+y+z+A+.+B+C+G.H.u.I.l.9.|.{.=...Z < < < < < < < < < < < < < < ",
"{ ' , , , , , , , , , , , , Z 6.=.s.t.u.v.u.u.l.c.-+{.:+:+D+ +E+.+E+.+A+.+B+C+G.H.u.I.l.9.|.{.=...Z , , , , , , , , , , ' { ] ] ",
"@ @ @ @ @ @ @ @ @ @ @ @ @ @ Z 6.=.s.t.u.v.u.u.l.9.Y.{._+<+;+`.s.s.s.s.s+F+t+u+v+b+u.*+l.9.|.{.=...Z @ @ @ @ @ @ @ @ @ @ @ @ @ @ ",
"  . + @ # @ @ $ % G+$ $ G+H+Z 6.=.s.t.u.v.u.u.D.M.N.r+F+s.s.s.I+7.(+J+K+_+L+M+N+~+u.{+l.9.|.{.=...Z @ @ @ @ @ @ @ # @ + .   * = ",
"- ; > , ' , , ) ! O+) ) O+P+Z 6.=.s.t.u.v.u.u.w.x.y.z..+.+.+Q+R+S+T+(+e+:+f+g+!+~+u.{+l.9.|.{.=...Z , , , , , , , ' , > ; - ^ / ",
"( _ : < < < < 2 } R 2 [ R | Z 6.=.s.t.u.v.u.u.w.x.y.z..+.+A.B.U+0.V+Z.K+<+L+M+N+~+u.{+l.9.|.{.=...Z < < < < < < < < < : _ ( . 7 ",
"8 : 9 0 a 0 0 b c c b b c d Z 6.=.s.t.u.v.u.u.D.M.N.r+s.s.P.W+U+X+V+Z.K+<+L+M+N+~+u.{+l.9.|.{.=...Z 0 0 0 0 0 0 0 a 0 9 : 8 + e ",
"] < 0 < < < < < < < < < < < Z 6.=.s.t.u.v.u.u.l.c.-+{.:+:+h+i+j+k+/+(+l+[+m+n+!+~+u.{+l.9.|.{.=...Z < < < < < < < < < a < ] # q ",
"] < a < < < < < < < < < < < Z 6.=.s.t.u.v.u.u.l.c.-+{.<+:+;+h+I+7.(+J+K+_+L+M+N+~+u.{+l.9.|.{.=...Z < < < < < < < < < a < ] # q ",
"] < 0 < < < < < < < < < < < Z 6.=.s.t.u.v.u.u.D.M.^+5+(+6+_+<+_+<+7+<+8+9+0+a+U.b+u.*+l.9.|.{.=...Z < < < < < 0 0 a 0 < h Y F q ",
"] < 0 < < < < < < < < < < < Z 6.=.s.t.u.v.u.u.w.x.]+^+/+(+_+:+<+<+[+_+}+|+1+2+G.3+u.I.l.9.|.{.=...Z < < < < < < < < < h S T U q ",
"] < 0 < < < < < < < < < < < Z 6.=.s.t.u.v.u.u.u.u.l.c.-+{.;+>+s.s.,+7.'+)+!+~+u.{+u.u.l.9.|.{.=...Z g g h Y+Z+, , ' , N O P Q q ",
"] < 0 < < < < < < < < < < < Z 6.=.s.t.u.v.u.u.L.u.l.X.Y.Z.`. +.+.+++@+#+$+%+&+*+=+u.u.l.9.|.{.=...Z 4 4 g n `+@ v # @ F U H I q ",
"] < a < < < < < < < < < < < Z 6.-. @t.v.v.v.v.K.v.o+.@+@r+@@A.#@$@%@&@*@=@-@b+v.$@K.v.m.0.1.].-...Z y y z ;@>@% ,@@ @ u u w x q ",
"] < 0 < < < < < < < < < < < Z 6.=.s.t.u.v.u.u.u.u.w.x.y.z.A.B.v.v.C.D.E.F.G.H.u.I.u.u.l.9.|.{.=...Z A z '@)@!@! ) , , ] ' o p q ",
"8 : 9 0 a 0 0 0 0 0 0 0 0 0 Z ~@*.{@]@t.t.t.t.t.t.t.t.t.t.^@t./@(@_@:@:@_@(@/@t.^@J.t.k.8.}.~.*. .Z c W } <@<@} W a 0 9 : 8 + e ",
"( _ : < < < < < < < < < < < < < &.[@{@s. @s.s.s.s.s.s.s.s.s+s.}@|@N+!+!+1@u+2@s.3@s.s.j.7.<.!.&.2 2 V V 2 X X c b a 0 3 4 5 6 7 ",
"- ; > , ' , , , , , , , , , , , Z &.*.=.-.=.=.=.=.=.=.=.=.;.=.>.,.'.).).'.,.>.=.;.=.=.-.=.*.&.Z , , 4@4@4@4@4@4@, , , > ; - ^ / ",
"  . + @ # @ @ @ @ @ @ @ @ @ @ @ @ @ ~@6.6.6.6.6.6.6.6.6.6.+.6.5@6@7@8@8@7@6@5@6.+.6.6.6.6. .@ @ @ @ @ @ @ @ @ @ @ # @ + .   * = ",
"@ @ @ @ @ @ @ @ @ @ @ @ @ @ @ @ @ @ Z Z Z Z Z Z Z Z Z Z Z Z Z Z Z Z Z Z Z Z Z Z Z Z Z Z Z Z & H+& 9@0@a@a@a@a@0@9@& H+% $ @ @ @ ",
"{ ' , , , , , , , , , , , , , , , , , , , , , , , ' , > ; b@^ ^ b@; > , ' , , ) ! O+) ) O+~ ~ P+~ c@d@e@f@f@e@d@c@~ P+! ) { g@] ",
"< < < < < < < < < < < < < < < < < < < < < < < < < a 0 3 4 ( 6 . h@_ : < < < < 2 } R 2 [ R | 1 | | i@j@k@l@l@k@j@i@1 | } [ < < < ",
"0 0 0 0 0 0 0 0 0 0 0 0 0 0 0 0 0 0 0 0 0 0 0 0 0 a 0 9 : m@+ + m@: 9 0 a 0 0 b c c b b c d d d d n@o@p@p@p@p@o@n@d d c b 0 0 0 ",
"< < < < < < < l g j k k j g l < < f q@q@h < < m Z+, , ] ' r@p @ ' < 0 < < < < < < < < < < < < < < < < < < < < < < < < < < < < < ",
"< < < < < < < g _ r s s r _ g < < g _ _ g < < n t @ v u u s@x # ] < a < < < < < < < < < < < < < < < t@9 9 9 9 t@< < < < < < < < ",
"< < < < < < < g _ B C C B _ g < < u@v@w@x@W V y@z@% ,@F U A@I @ ] < 0 < < < < < < < < < < < < < < < < < < < < < < < < < < < < < ",
"< < < < < < < i g K L L K g i < < B@C@D@E@} [ F@G@! ) N H@I@Q @ ' < 0 < < < < < < < < < < < < < < < < < < < < < < < < < < < < < ",
"< < < < < < < < < 2 } } 2 < < < < [ } 1 1 R [ 2 R } 2 h J@O U @ ' < 0 < < < < < < < < < < < < < < < < < < < < < < < < < < < < < ",
"< < < < < < < < < V W W V < < < < 4+W X X [ 4+4+W c b < K@N F @ , < 0 < < < < < < < < < < < < < < < < < < < < < < < < < < < < < ",
"< < < < < < < < < < < < < < < < < < < < < < < < < < < a < ' # # ' < a < < < < < < < < < < < < < < < < < < < < < < < < < < < < < ",
"< < < < < < < < < < < < < < < < < < < < < < < < < < < a < ' # @ , < 0 < < < < < < < < < < < < < < < < < < < < < < < < < < < < < ",
"0 0 0 0 0 0 0 0 0 0 0 0 0 0 0 0 0 0 0 0 0 0 0 0 0 a 0 9 : m@+ + m@: 9 0 a 0 0 0 0 0 0 0 0 0 0 0 0 0 0 0 0 0 0 0 0 0 0 0 0 0 0 0 ",
"< < < < < < < < < < < < < < < < < < < < < < < < < < < : _ h@. . h@_ : < < < < < < < < < < < < < < < < < < < < < < < < < < < < < ",
"{ ' , , , , , , , , , , , , 4@4@4@4@, , , , , , , , , > ; b@^ ^ b@; > , ' , , , , , , , , , , , , , , , , , , , , , , , ' { ] ] ",
"@ @ @ @ @ @ @ @ @ @ @ @ @ @ @ @ @ @ @ @ @ @ @ @ @ # @ + . L@* * L@. + @ # @ @ @ @ @ @ @ @ @ @ @ @ @ @ @ @ @ @ @ @ @ @ @ @ @ @ @ "};
