/* XPM */
static char * coins5_xpm[] = {
"64 64 325 2",
"  	c #7D5E6B",
". 	c #84636E",
"+ 	c #896972",
"@ 	c #8B6C73",
"# 	c #8B6C74",
"$ 	c #8C7076",
"% 	c #8F7679",
"& 	c #91797B",
"* 	c #735A68",
"= 	c #6E5967",
"- 	c #946672",
"; 	c #A4727A",
"> 	c #AD8082",
", 	c #B18786",
"' 	c #B18787",
") 	c #B48E8B",
"! 	c #BA9A93",
"~ 	c #BDA098",
"{ 	c #B18887",
"] 	c #B28887",
"^ 	c #7C5D6A",
"/ 	c #6C5866",
"( 	c #A5737B",
"_ 	c #B78285",
": 	c #C08E8C",
"< 	c #C39490",
"[ 	c #C69A94",
"} 	c #CBA59C",
"| 	c #CDAAA0",
"1 	c #CEAAA0",
"2 	c #C69A95",
"3 	c #C08F8D",
"4 	c #B88285",
"5 	c #A5747B",
"6 	c #85636E",
"7 	c #6D5967",
"8 	c #AE8183",
"9 	c #C3938F",
"0 	c #C49490",
"a 	c #C49590",
"b 	c #C59792",
"c 	c #C79B95",
"d 	c #C89D96",
"e 	c #6D5867",
"f 	c #C1928F",
"g 	c #BF8E8C",
"h 	c #C1918E",
"i 	c #C1928E",
"j 	c #BD8B8B",
"k 	c #BD8B8A",
"l 	c #C2928F",
"m 	c #BF918E",
"n 	c #B68B89",
"o 	c #A37D7F",
"p 	c #846870",
"q 	c #6D5866",
"r 	c #B37B81",
"s 	c #B37A81",
"t 	c #9C787C",
"u 	c #8B6D74",
"v 	c #8A6C73",
"w 	c #846871",
"x 	c #765F6A",
"y 	c #B98587",
"z 	c #C29491",
"A 	c #C29591",
"B 	c #B47E83",
"C 	c #B68286",
"D 	c #B78588",
"E 	c #B78B89",
"F 	c #8A6A72",
"G 	c #866670",
"H 	c #80626D",
"I 	c #755C69",
"J 	c #C9A39B",
"K 	c #C0928F",
"L 	c #C59D97",
"M 	c #C8A39B",
"N 	c #AF8384",
"O 	c #AA7B7F",
"P 	c #9B6F77",
"Q 	c #80616D",
"R 	c #CBA49C",
"S 	c #BD8989",
"T 	c #AB7B7F",
"U 	c #876670",
"V 	c #C49792",
"W 	c #C69B95",
"X 	c #C79D96",
"Y 	c #B08484",
"Z 	c #000000",
"` 	c #946572",
" .	c #813B0C",
"..	c #873D0D",
"+.	c #873C05",
"@.	c #885C4E",
"#.	c #8B7F7C",
"$.	c #868888",
"%.	c #C25B18",
"&.	c #D7661C",
"*.	c #D8661C",
"=.	c #D7640E",
"-.	c #DA947D",
";.	c #DCC8C3",
">.	c #C8C8C8",
",.	c #F77622",
"'.	c #F87722",
").	c #F77417",
"!.	c #FA9F7F",
"~.	c #FBCFC3",
"{.	c #DCC7C2",
"].	c #8A7E7B",
"^.	c #8F7579",
"/.	c #BA9A94",
"(.	c #F97722",
"_.	c #F8761F",
":.	c #FA8854",
"<.	c #BA9993",
"[.	c #D7651C",
"}.	c #F77522",
"|.	c #F87622",
"1.	c #F7751E",
"2.	c #F98754",
"3.	c #F99E7F",
"4.	c #D9937D",
"5.	c #BF8D8C",
"6.	c #884811",
"7.	c #D97621",
"8.	c #FA8928",
"9.	c #FB8928",
"0.	c #FA871E",
"a.	c #FCAC81",
"b.	c #FED9C5",
"c.	c #DFCFC3",
"d.	c #8C837C",
"e.	c #8A5615",
"f.	c #DC8C28",
"g.	c #FCA230",
"h.	c #FDA330",
"i.	c #FCA12E",
"j.	c #FEAE5A",
"k.	c #FEC083",
"l.	c #DEAF80",
"m.	c #8B6D50",
"n.	c #B47D83",
"o.	c #BC8C8C",
"p.	c #C39793",
"q.	c #7F5118",
"r.	c #CC842C",
"s.	c #EA9934",
"t.	c #EB9934",
"u.	c #EB9932",
"v.	c #EA972D",
"w.	c #CC8324",
"x.	c #7F5012",
"y.	c #CAA59D",
"z.	c #CCA89F",
"A.	c #673317",
"B.	c #A7562B",
"C.	c #C06433",
"D.	c #C16434",
"E.	c #C06434",
"F.	c #C16331",
"G.	c #C0612D",
"H.	c #A75323",
"I.	c #673112",
"J.	c #662215",
"K.	c #A43C28",
"L.	c #BD462F",
"M.	c #BE472F",
"N.	c #BD452D",
"O.	c #BF6158",
"P.	c #BF8181",
"Q.	c #A77C7E",
"R.	c #684D4E",
"S.	c #C49692",
"T.	c #7C3510",
"U.	c #C65821",
"V.	c #E46727",
"W.	c #E56727",
"X.	c #E4641E",
"Y.	c #E79581",
"Z.	c #E9C9C5",
"`.	c #CCC2C3",
" +	c #807B7C",
".+	c #F77311",
"++	c #FAAA91",
"@+	c #FDE5E0",
"#+	c #DEDEDE",
"$+	c #8C8E8E",
"%+	c #873E0D",
"&+	c #F87411",
"*+	c #FBAB91",
"=+	c #FEE6E1",
"-+	c #DFDFDF",
";+	c #8C8E8F",
">+	c #884711",
",+	c #D97521",
"'+	c #F98728",
")+	c #FA8828",
"!+	c #F9851A",
"~+	c #FCB392",
"{+	c #FDE8E0",
"]+	c #8C8D8E",
"^+	c #FCA026",
"/+	c #FEC293",
"(+	c #FEEBE0",
"_+	c #B18686",
":+	c #8B5E18",
"<+	c #DE982C",
"[+	c #FFAF34",
"}+	c #FFB034",
"|+	c #FFAE2B",
"1+	c #FFC994",
"2+	c #FFEDE0",
"3+	c #DD972C",
"4+	c #FEAE34",
"5+	c #FEAD2B",
"6+	c #91787B",
"7+	c #927C7E",
"8+	c #948183",
"9+	c #968486",
"0+	c #EA972B",
"a+	c #F1BC94",
"b+	c #FAEAE0",
"c+	c #BD9F97",
"d+	c #BFA59D",
"e+	c #C4B0A7",
"f+	c #C6B5AC",
"g+	c #C6B5AD",
"h+	c #673217",
"i+	c #A7552B",
"j+	c #C06333",
"k+	c #C16334",
"l+	c #BF5F2A",
"m+	c #D4A294",
"n+	c #F1E4E0",
"o+	c #8D8E8E",
"p+	c #D0AFA5",
"q+	c #D4B9AF",
"r+	c #D6BEB3",
"s+	c #D6BEB4",
"t+	c #662315",
"u+	c #A53D28",
"v+	c #BF472F",
"w+	c #BD4125",
"x+	c #D39993",
"y+	c #F0E1E0",
"z+	c #C89F99",
"A+	c #CAA39C",
"B+	c #CBA59F",
"C+	c #E4631A",
"D+	c #EDA492",
"E+	c #F8E4E0",
"F+	c #7D3510",
"G+	c #C75A21",
"H+	c #E56827",
"I+	c #E66927",
"J+	c #E4651A",
"K+	c #EEA592",
"L+	c #F9E5E1",
"M+	c #8D8E8F",
"N+	c #C39390",
"O+	c #560F17",
"P+	c #8B1E2B",
"Q+	c #A12433",
"R+	c #A22433",
"S+	c #A01A2D",
"T+	c #B97F82",
"U+	c #DAC3C4",
"V+	c #CCC2C2",
"W+	c #817B7B",
"X+	c #A02131",
"Y+	c #AB535A",
"Z+	c #B97E81",
"`+	c #BE908D",
" @	c #B68A89",
".@	c #E5661E",
"+@	c #E79580",
"@@	c #E9C8C4",
"#@	c #807B7B",
"$@	c #9C797C",
"%@	c #FAAB92",
"&@	c #FDE6E1",
"*@	c #DEDFDF",
"=@	c #BB9490",
"-@	c #A18483",
";@	c #8C6F75",
">@	c #C9A29B",
",@	c #C9A89E",
"'@	c #C2A39A",
")@	c #F87517",
"!@	c #FB9F7F",
"~@	c #FDD0C4",
"{@	c #DDC8C3",
"]@	c #8B7E7B",
"^@	c #CEABA0",
"/@	c #F98753",
"(@	c #F99D7D",
"_@	c #D9927B",
":@	c #885B4D",
"<@	c #873D0E",
"[@	c #873900",
"}@	c #813500",
"|@	c #936572",
"1@	c #B28787",
"2@	c #A4737B",
"3@	c #AD8183",
"4@	c #A27D7F",
"5@	c #836770",
"6@	c #C0908E",
"7@	c #BB898A",
"8@	c #C39792",
"9@	c #B88E8B",
"0@	c #A08081",
"a@	c #7F616C",
"b@	c #C49893",
"c@	c #C79F98",
"d@	c #C29792",
"e@	c #BE9C95",
"f@	c #AA7A7F",
"g@	c #9A6F77",
"h@	c #BC8989",
"i@	c #C1908E",
"j@	c #7D5D6B",
"  . + @ # @ @ @ @ $ % & & & & & & & & % $ @ @ $ % % $ @ @ @ @ @ @ @ @ @ @ @ @ @ @ @ @ @ @ @ @ @ @ @ @ @ @ @ @ @ @ # @ + .   * = ",
"- ; > , ' , , , , ) ! ~ ~ ~ ~ ~ ~ ~ ~ ! ) , , ) ! ! ) , , { ] ] { ' , , , , , , , , , , , , , , , , , , , , , , , ' , > ; - ^ / ",
"( _ : < < < < < < [ } | 1 | | | | 1 | } [ < < 2 } } 2 < < < < < < < < < < < < < < < < < < < < < < < < < < < < < < < < 3 4 5 6 7 ",
"8 : 9 0 a 0 0 0 0 b c d d d d d d d d c b 0 0 b c c b 0 0 0 0 0 0 0 0 0 0 0 0 0 0 0 0 0 0 0 0 0 0 0 0 0 0 0 0 0 0 a 0 9 : 8 + e ",
"] < 0 < < < < < < < < < < < < < < < < < < < < < < < < < < < < < < < < < < < < f g g h i g j k k k k k k j g l < < m n ] , o p q ",
"] < a < < < < < < < < < < < < < < < < < < < < < < < < < < < < < < < < < < < < g _ 4 g g 4 r s r r r r s r _ g < < n t u v w x q ",
"] < 0 < < < < < < < < < < < < < < < < < < < < < < < < < < < < < < < < < < < < g _ y z A y B C D D D D C B _ g < < E t F G H I q ",
"] < 0 < < < < < < < < < < < < < < < < < < < < < < < < < < < < < < < < < < < < h g A J J A K L M M M M L K g i < < m n N O P Q q ",
"] < 0 < < < < < < < < < < < < < < < < < < < < < < < < < < < < < < < < < < < < < < 2 } R 2 [ R | 1 1 | } [ < < < < < < h S T U q ",
"] < 0 < < < < < < < < < < < < < < < < < < < < < < < < < < < < < < < < < < < < < < V 2 2 V V W X X X X W V < < < < < < < h Y F q ",
"] < a < < < < < < < < < < < < < < < < < < < < < < < < < < < < < < < < < < < < < < < < < < < < < < < < < < < < < < < < a < ] # q ",
"] < 0 < < < < < < < < < < < < < < < < < < < < < < < < < < < < < < < < < < < < < < < < < < < < < < < < < < < < < < < < a < ] # q ",
"8 : 9 0 a 0 0 0 0 0 0 0 0 0 0 0 0 0 0 0 0 0 0 0 0 0 0 0 0 0 0 0 0 0 0 0 0 0 0 0 0 0 0 0 0 0 0 0 0 0 0 0 0 0 0 0 0 a 0 9 : 8 + e ",
"( _ : < < < < < < < < < < < < < < < < < < < < < < < Z Z Z Z Z Z Z Z Z Z Z Z < < < < < < < < < < < < < < < < < < < < < : _ ( . 7 ",
"` ; > , , , , , , , , , , , , , , , , , , , , , , ,  .............+...@.#.$., , , , , , , , , , , , , , , , , , , ' , > ; - ^ / ",
"  . + @ # @ @ @ @ @ @ @ @ @ @ @ @ @ @ @ @ @ @ @ Z  .%.&.*.&.&.&.&.=.&.-.;.>.$.Z @ @ @ @ @ @ @ @ @ @ @ @ @ @ @ @ @ # @ + .   * = ",
"% & & & & % $ @ @ @ @ @ @ @ @ @ @ @ @ @ @ @ @ @ Z ..&.,.'.,.,.,.,.).,.!.~.{.].Z % ^.$ $ ^.& & & & & & & & % $ @ @ @ @ @ @ @ @ @ ",
"/.~ ~ ~ ~ ! ) , , , , , , , , , , , , , , , , , Z ..*.'.(.'.'.'.'._.'.:.!.-.@.Z ! <.) ) <.~ ~ ~ ~ ~ ~ ~ ~ ! ) , , , , , ' { ] ] ",
"} | 1 1 | } [ < < < < < < < < < < < < < < < < < Z ..[.}.|.}.}.}.}.1.}.2.3.4.@.Z } R 2 [ R | 1 | | | | 1 | } [ < < < < < < < < < ",
"c d d d d c b 0 0 0 0 0 0 0 0 0 0 0 0 0 0 0 0 0 Z ..&.,.'.,.,.,.,.).,.!.~.{.].Z c c b b c d d d d d d d d c b 0 0 0 0 0 0 0 0 0 ",
"< < < < < < < < < < < < < i g j k 5.h h g g f < Z 6.7.8.9.8.8.8.8.0.8.a.b.c.d.Z < < < < < < < < < < < < < < < < < < < < < < < < ",
"< < < < < < < < < < < < < g _ s s 4 g g 4 _ g < Z e.f.g.h.g.g.g.g.i.g.j.k.l.m.Z < < < < < < < < < < < < < < < < < < < < < < < < ",
"< < < < < < < < < < < V 2 A y n.C o.p.z y _ g < Z q.r.s.t.s.s.s.s.s.s.u.v.w.x.Z < < < < < < < < < < < < < < < < < < < < < < < < ",
"< < < < < < < < < < < 2 } J z K L y.z.J z g h < Z A.B.C.D.C.C.C.C.E.C.F.G.H.I.Z < < < < < < < < < < < < < < < < < < < < < < < < ",
"< < < < < < < < < < < 2 } R 2 [ R 1 1 } [ < < < Z J.K.L.M.L.L.L.L.N.L.O.P.Q.R.Z < < < < < < < < < < < < < < < < < < < < < < < < ",
"< < < < < < < < < < < S.2 2 V V W X X 2 V < < < Z T.U.V.W.V.V.V.V.X.V.Y.Z.`. +Z < < < < < < < < < < < < < < < < < < < < < < < < ",
"< < < < < < < < < < < < < < < < < < < < < < < < Z ..[.}.|.}.}.}.}..+}.++@+#+$+Z < < < < < < < < < < < < < < < < < < < < < < < < ",
"< < < < < < < < < < < < < < < < < < < < < < < < Z %+*.'.(.'.'.'.'.&+'.*+=+-+;+Z < < < < < < < < < < < < < < < < < < < < < < < < ",
"0 0 0 0 0 0 0 0 0 0 0 0 0 0 0 0 0 0 0 0 0 0 0 0 Z >+,+'+)+'+'+'+'+!+'+~+{+#+]+Z 0 0 0 0 0 0 0 0 0 0 0 0 0 0 0 0 0 0 0 0 0 0 0 0 ",
"< < < < < < < < < < < < < < < < < < < < < < < < Z e.f.g.h.g.g.g.g.^+g./+(+#+]+Z < < < < < < < < < < < < < < < < < < < < < < < < ",
"{ ' , , , , , , , , , , , , , , _+_+_+_+_+_+, , Z :+<+[+}+[+[+[+[+|+[+1+2+#+]+Z , , , , , , , , , , , , , , , , , , , , ' { ] ] ",
"@ @ @ @ @ @ @ @ @ @ @ @ @ @ @ @ @ @ @ @ @ @ @ @ Z :+3+4+[+4+4+4+4+5+4+1+2+#+]+Z @ @ @ @ @ @ @ @ @ @ @ @ @ @ @ @ @ @ @ @ @ @ @ @ ",
"  . + @ # @ @ $ % ^.$ $ ^.6+& 7+8+9+9+9+9+8+7+^.Z q.r.s.t.s.s.s.s.0+s.a+b+#+]+Z @ @ @ @ @ @ @ @ @ @ @ @ @ @ @ @ @ # @ + .   * = ",
"- ; > , ' , , ) ! <.) ) <.c+~ d+e+f+g+g+f+e+d+<.Z h+i+j+k+j+j+j+j+l+j+m+n+#+o+Z , , , , , , , , , , , , , , , , , ' , > ; - ^ / ",
"( _ : < < < < 2 } R 2 [ R | 1 p+q+r+s+s+r+q+p+R Z t+u+M.v+M.M.M.M.w+M.x+y+#+o+Z < < < < < < < < < < < < < < < < < < < : _ ( . 7 ",
"8 : 9 0 a 0 0 b c c b b c d d z+A+B+B+B+B+A+z+c Z T.U.V.W.V.V.V.V.C+V.D+E+#+$+Z 0 0 0 0 0 0 0 0 0 0 0 0 0 0 0 0 0 a 0 9 : 8 + e ",
"] < 0 < < < < < < < < < < < < < < < < < < < < < Z F+G+H+I+H+H+H+H+J+H+K+L+-+M+Z < < < < < < < < < < < < < < < < < < < a < ] # q ",
"] < a < < < < < < < < < < < < < N+9 9 9 9 N+< < Z t+u+M.v+M.M.M.M.w+M.x+y+#+o+Z < < < < < < < < < < < < < < < < < < < a < ] # q ",
"] < 0 < < < < < < < < < < < < < < < < < < < < < Z O+P+Q+R+Q+Q+Q+Q+S+Q+T+U+V+W+Z < < < < < < < < < < < < < < < 0 0 a 0 < h Y F q ",
"] < 0 < < < < < < < < < < < < < < < < < < < < < Z O+P+Q+R+Q+Q+Q+Q+X+Q+Y+Z+Q.R.Z < < < < < < < < < < < < < < < < < < < h S T U q ",
"] < 0 < < < < < < < < < < < < < < < < < < < < < Z J.K.L.M.L.L.L.L.N.L.O.P.Q.R.Z < < < l g j j g i h g g h `+ @, , ' , N O P Q q ",
"] < 0 < < < < < < < < < < < < < < < < < < < < < Z F+G+H+I+H+H+H+H+.@H++@@@V+#@Z < < < g _ s s 4 g g 4 4 g n $@@ v # @ F U H I q ",
"] < a < < < < < < < < < < < < < < < < < < < < < Z ..&.,.'.,.,.,.,..+,.%@&@*@;+Z < < < g _ s s y A z y y z =@-@% ;@@ @ u u w x q ",
"] < 0 < < < < < < < < < < < < < < < < < < < < < Z %+*.'.(.'.'.'.'.&+'.*+=+-+;+Z < < < l g k j A J >@A z >@,@'@! ) , , ] ' o p q ",
"8 : 9 0 a 0 0 0 0 0 0 0 0 0 0 0 0 0 0 0 0 0 0 0 Z ..*.'.(.'.'.'.'.)@'.!@~@{@]@Z 0 0 0 0 0 0 0 c } } c W } ^@^@} W a 0 9 : 8 + e ",
"( _ : < < < < < < < < < < < < < < < < < < < < < Z ..&.,.'.,.,.,.,.1.,./@(@_@:@Z < < < < < < < V 2 2 V V 2 X X c b a 0 3 4 5 6 7 ",
"- ; > , ' , , , , , , , , , , , , , , , , , , , Z  .%.&.*.&.&.&.&.&.&.*.&.%. .Z , , , , , , , , , , _+_+_+_+_+_+, , , > ; - ^ / ",
"  . + @ # @ @ @ @ @ @ @ @ @ @ @ @ @ @ @ @ @ @ @ @ @  .............<@..+.[@}@@ @ @ @ @ @ @ @ @ @ @ @ @ @ @ @ @ @ @ # @ + .   * = ",
"@ @ @ @ @ @ @ @ @ @ @ @ @ @ @ @ @ @ @ @ @ @ @ @ @ # Z Z Z Z Z Z Z Z Z Z Z Z @ $ % ^.$ $ ^.& & 6+& 7+8+9+9+9+9+8+7+& 6+% $ @ @ @ ",
"{ ' , , , , , , , , , , , , , , , , , , , , , , , ' , > ; |@^ ^ |@; > , ' , , ) ! <.) ) <.~ ~ c+~ d+e+f+g+g+f+e+d+~ c+! ) { 1@] ",
"< < < < < < < < < < < < < < < < < < < < < < < < < a 0 3 4 ( 6 . 2@_ : < < < < 2 } R 2 [ R | 1 | | p+q+r+s+s+r+q+p+1 | } [ < < < ",
"0 0 0 0 0 0 0 0 0 0 0 0 0 0 0 0 0 0 0 0 0 0 0 0 0 a 0 9 : 3@+ + 3@: 9 0 a 0 0 b c c b b c d d d d z+A+B+B+B+B+A+z+d d c b 0 0 0 ",
"< < < < < < < l g j k k j g l < < f 5.5.h < < m  @, , ] ' 4@p @ ' < 0 < < < < < < < < < < < < < < < < < < < < < < < < < < < < < ",
"< < < < < < < g _ r s s r _ g < < g _ _ g < < n t @ v u u 5@x # ] < a < < < < < < < < < < < < < < < N+9 9 9 9 N+< < < < < < < < ",
"< < < < < < < g _ B C C B _ g < < 6@7@o.8@W V 9@0@% ;@F U a@I @ ] < 0 < < < < < < < < < < < < < < < < < < < < < < < < < < < < < ",
"< < < < < < < i g K L L K g i < < b@c@y.z.} [ d@e@! ) N f@g@Q @ ' < 0 < < < < < < < < < < < < < < < < < < < < < < < < < < < < < ",
"< < < < < < < < < 2 } } 2 < < < < [ } 1 1 R [ 2 R } 2 h h@O U @ ' < 0 < < < < < < < < < < < < < < < < < < < < < < < < < < < < < ",
"< < < < < < < < < V W W V < < < < S.W X X [ S.S.W c b < i@N F @ , < 0 < < < < < < < < < < < < < < < < < < < < < < < < < < < < < ",
"< < < < < < < < < < < < < < < < < < < < < < < < < < < a < ' # # ' < a < < < < < < < < < < < < < < < < < < < < < < < < < < < < < ",
"< < < < < < < < < < < < < < < < < < < < < < < < < < < a < ' # @ , < 0 < < < < < < < < < < < < < < < < < < < < < < < < < < < < < ",
"0 0 0 0 0 0 0 0 0 0 0 0 0 0 0 0 0 0 0 0 0 0 0 0 0 a 0 9 : 3@+ + 3@: 9 0 a 0 0 0 0 0 0 0 0 0 0 0 0 0 0 0 0 0 0 0 0 0 0 0 0 0 0 0 ",
"< < < < < < < < < < < < < < < < < < < < < < < < < < < : _ 2@. . 2@_ : < < < < < < < < < < < < < < < < < < < < < < < < < < < < < ",
"{ ' , , , , , , , , , , , , _+_+_+_+, , , , , , , , , > ; |@^ ^ |@; > , ' , , , , , , , , , , , , , , , , , , , , , , , ' { ] ] ",
"@ @ @ @ @ @ @ @ @ @ @ @ @ @ @ @ @ @ @ @ @ @ @ @ @ # @ + . j@* * j@. + @ # @ @ @ @ @ @ @ @ @ @ @ @ @ @ @ @ @ @ @ @ @ @ @ @ @ @ @ "};
