/* XPM */
static char * coins8_xpm[] = {
"64 64 458 2",
"  	c #7D5E6B",
". 	c #84636E",
"+ 	c #896972",
"@ 	c #8B6C73",
"# 	c #8B6C74",
"$ 	c #8C7076",
"% 	c #8F7679",
"& 	c #91797B",
"* 	c #735A68",
"= 	c #6E5967",
"- 	c #946672",
"; 	c #A4727A",
"> 	c #AD8082",
", 	c #B18786",
"' 	c #B18787",
") 	c #B48E8B",
"! 	c #BA9A93",
"~ 	c #BDA098",
"{ 	c #B18887",
"] 	c #B28887",
"^ 	c #7C5D6A",
"/ 	c #6C5866",
"( 	c #A5737B",
"_ 	c #B78285",
": 	c #C08E8C",
"< 	c #C39490",
"[ 	c #C69A94",
"} 	c #CBA59C",
"| 	c #CDAAA0",
"1 	c #CEAAA0",
"2 	c #C69A95",
"3 	c #C08F8D",
"4 	c #B88285",
"5 	c #A5747B",
"6 	c #85636E",
"7 	c #6D5967",
"8 	c #AE8183",
"9 	c #C3938F",
"0 	c #C49490",
"a 	c #C49590",
"b 	c #C59792",
"c 	c #C79B95",
"d 	c #C89D96",
"e 	c #6D5867",
"f 	c #C1928F",
"g 	c #BF8E8C",
"h 	c #C1918E",
"i 	c #C1928E",
"j 	c #BD8B8B",
"k 	c #BD8B8A",
"l 	c #C2928F",
"m 	c #BF918E",
"n 	c #B68B89",
"o 	c #A37D7F",
"p 	c #846870",
"q 	c #6D5866",
"r 	c #B37B81",
"s 	c #B37A81",
"t 	c #9C787C",
"u 	c #8B6D74",
"v 	c #8A6C73",
"w 	c #846871",
"x 	c #765F6A",
"y 	c #B98587",
"z 	c #C29491",
"A 	c #C29591",
"B 	c #B47E83",
"C 	c #B68286",
"D 	c #B78588",
"E 	c #B78B89",
"F 	c #8A6A72",
"G 	c #866670",
"H 	c #80626D",
"I 	c #755C69",
"J 	c #C9A39B",
"K 	c #C0928F",
"L 	c #C59D97",
"M 	c #C8A39B",
"N 	c #AF8384",
"O 	c #AA7B7F",
"P 	c #9B6F77",
"Q 	c #80616D",
"R 	c #CBA49C",
"S 	c #BD8989",
"T 	c #AB7B7F",
"U 	c #876670",
"V 	c #C49792",
"W 	c #C69B95",
"X 	c #C79D96",
"Y 	c #B08484",
"Z 	c #000000",
"` 	c #946572",
" .	c #857A2F",
"..	c #8B8032",
"+.	c #8B7F30",
"@.	c #8B8357",
"#.	c #8C8A7E",
"$.	c #8C8E8E",
"%.	c #8C8E8F",
"&.	c #8B8033",
"*.	c #8A722B",
"=.	c #88531B",
"-.	c #873A0B",
";.	c #873B0C",
">.	c #813A0C",
",.	c #85792F",
"'.	c #C7B54A",
").	c #DDC953",
"!.	c #DECA54",
"~.	c #DDC950",
"{.	c #DECF8A",
"].	c #DED9C6",
"^.	c #DEDEDE",
"/.	c #DEDEDF",
"(.	c #DDCA54",
"_.	c #DCB64A",
":.	c #D98932",
"<.	c #D8661C",
"[.	c #D7641B",
"}.	c #C25B18",
"|.	c #813B0C",
"1.	c #B2993D",
"2.	c #E5BF4E",
"3.	c #FCD156",
"4.	c #FDD156",
"5.	c #FCD053",
"6.	c #FCD68C",
"7.	c #FDE0C7",
"8.	c #FDE5E0",
"9.	c #FDE5E1",
"0.	c #FCD153",
"a.	c #FBC650",
"b.	c #FAAD43",
"c.	c #F99535",
"d.	c #F78129",
"e.	c #E06B1E",
"f.	c #AE5014",
"g.	c #BA9A94",
"h.	c #E5C04E",
"i.	c #F4AD43",
"j.	c #FAA03B",
"k.	c #FA9F3B",
"l.	c #FAA03A",
"m.	c #FAA35C",
"n.	c #FAA881",
"o.	c #FAAB91",
"p.	c #FBAF44",
"q.	c #FCC650",
"r.	c #FCBF4C",
"s.	c #FA9636",
"t.	c #F17321",
"u.	c #E0691D",
"v.	c #8B7F32",
"w.	c #FDD356",
"x.	c #FBA93E",
"y.	c #F98728",
"z.	c #F98626",
"A.	c #F98828",
"B.	c #F98827",
"C.	c #F98727",
"D.	c #F98825",
"E.	c #F9871F",
"F.	c #F9861E",
"G.	c #F98724",
"H.	c #F88125",
"I.	c #F77B24",
"J.	c #F99F3B",
"K.	c #F87622",
"L.	c #F77320",
"M.	c #D7651C",
"N.	c #873D0D",
"O.	c #FED858",
"P.	c #FEB842",
"Q.	c #FCA02F",
"R.	c #FC9F2E",
"S.	c #FCA02D",
"T.	c #FCA029",
"U.	c #FCA026",
"V.	c #FCA129",
"W.	c #FB952B",
"X.	c #F88225",
"Y.	c #FCD256",
"Z.	c #F9A03B",
"`.	c #F87722",
" +	c #F87421",
".+	c #FEDA58",
"++	c #FFC044",
"@+	c #FEAE34",
"#+	c #FEAD33",
"$+	c #FEAB33",
"%+	c #FDA531",
"&+	c #FDAA36",
"*+	c #FEB83F",
"=+	c #FEBB40",
"-+	c #FEB238",
";+	c #FDAA30",
">+	c #FDA430",
",+	c #FDAC58",
"'+	c #FEBE81",
")+	c #FEC181",
"!+	c #FEB55A",
"~+	c #FEAE32",
"{+	c #FDD456",
"]+	c #FB8928",
"^+	c #FA8726",
"/+	c #D97621",
"(+	c #884811",
"_+	c #FFC144",
":+	c #FEAF34",
"<+	c #FEAE33",
"[+	c #FA932B",
"}+	c #FAA339",
"|+	c #FDC94F",
"1+	c #FED051",
"2+	c #FEBC40",
"3+	c #FDA42A",
"4+	c #FAAB81",
"5+	c #FDD9C5",
"6+	c #FFDFC6",
"7+	c #FEC383",
"8+	c #FEAE2E",
"9+	c #FCA12F",
"0+	c #FED857",
"a+	c #FDB842",
"b+	c #FDA330",
"c+	c #DC8C28",
"d+	c #8A5615",
"e+	c #F98627",
"f+	c #F99E3A",
"g+	c #FCD056",
"h+	c #FEDE5A",
"i+	c #FECB4D",
"j+	c #FDB63A",
"k+	c #FAA73C",
"l+	c #FABF96",
"m+	c #FDEBE2",
"n+	c #FFEDE1",
"o+	c #FEC893",
"p+	c #FEAD2E",
"q+	c #FEAD28",
"r+	c #F9D658",
"s+	c #EFB344",
"t+	c #EB9934",
"u+	c #EA9733",
"v+	c #CC842C",
"w+	c #7F5118",
"x+	c #F99E3B",
"y+	c #FEE45F",
"z+	c #FEDF5B",
"A+	c #FDD753",
"B+	c #FDDF9E",
"C+	c #FEF4E3",
"D+	c #FFEEE1",
"E+	c #FEC894",
"F+	c #FEAD2B",
"G+	c #F0CF58",
"H+	c #D29744",
"I+	c #C16434",
"J+	c #BF6133",
"K+	c #A7562B",
"L+	c #673317",
"M+	c #FBA032",
"N+	c #FA9F38",
"O+	c #FAB547",
"P+	c #FDD759",
"Q+	c #FEE761",
"R+	c #FEE862",
"S+	c #FEE75F",
"T+	c #FEE861",
"U+	c #FEED94",
"V+	c #FFF5CC",
"W+	c #FFEED2",
"X+	c #FED6AD",
"Y+	c #FEB457",
"Z+	c #EFCC57",
"`+	c #D18B41",
" @	c #BE472F",
".@	c #BC422E",
"+@	c #A43C28",
"@@	c #662215",
"#@	c #C49692",
"$@	c #FA922A",
"%@	c #FBC14D",
"&@	c #FEE25F",
"*@	c #FEE860",
"=@	c #FEE974",
"-@	c #FEEC92",
";@	c #FEEEB5",
">@	c #FFEDD2",
",@	c #FEC182",
"'@	c #F8CF56",
")@	c #EB983D",
"!@	c #E56727",
"~@	c #E46426",
"{@	c #C65821",
"]@	c #7C3510",
"^@	c #FEDD5A",
"/@	c #FDD757",
"(@	c #FDD755",
"_@	c #FDE25E",
":@	c #FEEFA2",
"<@	c #FFFAE4",
"[@	c #FECA4C",
"}@	c #FDB641",
"|@	c #FAB440",
"1@	c #FDD756",
"2@	c #FEEEA1",
"3@	c #F97722",
"4@	c #F87520",
"5@	c #873E0D",
"6@	c #FEBF43",
"7@	c #FA9129",
"8@	c #FAA133",
"9@	c #FDC84E",
"0@	c #FEDF8E",
"a@	c #FFE8C7",
"b@	c #FFDFC4",
"c@	c #FAA93E",
"d@	c #FA8828",
"e@	c #D97521",
"f@	c #884711",
"g@	c #FDAA32",
"h@	c #FDA32F",
"i@	c #FDA933",
"j@	c #FDB83F",
"k@	c #FEC161",
"l@	c #FEC683",
"m@	c #FEDE5B",
"n@	c #FEC044",
"o@	c #FEC042",
"p@	c #FEC583",
"q@	c #FFB034",
"r@	c #FFAE33",
"s@	c #DE982C",
"t@	c #8B5E18",
"u@	c #FEDA55",
"v@	c #FFAF34",
"w@	c #DD972C",
"x@	c #8F7579",
"y@	c #91787B",
"z@	c #FED958",
"A@	c #FEE15E",
"B@	c #FEEEA2",
"C@	c #FFF9E3",
"D@	c #FFEDE0",
"E@	c #BA9993",
"F@	c #BD9F97",
"G@	c #FEBF44",
"H@	c #FDB741",
"I@	c #FAA83D",
"J@	c #FAB542",
"K@	c #D29643",
"L@	c #C16334",
"M@	c #BF6033",
"N@	c #A7552B",
"O@	c #673217",
"P@	c #FCA02E",
"Q@	c #F99D33",
"R@	c #FFFAE3",
"S@	c #EFCD57",
"T@	c #D18C41",
"U@	c #BF472F",
"V@	c #BD432E",
"W@	c #A53D28",
"X@	c #662315",
"Y@	c #FED050",
"Z@	c #FEBA3F",
"`@	c #F98526",
" #	c #EC993D",
".#	c #E66927",
"+#	c #E56626",
"@#	c #C75A21",
"##	c #7D3510",
"$#	c #EACB58",
"%#	c #BF8343",
"&#	c #A22433",
"*#	c #9F1932",
"=#	c #8B1E2B",
"-#	c #560F17",
";#	c #BE908D",
">#	c #B68A89",
",#	c #9C797C",
"'#	c #FFDB58",
")#	c #FAA239",
"!#	c #FECF50",
"~#	c #FDA329",
"{#	c #FA912A",
"]#	c #FAAA80",
"^#	c #FDD8C4",
"/#	c #FFDEC4",
"(#	c #FEAC23",
"_#	c #FEAD31",
":#	c #BB9490",
"<#	c #A18483",
"[#	c #8C6F75",
"}#	c #C9A29B",
"|#	c #C9A89E",
"1#	c #C2A39A",
"2#	c #84792F",
"3#	c #E7C750",
"4#	c #F7C349",
"5#	c #FFC042",
"6#	c #FFC361",
"7#	c #FFC785",
"8#	c #FFC994",
"9#	c #FFC995",
"0#	c #FBA93C",
"a#	c #CEABA0",
"b#	c #B39D3E",
"c#	c #FEDF8D",
"d#	c #FFEDDF",
"e#	c #FFE9C8",
"f#	c #FDD353",
"g#	c #B18686",
"h#	c #8B8356",
"i#	c #8B8A7E",
"j#	c #8C8D8E",
"k#	c #8C8D8F",
"l#	c #927C7E",
"m#	c #948183",
"n#	c #968486",
"o#	c #936572",
"p#	c #BFA59D",
"q#	c #C4B0A7",
"r#	c #C6B5AC",
"s#	c #C6B5AD",
"t#	c #B28787",
"u#	c #A4737B",
"v#	c #D0AFA5",
"w#	c #D4B9AF",
"x#	c #D6BEB3",
"y#	c #D6BEB4",
"z#	c #AD8183",
"A#	c #C89F99",
"B#	c #CAA39C",
"C#	c #CBA59F",
"D#	c #BF8D8C",
"E#	c #A27D7F",
"F#	c #836770",
"G#	c #C39390",
"H#	c #C0908E",
"I#	c #BB898A",
"J#	c #BC8C8C",
"K#	c #C39792",
"L#	c #B88E8B",
"M#	c #A08081",
"N#	c #7F616C",
"O#	c #C49893",
"P#	c #C79F98",
"Q#	c #CAA59D",
"R#	c #CCA89F",
"S#	c #C29792",
"T#	c #BE9C95",
"U#	c #AA7A7F",
"V#	c #9A6F77",
"W#	c #BC8989",
"X#	c #C1908E",
"Y#	c #7D5D6B",
"  . + @ # @ @ @ @ $ % & & & & & & & & % $ @ @ $ % % $ @ @ @ @ @ @ @ @ @ @ @ @ @ @ @ @ @ @ @ @ @ @ @ @ @ @ @ @ @ @ # @ + .   * = ",
"- ; > , ' , , , , ) ! ~ ~ ~ ~ ~ ~ ~ ~ ! ) , , ) ! ! ) , , { ] ] { ' , , , , , , , , , , , , , , , , , , , , , , , ' , > ; - ^ / ",
"( _ : < < < < < < [ } | 1 | | | | 1 | } [ < < 2 } } 2 < < < < < < < < < < < < < < < < < < < < < < < < < < < < < < < < 3 4 5 6 7 ",
"8 : 9 0 a 0 0 0 0 b c d d d d d d d d c b 0 0 b c c b 0 0 0 0 0 0 0 0 0 0 0 0 0 0 0 0 0 0 0 0 0 0 0 0 0 0 0 0 0 0 a 0 9 : 8 + e ",
"] < 0 < < < < < < < < < < < < < < < < < < < < < < < < < < < < < < < < < < < < f g g h i g j k k k k k k j g l < < m n ] , o p q ",
"] < a < < < < < < < < < < < < < < < < < < < < < < < < < < < < < < < < < < < < g _ 4 g g 4 r s r r r r s r _ g < < n t u v w x q ",
"] < 0 < < < < < < < < < < < < < < < < < < < < < < < < < < < < < < < < < < < < g _ y z A y B C D D D D C B _ g < < E t F G H I q ",
"] < 0 < < < < < < < < < < < < < < < < < < < < < < < < < < < < < < < < < < < < h g A J J A K L M M M M L K g i < < m n N O P Q q ",
"] < 0 < < < < < < < < < < < < < < < < < < < < < < < < < < < < < < < < < < < < < < 2 } R 2 [ R | 1 1 | } [ < < < < < < h S T U q ",
"] < 0 < < < < < < < < < < < < < < < < < < < < < < < < < < < < < < < < < < < < < < V 2 2 V V W X X X X W V < < < < < < < h Y F q ",
"] < a < < < < < < < < < < < < < < < < < < < < < < < < < < < < < < < < < < < < < < < < < < < < < < < < < < < < < < < < a < ] # q ",
"] < 0 < < < < < < < < < < < < < < < < < < < < < < < < < < < < < < < < < < < < < < < < < < < < < < < < < < < < < < < < a < ] # q ",
"8 : 9 0 a 0 0 0 0 0 0 0 0 0 0 0 0 0 0 0 0 0 0 0 0 0 0 0 0 0 0 0 0 0 0 0 0 0 0 0 0 0 0 0 0 0 0 0 0 0 0 0 0 0 0 0 0 a 0 9 : 8 + e ",
"( _ : < < < < < < < < < < < < < < < < Z Z Z Z Z Z Z Z Z Z Z Z Z Z Z Z Z Z Z Z Z Z Z Z Z Z < < < < < < < < < < < < < < : _ ( . 7 ",
"` ; > , , , , , , , , , , , , , , , ,  .................+...@.#.$.%.%.$.#.@.&.+.*.=.-.;.>., , , , , , , , , , , , ' , > ; - ^ / ",
"  . + @ # @ @ @ @ @ @ @ @ @ @ @ @ Z ,.'.).!.).).).).).).~.).{.].^././.^.].{.(.~._.:.<.[.}.|.Z @ @ @ @ @ @ @ @ @ @ # @ + .   * = ",
"% & & & & % $ @ @ @ @ @ @ @ @ @ @ ,.1.2.3.4.3.3.3.3.3.3.5.3.6.7.8.9.9.8.7.6.3.0.a.b.c.d.e.f.|.& & & & & & % $ @ @ @ @ @ @ @ @ @ ",
"g.~ ~ ~ ~ ! ) , , , , , , , , Z  .'.h.i.j.k.j.j.j.j.j.j.l.j.m.n.o.o.o.o.n.m.k.l.p.q.r.s.t.u.}.>.Z ~ ~ ~ ~ ! ) , , , , , ' { ] ] ",
"} | 1 1 | } [ < < < < < < < < Z v.).w.x.y.z.A.A.B.C.C.C.A.A.D.E.F.G.y.A.A.y.H.I.J.3.3.J.K.L.M.N.Z | | 1 | } [ < < < < < < < < < ",
"c d d d d c b 0 0 0 0 0 0 0 0 Z v.!.O.P.Q.R.Q.Q.Q.Q.Q.Q.Q.Q.S.T.U.U.U.U.V.S.W.X.J.3.Y.Z.`. +<.N.Z d d d d c b 0 0 0 0 0 0 0 0 0 ",
"< < < < < < < < < < < < < i g Z v.)..+++@+#+$+%+&+*+=+-+;+>+,+'+)+!+@+~+@+@+Q.y.J.3.{+x.]+^+/+(+Z < < < < < < < < < < < < < < < ",
"< < < < < < < < < < < < < g _ Z v.)..+_+:+<+%+[+}+|+1+2+3+[+4+5+6+7+@+8+:+@+9+A.J.3.0+a+b+9+c+d+Z < < < < < < < < < < < < < < < ",
"< < < < < < < < < < < V 2 A y Z v.)..+++:+<+Q.e+f+g+h+i+j+k+l+m+n+o+p+q+@+@+Q.y.J.3.r+s+t+u+v+w+Z < < < < < < < < < < < < < < < ",
"< < < < < < < < < < < 2 } J z Z v.)..+++@+#+Q.C.x+3.y+z+A+w.B+C+D+E+@+F+@+@+Q.y.J.3.G+H+I+J+K+L+Z < < < < < < < < < < < < < < < ",
"< < < < < < < < < < < 2 } R 2 Z v.)..+++$+>+M+N+O+P+Q+R+S+T+U+V+W+X+)+Y+@+~+Q.y.Z.3.Z+`+ @.@+@@@Z < < < < < < < < < < < < < < < ",
"< < < < < < < < < < < #@2 2 V Z v.)..+++>+$@N+%@P+&@Q+T+*@T+=@-@;@>@6+,@@+p+Q.y.J.3.'@)@!@~@{@]@Z < < < < < < < < < < < < < < < ",
"< < < < < < < < < < < < < < < Z v.)..+++Q.e+f+3.Q+T+y+^@/@w.(@_@:@<@D+E+@+F+Q.y.J.3.3.J.K.L.M.N.Z < < < < < < < < < < < < < < < ",
"< < < < < < < < < < < < < < < Z v.)..+++Q.z.x+3.R+R+h+[@}@k+|@1@2@<@D+E+@+F+Q.y.J.3.3.Z.3@4@<.5@Z < < < < < < < < < < < < < < < ",
"0 0 0 0 0 0 0 0 0 0 0 0 0 0 0 Z v.)..+++Q.e+f+3.T+T+.+6@b+7@8@9@0@a@b@,@@+p+Q.y.J.3.w.c@d@z.e@f@Z 0 0 0 0 0 0 0 0 0 0 0 0 0 0 0 ",
"< < < < < < < < < < < < < < < Z v.)..+++Q.e+f+3.T+T+.+6@g@h@i@j@k@l@)+!+@+~+Q.y.J.3.0+a+b+9+c+d+Z < < < < < < < < < < < < < < < ",
"{ ' , , , , , , , , , , , , , Z v.)..+++Q.z.x+3.R+R+m@i+n@6@o@6@k@p@)+!+@+~+Q.y.J.3..+_+q@r@s@t@Z , , , , , , , , , , , ' { ] ] ",
"@ @ @ @ @ @ @ @ @ @ @ @ @ @ @ Z v.)..+++Q.e+f+3.Q+T+y+^@.+.+u@.+0@a@b@,@@+p+Q.y.J.3..+n@v@<+w@t@Z @ @ @ @ @ @ @ @ @ @ @ @ @ @ @ ",
"  . + @ # @ @ $ % x@$ $ x@y@& Z v.)..+++>+$@}+9@z@.+.+.+0+w.(@A@B@C@D@E+@+F+Q.y.J.3.r+s+t+u+v+w+Z @ @ @ @ @ @ @ @ # @ + .   * = ",
"- ; > , ' , , ) ! E@) ) E@F@~ Z v.)..+++$+>+&+*+6@6@6@G@H@I@J@P+:@<@D+E+@+F+Q.y.J.3.G+K@L@M@N@O@Z , , , , , , , , ' , > ; - ^ / ",
"( _ : < < < < 2 } R 2 [ R | 1 Z v.)..+++$+>+&+*+6@6@=+-+P@z.Q@g+B@R@D@E+@+F+Q.y.Z.3.S@T@U@V@W@X@Z < < < < < < < < < < : _ ( . 7 ",
"8 : 9 0 a 0 0 b c c b b c d d Z v.)..+++>+$@}+9@.+.+Y@Z@P@`@Q@g+B@R@D@E+@+F+Q.y.J.3.'@)@!@~@{@]@Z 0 0 0 0 0 0 0 0 a 0 9 : 8 + e ",
"] < 0 < < < < < < < < < < < < Z v.)..+++Q.z.x+3.R+R+h+[@}@k+|@1@2@<@D+E+@+F+Q.y.J.3.'@ #.#+#@###Z < < < < < < < < < < a < ] # q ",
"] < a < < < < < < < < < < < < Z v.)..+++Q.z.x+3.T+R+y+h+0+w.(@A@B@C@D@E+@+F+Q.y.Z.3.S@T@U@V@W@X@Z < < < < < < < < < < a < ] # q ",
"] < 0 < < < < < < < < < < < < Z v.)..+++>+$@N+%@P+&@Q+T+*@T+=@-@;@>@6+,@@+p+Q.y.j.3.$#%#&#*#=#-#Z < < < < < < 0 0 a 0 < h Y F q ",
"] < 0 < < < < < < < < < < < < Z v.)..+++$+>+M+N+O+P+Q+R+S+T+U+V+W+X+)+Y+@+~+Q.y.j.3.$#%#&#*#=#-#Z < < < < < < < < < < h S T U q ",
"] < 0 < < < < < < < < < < < < Z v.)..+++@+#+Q.C.x+3.y+z+A+w.B+C+D+E+@+F+@+@+Q.y.Z.3.Z+`+ @.@+@@@Z h g g h ;#>#, , ' , N O P Q q ",
"] < 0 < < < < < < < < < < < < Z v.)..+++:+<+Q.e+f+g+h+i+j+k+l+m+n+o+p+q+@+@+Q.y.J.3.'@ #.#+#@###Z g 4 4 g n ,#@ v # @ F U H I q ",
"] < a < < < < < < < < < < < < Z v.!.'#++<+#+b+$@)#9@!#=+~#{#]#^#/#)+F+(#p+_#R.e+J.3.Y.Z.`. +<.N.Z z y y z :#<#% [#@ @ u u w x q ",
"] < 0 < < < < < < < < < < < < Z v.)..+++@+#+$+%+&+*+=+-+;+>+,+'+)+!+@+~+@+@+Q.y.J.3.3.Z.3@4@<.5@Z }#A z }#|#1#! ) , , ] ' o p q ",
"8 : 9 0 a 0 0 0 0 0 0 0 0 0 0 Z 2#'.3#4#++++++++++++++++5#++6#7#8#9#9#8#7#6#P.0#p.q.r.s.t.u.}.>.Z } c W } a#a#} W a 0 9 : 8 + e ",
"( _ : < < < < < < < < < < < < < < ,.b#3#.+'#.+.+.+.+.+.+u@.+c#a@d#n+D+D@e#c#O.f#a.b.c.d.e.f.|.V 2 2 V V 2 X X c b a 0 3 4 5 6 7 ",
"- ; > , ' , , , , , , , , , , , , Z ,.'.).!.).).).).).).~.).{.].^././.^.].{.(.~._.:.<.[.}.|.Z , , , g#g#g#g#g#g#, , , > ; - ^ / ",
"  . + @ # @ @ @ @ @ @ @ @ @ @ @ @ @ @ 2#v.v.v.v.v.v.v.v.+.v.h#i#j#k#k#j#i#h#..+.*.=.-.;.>.@ @ @ @ @ @ @ @ @ @ @ @ # @ + .   * = ",
"@ @ @ @ @ @ @ @ @ @ @ @ @ @ @ @ @ @ @ Z Z Z Z Z Z Z Z Z Z Z Z Z Z Z Z Z Z Z Z Z Z Z Z Z Z & & y@& l#m#n#n#n#n#m#l#& y@% $ @ @ @ ",
"{ ' , , , , , , , , , , , , , , , , , , , , , , , ' , > ; o#^ ^ o#; > , ' , , ) ! E@) ) E@~ ~ F@~ p#q#r#s#s#r#q#p#~ F@! ) { t#] ",
"< < < < < < < < < < < < < < < < < < < < < < < < < a 0 3 4 ( 6 . u#_ : < < < < 2 } R 2 [ R | 1 | | v#w#x#y#y#x#w#v#1 | } [ < < < ",
"0 0 0 0 0 0 0 0 0 0 0 0 0 0 0 0 0 0 0 0 0 0 0 0 0 a 0 9 : z#+ + z#: 9 0 a 0 0 b c c b b c d d d d A#B#C#C#C#C#B#A#d d c b 0 0 0 ",
"< < < < < < < l g j k k j g l < < f D#D#h < < m >#, , ] ' E#p @ ' < 0 < < < < < < < < < < < < < < < < < < < < < < < < < < < < < ",
"< < < < < < < g _ r s s r _ g < < g _ _ g < < n t @ v u u F#x # ] < a < < < < < < < < < < < < < < < G#9 9 9 9 G#< < < < < < < < ",
"< < < < < < < g _ B C C B _ g < < H#I#J#K#W V L#M#% [#F U N#I @ ] < 0 < < < < < < < < < < < < < < < < < < < < < < < < < < < < < ",
"< < < < < < < i g K L L K g i < < O#P#Q#R#} [ S#T#! ) N U#V#Q @ ' < 0 < < < < < < < < < < < < < < < < < < < < < < < < < < < < < ",
"< < < < < < < < < 2 } } 2 < < < < [ } 1 1 R [ 2 R } 2 h W#O U @ ' < 0 < < < < < < < < < < < < < < < < < < < < < < < < < < < < < ",
"< < < < < < < < < V W W V < < < < #@W X X [ #@#@W c b < X#N F @ , < 0 < < < < < < < < < < < < < < < < < < < < < < < < < < < < < ",
"< < < < < < < < < < < < < < < < < < < < < < < < < < < a < ' # # ' < a < < < < < < < < < < < < < < < < < < < < < < < < < < < < < ",
"< < < < < < < < < < < < < < < < < < < < < < < < < < < a < ' # @ , < 0 < < < < < < < < < < < < < < < < < < < < < < < < < < < < < ",
"0 0 0 0 0 0 0 0 0 0 0 0 0 0 0 0 0 0 0 0 0 0 0 0 0 a 0 9 : z#+ + z#: 9 0 a 0 0 0 0 0 0 0 0 0 0 0 0 0 0 0 0 0 0 0 0 0 0 0 0 0 0 0 ",
"< < < < < < < < < < < < < < < < < < < < < < < < < < < : _ u#. . u#_ : < < < < < < < < < < < < < < < < < < < < < < < < < < < < < ",
"{ ' , , , , , , , , , , , , g#g#g#g#, , , , , , , , , > ; o#^ ^ o#; > , ' , , , , , , , , , , , , , , , , , , , , , , , ' { ] ] ",
"@ @ @ @ @ @ @ @ @ @ @ @ @ @ @ @ @ @ @ @ @ @ @ @ @ # @ + . Y#* * Y#. + @ # @ @ @ @ @ @ @ @ @ @ @ @ @ @ @ @ @ @ @ @ @ @ @ @ @ @ @ "};
