/* XPM */
static char * coins8_xpm[] = {
"64 64 311 2",
"  	c #87CEEB",
". 	c #000000",
"+ 	c #857A2F",
"@ 	c #8B8032",
"# 	c #8B7F30",
"$ 	c #8B8357",
"% 	c #8C8A7E",
"& 	c #8C8E8E",
"* 	c #8C8E8F",
"= 	c #8B8033",
"- 	c #8A722B",
"; 	c #88531B",
"> 	c #873A0B",
", 	c #873B0C",
"' 	c #813A0C",
") 	c #85792F",
"! 	c #C7B54A",
"~ 	c #DDC953",
"{ 	c #DECA54",
"] 	c #DDC950",
"^ 	c #DECF8A",
"/ 	c #DED9C6",
"( 	c #DEDEDE",
"_ 	c #DEDEDF",
": 	c #DDCA54",
"< 	c #DCB64A",
"[ 	c #D98932",
"} 	c #D8661C",
"| 	c #D7641B",
"1 	c #C25B18",
"2 	c #813B0C",
"3 	c #B2993D",
"4 	c #E5BF4E",
"5 	c #FCD156",
"6 	c #FDD156",
"7 	c #FCD053",
"8 	c #FCD68C",
"9 	c #FDE0C7",
"0 	c #FDE5E0",
"a 	c #FDE5E1",
"b 	c #FCD153",
"c 	c #FBC650",
"d 	c #FAAD43",
"e 	c #F99535",
"f 	c #F78129",
"g 	c #E06B1E",
"h 	c #AE5014",
"i 	c #E5C04E",
"j 	c #F4AD43",
"k 	c #FAA03B",
"l 	c #FA9F3B",
"m 	c #FAA03A",
"n 	c #FAA35C",
"o 	c #FAA881",
"p 	c #FAAB91",
"q 	c #FBAF44",
"r 	c #FCC650",
"s 	c #FCBF4C",
"t 	c #FA9636",
"u 	c #F17321",
"v 	c #E0691D",
"w 	c #8B7F32",
"x 	c #FDD356",
"y 	c #FBA93E",
"z 	c #F98728",
"A 	c #F98626",
"B 	c #F98828",
"C 	c #F98827",
"D 	c #F98727",
"E 	c #F98825",
"F 	c #F9871F",
"G 	c #F9861E",
"H 	c #F98724",
"I 	c #F88125",
"J 	c #F77B24",
"K 	c #F99F3B",
"L 	c #F87622",
"M 	c #F77320",
"N 	c #D7651C",
"O 	c #873D0D",
"P 	c #FED858",
"Q 	c #FEB842",
"R 	c #FCA02F",
"S 	c #FC9F2E",
"T 	c #FCA02D",
"U 	c #FCA029",
"V 	c #FCA026",
"W 	c #FCA129",
"X 	c #FB952B",
"Y 	c #F88225",
"Z 	c #FCD256",
"` 	c #F9A03B",
" .	c #F87722",
"..	c #F87421",
"+.	c #FEDA58",
"@.	c #FFC044",
"#.	c #FEAE34",
"$.	c #FEAD33",
"%.	c #FEAB33",
"&.	c #FDA531",
"*.	c #FDAA36",
"=.	c #FEB83F",
"-.	c #FEBB40",
";.	c #FEB238",
">.	c #FDAA30",
",.	c #FDA430",
"'.	c #FDAC58",
").	c #FEBE81",
"!.	c #FEC181",
"~.	c #FEB55A",
"{.	c #FEAE32",
"].	c #FDD456",
"^.	c #FB8928",
"/.	c #FA8726",
"(.	c #D97621",
"_.	c #884811",
":.	c #FFC144",
"<.	c #FEAF34",
"[.	c #FEAE33",
"}.	c #FA932B",
"|.	c #FAA339",
"1.	c #FDC94F",
"2.	c #FED051",
"3.	c #FEBC40",
"4.	c #FDA42A",
"5.	c #FAAB81",
"6.	c #FDD9C5",
"7.	c #FFDFC6",
"8.	c #FEC383",
"9.	c #FEAE2E",
"0.	c #FCA12F",
"a.	c #FED857",
"b.	c #FDB842",
"c.	c #FDA330",
"d.	c #DC8C28",
"e.	c #8A5615",
"f.	c #F98627",
"g.	c #F99E3A",
"h.	c #FCD056",
"i.	c #FEDE5A",
"j.	c #FECB4D",
"k.	c #FDB63A",
"l.	c #FAA73C",
"m.	c #FABF96",
"n.	c #FDEBE2",
"o.	c #FFEDE1",
"p.	c #FEC893",
"q.	c #FEAD2E",
"r.	c #FEAD28",
"s.	c #F9D658",
"t.	c #EFB344",
"u.	c #EB9934",
"v.	c #EA9733",
"w.	c #CC842C",
"x.	c #7F5118",
"y.	c #F99E3B",
"z.	c #FEE45F",
"A.	c #FEDF5B",
"B.	c #FDD753",
"C.	c #FDDF9E",
"D.	c #FEF4E3",
"E.	c #FFEEE1",
"F.	c #FEC894",
"G.	c #FEAD2B",
"H.	c #F0CF58",
"I.	c #D29744",
"J.	c #C16434",
"K.	c #BF6133",
"L.	c #A7562B",
"M.	c #673317",
"N.	c #FBA032",
"O.	c #FA9F38",
"P.	c #FAB547",
"Q.	c #FDD759",
"R.	c #FEE761",
"S.	c #FEE862",
"T.	c #FEE75F",
"U.	c #FEE861",
"V.	c #FEED94",
"W.	c #FFF5CC",
"X.	c #FFEED2",
"Y.	c #FED6AD",
"Z.	c #FEB457",
"`.	c #EFCC57",
" +	c #D18B41",
".+	c #BE472F",
"++	c #BC422E",
"@+	c #A43C28",
"#+	c #662215",
"$+	c #FA922A",
"%+	c #FBC14D",
"&+	c #FEE25F",
"*+	c #FEE860",
"=+	c #FEE974",
"-+	c #FEEC92",
";+	c #FEEEB5",
">+	c #FFEDD2",
",+	c #FEC182",
"'+	c #F8CF56",
")+	c #EB983D",
"!+	c #E56727",
"~+	c #E46426",
"{+	c #C65821",
"]+	c #7C3510",
"^+	c #FEDD5A",
"/+	c #FDD757",
"(+	c #FDD755",
"_+	c #FDE25E",
":+	c #FEEFA2",
"<+	c #FFFAE4",
"[+	c #FECA4C",
"}+	c #FDB641",
"|+	c #FAB440",
"1+	c #FDD756",
"2+	c #FEEEA1",
"3+	c #F97722",
"4+	c #F87520",
"5+	c #873E0D",
"6+	c #FEBF43",
"7+	c #FA9129",
"8+	c #FAA133",
"9+	c #FDC84E",
"0+	c #FEDF8E",
"a+	c #FFE8C7",
"b+	c #FFDFC4",
"c+	c #FAA93E",
"d+	c #FA8828",
"e+	c #D97521",
"f+	c #884711",
"g+	c #FDAA32",
"h+	c #FDA32F",
"i+	c #FDA933",
"j+	c #FDB83F",
"k+	c #FEC161",
"l+	c #FEC683",
"m+	c #FEDE5B",
"n+	c #FEC044",
"o+	c #FEC042",
"p+	c #FEC583",
"q+	c #FFB034",
"r+	c #FFAE33",
"s+	c #DE982C",
"t+	c #8B5E18",
"u+	c #FEDA55",
"v+	c #FFAF34",
"w+	c #DD972C",
"x+	c #FED958",
"y+	c #FEE15E",
"z+	c #FEEEA2",
"A+	c #FFF9E3",
"B+	c #FFEDE0",
"C+	c #FEBF44",
"D+	c #FDB741",
"E+	c #FAA83D",
"F+	c #FAB542",
"G+	c #D29643",
"H+	c #C16334",
"I+	c #BF6033",
"J+	c #A7552B",
"K+	c #673217",
"L+	c #FCA02E",
"M+	c #F99D33",
"N+	c #FFFAE3",
"O+	c #EFCD57",
"P+	c #D18C41",
"Q+	c #BF472F",
"R+	c #BD432E",
"S+	c #A53D28",
"T+	c #662315",
"U+	c #FED050",
"V+	c #FEBA3F",
"W+	c #F98526",
"X+	c #EC993D",
"Y+	c #E66927",
"Z+	c #E56626",
"`+	c #C75A21",
" @	c #7D3510",
".@	c #EACB58",
"+@	c #BF8343",
"@@	c #A22433",
"#@	c #9F1932",
"$@	c #8B1E2B",
"%@	c #560F17",
"&@	c #FFDB58",
"*@	c #FAA239",
"=@	c #FECF50",
"-@	c #FDA329",
";@	c #FA912A",
">@	c #FAAA80",
",@	c #FDD8C4",
"'@	c #FFDEC4",
")@	c #FEAC23",
"!@	c #FEAD31",
"~@	c #84792F",
"{@	c #E7C750",
"]@	c #F7C349",
"^@	c #FFC042",
"/@	c #FFC361",
"(@	c #FFC785",
"_@	c #FFC994",
":@	c #FFC995",
"<@	c #FBA93C",
"[@	c #B39D3E",
"}@	c #FEDF8D",
"|@	c #FFEDDF",
"1@	c #FFE9C8",
"2@	c #FDD353",
"3@	c #8B8356",
"4@	c #8B8A7E",
"5@	c #8C8D8E",
"6@	c #8C8D8F",
"                                                                                                                                ",
"                                                                                                                                ",
"                                                                                                                                ",
"                                                                                                                                ",
"                                                                                                                                ",
"                                                                                                                                ",
"                                                                                                                                ",
"                                                                                                                                ",
"                                                                                                                                ",
"                                                                                                                                ",
"                                                                                                                                ",
"                                                                                                                                ",
"                                                                                                                                ",
"                                      . . . . . . . . . . . . . . . . . . . . . . . . . .                                       ",
"                                      + @ @ @ @ @ @ @ @ # @ $ % & * * & % $ = # - ; > , '                                       ",
"                                  . ) ! ~ { ~ ~ ~ ~ ~ ~ ] ~ ^ / ( _ _ ( / ^ : ] < [ } | 1 2 .                                   ",
"                                  ) 3 4 5 6 5 5 5 5 5 5 7 5 8 9 0 a a 0 9 8 5 b c d e f g h 2                                   ",
"                              . + ! i j k l k k k k k k m k n o p p p p o n l m q r s t u v 1 ' .                               ",
"                              . w ~ x y z A B B C D D D B B E F G H z B B z I J K 5 5 K L M N O .                               ",
"                              . w { P Q R S R R R R R R R R T U V V V V W T X Y K 5 Z `  ...} O .                               ",
"                              . w ~ +.@.#.$.%.&.*.=.-.;.>.,.'.).!.~.#.{.#.#.R z K 5 ].y ^./.(._..                               ",
"                              . w ~ +.:.<.[.&.}.|.1.2.3.4.}.5.6.7.8.#.9.<.#.0.B K 5 a.b.c.0.d.e..                               ",
"                              . w ~ +.@.<.[.R f.g.h.i.j.k.l.m.n.o.p.q.r.#.#.R z K 5 s.t.u.v.w.x..                               ",
"                              . w ~ +.@.#.$.R D y.5 z.A.B.x C.D.E.F.#.G.#.#.R z K 5 H.I.J.K.L.M..                               ",
"                              . w ~ +.@.%.,.N.O.P.Q.R.S.T.U.V.W.X.Y.!.Z.#.{.R z ` 5 `. +.+++@+#+.                               ",
"                              . w ~ +.@.,.$+O.%+Q.&+R.U.*+U.=+-+;+>+7.,+#.q.R z K 5 '+)+!+~+{+]+.                               ",
"                              . w ~ +.@.R f.g.5 R.U.z.^+/+x (+_+:+<+E.F.#.G.R z K 5 5 K L M N O .                               ",
"                              . w ~ +.@.R A y.5 S.S.i.[+}+l.|+1+2+<+E.F.#.G.R z K 5 5 ` 3+4+} 5+.                               ",
"                              . w ~ +.@.R f.g.5 U.U.+.6+c.7+8+9+0+a+b+,+#.q.R z K 5 x c+d+A e+f+.                               ",
"                              . w ~ +.@.R f.g.5 U.U.+.6+g+h+i+j+k+l+!.~.#.{.R z K 5 a.b.c.0.d.e..                               ",
"                              . w ~ +.@.R A y.5 S.S.m+j.n+6+o+6+k+p+!.~.#.{.R z K 5 +.:.q+r+s+t+.                               ",
"                              . w ~ +.@.R f.g.5 R.U.z.^++.+.u++.0+a+b+,+#.q.R z K 5 +.n+v+[.w+t+.                               ",
"                              . w ~ +.@.,.$+|.9+x++.+.+.a.x (+y+z+A+B+F.#.G.R z K 5 s.t.u.v.w.x..                               ",
"                              . w ~ +.@.%.,.*.=.6+6+6+C+D+E+F+Q.:+<+E.F.#.G.R z K 5 H.G+H+I+J+K+.                               ",
"                              . w ~ +.@.%.,.*.=.6+6+-.;.L+A M+h.z+N+B+F.#.G.R z ` 5 O+P+Q+R+S+T+.                               ",
"                              . w ~ +.@.,.$+|.9++.+.U+V+L+W+M+h.z+N+B+F.#.G.R z K 5 '+)+!+~+{+]+.                               ",
"                              . w ~ +.@.R A y.5 S.S.i.[+}+l.|+1+2+<+E.F.#.G.R z K 5 '+X+Y+Z+`+ @.                               ",
"                              . w ~ +.@.R A y.5 U.S.z.i.a.x (+y+z+A+B+F.#.G.R z ` 5 O+P+Q+R+S+T+.                               ",
"                              . w ~ +.@.,.$+O.%+Q.&+R.U.*+U.=+-+;+>+7.,+#.q.R z k 5 .@+@@@#@$@%@.                               ",
"                              . w ~ +.@.%.,.N.O.P.Q.R.S.T.U.V.W.X.Y.!.Z.#.{.R z k 5 .@+@@@#@$@%@.                               ",
"                              . w ~ +.@.#.$.R D y.5 z.A.B.x C.D.E.F.#.G.#.#.R z ` 5 `. +.+++@+#+.                               ",
"                              . w ~ +.@.<.[.R f.g.h.i.j.k.l.m.n.o.p.q.r.#.#.R z K 5 '+X+Y+Z+`+ @.                               ",
"                              . w { &@@.[.$.c.$+*@9+=@-.-@;@>@,@'@!.G.)@q.!@S f.K 5 Z `  ...} O .                               ",
"                              . w ~ +.@.#.$.%.&.*.=.-.;.>.,.'.).!.~.#.{.#.#.R z K 5 5 ` 3+4+} 5+.                               ",
"                              . ~@! {@]@@.@.@.@.@.@.@.@.^@@./@(@_@:@:@_@(@/@Q <@q r s t u v 1 ' .                               ",
"                                  ) [@{@+.&@+.+.+.+.+.+.u++.}@a+|@o.E.B+1@}@P 2@c d e f g h 2                                   ",
"                                  . ) ! ~ { ~ ~ ~ ~ ~ ~ ] ~ ^ / ( _ _ ( / ^ : ] < [ } | 1 2 .                                   ",
"                                      ~@w w w w w w w w # w 3@4@5@6@6@5@4@3@@ # - ; > , '                                       ",
"                                      . . . . . . . . . . . . . . . . . . . . . . . . . .                                       ",
"                                                                                                                                ",
"                                                                                                                                ",
"                                                                                                                                ",
"                                                                                                                                ",
"                                                                                                                                ",
"                                                                                                                                ",
"                                                                                                                                ",
"                                                                                                                                ",
"                                                                                                                                ",
"                                                                                                                                ",
"                                                                                                                                ",
"                                                                                                                                ",
"                                                                                                                                ",
"                                                                                                                                ",
"                                                                                                                                "};
