/* XPM */
static char * coins7_xpm[] = {
"64 64 483 2",
"  	c #7D5E6B",
". 	c #84636E",
"+ 	c #896972",
"@ 	c #8B6C73",
"# 	c #8B6C74",
"$ 	c #8C7076",
"% 	c #8F7679",
"& 	c #91797B",
"* 	c #735A68",
"= 	c #6E5967",
"- 	c #946672",
"; 	c #A4727A",
"> 	c #AD8082",
", 	c #B18786",
"' 	c #B18787",
") 	c #B48E8B",
"! 	c #BA9A93",
"~ 	c #BDA098",
"{ 	c #B18887",
"] 	c #B28887",
"^ 	c #7C5D6A",
"/ 	c #6C5866",
"( 	c #A5737B",
"_ 	c #B78285",
": 	c #C08E8C",
"< 	c #C39490",
"[ 	c #C69A94",
"} 	c #CBA59C",
"| 	c #CDAAA0",
"1 	c #CEAAA0",
"2 	c #C69A95",
"3 	c #C08F8D",
"4 	c #B88285",
"5 	c #A5747B",
"6 	c #85636E",
"7 	c #6D5967",
"8 	c #AE8183",
"9 	c #C3938F",
"0 	c #C49490",
"a 	c #C49590",
"b 	c #C59792",
"c 	c #C79B95",
"d 	c #C89D96",
"e 	c #6D5867",
"f 	c #C1928F",
"g 	c #BF8E8C",
"h 	c #C1918E",
"i 	c #C1928E",
"j 	c #BD8B8B",
"k 	c #BD8B8A",
"l 	c #C2928F",
"m 	c #BF918E",
"n 	c #B68B89",
"o 	c #A37D7F",
"p 	c #846870",
"q 	c #6D5866",
"r 	c #B37B81",
"s 	c #B37A81",
"t 	c #9C787C",
"u 	c #8B6D74",
"v 	c #8A6C73",
"w 	c #846871",
"x 	c #765F6A",
"y 	c #B98587",
"z 	c #C29491",
"A 	c #C29591",
"B 	c #B47E83",
"C 	c #B68286",
"D 	c #B78588",
"E 	c #B78B89",
"F 	c #8A6A72",
"G 	c #866670",
"H 	c #80626D",
"I 	c #755C69",
"J 	c #C9A39B",
"K 	c #C0928F",
"L 	c #C59D97",
"M 	c #C8A39B",
"N 	c #AF8384",
"O 	c #AA7B7F",
"P 	c #9B6F77",
"Q 	c #80616D",
"R 	c #CBA49C",
"S 	c #BD8989",
"T 	c #AB7B7F",
"U 	c #876670",
"V 	c #C49792",
"W 	c #C69B95",
"X 	c #C79D96",
"Y 	c #B08484",
"Z 	c #000000",
"` 	c #946572",
" .	c #857A30",
"..	c #8B8032",
"+.	c #8B7F30",
"@.	c #8B8357",
"#.	c #8C8A7E",
"$.	c #8C8E8F",
"%.	c #8C8B7E",
"&.	c #8A722B",
"*.	c #885316",
"=.	c #873A0B",
"-.	c #873B0C",
";.	c #873D0D",
">.	c #813A0C",
",.	c #85792F",
"'.	c #C7B54A",
").	c #DDC953",
"!.	c #DECA54",
"~.	c #DDC950",
"{.	c #DECF8A",
"].	c #DED9C6",
"^.	c #DEDEDF",
"/.	c #DEDAC6",
"(.	c #DCB64A",
"_.	c #D9892C",
":.	c #D7661C",
"<.	c #D7641B",
"[.	c #D8661C",
"}.	c #C25B18",
"|.	c #813B0C",
"1.	c #81390C",
"2.	c #B07B2E",
"3.	c #E5B84A",
"4.	c #FCD156",
"5.	c #FDD256",
"6.	c #FCD053",
"7.	c #FCD68C",
"8.	c #FDE0C7",
"9.	c #FDE5E1",
"0.	c #FDE1C8",
"a.	c #FCD78C",
"b.	c #FBC650",
"c.	c #FAAD3F",
"d.	c #F89535",
"e.	c #F78129",
"f.	c #F87622",
"g.	c #F77522",
"h.	c #E06B1E",
"i.	c #AE5115",
"j.	c #BA9A94",
"k.	c #80390B",
"l.	c #E17827",
"m.	c #F29335",
"n.	c #FAA03B",
"o.	c #FAA03C",
"p.	c #FAA03A",
"q.	c #FAA35C",
"r.	c #FAA881",
"s.	c #FAAB91",
"t.	c #FAA781",
"u.	c #FBAF44",
"v.	c #FCC64F",
"w.	c #FCBF4C",
"x.	c #FA9636",
"y.	c #F87722",
"z.	c #F87521",
"A.	c #F17321",
"B.	c #884711",
"C.	c #D97521",
"D.	c #F98728",
"E.	c #FA8828",
"F.	c #F98828",
"G.	c #F98827",
"H.	c #F98727",
"I.	c #F98825",
"J.	c #F9871F",
"K.	c #F9861E",
"L.	c #F98724",
"M.	c #F88125",
"N.	c #F77B24",
"O.	c #F99F3B",
"P.	c #F77320",
"Q.	c #D7651C",
"R.	c #8A5615",
"S.	c #DC8D29",
"T.	c #FDA230",
"U.	c #FEA230",
"V.	c #FCA02F",
"W.	c #FCA02D",
"X.	c #FCA029",
"Y.	c #FCA026",
"Z.	c #FB9523",
"`.	c #F88122",
" +	c #FCD256",
".+	c #F9A03B",
"++	c #F77622",
"@+	c #F77421",
"#+	c #8B5D18",
"$+	c #DD972C",
"%+	c #FEAE34",
"&+	c #FFAF34",
"*+	c #FEAB33",
"=+	c #FDA531",
"-+	c #FDAA36",
";+	c #FEB83F",
">+	c #FEBB40",
",+	c #FEB238",
"'+	c #FDAA30",
")+	c #FDA430",
"!+	c #FDAC58",
"~+	c #FEBE81",
"{+	c #FEC181",
"]+	c #FEB55A",
"^+	c #FEAE32",
"/+	c #FDD456",
"(+	c #FBA93E",
"_+	c #FA8928",
":+	c #FA8726",
"<+	c #FB8928",
"[+	c #D97621",
"}+	c #884811",
"|+	c #8B5E18",
"1+	c #FEAF34",
"2+	c #FA932B",
"3+	c #FAA339",
"4+	c #FDC94F",
"5+	c #FED051",
"6+	c #FEBC40",
"7+	c #FDA42A",
"8+	c #FAAB81",
"9+	c #FDD9C5",
"0+	c #FFDFC6",
"a+	c #FEC383",
"b+	c #FEAE2E",
"c+	c #FCA12F",
"d+	c #FED857",
"e+	c #FDB842",
"f+	c #FCA230",
"g+	c #FDA330",
"h+	c #DC8C28",
"i+	c #B47D83",
"j+	c #F98627",
"k+	c #F99E3A",
"l+	c #FCD056",
"m+	c #FEDE5A",
"n+	c #FECB4D",
"o+	c #FDB63A",
"p+	c #FAA73C",
"q+	c #FABF96",
"r+	c #FDEBE2",
"s+	c #FFEDE1",
"t+	c #FEC893",
"u+	c #FEAD28",
"v+	c #F9D658",
"w+	c #EFB344",
"x+	c #EA9934",
"y+	c #EA9733",
"z+	c #EB9934",
"A+	c #CC842C",
"B+	c #7F5118",
"C+	c #F99E3B",
"D+	c #FEE45F",
"E+	c #FEDF5B",
"F+	c #FDD753",
"G+	c #FDD356",
"H+	c #FDDF9E",
"I+	c #FEF4E3",
"J+	c #FFEEE1",
"K+	c #FEC894",
"L+	c #FEAD2B",
"M+	c #F0CF58",
"N+	c #D29744",
"O+	c #C06433",
"P+	c #BF6133",
"Q+	c #C16434",
"R+	c #A7562B",
"S+	c #673317",
"T+	c #FEA631",
"U+	c #FBA032",
"V+	c #FA9F38",
"W+	c #FAB547",
"X+	c #FDD759",
"Y+	c #FEE761",
"Z+	c #FEE862",
"`+	c #FEE75F",
" @	c #FEE861",
".@	c #FEED94",
"+@	c #FFF5CC",
"@@	c #FFEED2",
"#@	c #FED6AD",
"$@	c #FEC281",
"%@	c #FEB457",
"&@	c #F98725",
"*@	c #EFCC57",
"=@	c #D18B41",
"-@	c #BD462F",
";@	c #BC422E",
">@	c #BE472F",
",@	c #A43C28",
"'@	c #662215",
")@	c #C49692",
"!@	c #FB942B",
"~@	c #FBC14D",
"{@	c #FEE25F",
"]@	c #FEE860",
"^@	c #FEE974",
"/@	c #FEEC92",
"(@	c #FEEEB5",
"_@	c #FFEDD2",
":@	c #FEC182",
"<@	c #F8CF56",
"[@	c #EB983D",
"}@	c #E46727",
"|@	c #E46426",
"1@	c #E56727",
"2@	c #C65821",
"3@	c #7C3510",
"4@	c #FEDD5A",
"5@	c #FDD757",
"6@	c #FDD755",
"7@	c #FDE25E",
"8@	c #FEEFA2",
"9@	c #FFFAE4",
"0@	c #F9861A",
"a@	c #FECA4C",
"b@	c #FDB641",
"c@	c #FAB440",
"d@	c #FDD756",
"e@	c #FEEEA1",
"f@	c #F87520",
"g@	c #F97722",
"h@	c #873E0D",
"i@	c #FEDA58",
"j@	c #FEBF43",
"k@	c #FA9129",
"l@	c #FAA133",
"m@	c #FDC84E",
"n@	c #FEDF8E",
"o@	c #FFE8C7",
"p@	c #FFDFC5",
"q@	c #F9861F",
"r@	c #FAA93E",
"s@	c #F98626",
"t@	c #FDAA32",
"u@	c #FDA32F",
"v@	c #FDA933",
"w@	c #FDB83F",
"x@	c #FEC161",
"y@	c #FEC683",
"z@	c #FEDE5B",
"A@	c #FEC044",
"B@	c #FEC042",
"C@	c #FEC583",
"D@	c #FFC144",
"E@	c #FFAE33",
"F@	c #FFB034",
"G@	c #DE982C",
"H@	c #FEDA55",
"I@	c #FEAE33",
"J@	c #8F7579",
"K@	c #91787B",
"L@	c #927C7E",
"M@	c #FB942C",
"N@	c #FED958",
"O@	c #FEE15E",
"P@	c #FEEEA2",
"Q@	c #FFF9E3",
"R@	c #FFEEE0",
"S@	c #F9861B",
"T@	c #BA9993",
"U@	c #BD9F97",
"V@	c #BFA59D",
"W@	c #FEBF44",
"X@	c #FDB741",
"Y@	c #FAA83D",
"Z@	c #FAB542",
"`@	c #D29643",
" #	c #C06333",
".#	c #BF6033",
"+#	c #C16334",
"@#	c #A7552B",
"##	c #673217",
"$#	c #D0AFA5",
"%#	c #FCA02E",
"&#	c #F99D33",
"*#	c #FFFAE3",
"=#	c #EFCD57",
"-#	c #D18C41",
";#	c #BD432E",
">#	c #BF472F",
",#	c #A53D28",
"'#	c #662315",
")#	c #C89F99",
"!#	c #FED050",
"~#	c #FEBA3F",
"{#	c #F98526",
"]#	c #EC993D",
"^#	c #E56827",
"/#	c #E56626",
"(#	c #E66927",
"_#	c #C75A21",
":#	c #7D3510",
"<#	c #EACB58",
"[#	c #BF8343",
"}#	c #A12433",
"|#	c #9F1932",
"1#	c #A22433",
"2#	c #8B1E2B",
"3#	c #560F17",
"4#	c #BE908D",
"5#	c #B68A89",
"6#	c #9C797C",
"7#	c #FA922A",
"8#	c #FAA239",
"9#	c #FECF50",
"0#	c #FDA329",
"a#	c #FA912A",
"b#	c #FAAA80",
"c#	c #FDD8C5",
"d#	c #FEAC23",
"e#	c #FC9F27",
"f#	c #F98624",
"g#	c #BB9490",
"h#	c #A18483",
"i#	c #8C6F75",
"j#	c #C9A29B",
"k#	c #C9A89E",
"l#	c #C2A39A",
"m#	c #845815",
"n#	c #C78826",
"o#	c #E7A333",
"p#	c #F7B73F",
"q#	c #FFC044",
"r#	c #FFC042",
"s#	c #FFC361",
"t#	c #FFC785",
"u#	c #FFC995",
"v#	c #FEBF84",
"w#	c #FBAC5D",
"x#	c #CEABA0",
"y#	c #855916",
"z#	c #B38C32",
"A#	c #E7C34D",
"B#	c #FFDB58",
"C#	c #FEDA54",
"D#	c #FED955",
"E#	c #FEDF8B",
"F#	c #FFE8C8",
"G#	c #FEE7C8",
"H#	c #FDD98C",
"I#	c #B18686",
"J#	c #847930",
"K#	c #8B7F32",
"L#	c #8B8356",
"M#	c #8B8A7E",
"N#	c #8C8D8F",
"O#	c #948183",
"P#	c #968486",
"Q#	c #936572",
"R#	c #C4B0A7",
"S#	c #C6B5AC",
"T#	c #C6B5AD",
"U#	c #B28787",
"V#	c #A4737B",
"W#	c #D4B9AF",
"X#	c #D6BEB3",
"Y#	c #D6BEB4",
"Z#	c #AD8183",
"`#	c #CAA39C",
" $	c #CBA59F",
".$	c #BF8D8C",
"+$	c #A27D7F",
"@$	c #836770",
"#$	c #C39390",
"$$	c #C0908E",
"%$	c #BB898A",
"&$	c #BC8C8C",
"*$	c #C39792",
"=$	c #B88E8B",
"-$	c #A08081",
";$	c #7F616C",
">$	c #C49893",
",$	c #C79F98",
"'$	c #CAA59D",
")$	c #CCA89F",
"!$	c #C29792",
"~$	c #BE9C95",
"{$	c #AA7A7F",
"]$	c #9A6F77",
"^$	c #BC8989",
"/$	c #C1908E",
"($	c #7D5D6B",
"  . + @ # @ @ @ @ $ % & & & & & & & & % $ @ @ $ % % $ @ @ @ @ @ @ @ @ @ @ @ @ @ @ @ @ @ @ @ @ @ @ @ @ @ @ @ @ @ @ # @ + .   * = ",
"- ; > , ' , , , , ) ! ~ ~ ~ ~ ~ ~ ~ ~ ! ) , , ) ! ! ) , , { ] ] { ' , , , , , , , , , , , , , , , , , , , , , , , ' , > ; - ^ / ",
"( _ : < < < < < < [ } | 1 | | | | 1 | } [ < < 2 } } 2 < < < < < < < < < < < < < < < < < < < < < < < < < < < < < < < < 3 4 5 6 7 ",
"8 : 9 0 a 0 0 0 0 b c d d d d d d d d c b 0 0 b c c b 0 0 0 0 0 0 0 0 0 0 0 0 0 0 0 0 0 0 0 0 0 0 0 0 0 0 0 0 0 0 a 0 9 : 8 + e ",
"] < 0 < < < < < < < < < < < < < < < < < < < < < < < < < < < < < < < < < < < < f g g h i g j k k k k k k j g l < < m n ] , o p q ",
"] < a < < < < < < < < < < < < < < < < < < < < < < < < < < < < < < < < < < < < g _ 4 g g 4 r s r r r r s r _ g < < n t u v w x q ",
"] < 0 < < < < < < < < < < < < < < < < < < < < < < < < < < < < < < < < < < < < g _ y z A y B C D D D D C B _ g < < E t F G H I q ",
"] < 0 < < < < < < < < < < < < < < < < < < < < < < < < < < < < < < < < < < < < h g A J J A K L M M M M L K g i < < m n N O P Q q ",
"] < 0 < < < < < < < < < < < < < < < < < < < < < < < < < < < < < < < < < < < < < < 2 } R 2 [ R | 1 1 | } [ < < < < < < h S T U q ",
"] < 0 < < < < < < < < < < < < < < < < < < < < < < < < < < < < < < < < < < < < < < V 2 2 V V W X X X X W V < < < < < < < h Y F q ",
"] < a < < < < < < < < < < < < < < < < < < < < < < < < < < < < < < < < < < < < < < < < < < < < < < < < < < < < < < < < a < ] # q ",
"] < 0 < < < < < < < < < < < < < < < < < < < < < < < < < < < < < < < < < < < < < < < < < < < < < < < < < < < < < < < < a < ] # q ",
"8 : 9 0 a 0 0 0 0 0 0 0 0 0 0 0 0 0 0 0 0 0 0 0 0 0 0 0 0 0 0 0 0 0 0 0 0 0 0 0 0 0 0 0 0 0 0 0 0 0 0 0 0 0 0 0 0 a 0 9 : 8 + e ",
"( _ : < < < < < < < < < < < < < < < < < Z Z Z Z Z Z Z Z Z Z Z Z Z Z Z Z Z Z Z Z Z Z Z Z < < < < < < < < < < < < < < < : _ ( . 7 ",
"` ; > , , , , , , , , , , , , , , , , ,  .................+...@.#.$.$.%.@.&.*.=.-.;.;.>., , , , , , , , , , , , , ' , > ; - ^ / ",
"  . + @ # @ @ @ @ @ @ @ @ @ @ @ @ @ Z ,.'.).!.).).).).).).~.).{.].^.^./.{.(._.:.<.[.:.}.|.Z @ @ @ @ @ @ @ @ @ @ @ # @ + .   * = ",
"% & & & & % $ @ @ @ @ @ @ @ @ @ @ @ 1.2.3.4.5.4.4.4.4.4.4.6.4.7.8.9.9.0.a.b.c.d.e.f.g.h.i.|.& & & & & & & % $ @ @ @ @ @ @ @ @ @ ",
"j.~ ~ ~ ~ ! ) , , , , , , , , , Z k.}.l.m.n.o.n.n.n.n.n.n.p.n.q.r.s.s.t.q.u.v.w.x.y.z.A.h.}.>.Z ~ ~ ~ ~ ~ ! ) , , , , , ' { ] ] ",
"} | 1 1 | } [ < < < < < < < < < Z B.C.D.E.F.F.G.H.H.H.F.F.I.J.K.L.F.F.M.N.O.4.4.O.g.P.f.g.Q.;.Z | | | 1 | } [ < < < < < < < < < ",
"c d d d d c b 0 0 0 0 0 0 0 0 0 Z R.S.T.U.V.V.V.V.V.V.V.V.V.V.W.X.Y.Y.Z.`.O.4. +.+++@+y.f.[.;.Z d d d d d c b 0 0 0 0 0 0 0 0 0 ",
"< < < < < < < < < < < < < i g j Z #+$+%+&+*+=+-+;+>+,+'+)+!+~+{+]+%+^+V.D.O.4./+(+_+:+<+_+[+}+Z < < < < < < < < < < < < < < < < ",
"< < < < < < < < < < < < < g _ s Z |+$+1+&+=+2+3+4+5+6+7+2+8+9+0+a+1+b+c+F.O.4.d+e+f+c+g+f+h+R.Z < < < < < < < < < < < < < < < < ",
"< < < < < < < < < < < V 2 A y i+Z #+$+1+&+V.j+k+l+m+n+o+p+q+r+s+t+b+u+V.F.O.4.v+w+x+y+z+x+A+B+Z < < < < < < < < < < < < < < < < ",
"< < < < < < < < < < < 2 } J z K Z #+$+%+&+V.H.C+4.D+E+F+G+H+I+J+K+%+L+V.D.O.4.M+N+O+P+Q+O+R+S+Z < < < < < < < < < < < < < < < < ",
"< < < < < < < < < < < 2 } R 2 [ Z |+$+*+T+U+V+W+X+Y+Z+`+ @.@+@@@#@$@%@V.&@.+4.*@=@-@;@>@-@,@'@Z < < < < < < < < < < < < < < < < ",
"< < < < < < < < < < < )@2 2 V V Z |+$+)+!@V+~@X+{@Y+ @]@ @^@/@(@_@0+:@V.K.O.4.<@[@}@|@1@}@2@3@Z < < < < < < < < < < < < < < < < ",
"< < < < < < < < < < < < < < < < Z |+$+V._+k+4.Y+ @D+4@5@G+6@7@8@9@J+K+V.0@O.4.4.O.g.P.f.g.Q.;.Z < < < < < < < < < < < < < < < < ",
"< < < < < < < < < < < < < < < < Z |+$+V.E.C+4.Z+Z+m+a@b@p+c@d@e@9@J+K+V.0@O.4.4..+y.f@g@y.[.h@Z < < < < < < < < < < < < < < < < ",
"0 0 0 0 0 0 0 0 0 0 0 0 0 0 0 0 Z |+$+V._+k+4. @ @i@j@g+k@l@m@n@o@p@:@V.q@O.4.G+r@D.s@E.D.C.B.Z 0 0 0 0 0 0 0 0 0 0 0 0 0 0 0 0 ",
"< < < < < < < < < < < < < < < < Z |+$+V._+k+4. @ @i@j@t@u@v@w@x@y@$@]+V.&@O.4.d+e+f+c+g+f+h+R.Z < < < < < < < < < < < < < < < < ",
"{ ' , , , , , , , , , , , , , , Z |+$+V.E.C+4.Z+Z+z@n+A@j@B@j@x@C@$@]+V.&@O.4.i@D@&+E@F@&+G@|+Z , , , , , , , , , , , , ' { ] ] ",
"@ @ @ @ @ @ @ @ @ @ @ @ @ @ @ @ Z |+$+V._+k+4.Y+ @D+4@i@i@H@i@n@o@p@:@V.q@O.4.i@A@%+I@&+%+$+|+Z @ @ @ @ @ @ @ @ @ @ @ @ @ @ @ @ ",
"  . + @ # @ @ $ % J@$ $ J@K@& L@Z |+$+)+M@3+m@N@i@i@i@d+G+6@O@P@Q@R@K+V.S@O.4.v+w+x+y+z+x+A+B+Z @ @ @ @ @ @ @ @ @ # @ + .   * = ",
"- ; > , ' , , ) ! T@) ) T@U@~ V@Z |+$+*+T+-+;+j@j@j@W@X@Y@Z@X+8@9@J+K+V.0@O.4.M+`@ #.#+# #@###Z , , , , , , , , , ' , > ; - ^ / ",
"( _ : < < < < 2 } R 2 [ R | 1 $#Z |+$+*+T+-+;+j@j@>+,+%#s@&#l+P@*#R@K+V.S@.+4.=#-#>@;#>#>@,#'#Z < < < < < < < < < < < : _ ( . 7 ",
"8 : 9 0 a 0 0 b c c b b c d d )#Z |+$+)+M@3+m@i@i@!#~#%#{#&#l+P@*#R@K+V.S@O.4.<@[@}@|@1@}@2@3@Z 0 0 0 0 0 0 0 0 0 a 0 9 : 8 + e ",
"] < 0 < < < < < < < < < < < < < Z |+$+V.E.C+4.Z+Z+m+a@b@p+c@d@e@9@J+K+V.0@O.4.<@]#^#/#(#^#_#:#Z < < < < < < < < < < < a < ] # q ",
"] < a < < < < < < < < < < < < < Z |+$+V.E.C+4. @Z+D+m+d+G+6@O@P@Q@R@K+V.S@.+4.=#-#>@;#>#>@,#'#Z < < < < < < < < < < < a < ] # q ",
"] < 0 < < < < < < < < < < < < < Z |+$+)+!@V+~@X+{@Y+ @]@ @^@/@(@_@0+:@V.K.n.4.<#[#}#|#1#}#2#3#Z < < < < < < < 0 0 a 0 < h Y F q ",
"] < 0 < < < < < < < < < < < < < Z |+$+*+T+U+V+W+X+Y+Z+`+ @.@+@@@#@$@%@V.&@n.4.<#[#}#|#1#}#2#3#Z < < < < < < < < < < < h S T U q ",
"] < 0 < < < < < < < < < < < < < Z #+$+%+&+V.H.C+4.D+E+F+G+H+I+J+K+%+L+V.D..+4.*@=@-@;@>@-@,@'@Z i h g g h 4#5#, , ' , N O P Q q ",
"] < 0 < < < < < < < < < < < < < Z #+$+1+&+V.j+k+l+m+n+o+p+q+r+s+t+b+u+V.F.O.4.<@]#^#/#(#^#_#:#Z g g 4 4 g n 6#@ v # @ F U H I q ",
"] < a < < < < < < < < < < < < < Z #+G@&+&+g+7#8#m@9#>+0#a#b#c#p@{+L+d#e#f#O.4. +.+++@+y.f.[.;.Z A z y y z g#h#% i#@ @ u u w x q ",
"] < 0 < < < < < < < < < < < < < Z #+$+%+&+*+=+-+;+>+,+'+)+!+~+{+]+%+^+V.D.O.4.4..+y.f@g@y.[.h@Z J j#A z j#k#l#! ) , , ] ' o p q ",
"8 : 9 0 a 0 0 0 0 0 0 0 0 0 0 0 Z m#n#o#p#q#D@q#q#q#q#q#q#r#q#s#t#u#u#v#w#u.v.w.x.y.z.A.h.}.>.Z } } c W } x#x#} W a 0 9 : 8 + e ",
"( _ : < < < < < < < < < < < < < < < y#z#A#i@B#i@i@i@i@i@i@C#D#E#F#J+J+G#H#b.c.d.e.f.g.h.i.|.< V 2 2 V V 2 X X c b a 0 3 4 5 6 7 ",
"- ; > , ' , , , , , , , , , , , , , Z ,.'.).!.).).).).).).~.).{.].^.^./.{.(._.:.<.[.:.}.|.Z , , , , I#I#I#I#I#I#, , , > ; - ^ / ",
"  . + @ # @ @ @ @ @ @ @ @ @ @ @ @ @ @ @ J#K#K#K#K#K#K#K#K#+.K#L#M#N#N##.@.&.*.=.-.;.;.>.@ @ @ @ @ @ @ @ @ @ @ @ @ # @ + .   * = ",
"@ @ @ @ @ @ @ @ @ @ @ @ @ @ @ @ @ @ @ @ Z Z Z Z Z Z Z Z Z Z Z Z Z Z Z Z Z Z Z Z Z Z Z Z J@& & K@& L@O#P#P#P#P#O#L@& K@% $ @ @ @ ",
"{ ' , , , , , , , , , , , , , , , , , , , , , , , ' , > ; Q#^ ^ Q#; > , ' , , ) ! T@) ) T@~ ~ U@~ V@R#S#T#T#S#R#V@~ U@! ) { U#] ",
"< < < < < < < < < < < < < < < < < < < < < < < < < a 0 3 4 ( 6 . V#_ : < < < < 2 } R 2 [ R | 1 | | $#W#X#Y#Y#X#W#$#1 | } [ < < < ",
"0 0 0 0 0 0 0 0 0 0 0 0 0 0 0 0 0 0 0 0 0 0 0 0 0 a 0 9 : Z#+ + Z#: 9 0 a 0 0 b c c b b c d d d d )#`# $ $ $ $`#)#d d c b 0 0 0 ",
"< < < < < < < l g j k k j g l < < f .$.$h < < m 5#, , ] ' +$p @ ' < 0 < < < < < < < < < < < < < < < < < < < < < < < < < < < < < ",
"< < < < < < < g _ r s s r _ g < < g _ _ g < < n t @ v u u @$x # ] < a < < < < < < < < < < < < < < < #$9 9 9 9 #$< < < < < < < < ",
"< < < < < < < g _ B C C B _ g < < $$%$&$*$W V =$-$% i#F U ;$I @ ] < 0 < < < < < < < < < < < < < < < < < < < < < < < < < < < < < ",
"< < < < < < < i g K L L K g i < < >$,$'$)$} [ !$~$! ) N {$]$Q @ ' < 0 < < < < < < < < < < < < < < < < < < < < < < < < < < < < < ",
"< < < < < < < < < 2 } } 2 < < < < [ } 1 1 R [ 2 R } 2 h ^$O U @ ' < 0 < < < < < < < < < < < < < < < < < < < < < < < < < < < < < ",
"< < < < < < < < < V W W V < < < < )@W X X [ )@)@W c b < /$N F @ , < 0 < < < < < < < < < < < < < < < < < < < < < < < < < < < < < ",
"< < < < < < < < < < < < < < < < < < < < < < < < < < < a < ' # # ' < a < < < < < < < < < < < < < < < < < < < < < < < < < < < < < ",
"< < < < < < < < < < < < < < < < < < < < < < < < < < < a < ' # @ , < 0 < < < < < < < < < < < < < < < < < < < < < < < < < < < < < ",
"0 0 0 0 0 0 0 0 0 0 0 0 0 0 0 0 0 0 0 0 0 0 0 0 0 a 0 9 : Z#+ + Z#: 9 0 a 0 0 0 0 0 0 0 0 0 0 0 0 0 0 0 0 0 0 0 0 0 0 0 0 0 0 0 ",
"< < < < < < < < < < < < < < < < < < < < < < < < < < < : _ V#. . V#_ : < < < < < < < < < < < < < < < < < < < < < < < < < < < < < ",
"{ ' , , , , , , , , , , , , I#I#I#I#, , , , , , , , , > ; Q#^ ^ Q#; > , ' , , , , , , , , , , , , , , , , , , , , , , , ' { ] ] ",
"@ @ @ @ @ @ @ @ @ @ @ @ @ @ @ @ @ @ @ @ @ @ @ @ @ # @ + . ($* * ($. + @ # @ @ @ @ @ @ @ @ @ @ @ @ @ @ @ @ @ @ @ @ @ @ @ @ @ @ @ "};
