/* XPM */
static char * coins4_xpm[] = {
"64 64 313 2",
"  	c None",
". 	c #000000",
"+ 	c #813B0C",
"@ 	c #873D0D",
"# 	c #873B0C",
"$ 	c #873A0B",
"% 	c #88531B",
"& 	c #8A722B",
"* 	c #8B8032",
"= 	c #8B8033",
"- 	c #8B7F30",
"; 	c #8B8458",
"> 	c #8C8A7E",
", 	c #857A30",
"' 	c #C25B18",
") 	c #D7661C",
"! 	c #D8661C",
"~ 	c #D7641B",
"{ 	c #D98932",
"] 	c #DCB64A",
"^ 	c #DDC953",
"/ 	c #DDCA54",
"( 	c #DDC950",
"_ 	c #DECF8C",
": 	c #DED9C6",
"< 	c #DFDAC6",
"[ 	c #C7B54A",
"} 	c #857827",
"| 	c #F77622",
"1 	c #F87722",
"2 	c #F77522",
"3 	c #F78129",
"4 	c #F89535",
"5 	c #FAAD43",
"6 	c #FBC550",
"7 	c #FCD156",
"8 	c #FCD053",
"9 	c #FCD68E",
"0 	c #FDE0C7",
"a 	c #FEE1C8",
"b 	c #FCD78E",
"c 	c #8A7124",
"d 	c #F97722",
"e 	c #F87521",
"f 	c #FA9636",
"g 	c #FCBF4C",
"h 	c #FCC650",
"i 	c #FBAF44",
"j 	c #FAA03B",
"k 	c #FA9F3B",
"l 	c #FAA03A",
"m 	c #FAA35D",
"n 	c #FAA881",
"o 	c #FBA981",
"p 	c #DA8A32",
"q 	c #885518",
"r 	c #D7651C",
"s 	c #F87622",
"t 	c #F77320",
"u 	c #F99F3B",
"v 	c #FDD356",
"w 	c #FAA93E",
"x 	c #F98828",
"y 	c #F98627",
"z 	c #F98825",
"A 	c #F9871F",
"B 	c #F98724",
"C 	c #F98426",
"D 	c #F77B24",
"E 	c #F77421",
"F 	c #FCD256",
"G 	c #FED858",
"H 	c #FDB841",
"I 	c #FCA02F",
"J 	c #FC9F2E",
"K 	c #FCA12D",
"L 	c #FCA029",
"M 	c #FC9725",
"N 	c #F88122",
"O 	c #884811",
"P 	c #D97621",
"Q 	c #FA8928",
"R 	c #FB8928",
"S 	c #FA8726",
"T 	c #FBA93D",
"U 	c #FDD456",
"V 	c #FEDA58",
"W 	c #FEC044",
"X 	c #FEAB31",
"Y 	c #FDA330",
"Z 	c #FDAC58",
"` 	c #FEBE81",
" .	c #FEC281",
"..	c #FEB55A",
"+.	c #FDA230",
"@.	c #F98725",
"#.	c #873C0D",
"$.	c #8A5615",
"%.	c #DC8C28",
"&.	c #FCA230",
"*.	c #FCA12F",
"=.	c #FDB842",
"-.	c #FED857",
";.	c #FDA42A",
">.	c #FA922A",
",.	c #FAAB81",
"'.	c #FDD9C5",
").	c #FFE0C6",
"!.	c #FEC383",
"~.	c #7F5118",
"{.	c #CC842C",
"].	c #EA9934",
"^.	c #EB9934",
"/.	c #EA9733",
"(.	c #EFB244",
"_.	c #F9D658",
":.	c #FDB741",
"<.	c #FB9E29",
"[.	c #FA9E37",
"}.	c #FABF96",
"|.	c #FDEBE2",
"1.	c #FFEEE1",
"2.	c #FEC893",
"3.	c #FDA129",
"4.	c #F98616",
"5.	c #673317",
"6.	c #A7562B",
"7.	c #C06433",
"8.	c #C16434",
"9.	c #BF6133",
"0.	c #D29744",
"a.	c #F0CF58",
"b.	c #FA9E30",
"c.	c #FBC04C",
"d.	c #FDDF9E",
"e.	c #FEF5E3",
"f.	c #FEC894",
"g.	c #F9861A",
"h.	c #662215",
"i.	c #A43C28",
"j.	c #BD462F",
"k.	c #BE472F",
"l.	c #BC422E",
"m.	c #D18B41",
"n.	c #EFCC57",
"o.	c #FDD659",
"p.	c #FBB647",
"q.	c #FAB543",
"r.	c #FDD759",
"s.	c #FEED94",
"t.	c #FFF6CC",
"u.	c #FFEFD3",
"v.	c #FED6AD",
"w.	c #FDB780",
"x.	c #F99050",
"y.	c #873B04",
"z.	c #7C3510",
"A.	c #C65821",
"B.	c #E46727",
"C.	c #E56727",
"D.	c #E46426",
"E.	c #EB973D",
"F.	c #F8CF56",
"G.	c #FDE15E",
"H.	c #FDD859",
"I.	c #FDD758",
"J.	c #FEE25E",
"K.	c #FEE974",
"L.	c #FEEC93",
"M.	c #FEEEB5",
"N.	c #FFEDD2",
"O.	c #FED7C5",
"P.	c #F9A17F",
"Q.	c #873800",
"R.	c #F99E3A",
"S.	c #FEE761",
"T.	c #FEE861",
"U.	c #FEE45F",
"V.	c #FEDD5A",
"W.	c #FDD753",
"X.	c #FEF4E3",
"Y.	c #FEE6E1",
"Z.	c #F9AA91",
"`.	c #873700",
" +	c #873E0D",
".+	c #F87520",
"++	c #FEE862",
"@+	c #FEDE5B",
"#+	c #FECB4C",
"$+	c #FDB639",
"%+	c #FAA738",
"&+	c #FBBF95",
"*+	c #FDEBE1",
"=+	c #884711",
"-+	c #D97521",
";+	c #F98728",
">+	c #FA8828",
",+	c #F98626",
"'+	c #FAA73D",
")+	c #FEDB58",
"!+	c #FEBF43",
"~+	c #FDA329",
"{+	c #FA9129",
"]+	c #FAAA80",
"^+	c #FDD8C4",
"/+	c #FED6C4",
"(+	c #F9A27F",
"_+	c #873900",
":+	c #FDAA30",
"<+	c #FDA32F",
"[+	c #F99254",
"}+	c #8B5E18",
"|+	c #DE982C",
"1+	c #FFAF34",
"2+	c #FFB034",
"3+	c #FFAE33",
"4+	c #FFC043",
"5+	c #FDE25E",
"6+	c #FDCD52",
"7+	c #FEC449",
"8+	c #FEC042",
"9+	c #FEC261",
"0+	c #FEC583",
"a+	c #F99154",
"b+	c #DD972C",
"c+	c #FEAE34",
"d+	c #FEAE33",
"e+	c #FAB647",
"f+	c #FAB044",
"g+	c #FDCC51",
"h+	c #FEDA55",
"i+	c #FEE08E",
"j+	c #FFE8C7",
"k+	c #FAA83D",
"l+	c #FA9F38",
"m+	c #FDD755",
"n+	c #FEE25F",
"o+	c #FEEFA2",
"p+	c #FFF9E3",
"q+	c #FEE6E0",
"r+	c #F9A991",
"s+	c #673217",
"t+	c #A7552B",
"u+	c #C06333",
"v+	c #C16334",
"w+	c #BF6033",
"x+	c #D29643",
"y+	c #FB9F32",
"z+	c #FA9E38",
"A+	c #FAB542",
"B+	c #FFFAE4",
"C+	c #662315",
"D+	c #A53D28",
"E+	c #BF472F",
"F+	c #BD432E",
"G+	c #EFCD57",
"H+	c #FCA02E",
"I+	c #F98525",
"J+	c #F99D33",
"K+	c #FCD056",
"L+	c #FFFAE3",
"M+	c #F98526",
"N+	c #7D3510",
"O+	c #C75A21",
"P+	c #E56827",
"Q+	c #E66927",
"R+	c #E56626",
"S+	c #EC983D",
"T+	c #FECC4D",
"U+	c #FAB440",
"V+	c #FDD756",
"W+	c #FEEFA1",
"X+	c #D18A41",
"Y+	c #FFDF5B",
"Z+	c #FEE15E",
"`+	c #560F17",
" @	c #8B1E2B",
".@	c #A12433",
"+@	c #A22433",
"@@	c #9F1932",
"#@	c #BF8243",
"$@	c #EACB58",
"%@	c #BF8343",
"&@	c #FBB748",
"*@	c #FAB544",
"=@	c #FFF5CC",
"-@	c #FFEED2",
";@	c #FBA93E",
">@	c #FDD8C5",
",@	c #FFDFC5",
"'@	c #FEC181",
")@	c #F98519",
"!@	c #873A0C",
"~@	c #F99636",
"{@	c #FECD52",
"]@	c #FFC64A",
"^@	c #FFC044",
"/@	c #FFC042",
"(@	c #FFC362",
"_@	c #FFC785",
":@	c #FFC084",
"<@	c #FBAC5E",
"[@	c #885417",
"}@	c #FEDA54",
"|@	c #FED955",
"1@	c #FEDF8D",
"2@	c #FFE8C8",
"3@	c #FFE7C8",
"4@	c #FDD98E",
"5@	c #88521A",
"6@	c #8B7F32",
"7@	c #8B8358",
"8@	c #8B8A7E",
"                                                                                                                                ",
"                                                                                                                                ",
"                                                                                                                                ",
"                                                                                                                                ",
"                                                                                                                                ",
"                                                                                                                                ",
"                                                                                                                                ",
"                                                                                                                                ",
"                                                                                                                                ",
"                                                                                                                                ",
"                                                                                                                                ",
"                                                                                                                                ",
"                                                                                                                                ",
"                                              . . . . . . . . . . . . . . . . . .                                               ",
"                                              + @ @ @ @ # $ % & * = - * ; > > ; ,                                               ",
"                                          . + ' ) ! ) ) ~ ) { ] ^ / ( ^ _ : < _ [ } .                                           ",
"                                          . @ ) | 1 2 | 3 4 5 6 7 7 8 7 9 0 a b ] c .                                           ",
"                                          . @ ! 1 d e 1 f g h i j k l j m n o m p q .                                           ",
"                                          . @ r 2 s t 2 u 7 v w x y z A A B C D ) @ .                                           ",
"                                          . @ ) | 1 E | u F G H I J I I K L M N ~ # .                                           ",
"                                          . O P Q R S Q T U V W X Y Z `  ...+.@.) #..                                           ",
"                                          . $.%.&.Y *.&.=.-.V W ;.>.,.'.).!.Y A ) #..                                           ",
"                                          . ~.{.].^./.].(._.-.:.<.[.}.|.1.2.3.4.) #..                                           ",
"                                          . 5.6.7.8.9.7.0.a.v T b.c.d.e.1.f.+.g.) #..                                           ",
"                                          . h.i.j.k.l.j.m.n.o.p.q.r.s.t.u.v.w.x.) y..                                           ",
"                                          . z.A.B.C.D.B.E.F.G.H.I.J.K.L.M.N.O.P.) Q..                                           ",
"                                          . @ r 2 s t 2 R.7 S.T.U.V.W.v d.X.Y.Z.) `..                                           ",
"                                          .  +! 1 d .+1 R.7 T.++@+#+$+%+&+*+Y.Z.) `..                                           ",
"                                          . =+-+;+>+,+;+'+v T.++)+!+~+{+]+^+/+(+) _+.                                           ",
"                                          . $.%.&.Y *.&.:.-.T.T.V !+:+<+Z ` w.[+) y..                                           ",
"                                          . }+|+1+2+3+1+4+V 5+r.6+7+8+!+9+0+w.a+) y..                                           ",
"                                          . }+b+c+1+d+c+W V r.e+f+g+h+)+i+j+/+P.) _+.                                           ",
"                                          . ~.{.].^./.].(._.v k+l+c.m+n+o+p+q+r+) `..                                           ",
"                                          . s+t+u+v+w+u+x+a.-.H y+z+A+H.o+B+Y.r+) `..                                           ",
"                                          . C+D+k.E+F+k.m.G+V 4+H+I+J+K+o+L+q+r+) `..                                           ",
"                                          . z.A.B.C.D.B.E.F.V W I M+J+K+o+L+q+r+) `..                                           ",
"                                          . N+O+P+Q+R+P+S+F.@+T+:.'+U+V+W+B+Y.r+) `..                                           ",
"                                          . C+D+k.E+F+k.X+G+U.Y+-.v m+Z+o+p+q+r+) `..                                           ",
"                                          . `+ @.@+@@@.@#@$@G.H.I.J.K.L.M.N.O.P.) Q..                                           ",
"                                          . `+ @.@+@@@.@%@$@r.&@*@r.s.=@-@v.w.x.) y..                                           ",
"                                          . h.i.j.k.l.j.m.n.v ;@b.c.d.e.1.f.+.g.) #..                                           ",
"                                          . N+O+P+Q+R+P+S+F.-.H <.[.}.|.1.2.3.4.) #..                                           ",
"                                          . @ ) | 1 E | u F )+W ~+{+]+>@,@'@3.)@~ !@.                                           ",
"                                          .  +! 1 d .+1 u 7 V W X Y Z `  ...+.@.) #..                                           ",
"                                          . @ ! 1 d e 1 ~@g {@]@^@^@/@^@(@_@:@<@p [@.                                           ",
"                                          . @ ) | 1 2 | 3 4 f+6+V )+}@|@1@2@3@4@] c .                                           ",
"                                          . + ' ) ! ) ) ~ ) { ] ^ / ( ^ _ : < _ [ } .                                           ",
"                                              + @ @ @ @ # $ 5@& 6@6@- 6@7@8@> 7@,                                               ",
"                                              . . . . . . . . . . . . . . . . . .                                               ",
"                                                                                                                                ",
"                                                                                                                                ",
"                                                                                                                                ",
"                                                                                                                                ",
"                                                                                                                                ",
"                                                                                                                                ",
"                                                                                                                                ",
"                                                                                                                                ",
"                                                                                                                                ",
"                                                                                                                                ",
"                                                                                                                                ",
"                                                                                                                                ",
"                                                                                                                                ",
"                                                                                                                                ",
"                                                                                                                                "};
