/* XPM */
static char * coins7_xpm[] = {
"64 64 335 2",
"  	c #87CEEB",
". 	c #000000",
"+ 	c #857A30",
"@ 	c #8B8032",
"# 	c #8B7F30",
"$ 	c #8B8357",
"% 	c #8C8A7E",
"& 	c #8C8E8F",
"* 	c #8C8B7E",
"= 	c #8A722B",
"- 	c #885316",
"; 	c #873A0B",
"> 	c #873B0C",
", 	c #873D0D",
"' 	c #813A0C",
") 	c #85792F",
"! 	c #C7B54A",
"~ 	c #DDC953",
"{ 	c #DECA54",
"] 	c #DDC950",
"^ 	c #DECF8A",
"/ 	c #DED9C6",
"( 	c #DEDEDF",
"_ 	c #DEDAC6",
": 	c #DCB64A",
"< 	c #D9892C",
"[ 	c #D7661C",
"} 	c #D7641B",
"| 	c #D8661C",
"1 	c #C25B18",
"2 	c #813B0C",
"3 	c #81390C",
"4 	c #B07B2E",
"5 	c #E5B84A",
"6 	c #FCD156",
"7 	c #FDD256",
"8 	c #FCD053",
"9 	c #FCD68C",
"0 	c #FDE0C7",
"a 	c #FDE5E1",
"b 	c #FDE1C8",
"c 	c #FCD78C",
"d 	c #FBC650",
"e 	c #FAAD3F",
"f 	c #F89535",
"g 	c #F78129",
"h 	c #F87622",
"i 	c #F77522",
"j 	c #E06B1E",
"k 	c #AE5115",
"l 	c #80390B",
"m 	c #E17827",
"n 	c #F29335",
"o 	c #FAA03B",
"p 	c #FAA03C",
"q 	c #FAA03A",
"r 	c #FAA35C",
"s 	c #FAA881",
"t 	c #FAAB91",
"u 	c #FAA781",
"v 	c #FBAF44",
"w 	c #FCC64F",
"x 	c #FCBF4C",
"y 	c #FA9636",
"z 	c #F87722",
"A 	c #F87521",
"B 	c #F17321",
"C 	c #884711",
"D 	c #D97521",
"E 	c #F98728",
"F 	c #FA8828",
"G 	c #F98828",
"H 	c #F98827",
"I 	c #F98727",
"J 	c #F98825",
"K 	c #F9871F",
"L 	c #F9861E",
"M 	c #F98724",
"N 	c #F88125",
"O 	c #F77B24",
"P 	c #F99F3B",
"Q 	c #F77320",
"R 	c #D7651C",
"S 	c #8A5615",
"T 	c #DC8D29",
"U 	c #FDA230",
"V 	c #FEA230",
"W 	c #FCA02F",
"X 	c #FCA02D",
"Y 	c #FCA029",
"Z 	c #FCA026",
"` 	c #FB9523",
" .	c #F88122",
"..	c #FCD256",
"+.	c #F9A03B",
"@.	c #F77622",
"#.	c #F77421",
"$.	c #8B5D18",
"%.	c #DD972C",
"&.	c #FEAE34",
"*.	c #FFAF34",
"=.	c #FEAB33",
"-.	c #FDA531",
";.	c #FDAA36",
">.	c #FEB83F",
",.	c #FEBB40",
"'.	c #FEB238",
").	c #FDAA30",
"!.	c #FDA430",
"~.	c #FDAC58",
"{.	c #FEBE81",
"].	c #FEC181",
"^.	c #FEB55A",
"/.	c #FEAE32",
"(.	c #FDD456",
"_.	c #FBA93E",
":.	c #FA8928",
"<.	c #FA8726",
"[.	c #FB8928",
"}.	c #D97621",
"|.	c #884811",
"1.	c #8B5E18",
"2.	c #FEAF34",
"3.	c #FA932B",
"4.	c #FAA339",
"5.	c #FDC94F",
"6.	c #FED051",
"7.	c #FEBC40",
"8.	c #FDA42A",
"9.	c #FAAB81",
"0.	c #FDD9C5",
"a.	c #FFDFC6",
"b.	c #FEC383",
"c.	c #FEAE2E",
"d.	c #FCA12F",
"e.	c #FED857",
"f.	c #FDB842",
"g.	c #FCA230",
"h.	c #FDA330",
"i.	c #DC8C28",
"j.	c #F98627",
"k.	c #F99E3A",
"l.	c #FCD056",
"m.	c #FEDE5A",
"n.	c #FECB4D",
"o.	c #FDB63A",
"p.	c #FAA73C",
"q.	c #FABF96",
"r.	c #FDEBE2",
"s.	c #FFEDE1",
"t.	c #FEC893",
"u.	c #FEAD28",
"v.	c #F9D658",
"w.	c #EFB344",
"x.	c #EA9934",
"y.	c #EA9733",
"z.	c #EB9934",
"A.	c #CC842C",
"B.	c #7F5118",
"C.	c #F99E3B",
"D.	c #FEE45F",
"E.	c #FEDF5B",
"F.	c #FDD753",
"G.	c #FDD356",
"H.	c #FDDF9E",
"I.	c #FEF4E3",
"J.	c #FFEEE1",
"K.	c #FEC894",
"L.	c #FEAD2B",
"M.	c #F0CF58",
"N.	c #D29744",
"O.	c #C06433",
"P.	c #BF6133",
"Q.	c #C16434",
"R.	c #A7562B",
"S.	c #673317",
"T.	c #FEA631",
"U.	c #FBA032",
"V.	c #FA9F38",
"W.	c #FAB547",
"X.	c #FDD759",
"Y.	c #FEE761",
"Z.	c #FEE862",
"`.	c #FEE75F",
" +	c #FEE861",
".+	c #FEED94",
"++	c #FFF5CC",
"@+	c #FFEED2",
"#+	c #FED6AD",
"$+	c #FEC281",
"%+	c #FEB457",
"&+	c #F98725",
"*+	c #EFCC57",
"=+	c #D18B41",
"-+	c #BD462F",
";+	c #BC422E",
">+	c #BE472F",
",+	c #A43C28",
"'+	c #662215",
")+	c #FB942B",
"!+	c #FBC14D",
"~+	c #FEE25F",
"{+	c #FEE860",
"]+	c #FEE974",
"^+	c #FEEC92",
"/+	c #FEEEB5",
"(+	c #FFEDD2",
"_+	c #FEC182",
":+	c #F8CF56",
"<+	c #EB983D",
"[+	c #E46727",
"}+	c #E46426",
"|+	c #E56727",
"1+	c #C65821",
"2+	c #7C3510",
"3+	c #FEDD5A",
"4+	c #FDD757",
"5+	c #FDD755",
"6+	c #FDE25E",
"7+	c #FEEFA2",
"8+	c #FFFAE4",
"9+	c #F9861A",
"0+	c #FECA4C",
"a+	c #FDB641",
"b+	c #FAB440",
"c+	c #FDD756",
"d+	c #FEEEA1",
"e+	c #F87520",
"f+	c #F97722",
"g+	c #873E0D",
"h+	c #FEDA58",
"i+	c #FEBF43",
"j+	c #FA9129",
"k+	c #FAA133",
"l+	c #FDC84E",
"m+	c #FEDF8E",
"n+	c #FFE8C7",
"o+	c #FFDFC5",
"p+	c #F9861F",
"q+	c #FAA93E",
"r+	c #F98626",
"s+	c #FDAA32",
"t+	c #FDA32F",
"u+	c #FDA933",
"v+	c #FDB83F",
"w+	c #FEC161",
"x+	c #FEC683",
"y+	c #FEDE5B",
"z+	c #FEC044",
"A+	c #FEC042",
"B+	c #FEC583",
"C+	c #FFC144",
"D+	c #FFAE33",
"E+	c #FFB034",
"F+	c #DE982C",
"G+	c #FEDA55",
"H+	c #FEAE33",
"I+	c #FB942C",
"J+	c #FED958",
"K+	c #FEE15E",
"L+	c #FEEEA2",
"M+	c #FFF9E3",
"N+	c #FFEEE0",
"O+	c #F9861B",
"P+	c #FEBF44",
"Q+	c #FDB741",
"R+	c #FAA83D",
"S+	c #FAB542",
"T+	c #D29643",
"U+	c #C06333",
"V+	c #BF6033",
"W+	c #C16334",
"X+	c #A7552B",
"Y+	c #673217",
"Z+	c #FCA02E",
"`+	c #F99D33",
" @	c #FFFAE3",
".@	c #EFCD57",
"+@	c #D18C41",
"@@	c #BD432E",
"#@	c #BF472F",
"$@	c #A53D28",
"%@	c #662315",
"&@	c #FED050",
"*@	c #FEBA3F",
"=@	c #F98526",
"-@	c #EC993D",
";@	c #E56827",
">@	c #E56626",
",@	c #E66927",
"'@	c #C75A21",
")@	c #7D3510",
"!@	c #EACB58",
"~@	c #BF8343",
"{@	c #A12433",
"]@	c #9F1932",
"^@	c #A22433",
"/@	c #8B1E2B",
"(@	c #560F17",
"_@	c #FA922A",
":@	c #FAA239",
"<@	c #FECF50",
"[@	c #FDA329",
"}@	c #FA912A",
"|@	c #FAAA80",
"1@	c #FDD8C5",
"2@	c #FEAC23",
"3@	c #FC9F27",
"4@	c #F98624",
"5@	c #845815",
"6@	c #C78826",
"7@	c #E7A333",
"8@	c #F7B73F",
"9@	c #FFC044",
"0@	c #FFC042",
"a@	c #FFC361",
"b@	c #FFC785",
"c@	c #FFC995",
"d@	c #FEBF84",
"e@	c #FBAC5D",
"f@	c #855916",
"g@	c #B38C32",
"h@	c #E7C34D",
"i@	c #FFDB58",
"j@	c #FEDA54",
"k@	c #FED955",
"l@	c #FEDF8B",
"m@	c #FFE8C8",
"n@	c #FEE7C8",
"o@	c #FDD98C",
"p@	c #847930",
"q@	c #8B7F32",
"r@	c #8B8356",
"s@	c #8B8A7E",
"t@	c #8C8D8F",
"                                                                                                                                ",
"                                                                                                                                ",
"                                                                                                                                ",
"                                                                                                                                ",
"                                                                                                                                ",
"                                                                                                                                ",
"                                                                                                                                ",
"                                                                                                                                ",
"                                                                                                                                ",
"                                                                                                                                ",
"                                                                                                                                ",
"                                                                                                                                ",
"                                                                                                                                ",
"                                        . . . . . . . . . . . . . . . . . . . . . . . .                                         ",
"                                        + @ @ @ @ @ @ @ @ # @ $ % & & * $ = - ; > , , '                                         ",
"                                    . ) ! ~ { ~ ~ ~ ~ ~ ~ ] ~ ^ / ( ( _ ^ : < [ } | [ 1 2 .                                     ",
"                                    3 4 5 6 7 6 6 6 6 6 6 8 6 9 0 a a b c d e f g h i j k 2                                     ",
"                                . l 1 m n o p o o o o o o q o r s t t u r v w x y z A B j 1 ' .                                 ",
"                                . C D E F G G H I I I G G J K L M G G N O P 6 6 P i Q h i R , .                                 ",
"                                . S T U V W W W W W W W W W W X Y Z Z `  .P 6 ..+.@.#.z h | , .                                 ",
"                                . $.%.&.*.=.-.;.>.,.'.).!.~.{.].^.&./.W E P 6 (._.:.<.[.:.}.|..                                 ",
"                                . 1.%.2.*.-.3.4.5.6.7.8.3.9.0.a.b.2.c.d.G P 6 e.f.g.d.h.g.i.S .                                 ",
"                                . $.%.2.*.W j.k.l.m.n.o.p.q.r.s.t.c.u.W G P 6 v.w.x.y.z.x.A.B..                                 ",
"                                . $.%.&.*.W I C.6 D.E.F.G.H.I.J.K.&.L.W E P 6 M.N.O.P.Q.O.R.S..                                 ",
"                                . 1.%.=.T.U.V.W.X.Y.Z.`. +.+++@+#+$+%+W &++.6 *+=+-+;+>+-+,+'+.                                 ",
"                                . 1.%.!.)+V.!+X.~+Y. +{+ +]+^+/+(+a._+W L P 6 :+<+[+}+|+[+1+2+.                                 ",
"                                . 1.%.W :.k.6 Y. +D.3+4+G.5+6+7+8+J.K.W 9+P 6 6 P i Q h i R , .                                 ",
"                                . 1.%.W F C.6 Z.Z.m.0+a+p.b+c+d+8+J.K.W 9+P 6 6 +.z e+f+z | g+.                                 ",
"                                . 1.%.W :.k.6  + +h+i+h.j+k+l+m+n+o+_+W p+P 6 G.q+E r+F E D C .                                 ",
"                                . 1.%.W :.k.6  + +h+i+s+t+u+v+w+x+$+^.W &+P 6 e.f.g.d.h.g.i.S .                                 ",
"                                . 1.%.W F C.6 Z.Z.y+n.z+i+A+i+w+B+$+^.W &+P 6 h+C+*.D+E+*.F+1..                                 ",
"                                . 1.%.W :.k.6 Y. +D.3+h+h+G+h+m+n+o+_+W p+P 6 h+z+&.H+*.&.%.1..                                 ",
"                                . 1.%.!.I+4.l+J+h+h+h+e.G.5+K+L+M+N+K.W O+P 6 v.w.x.y.z.x.A.B..                                 ",
"                                . 1.%.=.T.;.>.i+i+i+P+Q+R+S+X.7+8+J.K.W 9+P 6 M.T+U+V+W+U+X+Y+.                                 ",
"                                . 1.%.=.T.;.>.i+i+,.'.Z+r+`+l.L+ @N+K.W O++.6 .@+@>+@@#@>+$@%@.                                 ",
"                                . 1.%.!.I+4.l+h+h+&@*@Z+=@`+l.L+ @N+K.W O+P 6 :+<+[+}+|+[+1+2+.                                 ",
"                                . 1.%.W F C.6 Z.Z.m.0+a+p.b+c+d+8+J.K.W 9+P 6 :+-@;@>@,@;@'@)@.                                 ",
"                                . 1.%.W F C.6  +Z.D.m.e.G.5+K+L+M+N+K.W O++.6 .@+@>+@@#@>+$@%@.                                 ",
"                                . 1.%.!.)+V.!+X.~+Y. +{+ +]+^+/+(+a._+W L o 6 !@~@{@]@^@{@/@(@.                                 ",
"                                . 1.%.=.T.U.V.W.X.Y.Z.`. +.+++@+#+$+%+W &+o 6 !@~@{@]@^@{@/@(@.                                 ",
"                                . $.%.&.*.W I C.6 D.E.F.G.H.I.J.K.&.L.W E +.6 *+=+-+;+>+-+,+'+.                                 ",
"                                . $.%.2.*.W j.k.l.m.n.o.p.q.r.s.t.c.u.W G P 6 :+-@;@>@,@;@'@)@.                                 ",
"                                . $.F+*.*.h._@:@l+<@,.[@}@|@1@o+].L.2@3@4@P 6 ..+.@.#.z h | , .                                 ",
"                                . $.%.&.*.=.-.;.>.,.'.).!.~.{.].^.&./.W E P 6 6 +.z e+f+z | g+.                                 ",
"                                . 5@6@7@8@9@C+9@9@9@9@9@9@0@9@a@b@c@c@d@e@v w x y z A B j 1 ' .                                 ",
"                                    f@g@h@h+i@h+h+h+h+h+h+j@k@l@m@J.J.n@o@d e f g h i j k 2                                     ",
"                                    . ) ! ~ { ~ ~ ~ ~ ~ ~ ] ~ ^ / ( ( _ ^ : < [ } | [ 1 2 .                                     ",
"                                        p@q@q@q@q@q@q@q@q@# q@r@s@t@t@% $ = - ; > , , '                                         ",
"                                        . . . . . . . . . . . . . . . . . . . . . . . .                                         ",
"                                                                                                                                ",
"                                                                                                                                ",
"                                                                                                                                ",
"                                                                                                                                ",
"                                                                                                                                ",
"                                                                                                                                ",
"                                                                                                                                ",
"                                                                                                                                ",
"                                                                                                                                ",
"                                                                                                                                ",
"                                                                                                                                ",
"                                                                                                                                ",
"                                                                                                                                ",
"                                                                                                                                ",
"                                                                                                                                "};
