/* XPM */
static char * coins5_xpm[] = {
"64 64 176 2",
"  	c None",
". 	c #000000",
"+ 	c #813B0C",
"@ 	c #873D0D",
"# 	c #873C05",
"$ 	c #885C4E",
"% 	c #8B7F7C",
"& 	c #868888",
"* 	c #C25B18",
"= 	c #D7661C",
"- 	c #D8661C",
"; 	c #D7640E",
"> 	c #DA947D",
", 	c #DCC8C3",
"' 	c #C8C8C8",
") 	c #F77622",
"! 	c #F87722",
"~ 	c #F77417",
"{ 	c #FA9F7F",
"] 	c #FBCFC3",
"^ 	c #DCC7C2",
"/ 	c #8A7E7B",
"( 	c #F97722",
"_ 	c #F8761F",
": 	c #FA8854",
"< 	c #D7651C",
"[ 	c #F77522",
"} 	c #F87622",
"| 	c #F7751E",
"1 	c #F98754",
"2 	c #F99E7F",
"3 	c #D9937D",
"4 	c #884811",
"5 	c #D97621",
"6 	c #FA8928",
"7 	c #FB8928",
"8 	c #FA871E",
"9 	c #FCAC81",
"0 	c #FED9C5",
"a 	c #DFCFC3",
"b 	c #8C837C",
"c 	c #8A5615",
"d 	c #DC8C28",
"e 	c #FCA230",
"f 	c #FDA330",
"g 	c #FCA12E",
"h 	c #FEAE5A",
"i 	c #FEC083",
"j 	c #DEAF80",
"k 	c #8B6D50",
"l 	c #7F5118",
"m 	c #CC842C",
"n 	c #EA9934",
"o 	c #EB9934",
"p 	c #EB9932",
"q 	c #EA972D",
"r 	c #CC8324",
"s 	c #7F5012",
"t 	c #673317",
"u 	c #A7562B",
"v 	c #C06433",
"w 	c #C16434",
"x 	c #C06434",
"y 	c #C16331",
"z 	c #C0612D",
"A 	c #A75323",
"B 	c #673112",
"C 	c #662215",
"D 	c #A43C28",
"E 	c #BD462F",
"F 	c #BE472F",
"G 	c #BD452D",
"H 	c #BF6158",
"I 	c #BF8181",
"J 	c #A77C7E",
"K 	c #684D4E",
"L 	c #7C3510",
"M 	c #C65821",
"N 	c #E46727",
"O 	c #E56727",
"P 	c #E4641E",
"Q 	c #E79581",
"R 	c #E9C9C5",
"S 	c #CCC2C3",
"T 	c #807B7C",
"U 	c #F77311",
"V 	c #FAAA91",
"W 	c #FDE5E0",
"X 	c #DEDEDE",
"Y 	c #8C8E8E",
"Z 	c #873E0D",
"` 	c #F87411",
" .	c #FBAB91",
"..	c #FEE6E1",
"+.	c #DFDFDF",
"@.	c #8C8E8F",
"#.	c #884711",
"$.	c #D97521",
"%.	c #F98728",
"&.	c #FA8828",
"*.	c #F9851A",
"=.	c #FCB392",
"-.	c #FDE8E0",
";.	c #8C8D8E",
">.	c #FCA026",
",.	c #FEC293",
"'.	c #FEEBE0",
").	c #8B5E18",
"!.	c #DE982C",
"~.	c #FFAF34",
"{.	c #FFB034",
"].	c #FFAE2B",
"^.	c #FFC994",
"/.	c #FFEDE0",
"(.	c #DD972C",
"_.	c #FEAE34",
":.	c #FEAD2B",
"<.	c #EA972B",
"[.	c #F1BC94",
"}.	c #FAEAE0",
"|.	c #673217",
"1.	c #A7552B",
"2.	c #C06333",
"3.	c #C16334",
"4.	c #BF5F2A",
"5.	c #D4A294",
"6.	c #F1E4E0",
"7.	c #8D8E8E",
"8.	c #662315",
"9.	c #A53D28",
"0.	c #BF472F",
"a.	c #BD4125",
"b.	c #D39993",
"c.	c #F0E1E0",
"d.	c #E4631A",
"e.	c #EDA492",
"f.	c #F8E4E0",
"g.	c #7D3510",
"h.	c #C75A21",
"i.	c #E56827",
"j.	c #E66927",
"k.	c #E4651A",
"l.	c #EEA592",
"m.	c #F9E5E1",
"n.	c #8D8E8F",
"o.	c #560F17",
"p.	c #8B1E2B",
"q.	c #A12433",
"r.	c #A22433",
"s.	c #A01A2D",
"t.	c #B97F82",
"u.	c #DAC3C4",
"v.	c #CCC2C2",
"w.	c #817B7B",
"x.	c #A02131",
"y.	c #AB535A",
"z.	c #B97E81",
"A.	c #E5661E",
"B.	c #E79580",
"C.	c #E9C8C4",
"D.	c #807B7B",
"E.	c #FAAB92",
"F.	c #FDE6E1",
"G.	c #DEDFDF",
"H.	c #F87517",
"I.	c #FB9F7F",
"J.	c #FDD0C4",
"K.	c #DDC8C3",
"L.	c #8B7E7B",
"M.	c #F98753",
"N.	c #F99D7D",
"O.	c #D9927B",
"P.	c #885B4D",
"Q.	c #873D0E",
"R.	c #873900",
"S.	c #813500",
"                                                                                                                                ",
"                                                                                                                                ",
"                                                                                                                                ",
"                                                                                                                                ",
"                                                                                                                                ",
"                                                                                                                                ",
"                                                                                                                                ",
"                                                                                                                                ",
"                                                                                                                                ",
"                                                                                                                                ",
"                                                                                                                                ",
"                                                                                                                                ",
"                                                                                                                                ",
"                                                    . . . . . . . . . . . .                                                     ",
"                                                    + @ @ @ @ @ @ # @ $ % &                                                     ",
"                                                . + * = - = = = = ; = > , ' & .                                                 ",
"                                                . @ = ) ! ) ) ) ) ~ ) { ] ^ / .                                                 ",
"                                                . @ - ! ( ! ! ! ! _ ! : { > $ .                                                 ",
"                                                . @ < [ } [ [ [ [ | [ 1 2 3 $ .                                                 ",
"                                                . @ = ) ! ) ) ) ) ~ ) { ] ^ / .                                                 ",
"                                                . 4 5 6 7 6 6 6 6 8 6 9 0 a b .                                                 ",
"                                                . c d e f e e e e g e h i j k .                                                 ",
"                                                . l m n o n n n n n n p q r s .                                                 ",
"                                                . t u v w v v v v x v y z A B .                                                 ",
"                                                . C D E F E E E E G E H I J K .                                                 ",
"                                                . L M N O N N N N P N Q R S T .                                                 ",
"                                                . @ < [ } [ [ [ [ U [ V W X Y .                                                 ",
"                                                . Z - ! ( ! ! ! ! ` !  ...+.@..                                                 ",
"                                                . #.$.%.&.%.%.%.%.*.%.=.-.X ;..                                                 ",
"                                                . c d e f e e e e >.e ,.'.X ;..                                                 ",
"                                                . ).!.~.{.~.~.~.~.].~.^./.X ;..                                                 ",
"                                                . ).(._.~._._._._.:._.^./.X ;..                                                 ",
"                                                . l m n o n n n n <.n [.}.X ;..                                                 ",
"                                                . |.1.2.3.2.2.2.2.4.2.5.6.X 7..                                                 ",
"                                                . 8.9.F 0.F F F F a.F b.c.X 7..                                                 ",
"                                                . L M N O N N N N d.N e.f.X Y .                                                 ",
"                                                . g.h.i.j.i.i.i.i.k.i.l.m.+.n..                                                 ",
"                                                . 8.9.F 0.F F F F a.F b.c.X 7..                                                 ",
"                                                . o.p.q.r.q.q.q.q.s.q.t.u.v.w..                                                 ",
"                                                . o.p.q.r.q.q.q.q.x.q.y.z.J K .                                                 ",
"                                                . C D E F E E E E G E H I J K .                                                 ",
"                                                . g.h.i.j.i.i.i.i.A.i.B.C.v.D..                                                 ",
"                                                . @ = ) ! ) ) ) ) U ) E.F.G.@..                                                 ",
"                                                . Z - ! ( ! ! ! ! ` !  ...+.@..                                                 ",
"                                                . @ - ! ( ! ! ! ! H.! I.J.K.L..                                                 ",
"                                                . @ = ) ! ) ) ) ) | ) M.N.O.P..                                                 ",
"                                                . + * = - = = = = = = - = * + .                                                 ",
"                                                    + @ @ @ @ @ @ Q.@ # R.S.                                                    ",
"                                                    . . . . . . . . . . . .                                                     ",
"                                                                                                                                ",
"                                                                                                                                ",
"                                                                                                                                ",
"                                                                                                                                ",
"                                                                                                                                ",
"                                                                                                                                ",
"                                                                                                                                ",
"                                                                                                                                ",
"                                                                                                                                ",
"                                                                                                                                ",
"                                                                                                                                ",
"                                                                                                                                ",
"                                                                                                                                ",
"                                                                                                                                ",
"                                                                                                                                "};
