/* XPM */
static char * coins3_xpm[] = {
"64 64 328 2",
"  	c #87CEEB",
". 	c #000000",
"+ 	c #813A0C",
"@ 	c #873D0D",
"# 	c #873B0C",
"$ 	c #873A0B",
"% 	c #88531B",
"& 	c #8A722B",
"* 	c #8B8032",
"= 	c #8B8033",
"- 	c #8B7F30",
"; 	c #8B8357",
"> 	c #8C8A7E",
", 	c #8C8E8F",
"' 	c #857A30",
") 	c #813B0C",
"! 	c #C25B18",
"~ 	c #D7661C",
"{ 	c #D8661C",
"] 	c #D7641B",
"^ 	c #D98932",
"/ 	c #DCB64A",
"( 	c #DDC953",
"_ 	c #DDCA54",
": 	c #DDC950",
"< 	c #DECF8A",
"[ 	c #DED9C6",
"} 	c #DEDEDF",
"| 	c #DFDAC6",
"1 	c #C7B54A",
"2 	c #857827",
"3 	c #AE5115",
"4 	c #E06B1E",
"5 	c #F77522",
"6 	c #F87622",
"7 	c #F78129",
"8 	c #F89535",
"9 	c #FAAD43",
"0 	c #FBC550",
"a 	c #FCD156",
"b 	c #FCD053",
"c 	c #FCD68C",
"d 	c #FDE0C7",
"e 	c #FDE5E1",
"f 	c #FEE1C8",
"g 	c #E5B84A",
"h 	c #B07B27",
"i 	c #F17321",
"j 	c #F87521",
"k 	c #F87722",
"l 	c #FA9636",
"m 	c #FCBF4C",
"n 	c #FCC650",
"o 	c #FBAF44",
"p 	c #FAA03B",
"q 	c #FA9F3B",
"r 	c #FAA03A",
"s 	c #FAA35C",
"t 	c #FAA881",
"u 	c #FAAB91",
"v 	c #FBA881",
"w 	c #F29335",
"x 	c #E17824",
"y 	c #80390B",
"z 	c #D7651C",
"A 	c #F77320",
"B 	c #F99F3B",
"C 	c #FDD356",
"D 	c #FAA93E",
"E 	c #F98728",
"F 	c #F98626",
"G 	c #F98828",
"H 	c #F98827",
"I 	c #F98727",
"J 	c #F98825",
"K 	c #F9871F",
"L 	c #F9861E",
"M 	c #F98724",
"N 	c #F98426",
"O 	c #F77B24",
"P 	c #F77421",
"Q 	c #F77622",
"R 	c #FCD256",
"S 	c #FED858",
"T 	c #FDB841",
"U 	c #FCA02F",
"V 	c #FC9F2E",
"W 	c #FCA02D",
"X 	c #FCA029",
"Y 	c #FCA026",
"Z 	c #FCA129",
"` 	c #FC972C",
" .	c #F98326",
"..	c #873C0D",
"+.	c #884811",
"@.	c #D97621",
"#.	c #FA8928",
"$.	c #FB8928",
"%.	c #FA8726",
"&.	c #FBA93D",
"*.	c #FDD456",
"=.	c #FEDA58",
"-.	c #FEC044",
";.	c #FEAE34",
">.	c #FEAD33",
",.	c #FEAB33",
"'.	c #FDA531",
").	c #FDAA36",
"!.	c #FEB83F",
"~.	c #FEBB40",
"{.	c #FEB238",
"].	c #FDAA30",
"^.	c #FDA430",
"/.	c #FDAC58",
"(.	c #FEBE81",
"_.	c #FEC181",
":.	c #FEB55A",
"<.	c #FEAE32",
"[.	c #FDA230",
"}.	c #8A5615",
"|.	c #DC8C28",
"1.	c #FCA230",
"2.	c #FDA330",
"3.	c #FCA12F",
"4.	c #FDB842",
"5.	c #FED857",
"6.	c #FEAF34",
"7.	c #FEAE33",
"8.	c #FA932B",
"9.	c #FAA339",
"0.	c #FDC94F",
"a.	c #FED051",
"b.	c #FEBC40",
"c.	c #FDA42A",
"d.	c #FAAB81",
"e.	c #FDD9C5",
"f.	c #FFDFC6",
"g.	c #FEC383",
"h.	c #FEAE2E",
"i.	c #7F5118",
"j.	c #CC842C",
"k.	c #EA9934",
"l.	c #EB9934",
"m.	c #EA9733",
"n.	c #EFB244",
"o.	c #F9D658",
"p.	c #F98627",
"q.	c #F99E3A",
"r.	c #FCD056",
"s.	c #FEDE5A",
"t.	c #FECB4D",
"u.	c #FDB63A",
"v.	c #FAA73C",
"w.	c #FABF96",
"x.	c #FDEBE2",
"y.	c #FFEDE1",
"z.	c #FEC893",
"A.	c #FEAD28",
"B.	c #673317",
"C.	c #A7562B",
"D.	c #C06433",
"E.	c #C16434",
"F.	c #BF6133",
"G.	c #D29643",
"H.	c #F0CF58",
"I.	c #FFC044",
"J.	c #F99E3B",
"K.	c #FEE45F",
"L.	c #FEDF5B",
"M.	c #FDD753",
"N.	c #FDDF9E",
"O.	c #FEF4E3",
"P.	c #FFEEE1",
"Q.	c #FEC894",
"R.	c #FEAD2B",
"S.	c #662215",
"T.	c #A43C28",
"U.	c #BD462F",
"V.	c #BE472F",
"W.	c #BC422E",
"X.	c #D18B41",
"Y.	c #EFCC57",
"Z.	c #FBA032",
"`.	c #FA9F38",
" +	c #FAB547",
".+	c #FDD759",
"++	c #FEE761",
"@+	c #FEE862",
"#+	c #FEE75F",
"$+	c #FEE861",
"%+	c #FEED94",
"&+	c #FFF5CC",
"*+	c #FFEED2",
"=+	c #FED6AD",
"-+	c #FEC281",
";+	c #FEB457",
">+	c #F98725",
",+	c #7C3510",
"'+	c #C65821",
")+	c #E46727",
"!+	c #E56727",
"~+	c #E46426",
"{+	c #EB983D",
"]+	c #F8CF56",
"^+	c #FA922A",
"/+	c #FBC14D",
"(+	c #FEE25F",
"_+	c #FEE860",
":+	c #FEE974",
"<+	c #FEEC92",
"[+	c #FEEEB5",
"}+	c #FFEDD2",
"|+	c #FEC182",
"1+	c #FEDD5A",
"2+	c #FDD757",
"3+	c #FDD755",
"4+	c #FDE25E",
"5+	c #FEEFA2",
"6+	c #FFFAE4",
"7+	c #F9861A",
"8+	c #873E0D",
"9+	c #F97722",
"0+	c #F87520",
"a+	c #FECA4C",
"b+	c #FDB641",
"c+	c #FAB440",
"d+	c #FDD756",
"e+	c #FEEEA1",
"f+	c #884711",
"g+	c #D97521",
"h+	c #FA8828",
"i+	c #FAA83D",
"j+	c #FEBF43",
"k+	c #FA9129",
"l+	c #FAA133",
"m+	c #FDC84E",
"n+	c #FEDF8E",
"o+	c #FFE8C7",
"p+	c #FFDFC5",
"q+	c #F9861F",
"r+	c #FDAA32",
"s+	c #FDA32F",
"t+	c #FDA933",
"u+	c #FDB83F",
"v+	c #FEC161",
"w+	c #FEC683",
"x+	c #8B5E18",
"y+	c #DE982C",
"z+	c #FFAF34",
"A+	c #FFB034",
"B+	c #FFAE33",
"C+	c #FEDE5B",
"D+	c #FEC042",
"E+	c #FEC583",
"F+	c #DD972C",
"G+	c #FEDA55",
"H+	c #FED958",
"I+	c #FEE15E",
"J+	c #FEEEA2",
"K+	c #FFF9E3",
"L+	c #FFEEE0",
"M+	c #F9861B",
"N+	c #673217",
"O+	c #A7552B",
"P+	c #C06333",
"Q+	c #C16334",
"R+	c #BF6033",
"S+	c #FEBF44",
"T+	c #FDB741",
"U+	c #FAB542",
"V+	c #662315",
"W+	c #A53D28",
"X+	c #BF472F",
"Y+	c #BD432E",
"Z+	c #EFCD57",
"`+	c #FCA02E",
" @	c #F99D33",
".@	c #FFFAE3",
"+@	c #FED050",
"@@	c #FEBA3F",
"#@	c #F98526",
"$@	c #7D3510",
"%@	c #C75A21",
"&@	c #E56827",
"*@	c #E66927",
"=@	c #E56626",
"-@	c #EC983D",
";@	c #560F17",
">@	c #8B1E2B",
",@	c #A12433",
"'@	c #A22433",
")@	c #9F1932",
"!@	c #BF8343",
"~@	c #EACB58",
"{@	c #FEDB58",
"]@	c #FAA239",
"^@	c #FECF50",
"/@	c #FDA329",
"(@	c #FA912A",
"_@	c #FAAA80",
":@	c #FDD8C4",
"<@	c #FFDEC4",
"[@	c #FEAD2E",
"}@	c #FEAC2A",
"|@	c #FEA230",
"1@	c #F99636",
"2@	c #FECD52",
"3@	c #FFC64A",
"4@	c #FFC042",
"5@	c #FFC361",
"6@	c #FFC785",
"7@	c #FFC995",
"8@	c #F6AE3C",
"9@	c #E28528",
"0@	c #80370B",
"a@	c #FAB044",
"b@	c #FDCD52",
"c@	c #FEDF8D",
"d@	c #FFEDE0",
"e@	c #FFE9C8",
"f@	c #E6C04C",
"g@	c #B18028",
"h@	c #88521A",
"i@	c #8B7F32",
"j@	c #8B8356",
"k@	c #8B8A7E",
"l@	c #8C8D8F",
"m@	c #847930",
"                                                                                                                                ",
"                                                                                                                                ",
"                                                                                                                                ",
"                                                                                                                                ",
"                                                                                                                                ",
"                                                                                                                                ",
"                                                                                                                                ",
"                                                                                                                                ",
"                                                                                                                                ",
"                                                                                                                                ",
"                                                                                                                                ",
"                                                                                                                                ",
"                                                                                                                                ",
"                                        . . . . . . . . . . . . . . . . . . . . . . . .                                         ",
"                                        + @ @ # $ % & * = * * * * * * - * ; > , , > ; '                                         ",
"                                    . ) ! ~ { ] ~ ^ / ( _ ( ( ( ( ( ( : ( < [ } } | < 1 2 .                                     ",
"                                    ) 3 4 5 6 7 8 9 0 a a a a a a a a b a c d e e f c g h )                                     ",
"                                . + ! 4 i j k l m n o p q p p p p p p r p s t u u v s w x ! y .                                 ",
"                                . @ z 5 6 A 5 B a C D E F G G H I I I G G J K L M G G N O ~ @ .                                 ",
"                                . @ { 6 k P Q B R S T U V U U U U U U U U W X Y Y Z W `  .{ ...                                 ",
"                                . +.@.#.$.%.#.&.*.=.-.;.>.,.'.).!.~.{.].^./.(._.:.;.<.[.E ~ ...                                 ",
"                                . }.|.1.2.3.1.4.5.=.-.6.7.'.8.9.0.a.b.c.8.d.e.f.g.6.h.2.G ~ ...                                 ",
"                                . i.j.k.l.m.k.n.o.=.-.6.7.U p.q.r.s.t.u.v.w.x.y.z.h.A.[.G ~ ...                                 ",
"                                . B.C.D.E.F.D.G.H.=.I.;.>.U I J.a K.L.M.C N.O.P.Q.;.R.[.E ~ ...                                 ",
"                                . S.T.U.V.W.U.X.Y.=.I.,.^.Z.`. +.+++@+#+$+%+&+*+=+-+;+[.>+~ ...                                 ",
"                                . ,+'+)+!+~+)+{+]+=.-.^.^+`./+.+(+++$+_+$+:+<+[+}+f.|+[.L ~ ...                                 ",
"                                . @ z 5 6 A 5 J.a =.-.U p.q.a ++$+K.1+2+C 3+4+5+6+P.Q.[.7+~ ...                                 ",
"                                . 8+{ k 9+0+k B a =.-.U F J.a @+@+s.a+b+v.c+d+e+6+P.Q.[.7+~ ...                                 ",
"                                . f+g+E h+F E i+C =.-.U p.q.a $+$+=.j+2.k+l+m+n+o+p+|+[.q+~ ...                                 ",
"                                . }.|.1.2.3.1.4.5.=.-.U p.q.a $+$+=.j+r+s+t+u+v+w+-+:.[.>+~ ...                                 ",
"                                . x+y+z+A+B+z+I.=.=.-.U F J.a @+@+C+t.-.j+D+j+v+E+-+:.[.>+~ ...                                 ",
"                                . x+F+;.z+7.;.-.=.=.-.U p.q.a ++$+K.1+=.=.G+=.n+o+p+|+[.q+~ ...                                 ",
"                                . i.j.k.l.m.k.n.o.=.-.^.^+9.m+H+=.=.=.5.C 3+I+J+K+L+Q.[.M+~ ...                                 ",
"                                . N+O+P+Q+R+P+G.H.=.I.,.^.).!.j+j+j+S+T+i+U+.+5+6+P.Q.[.7+~ ...                                 ",
"                                . V+W+V.X+Y+V.X.Z+=.I.,.^.).!.j+j+~.{.`+F  @r.J+.@L+Q.[.M+~ ...                                 ",
"                                . ,+'+)+!+~+)+{+]+=.-.^.^+9.m+=.=.+@@@`+#@ @r.J+.@L+Q.[.M+~ ...                                 ",
"                                . $@%@&@*@=@&@-@]+=.-.U F J.a @+@+s.a+b+v.c+d+e+6+P.Q.[.7+~ ...                                 ",
"                                . V+W+V.X+Y+V.X.Z+=.I.U F J.a $+@+K.s.5.C 3+I+J+K+L+Q.[.M+~ ...                                 ",
"                                . ;@>@,@'@)@,@!@~@=.I.^.^+`./+.+(+++$+_+$+:+<+[+}+f.|+[.L ~ ...                                 ",
"                                . ;@>@,@'@)@,@!@~@=.I.,.^.Z.`. +.+++@+#+$+%+&+*+=+-+;+[.>+~ ...                                 ",
"                                . S.T.U.V.W.U.X.Y.=.I.;.>.U I J.a K.L.M.C N.O.P.Q.;.R.[.E ~ ...                                 ",
"                                . $@%@&@*@=@&@-@]+=.-.6.7.U p.q.r.s.t.u.v.w.x.y.z.h.A.[.G ~ ...                                 ",
"                                . @ { 6 k P Q B R {@-.7.>.2.^+]@m+^@~./@(@_@:@<@_.[@}@|@h+{ ...                                 ",
"                                . 8+{ k 9+0+k B a =.-.;.>.,.'.).!.~.{.].^./.(._.:.;.<.[.E ~ ...                                 ",
"                                . + ! 4 i j k 1@m 2@3@I.I.I.I.I.I.I.I.4@I.5@6@7@7@6@5@8@9@! 0@.                                 ",
"                                    ) 3 4 5 6 7 8 a@b@=.{@=.=.=.=.=.=.G+=.c@o+d@y.e@c@f@g@)                                     ",
"                                    . ) ! ~ { ] ~ ^ / ( _ ( ( ( ( ( ( : ( < [ } } | < 1 2 .                                     ",
"                                        + @ @ # $ h@& i@i@i@i@i@i@i@i@- i@j@k@l@l@> j@m@                                        ",
"                                        . . . . . . . . . . . . . . . . . . . . . . . .                                         ",
"                                                                                                                                ",
"                                                                                                                                ",
"                                                                                                                                ",
"                                                                                                                                ",
"                                                                                                                                ",
"                                                                                                                                ",
"                                                                                                                                ",
"                                                                                                                                ",
"                                                                                                                                ",
"                                                                                                                                ",
"                                                                                                                                ",
"                                                                                                                                ",
"                                                                                                                                ",
"                                                                                                                                ",
"                                                                                                                                "};
