/* XPM */
static char * coins3_xpm[] = {
"64 64 476 2",
"  	c #7D5E6B",
". 	c #84636E",
"+ 	c #896972",
"@ 	c #8B6C73",
"# 	c #8B6C74",
"$ 	c #8C7076",
"% 	c #8F7679",
"& 	c #91797B",
"* 	c #735A68",
"= 	c #6E5967",
"- 	c #946672",
"; 	c #A4727A",
"> 	c #AD8082",
", 	c #B18786",
"' 	c #B18787",
") 	c #B48E8B",
"! 	c #BA9A93",
"~ 	c #BDA098",
"{ 	c #B18887",
"] 	c #B28887",
"^ 	c #7C5D6A",
"/ 	c #6C5866",
"( 	c #A5737B",
"_ 	c #B78285",
": 	c #C08E8C",
"< 	c #C39490",
"[ 	c #C69A94",
"} 	c #CBA59C",
"| 	c #CDAAA0",
"1 	c #CEAAA0",
"2 	c #C69A95",
"3 	c #C08F8D",
"4 	c #B88285",
"5 	c #A5747B",
"6 	c #85636E",
"7 	c #6D5967",
"8 	c #AE8183",
"9 	c #C3938F",
"0 	c #C49490",
"a 	c #C49590",
"b 	c #C59792",
"c 	c #C79B95",
"d 	c #C89D96",
"e 	c #6D5867",
"f 	c #C1928F",
"g 	c #BF8E8C",
"h 	c #C1918E",
"i 	c #C1928E",
"j 	c #BD8B8B",
"k 	c #BD8B8A",
"l 	c #C2928F",
"m 	c #BF918E",
"n 	c #B68B89",
"o 	c #A37D7F",
"p 	c #846870",
"q 	c #6D5866",
"r 	c #B37B81",
"s 	c #B37A81",
"t 	c #9C787C",
"u 	c #8B6D74",
"v 	c #8A6C73",
"w 	c #846871",
"x 	c #765F6A",
"y 	c #B98587",
"z 	c #C29491",
"A 	c #C29591",
"B 	c #B47E83",
"C 	c #B68286",
"D 	c #B78588",
"E 	c #B78B89",
"F 	c #8A6A72",
"G 	c #866670",
"H 	c #80626D",
"I 	c #755C69",
"J 	c #C9A39B",
"K 	c #C0928F",
"L 	c #C59D97",
"M 	c #C8A39B",
"N 	c #AF8384",
"O 	c #AA7B7F",
"P 	c #9B6F77",
"Q 	c #80616D",
"R 	c #CBA49C",
"S 	c #BD8989",
"T 	c #AB7B7F",
"U 	c #876670",
"V 	c #C49792",
"W 	c #C69B95",
"X 	c #C79D96",
"Y 	c #B08484",
"Z 	c #000000",
"` 	c #946572",
" .	c #813A0C",
"..	c #873D0D",
"+.	c #873B0C",
"@.	c #873A0B",
"#.	c #88531B",
"$.	c #8A722B",
"%.	c #8B8032",
"&.	c #8B8033",
"*.	c #8B7F30",
"=.	c #8B8357",
"-.	c #8C8A7E",
";.	c #8C8E8F",
">.	c #857A30",
",.	c #813B0C",
"'.	c #C25B18",
").	c #D7661C",
"!.	c #D8661C",
"~.	c #D7641B",
"{.	c #D98932",
"].	c #DCB64A",
"^.	c #DDC953",
"/.	c #DDCA54",
"(.	c #DDC950",
"_.	c #DECF8A",
":.	c #DED9C6",
"<.	c #DEDEDF",
"[.	c #DFDAC6",
"}.	c #C7B54A",
"|.	c #857827",
"1.	c #AE5115",
"2.	c #E06B1E",
"3.	c #F77522",
"4.	c #F87622",
"5.	c #F78129",
"6.	c #F89535",
"7.	c #FAAD43",
"8.	c #FBC550",
"9.	c #FCD156",
"0.	c #FCD053",
"a.	c #FCD68C",
"b.	c #FDE0C7",
"c.	c #FDE5E1",
"d.	c #FEE1C8",
"e.	c #E5B84A",
"f.	c #B07B27",
"g.	c #BA9A94",
"h.	c #F17321",
"i.	c #F87521",
"j.	c #F87722",
"k.	c #FA9636",
"l.	c #FCBF4C",
"m.	c #FCC650",
"n.	c #FBAF44",
"o.	c #FAA03B",
"p.	c #FA9F3B",
"q.	c #FAA03A",
"r.	c #FAA35C",
"s.	c #FAA881",
"t.	c #FAAB91",
"u.	c #FBA881",
"v.	c #F29335",
"w.	c #E17824",
"x.	c #80390B",
"y.	c #D7651C",
"z.	c #F77320",
"A.	c #F99F3B",
"B.	c #FDD356",
"C.	c #FAA93E",
"D.	c #F98728",
"E.	c #F98626",
"F.	c #F98828",
"G.	c #F98827",
"H.	c #F98727",
"I.	c #F98825",
"J.	c #F9871F",
"K.	c #F9861E",
"L.	c #F98724",
"M.	c #F98426",
"N.	c #F77B24",
"O.	c #F77421",
"P.	c #F77622",
"Q.	c #FCD256",
"R.	c #FED858",
"S.	c #FDB841",
"T.	c #FCA02F",
"U.	c #FC9F2E",
"V.	c #FCA02D",
"W.	c #FCA029",
"X.	c #FCA026",
"Y.	c #FCA129",
"Z.	c #FC972C",
"`.	c #F98326",
" +	c #873C0D",
".+	c #884811",
"++	c #D97621",
"@+	c #FA8928",
"#+	c #FB8928",
"$+	c #FA8726",
"%+	c #FBA93D",
"&+	c #FDD456",
"*+	c #FEDA58",
"=+	c #FEC044",
"-+	c #FEAE34",
";+	c #FEAD33",
">+	c #FEAB33",
",+	c #FDA531",
"'+	c #FDAA36",
")+	c #FEB83F",
"!+	c #FEBB40",
"~+	c #FEB238",
"{+	c #FDAA30",
"]+	c #FDA430",
"^+	c #FDAC58",
"/+	c #FEBE81",
"(+	c #FEC181",
"_+	c #FEB55A",
":+	c #FEAE32",
"<+	c #FDA230",
"[+	c #8A5615",
"}+	c #DC8C28",
"|+	c #FCA230",
"1+	c #FDA330",
"2+	c #FCA12F",
"3+	c #FDB842",
"4+	c #FED857",
"5+	c #FEAF34",
"6+	c #FEAE33",
"7+	c #FA932B",
"8+	c #FAA339",
"9+	c #FDC94F",
"0+	c #FED051",
"a+	c #FEBC40",
"b+	c #FDA42A",
"c+	c #FAAB81",
"d+	c #FDD9C5",
"e+	c #FFDFC6",
"f+	c #FEC383",
"g+	c #FEAE2E",
"h+	c #B47D83",
"i+	c #7F5118",
"j+	c #CC842C",
"k+	c #EA9934",
"l+	c #EB9934",
"m+	c #EA9733",
"n+	c #EFB244",
"o+	c #F9D658",
"p+	c #F98627",
"q+	c #F99E3A",
"r+	c #FCD056",
"s+	c #FEDE5A",
"t+	c #FECB4D",
"u+	c #FDB63A",
"v+	c #FAA73C",
"w+	c #FABF96",
"x+	c #FDEBE2",
"y+	c #FFEDE1",
"z+	c #FEC893",
"A+	c #FEAD28",
"B+	c #673317",
"C+	c #A7562B",
"D+	c #C06433",
"E+	c #C16434",
"F+	c #BF6133",
"G+	c #D29643",
"H+	c #F0CF58",
"I+	c #FFC044",
"J+	c #F99E3B",
"K+	c #FEE45F",
"L+	c #FEDF5B",
"M+	c #FDD753",
"N+	c #FDDF9E",
"O+	c #FEF4E3",
"P+	c #FFEEE1",
"Q+	c #FEC894",
"R+	c #FEAD2B",
"S+	c #662215",
"T+	c #A43C28",
"U+	c #BD462F",
"V+	c #BE472F",
"W+	c #BC422E",
"X+	c #D18B41",
"Y+	c #EFCC57",
"Z+	c #FBA032",
"`+	c #FA9F38",
" @	c #FAB547",
".@	c #FDD759",
"+@	c #FEE761",
"@@	c #FEE862",
"#@	c #FEE75F",
"$@	c #FEE861",
"%@	c #FEED94",
"&@	c #FFF5CC",
"*@	c #FFEED2",
"=@	c #FED6AD",
"-@	c #FEC281",
";@	c #FEB457",
">@	c #F98725",
",@	c #C49692",
"'@	c #7C3510",
")@	c #C65821",
"!@	c #E46727",
"~@	c #E56727",
"{@	c #E46426",
"]@	c #EB983D",
"^@	c #F8CF56",
"/@	c #FA922A",
"(@	c #FBC14D",
"_@	c #FEE25F",
":@	c #FEE860",
"<@	c #FEE974",
"[@	c #FEEC92",
"}@	c #FEEEB5",
"|@	c #FFEDD2",
"1@	c #FEC182",
"2@	c #FEDD5A",
"3@	c #FDD757",
"4@	c #FDD755",
"5@	c #FDE25E",
"6@	c #FEEFA2",
"7@	c #FFFAE4",
"8@	c #F9861A",
"9@	c #873E0D",
"0@	c #F97722",
"a@	c #F87520",
"b@	c #FECA4C",
"c@	c #FDB641",
"d@	c #FAB440",
"e@	c #FDD756",
"f@	c #FEEEA1",
"g@	c #884711",
"h@	c #D97521",
"i@	c #FA8828",
"j@	c #FAA83D",
"k@	c #FEBF43",
"l@	c #FA9129",
"m@	c #FAA133",
"n@	c #FDC84E",
"o@	c #FEDF8E",
"p@	c #FFE8C7",
"q@	c #FFDFC5",
"r@	c #F9861F",
"s@	c #FDAA32",
"t@	c #FDA32F",
"u@	c #FDA933",
"v@	c #FDB83F",
"w@	c #FEC161",
"x@	c #FEC683",
"y@	c #8B5E18",
"z@	c #DE982C",
"A@	c #FFAF34",
"B@	c #FFB034",
"C@	c #FFAE33",
"D@	c #FEDE5B",
"E@	c #FEC042",
"F@	c #FEC583",
"G@	c #DD972C",
"H@	c #FEDA55",
"I@	c #8F7579",
"J@	c #91787B",
"K@	c #927C7E",
"L@	c #FED958",
"M@	c #FEE15E",
"N@	c #FEEEA2",
"O@	c #FFF9E3",
"P@	c #FFEEE0",
"Q@	c #F9861B",
"R@	c #BA9993",
"S@	c #BD9F97",
"T@	c #BFA59D",
"U@	c #673217",
"V@	c #A7552B",
"W@	c #C06333",
"X@	c #C16334",
"Y@	c #BF6033",
"Z@	c #FEBF44",
"`@	c #FDB741",
" #	c #FAB542",
".#	c #D0AFA5",
"+#	c #662315",
"@#	c #A53D28",
"##	c #BF472F",
"$#	c #BD432E",
"%#	c #EFCD57",
"&#	c #FCA02E",
"*#	c #F99D33",
"=#	c #FFFAE3",
"-#	c #C89F99",
";#	c #FED050",
">#	c #FEBA3F",
",#	c #F98526",
"'#	c #7D3510",
")#	c #C75A21",
"!#	c #E56827",
"~#	c #E66927",
"{#	c #E56626",
"]#	c #EC983D",
"^#	c #560F17",
"/#	c #8B1E2B",
"(#	c #A12433",
"_#	c #A22433",
":#	c #9F1932",
"<#	c #BF8343",
"[#	c #EACB58",
"}#	c #BE908D",
"|#	c #B68A89",
"1#	c #9C797C",
"2#	c #FEDB58",
"3#	c #FAA239",
"4#	c #FECF50",
"5#	c #FDA329",
"6#	c #FA912A",
"7#	c #FAAA80",
"8#	c #FDD8C4",
"9#	c #FFDEC4",
"0#	c #FEAD2E",
"a#	c #FEAC2A",
"b#	c #FEA230",
"c#	c #BB9490",
"d#	c #A18483",
"e#	c #8C6F75",
"f#	c #C9A29B",
"g#	c #C9A89E",
"h#	c #C2A39A",
"i#	c #F99636",
"j#	c #FECD52",
"k#	c #FFC64A",
"l#	c #FFC042",
"m#	c #FFC361",
"n#	c #FFC785",
"o#	c #FFC995",
"p#	c #F6AE3C",
"q#	c #E28528",
"r#	c #80370B",
"s#	c #CEABA0",
"t#	c #FAB044",
"u#	c #FDCD52",
"v#	c #FEDF8D",
"w#	c #FFEDE0",
"x#	c #FFE9C8",
"y#	c #E6C04C",
"z#	c #B18028",
"A#	c #B18686",
"B#	c #88521A",
"C#	c #8B7F32",
"D#	c #8B8356",
"E#	c #8B8A7E",
"F#	c #8C8D8F",
"G#	c #847930",
"H#	c #948183",
"I#	c #968486",
"J#	c #936572",
"K#	c #C4B0A7",
"L#	c #C6B5AC",
"M#	c #C6B5AD",
"N#	c #B28787",
"O#	c #A4737B",
"P#	c #D4B9AF",
"Q#	c #D6BEB3",
"R#	c #D6BEB4",
"S#	c #AD8183",
"T#	c #CAA39C",
"U#	c #CBA59F",
"V#	c #BF8D8C",
"W#	c #A27D7F",
"X#	c #836770",
"Y#	c #C39390",
"Z#	c #C0908E",
"`#	c #BB898A",
" $	c #BC8C8C",
".$	c #C39792",
"+$	c #B88E8B",
"@$	c #A08081",
"#$	c #7F616C",
"$$	c #C49893",
"%$	c #C79F98",
"&$	c #CAA59D",
"*$	c #CCA89F",
"=$	c #C29792",
"-$	c #BE9C95",
";$	c #AA7A7F",
">$	c #9A6F77",
",$	c #BC8989",
"'$	c #C1908E",
")$	c #7D5D6B",
"  . + @ # @ @ @ @ $ % & & & & & & & & % $ @ @ $ % % $ @ @ @ @ @ @ @ @ @ @ @ @ @ @ @ @ @ @ @ @ @ @ @ @ @ @ @ @ @ @ # @ + .   * = ",
"- ; > , ' , , , , ) ! ~ ~ ~ ~ ~ ~ ~ ~ ! ) , , ) ! ! ) , , { ] ] { ' , , , , , , , , , , , , , , , , , , , , , , , ' , > ; - ^ / ",
"( _ : < < < < < < [ } | 1 | | | | 1 | } [ < < 2 } } 2 < < < < < < < < < < < < < < < < < < < < < < < < < < < < < < < < 3 4 5 6 7 ",
"8 : 9 0 a 0 0 0 0 b c d d d d d d d d c b 0 0 b c c b 0 0 0 0 0 0 0 0 0 0 0 0 0 0 0 0 0 0 0 0 0 0 0 0 0 0 0 0 0 0 a 0 9 : 8 + e ",
"] < 0 < < < < < < < < < < < < < < < < < < < < < < < < < < < < < < < < < < < < f g g h i g j k k k k k k j g l < < m n ] , o p q ",
"] < a < < < < < < < < < < < < < < < < < < < < < < < < < < < < < < < < < < < < g _ 4 g g 4 r s r r r r s r _ g < < n t u v w x q ",
"] < 0 < < < < < < < < < < < < < < < < < < < < < < < < < < < < < < < < < < < < g _ y z A y B C D D D D C B _ g < < E t F G H I q ",
"] < 0 < < < < < < < < < < < < < < < < < < < < < < < < < < < < < < < < < < < < h g A J J A K L M M M M L K g i < < m n N O P Q q ",
"] < 0 < < < < < < < < < < < < < < < < < < < < < < < < < < < < < < < < < < < < < < 2 } R 2 [ R | 1 1 | } [ < < < < < < h S T U q ",
"] < 0 < < < < < < < < < < < < < < < < < < < < < < < < < < < < < < < < < < < < < < V 2 2 V V W X X X X W V < < < < < < < h Y F q ",
"] < a < < < < < < < < < < < < < < < < < < < < < < < < < < < < < < < < < < < < < < < < < < < < < < < < < < < < < < < < a < ] # q ",
"] < 0 < < < < < < < < < < < < < < < < < < < < < < < < < < < < < < < < < < < < < < < < < < < < < < < < < < < < < < < < a < ] # q ",
"8 : 9 0 a 0 0 0 0 0 0 0 0 0 0 0 0 0 0 0 0 0 0 0 0 0 0 0 0 0 0 0 0 0 0 0 0 0 0 0 0 0 0 0 0 0 0 0 0 0 0 0 0 0 0 0 0 a 0 9 : 8 + e ",
"( _ : < < < < < < < < < < < < < < < < < Z Z Z Z Z Z Z Z Z Z Z Z Z Z Z Z Z Z Z Z Z Z Z Z < < < < < < < < < < < < < < < : _ ( . 7 ",
"` ; > , , , , , , , , , , , , , , , , ,  .....+.@.#.$.%.&.%.%.%.%.%.%.*.%.=.-.;.;.-.=.>., , , , , , , , , , , , , ' , > ; - ^ / ",
"  . + @ # @ @ @ @ @ @ @ @ @ @ @ @ @ Z ,.'.).!.~.).{.].^./.^.^.^.^.^.^.(.^._.:.<.<.[._.}.|.Z @ @ @ @ @ @ @ @ @ @ @ # @ + .   * = ",
"% & & & & % $ @ @ @ @ @ @ @ @ @ @ @ ,.1.2.3.4.5.6.7.8.9.9.9.9.9.9.9.9.0.9.a.b.c.c.d.a.e.f.,.& & & & & & & % $ @ @ @ @ @ @ @ @ @ ",
"g.~ ~ ~ ~ ! ) , , , , , , , , , Z  .'.2.h.i.j.k.l.m.n.o.p.o.o.o.o.o.o.q.o.r.s.t.t.u.r.v.w.'.x.Z ~ ~ ~ ~ ~ ! ) , , , , , ' { ] ] ",
"} | 1 1 | } [ < < < < < < < < < Z ..y.3.4.z.3.A.9.B.C.D.E.F.F.G.H.H.H.F.F.I.J.K.L.F.F.M.N.)...Z | | | 1 | } [ < < < < < < < < < ",
"c d d d d c b 0 0 0 0 0 0 0 0 0 Z ..!.4.j.O.P.A.Q.R.S.T.U.T.T.T.T.T.T.T.T.V.W.X.X.Y.V.Z.`.!. +Z d d d d d c b 0 0 0 0 0 0 0 0 0 ",
"< < < < < < < < < < < < < i g j Z .+++@+#+$+@+%+&+*+=+-+;+>+,+'+)+!+~+{+]+^+/+(+_+-+:+<+D.). +Z < < < < < < < < < < < < < < < < ",
"< < < < < < < < < < < < < g _ s Z [+}+|+1+2+|+3+4+*+=+5+6+,+7+8+9+0+a+b+7+c+d+e+f+5+g+1+F.). +Z < < < < < < < < < < < < < < < < ",
"< < < < < < < < < < < V 2 A y h+Z i+j+k+l+m+k+n+o+*+=+5+6+T.p+q+r+s+t+u+v+w+x+y+z+g+A+<+F.). +Z < < < < < < < < < < < < < < < < ",
"< < < < < < < < < < < 2 } J z K Z B+C+D+E+F+D+G+H+*+I+-+;+T.H.J+9.K+L+M+B.N+O+P+Q+-+R+<+D.). +Z < < < < < < < < < < < < < < < < ",
"< < < < < < < < < < < 2 } R 2 [ Z S+T+U+V+W+U+X+Y+*+I+>+]+Z+`+ @.@+@@@#@$@%@&@*@=@-@;@<+>@). +Z < < < < < < < < < < < < < < < < ",
"< < < < < < < < < < < ,@2 2 V V Z '@)@!@~@{@!@]@^@*+=+]+/@`+(@.@_@+@$@:@$@<@[@}@|@e+1@<+K.). +Z < < < < < < < < < < < < < < < < ",
"< < < < < < < < < < < < < < < < Z ..y.3.4.z.3.J+9.*+=+T.p+q+9.+@$@K+2@3@B.4@5@6@7@P+Q+<+8@). +Z < < < < < < < < < < < < < < < < ",
"< < < < < < < < < < < < < < < < Z 9@!.j.0@a@j.A.9.*+=+T.E.J+9.@@@@s+b@c@v+d@e@f@7@P+Q+<+8@). +Z < < < < < < < < < < < < < < < < ",
"0 0 0 0 0 0 0 0 0 0 0 0 0 0 0 0 Z g@h@D.i@E.D.j@B.*+=+T.p+q+9.$@$@*+k@1+l@m@n@o@p@q@1@<+r@). +Z 0 0 0 0 0 0 0 0 0 0 0 0 0 0 0 0 ",
"< < < < < < < < < < < < < < < < Z [+}+|+1+2+|+3+4+*+=+T.p+q+9.$@$@*+k@s@t@u@v@w@x@-@_+<+>@). +Z < < < < < < < < < < < < < < < < ",
"{ ' , , , , , , , , , , , , , , Z y@z@A@B@C@A@I+*+*+=+T.E.J+9.@@@@D@t+=+k@E@k@w@F@-@_+<+>@). +Z , , , , , , , , , , , , ' { ] ] ",
"@ @ @ @ @ @ @ @ @ @ @ @ @ @ @ @ Z y@G@-+A@6+-+=+*+*+=+T.p+q+9.+@$@K+2@*+*+H@*+o@p@q@1@<+r@). +Z @ @ @ @ @ @ @ @ @ @ @ @ @ @ @ @ ",
"  . + @ # @ @ $ % I@$ $ I@J@& K@Z i+j+k+l+m+k+n+o+*+=+]+/@8+n@L@*+*+*+4+B.4@M@N@O@P@Q+<+Q@). +Z @ @ @ @ @ @ @ @ @ # @ + .   * = ",
"- ; > , ' , , ) ! R@) ) R@S@~ T@Z U@V@W@X@Y@W@G+H+*+I+>+]+'+)+k@k@k@Z@`@j@ #.@6@7@P+Q+<+8@). +Z , , , , , , , , , ' , > ; - ^ / ",
"( _ : < < < < 2 } R 2 [ R | 1 .#Z +#@#V+##$#V+X+%#*+I+>+]+'+)+k@k@!+~+&#E.*#r+N@=#P@Q+<+Q@). +Z < < < < < < < < < < < : _ ( . 7 ",
"8 : 9 0 a 0 0 b c c b b c d d -#Z '@)@!@~@{@!@]@^@*+=+]+/@8+n@*+*+;#>#&#,#*#r+N@=#P@Q+<+Q@). +Z 0 0 0 0 0 0 0 0 0 a 0 9 : 8 + e ",
"] < 0 < < < < < < < < < < < < < Z '#)#!#~#{#!#]#^@*+=+T.E.J+9.@@@@s+b@c@v+d@e@f@7@P+Q+<+8@). +Z < < < < < < < < < < < a < ] # q ",
"] < a < < < < < < < < < < < < < Z +#@#V+##$#V+X+%#*+I+T.E.J+9.$@@@K+s+4+B.4@M@N@O@P@Q+<+Q@). +Z < < < < < < < < < < < a < ] # q ",
"] < 0 < < < < < < < < < < < < < Z ^#/#(#_#:#(#<#[#*+I+]+/@`+(@.@_@+@$@:@$@<@[@}@|@e+1@<+K.). +Z < < < < < < < 0 0 a 0 < h Y F q ",
"] < 0 < < < < < < < < < < < < < Z ^#/#(#_#:#(#<#[#*+I+>+]+Z+`+ @.@+@@@#@$@%@&@*@=@-@;@<+>@). +Z < < < < < < < < < < < h S T U q ",
"] < 0 < < < < < < < < < < < < < Z S+T+U+V+W+U+X+Y+*+I+-+;+T.H.J+9.K+L+M+B.N+O+P+Q+-+R+<+D.). +Z i h g g h }#|#, , ' , N O P Q q ",
"] < 0 < < < < < < < < < < < < < Z '#)#!#~#{#!#]#^@*+=+5+6+T.p+q+r+s+t+u+v+w+x+y+z+g+A+<+F.). +Z g g 4 4 g n 1#@ v # @ F U H I q ",
"] < a < < < < < < < < < < < < < Z ..!.4.j.O.P.A.Q.2#=+6+;+1+/@3#n@4#!+5#6#7#8#9#(+0#a#b#i@!. +Z A z y y z c#d#% e#@ @ u u w x q ",
"] < 0 < < < < < < < < < < < < < Z 9@!.j.0@a@j.A.9.*+=+-+;+>+,+'+)+!+~+{+]+^+/+(+_+-+:+<+D.). +Z J f#A z f#g#h#! ) , , ] ' o p q ",
"8 : 9 0 a 0 0 0 0 0 0 0 0 0 0 0 Z  .'.2.h.i.j.i#l.j#k#I+I+I+I+I+I+I+I+l#I+m#n#o#o#n#m#p#q#'.r#Z } } c W } s#s#} W a 0 9 : 8 + e ",
"( _ : < < < < < < < < < < < < < < < ,.1.2.3.4.5.6.t#u#*+2#*+*+*+*+*+*+H@*+v#p@w#y+x#v#y#z#,.< V 2 2 V V 2 X X c b a 0 3 4 5 6 7 ",
"- ; > , ' , , , , , , , , , , , , , Z ,.'.).!.~.).{.].^./.^.^.^.^.^.^.(.^._.:.<.<.[._.}.|.Z , , , , A#A#A#A#A#A#, , , > ; - ^ / ",
"  . + @ # @ @ @ @ @ @ @ @ @ @ @ @ @ @ @  .....+.@.B#$.C#C#C#C#C#C#C#C#*.C#D#E#F#F#-.D#G#@ @ @ @ @ @ @ @ @ @ @ @ @ # @ + .   * = ",
"@ @ @ @ @ @ @ @ @ @ @ @ @ @ @ @ @ @ @ @ Z Z Z Z Z Z Z Z Z Z Z Z Z Z Z Z Z Z Z Z Z Z Z Z I@& & J@& K@H#I#I#I#I#H#K@& J@% $ @ @ @ ",
"{ ' , , , , , , , , , , , , , , , , , , , , , , , ' , > ; J#^ ^ J#; > , ' , , ) ! R@) ) R@~ ~ S@~ T@K#L#M#M#L#K#T@~ S@! ) { N#] ",
"< < < < < < < < < < < < < < < < < < < < < < < < < a 0 3 4 ( 6 . O#_ : < < < < 2 } R 2 [ R | 1 | | .#P#Q#R#R#Q#P#.#1 | } [ < < < ",
"0 0 0 0 0 0 0 0 0 0 0 0 0 0 0 0 0 0 0 0 0 0 0 0 0 a 0 9 : S#+ + S#: 9 0 a 0 0 b c c b b c d d d d -#T#U#U#U#U#T#-#d d c b 0 0 0 ",
"< < < < < < < l g j k k j g l < < f V#V#h < < m |#, , ] ' W#p @ ' < 0 < < < < < < < < < < < < < < < < < < < < < < < < < < < < < ",
"< < < < < < < g _ r s s r _ g < < g _ _ g < < n t @ v u u X#x # ] < a < < < < < < < < < < < < < < < Y#9 9 9 9 Y#< < < < < < < < ",
"< < < < < < < g _ B C C B _ g < < Z#`# $.$W V +$@$% e#F U #$I @ ] < 0 < < < < < < < < < < < < < < < < < < < < < < < < < < < < < ",
"< < < < < < < i g K L L K g i < < $$%$&$*$} [ =$-$! ) N ;$>$Q @ ' < 0 < < < < < < < < < < < < < < < < < < < < < < < < < < < < < ",
"< < < < < < < < < 2 } } 2 < < < < [ } 1 1 R [ 2 R } 2 h ,$O U @ ' < 0 < < < < < < < < < < < < < < < < < < < < < < < < < < < < < ",
"< < < < < < < < < V W W V < < < < ,@W X X [ ,@,@W c b < '$N F @ , < 0 < < < < < < < < < < < < < < < < < < < < < < < < < < < < < ",
"< < < < < < < < < < < < < < < < < < < < < < < < < < < a < ' # # ' < a < < < < < < < < < < < < < < < < < < < < < < < < < < < < < ",
"< < < < < < < < < < < < < < < < < < < < < < < < < < < a < ' # @ , < 0 < < < < < < < < < < < < < < < < < < < < < < < < < < < < < ",
"0 0 0 0 0 0 0 0 0 0 0 0 0 0 0 0 0 0 0 0 0 0 0 0 0 a 0 9 : S#+ + S#: 9 0 a 0 0 0 0 0 0 0 0 0 0 0 0 0 0 0 0 0 0 0 0 0 0 0 0 0 0 0 ",
"< < < < < < < < < < < < < < < < < < < < < < < < < < < : _ O#. . O#_ : < < < < < < < < < < < < < < < < < < < < < < < < < < < < < ",
"{ ' , , , , , , , , , , , , A#A#A#A#, , , , , , , , , > ; J#^ ^ J#; > , ' , , , , , , , , , , , , , , , , , , , , , , , ' { ] ] ",
"@ @ @ @ @ @ @ @ @ @ @ @ @ @ @ @ @ @ @ @ @ @ @ @ @ # @ + . )$* * )$. + @ # @ @ @ @ @ @ @ @ @ @ @ @ @ @ @ @ @ @ @ @ @ @ @ @ @ @ @ "};
