/* XPM */
static char * coins2_xpm[] = {
"64 64 315 2",
"  	c None",
". 	c #000000",
"+ 	c #813A0C",
"@ 	c #873B0C",
"# 	c #873A0B",
"$ 	c #88531B",
"% 	c #8A722B",
"& 	c #8B8032",
"* 	c #8B8033",
"= 	c #8B7F30",
"- 	c #8B8357",
"; 	c #8C8A7E",
"> 	c #8C8E8E",
", 	c #8C8E8F",
"' 	c #857A2F",
") 	c #813B0C",
"! 	c #C25B18",
"~ 	c #D7641B",
"{ 	c #D8661C",
"] 	c #D98932",
"^ 	c #DCB64A",
"/ 	c #DDC953",
"( 	c #DDCA54",
"_ 	c #DDC950",
": 	c #DECF8A",
"< 	c #DED9C6",
"[ 	c #DEDEDE",
"} 	c #DEDEDF",
"| 	c #DECA54",
"1 	c #C7B54A",
"2 	c #85792F",
"3 	c #AE5014",
"4 	c #E06B1E",
"5 	c #F78129",
"6 	c #F99535",
"7 	c #FAAD43",
"8 	c #FBC550",
"9 	c #FCD156",
"0 	c #FCD053",
"a 	c #FCD68C",
"b 	c #FDE0C7",
"c 	c #FDE5E0",
"d 	c #FDE5E1",
"e 	c #FDD156",
"f 	c #FCD153",
"g 	c #E5C04E",
"h 	c #B2993D",
"i 	c #E0691D",
"j 	c #F17321",
"k 	c #FA9636",
"l 	c #FCBF4C",
"m 	c #FCC650",
"n 	c #FBAF44",
"o 	c #FAA03B",
"p 	c #FA9F3B",
"q 	c #FAA03A",
"r 	c #FAA35C",
"s 	c #FAA881",
"t 	c #FAAB91",
"u 	c #F4AD43",
"v 	c #873D0D",
"w 	c #D7651C",
"x 	c #F77320",
"y 	c #F87622",
"z 	c #F99F3B",
"A 	c #FDD356",
"B 	c #FAA93E",
"C 	c #F98728",
"D 	c #F98626",
"E 	c #F98828",
"F 	c #F98827",
"G 	c #F98727",
"H 	c #F98825",
"I 	c #F9871F",
"J 	c #F9861E",
"K 	c #F98724",
"L 	c #F88125",
"M 	c #F77B24",
"N 	c #F87421",
"O 	c #F87722",
"P 	c #FCD256",
"Q 	c #FED858",
"R 	c #FDB841",
"S 	c #FCA02F",
"T 	c #FC9F2E",
"U 	c #FCA02D",
"V 	c #FCA029",
"W 	c #FCA026",
"X 	c #FCA129",
"Y 	c #FB952B",
"Z 	c #F88225",
"` 	c #884811",
" .	c #D97621",
"..	c #FA8726",
"+.	c #FB8928",
"@.	c #FBA93D",
"#.	c #FDD456",
"$.	c #FEDA58",
"%.	c #FEC044",
"&.	c #FEAE34",
"*.	c #FEAD33",
"=.	c #FEAB33",
"-.	c #FDA531",
";.	c #FDAA36",
">.	c #FEB83F",
",.	c #FEBB40",
"'.	c #FEB238",
").	c #FDAA30",
"!.	c #FDA430",
"~.	c #FDAC58",
"{.	c #FEBE81",
"].	c #FEC181",
"^.	c #FEB55A",
"/.	c #FEAE32",
"(.	c #8A5615",
"_.	c #DC8C28",
":.	c #FCA12F",
"<.	c #FDA330",
"[.	c #FDB842",
"}.	c #FED857",
"|.	c #FEAE33",
"1.	c #FEAF34",
"2.	c #FA932B",
"3.	c #FAA339",
"4.	c #FDC94F",
"5.	c #FED051",
"6.	c #FEBC40",
"7.	c #FDA42A",
"8.	c #FAAB81",
"9.	c #FDD9C5",
"0.	c #FFDFC6",
"a.	c #FEC383",
"b.	c #FEAE2E",
"c.	c #7F5118",
"d.	c #CC842C",
"e.	c #EA9733",
"f.	c #EB9934",
"g.	c #EFB244",
"h.	c #F9D658",
"i.	c #F98627",
"j.	c #F99E3A",
"k.	c #FCD056",
"l.	c #FEDE5A",
"m.	c #FECB4D",
"n.	c #FDB63A",
"o.	c #FAA73C",
"p.	c #FABF96",
"q.	c #FDEBE2",
"r.	c #FFEDE1",
"s.	c #FEC893",
"t.	c #FEAD28",
"u.	c #673317",
"v.	c #A7562B",
"w.	c #BF6133",
"x.	c #C16434",
"y.	c #D29643",
"z.	c #F0CF58",
"A.	c #FFC044",
"B.	c #F99E3B",
"C.	c #FEE45F",
"D.	c #FEDF5B",
"E.	c #FDD753",
"F.	c #FDDF9E",
"G.	c #FEF4E3",
"H.	c #FFEEE1",
"I.	c #FEC894",
"J.	c #FEAD2B",
"K.	c #662215",
"L.	c #A43C28",
"M.	c #BC422E",
"N.	c #BE472F",
"O.	c #D18B41",
"P.	c #EFCC57",
"Q.	c #FBA032",
"R.	c #FA9F38",
"S.	c #FAB547",
"T.	c #FDD759",
"U.	c #FEE761",
"V.	c #FEE862",
"W.	c #FEE75F",
"X.	c #FEE861",
"Y.	c #FEED94",
"Z.	c #FFF5CC",
"`.	c #FFEED2",
" +	c #FED6AD",
".+	c #FEC281",
"++	c #FEB457",
"@+	c #F98725",
"#+	c #7C3510",
"$+	c #C65821",
"%+	c #E46426",
"&+	c #E56727",
"*+	c #EB983D",
"=+	c #F8CF56",
"-+	c #FBC14D",
";+	c #FEE25F",
">+	c #FEE860",
",+	c #FEE974",
"'+	c #FEEC92",
")+	c #FEEEB5",
"!+	c #FFEDD2",
"~+	c #FEC182",
"{+	c #FEDD5A",
"]+	c #FDD757",
"^+	c #FDD755",
"/+	c #FDE25E",
"(+	c #FEEFA2",
"_+	c #FFFAE4",
":+	c #F9861A",
"<+	c #873E0D",
"[+	c #F87520",
"}+	c #F97722",
"|+	c #FECA4C",
"1+	c #FDB641",
"2+	c #FAB440",
"3+	c #FDD756",
"4+	c #FEEEA1",
"5+	c #884711",
"6+	c #D97521",
"7+	c #FA8828",
"8+	c #FAA83D",
"9+	c #FEBF43",
"0+	c #FA9129",
"a+	c #FAA133",
"b+	c #FDC84E",
"c+	c #FEDF8E",
"d+	c #FFE8C7",
"e+	c #FFDFC5",
"f+	c #F9861F",
"g+	c #FDAA32",
"h+	c #FDA32F",
"i+	c #FDA933",
"j+	c #FDB83F",
"k+	c #FEC161",
"l+	c #FEC683",
"m+	c #8B5E18",
"n+	c #DE982C",
"o+	c #FFAE33",
"p+	c #FFB034",
"q+	c #FEDE5B",
"r+	c #FEC042",
"s+	c #FEC583",
"t+	c #DD972C",
"u+	c #FFAF34",
"v+	c #FEDA55",
"w+	c #FED958",
"x+	c #FEE15E",
"y+	c #FEEEA2",
"z+	c #FFF9E3",
"A+	c #FFEEE0",
"B+	c #F9861B",
"C+	c #673217",
"D+	c #A7552B",
"E+	c #BF6033",
"F+	c #C16334",
"G+	c #FEBF44",
"H+	c #FDB741",
"I+	c #FAB542",
"J+	c #662315",
"K+	c #A53D28",
"L+	c #BD432E",
"M+	c #BF472F",
"N+	c #EFCD57",
"O+	c #FCA02E",
"P+	c #F99D33",
"Q+	c #FFFAE3",
"R+	c #FED050",
"S+	c #FEBA3F",
"T+	c #F98526",
"U+	c #7D3510",
"V+	c #C75A21",
"W+	c #E56626",
"X+	c #E66927",
"Y+	c #EC983D",
"Z+	c #560F17",
"`+	c #8B1E2B",
" @	c #9F1932",
".@	c #A22433",
"+@	c #BF8343",
"@@	c #EACB58",
"#@	c #FEDB58",
"$@	c #FA922A",
"%@	c #FAA239",
"&@	c #FECF50",
"*@	c #FDA327",
"=@	c #FA9122",
"-@	c #FAAA7E",
";@	c #FDD8C3",
">@	c #FFDEC4",
",@	c #FEAD2E",
"'@	c #FEAC2A",
")@	c #F99636",
"!@	c #FECD52",
"~@	c #FFC64A",
"{@	c #FFC042",
"]@	c #FFC361",
"^@	c #FFC785",
"/@	c #FFC994",
"(@	c #FFC995",
"_@	c #FEB842",
":@	c #FBA93C",
"<@	c #E5BF4E",
"[@	c #FAB044",
"}@	c #FDCD52",
"|@	c #FED955",
"1@	c #FEDF8D",
"2@	c #FFE9C8",
"3@	c #FFEDE0",
"4@	c #FDD353",
"5@	c #88521A",
"6@	c #8B7F32",
"7@	c #8B8356",
"8@	c #8B8A7E",
"9@	c #8C8D8E",
"0@	c #8C8D8F",
"                                                                                                                                ",
"                                                                                                                                ",
"                                                                                                                                ",
"                                                                                                                                ",
"                                                                                                                                ",
"                                                                                                                                ",
"                                                                                                                                ",
"                                                                                                                                ",
"                                                                                                                                ",
"                                                                                                                                ",
"                                                                                                                                ",
"                                                                                                                                ",
"                                                                                                                                ",
"                                      . . . . . . . . . . . . . . . . . . . . . . . . . .                                       ",
"                                      + @ # $ % & * & & & & & & = & - ; > , , > ; - & = '                                       ",
"                                  . ) ! ~ { ] ^ / ( / / / / / / _ / : < [ } } [ < : | _ 1 2 .                                   ",
"                                  ) 3 4 5 6 7 8 9 9 9 9 9 9 9 9 0 9 a b c d d c b a e f g h 2                                   ",
"                              . + ! i j k l m n o p o o o o o o q o r s t t t t s r p q u g 1 ' .                               ",
"                              . v w x y z 9 A B C D C C E E F G G G E E H I J K E E L M o 9 / & .                               ",
"                              . v { N O z P Q R S T S S S S S S S S U V W W W W X U Y Z p e | & .                               ",
"                              . `  ...+.@.#.$.%.&.*.&.&.=.-.;.>.,.'.).!.~.{.].^.&./.S C o 9 / & .                               ",
"                              . (._.:.<.[.}.$.%.&.|.1.&.-.2.3.4.5.6.7.2.8.9.0.a.1.b.:.E o 9 / & .                               ",
"                              . c.d.e.f.g.h.$.%.&.*.1.&.S i.j.k.l.m.n.o.p.q.r.s.b.t.S E o 9 / & .                               ",
"                              . u.v.w.x.y.z.$.A.&.*.&.&.S G B.9 C.D.E.A F.G.H.I.&.J.S C o 9 / & .                               ",
"                              . K.L.M.N.O.P.$.A.&.*.=.-.Q.R.S.T.U.V.W.X.Y.Z.`. +.+++S @+o 9 / & .                               ",
"                              . #+$+%+&+*+=+$.%.&.*.!.2.R.-+T.;+U.X.>+X.,+'+)+!+0.~+S J o 9 / & .                               ",
"                              . v w x y B.9 $.%.&.*.S C j.9 U.X.C.{+]+A ^+/+(+_+H.I.S :+o 9 / & .                               ",
"                              . <+{ [+}+z 9 $.%.&.*.S G B.9 V.V.l.|+1+o.2+3+4+_+H.I.S :+o 9 / & .                               ",
"                              . 5+6+D 7+8+A $.%.&.*.S C j.9 X.X.$.9+<.0+a+b+c+d+e+~+S f+o 9 / & .                               ",
"                              . (._.:.<.[.}.$.%.&.*.S C j.9 X.X.$.9+g+h+i+j+k+l+.+^.S @+o 9 / & .                               ",
"                              . m+n+o+p+A.$.$.%.&.*.S G B.9 V.V.q+m.%.9+r+9+k+s+.+^.S @+o 9 / & .                               ",
"                              . m+t+|.u+%.$.$.%.&.*.S C j.9 U.X.C.{+$.$.v+$.c+d+e+~+S f+o 9 / & .                               ",
"                              . c.d.e.f.g.h.$.%.&.*.!.2.3.b+w+$.$.$.}.A ^+x+y+z+A+I.S B+o 9 / & .                               ",
"                              . C+D+E+F+y.z.$.A.&.*.=.-.;.>.9+9+9+G+H+8+I+T.(+_+H.I.S :+o 9 / & .                               ",
"                              . J+K+L+M+O.N+$.A.&.*.=.-.;.>.9+9+,.'.O+D P+k.y+Q+A+I.S B+o 9 / & .                               ",
"                              . #+$+%+&+*+=+$.%.&.*.!.2.3.b+$.$.R+S+O+T+P+k.y+Q+A+I.S B+o 9 / & .                               ",
"                              . U+V+W+X+Y+=+$.%.&.*.S G B.9 V.V.l.|+1+o.2+3+4+_+H.I.S :+o 9 / & .                               ",
"                              . J+K+L+M+O.N+$.A.&.*.S G B.9 X.V.C.l.}.A ^+x+y+z+A+I.S B+o 9 / & .                               ",
"                              . Z+`+ @.@+@@@$.A.&.*.!.2.R.-+T.;+U.X.>+X.,+'+)+!+0.~+S J o 9 / & .                               ",
"                              . Z+`+ @.@+@@@$.A.&.*.=.-.Q.R.S.T.U.V.W.X.Y.Z.`. +.+++S @+o 9 / & .                               ",
"                              . K.L.M.N.O.P.$.A.&.*.&.&.S G B.9 C.D.E.A F.G.H.I.&.J.S C o 9 / & .                               ",
"                              . U+V+W+X+Y+=+$.%.&.*.1.&.S i.j.k.l.m.n.o.p.q.r.s.b.t.S E o 9 / & .                               ",
"                              . v { N O z P #@%.*.*.|.*.<.$@%@b+&@,.*@=@-@;@>@].,@'@T i.p e | & .                               ",
"                              . <+{ [+}+z 9 $.%.&.*.&.&.=.-.;.>.,.'.).!.~.{.].^.&./.S C o 9 / & .                               ",
"                              . + ! i j )@l !@~@A.A.A.A.A.A.A.A.{@A.]@^@/@(@(@/@^@]@_@:@u <@1 ' .                               ",
"                                  ) 3 4 5 6 [@}@$.#@$.$.$.$.$.$.|@$.1@2@3@3@3@3@2@1@Q 4@g h 2                                   ",
"                                  . ) ! ~ { ] ^ / ( / / / / / / _ / : < [ } } [ < : | _ 1 2 .                                   ",
"                                      + @ # 5@% 6@6@6@6@6@6@6@6@= 6@7@8@9@0@0@9@8@7@6@= '                                       ",
"                                      . . . . . . . . . . . . . . . . . . . . . . . . . .                                       ",
"                                                                                                                                ",
"                                                                                                                                ",
"                                                                                                                                ",
"                                                                                                                                ",
"                                                                                                                                ",
"                                                                                                                                ",
"                                                                                                                                ",
"                                                                                                                                ",
"                                                                                                                                ",
"                                                                                                                                ",
"                                                                                                                                ",
"                                                                                                                                ",
"                                                                                                                                ",
"                                                                                                                                ",
"                                                                                                                                "};
