/* XPM */
static char * coins9_xpm[] = {
"64 64 206 2",
"  	c #87CEEB",
". 	c #000000",
"+ 	c #857A2F",
"@ 	c #8B8032",
"# 	c #8B7F30",
"$ 	c #8B8357",
"% 	c #8C8A7E",
"& 	c #8C8E8E",
"* 	c #8C8E8F",
"= 	c #85792F",
"- 	c #C7B54A",
"; 	c #DDC953",
"> 	c #DECA54",
", 	c #DDC950",
"' 	c #DECF8A",
") 	c #DED9C6",
"! 	c #DEDEDE",
"~ 	c #DEDEDF",
"{ 	c #B2993D",
"] 	c #E5BF4E",
"^ 	c #FCD156",
"/ 	c #FDD156",
"( 	c #FCD053",
"_ 	c #FCD68C",
": 	c #FDE0C7",
"< 	c #FDE5E0",
"[ 	c #FDE5E1",
"} 	c #E5C04E",
"| 	c #F4AD43",
"1 	c #FAA03B",
"2 	c #FA9F3B",
"3 	c #FAA03A",
"4 	c #FAA35C",
"5 	c #FAA881",
"6 	c #FAAB91",
"7 	c #8B7F32",
"8 	c #FDD356",
"9 	c #FBA93E",
"0 	c #F98728",
"a 	c #F98626",
"b 	c #F98828",
"c 	c #F98827",
"d 	c #F98727",
"e 	c #F98825",
"f 	c #F9871F",
"g 	c #F9861E",
"h 	c #F98724",
"i 	c #F88125",
"j 	c #F77B24",
"k 	c #FED858",
"l 	c #FEB842",
"m 	c #FCA02F",
"n 	c #FC9F2E",
"o 	c #FCA02D",
"p 	c #FCA029",
"q 	c #FCA026",
"r 	c #FCA12F",
"s 	c #FB952B",
"t 	c #FEDA58",
"u 	c #FFC044",
"v 	c #FEAE34",
"w 	c #FEAD33",
"x 	c #FEAB33",
"y 	c #FDA531",
"z 	c #FDAA36",
"A 	c #FEB83F",
"B 	c #FEBB40",
"C 	c #FEB238",
"D 	c #FDAA30",
"E 	c #FDA430",
"F 	c #FDAC58",
"G 	c #FEBE81",
"H 	c #FEC181",
"I 	c #FEB55A",
"J 	c #FEAE32",
"K 	c #FFC144",
"L 	c #FEAE33",
"M 	c #FEAF34",
"N 	c #FA932B",
"O 	c #FAA339",
"P 	c #FDC94F",
"Q 	c #FED050",
"R 	c #FEBC40",
"S 	c #FDA42A",
"T 	c #FAAB81",
"U 	c #FDD9C5",
"V 	c #FFDFC6",
"W 	c #FEC383",
"X 	c #FEAE2E",
"Y 	c #F98627",
"Z 	c #F99E3A",
"` 	c #FCD056",
" .	c #FEDD5A",
"..	c #FECB4D",
"+.	c #FEBF43",
"@.	c #FDB63A",
"#.	c #FAA73D",
"$.	c #FABF96",
"%.	c #FDEBE2",
"&.	c #FFEDE1",
"*.	c #FEC893",
"=.	c #FEAD2E",
"-.	c #FEAD28",
";.	c #F99E3B",
">.	c #FEE45F",
",.	c #FEDF5B",
"'.	c #FDD753",
").	c #FDDF9E",
"!.	c #FEF4E3",
"~.	c #FFEEE1",
"{.	c #FEC894",
"].	c #FEAD2B",
"^.	c #FBA032",
"/.	c #FA9F38",
"(.	c #FAB547",
"_.	c #FDD759",
":.	c #FEE761",
"<.	c #FEE862",
"[.	c #FEE861",
"}.	c #FEE75F",
"|.	c #FEEC94",
"1.	c #FFF5CC",
"2.	c #FFEED2",
"3.	c #FED6AD",
"4.	c #FEB457",
"5.	c #FBC14D",
"6.	c #FEE25F",
"7.	c #FEE860",
"8.	c #FEE974",
"9.	c #FEEC92",
"0.	c #FEEEB5",
"a.	c #FFEDD2",
"b.	c #FEC182",
"c.	c #FDD757",
"d.	c #FDE25E",
"e.	c #FEE75E",
"f.	c #FEEFA2",
"g.	c #FFFAE4",
"h.	c #FEDE5A",
"i.	c #FECA4C",
"j.	c #FDB641",
"k.	c #FAA73C",
"l.	c #FEE75C",
"m.	c #FEEEA1",
"n.	c #FFF9E4",
"o.	c #FDA330",
"p.	c #FA9129",
"q.	c #FAA238",
"r.	c #FDC84E",
"s.	c #FED955",
"t.	c #FEDF8E",
"u.	c #FFE8C7",
"v.	c #FFDFC4",
"w.	c #FDAA32",
"x.	c #FDA32F",
"y.	c #FDA935",
"z.	c #FDB83F",
"A.	c #FEBF42",
"B.	c #FEC161",
"C.	c #FEC583",
"D.	c #FEDE5B",
"E.	c #FEC044",
"F.	c #FED958",
"G.	c #FED857",
"H.	c #FEE15E",
"I.	c #FEE75D",
"J.	c #FEEEA2",
"K.	c #FFF9E3",
"L.	c #FFEDE0",
"M.	c #FEBF44",
"N.	c #FDB741",
"O.	c #FAA83D",
"P.	c #FAB647",
"Q.	c #FCA02E",
"R.	c #F99D3A",
"S.	c #FEBA3F",
"T.	c #F98526",
"U.	c #FFDB58",
"V.	c #FA922A",
"W.	c #FAA239",
"X.	c #FECF50",
"Y.	c #FEAE31",
"Z.	c #FEAC2D",
"`.	c #FDA31E",
" +	c #FA9120",
".+	c #FAAA7E",
"++	c #FDD8C3",
"@+	c #FFDEC4",
"#+	c #84792F",
"$+	c #E7C750",
"%+	c #F7C349",
"&+	c #FFC042",
"*+	c #FFC361",
"=+	c #FFC785",
"-+	c #FFC994",
";+	c #FFC995",
">+	c #B39D3E",
",+	c #FEDF8D",
"'+	c #FFE9C8",
")+	c #FFEDDF",
"!+	c #FEDF8C",
"~+	c #FEDA55",
"{+	c #8B8356",
"]+	c #8B8A7E",
"^+	c #8C8D8E",
"/+	c #8C8D8F",
"                                                                                                                                ",
"                                                                                                                                ",
"                                                                                                                                ",
"                                                                                                                                ",
"                                                                                                                                ",
"                                                                                                                                ",
"                                                                                                                                ",
"                                                                                                                                ",
"                                                                                                                                ",
"                                                                                                                                ",
"                                                                                                                                ",
"                                                                                                                                ",
"                                                                                                                                ",
"                                    . . . . . . . . . . . . . . . . . . . . . . . . . . . .                                     ",
"                                    + @ @ @ @ @ @ @ @ @ @ # @ $ % & * * & % $ @ # @ @ @ @ +                                     ",
"                                . = - ; > ; ; ; ; ; ; ; ; , ; ' ) ! ~ ~ ! ) ' ; , ; ; > ; - = .                                 ",
"                                = { ] ^ / ^ ^ ^ ^ ^ ^ ^ ^ ( ^ _ : < [ [ < : _ ^ ( ^ ^ / ^ } { =                                 ",
"                            . + - } | 1 2 1 1 1 1 1 1 1 1 3 1 4 5 6 6 6 6 5 4 1 3 1 1 2 1 | } - + .                             ",
"                            . 7 ; 8 9 0 a 0 0 0 0 b b c d d d 0 b b b e f g h 0 b b 0 i j 1 ^ ; @ .                             ",
"                            . 7 > k l m n m m m m m m m m m m o p q q q q p o m m r m s i 2 / > @ .                             ",
"                            . 7 ; t u v w v v v v x y z A B C w w D E F G H I v J v v m 0 1 ^ ; @ .                             ",
"                            . 7 ; t K v L v v M v y N O P Q R M v S N T U V W v X M v r b 1 ^ ; @ .                             ",
"                            . 7 ; t u v w v v M v m Y Z `  ...+.+.@.#.$.%.&.*.=.-.v v m 0 1 ^ ; @ .                             ",
"                            . 7 ; t u v w v v v v m d ;.^ >.,.t t '.8 ).!.~.{.v ].v v m 0 1 ^ ; @ .                             ",
"                            . 7 ; t u v w v v x y ^./.(._.:.<.[.[.}.:.|.1.2.3.H 4.v J m 0 1 ^ ; @ .                             ",
"                            . 7 ; t u v w v v E N /.5._.6.:.[.:.[.7.[.8.9.0.a.V b.v =.m 0 1 ^ ; @ .                             ",
"                            . 7 ; t u v w v v m 0 Z ^ :.[.>. .c.8 _.d.e.[.f.g.~.{.v ].m 0 1 ^ ; @ .                             ",
"                            . 7 ; t u v w v v m d ;.^ <.<.h.i.j.k.(._.l.}.m.n.~.{.v ].m 0 1 ^ ; @ .                             ",
"                            . 7 ; t u v w v v m 0 Z ^ [.[.t +.o.p.q.r.s.t t.u.v.b.v =.m 0 1 ^ ; @ .                             ",
"                            . 7 ; t u v w v v m 0 Z ^ [.[.t +.w.x.y.z.A.+.B.C.H I v J m 0 1 ^ ; @ .                             ",
"                            . 7 ; t u v w v v m d ;.^ <.<.D...E.+.E.+.A.+.B.C.H I v J m 0 1 ^ ; @ .                             ",
"                            . 7 ; t u v w v v m 0 Z ^ :.[.>. .t t t t s.F.t.u.v.b.v =.m 0 1 ^ ; @ .                             ",
"                            . 7 ; t u v w v v E N O r.F.t t t G.8 _.H.I.:.J.K.L.{.v ].m 0 1 ^ ; @ .                             ",
"                            . 7 ; t u v w v v x y z A +.+.+.M.N.O.P._.e.<.f.g.~.{.v ].m 0 1 ^ ; @ .                             ",
"                            . 7 ; t u v w v v x y z A +.+.B C Q.a R.` I.[.J.K.L.{.v ].m 0 1 ^ ; @ .                             ",
"                            . 7 ; t u v w v v E N O r.t t Q S.Q.T.R.` I.[.J.K.L.{.v ].m 0 1 ^ ; @ .                             ",
"                            . 7 ; t u v w v v m d ;.^ <.<.h.i.j.k.(._.l.}.m.n.~.{.v ].m 0 1 ^ ; @ .                             ",
"                            . 7 ; t u v w v v m d ;.^ [.<.>.h.G.8 _.H.I.:.J.K.L.{.v ].m 0 1 ^ ; @ .                             ",
"                            . 7 ; t u v w v v E N /.5._.6.:.[.:.[.7.[.8.9.0.a.V b.v =.m 0 1 ^ ; @ .                             ",
"                            . 7 ; t u v w v v x y ^./.(._.:.<.[.[.}.:.|.1.2.3.H 4.v J m 0 1 ^ ; @ .                             ",
"                            . 7 ; t u v w v v v v m d ;.^ >.,.t t '.8 ).!.~.{.v ].v v m 0 1 ^ ; @ .                             ",
"                            . 7 ; t u v w v v M v m Y Z `  ...+.+.@.#.$.%.&.*.=.-.v v m 0 1 ^ ; @ .                             ",
"                            . 7 > U.u w w w w L w o.V.W.r.X.B Y.Z.`. +.+++@+b.w Z.L w n a 2 / > @ .                             ",
"                            . 7 ; t u v w v v v v x y z A B C w w D E F G H I v J v v m 0 1 ^ ; @ .                             ",
"                            . #+- $+%+u u u u u u u u u u &+u *+=+-+;+;+-+=+*+u &+K u l 9 | ] - + .                             ",
"                                = >+$+t U.t t t t t t t t s.t ,+'+L.~.~.)+u.!+t ~+t t k 8 } { =                                 ",
"                                . = - ; > ; ; ; ; ; ; ; ; , ; ' ) ! ~ ~ ! ) ' ; , ; ; > ; - = .                                 ",
"                                    #+7 7 7 7 7 7 7 7 7 7 # 7 {+]+^+/+/+^+]+{+7 # 7 7 7 7 +                                     ",
"                                    . . . . . . . . . . . . . . . . . . . . . . . . . . . .                                     ",
"                                                                                                                                ",
"                                                                                                                                ",
"                                                                                                                                ",
"                                                                                                                                ",
"                                                                                                                                ",
"                                                                                                                                ",
"                                                                                                                                ",
"                                                                                                                                ",
"                                                                                                                                ",
"                                                                                                                                ",
"                                                                                                                                ",
"                                                                                                                                ",
"                                                                                                                                ",
"                                                                                                                                ",
"                                                                                                                                "};
