/* XPM */
static char * coins2_xpm[] = {
"64 64 462 2",
"  	c #7D5E6B",
". 	c #84636E",
"+ 	c #896972",
"@ 	c #8B6C73",
"# 	c #8B6C74",
"$ 	c #8C7076",
"% 	c #8F7679",
"& 	c #91797B",
"* 	c #735A68",
"= 	c #6E5967",
"- 	c #946672",
"; 	c #A4727A",
"> 	c #AD8082",
", 	c #B18786",
"' 	c #B18787",
") 	c #B48E8B",
"! 	c #BA9A93",
"~ 	c #BDA098",
"{ 	c #B18887",
"] 	c #B28887",
"^ 	c #7C5D6A",
"/ 	c #6C5866",
"( 	c #A5737B",
"_ 	c #B78285",
": 	c #C08E8C",
"< 	c #C39490",
"[ 	c #C69A94",
"} 	c #CBA59C",
"| 	c #CDAAA0",
"1 	c #CEAAA0",
"2 	c #C69A95",
"3 	c #C08F8D",
"4 	c #B88285",
"5 	c #A5747B",
"6 	c #85636E",
"7 	c #6D5967",
"8 	c #AE8183",
"9 	c #C3938F",
"0 	c #C49490",
"a 	c #C49590",
"b 	c #C59792",
"c 	c #C79B95",
"d 	c #C89D96",
"e 	c #6D5867",
"f 	c #C1928F",
"g 	c #BF8E8C",
"h 	c #C1918E",
"i 	c #C1928E",
"j 	c #BD8B8B",
"k 	c #BD8B8A",
"l 	c #C2928F",
"m 	c #BF918E",
"n 	c #B68B89",
"o 	c #A37D7F",
"p 	c #846870",
"q 	c #6D5866",
"r 	c #B37B81",
"s 	c #B37A81",
"t 	c #9C787C",
"u 	c #8B6D74",
"v 	c #8A6C73",
"w 	c #846871",
"x 	c #765F6A",
"y 	c #B98587",
"z 	c #C29491",
"A 	c #C29591",
"B 	c #B47E83",
"C 	c #B68286",
"D 	c #B78588",
"E 	c #B78B89",
"F 	c #8A6A72",
"G 	c #866670",
"H 	c #80626D",
"I 	c #755C69",
"J 	c #C9A39B",
"K 	c #C0928F",
"L 	c #C59D97",
"M 	c #C8A39B",
"N 	c #AF8384",
"O 	c #AA7B7F",
"P 	c #9B6F77",
"Q 	c #80616D",
"R 	c #CBA49C",
"S 	c #BD8989",
"T 	c #AB7B7F",
"U 	c #876670",
"V 	c #C49792",
"W 	c #C69B95",
"X 	c #C79D96",
"Y 	c #B08484",
"Z 	c #000000",
"` 	c #946572",
" .	c #813A0C",
"..	c #873B0C",
"+.	c #873A0B",
"@.	c #88531B",
"#.	c #8A722B",
"$.	c #8B8032",
"%.	c #8B8033",
"&.	c #8B7F30",
"*.	c #8B8357",
"=.	c #8C8A7E",
"-.	c #8C8E8E",
";.	c #8C8E8F",
">.	c #857A2F",
",.	c #813B0C",
"'.	c #C25B18",
").	c #D7641B",
"!.	c #D8661C",
"~.	c #D98932",
"{.	c #DCB64A",
"].	c #DDC953",
"^.	c #DDCA54",
"/.	c #DDC950",
"(.	c #DECF8A",
"_.	c #DED9C6",
":.	c #DEDEDE",
"<.	c #DEDEDF",
"[.	c #DECA54",
"}.	c #C7B54A",
"|.	c #85792F",
"1.	c #AE5014",
"2.	c #E06B1E",
"3.	c #F78129",
"4.	c #F99535",
"5.	c #FAAD43",
"6.	c #FBC550",
"7.	c #FCD156",
"8.	c #FCD053",
"9.	c #FCD68C",
"0.	c #FDE0C7",
"a.	c #FDE5E0",
"b.	c #FDE5E1",
"c.	c #FDD156",
"d.	c #FCD153",
"e.	c #E5C04E",
"f.	c #B2993D",
"g.	c #BA9A94",
"h.	c #E0691D",
"i.	c #F17321",
"j.	c #FA9636",
"k.	c #FCBF4C",
"l.	c #FCC650",
"m.	c #FBAF44",
"n.	c #FAA03B",
"o.	c #FA9F3B",
"p.	c #FAA03A",
"q.	c #FAA35C",
"r.	c #FAA881",
"s.	c #FAAB91",
"t.	c #F4AD43",
"u.	c #873D0D",
"v.	c #D7651C",
"w.	c #F77320",
"x.	c #F87622",
"y.	c #F99F3B",
"z.	c #FDD356",
"A.	c #FAA93E",
"B.	c #F98728",
"C.	c #F98626",
"D.	c #F98828",
"E.	c #F98827",
"F.	c #F98727",
"G.	c #F98825",
"H.	c #F9871F",
"I.	c #F9861E",
"J.	c #F98724",
"K.	c #F88125",
"L.	c #F77B24",
"M.	c #F87421",
"N.	c #F87722",
"O.	c #FCD256",
"P.	c #FED858",
"Q.	c #FDB841",
"R.	c #FCA02F",
"S.	c #FC9F2E",
"T.	c #FCA02D",
"U.	c #FCA029",
"V.	c #FCA026",
"W.	c #FCA129",
"X.	c #FB952B",
"Y.	c #F88225",
"Z.	c #884811",
"`.	c #D97621",
" +	c #FA8726",
".+	c #FB8928",
"++	c #FBA93D",
"@+	c #FDD456",
"#+	c #FEDA58",
"$+	c #FEC044",
"%+	c #FEAE34",
"&+	c #FEAD33",
"*+	c #FEAB33",
"=+	c #FDA531",
"-+	c #FDAA36",
";+	c #FEB83F",
">+	c #FEBB40",
",+	c #FEB238",
"'+	c #FDAA30",
")+	c #FDA430",
"!+	c #FDAC58",
"~+	c #FEBE81",
"{+	c #FEC181",
"]+	c #FEB55A",
"^+	c #FEAE32",
"/+	c #8A5615",
"(+	c #DC8C28",
"_+	c #FCA12F",
":+	c #FDA330",
"<+	c #FDB842",
"[+	c #FED857",
"}+	c #FEAE33",
"|+	c #FEAF34",
"1+	c #FA932B",
"2+	c #FAA339",
"3+	c #FDC94F",
"4+	c #FED051",
"5+	c #FEBC40",
"6+	c #FDA42A",
"7+	c #FAAB81",
"8+	c #FDD9C5",
"9+	c #FFDFC6",
"0+	c #FEC383",
"a+	c #FEAE2E",
"b+	c #7F5118",
"c+	c #CC842C",
"d+	c #EA9733",
"e+	c #EB9934",
"f+	c #EFB244",
"g+	c #F9D658",
"h+	c #F98627",
"i+	c #F99E3A",
"j+	c #FCD056",
"k+	c #FEDE5A",
"l+	c #FECB4D",
"m+	c #FDB63A",
"n+	c #FAA73C",
"o+	c #FABF96",
"p+	c #FDEBE2",
"q+	c #FFEDE1",
"r+	c #FEC893",
"s+	c #FEAD28",
"t+	c #673317",
"u+	c #A7562B",
"v+	c #BF6133",
"w+	c #C16434",
"x+	c #D29643",
"y+	c #F0CF58",
"z+	c #FFC044",
"A+	c #F99E3B",
"B+	c #FEE45F",
"C+	c #FEDF5B",
"D+	c #FDD753",
"E+	c #FDDF9E",
"F+	c #FEF4E3",
"G+	c #FFEEE1",
"H+	c #FEC894",
"I+	c #FEAD2B",
"J+	c #662215",
"K+	c #A43C28",
"L+	c #BC422E",
"M+	c #BE472F",
"N+	c #D18B41",
"O+	c #EFCC57",
"P+	c #FBA032",
"Q+	c #FA9F38",
"R+	c #FAB547",
"S+	c #FDD759",
"T+	c #FEE761",
"U+	c #FEE862",
"V+	c #FEE75F",
"W+	c #FEE861",
"X+	c #FEED94",
"Y+	c #FFF5CC",
"Z+	c #FFEED2",
"`+	c #FED6AD",
" @	c #FEC281",
".@	c #FEB457",
"+@	c #F98725",
"@@	c #C49692",
"#@	c #7C3510",
"$@	c #C65821",
"%@	c #E46426",
"&@	c #E56727",
"*@	c #EB983D",
"=@	c #F8CF56",
"-@	c #FBC14D",
";@	c #FEE25F",
">@	c #FEE860",
",@	c #FEE974",
"'@	c #FEEC92",
")@	c #FEEEB5",
"!@	c #FFEDD2",
"~@	c #FEC182",
"{@	c #FEDD5A",
"]@	c #FDD757",
"^@	c #FDD755",
"/@	c #FDE25E",
"(@	c #FEEFA2",
"_@	c #FFFAE4",
":@	c #F9861A",
"<@	c #873E0D",
"[@	c #F87520",
"}@	c #F97722",
"|@	c #FECA4C",
"1@	c #FDB641",
"2@	c #FAB440",
"3@	c #FDD756",
"4@	c #FEEEA1",
"5@	c #884711",
"6@	c #D97521",
"7@	c #FA8828",
"8@	c #FAA83D",
"9@	c #FEBF43",
"0@	c #FA9129",
"a@	c #FAA133",
"b@	c #FDC84E",
"c@	c #FEDF8E",
"d@	c #FFE8C7",
"e@	c #FFDFC5",
"f@	c #F9861F",
"g@	c #FDAA32",
"h@	c #FDA32F",
"i@	c #FDA933",
"j@	c #FDB83F",
"k@	c #FEC161",
"l@	c #FEC683",
"m@	c #8B5E18",
"n@	c #DE982C",
"o@	c #FFAE33",
"p@	c #FFB034",
"q@	c #FEDE5B",
"r@	c #FEC042",
"s@	c #FEC583",
"t@	c #DD972C",
"u@	c #FFAF34",
"v@	c #FEDA55",
"w@	c #8F7579",
"x@	c #91787B",
"y@	c #FED958",
"z@	c #FEE15E",
"A@	c #FEEEA2",
"B@	c #FFF9E3",
"C@	c #FFEEE0",
"D@	c #F9861B",
"E@	c #BA9993",
"F@	c #BD9F97",
"G@	c #673217",
"H@	c #A7552B",
"I@	c #BF6033",
"J@	c #C16334",
"K@	c #FEBF44",
"L@	c #FDB741",
"M@	c #FAB542",
"N@	c #662315",
"O@	c #A53D28",
"P@	c #BD432E",
"Q@	c #BF472F",
"R@	c #EFCD57",
"S@	c #FCA02E",
"T@	c #F99D33",
"U@	c #FFFAE3",
"V@	c #FED050",
"W@	c #FEBA3F",
"X@	c #F98526",
"Y@	c #7D3510",
"Z@	c #C75A21",
"`@	c #E56626",
" #	c #E66927",
".#	c #EC983D",
"+#	c #560F17",
"@#	c #8B1E2B",
"##	c #9F1932",
"$#	c #A22433",
"%#	c #BF8343",
"&#	c #EACB58",
"*#	c #BE908D",
"=#	c #B68A89",
"-#	c #9C797C",
";#	c #FEDB58",
">#	c #FA922A",
",#	c #FAA239",
"'#	c #FECF50",
")#	c #FDA327",
"!#	c #FA9122",
"~#	c #FAAA7E",
"{#	c #FDD8C3",
"]#	c #FFDEC4",
"^#	c #FEAD2E",
"/#	c #FEAC2A",
"(#	c #BB9490",
"_#	c #A18483",
":#	c #8C6F75",
"<#	c #C9A29B",
"[#	c #C9A89E",
"}#	c #C2A39A",
"|#	c #F99636",
"1#	c #FECD52",
"2#	c #FFC64A",
"3#	c #FFC042",
"4#	c #FFC361",
"5#	c #FFC785",
"6#	c #FFC994",
"7#	c #FFC995",
"8#	c #FEB842",
"9#	c #FBA93C",
"0#	c #E5BF4E",
"a#	c #CEABA0",
"b#	c #FAB044",
"c#	c #FDCD52",
"d#	c #FED955",
"e#	c #FEDF8D",
"f#	c #FFE9C8",
"g#	c #FFEDE0",
"h#	c #FDD353",
"i#	c #B18686",
"j#	c #88521A",
"k#	c #8B7F32",
"l#	c #8B8356",
"m#	c #8B8A7E",
"n#	c #8C8D8E",
"o#	c #8C8D8F",
"p#	c #927C7E",
"q#	c #948183",
"r#	c #968486",
"s#	c #936572",
"t#	c #BFA59D",
"u#	c #C4B0A7",
"v#	c #C6B5AC",
"w#	c #C6B5AD",
"x#	c #B28787",
"y#	c #A4737B",
"z#	c #D0AFA5",
"A#	c #D4B9AF",
"B#	c #D6BEB3",
"C#	c #D6BEB4",
"D#	c #AD8183",
"E#	c #C89F99",
"F#	c #CAA39C",
"G#	c #CBA59F",
"H#	c #BF8D8C",
"I#	c #A27D7F",
"J#	c #836770",
"K#	c #C39390",
"L#	c #C0908E",
"M#	c #BB898A",
"N#	c #BC8C8C",
"O#	c #C39792",
"P#	c #B88E8B",
"Q#	c #A08081",
"R#	c #7F616C",
"S#	c #C49893",
"T#	c #C79F98",
"U#	c #CAA59D",
"V#	c #CCA89F",
"W#	c #C29792",
"X#	c #BE9C95",
"Y#	c #AA7A7F",
"Z#	c #9A6F77",
"`#	c #BC8989",
" $	c #C1908E",
".$	c #7D5D6B",
"  . + @ # @ @ @ @ $ % & & & & & & & & % $ @ @ $ % % $ @ @ @ @ @ @ @ @ @ @ @ @ @ @ @ @ @ @ @ @ @ @ @ @ @ @ @ @ @ @ # @ + .   * = ",
"- ; > , ' , , , , ) ! ~ ~ ~ ~ ~ ~ ~ ~ ! ) , , ) ! ! ) , , { ] ] { ' , , , , , , , , , , , , , , , , , , , , , , , ' , > ; - ^ / ",
"( _ : < < < < < < [ } | 1 | | | | 1 | } [ < < 2 } } 2 < < < < < < < < < < < < < < < < < < < < < < < < < < < < < < < < 3 4 5 6 7 ",
"8 : 9 0 a 0 0 0 0 b c d d d d d d d d c b 0 0 b c c b 0 0 0 0 0 0 0 0 0 0 0 0 0 0 0 0 0 0 0 0 0 0 0 0 0 0 0 0 0 0 a 0 9 : 8 + e ",
"] < 0 < < < < < < < < < < < < < < < < < < < < < < < < < < < < < < < < < < < < f g g h i g j k k k k k k j g l < < m n ] , o p q ",
"] < a < < < < < < < < < < < < < < < < < < < < < < < < < < < < < < < < < < < < g _ 4 g g 4 r s r r r r s r _ g < < n t u v w x q ",
"] < 0 < < < < < < < < < < < < < < < < < < < < < < < < < < < < < < < < < < < < g _ y z A y B C D D D D C B _ g < < E t F G H I q ",
"] < 0 < < < < < < < < < < < < < < < < < < < < < < < < < < < < < < < < < < < < h g A J J A K L M M M M L K g i < < m n N O P Q q ",
"] < 0 < < < < < < < < < < < < < < < < < < < < < < < < < < < < < < < < < < < < < < 2 } R 2 [ R | 1 1 | } [ < < < < < < h S T U q ",
"] < 0 < < < < < < < < < < < < < < < < < < < < < < < < < < < < < < < < < < < < < < V 2 2 V V W X X X X W V < < < < < < < h Y F q ",
"] < a < < < < < < < < < < < < < < < < < < < < < < < < < < < < < < < < < < < < < < < < < < < < < < < < < < < < < < < < a < ] # q ",
"] < 0 < < < < < < < < < < < < < < < < < < < < < < < < < < < < < < < < < < < < < < < < < < < < < < < < < < < < < < < < a < ] # q ",
"8 : 9 0 a 0 0 0 0 0 0 0 0 0 0 0 0 0 0 0 0 0 0 0 0 0 0 0 0 0 0 0 0 0 0 0 0 0 0 0 0 0 0 0 0 0 0 0 0 0 0 0 0 0 0 0 0 a 0 9 : 8 + e ",
"( _ : < < < < < < < < < < < < < < < < Z Z Z Z Z Z Z Z Z Z Z Z Z Z Z Z Z Z Z Z Z Z Z Z Z Z < < < < < < < < < < < < < < : _ ( . 7 ",
"` ; > , , , , , , , , , , , , , , , ,  ...+.@.#.$.%.$.$.$.$.$.$.&.$.*.=.-.;.;.-.=.*.$.&.>., , , , , , , , , , , , ' , > ; - ^ / ",
"  . + @ # @ @ @ @ @ @ @ @ @ @ @ @ Z ,.'.).!.~.{.].^.].].].].].]./.].(._.:.<.<.:._.(.[./.}.|.Z @ @ @ @ @ @ @ @ @ @ # @ + .   * = ",
"% & & & & % $ @ @ @ @ @ @ @ @ @ @ ,.1.2.3.4.5.6.7.7.7.7.7.7.7.7.8.7.9.0.a.b.b.a.0.9.c.d.e.f.|.& & & & & & % $ @ @ @ @ @ @ @ @ @ ",
"g.~ ~ ~ ~ ! ) , , , , , , , , Z  .'.h.i.j.k.l.m.n.o.n.n.n.n.n.n.p.n.q.r.s.s.s.s.r.q.o.p.t.e.}.>.Z ~ ~ ~ ~ ! ) , , , , , ' { ] ] ",
"} | 1 1 | } [ < < < < < < < < Z u.v.w.x.y.7.z.A.B.C.B.B.D.D.E.F.F.F.D.D.G.H.I.J.D.D.K.L.n.7.].$.Z | | 1 | } [ < < < < < < < < < ",
"c d d d d c b 0 0 0 0 0 0 0 0 Z u.!.M.N.y.O.P.Q.R.S.R.R.R.R.R.R.R.R.T.U.V.V.V.V.W.T.X.Y.o.c.[.$.Z d d d d c b 0 0 0 0 0 0 0 0 0 ",
"< < < < < < < < < < < < < i g Z Z.`. +.+++@+#+$+%+&+%+%+*+=+-+;+>+,+'+)+!+~+{+]+%+^+R.B.n.7.].$.Z < < < < < < < < < < < < < < < ",
"< < < < < < < < < < < < < g _ Z /+(+_+:+<+[+#+$+%+}+|+%+=+1+2+3+4+5+6+1+7+8+9+0+|+a+_+D.n.7.].$.Z < < < < < < < < < < < < < < < ",
"< < < < < < < < < < < V 2 A y Z b+c+d+e+f+g+#+$+%+&+|+%+R.h+i+j+k+l+m+n+o+p+q+r+a+s+R.D.n.7.].$.Z < < < < < < < < < < < < < < < ",
"< < < < < < < < < < < 2 } J z Z t+u+v+w+x+y+#+z+%+&+%+%+R.F.A+7.B+C+D+z.E+F+G+H+%+I+R.B.n.7.].$.Z < < < < < < < < < < < < < < < ",
"< < < < < < < < < < < 2 } R 2 Z J+K+L+M+N+O+#+z+%+&+*+=+P+Q+R+S+T+U+V+W+X+Y+Z+`+ @.@R.+@n.7.].$.Z < < < < < < < < < < < < < < < ",
"< < < < < < < < < < < @@2 2 V Z #@$@%@&@*@=@#+$+%+&+)+1+Q+-@S+;@T+W+>@W+,@'@)@!@9+~@R.I.n.7.].$.Z < < < < < < < < < < < < < < < ",
"< < < < < < < < < < < < < < < Z u.v.w.x.A+7.#+$+%+&+R.B.i+7.T+W+B+{@]@z.^@/@(@_@G+H+R.:@n.7.].$.Z < < < < < < < < < < < < < < < ",
"< < < < < < < < < < < < < < < Z <@!.[@}@y.7.#+$+%+&+R.F.A+7.U+U+k+|@1@n+2@3@4@_@G+H+R.:@n.7.].$.Z < < < < < < < < < < < < < < < ",
"0 0 0 0 0 0 0 0 0 0 0 0 0 0 0 Z 5@6@C.7@8@z.#+$+%+&+R.B.i+7.W+W+#+9@:+0@a@b@c@d@e@~@R.f@n.7.].$.Z 0 0 0 0 0 0 0 0 0 0 0 0 0 0 0 ",
"< < < < < < < < < < < < < < < Z /+(+_+:+<+[+#+$+%+&+R.B.i+7.W+W+#+9@g@h@i@j@k@l@ @]+R.+@n.7.].$.Z < < < < < < < < < < < < < < < ",
"{ ' , , , , , , , , , , , , , Z m@n@o@p@z+#+#+$+%+&+R.F.A+7.U+U+q@l+$+9@r@9@k@s@ @]+R.+@n.7.].$.Z , , , , , , , , , , , ' { ] ] ",
"@ @ @ @ @ @ @ @ @ @ @ @ @ @ @ Z m@t@}+u@$+#+#+$+%+&+R.B.i+7.T+W+B+{@#+#+v@#+c@d@e@~@R.f@n.7.].$.Z @ @ @ @ @ @ @ @ @ @ @ @ @ @ @ ",
"  . + @ # @ @ $ % w@$ $ w@x@& Z b+c+d+e+f+g+#+$+%+&+)+1+2+b@y@#+#+#+[+z.^@z@A@B@C@H+R.D@n.7.].$.Z @ @ @ @ @ @ @ @ # @ + .   * = ",
"- ; > , ' , , ) ! E@) ) E@F@~ Z G@H@I@J@x+y+#+z+%+&+*+=+-+;+9@9@9@K@L@8@M@S+(@_@G+H+R.:@n.7.].$.Z , , , , , , , , ' , > ; - ^ / ",
"( _ : < < < < 2 } R 2 [ R | 1 Z N@O@P@Q@N+R@#+z+%+&+*+=+-+;+9@9@>+,+S@C.T@j+A@U@C@H+R.D@n.7.].$.Z < < < < < < < < < < : _ ( . 7 ",
"8 : 9 0 a 0 0 b c c b b c d d Z #@$@%@&@*@=@#+$+%+&+)+1+2+b@#+#+V@W@S@X@T@j+A@U@C@H+R.D@n.7.].$.Z 0 0 0 0 0 0 0 0 a 0 9 : 8 + e ",
"] < 0 < < < < < < < < < < < < Z Y@Z@`@ #.#=@#+$+%+&+R.F.A+7.U+U+k+|@1@n+2@3@4@_@G+H+R.:@n.7.].$.Z < < < < < < < < < < a < ] # q ",
"] < a < < < < < < < < < < < < Z N@O@P@Q@N+R@#+z+%+&+R.F.A+7.W+U+B+k+[+z.^@z@A@B@C@H+R.D@n.7.].$.Z < < < < < < < < < < a < ] # q ",
"] < 0 < < < < < < < < < < < < Z +#@###$#%#&##+z+%+&+)+1+Q+-@S+;@T+W+>@W+,@'@)@!@9+~@R.I.n.7.].$.Z < < < < < < 0 0 a 0 < h Y F q ",
"] < 0 < < < < < < < < < < < < Z +#@###$#%#&##+z+%+&+*+=+P+Q+R+S+T+U+V+W+X+Y+Z+`+ @.@R.+@n.7.].$.Z < < < < < < < < < < h S T U q ",
"] < 0 < < < < < < < < < < < < Z J+K+L+M+N+O+#+z+%+&+%+%+R.F.A+7.B+C+D+z.E+F+G+H+%+I+R.B.n.7.].$.Z h g g h *#=#, , ' , N O P Q q ",
"] < 0 < < < < < < < < < < < < Z Y@Z@`@ #.#=@#+$+%+&+|+%+R.h+i+j+k+l+m+n+o+p+q+r+a+s+R.D.n.7.].$.Z g 4 4 g n -#@ v # @ F U H I q ",
"] < a < < < < < < < < < < < < Z u.!.M.N.y.O.;#$+&+&+}+&+:+>#,#b@'#>+)#!#~#{#]#{+^#/#S.h+o.c.[.$.Z z y y z (#_#% :#@ @ u u w x q ",
"] < 0 < < < < < < < < < < < < Z <@!.[@}@y.7.#+$+%+&+%+%+*+=+-+;+>+,+'+)+!+~+{+]+%+^+R.B.n.7.].$.Z <#A z <#[#}#! ) , , ] ' o p q ",
"8 : 9 0 a 0 0 0 0 0 0 0 0 0 0 Z  .'.h.i.|#k.1#2#z+z+z+z+z+z+z+z+3#z+4#5#6#7#7#6#5#4#8#9#t.0#}.>.Z } c W } a#a#} W a 0 9 : 8 + e ",
"( _ : < < < < < < < < < < < < < < ,.1.2.3.4.b#c##+;##+#+#+#+#+#+d##+e#f#g#g#g#g#f#e#P.h#e.f.|.V 2 2 V V 2 X X c b a 0 3 4 5 6 7 ",
"- ; > , ' , , , , , , , , , , , , Z ,.'.).!.~.{.].^.].].].].].]./.].(._.:.<.<.:._.(.[./.}.|.Z , , , i#i#i#i#i#i#, , , > ; - ^ / ",
"  . + @ # @ @ @ @ @ @ @ @ @ @ @ @ @ @  ...+.j##.k#k#k#k#k#k#k#k#&.k#l#m#n#o#o#n#m#l#k#&.>.@ @ @ @ @ @ @ @ @ @ @ @ # @ + .   * = ",
"@ @ @ @ @ @ @ @ @ @ @ @ @ @ @ @ @ @ @ Z Z Z Z Z Z Z Z Z Z Z Z Z Z Z Z Z Z Z Z Z Z Z Z Z Z & & x@& p#q#r#r#r#r#q#p#& x@% $ @ @ @ ",
"{ ' , , , , , , , , , , , , , , , , , , , , , , , ' , > ; s#^ ^ s#; > , ' , , ) ! E@) ) E@~ ~ F@~ t#u#v#w#w#v#u#t#~ F@! ) { x#] ",
"< < < < < < < < < < < < < < < < < < < < < < < < < a 0 3 4 ( 6 . y#_ : < < < < 2 } R 2 [ R | 1 | | z#A#B#C#C#B#A#z#1 | } [ < < < ",
"0 0 0 0 0 0 0 0 0 0 0 0 0 0 0 0 0 0 0 0 0 0 0 0 0 a 0 9 : D#+ + D#: 9 0 a 0 0 b c c b b c d d d d E#F#G#G#G#G#F#E#d d c b 0 0 0 ",
"< < < < < < < l g j k k j g l < < f H#H#h < < m =#, , ] ' I#p @ ' < 0 < < < < < < < < < < < < < < < < < < < < < < < < < < < < < ",
"< < < < < < < g _ r s s r _ g < < g _ _ g < < n t @ v u u J#x # ] < a < < < < < < < < < < < < < < < K#9 9 9 9 K#< < < < < < < < ",
"< < < < < < < g _ B C C B _ g < < L#M#N#O#W V P#Q#% :#F U R#I @ ] < 0 < < < < < < < < < < < < < < < < < < < < < < < < < < < < < ",
"< < < < < < < i g K L L K g i < < S#T#U#V#} [ W#X#! ) N Y#Z#Q @ ' < 0 < < < < < < < < < < < < < < < < < < < < < < < < < < < < < ",
"< < < < < < < < < 2 } } 2 < < < < [ } 1 1 R [ 2 R } 2 h `#O U @ ' < 0 < < < < < < < < < < < < < < < < < < < < < < < < < < < < < ",
"< < < < < < < < < V W W V < < < < @@W X X [ @@@@W c b <  $N F @ , < 0 < < < < < < < < < < < < < < < < < < < < < < < < < < < < < ",
"< < < < < < < < < < < < < < < < < < < < < < < < < < < a < ' # # ' < a < < < < < < < < < < < < < < < < < < < < < < < < < < < < < ",
"< < < < < < < < < < < < < < < < < < < < < < < < < < < a < ' # @ , < 0 < < < < < < < < < < < < < < < < < < < < < < < < < < < < < ",
"0 0 0 0 0 0 0 0 0 0 0 0 0 0 0 0 0 0 0 0 0 0 0 0 0 a 0 9 : D#+ + D#: 9 0 a 0 0 0 0 0 0 0 0 0 0 0 0 0 0 0 0 0 0 0 0 0 0 0 0 0 0 0 ",
"< < < < < < < < < < < < < < < < < < < < < < < < < < < : _ y#. . y#_ : < < < < < < < < < < < < < < < < < < < < < < < < < < < < < ",
"{ ' , , , , , , , , , , , , i#i#i#i#, , , , , , , , , > ; s#^ ^ s#; > , ' , , , , , , , , , , , , , , , , , , , , , , , ' { ] ] ",
"@ @ @ @ @ @ @ @ @ @ @ @ @ @ @ @ @ @ @ @ @ @ @ @ @ # @ + . .$* * .$. + @ # @ @ @ @ @ @ @ @ @ @ @ @ @ @ @ @ @ @ @ @ @ @ @ @ @ @ @ "};
