/* XPM */
static char * coins6_xpm[] = {
"64 64 462 2",
"  	c #7D5E6B",
". 	c #84636E",
"+ 	c #896972",
"@ 	c #8B6C73",
"# 	c #8B6C74",
"$ 	c #8C7076",
"% 	c #8F7679",
"& 	c #91797B",
"* 	c #735A68",
"= 	c #6E5967",
"- 	c #946672",
"; 	c #A4727A",
"> 	c #AD8082",
", 	c #B18786",
"' 	c #B18787",
") 	c #B48E8B",
"! 	c #BA9A93",
"~ 	c #BDA098",
"{ 	c #B18887",
"] 	c #B28887",
"^ 	c #7C5D6A",
"/ 	c #6C5866",
"( 	c #A5737B",
"_ 	c #B78285",
": 	c #C08E8C",
"< 	c #C39490",
"[ 	c #C69A94",
"} 	c #CBA59C",
"| 	c #CDAAA0",
"1 	c #CEAAA0",
"2 	c #C69A95",
"3 	c #C08F8D",
"4 	c #B88285",
"5 	c #A5747B",
"6 	c #85636E",
"7 	c #6D5967",
"8 	c #AE8183",
"9 	c #C3938F",
"0 	c #C49490",
"a 	c #C49590",
"b 	c #C59792",
"c 	c #C79B95",
"d 	c #C89D96",
"e 	c #6D5867",
"f 	c #C1928F",
"g 	c #BF8E8C",
"h 	c #C1918E",
"i 	c #C1928E",
"j 	c #BD8B8B",
"k 	c #BD8B8A",
"l 	c #C2928F",
"m 	c #BF918E",
"n 	c #B68B89",
"o 	c #A37D7F",
"p 	c #846870",
"q 	c #6D5866",
"r 	c #B37B81",
"s 	c #B37A81",
"t 	c #9C787C",
"u 	c #8B6D74",
"v 	c #8A6C73",
"w 	c #846871",
"x 	c #765F6A",
"y 	c #B98587",
"z 	c #C29491",
"A 	c #C29591",
"B 	c #B47E83",
"C 	c #B68286",
"D 	c #B78588",
"E 	c #B78B89",
"F 	c #8A6A72",
"G 	c #866670",
"H 	c #80626D",
"I 	c #755C69",
"J 	c #C9A39B",
"K 	c #C0928F",
"L 	c #C59D97",
"M 	c #C8A39B",
"N 	c #AF8384",
"O 	c #AA7B7F",
"P 	c #9B6F77",
"Q 	c #80616D",
"R 	c #CBA49C",
"S 	c #BD8989",
"T 	c #AB7B7F",
"U 	c #876670",
"V 	c #C49792",
"W 	c #C69B95",
"X 	c #C79D96",
"Y 	c #B08484",
"Z 	c #000000",
"` 	c #946572",
" .	c #857A30",
"..	c #8B8032",
"+.	c #8B7F30",
"@.	c #8B8458",
"#.	c #8C8A7E",
"$.	c #8A7E7C",
"%.	c #88594E",
"&.	c #873A0B",
"*.	c #873B04",
"=.	c #873D0D",
"-.	c #813B0C",
";.	c #85792F",
">.	c #C7B54A",
",.	c #DDC953",
"'.	c #DECA54",
").	c #DDC950",
"!.	c #DED08C",
"~.	c #DED9C6",
"{.	c #DCC8C3",
"].	c #D9937D",
"^.	c #D7661C",
"/.	c #D7640E",
"(.	c #D8661C",
"_.	c #C25B18",
":.	c #8A712B",
"<.	c #DCB64A",
"[.	c #FCD156",
"}.	c #FDD256",
"|.	c #FCD053",
"1.	c #FCD78E",
"2.	c #FDE0C7",
"3.	c #FCD6C6",
"4.	c #FAB584",
"5.	c #F89535",
"6.	c #F78122",
"7.	c #F77622",
"8.	c #F77522",
"9.	c #F87722",
"0.	c #8F7579",
"a.	c #BA9A94",
"b.	c #88551C",
"c.	c #DA8A32",
"d.	c #FAA03B",
"e.	c #FBA13C",
"f.	c #FAA03A",
"g.	c #FAA25D",
"h.	c #FAA881",
"i.	c #FBB785",
"j.	c #FDC86A",
"k.	c #FCBF4C",
"l.	c #FA9634",
"m.	c #F87521",
"n.	c #F97722",
"o.	c #BA9993",
"p.	c #884711",
"q.	c #D97521",
"r.	c #F98828",
"s.	c #FA8928",
"t.	c #F98825",
"u.	c #F9871F",
"v.	c #F98724",
"w.	c #F88125",
"x.	c #F77B24",
"y.	c #F99F3B",
"z.	c #F77320",
"A.	c #F87622",
"B.	c #D7651C",
"C.	c #8A5615",
"D.	c #DC8B28",
"E.	c #FCA02F",
"F.	c #FDA12F",
"G.	c #FCA12F",
"H.	c #FB9528",
"I.	c #F8811C",
"J.	c #F99E36",
"K.	c #FCD155",
"L.	c #FCD256",
"M.	c #F9A03B",
"N.	c #F77421",
"O.	c #BF8D8C",
"P.	c #8B5E18",
"Q.	c #DD972C",
"R.	c #FEAB31",
"S.	c #FEA531",
"T.	c #FDAC59",
"U.	c #FEBE83",
"V.	c #FEC282",
"W.	c #FEB558",
"X.	c #FCA028",
"Y.	c #F98721",
"Z.	c #FDD456",
"`.	c #FBA93E",
" +	c #FA8726",
".+	c #FB8928",
"++	c #D97621",
"@+	c #884811",
"#+	c #FDA42A",
"$+	c #FB942C",
"%+	c #FAAB81",
"&+	c #FDD9C5",
"*+	c #FFE0C6",
"=+	c #FEC383",
"-+	c #FED857",
";+	c #FDB842",
">+	c #FCA230",
",+	c #FDA330",
"'+	c #DC8C28",
")+	c #B47D83",
"!+	c #BC8C8C",
"~+	c #C39793",
"{+	c #FBA02C",
"]+	c #FBA038",
"^+	c #FABC86",
"/+	c #FDE6C9",
"(+	c #FFEED3",
"_+	c #FED7AF",
":+	c #FCB681",
"<+	c #F99052",
"[+	c #FCD054",
"}+	c #F9D658",
"|+	c #EFB344",
"1+	c #EA9934",
"2+	c #EA9733",
"3+	c #EB9934",
"4+	c #CC842C",
"5+	c #7F5118",
"6+	c #CAA59D",
"7+	c #CCA89F",
"8+	c #88450F",
"9+	c #FA9E36",
"0+	c #FCC14D",
"a+	c #FDD96F",
"b+	c #FEE893",
"c+	c #FEEFB6",
"d+	c #FDD6C5",
"e+	c #F9A17F",
"f+	c #FCD052",
"g+	c #F0CF58",
"h+	c #D29744",
"i+	c #C06433",
"j+	c #BF6133",
"k+	c #C16434",
"l+	c #A7562B",
"m+	c #673317",
"n+	c #87390A",
"o+	c #F99E3A",
"p+	c #FDD156",
"q+	c #FEE75E",
"r+	c #FEE862",
"s+	c #FEED94",
"t+	c #FFF5CC",
"u+	c #FDDFC7",
"v+	c #F9A681",
"w+	c #EFCC57",
"x+	c #D18B41",
"y+	c #BD462F",
"z+	c #BC422E",
"A+	c #BE472F",
"B+	c #A43C28",
"C+	c #662215",
"D+	c #C49692",
"E+	c #87380A",
"F+	c #F99E3B",
"G+	c #FEE75F",
"H+	c #FEE85F",
"I+	c #FEEA75",
"J+	c #FEEC94",
"K+	c #FCD68E",
"L+	c #F9A15C",
"M+	c #F8CF56",
"N+	c #EB983D",
"O+	c #E46727",
"P+	c #E46426",
"Q+	c #E56727",
"R+	c #C65821",
"S+	c #7C3510",
"T+	c #FDE15E",
"U+	c #FDD859",
"V+	c #FDE25E",
"W+	c #FCD055",
"X+	c #FDD659",
"Y+	c #FAB648",
"Z+	c #FAB646",
"`+	c #FDD656",
" @	c #F99F39",
".@	c #F87520",
"+@	c #873E0D",
"@@	c #FDD356",
"#@	c #FAA83D",
"$@	c #FAA339",
"%@	c #FDC74E",
"&@	c #FCC54D",
"*@	c #F99937",
"=@	c #FAA93E",
"-@	c #F98728",
";@	c #F98626",
">@	c #FA8828",
",@	c #FDD757",
"'@	c #FDB741",
")@	c #FDAA35",
"!@	c #FDB73E",
"~@	c #FCAF3C",
"{@	c #F98E2E",
"]@	c #B18686",
"^@	c #FDCD52",
"/@	c #FEC549",
"(@	c #FEC044",
"_@	c #FEBF43",
":@	c #F98E2D",
"<@	c #FEDA58",
"[@	c #FFC144",
"}@	c #FFAF34",
"|@	c #FFAE33",
"1@	c #FFB034",
"2@	c #DE982C",
"3@	c #873C0D",
"4@	c #F78129",
"5@	c #F99535",
"6@	c #FAB044",
"7@	c #FEDB58",
"8@	c #F99836",
"9@	c #FEAE34",
"0@	c #FEAE33",
"a@	c #91787B",
"b@	c #927C7E",
"c@	c #948183",
"d@	c #968486",
"e@	c #F98727",
"f@	c #FA8827",
"g@	c #FA9E37",
"h@	c #FBC14D",
"i@	c #FEE25F",
"j@	c #BD9F97",
"k@	c #BFA59D",
"l@	c #C4B0A7",
"m@	c #C6B5AC",
"n@	c #C6B5AD",
"o@	c #FCA130",
"p@	c #FDA230",
"q@	c #FB9F32",
"r@	c #FA9F38",
"s@	c #FAB748",
"t@	c #D29643",
"u@	c #C06333",
"v@	c #BF6033",
"w@	c #C16334",
"x@	c #A7552B",
"y@	c #673217",
"z@	c #D0AFA5",
"A@	c #D4B9AF",
"B@	c #D6BEB3",
"C@	c #D6BEB4",
"D@	c #FDAB36",
"E@	c #FFB93F",
"F@	c #FCAE3C",
"G@	c #F98D2D",
"H@	c #F99E39",
"I@	c #EFCD57",
"J@	c #D18C41",
"K@	c #BD432E",
"L@	c #BF472F",
"M@	c #A53D28",
"N@	c #662315",
"O@	c #C89F99",
"P@	c #CAA39C",
"Q@	c #CBA59F",
"R@	c #FAA43A",
"S@	c #FEC94F",
"T@	c #F99936",
"U@	c #FDD758",
"V@	c #FAB863",
"W@	c #FDDC8D",
"X@	c #FCD68C",
"Y@	c #F9A25C",
"Z@	c #EC993D",
"`@	c #E56827",
" #	c #E56626",
".#	c #E66927",
"+#	c #C75A21",
"@#	c #7D3510",
"##	c #C39390",
"$#	c #FEE25C",
"%#	c #FDDE90",
"&#	c #FEEFCA",
"*#	c #F9A781",
"=#	c #FCC24D",
"-#	c #FDD754",
";#	c #FEEFA1",
">#	c #FFFAE4",
",#	c #FDE5E1",
"'#	c #F9A991",
")#	c #FCD051",
"!#	c #EACB58",
"~#	c #BF8343",
"{#	c #A12433",
"]#	c #9F1932",
"^#	c #A22433",
"/#	c #8B1E2B",
"(#	c #560F17",
"_#	c #FBA032",
":#	c #FAB542",
"<#	c #FEEFA2",
"[#	c #FCA02D",
"}#	c #F9A15A",
"|#	c #BE908D",
"1#	c #B68A89",
"2#	c #8B5F18",
"3#	c #F9A680",
"4#	c #FFEED2",
"5#	c #FED7AD",
"6#	c #FCB580",
"7#	c #F99050",
"8#	c #9C797C",
"9#	c #DD962B",
"0#	c #FDA329",
"a#	c #FB932B",
"b#	c #FAAA80",
"c#	c #FDD8C5",
"d#	c #FFDFC6",
"e#	c #FEC283",
"f#	c #FC9F2C",
"g#	c #F98411",
"h#	c #BB9490",
"i#	c #A18483",
"j#	c #8C6F75",
"k#	c #FEA631",
"l#	c #FDAD5A",
"m#	c #FEBF83",
"n#	c #C9A29B",
"o#	c #C9A89E",
"p#	c #C2A39A",
"q#	c #8B6721",
"r#	c #DEA73A",
"s#	c #FFC044",
"t#	c #FFC143",
"u#	c #FEBB61",
"v#	c #FCB182",
"w#	c #FCC86A",
"x#	c #CEABA0",
"y#	c #8B762C",
"z#	c #DDBE4B",
"A#	c #FFDB58",
"B#	c #FEDA57",
"C#	c #FED955",
"D#	c #FED951",
"E#	c #FEDE8F",
"F#	c #FDE3C8",
"G#	c #FAB484",
"H#	c #8B7F32",
"I#	c #936572",
"J#	c #B28787",
"K#	c #A4737B",
"L#	c #AD8183",
"M#	c #A27D7F",
"N#	c #836770",
"O#	c #C0908E",
"P#	c #BB898A",
"Q#	c #C39792",
"R#	c #B88E8B",
"S#	c #A08081",
"T#	c #7F616C",
"U#	c #C49893",
"V#	c #C79F98",
"W#	c #C29792",
"X#	c #BE9C95",
"Y#	c #AA7A7F",
"Z#	c #9A6F77",
"`#	c #BC8989",
" $	c #C1908E",
".$	c #7D5D6B",
"  . + @ # @ @ @ @ $ % & & & & & & & & % $ @ @ $ % % $ @ @ @ @ @ @ @ @ @ @ @ @ @ @ @ @ @ @ @ @ @ @ @ @ @ @ @ @ @ @ # @ + .   * = ",
"- ; > , ' , , , , ) ! ~ ~ ~ ~ ~ ~ ~ ~ ! ) , , ) ! ! ) , , { ] ] { ' , , , , , , , , , , , , , , , , , , , , , , , ' , > ; - ^ / ",
"( _ : < < < < < < [ } | 1 | | | | 1 | } [ < < 2 } } 2 < < < < < < < < < < < < < < < < < < < < < < < < < < < < < < < < 3 4 5 6 7 ",
"8 : 9 0 a 0 0 0 0 b c d d d d d d d d c b 0 0 b c c b 0 0 0 0 0 0 0 0 0 0 0 0 0 0 0 0 0 0 0 0 0 0 0 0 0 0 0 0 0 0 a 0 9 : 8 + e ",
"] < 0 < < < < < < < < < < < < < < < < < < < < < < < < < < < < < < < < < < < < f g g h i g j k k k k k k j g l < < m n ] , o p q ",
"] < a < < < < < < < < < < < < < < < < < < < < < < < < < < < < < < < < < < < < g _ 4 g g 4 r s r r r r s r _ g < < n t u v w x q ",
"] < 0 < < < < < < < < < < < < < < < < < < < < < < < < < < < < < < < < < < < < g _ y z A y B C D D D D C B _ g < < E t F G H I q ",
"] < 0 < < < < < < < < < < < < < < < < < < < < < < < < < < < < < < < < < < < < h g A J J A K L M M M M L K g i < < m n N O P Q q ",
"] < 0 < < < < < < < < < < < < < < < < < < < < < < < < < < < < < < < < < < < < < < 2 } R 2 [ R | 1 1 | } [ < < < < < < h S T U q ",
"] < 0 < < < < < < < < < < < < < < < < < < < < < < < < < < < < < < < < < < < < < < V 2 2 V V W X X X X W V < < < < < < < h Y F q ",
"] < a < < < < < < < < < < < < < < < < < < < < < < < < < < < < < < < < < < < < < < < < < < < < < < < < < < < < < < < < a < ] # q ",
"] < 0 < < < < < < < < < < < < < < < < < < < < < < < < < < < < < < < < < < < < < < < < < < < < < < < < < < < < < < < < a < ] # q ",
"8 : 9 0 a 0 0 0 0 0 0 0 0 0 0 0 0 0 0 0 0 0 0 0 0 0 0 0 0 0 0 0 0 0 0 0 0 0 0 0 0 0 0 0 0 0 0 0 0 0 0 0 0 0 0 0 0 a 0 9 : 8 + e ",
"( _ : < < < < < < < < < < < < < < < < < < < < Z Z Z Z Z Z Z Z Z Z Z Z Z Z Z Z Z Z < < < < < < < < < < < < < < < < < < : _ ( . 7 ",
"` ; > , , , , , , , , , , , , , , , , , , , ,  .........+...@.#.$.%.&.*.=.=.=.=.-., , , , , , , , , , , , , , , , ' , > ; - ^ / ",
"  . + @ # @ @ @ @ @ @ @ @ @ @ @ @ @ @ @ @ Z ;.>.,.'.,.,.).,.!.~.{.].^./.^.^.(.^._.-.Z @ @ @ @ @ @ @ @ @ @ @ @ @ @ # @ + .   * = ",
"% & & & & % $ @ @ @ @ @ @ @ @ @ @ @ @ @ @ Z :.<.[.}.[.[.|.[.1.2.3.4.5.6.7.8.9.7.^.=.Z $ 0.& & & & & & & & % $ @ @ @ @ @ @ @ @ @ ",
"a.~ ~ ~ ~ ! ) , , , , , , , , , , , , , , Z b.c.d.e.d.d.f.d.g.h.i.j.k.l.9.m.n.9.(.=.Z ) o.~ ~ ~ ~ ~ ~ ~ ~ ! ) , , , , , ' { ] ] ",
"} | 1 1 | } [ < < < < < < < < < < < < < < Z p.q.r.s.t.u.u.v.w.x.y.[.[.y.8.z.A.8.B.=.Z [ R | 1 | | | | 1 | } [ < < < < < < < < < ",
"c d d d d c b 0 0 0 0 0 0 0 0 0 0 0 0 0 0 Z C.D.E.F.E.E.G.E.H.I.J.K.L.M.7.N.9.7.^.=.Z b c d d d d d d d d c b 0 0 0 0 0 0 0 0 0 ",
"< < < < < < < < < < < < < i g j k O.h h g Z P.Q.R.S.T.U.V.W.X.Y.y.[.Z.`.s. +.+s.++@+Z < < < < < < < < < < < < < < < < < < < < < ",
"< < < < < < < < < < < < < g _ s s 4 g g 4 Z P.Q.#+$+%+&+*+=+G.u.y.[.-+;+>+G.,+>+'+C.Z < < < < < < < < < < < < < < < < < < < < < ",
"< < < < < < < < < < < V 2 A y )+C !+~+z y Z C.'+{+]+^+/+(+_+:+<+y.[+}+|+1+2+3+1+4+5+Z < < < < < < < < < < < < < < < < < < < < < ",
"< < < < < < < < < < < 2 } J z K L 6+7+J z Z 8+q.9+0+a+b+c+(+d+e+y.f+g+h+i+j+k+i+l+m+Z < < < < < < < < < < < < < < < < < < < < < ",
"< < < < < < < < < < < 2 } R 2 [ R 1 1 } [ Z n+^.o+p+q+r+s+t+u+v+M.f+w+x+y+z+A+y+B+C+Z < < < < < < < < < < < < < < < < < < < < < ",
"< < < < < < < < < < < D+2 2 V V W X X 2 V Z E+B.F+}.G+H+I+J+K+L+y.[+M+N+O+P+Q+O+R+S+Z < < < < < < < < < < < < < < < < < < < < < ",
"< < < < < < < < < < < < < < < < < < < < < Z n+^.F+p+T+U+U+V+[.y.y.W+[.y.8.z.A.8.B.=.Z < < < < < < < < < < < < < < < < < < < < < ",
"< < < < < < < < < < < < < < < < < < < < < Z n+^.y.p+X+Y+Z+`+f+ @y.W+[.M.9..@n.9.(.+@Z < < < < < < < < < < < < < < < < < < < < < ",
"0 0 0 0 0 0 0 0 0 0 0 0 0 0 0 0 0 0 0 0 0 Z n+^.M.}.@@#@$@%@&@*@y.W+@@=@-@;@>@-@q.p.Z 0 0 0 0 0 0 0 0 0 0 0 0 0 0 0 0 0 0 0 0 0 ",
"< < < < < < < < < < < < < < < < < < < < < Z n+^.y.p+,@'@)@!@~@{@y.[.-+;+>+G.,+>+'+C.Z < < < < < < < < < < < < < < < < < < < < < ",
"{ ' , , , , , , , , , , , , , , ]@]@]@]@]@Z &.B.5.k.^@/@(@_@~@:@y.[.<@[@}@|@1@}@2@P.Z , , , , , , , , , , , , , , , , , ' { ] ] ",
"@ @ @ @ @ @ @ @ @ @ @ @ @ @ @ @ @ @ @ @ @ Z 3@^.4@5@6@^@7@<@&@8@y.W+<@(@9@0@}@9@Q.P.Z @ @ @ @ @ @ @ @ @ @ @ @ @ @ @ @ @ @ @ @ @ ",
"  . + @ # @ @ $ % 0.$ $ 0.a@& b@c@d@d@d@d@Z @+++e@f@g@h@U+i@W+F+y.W+}+|+1+2+3+1+4+5+Z @ @ @ @ @ @ @ @ @ @ @ @ @ @ # @ + .   * = ",
"- ; > , ' , , ) ! o.) ) o.j@~ k@l@m@n@n@m@Z C.'+o@p@q@r@s@U+[.y.y.W+g+t@u@v@w@u@x@y@Z , , , , , , , , , , , , , , ' , > ; - ^ / ",
"( _ : < < < < 2 } R 2 [ R | 1 z@A@B@C@C@B@Z C.'+D@E@F@G@H@f+f+ @M.W+I@J@A+K@L@A+M@N@Z < < < < < < < < < < < < < < < < : _ ( . 7 ",
"8 : 9 0 a 0 0 b c c b b c d d O@P@Q@Q@Q@Q@Z 8+++R@S@&@T@F+W+W+y.y.W+M+N+O+P+Q+O+R+S+Z 0 0 0 0 0 0 0 0 0 0 0 0 0 0 a 0 9 : 8 + e ",
"] < 0 < < < < < < < < < < < < < < < < < < Z E+B.y.}.U@Y+V@W@X@Y@y.[+M+Z@`@ #.#`@+#@#Z < < < < < < < < < < < < < < < < a < ] # q ",
"] < a < < < < < < < < < < < < < ##9 9 9 9 Z E+B.F+}.$#U+%#&#u+*#M.f+I@J@A+K@L@A+M@N@Z < < < < < < < < < < < < < < < < a < ] # q ",
"] < 0 < < < < < < < < < < < < < < < < < < Z 8+q.r@=#-#$#;#>#,#'#d.)#!#~#{#]#^#{#/#(#Z < < < < < < < < < < < < 0 0 a 0 < h Y F q ",
"] < 0 < < < < < < < < < < < < < < < < < < Z C.'+_#]+:#U+<#>#,#'#d.)#!#~#{#]#^#{#/#(#Z < < < < < < < < < < < < < < < < h S T U q ",
"] < 0 < < < < < < < < < < < < < < < < < < Z P.Q.[#>@}#1.c+(+d+e+M.f+w+x+y+z+A+y+B+C+Z l g j j g i h g g h |#1#, , ' , N O P Q q ",
"] < 0 < < < < < < < < < < < < < < < < < < Z 2#Q.X.f@3#2.4#5#6#7#y.W+M+Z@`@ #.#`@+#@#Z g _ s s 4 g g 4 4 g n 8#@ v # @ F U H I q ",
"] < a < < < < < < < < < < < < < < < < < < Z P.9#0#a#b#c#d#e#f#g#J.K.L.M.7.N.9.7.^.=.Z g _ s s y A z y y z h#i#% j#@ @ u u w x q ",
"] < 0 < < < < < < < < < < < < < < < < < < Z P.Q.R.k#l#m#V.W.X.Y.y.[.[.M.9..@n.9.(.+@Z l g k j A J n#A z n#o#p#! ) , , ] ' o p q ",
"8 : 9 0 a 0 0 0 0 0 0 0 0 0 0 0 0 0 0 0 0 Z q#r#s#[@s#s#t#s#u#v#i.w#k.l.9.m.n.9.(.=.Z 0 0 0 0 c } } c W } x#x#} W a 0 9 : 8 + e ",
"( _ : < < < < < < < < < < < < < < < < < < Z y#z#<@A#B#C#D#B#E#F#3.G#5.6.7.8.9.7.^.=.Z < < < < V 2 2 V V 2 X X c b a 0 3 4 5 6 7 ",
"- ; > , ' , , , , , , , , , , , , , , , , Z ;.>.,.'.,.,.).,.!.~.{.].^./.^.^.(.^._.-.Z , , , , , , , ]@]@]@]@]@]@, , , > ; - ^ / ",
"  . + @ # @ @ @ @ @ @ @ @ @ @ @ @ @ @ @ @ @ @  .H#H#H#H#+.H#@.#.$.%.&.*.=.=.=.=.-.@ @ @ @ @ @ @ @ @ @ @ @ @ @ @ @ # @ + .   * = ",
"@ @ @ @ @ @ @ @ @ @ @ @ @ @ @ @ @ @ @ @ @ @ @ Z Z Z Z Z Z Z Z Z Z Z Z Z Z Z Z Z Z 0.$ $ 0.& & a@& b@c@d@d@d@d@c@b@& a@% $ @ @ @ ",
"{ ' , , , , , , , , , , , , , , , , , , , , , , , ' , > ; I#^ ^ I#; > , ' , , ) ! o.) ) o.~ ~ j@~ k@l@m@n@n@m@l@k@~ j@! ) { J#] ",
"< < < < < < < < < < < < < < < < < < < < < < < < < a 0 3 4 ( 6 . K#_ : < < < < 2 } R 2 [ R | 1 | | z@A@B@C@C@B@A@z@1 | } [ < < < ",
"0 0 0 0 0 0 0 0 0 0 0 0 0 0 0 0 0 0 0 0 0 0 0 0 0 a 0 9 : L#+ + L#: 9 0 a 0 0 b c c b b c d d d d O@P@Q@Q@Q@Q@P@O@d d c b 0 0 0 ",
"< < < < < < < l g j k k j g l < < f O.O.h < < m 1#, , ] ' M#p @ ' < 0 < < < < < < < < < < < < < < < < < < < < < < < < < < < < < ",
"< < < < < < < g _ r s s r _ g < < g _ _ g < < n t @ v u u N#x # ] < a < < < < < < < < < < < < < < < ##9 9 9 9 ##< < < < < < < < ",
"< < < < < < < g _ B C C B _ g < < O#P#!+Q#W V R#S#% j#F U T#I @ ] < 0 < < < < < < < < < < < < < < < < < < < < < < < < < < < < < ",
"< < < < < < < i g K L L K g i < < U#V#6+7+} [ W#X#! ) N Y#Z#Q @ ' < 0 < < < < < < < < < < < < < < < < < < < < < < < < < < < < < ",
"< < < < < < < < < 2 } } 2 < < < < [ } 1 1 R [ 2 R } 2 h `#O U @ ' < 0 < < < < < < < < < < < < < < < < < < < < < < < < < < < < < ",
"< < < < < < < < < V W W V < < < < D+W X X [ D+D+W c b <  $N F @ , < 0 < < < < < < < < < < < < < < < < < < < < < < < < < < < < < ",
"< < < < < < < < < < < < < < < < < < < < < < < < < < < a < ' # # ' < a < < < < < < < < < < < < < < < < < < < < < < < < < < < < < ",
"< < < < < < < < < < < < < < < < < < < < < < < < < < < a < ' # @ , < 0 < < < < < < < < < < < < < < < < < < < < < < < < < < < < < ",
"0 0 0 0 0 0 0 0 0 0 0 0 0 0 0 0 0 0 0 0 0 0 0 0 0 a 0 9 : L#+ + L#: 9 0 a 0 0 0 0 0 0 0 0 0 0 0 0 0 0 0 0 0 0 0 0 0 0 0 0 0 0 0 ",
"< < < < < < < < < < < < < < < < < < < < < < < < < < < : _ K#. . K#_ : < < < < < < < < < < < < < < < < < < < < < < < < < < < < < ",
"{ ' , , , , , , , , , , , , ]@]@]@]@, , , , , , , , , > ; I#^ ^ I#; > , ' , , , , , , , , , , , , , , , , , , , , , , , ' { ] ] ",
"@ @ @ @ @ @ @ @ @ @ @ @ @ @ @ @ @ @ @ @ @ @ @ @ @ # @ + . .$* * .$. + @ # @ @ @ @ @ @ @ @ @ @ @ @ @ @ @ @ @ @ @ @ @ @ @ @ @ @ @ "};
