/* XPM */
static char * coins4_xpm[] = {
"64 64 462 2",
"  	c #7D5E6B",
". 	c #84636E",
"+ 	c #896972",
"@ 	c #8B6C73",
"# 	c #8B6C74",
"$ 	c #8C7076",
"% 	c #8F7679",
"& 	c #91797B",
"* 	c #735A68",
"= 	c #6E5967",
"- 	c #946672",
"; 	c #A4727A",
"> 	c #AD8082",
", 	c #B18786",
"' 	c #B18787",
") 	c #B48E8B",
"! 	c #BA9A93",
"~ 	c #BDA098",
"{ 	c #B18887",
"] 	c #B28887",
"^ 	c #7C5D6A",
"/ 	c #6C5866",
"( 	c #A5737B",
"_ 	c #B78285",
": 	c #C08E8C",
"< 	c #C39490",
"[ 	c #C69A94",
"} 	c #CBA59C",
"| 	c #CDAAA0",
"1 	c #CEAAA0",
"2 	c #C69A95",
"3 	c #C08F8D",
"4 	c #B88285",
"5 	c #A5747B",
"6 	c #85636E",
"7 	c #6D5967",
"8 	c #AE8183",
"9 	c #C3938F",
"0 	c #C49490",
"a 	c #C49590",
"b 	c #C59792",
"c 	c #C79B95",
"d 	c #C89D96",
"e 	c #6D5867",
"f 	c #C1928F",
"g 	c #BF8E8C",
"h 	c #C1918E",
"i 	c #C1928E",
"j 	c #BD8B8B",
"k 	c #BD8B8A",
"l 	c #C2928F",
"m 	c #BF918E",
"n 	c #B68B89",
"o 	c #A37D7F",
"p 	c #846870",
"q 	c #6D5866",
"r 	c #B37B81",
"s 	c #B37A81",
"t 	c #9C787C",
"u 	c #8B6D74",
"v 	c #8A6C73",
"w 	c #846871",
"x 	c #765F6A",
"y 	c #B98587",
"z 	c #C29491",
"A 	c #C29591",
"B 	c #B47E83",
"C 	c #B68286",
"D 	c #B78588",
"E 	c #B78B89",
"F 	c #8A6A72",
"G 	c #866670",
"H 	c #80626D",
"I 	c #755C69",
"J 	c #C9A39B",
"K 	c #C0928F",
"L 	c #C59D97",
"M 	c #C8A39B",
"N 	c #AF8384",
"O 	c #AA7B7F",
"P 	c #9B6F77",
"Q 	c #80616D",
"R 	c #CBA49C",
"S 	c #BD8989",
"T 	c #AB7B7F",
"U 	c #876670",
"V 	c #C49792",
"W 	c #C69B95",
"X 	c #C79D96",
"Y 	c #B08484",
"Z 	c #000000",
"` 	c #946572",
" .	c #813B0C",
"..	c #873D0D",
"+.	c #873B0C",
"@.	c #873A0B",
"#.	c #88531B",
"$.	c #8A722B",
"%.	c #8B8032",
"&.	c #8B8033",
"*.	c #8B7F30",
"=.	c #8B8458",
"-.	c #8C8A7E",
";.	c #857A30",
">.	c #C25B18",
",.	c #D7661C",
"'.	c #D8661C",
").	c #D7641B",
"!.	c #D98932",
"~.	c #DCB64A",
"{.	c #DDC953",
"].	c #DDCA54",
"^.	c #DDC950",
"/.	c #DECF8C",
"(.	c #DED9C6",
"_.	c #DFDAC6",
":.	c #C7B54A",
"<.	c #857827",
"[.	c #F77622",
"}.	c #F87722",
"|.	c #F77522",
"1.	c #F78129",
"2.	c #F89535",
"3.	c #FAAD43",
"4.	c #FBC550",
"5.	c #FCD156",
"6.	c #FCD053",
"7.	c #FCD68E",
"8.	c #FDE0C7",
"9.	c #FEE1C8",
"0.	c #FCD78E",
"a.	c #8A7124",
"b.	c #8F7579",
"c.	c #BA9A94",
"d.	c #F97722",
"e.	c #F87521",
"f.	c #FA9636",
"g.	c #FCBF4C",
"h.	c #FCC650",
"i.	c #FBAF44",
"j.	c #FAA03B",
"k.	c #FA9F3B",
"l.	c #FAA03A",
"m.	c #FAA35D",
"n.	c #FAA881",
"o.	c #FBA981",
"p.	c #DA8A32",
"q.	c #885518",
"r.	c #BA9993",
"s.	c #D7651C",
"t.	c #F87622",
"u.	c #F77320",
"v.	c #F99F3B",
"w.	c #FDD356",
"x.	c #FAA93E",
"y.	c #F98828",
"z.	c #F98627",
"A.	c #F98825",
"B.	c #F9871F",
"C.	c #F98724",
"D.	c #F98426",
"E.	c #F77B24",
"F.	c #F77421",
"G.	c #FCD256",
"H.	c #FED858",
"I.	c #FDB841",
"J.	c #FCA02F",
"K.	c #FC9F2E",
"L.	c #FCA12D",
"M.	c #FCA029",
"N.	c #FC9725",
"O.	c #F88122",
"P.	c #BF8D8C",
"Q.	c #884811",
"R.	c #D97621",
"S.	c #FA8928",
"T.	c #FB8928",
"U.	c #FA8726",
"V.	c #FBA93D",
"W.	c #FDD456",
"X.	c #FEDA58",
"Y.	c #FEC044",
"Z.	c #FEAB31",
"`.	c #FDA330",
" +	c #FDAC58",
".+	c #FEBE81",
"++	c #FEC281",
"@+	c #FEB55A",
"#+	c #FDA230",
"$+	c #F98725",
"%+	c #873C0D",
"&+	c #8A5615",
"*+	c #DC8C28",
"=+	c #FCA230",
"-+	c #FCA12F",
";+	c #FDB842",
">+	c #FED857",
",+	c #FDA42A",
"'+	c #FA922A",
")+	c #FAAB81",
"!+	c #FDD9C5",
"~+	c #FFE0C6",
"{+	c #FEC383",
"]+	c #B47D83",
"^+	c #BC8C8C",
"/+	c #C39793",
"(+	c #7F5118",
"_+	c #CC842C",
":+	c #EA9934",
"<+	c #EB9934",
"[+	c #EA9733",
"}+	c #EFB244",
"|+	c #F9D658",
"1+	c #FDB741",
"2+	c #FB9E29",
"3+	c #FA9E37",
"4+	c #FABF96",
"5+	c #FDEBE2",
"6+	c #FFEEE1",
"7+	c #FEC893",
"8+	c #FDA129",
"9+	c #F98616",
"0+	c #CAA59D",
"a+	c #CCA89F",
"b+	c #673317",
"c+	c #A7562B",
"d+	c #C06433",
"e+	c #C16434",
"f+	c #BF6133",
"g+	c #D29744",
"h+	c #F0CF58",
"i+	c #FA9E30",
"j+	c #FBC04C",
"k+	c #FDDF9E",
"l+	c #FEF5E3",
"m+	c #FEC894",
"n+	c #F9861A",
"o+	c #662215",
"p+	c #A43C28",
"q+	c #BD462F",
"r+	c #BE472F",
"s+	c #BC422E",
"t+	c #D18B41",
"u+	c #EFCC57",
"v+	c #FDD659",
"w+	c #FBB647",
"x+	c #FAB543",
"y+	c #FDD759",
"z+	c #FEED94",
"A+	c #FFF6CC",
"B+	c #FFEFD3",
"C+	c #FED6AD",
"D+	c #FDB780",
"E+	c #F99050",
"F+	c #873B04",
"G+	c #C49692",
"H+	c #7C3510",
"I+	c #C65821",
"J+	c #E46727",
"K+	c #E56727",
"L+	c #E46426",
"M+	c #EB973D",
"N+	c #F8CF56",
"O+	c #FDE15E",
"P+	c #FDD859",
"Q+	c #FDD758",
"R+	c #FEE25E",
"S+	c #FEE974",
"T+	c #FEEC93",
"U+	c #FEEEB5",
"V+	c #FFEDD2",
"W+	c #FED7C5",
"X+	c #F9A17F",
"Y+	c #873800",
"Z+	c #F99E3A",
"`+	c #FEE761",
" @	c #FEE861",
".@	c #FEE45F",
"+@	c #FEDD5A",
"@@	c #FDD753",
"#@	c #FEF4E3",
"$@	c #FEE6E1",
"%@	c #F9AA91",
"&@	c #873700",
"*@	c #873E0D",
"=@	c #F87520",
"-@	c #FEE862",
";@	c #FEDE5B",
">@	c #FECB4C",
",@	c #FDB639",
"'@	c #FAA738",
")@	c #FBBF95",
"!@	c #FDEBE1",
"~@	c #884711",
"{@	c #D97521",
"]@	c #F98728",
"^@	c #FA8828",
"/@	c #F98626",
"(@	c #FAA73D",
"_@	c #FEDB58",
":@	c #FEBF43",
"<@	c #FDA329",
"[@	c #FA9129",
"}@	c #FAAA80",
"|@	c #FDD8C4",
"1@	c #FED6C4",
"2@	c #F9A27F",
"3@	c #873900",
"4@	c #FDAA30",
"5@	c #FDA32F",
"6@	c #F99254",
"7@	c #B18686",
"8@	c #8B5E18",
"9@	c #DE982C",
"0@	c #FFAF34",
"a@	c #FFB034",
"b@	c #FFAE33",
"c@	c #FFC043",
"d@	c #FDE25E",
"e@	c #FDCD52",
"f@	c #FEC449",
"g@	c #FEC042",
"h@	c #FEC261",
"i@	c #FEC583",
"j@	c #F99154",
"k@	c #DD972C",
"l@	c #FEAE34",
"m@	c #FEAE33",
"n@	c #FAB647",
"o@	c #FAB044",
"p@	c #FDCC51",
"q@	c #FEDA55",
"r@	c #FEE08E",
"s@	c #FFE8C7",
"t@	c #91787B",
"u@	c #927C7E",
"v@	c #948183",
"w@	c #968486",
"x@	c #FAA83D",
"y@	c #FA9F38",
"z@	c #FDD755",
"A@	c #FEE25F",
"B@	c #FEEFA2",
"C@	c #FFF9E3",
"D@	c #FEE6E0",
"E@	c #F9A991",
"F@	c #BD9F97",
"G@	c #BFA59D",
"H@	c #C4B0A7",
"I@	c #C6B5AC",
"J@	c #C6B5AD",
"K@	c #673217",
"L@	c #A7552B",
"M@	c #C06333",
"N@	c #C16334",
"O@	c #BF6033",
"P@	c #D29643",
"Q@	c #FB9F32",
"R@	c #FA9E38",
"S@	c #FAB542",
"T@	c #FFFAE4",
"U@	c #D0AFA5",
"V@	c #D4B9AF",
"W@	c #D6BEB3",
"X@	c #D6BEB4",
"Y@	c #662315",
"Z@	c #A53D28",
"`@	c #BF472F",
" #	c #BD432E",
".#	c #EFCD57",
"+#	c #FCA02E",
"@#	c #F98525",
"##	c #F99D33",
"$#	c #FCD056",
"%#	c #FFFAE3",
"&#	c #C89F99",
"*#	c #CAA39C",
"=#	c #CBA59F",
"-#	c #F98526",
";#	c #7D3510",
">#	c #C75A21",
",#	c #E56827",
"'#	c #E66927",
")#	c #E56626",
"!#	c #EC983D",
"~#	c #FECC4D",
"{#	c #FAB440",
"]#	c #FDD756",
"^#	c #FEEFA1",
"/#	c #C39390",
"(#	c #D18A41",
"_#	c #FFDF5B",
":#	c #FEE15E",
"<#	c #560F17",
"[#	c #8B1E2B",
"}#	c #A12433",
"|#	c #A22433",
"1#	c #9F1932",
"2#	c #BF8243",
"3#	c #EACB58",
"4#	c #BF8343",
"5#	c #FBB748",
"6#	c #FAB544",
"7#	c #FFF5CC",
"8#	c #FFEED2",
"9#	c #FBA93E",
"0#	c #BE908D",
"a#	c #B68A89",
"b#	c #9C797C",
"c#	c #FDD8C5",
"d#	c #FFDFC5",
"e#	c #FEC181",
"f#	c #F98519",
"g#	c #873A0C",
"h#	c #BB9490",
"i#	c #A18483",
"j#	c #8C6F75",
"k#	c #C9A29B",
"l#	c #C9A89E",
"m#	c #C2A39A",
"n#	c #F99636",
"o#	c #FECD52",
"p#	c #FFC64A",
"q#	c #FFC044",
"r#	c #FFC042",
"s#	c #FFC362",
"t#	c #FFC785",
"u#	c #FFC084",
"v#	c #FBAC5E",
"w#	c #885417",
"x#	c #CEABA0",
"y#	c #FEDA54",
"z#	c #FED955",
"A#	c #FEDF8D",
"B#	c #FFE8C8",
"C#	c #FFE7C8",
"D#	c #FDD98E",
"E#	c #88521A",
"F#	c #8B7F32",
"G#	c #8B8358",
"H#	c #8B8A7E",
"I#	c #936572",
"J#	c #B28787",
"K#	c #A4737B",
"L#	c #AD8183",
"M#	c #A27D7F",
"N#	c #836770",
"O#	c #C0908E",
"P#	c #BB898A",
"Q#	c #C39792",
"R#	c #B88E8B",
"S#	c #A08081",
"T#	c #7F616C",
"U#	c #C49893",
"V#	c #C79F98",
"W#	c #C29792",
"X#	c #BE9C95",
"Y#	c #AA7A7F",
"Z#	c #9A6F77",
"`#	c #BC8989",
" $	c #C1908E",
".$	c #7D5D6B",
"  . + @ # @ @ @ @ $ % & & & & & & & & % $ @ @ $ % % $ @ @ @ @ @ @ @ @ @ @ @ @ @ @ @ @ @ @ @ @ @ @ @ @ @ @ @ @ @ @ # @ + .   * = ",
"- ; > , ' , , , , ) ! ~ ~ ~ ~ ~ ~ ~ ~ ! ) , , ) ! ! ) , , { ] ] { ' , , , , , , , , , , , , , , , , , , , , , , , ' , > ; - ^ / ",
"( _ : < < < < < < [ } | 1 | | | | 1 | } [ < < 2 } } 2 < < < < < < < < < < < < < < < < < < < < < < < < < < < < < < < < 3 4 5 6 7 ",
"8 : 9 0 a 0 0 0 0 b c d d d d d d d d c b 0 0 b c c b 0 0 0 0 0 0 0 0 0 0 0 0 0 0 0 0 0 0 0 0 0 0 0 0 0 0 0 0 0 0 a 0 9 : 8 + e ",
"] < 0 < < < < < < < < < < < < < < < < < < < < < < < < < < < < < < < < < < < < f g g h i g j k k k k k k j g l < < m n ] , o p q ",
"] < a < < < < < < < < < < < < < < < < < < < < < < < < < < < < < < < < < < < < g _ 4 g g 4 r s r r r r s r _ g < < n t u v w x q ",
"] < 0 < < < < < < < < < < < < < < < < < < < < < < < < < < < < < < < < < < < < g _ y z A y B C D D D D C B _ g < < E t F G H I q ",
"] < 0 < < < < < < < < < < < < < < < < < < < < < < < < < < < < < < < < < < < < h g A J J A K L M M M M L K g i < < m n N O P Q q ",
"] < 0 < < < < < < < < < < < < < < < < < < < < < < < < < < < < < < < < < < < < < < 2 } R 2 [ R | 1 1 | } [ < < < < < < h S T U q ",
"] < 0 < < < < < < < < < < < < < < < < < < < < < < < < < < < < < < < < < < < < < < V 2 2 V V W X X X X W V < < < < < < < h Y F q ",
"] < a < < < < < < < < < < < < < < < < < < < < < < < < < < < < < < < < < < < < < < < < < < < < < < < < < < < < < < < < a < ] # q ",
"] < 0 < < < < < < < < < < < < < < < < < < < < < < < < < < < < < < < < < < < < < < < < < < < < < < < < < < < < < < < < a < ] # q ",
"8 : 9 0 a 0 0 0 0 0 0 0 0 0 0 0 0 0 0 0 0 0 0 0 0 0 0 0 0 0 0 0 0 0 0 0 0 0 0 0 0 0 0 0 0 0 0 0 0 0 0 0 0 0 0 0 0 a 0 9 : 8 + e ",
"( _ : < < < < < < < < < < < < < < < < < < < < Z Z Z Z Z Z Z Z Z Z Z Z Z Z Z Z Z Z < < < < < < < < < < < < < < < < < < : _ ( . 7 ",
"` ; > , , , , , , , , , , , , , , , , , , , ,  .........+.@.#.$.%.&.*.%.=.-.-.=.;., , , , , , , , , , , , , , , , ' , > ; - ^ / ",
"  . + @ # @ @ @ @ @ @ @ @ @ @ @ @ @ @ @ @ Z  .>.,.'.,.,.).,.!.~.{.].^.{./.(._./.:.<.Z @ @ @ @ @ @ @ @ @ @ @ @ @ @ # @ + .   * = ",
"% & & & & % $ @ @ @ @ @ @ @ @ @ @ @ @ @ @ Z ..,.[.}.|.[.1.2.3.4.5.5.6.5.7.8.9.0.~.a.Z $ b.& & & & & & & & % $ @ @ @ @ @ @ @ @ @ ",
"c.~ ~ ~ ~ ! ) , , , , , , , , , , , , , , Z ..'.}.d.e.}.f.g.h.i.j.k.l.j.m.n.o.m.p.q.Z ) r.~ ~ ~ ~ ~ ~ ~ ~ ! ) , , , , , ' { ] ] ",
"} | 1 1 | } [ < < < < < < < < < < < < < < Z ..s.|.t.u.|.v.5.w.x.y.z.A.B.B.C.D.E.,...Z [ R | 1 | | | | 1 | } [ < < < < < < < < < ",
"c d d d d c b 0 0 0 0 0 0 0 0 0 0 0 0 0 0 Z ..,.[.}.F.[.v.G.H.I.J.K.J.J.L.M.N.O.).+.Z b c d d d d d d d d c b 0 0 0 0 0 0 0 0 0 ",
"< < < < < < < < < < < < < i g j k P.h h g Z Q.R.S.T.U.S.V.W.X.Y.Z.`. +.+++@+#+$+,.%+Z < < < < < < < < < < < < < < < < < < < < < ",
"< < < < < < < < < < < < < g _ s s 4 g g 4 Z &+*+=+`.-+=+;+>+X.Y.,+'+)+!+~+{+`.B.,.%+Z < < < < < < < < < < < < < < < < < < < < < ",
"< < < < < < < < < < < V 2 A y ]+C ^+/+z y Z (+_+:+<+[+:+}+|+>+1+2+3+4+5+6+7+8+9+,.%+Z < < < < < < < < < < < < < < < < < < < < < ",
"< < < < < < < < < < < 2 } J z K L 0+a+J z Z b+c+d+e+f+d+g+h+w.V.i+j+k+l+6+m+#+n+,.%+Z < < < < < < < < < < < < < < < < < < < < < ",
"< < < < < < < < < < < 2 } R 2 [ R 1 1 } [ Z o+p+q+r+s+q+t+u+v+w+x+y+z+A+B+C+D+E+,.F+Z < < < < < < < < < < < < < < < < < < < < < ",
"< < < < < < < < < < < G+2 2 V V W X X 2 V Z H+I+J+K+L+J+M+N+O+P+Q+R+S+T+U+V+W+X+,.Y+Z < < < < < < < < < < < < < < < < < < < < < ",
"< < < < < < < < < < < < < < < < < < < < < Z ..s.|.t.u.|.Z+5.`+ @.@+@@@w.k+#@$@%@,.&@Z < < < < < < < < < < < < < < < < < < < < < ",
"< < < < < < < < < < < < < < < < < < < < < Z *@'.}.d.=@}.Z+5. @-@;@>@,@'@)@!@$@%@,.&@Z < < < < < < < < < < < < < < < < < < < < < ",
"0 0 0 0 0 0 0 0 0 0 0 0 0 0 0 0 0 0 0 0 0 Z ~@{@]@^@/@]@(@w. @-@_@:@<@[@}@|@1@2@,.3@Z 0 0 0 0 0 0 0 0 0 0 0 0 0 0 0 0 0 0 0 0 0 ",
"< < < < < < < < < < < < < < < < < < < < < Z &+*+=+`.-+=+1+>+ @ @X.:@4@5@ +.+D+6@,.F+Z < < < < < < < < < < < < < < < < < < < < < ",
"{ ' , , , , , , , , , , , , , , 7@7@7@7@7@Z 8@9@0@a@b@0@c@X.d@y+e@f@g@:@h@i@D+j@,.F+Z , , , , , , , , , , , , , , , , , ' { ] ] ",
"@ @ @ @ @ @ @ @ @ @ @ @ @ @ @ @ @ @ @ @ @ Z 8@k@l@0@m@l@Y.X.y+n@o@p@q@_@r@s@1@X+,.3@Z @ @ @ @ @ @ @ @ @ @ @ @ @ @ @ @ @ @ @ @ @ ",
"  . + @ # @ @ $ % b.$ $ b.t@& u@v@w@w@w@w@Z (+_+:+<+[+:+}+|+w.x@y@j+z@A@B@C@D@E@,.&@Z @ @ @ @ @ @ @ @ @ @ @ @ @ @ # @ + .   * = ",
"- ; > , ' , , ) ! r.) ) r.F@~ G@H@I@J@J@I@Z K@L@M@N@O@M@P@h+>+I.Q@R@S@P+B@T@$@E@,.&@Z , , , , , , , , , , , , , , ' , > ; - ^ / ",
"( _ : < < < < 2 } R 2 [ R | 1 U@V@W@X@X@W@Z Y@Z@r+`@ #r+t+.#X.c@+#@###$#B@%#D@E@,.&@Z < < < < < < < < < < < < < < < < : _ ( . 7 ",
"8 : 9 0 a 0 0 b c c b b c d d &#*#=#=#=#=#Z H+I+J+K+L+J+M+N+X.Y.J.-###$#B@%#D@E@,.&@Z 0 0 0 0 0 0 0 0 0 0 0 0 0 0 a 0 9 : 8 + e ",
"] < 0 < < < < < < < < < < < < < < < < < < Z ;#>#,#'#)#,#!#N+;@~#1+(@{#]#^#T@$@E@,.&@Z < < < < < < < < < < < < < < < < a < ] # q ",
"] < a < < < < < < < < < < < < < /#9 9 9 9 Z Y@Z@r+`@ #r+(#.#.@_#>+w.z@:#B@C@D@E@,.&@Z < < < < < < < < < < < < < < < < a < ] # q ",
"] < 0 < < < < < < < < < < < < < < < < < < Z <#[#}#|#1#}#2#3#O+P+Q+R+S+T+U+V+W+X+,.Y+Z < < < < < < < < < < < < 0 0 a 0 < h Y F q ",
"] < 0 < < < < < < < < < < < < < < < < < < Z <#[#}#|#1#}#4#3#y+5#6#y+z+7#8#C+D+E+,.F+Z < < < < < < < < < < < < < < < < h S T U q ",
"] < 0 < < < < < < < < < < < < < < < < < < Z o+p+q+r+s+q+t+u+w.9#i+j+k+l+6+m+#+n+,.%+Z l g j j g i h g g h 0#a#, , ' , N O P Q q ",
"] < 0 < < < < < < < < < < < < < < < < < < Z ;#>#,#'#)#,#!#N+>+I.2+3+4+5+6+7+8+9+,.%+Z g _ s s 4 g g 4 4 g n b#@ v # @ F U H I q ",
"] < a < < < < < < < < < < < < < < < < < < Z ..,.[.}.F.[.v.G._@Y.<@[@}@c#d#e#8+f#).g#Z g _ s s y A z y y z h#i#% j#@ @ u u w x q ",
"] < 0 < < < < < < < < < < < < < < < < < < Z *@'.}.d.=@}.v.5.X.Y.Z.`. +.+++@+#+$+,.%+Z l g k j A J k#A z k#l#m#! ) , , ] ' o p q ",
"8 : 9 0 a 0 0 0 0 0 0 0 0 0 0 0 0 0 0 0 0 Z ..'.}.d.e.}.n#g.o#p#q#q#r#q#s#t#u#v#p.w#Z 0 0 0 0 c } } c W } x#x#} W a 0 9 : 8 + e ",
"( _ : < < < < < < < < < < < < < < < < < < Z ..,.[.}.|.[.1.2.o@e@X._@y#z#A#B#C#D#~.a.Z < < < < V 2 2 V V 2 X X c b a 0 3 4 5 6 7 ",
"- ; > , ' , , , , , , , , , , , , , , , , Z  .>.,.'.,.,.).,.!.~.{.].^.{./.(._./.:.<.Z , , , , , , , 7@7@7@7@7@7@, , , > ; - ^ / ",
"  . + @ # @ @ @ @ @ @ @ @ @ @ @ @ @ @ @ @ @ @  .........+.@.E#$.F#F#*.F#G#H#-.G#;.@ @ @ @ @ @ @ @ @ @ @ @ @ @ @ @ # @ + .   * = ",
"@ @ @ @ @ @ @ @ @ @ @ @ @ @ @ @ @ @ @ @ @ @ @ Z Z Z Z Z Z Z Z Z Z Z Z Z Z Z Z Z Z b.$ $ b.& & t@& u@v@w@w@w@w@v@u@& t@% $ @ @ @ ",
"{ ' , , , , , , , , , , , , , , , , , , , , , , , ' , > ; I#^ ^ I#; > , ' , , ) ! r.) ) r.~ ~ F@~ G@H@I@J@J@I@H@G@~ F@! ) { J#] ",
"< < < < < < < < < < < < < < < < < < < < < < < < < a 0 3 4 ( 6 . K#_ : < < < < 2 } R 2 [ R | 1 | | U@V@W@X@X@W@V@U@1 | } [ < < < ",
"0 0 0 0 0 0 0 0 0 0 0 0 0 0 0 0 0 0 0 0 0 0 0 0 0 a 0 9 : L#+ + L#: 9 0 a 0 0 b c c b b c d d d d &#*#=#=#=#=#*#&#d d c b 0 0 0 ",
"< < < < < < < l g j k k j g l < < f P.P.h < < m a#, , ] ' M#p @ ' < 0 < < < < < < < < < < < < < < < < < < < < < < < < < < < < < ",
"< < < < < < < g _ r s s r _ g < < g _ _ g < < n t @ v u u N#x # ] < a < < < < < < < < < < < < < < < /#9 9 9 9 /#< < < < < < < < ",
"< < < < < < < g _ B C C B _ g < < O#P#^+Q#W V R#S#% j#F U T#I @ ] < 0 < < < < < < < < < < < < < < < < < < < < < < < < < < < < < ",
"< < < < < < < i g K L L K g i < < U#V#0+a+} [ W#X#! ) N Y#Z#Q @ ' < 0 < < < < < < < < < < < < < < < < < < < < < < < < < < < < < ",
"< < < < < < < < < 2 } } 2 < < < < [ } 1 1 R [ 2 R } 2 h `#O U @ ' < 0 < < < < < < < < < < < < < < < < < < < < < < < < < < < < < ",
"< < < < < < < < < V W W V < < < < G+W X X [ G+G+W c b <  $N F @ , < 0 < < < < < < < < < < < < < < < < < < < < < < < < < < < < < ",
"< < < < < < < < < < < < < < < < < < < < < < < < < < < a < ' # # ' < a < < < < < < < < < < < < < < < < < < < < < < < < < < < < < ",
"< < < < < < < < < < < < < < < < < < < < < < < < < < < a < ' # @ , < 0 < < < < < < < < < < < < < < < < < < < < < < < < < < < < < ",
"0 0 0 0 0 0 0 0 0 0 0 0 0 0 0 0 0 0 0 0 0 0 0 0 0 a 0 9 : L#+ + L#: 9 0 a 0 0 0 0 0 0 0 0 0 0 0 0 0 0 0 0 0 0 0 0 0 0 0 0 0 0 0 ",
"< < < < < < < < < < < < < < < < < < < < < < < < < < < : _ K#. . K#_ : < < < < < < < < < < < < < < < < < < < < < < < < < < < < < ",
"{ ' , , , , , , , , , , , , 7@7@7@7@, , , , , , , , , > ; I#^ ^ I#; > , ' , , , , , , , , , , , , , , , , , , , , , , , ' { ] ] ",
"@ @ @ @ @ @ @ @ @ @ @ @ @ @ @ @ @ @ @ @ @ @ @ @ @ # @ + . .$* * .$. + @ # @ @ @ @ @ @ @ @ @ @ @ @ @ @ @ @ @ @ @ @ @ @ @ @ @ @ @ "};
