/* XPM */
static char * coins6_xpm[] = {
"64 64 313 2",
"  	c #87CEEB",
". 	c #000000",
"+ 	c #857A30",
"@ 	c #8B8032",
"# 	c #8B7F30",
"$ 	c #8B8458",
"% 	c #8C8A7E",
"& 	c #8A7E7C",
"* 	c #88594E",
"= 	c #873A0B",
"- 	c #873B04",
"; 	c #873D0D",
"> 	c #813B0C",
", 	c #85792F",
"' 	c #C7B54A",
") 	c #DDC953",
"! 	c #DECA54",
"~ 	c #DDC950",
"{ 	c #DED08C",
"] 	c #DED9C6",
"^ 	c #DCC8C3",
"/ 	c #D9937D",
"( 	c #D7661C",
"_ 	c #D7640E",
": 	c #D8661C",
"< 	c #C25B18",
"[ 	c #8A712B",
"} 	c #DCB64A",
"| 	c #FCD156",
"1 	c #FDD256",
"2 	c #FCD053",
"3 	c #FCD78E",
"4 	c #FDE0C7",
"5 	c #FCD6C6",
"6 	c #FAB584",
"7 	c #F89535",
"8 	c #F78122",
"9 	c #F77622",
"0 	c #F77522",
"a 	c #F87722",
"b 	c #88551C",
"c 	c #DA8A32",
"d 	c #FAA03B",
"e 	c #FBA13C",
"f 	c #FAA03A",
"g 	c #FAA25D",
"h 	c #FAA881",
"i 	c #FBB785",
"j 	c #FDC86A",
"k 	c #FCBF4C",
"l 	c #FA9634",
"m 	c #F87521",
"n 	c #F97722",
"o 	c #884711",
"p 	c #D97521",
"q 	c #F98828",
"r 	c #FA8928",
"s 	c #F98825",
"t 	c #F9871F",
"u 	c #F98724",
"v 	c #F88125",
"w 	c #F77B24",
"x 	c #F99F3B",
"y 	c #F77320",
"z 	c #F87622",
"A 	c #D7651C",
"B 	c #8A5615",
"C 	c #DC8B28",
"D 	c #FCA02F",
"E 	c #FDA12F",
"F 	c #FCA12F",
"G 	c #FB9528",
"H 	c #F8811C",
"I 	c #F99E36",
"J 	c #FCD155",
"K 	c #FCD256",
"L 	c #F9A03B",
"M 	c #F77421",
"N 	c #8B5E18",
"O 	c #DD972C",
"P 	c #FEAB31",
"Q 	c #FEA531",
"R 	c #FDAC59",
"S 	c #FEBE83",
"T 	c #FEC282",
"U 	c #FEB558",
"V 	c #FCA028",
"W 	c #F98721",
"X 	c #FDD456",
"Y 	c #FBA93E",
"Z 	c #FA8726",
"` 	c #FB8928",
" .	c #D97621",
"..	c #884811",
"+.	c #FDA42A",
"@.	c #FB942C",
"#.	c #FAAB81",
"$.	c #FDD9C5",
"%.	c #FFE0C6",
"&.	c #FEC383",
"*.	c #FED857",
"=.	c #FDB842",
"-.	c #FCA230",
";.	c #FDA330",
">.	c #DC8C28",
",.	c #FBA02C",
"'.	c #FBA038",
").	c #FABC86",
"!.	c #FDE6C9",
"~.	c #FFEED3",
"{.	c #FED7AF",
"].	c #FCB681",
"^.	c #F99052",
"/.	c #FCD054",
"(.	c #F9D658",
"_.	c #EFB344",
":.	c #EA9934",
"<.	c #EA9733",
"[.	c #EB9934",
"}.	c #CC842C",
"|.	c #7F5118",
"1.	c #88450F",
"2.	c #FA9E36",
"3.	c #FCC14D",
"4.	c #FDD96F",
"5.	c #FEE893",
"6.	c #FEEFB6",
"7.	c #FDD6C5",
"8.	c #F9A17F",
"9.	c #FCD052",
"0.	c #F0CF58",
"a.	c #D29744",
"b.	c #C06433",
"c.	c #BF6133",
"d.	c #C16434",
"e.	c #A7562B",
"f.	c #673317",
"g.	c #87390A",
"h.	c #F99E3A",
"i.	c #FDD156",
"j.	c #FEE75E",
"k.	c #FEE862",
"l.	c #FEED94",
"m.	c #FFF5CC",
"n.	c #FDDFC7",
"o.	c #F9A681",
"p.	c #EFCC57",
"q.	c #D18B41",
"r.	c #BD462F",
"s.	c #BC422E",
"t.	c #BE472F",
"u.	c #A43C28",
"v.	c #662215",
"w.	c #87380A",
"x.	c #F99E3B",
"y.	c #FEE75F",
"z.	c #FEE85F",
"A.	c #FEEA75",
"B.	c #FEEC94",
"C.	c #FCD68E",
"D.	c #F9A15C",
"E.	c #F8CF56",
"F.	c #EB983D",
"G.	c #E46727",
"H.	c #E46426",
"I.	c #E56727",
"J.	c #C65821",
"K.	c #7C3510",
"L.	c #FDE15E",
"M.	c #FDD859",
"N.	c #FDE25E",
"O.	c #FCD055",
"P.	c #FDD659",
"Q.	c #FAB648",
"R.	c #FAB646",
"S.	c #FDD656",
"T.	c #F99F39",
"U.	c #F87520",
"V.	c #873E0D",
"W.	c #FDD356",
"X.	c #FAA83D",
"Y.	c #FAA339",
"Z.	c #FDC74E",
"`.	c #FCC54D",
" +	c #F99937",
".+	c #FAA93E",
"++	c #F98728",
"@+	c #F98626",
"#+	c #FA8828",
"$+	c #FDD757",
"%+	c #FDB741",
"&+	c #FDAA35",
"*+	c #FDB73E",
"=+	c #FCAF3C",
"-+	c #F98E2E",
";+	c #FDCD52",
">+	c #FEC549",
",+	c #FEC044",
"'+	c #FEBF43",
")+	c #F98E2D",
"!+	c #FEDA58",
"~+	c #FFC144",
"{+	c #FFAF34",
"]+	c #FFAE33",
"^+	c #FFB034",
"/+	c #DE982C",
"(+	c #873C0D",
"_+	c #F78129",
":+	c #F99535",
"<+	c #FAB044",
"[+	c #FEDB58",
"}+	c #F99836",
"|+	c #FEAE34",
"1+	c #FEAE33",
"2+	c #F98727",
"3+	c #FA8827",
"4+	c #FA9E37",
"5+	c #FBC14D",
"6+	c #FEE25F",
"7+	c #FCA130",
"8+	c #FDA230",
"9+	c #FB9F32",
"0+	c #FA9F38",
"a+	c #FAB748",
"b+	c #D29643",
"c+	c #C06333",
"d+	c #BF6033",
"e+	c #C16334",
"f+	c #A7552B",
"g+	c #673217",
"h+	c #FDAB36",
"i+	c #FFB93F",
"j+	c #FCAE3C",
"k+	c #F98D2D",
"l+	c #F99E39",
"m+	c #EFCD57",
"n+	c #D18C41",
"o+	c #BD432E",
"p+	c #BF472F",
"q+	c #A53D28",
"r+	c #662315",
"s+	c #FAA43A",
"t+	c #FEC94F",
"u+	c #F99936",
"v+	c #FDD758",
"w+	c #FAB863",
"x+	c #FDDC8D",
"y+	c #FCD68C",
"z+	c #F9A25C",
"A+	c #EC993D",
"B+	c #E56827",
"C+	c #E56626",
"D+	c #E66927",
"E+	c #C75A21",
"F+	c #7D3510",
"G+	c #FEE25C",
"H+	c #FDDE90",
"I+	c #FEEFCA",
"J+	c #F9A781",
"K+	c #FCC24D",
"L+	c #FDD754",
"M+	c #FEEFA1",
"N+	c #FFFAE4",
"O+	c #FDE5E1",
"P+	c #F9A991",
"Q+	c #FCD051",
"R+	c #EACB58",
"S+	c #BF8343",
"T+	c #A12433",
"U+	c #9F1932",
"V+	c #A22433",
"W+	c #8B1E2B",
"X+	c #560F17",
"Y+	c #FBA032",
"Z+	c #FAB542",
"`+	c #FEEFA2",
" @	c #FCA02D",
".@	c #F9A15A",
"+@	c #8B5F18",
"@@	c #F9A680",
"#@	c #FFEED2",
"$@	c #FED7AD",
"%@	c #FCB580",
"&@	c #F99050",
"*@	c #DD962B",
"=@	c #FDA329",
"-@	c #FB932B",
";@	c #FAAA80",
">@	c #FDD8C5",
",@	c #FFDFC6",
"'@	c #FEC283",
")@	c #FC9F2C",
"!@	c #F98411",
"~@	c #FEA631",
"{@	c #FDAD5A",
"]@	c #FEBF83",
"^@	c #8B6721",
"/@	c #DEA73A",
"(@	c #FFC044",
"_@	c #FFC143",
":@	c #FEBB61",
"<@	c #FCB182",
"[@	c #FCC86A",
"}@	c #8B762C",
"|@	c #DDBE4B",
"1@	c #FFDB58",
"2@	c #FEDA57",
"3@	c #FED955",
"4@	c #FED951",
"5@	c #FEDE8F",
"6@	c #FDE3C8",
"7@	c #FAB484",
"8@	c #8B7F32",
"                                                                                                                                ",
"                                                                                                                                ",
"                                                                                                                                ",
"                                                                                                                                ",
"                                                                                                                                ",
"                                                                                                                                ",
"                                                                                                                                ",
"                                                                                                                                ",
"                                                                                                                                ",
"                                                                                                                                ",
"                                                                                                                                ",
"                                                                                                                                ",
"                                                                                                                                ",
"                                              . . . . . . . . . . . . . . . . . .                                               ",
"                                              + @ @ @ @ # @ $ % & * = - ; ; ; ; >                                               ",
"                                          . , ' ) ! ) ) ~ ) { ] ^ / ( _ ( ( : ( < > .                                           ",
"                                          . [ } | 1 | | 2 | 3 4 5 6 7 8 9 0 a 9 ( ; .                                           ",
"                                          . b c d e d d f d g h i j k l a m n a : ; .                                           ",
"                                          . o p q r s t t u v w x | | x 0 y z 0 A ; .                                           ",
"                                          . B C D E D D F D G H I J K L 9 M a 9 ( ; .                                           ",
"                                          . N O P Q R S T U V W x | X Y r Z ` r  ....                                           ",
"                                          . N O +.@.#.$.%.&.F t x | *.=.-.F ;.-.>.B .                                           ",
"                                          . B >.,.'.).!.~.{.].^.x /.(._.:.<.[.:.}.|..                                           ",
"                                          . 1.p 2.3.4.5.6.~.7.8.x 9.0.a.b.c.d.b.e.f..                                           ",
"                                          . g.( h.i.j.k.l.m.n.o.L 9.p.q.r.s.t.r.u.v..                                           ",
"                                          . w.A x.1 y.z.A.B.C.D.x /.E.F.G.H.I.G.J.K..                                           ",
"                                          . g.( x.i.L.M.M.N.| x x O.| x 0 y z 0 A ; .                                           ",
"                                          . g.( x i.P.Q.R.S.9.T.x O.| L a U.n a : V..                                           ",
"                                          . g.( L 1 W.X.Y.Z.`. +x O.W..+++@+#+++p o .                                           ",
"                                          . g.( x i.$+%+&+*+=+-+x | *.=.-.F ;.-.>.B .                                           ",
"                                          . = A 7 k ;+>+,+'+=+)+x | !+~+{+]+^+{+/+N .                                           ",
"                                          . (+( _+:+<+;+[+!+`.}+x O.!+,+|+1+{+|+O N .                                           ",
"                                          . .. .2+3+4+5+M.6+O.x.x O.(._.:.<.[.:.}.|..                                           ",
"                                          . B >.7+8+9+0+a+M.| x x O.0.b+c+d+e+c+f+g+.                                           ",
"                                          . B >.h+i+j+k+l+9.9.T.L O.m+n+t.o+p+t.q+r+.                                           ",
"                                          . 1. .s+t+`.u+x.O.O.x x O.E.F.G.H.I.G.J.K..                                           ",
"                                          . w.A x 1 v+Q.w+x+y+z+x /.E.A+B+C+D+B+E+F+.                                           ",
"                                          . w.A x.1 G+M.H+I+n.J+L 9.m+n+t.o+p+t.q+r+.                                           ",
"                                          . 1.p 0+K+L+G+M+N+O+P+d Q+R+S+T+U+V+T+W+X+.                                           ",
"                                          . B >.Y+'.Z+M.`+N+O+P+d Q+R+S+T+U+V+T+W+X+.                                           ",
"                                          . N O  @#+.@3 6.~.7.8.L 9.p.q.r.s.t.r.u.v..                                           ",
"                                          . +@O V 3+@@4 #@$@%@&@x O.E.A+B+C+D+B+E+F+.                                           ",
"                                          . N *@=@-@;@>@,@'@)@!@I J K L 9 M a 9 ( ; .                                           ",
"                                          . N O P ~@{@]@T U V W x | | L a U.n a : V..                                           ",
"                                          . ^@/@(@~+(@(@_@(@:@<@i [@k l a m n a : ; .                                           ",
"                                          . }@|@!+1@2@3@4@2@5@6@5 7@7 8 9 0 a 9 ( ; .                                           ",
"                                          . , ' ) ! ) ) ~ ) { ] ^ / ( _ ( ( : ( < > .                                           ",
"                                              + 8@8@8@8@# 8@$ % & * = - ; ; ; ; >                                               ",
"                                              . . . . . . . . . . . . . . . . . .                                               ",
"                                                                                                                                ",
"                                                                                                                                ",
"                                                                                                                                ",
"                                                                                                                                ",
"                                                                                                                                ",
"                                                                                                                                ",
"                                                                                                                                ",
"                                                                                                                                ",
"                                                                                                                                ",
"                                                                                                                                ",
"                                                                                                                                ",
"                                                                                                                                ",
"                                                                                                                                ",
"                                                                                                                                ",
"                                                                                                                                "};
