/* XPM */
static char * diam08_xpm[] = {
"64 64 176 2",
"  	c None",
". 	c #3F3851",
"+ 	c #3F374F",
"@ 	c #41405E",
"# 	c #454E73",
"$ 	c #47577E",
"% 	c #495B80",
"& 	c #4A6181",
"* 	c #4B6983",
"= 	c #517386",
"- 	c #597E8A",
"; 	c #5D848D",
"> 	c #5D848C",
", 	c #5A7E88",
"' 	c #454F74",
") 	c #4E6C9E",
"! 	c #557CB2",
"~ 	c #5883B5",
"{ 	c #5A8EB7",
"] 	c #5E9CBA",
"^ 	c #69ADBF",
"/ 	c #79BFC6",
"( 	c #79BEC6",
"_ 	c #81C8CA",
": 	c #76B5B9",
"< 	c #5B7F88",
"[ 	c #4D6796",
"} 	c #5781B8",
"| 	c #5D92C9",
"1 	c #619DCD",
"2 	c #67ABD0",
"3 	c #70BCD5",
"4 	c #7CCDDB",
"5 	c #8ADCE1",
"6 	c #89DBE1",
"7 	c #79CADA",
"8 	c #82D4DE",
"9 	c #8ADDE2",
"0 	c #8EE1E3",
"a 	c #85D0D2",
"b 	c #6EA4A9",
"c 	c #5B8089",
"d 	c #4E6C9F",
"e 	c #5680B8",
"f 	c #5C8EC5",
"g 	c #619CCD",
"h 	c #65AAD1",
"i 	c #70BCD6",
"j 	c #80D0DD",
"k 	c #8ADCE2",
"l 	c #8EE2E4",
"m 	c #7ACBDB",
"n 	c #7DCEDC",
"o 	c #8DDDDF",
"p 	c #85D0D1",
"q 	c #46537D",
"r 	c #5173B0",
"s 	c #5884C6",
"t 	c #5B8BC9",
"u 	c #5F97CB",
"v 	c #64A9CF",
"w 	c #73BFD6",
"x 	c #87D8DF",
"y 	c #90E3E4",
"z 	c #86D7DF",
"A 	c #7FCFDC",
"B 	c #88DAE1",
"C 	c #87D9E0",
"D 	c #454E7C",
"E 	c #4E69AE",
"F 	c #5276C3",
"G 	c #5479C4",
"H 	c #5885C6",
"I 	c #5F99CB",
"J 	c #71B6D4",
"K 	c #86D5DF",
"L 	c #90E4E4",
"M 	c #86D4DE",
"N 	c #71B5D4",
"O 	c #6FBBD5",
"P 	c #75C6D9",
"Q 	c #75C6D8",
"R 	c #6AAEC0",
"S 	c #517486",
"T 	c #444A7B",
"U 	c #4B63AC",
"V 	c #4F6DC0",
"W 	c #4F6DC1",
"X 	c #5377C3",
"Y 	c #5B8BC8",
"Z 	c #6EADD2",
"` 	c #86D2DE",
" .	c #70AFD3",
"..	c #63A1CE",
"+.	c #66AFD1",
"@.	c #68B9D4",
"#.	c #5FA3BC",
"$.	c #4C6D84",
"%.	c #4B62AC",
"&.	c #4F6CC0",
"*.	c #5174C2",
"=.	c #6CA8CF",
"-.	c #85D1DD",
";.	c #65AFD1",
">.	c #68B8D4",
",.	c #68B8D3",
"'.	c #5FA2BB",
").	c #424671",
"!.	c #485A9A",
"~.	c #4C65B1",
"{.	c #4E6BBC",
"].	c #5071C1",
"^.	c #557CC4",
"/.	c #69A2CD",
"(.	c #84CFDC",
"_.	c #64A8D0",
":.	c #66B2D2",
"<.	c #66B4CE",
"[.	c #62A9C2",
"}.	c #5993AC",
"|.	c #4B6980",
"1.	c #403D5D",
"2.	c #424672",
"3.	c #475591",
"4.	c #4C65B2",
"5.	c #5173C2",
"6.	c #679BCB",
"7.	c #83CEDC",
"8.	c #87D7DF",
"9.	c #67B3D2",
"0.	c #67B5D2",
"a.	c #62A8C2",
"b.	c #55869E",
"c.	c #4B6A80",
"d.	c #4B63B1",
"e.	c #6598CB",
"f.	c #83CDDC",
"g.	c #91E4E4",
"h.	c #87DAE0",
"i.	c #74C5D8",
"j.	c #61A8C2",
"k.	c #403C5B",
"l.	c #465291",
"m.	c #6598CA",
"n.	c #54859D",
"o.	c #414371",
"p.	c #5E89BA",
"q.	c #78B9D1",
"r.	c #87D3DE",
"s.	c #8DDEE2",
"t.	c #7ECDD8",
"u.	c #6BB2C6",
"v.	c #4A6880",
"w.	c #403B5B",
"x.	c #4D6495",
"y.	c #73B0D1",
"z.	c #7DCEDB",
"A.	c #6BB3C6",
"B.	c #588A9F",
"C.	c #414270",
"D.	c #6494BD",
"E.	c #83CCD8",
"F.	c #86D5DB",
"G.	c #6FB7C8",
"H.	c #4A687F",
"I.	c #3E365A",
"J.	c #5F8AA0",
"K.	c #81C9CF",
"L.	c #82CCD0",
"M.	c #6499A5",
"N.	c #3E334E",
"O.	c #577781",
"P.	c #74B0B4",
"Q.	c #5C818A",
"R.	c #485464",
"S.	c #56757F",
"                                                                                                                                ",
"                                                                                                                                ",
"                                                                                                                                ",
"                                                                                                                                ",
"                                                                                                                                ",
"                                                                                                                                ",
"                                                                                                                                ",
"                                                                                                                                ",
"                                                                                                                                ",
"                                                                                                                                ",
"                                                                                                                                ",
"                                                                                                                                ",
"                                                                                                                                ",
"                                                                                                                                ",
"                                                                                                                                ",
"                                                                                                                                ",
"                                                                                                                                ",
"                                                                                                                                ",
"                                                                                                                                ",
"                                                                                                                                ",
"                                                                                                                                ",
"                                                                                                                                ",
"                                              . . . . . . . . . . . . . . . .                                                   ",
"                                              + @ # $ % & * = - - = = - ; > ,                                                   ",
"                                          . + . ' ) ! ~ { ] ^ / ( ^ ^ ( _ _ : < .                                               ",
"                                          . @ ' [ } | 1 2 3 4 5 6 4 7 8 9 0 a b c                                               ",
"                                        + . # d e f g h i j k l l k 8 m n k o p : , .                                           ",
"                                        + . q r s t u v w x y y y y z w 3 A B C ( - .                                           ",
"                                        + . D E F G H I J K y L L y M N 2 O P Q R S .                                           ",
"                                        + . T U V W X Y Z ` y L L y `  ...+.@.@.#.$..                                           ",
"                                        + . T %.&.W *.s =.-.y L L y `  ...;.>.,.'.$..                                           ",
"                                        + . ).!.~.{.].^./.(.y L L y M N _.:.<.[.}.|..                                           ",
"                                          . 1.2.3.4.V 5.6.7.y L y y 8.w 9.0.a.b.c.                                              ",
"                                          . + . ).!.d.{.e.f.L g.y y h.i.<.j.}.|..                                               ",
"                                              + k.).l.~.m.f.y L y y C i.[.n.|.                                                  ",
"                                              . + . o.!.p.q.r.s.0 k t.u.}.v..                                                   ",
"                                                  + w.).x.p.y.r.5 z.A.B.|.                                                      ",
"                                                  . + . C.!.D.E.F.G.}.H..                                                       ",
"                                                      + I.o.J.K.L.M.v.                                                          ",
"                                                      . N.. O.P.: Q..                                                           ",
"                                                          + R.S.<                                                               ",
"                                                          . . . .                                                               ",
"                                                                                                                                ",
"                                                                                                                                ",
"                                                                                                                                ",
"                                                                                                                                ",
"                                                                                                                                ",
"                                                                                                                                ",
"                                                                                                                                ",
"                                                                                                                                ",
"                                                                                                                                ",
"                                                                                                                                ",
"                                                                                                                                ",
"                                                                                                                                ",
"                                                                                                                                ",
"                                                                                                                                ",
"                                                                                                                                ",
"                                                                                                                                ",
"                                                                                                                                ",
"                                                                                                                                ",
"                                                                                                                                ",
"                                                                                                                                ",
"                                                                                                                                ",
"                                                                                                                                "};
