/* XPM */
static char * coll2_xpm[] = {
"64 64 699 2",
"  	c #3F3851",
". 	c #F6F5FA",
"+ 	c #DAD8DE",
"@ 	c #D4D3D9",
"# 	c #D3D2D8",
"$ 	c #D3D2D9",
"% 	c #DBDADF",
"& 	c #ECEBF0",
"* 	c #E2E1E7",
"= 	c #AEACB4",
"- 	c #83808B",
"; 	c #817D88",
"> 	c #837F8A",
", 	c #847F8A",
"' 	c #7F7B87",
") 	c #A09EA6",
"! 	c #DAD9DF",
"~ 	c #D9D8DE",
"{ 	c #BEBDC4",
"] 	c #82818C",
"^ 	c #4C364F",
"/ 	c #6A3850",
"( 	c #7F4958",
"_ 	c #86545B",
": 	c #89595D",
"< 	c #89585D",
"[ 	c #88575C",
"} 	c #824D59",
"| 	c #744054",
"1 	c #512847",
"2 	c #7D7985",
"3 	c #D2D1D7",
"4 	c #E5E4E9",
"5 	c #B2B1B8",
"6 	c #75727E",
"7 	c #554D60",
"8 	c #6B4357",
"9 	c #9C5562",
"0 	c #B6686B",
"a 	c #C07871",
"b 	c #C47E74",
"c 	c #C37D73",
"d 	c #C27B72",
"e 	c #BA6E6D",
"f 	c #A75B65",
"g 	c #753F53",
"h 	c #807C87",
"i 	c #D2D1D8",
"j 	c #D7D5DB",
"k 	c #BDBBC2",
"l 	c #888690",
"m 	c #513D54",
"n 	c #6F3E53",
"o 	c #975762",
"p 	c #B86B6D",
"q 	c #CA7A74",
"r 	c #D08378",
"s 	c #D3877A",
"t 	c #D28579",
"u 	c #CE7E76",
"v 	c #BC6F6E",
"w 	c #844E59",
"x 	c #827D88",
"y 	c #EDECF1",
"z 	c #BCBAC1",
"A 	c #73707D",
"B 	c #4A475C",
"C 	c #604256",
"D 	c #985361",
"E 	c #B9686C",
"F 	c #C87B74",
"G 	c #D08478",
"H 	c #D18679",
"I 	c #D18478",
"J 	c #C27A72",
"K 	c #89565C",
"L 	c #B6B4BC",
"M 	c #524D60",
"N 	c #231F43",
"O 	c #644156",
"P 	c #A25764",
"Q 	c #C26C6F",
"R 	c #CE7F76",
"S 	c #D2877A",
"T 	c #D28779",
"U 	c #D18779",
"V 	c #D18579",
"W 	c #CE8077",
"X 	c #BD716E",
"Y 	c #824A54",
"Z 	c #7F7985",
"` 	c #B7B5BD",
" .	c #585465",
"..	c #2D2948",
"+.	c #604055",
"@.	c #995462",
"#.	c #BA686C",
"$.	c #C97B74",
"%.	c #CF8378",
"&.	c #CD8177",
"*.	c #C37370",
"=.	c #AF646B",
"-.	c #875C6A",
";.	c #8E8A94",
">.	c #D3D3D9",
",.	c #302948",
"'.	c #513C53",
").	c #76475A",
"!.	c #9A5963",
"~.	c #B96C6D",
"{.	c #C77472",
"].	c #C77572",
"^.	c #CB7C75",
"/.	c #D18479",
"(.	c #D08579",
"_.	c #CD7F76",
":.	c #A55960",
"<.	c #926370",
"[.	c #AC9FA7",
"}.	c #C6C4CA",
"|.	c #DEDEE3",
"1.	c #332A49",
"2.	c #403851",
"3.	c #453952",
"4.	c #6E4558",
"5.	c #9F5864",
"6.	c #B26069",
"7.	c #B36169",
"8.	c #C37B73",
"9.	c #CA8176",
"0.	c #CE8277",
"a.	c #CF8478",
"b.	c #C47671",
"c.	c #B1656C",
"d.	c #92626F",
"e.	c #908690",
"f.	c #CAC8CE",
"g.	c #EEEDF2",
"h.	c #3E3851",
"i.	c #3A3750",
"j.	c #744659",
"k.	c #824A5C",
"l.	c #824B5C",
"m.	c #85525E",
"n.	c #8F5E62",
"o.	c #A96869",
"p.	c #C17270",
"q.	c #CC7D76",
"r.	c #CE8478",
"s.	c #B06B69",
"t.	c #92646F",
"u.	c #AB9EA6",
"v.	c #C8C6CD",
"w.	c #DFDFE4",
"x.	c #413851",
"y.	c #443952",
"z.	c #463952",
"A.	c #473A52",
"B.	c #533D54",
"C.	c #694557",
"D.	c #8C505E",
"E.	c #AB5E67",
"F.	c #C07170",
"G.	c #CC7F76",
"H.	c #CC8377",
"I.	c #9F6462",
"J.	c #766672",
"K.	c #BEBEC5",
"L.	c #3C3751",
"M.	c #383750",
"N.	c #3D3851",
"O.	c #6D4458",
"P.	c #945260",
"Q.	c #90505F",
"R.	c #844D5D",
"S.	c #A35E65",
"T.	c #C17070",
"U.	c #CC7E76",
"V.	c #9C6361",
"W.	c #716672",
"X.	c #C1C1C8",
"Y.	c #F3F2F7",
"Z.	c #423951",
"`.	c #744759",
" +	c #935260",
".+	c #7A485A",
"++	c #8D4F5E",
"@+	c #AB5F67",
"#+	c #C27672",
"$+	c #D08578",
"%+	c #CD8377",
"&+	c #A86866",
"*+	c #866570",
"=+	c #B4AEB5",
"-+	c #E8E7ED",
";+	c #563D54",
">+	c #714659",
",+	c #8D505F",
"'+	c #9D5663",
")+	c #8C4E5E",
"!+	c #84515E",
"~+	c #B0706D",
"{+	c #BE726F",
"]+	c #A7636C",
"^+	c #977782",
"/+	c #A19DA5",
"(+	c #D1D0D7",
"_+	c #F4F3F8",
":+	c #3C3851",
"<+	c #3B3751",
"[+	c #FBFAFF",
"}+	c #EFEDF3",
"|+	c #B7B6BD",
"1+	c #332A48",
"2+	c #373650",
"3+	c #8C545F",
"4+	c #B3676B",
"5+	c #935761",
"6+	c #694958",
"7+	c #A56C6A",
"8+	c #BD6D6E",
"9+	c #9A535E",
"0+	c #8A6A77",
"a+	c #B9B1B9",
"b+	c #D8D6DC",
"c+	c #E6E5EA",
"d+	c #F5F4F9",
"e+	c #F7F6FB",
"f+	c #B5B3BB",
"g+	c #3A3650",
"h+	c #4C3E53",
"i+	c #956164",
"j+	c #BE7771",
"k+	c #9B6366",
"l+	c #6A4B59",
"m+	c #A56C69",
"n+	c #CA7D75",
"o+	c #BA6B6B",
"p+	c #A6626C",
"q+	c #92747F",
"r+	c #A09DA5",
"s+	c #D6D5DB",
"t+	c #CFCED5",
"u+	c #CFCED4",
"v+	c #D1D0D6",
"w+	c #C8C7CE",
"x+	c #9897A1",
"y+	c #4B475D",
"z+	c #2E2849",
"A+	c #37334F",
"B+	c #35324F",
"C+	c #3A3450",
"D+	c #5F4A58",
"E+	c #896365",
"F+	c #B27870",
"G+	c #C68075",
"H+	c #9E6867",
"I+	c #6C4D59",
"J+	c #CC7C75",
"K+	c #B96B6C",
"L+	c #804855",
"M+	c #807B86",
"N+	c #7A4D56",
"O+	c #774955",
"P+	c #827E87",
"Q+	c #827E88",
"R+	c #827F88",
"S+	c #837F89",
"T+	c #827D87",
"U+	c #7E7983",
"V+	c #696370",
"W+	c #504759",
"X+	c #4A3F53",
"Y+	c #4B4054",
"Z+	c #473E53",
"`+	c #4F4255",
" @	c #8B6767",
".@	c #C0897B",
"+@	c #D18F7F",
"@@	c #CB8478",
"#@	c #9C6666",
"$@	c #6C4C59",
"%@	c #A46B69",
"&@	c #CD8378",
"*@	c #C17972",
"=@	c #88545B",
"-@	c #817C87",
";@	c #B6685F",
">@	c #B5685F",
",@	c #AF5F5B",
"'@	c #A08B7B",
")@	c #A08C7D",
"!@	c #A08C7C",
"~@	c #A19081",
"{@	c #A4988C",
"]@	c #A59D91",
"^@	c #A59D92",
"/@	c #A69D92",
"(@	c #A59C90",
"_@	c #A29486",
":@	c #A08D7D",
"<@	c #9F897A",
"[@	c #9C7F73",
"}@	c #9C7E72",
"|@	c #9F8779",
"1@	c #A29284",
"2@	c #A49A8D",
"3@	c #A4978A",
"4@	c #A08E7F",
"5@	c #9D8375",
"6@	c #9C7D71",
"7@	c #9F8578",
"8@	c #A28C7E",
"9@	c #A08679",
"0@	c #9E7E74",
"a@	c #9E7D73",
"b@	c #9E7E73",
"c@	c #9D7D73",
"d@	c #9F7E74",
"e@	c #BA8F7F",
"f@	c #D8A28B",
"g@	c #DD9C87",
"h@	c #CD8779",
"i@	c #9B6666",
"j@	c #6A4A59",
"k@	c #9F6266",
"l@	c #C87A74",
"m@	c #D18378",
"n@	c #D28679",
"o@	c #D08177",
"p@	c #BF7470",
"q@	c #87525A",
"r@	c #CD7363",
"s@	c #C86C5F",
"t@	c #E0C2A3",
"u@	c #E0C4A5",
"v@	c #E0C4A4",
"w@	c #E2C9AB",
"x@	c #E5D4BA",
"y@	c #E7DAC2",
"z@	c #E7DBC2",
"A@	c #E8DBC2",
"B@	c #E7D8BF",
"C@	c #E4CEB2",
"D@	c #E1C5A6",
"E@	c #DFC0A1",
"F@	c #DBB497",
"G@	c #DBB296",
"H@	c #DFBEA0",
"I@	c #E3CCAF",
"J@	c #E6D6BC",
"K@	c #E5D3B8",
"L@	c #E1C6A8",
"M@	c #DDB99B",
"N@	c #DAB094",
"O@	c #DDB99C",
"P@	c #DCB79A",
"Q@	c #DAAD92",
"R@	c #D9AC91",
"S@	c #DAAC91",
"T@	c #DEAF93",
"U@	c #E2B194",
"V@	c #DEA38B",
"W@	c #CD887A",
"X@	c #664757",
"Y@	c #935360",
"Z@	c #BB6A6D",
"`@	c #CD8478",
" #	c #CB8176",
".#	c #C47572",
"+#	c #B16369",
"@#	c #7C4556",
"##	c #817C88",
"$#	c #D2D2D8",
"%#	c #CE7463",
"&#	c #CE7363",
"*#	c #CD7162",
"=#	c #ECC6A5",
"-#	c #EDC8A6",
";#	c #ECC7A6",
">#	c #EDCBAA",
",#	c #F0D2B5",
"'#	c #F1D7BB",
")#	c #F1D6BA",
"!#	c #F1D4B8",
"~#	c #EECDAF",
"{#	c #EBC5A5",
"]#	c #EBC3A3",
"^#	c #E9BB9C",
"/#	c #E9BA9C",
"(#	c #EAC2A2",
"_#	c #EDCAAB",
":#	c #EFD1B4",
"<#	c #EECFB1",
"[#	c #ECC7A7",
"}#	c #EABFA0",
"|#	c #E9BA9B",
"1#	c #EAC0A0",
"2#	c #ECC5A4",
"3#	c #EABE9F",
"4#	c #E8B899",
"5#	c #E8B799",
"6#	c #E6B597",
"7#	c #DFA58D",
"8#	c #CE897B",
"9#	c #9D6666",
"0#	c #5E4255",
"a#	c #713E54",
"b#	c #904D5A",
"c#	c #9B5C5F",
"d#	c #A06563",
"e#	c #A16563",
"f#	c #A16663",
"g#	c #9F6362",
"h#	c #98575E",
"i#	c #874656",
"j#	c #5C2947",
"k#	c #7C7884",
"l#	c #E7B99A",
"m#	c #E7B99B",
"n#	c #E7BB9D",
"o#	c #E8BC9E",
"p#	c #E8BB9D",
"q#	c #E7BA9D",
"r#	c #E7B899",
"s#	c #E7B799",
"t#	c #E6B799",
"u#	c #E7B89A",
"v#	c #E6B698",
"w#	c #E6B798",
"x#	c #E5B597",
"y#	c #DFA48C",
"z#	c #594558",
"A#	c #594F62",
"B#	c #6E5E6D",
"C#	c #71626F",
"D#	c #72636F",
"E#	c #72626F",
"F#	c #70606E",
"G#	c #6C5E6D",
"H#	c #605768",
"I#	c #8D8A94",
"J#	c #9C6363",
"K#	c #665967",
"L#	c #93939D",
"M#	c #B7B7BE",
"N#	c #BCBBC3",
"O#	c #BBBBC2",
"P#	c #BBBAC1",
"Q#	c #C9C8CE",
"R#	c #E6E5EB",
"S#	c #B5675F",
"T#	c #B4675F",
"U#	c #AE5F5B",
"V#	c #E6B598",
"W#	c #9A6060",
"X#	c #736874",
"Y#	c #BDBDC4",
"Z#	c #F1F0F5",
"`#	c #EFEEF3",
" $	c #F0EFF4",
".$	c #9A5F5F",
"+$	c #766A76",
"@$	c #C4C4CB",
"#$	c #FCFBFF",
"$$	c #6F4052",
"%$	c #613A50",
"&$	c #4D3851",
"*$	c #756A76",
"=$	c #C3C3CA",
"-$	c #F2F0F6",
";$	c #883E4F",
">$	c #A14D53",
",$	c #5F3950",
"'$	c #F1F0F6",
")$	c #A24E53",
"!$	c #BD5D58",
"~$	c #4D3951",
"{$	c #E5B497",
"]$	c #C86B5E",
"^$	c #BA5755",
"/$	c #9E4650",
"($	c #6D3C50",
"_$	c #E5B396",
":$	c #E2AD92",
"<$	c #DD9E88",
"[$	c #9A6160",
"}$	c #CA6C5F",
"|$	c #C05D57",
"1$	c #A54C52",
"2$	c #714051",
"3$	c #E2AE92",
"4$	c #DDA18B",
"5$	c #D99482",
"6$	c #995F60",
"7$	c #756975",
"8$	c #C6695E",
"9$	c #C2645C",
"0$	c #B85758",
"a$	c #9E4A54",
"b$	c #6D3F52",
"c$	c #E5B296",
"d$	c #E4B296",
"e$	c #E4B396",
"f$	c #E5B496",
"g$	c #D89583",
"h$	c #D2887B",
"i$	c #C47772",
"j$	c #915158",
"k$	c #706371",
"l$	c #C3C2C9",
"m$	c #B75354",
"n$	c #B75454",
"o$	c #B04F56",
"p$	c #A24658",
"q$	c #883F58",
"r$	c #613A53",
"s$	c #E4B395",
"t$	c #E5B397",
"u$	c #E4B295",
"v$	c #E4B195",
"w$	c #D1887B",
"x$	c #C67773",
"y$	c #B5676C",
"z$	c #905B68",
"A$	c #837A85",
"B$	c #C6C6CC",
"C$	c #9A414F",
"D$	c #933E52",
"E$	c #833957",
"F$	c #6D3757",
"G$	c #513753",
"H$	c #933F52",
"I$	c #9B414F",
"J$	c #DFA58C",
"K$	c #DFA68D",
"L$	c #DEA58D",
"M$	c #DEA48C",
"N$	c #DEA38C",
"O$	c #DDA38B",
"P$	c #DDA18A",
"Q$	c #DCA08A",
"R$	c #DC9F89",
"S$	c #DD9F89",
"T$	c #DDA089",
"U$	c #DEA28A",
"V$	c #DEA18A",
"W$	c #DB9B87",
"X$	c #D89482",
"Y$	c #D2887C",
"Z$	c #C77873",
"`$	c #AD5E63",
" %	c #925966",
".%	c #A5939C",
"+%	c #C1BDC4",
"@%	c #D8D8DE",
"#%	c #6A3B50",
"$%	c #663A51",
"%%	c #5E3853",
"&%	c #533753",
"*%	c #463852",
"=%	c #C88377",
"-%	c #C88477",
";%	c #C88578",
">%	c #C98578",
",%	c #C78377",
"'%	c #C78376",
")%	c #C78276",
"!%	c #C07671",
"~%	c #B3666B",
"{%	c #99616D",
"]%	c #897A85",
"^%	c #E9E8ED",
"/%	c #473852",
"(%	c #553853",
"_%	c #603953",
":%	c #683A51",
"<%	c #6C3C50",
"[%	c #543853",
"}%	c #8C585C",
"|%	c #8C595C",
"1%	c #864E56",
"2%	c #84505F",
"3%	c #A39099",
"4%	c #C4C1C7",
"5%	c #DADAE0",
"6%	c #3B3851",
"7%	c #6E3757",
"8%	c #817B86",
"9%	c #7E7883",
"0%	c #85808B",
"a%	c #B8B5BD",
"b%	c #E8E6EC",
"c%	c #533853",
"d%	c #6F3757",
"e%	c #843A57",
"f%	c #943F52",
"g%	c #CFCFD5",
"h%	c #D0D0D6",
"i%	c #D9D9DF",
"j%	c #3A3751",
"k%	c #855259",
"l%	c #834E57",
"m%	c #7F4654",
"n%	c #703E51",
"o%	c #543A51",
"p%	c #C87267",
"q%	c #C56A62",
"r%	c #BE5A59",
"s%	c #A44A53",
"t%	c #E27E6C",
"u%	c #E27E6D",
"v%	c #E27F6D",
"w%	c #E07969",
"x%	c #D96B60",
"y%	c #BC5A59",
"z%	c #E37F6D",
"A%	c #E3806D",
"B%	c #E37E6C",
"C%	c #C46A62",
"D%	c #E9977A",
"E%	c #E89478",
"F%	c #E68D74",
"G%	c #E48670",
"H%	c #E3816E",
"I%	c #C77166",
"J%	c #F5BA8E",
"K%	c #F2B389",
"L%	c #EDA380",
"M%	c #E89377",
"N%	c #E48671",
"O%	c #C77167",
"P%	c #FBCA97",
"Q%	c #F9C393",
"R%	c #F3B68B",
"S%	c #EEA581",
"T%	c #E58771",
"U%	c #FBCB97",
"V%	c #FAC896",
"W%	c #F4B88C",
"X%	c #E99477",
"Y%	c #EEA380",
"Z%	c #855159",
"`%	c #F3B389",
" &	c #855059",
".&	c #FBC996",
"+&	c #FBCA96",
"@&	c #F6BB8E",
"#&	c #FDD8A9",
"$&	c #FDD6A4",
"%&	c #FDD29F",
"&&	c #FCCD9A",
"*&	c #FCCB98",
"=&	c #FCCB97",
"-&	c #F9C493",
";&	c #F4B389",
">&	c #E99478",
",&	c #C77267",
"'&	c #FDD4A1",
")&	c #FDD5A4",
"!&	c #FDD9AC",
"~&	c #FEECC2",
"{&	c #FEE6B6",
"]&	c #FDDCA9",
"^&	c #FCD19D",
"/&	c #FEE2B0",
"(&	c #FEE2AF",
"_&	c #FCD19E",
":&	c #FEEFC8",
"<&	c #E0D8B8",
"[&	c #E0D1AB",
"}&	c #DFC79D",
"|&	c #DDB990",
"1&	c #DDB289",
"2&	c #DCB188",
"3&	c #DAAA84",
"4&	c #D4997A",
"5&	c #CF8871",
"6&	c #C9796A",
"7&	c #AF6661",
"8&	c #774C57",
"9&	c #E0D8B7",
"0&	c #E0CEA4",
"a&	c #E0CDA3",
"b&	c #E0DBBE",
"c&	c #948F83",
"d&	c #948A7C",
"e&	c #948474",
"f&	c #937B6D",
"g&	c #927769",
"h&	c #927669",
"i&	c #907267",
"j&	c #8D6862",
"k&	c #8A5E5E",
"l&	c #86565B",
"m&	c #584053",
"n&	c #948878",
"o&	c #948877",
"p&	c #949186",
"                                                              . . . . . . . . . . . . . . . . . . . . . . . . . . . . . .       ",
"                                                              + @ # $ $ # # # # # # # # # # # # # # # # # # $ $ $ # % & .       ",
"                                                            * = - ; > , , , , , , , , , , , , , , , , , , , , , > ' ) ! .       ",
"                                                          ~ { ] ^ / ( _ : < < < < < < < < < < < < < < < < : [ } | 1 2 3 .       ",
"                                                        4 5 6 7 8 9 0 a b c c c c c c c c c c c c c c c c b d e f g h i .       ",
"                                                      j k l m n o p q r s s s s s s s s s s s s s s s s s s t u v w x i .       ",
"                                                    y z A B C D E F G H H H H H H H H H H H H H H H H H H H H I J K x i .       ",
"                                                    y L M N O P Q R S T H H H H H H H H H H H H H H H H H U V W X Y Z 3 .       ",
"                                                    y `  ...+.@.#.$.%.%.G H H H H H H H H H H H H H H H H V &.*.=.-.;.>..       ",
"                                                    y `  .,.'.).!.~.{.].^./.S T H H H H H H H H H H H H (._.*.:.<.[.}.|.        ",
"                                                    y `  .1.2.3.4.5.6.7.~.8.9.0.G H H H H H H H H H H T a.b.c.d.e.f.g.          ",
"                                                    y `  .1.h.i.'.j.k.l.m.n.o.p.q.V U H H H H H H H H T r.s.t.u.v.w.            ",
"                                                    y `  .1.    x.y.z.A.B.C.D.E.F.G.G H H H H H H H H s H.I.J.K.g.              ",
"                                                    y `  .1.    h.L.M.N.O.P.Q.R.S.T.U.V H H H H H H H s H.V.W.X.Y.              ",
"                                                    y `  .1.        L.Z.`.9  +.+++@+#+$+T H H H H H H S %+&+*+=+! -+            ",
"                                                    y `  .1.        h.2.;+>+,+'+)+!+~+r.T H H H H H H T a.{+]+^+/+(+_+          ",
":+N.h.                                h.N.:+<+<+<+[+}+|+ .1+            2+z.3+4+5+6+7+r.S H H H H H H H $+^.8+9+0+a+b+c+<+<+<+<+",
"d+d+d+d+d+d+d+d+d+d+d+d+d+d+d+d+d+d+d+d+d+d+d+d+d+e+y f+ .1.            g+h+i+j+k+l+m+r.S H H H H H H H H G n+o+p+q+r+s+.       ",
"t+t+t+t+t+t+u+u+u+u+u+u+u+u+t+t+t+t+t+t+t+t+t+t+t+v+w+x+y+z+A+A+A+A+B+C+D+E+F+G+H+I+7+r.s H H H H H H H H U $+J+K+L+M+3 . N+N+O+",
"P+Q+P+P+Q+R+S+S+S+S+S+S+S+S+R+Q+P+P+T+T+P+Q+S+R+Q+Q+U+V+W+X+Y+Y+Y+Y+Z+`+ @.@+@@@#@$@%@&@T H H H H H H H H H H I *@=@-@i . ;@>@,@",
"'@)@!@!@~@{@]@^@]@]@]@]@/@(@_@:@!@<@[@}@|@1@2@3@4@5@6@7@8@9@0@a@b@b@c@d@e@f@g@h@i@j@k@l@m@S s s s s s s s s n@o@p@q@x i . r@r@s@",
"t@u@v@v@w@x@y@z@y@y@y@y@A@B@C@D@v@E@F@G@H@I@J@K@L@M@N@O@E@P@Q@R@R@R@R@S@T@U@V@W@#@X@Y@Z@l@%+`@%+%+%+%+%+%+`@ #.#+#@###$#. %#&#*#",
"=#-#;#;#>#,#'#'#'#'#'#'#)#!#~#;#{#]#^#/#(#_#:#<#[#}#|#1#2#3#4#5#4#4#4#5#4#6#7#8#9#0#a#b#c#d#e#d#d#d#d#d#d#f#g#h#i#j#k#3 . %#&#*#",
"l#l#l#l#m#n#o#o#p#p#p#p#p#q#m#r#r#s#t#t#s#u#m#m#u#t#v#t#u#t#v#v#v#v#v#v#w#x#y#8#9#z#A#B#C#D#D#D#D#D#D#D#D#D#E#F#G#H#I#s+. r@r@s@",
"v#v#v#v#v#6#6#6#6#6#v#v#v#v#v#v#v#v#v#v#v#v#v#v#v#v#v#v#v#v#v#v#v#v#v#v#w#x#y#8#J#K#L#M#N#O#O#O#O#O#O#O#O#O#O#O#O#P#Q#R#. S#T#U#",
"v#v#v#v#x#V#v#v#v#v#v#v#v#v#v#v#v#v#v#v#v#v#v#v#v#v#v#v#v#v#v#v#v#v#v#v#w#x#y#8#W#X#Y#& Z#`#`#`#`#`#`#`#`#`#`#`#`#`# $_+. N+N+O+",
"v#v#v#v#v#v#v#v#v#v#v#v#v#v#v#v#v#v#v#v#v#v#v#v#v#v#v#v#v#v#v#v#v#v#v#v#w#x#y#8#.$+$@$_+#$$$O+N+N+N+N+N+N+O+$$%$&$&$%$$$O+N+N+N+",
"v#v#v#v#v#v#v#v#v#v#v#v#v#v#v#v#v#v#v#v#v#v#v#v#v#v#v#v#v#v#v#v#v#v#v#v#w#x#y#8#W#*$=$-$;$>$U#T#>@S#S#>@S#,@>$;$,$,$;$>$U#T#S#T#",
"v#v#v#v#v#v#v#v#v#v#v#v#v#v#v#v#v#v#v#v#v#v#v#v#v#v#v#v#v#v#v#v#v#v#v#v#w#x#y#8#W#*$=$'$)$!$s@r@r@r@r@r@r@s@!$)$$$$$)$!$s@r@r@r@",
"v#v#v#v#v#v#v#v#v#v#v#v#v#v#v#v#v#v#v#v#v#v#v#v#v#v#v#v#v#v#v#v#v#v#v#v#w#x#y#8#W#*$=$'$U#s@*#&#%#&#&#%#&#*#s@U#O+O+U#s@*#&#%#&#",
"v#v#v#v#v#v#v#v#v#v#v#v#v#v#v#v#v#v#v#v#v#v#v#v#v#v#v#v#v#v#v#v#v#v#v#v#w#x#y#8#W#*$=$'$U#s@*#&#%#&#&#%#&#*#s@U#O+O+U#s@*#&#%#&#",
"v#v#v#v#v#v#v#v#v#v#v#v#v#v#v#v#v#v#v#v#v#v#v#v#v#v#v#v#v#v#v#v#v#v#v#v#w#x#y#8#W#*$=$'$)$!$s@r@r@r@r@r@r@s@!$)$$$$$)$!$s@r@r@r@",
"v#v#v#v#v#v#v#v#v#v#v#v#v#v#v#v#v#v#v#v#v#v#v#v#v#v#v#v#v#v#v#v#v#v#v#v#w#x#y#8#W#*$=$'$;$>$U#T#>@S#>@>@S#,@>$;$,$,$;$>$U#T#S#T#",
"v#v#v#v#v#v#v#v#v#v#v#v#v#v#v#v#v#v#v#v#v#v#v#v#v#v#v#v#v#v#v#v#v#v#v#v#w#x#y#8#W#*$=$'$%$$$O+N+N+N+N+N+N+O+$$%$&$&$%$$$O+N+N+N+",
"v#v#v#v#v#v#v#v#v#v#v#v#v#v#v#v#v#v#v#v#v#v#v#v#v#v#v#v#v#v#v#v#v#v#v#v#w#x#y#8#W#*$=$'$N+N+N+O+$$%$~$~$%$$$O+N+N+N+N+N+N+N+N+O+",
"v#v#v#v#v#v#v#v#v#v#v#v#v#v#v#v#v#v#v#v#v#v#v#v#v#v#V#6#v#v#v#v#v#v#v#v#t#x#7#8#W#*$=$'$S#>@T#U#>$;$,$,$;$>$,@S#>@>@S#S#T#S#T#U#",
"v#v#v#v#v#v#v#v#v#v#v#v#v#v#v#v#v#v#v#v#v#v#v#v#v#v#6#v#v#v#v#v#v#v#v#v#v#{$y#8#W#*$=$'$r@%#r@]$^$/$($($/$^$]$r@%#r@r@r@r@%#r@]$",
"v#v#v#v#v#v#v#v#v#v#v#v#v#v#v#v#v#v#v#v#v#v#v#v#v#6#v#v#v#v#v#v#v#v#v#v#_$:$<$W@[$*$=$'$&#%#&#}$|$1$2$2$1$|$}$&#%#&#&#&#&#%#&#}$",
"v#v#v#v#v#v#v#v#v#v#v#v#v#v#v#v#v#V#v#v#v#v#V#x#6#v#v#v#v#v#v#v#v#v#v#x#3$4$5$@@6$7$=$'$8$8$8$9$0$a$b$b$a$0$9$8$8$8$8$8$8$8$8$9$",
"{$6#v#v#v#v#v#v#v#v#v#v#v#v#v#v#{$c$d$e$_$_$_$f$v#s#t#t#t#t#t#t#t#t#{$:$V@g$h$i$j$k$l$'$m$n$m$o$p$q$r$r$q$p$o$m$n$m$m$m$m$n$m$o$",
"s$f$f$x#x#x#{${${${${${$t$t$e$e$u$v$u$u$u$u$u$d$u$d$d$d$d$d$d$d$d$d$:$4$g$w$x$y$z$A$B$-$C$C$C$D$E$F$G$G$F$E$H$C$I$I$C$C$C$C$C$D$",
"V@J$7#K$K$K$7#L$M$N$O$4$P$Q$R$R$S$T$P$P$U$V$P$T$R$R$R$R$R$R$R$R$S$R$W$X$Y$Z$`$ %.%+%@%#%#%#%#%$%%%&%*%*%&%%%$%#%#%#%#%#%#%#%#%$%",
"=%-%;%>%>%>%;%-%-%=%,%'%)%)%)%)%)%)%)%)%)%)%)%)%)%)%)%)%)%)%)%)%)%)%)%G+!%~%{%]%z ^%  /%(%_%:%<%<%<%<%<%<%:%_%[%/%/%[%_%:%<%<%<%",
"}%}%}%|%|%|%}%}%}%}%}%}%}%}%}%}%}%}%}%}%}%}%}%}%}%}%}%}%}%}%}%}%}%}%|%|%1%2%3%4%5%6%:+G$7%E$D$C$C$C$I$I$C$H$E$F$G$G$F$E$D$C$C$C$",
"8%8%8%8%8%8%8%8%8%8%8%8%8%8%8%8%8%8%8%8%8%8%8%8%8%8%8%8%8%8%8%8%8%8%8%8%9%0%a%b%  h.  c%d%e%f%I$I$I$I$I$I$f%e%d%c%c%d%e%f%I$I$I$",
"g%g%g%g%g%g%g%g%g%g%g%g%g%g%g%g%g%g%g%g%g%g%g%g%g%g%g%g%g%g%g%g%g%g%g%g%g%h%i%        /%(%_%:%<%<%<%<%<%<%:%_%[%/%/%[%_%:%<%<%<%",
"d+d+d+d+d+d+d+d+d+d+d+d+d+d+d+d+d+d+d+d+d+d+d+d+d+d+d+d+d+d+d+d+d+d+d+d+d+d+h.h.:+<+j%j%j%j%j%j%j%j%j%j%j%j%j%j%j%j%j%j%j%j%j%j%",
":+:+:+:+:+:+:+N.N.h.    h.N.N.:+:+:+:+:+:+N.N.h.                                        h.N.N.:+:+:+:+:+:+N.N.h.    h.N.N.:+:+:+",
"k%k%k%k%k%k%k%k%k%l%m%n%o%o%n%m%l%k%k%k%k%k%k%k%k%k%k%k%k%k%k%k%k%k%k%l%m%n%o%o%n%m%l%k%k%k%k%k%k%k%k%k%k%k%k%k%k%k%k%k%k%k%k%k%",
"p%p%p%p%p%p%p%p%p%q%r%s%n%n%s%r%q%p%p%p%p%p%p%p%p%p%p%p%p%p%p%p%p%p%p%q%r%s%n%n%s%r%q%p%p%p%p%p%p%p%p%p%p%p%p%p%p%p%p%p%p%p%p%p%",
"t%t%t%t%t%u%u%v%v%w%x%y%m%m%y%x%w%v%v%u%u%t%t%t%t%t%t%t%t%t%t%u%u%v%v%w%x%y%m%m%y%x%w%v%v%u%u%t%t%t%t%t%t%t%t%t%t%t%t%t%t%t%t%t%",
"z%z%z%z%z%z%z%A%z%B%w%C%l%l%C%w%B%z%A%z%z%z%z%z%z%z%z%z%z%z%z%z%z%A%z%B%w%C%l%l%C%w%B%z%A%z%z%z%z%z%z%z%z%z%z%z%z%z%z%z%z%z%z%z%",
"D%D%D%D%D%E%F%G%H%z%v%I%k%k%I%v%z%H%G%F%E%D%D%D%D%D%D%D%D%D%D%E%F%G%H%z%v%I%k%k%I%v%z%H%G%F%E%D%D%D%D%D%D%D%D%D%D%D%D%D%D%D%D%D%",
"J%J%J%J%J%K%L%M%N%A%v%O%k%k%O%v%A%N%M%L%K%J%J%J%J%J%J%J%J%J%J%K%L%M%N%A%v%O%k%k%O%v%A%N%M%L%K%J%J%J%J%J%J%J%J%J%J%J%J%J%J%J%J%J%",
"P%P%P%P%P%Q%R%S%M%T%H%I%k%k%I%H%T%M%S%R%Q%P%P%P%P%P%P%P%P%P%P%Q%R%S%M%T%H%I%k%k%I%H%T%M%S%R%Q%P%P%P%P%P%P%P%P%P%P%P%P%P%P%P%P%P%",
"U%U%U%U%U%V%Q%W%S%X%G%I%k%k%I%G%X%S%W%Q%V%U%U%U%U%U%U%U%U%U%U%V%Q%W%S%X%G%I%k%k%I%G%X%S%W%Q%V%U%U%U%U%U%U%U%U%U%U%U%U%U%U%U%U%U%",
"P%P%P%P%P%P%P%Q%R%Y%F%I%Z%Z%I%F%Y%R%Q%P%P%P%P%P%P%P%P%P%P%P%P%P%P%Q%R%Y%F%I%Z%Z%I%F%Y%R%Q%P%P%P%P%P%P%P%P%P%P%P%P%P%P%P%P%P%P%P%",
"P%P%P%P%P%P%P%V%Q%`%E%I% & &I%E%`%Q%V%P%P%P%P%P%P%P%P%P%P%P%P%P%P%V%Q%`%E%I% & &I%E%`%Q%V%P%P%P%P%P%P%P%P%P%P%P%P%P%P%P%P%P%P%P%",
".&.&+&P%P%P%P%U%P%@&D%I% & &I%D%@&P%U%P%P%P%P%+&.&.&+&P%P%P%P%P%P%U%P%@&D%I% & &I%D%@&P%U%P%P%P%P%P%.&.&.&.&P%P%P%P%P%P%P%+&.&.&",
"P%P%P%P%P%P%P%U%P%@&D%I% & &I%D%@&P%U%P%P%P%P%P%P%P%P%P%P%P%P%P%P%U%P%@&D%I% & &I%D%@&P%U%P%P%P%P%P%P%P%P%P%P%P%P%P%P%P%P%P%P%P%",
"#&#&$&%&&&*&=&.&-&;&>&,&Z%Z%,&>&;&-&.&=&*&&&%&$&#&#&$&'&'&%&&&*&=&.&-&;&>&,&Z%Z%,&>&;&-&.&=&*&&&%&)&#&!&!&#&)&%&&&=&=&&&%&$&#&#&",
"~&~&{&]&^&P%P%Q%R%Y%F%I%Z%Z%I%F%Y%R%Q%P%P%^&]&{&~&~&{&/&(&]&_&P%P%Q%R%Y%F%I%Z%Z%I%F%Y%R%Q%P%P%^&]&{&~&:&:&~&{&]&^&P%P%^&]&{&~&~&",
"<&<&[&}&|&1&2&3&4&5&6&7&8&8&7&6&5&4&3&2&1&|&}&[&<&9&[&0&a&}&|&1&2&3&4&5&6&7&8&8&7&6&5&4&3&2&1&|&}&[&<&b&b&<&[&}&|&2&2&|&}&[&<&<&",
"c&c&d&e&f&g&h&i&j&k&l&8&m&m&8&l&k&j&i&h&g&f&e&d&c&c&d&n&o&e&f&g&h&i&j&k&l&8&m&m&8&l&k&j&i&h&g&f&e&d&c&p&p&c&d&e&f&h&h&f&e&d&c&c&"};
