/* XPM */
static char * coll1_xpm[] = {
"64 64 649 2",
"  	c #3F3851",
". 	c #3E3851",
"+ 	c #3D3851",
"@ 	c #3C3851",
"# 	c #3B3751",
"$ 	c #F5F4F9",
"% 	c #D9D9DF",
"& 	c #D0D0D6",
"* 	c #CFCFD5",
"= 	c #CFCED5",
"- 	c #CFCED4",
"; 	c #E8E7EC",
"> 	c #B8B6BD",
", 	c #86818B",
"' 	c #7E7984",
") 	c #817C86",
"! 	c #827C87",
"~ 	c #827D87",
"{ 	c #827E87",
"] 	c #827E88",
"^ 	c #827F88",
"/ 	c #837F89",
"( 	c #C4C1C7",
"_ 	c #A9969B",
": 	c #906365",
"< 	c #90605F",
"[ 	c #956C67",
"} 	c #99756C",
"| 	c #9A796E",
"1 	c #9A7A6F",
"2 	c #9C8073",
"3 	c #9F897A",
"4 	c #A08C7C",
"5 	c #A08D7E",
"6 	c #A39487",
"7 	c #A59C90",
"8 	c #A69D92",
"9 	c #A59D91",
"0 	c #A59D92",
"a 	c #A4988B",
"b 	c #A18F81",
"c 	c #A08B7C",
"d 	c #9D8376",
"e 	c #9B7D71",
"f 	c #9D8375",
"g 	c #A3978A",
"h 	c #A49A8E",
"i 	c #A29284",
"j 	c #9F887A",
"k 	c #9C7E72",
"l 	c #9A796F",
"m 	c #9B7B70",
"n 	c #E9E8ED",
"o 	c #BDBBC2",
"p 	c #8E7E86",
"q 	c #A87674",
"r 	c #C58378",
"s 	c #CE8E7E",
"t 	c #D29A86",
"u 	c #D7A68D",
"v 	c #D9AC91",
"w 	c #DCB498",
"x 	c #DFC0A1",
"y 	c #E0C4A4",
"z 	c #E1C5A6",
"A 	c #E4CFB3",
"B 	c #E7D9C0",
"C 	c #E8DBC2",
"D 	c #E7DAC2",
"E 	c #E7DBC2",
"F 	c #E5D4B9",
"G 	c #E2C8AA",
"H 	c #E0C3A3",
"I 	c #DDB99C",
"J 	c #DAB094",
"K 	c #DDB89A",
"L 	c #E1C6A7",
"M 	c #E5D2B7",
"N 	c #E6D6BD",
"O 	c #E3CCB0",
"P 	c #DFBFA1",
"Q 	c #DBB296",
"R 	c #D9AB91",
"S 	c #DAAE92",
"T 	c #DDB89B",
"U 	c #D8D8DE",
"V 	c #C2BEC5",
"W 	c #AB989E",
"X 	c #A06F6E",
"Y 	c #BE7C70",
"Z 	c #D79482",
"` 	c #DFA28B",
" .	c #E3AD92",
"..	c #E6B497",
"+.	c #E8B799",
"@.	c #E8B899",
"#.	c #E9BD9D",
"$.	c #ECC5A4",
"%.	c #ECC7A6",
"&.	c #EDC8A7",
"*.	c #EFCFB0",
"=.	c #F1D6B9",
"-.	c #F1D7BB",
";.	c #F0D2B4",
">.	c #EDCAAA",
",.	c #ECC7A5",
"'.	c #EAC0A0",
").	c #E9BA9B",
"!.	c #EABF9F",
"~.	c #EDC8A8",
"{.	c #EFD1B3",
"].	c #F0D4B7",
"^.	c #EECDAE",
"/.	c #EBC4A3",
"(.	c #E9BC9C",
"_.	c #E8B99A",
":.	c #F2F0F6",
"<.	c #C6C5CC",
"[.	c #857C86",
"}.	c #9D6D6E",
"|.	c #C68378",
"1.	c #D59280",
"2.	c #DDA08A",
"3.	c #E2AD92",
"4.	c #E5B497",
"5.	c #E6B698",
"6.	c #E6B799",
"7.	c #E7B89A",
"8.	c #E7B99A",
"9.	c #E7BA9C",
"0.	c #E7BB9E",
"a.	c #E8BC9E",
"b.	c #E7BB9D",
"c.	c #E7B99B",
"d.	c #F1F0F6",
"e.	c #C2C2C9",
"f.	c #716571",
"g.	c #995D5C",
"h.	c #CE887A",
"i.	c #DD9E88",
"j.	c #E2AC91",
"k.	c #E5B396",
"l.	c #E6B598",
"m.	c #E6B597",
"n.	c #E6B697",
"o.	c #E6B798",
"p.	c #C3C3CA",
"q.	c #756A76",
"r.	c #9A6060",
"s.	c #DFA48C",
"t.	c #E5B597",
"u.	c #E5B496",
"v.	c #CE897B",
"w.	c #DFA58D",
"x.	c #E4B396",
"y.	c #E4B195",
"z.	c #FCFBFF",
"A.	c #F4F3F8",
"B.	c #C4C4CB",
"C.	c #766A76",
"D.	c #9A5F5F",
"E.	c #F6F5FA",
"F.	c #F0EFF4",
"G.	c #EFEEF3",
"H.	c #F1F0F5",
"I.	c #ECEBF0",
"J.	c #BDBDC4",
"K.	c #736874",
"L.	c #E6E5EB",
"M.	c #C9C8CE",
"N.	c #BBBAC1",
"O.	c #BBBBC2",
"P.	c #BCBBC3",
"Q.	c #B7B7BE",
"R.	c #93939D",
"S.	c #665967",
"T.	c #9C6463",
"U.	c #CD877A",
"V.	c #DC9D88",
"W.	c #E7B799",
"X.	c #E4B295",
"Y.	c #D6D5DB",
"Z.	c #8D8A94",
"`.	c #605768",
" +	c #6C5E6D",
".+	c #70606E",
"++	c #72626F",
"@+	c #72636F",
"#+	c #71626F",
"$+	c #6E5E6D",
"%+	c #594F62",
"&+	c #594558",
"*+	c #9E6766",
"=+	c #CC8579",
"-+	c #D99482",
";+	c #E1AB91",
">+	c #E4B296",
",+	c #E5B296",
"'+	c #E4B395",
")+	c #D2D1D7",
"!+	c #7C7884",
"~+	c #5C2947",
"{+	c #874656",
"]+	c #98575E",
"^+	c #9F6362",
"/+	c #A16663",
"(+	c #A06563",
"_+	c #A16563",
":+	c #9B5C5F",
"<+	c #904D5A",
"[+	c #713E54",
"}+	c #5E4255",
"|+	c #9D6867",
"1+	c #CC8478",
"2+	c #D68D7D",
"3+	c #D79381",
"4+	c #DA9A86",
"5+	c #DC9F89",
"6+	c #DD9F89",
"7+	c #DDA089",
"8+	c #DEA28A",
"9+	c #DEA38B",
"0+	c #DEA48B",
"a+	c #DDA18A",
"b+	c #DEA18A",
"c+	c #D2D2D8",
"d+	c #817C88",
"e+	c #7C4556",
"f+	c #B16369",
"g+	c #C47572",
"h+	c #CB8176",
"i+	c #CD8478",
"j+	c #CD8377",
"k+	c #C87A74",
"l+	c #BB6A6D",
"m+	c #935360",
"n+	c #664757",
"o+	c #9C6867",
"p+	c #CB8277",
"q+	c #D28679",
"r+	c #CE8378",
"s+	c #CA8377",
"t+	c #C78277",
"u+	c #C78276",
"v+	c #C78376",
"w+	c #C78377",
"x+	c #D2D1D8",
"y+	c #827D88",
"z+	c #87525A",
"A+	c #BF7470",
"B+	c #D08177",
"C+	c #D3877A",
"D+	c #D2877A",
"E+	c #D18378",
"F+	c #9F6266",
"G+	c #6A4A59",
"H+	c #CA8176",
"I+	c #CD7C75",
"J+	c #BF706F",
"K+	c #A56568",
"L+	c #915F62",
"M+	c #8F5E62",
"N+	c #905F62",
"O+	c #8E5C5F",
"P+	c #8C595D",
"Q+	c #8C585C",
"R+	c #817C87",
"S+	c #88545B",
"T+	c #C17972",
"U+	c #D18478",
"V+	c #D18679",
"W+	c #D28779",
"X+	c #CD8378",
"Y+	c #A46B69",
"Z+	c #6C4C59",
"`+	c #C87F75",
" @	c #C17370",
".@	c #A55C65",
"+@	c #79495A",
"@@	c #4B3C53",
"#@	c #463B52",
"$@	c #483C52",
"%@	c #473A51",
"&@	c #4D4156",
"*@	c #67606E",
"=@	c #7D7782",
"-@	c #817B86",
";@	c #807B86",
">@	c #804855",
",@	c #B96B6C",
"'@	c #CC7C75",
")@	c #D08578",
"!@	c #D18779",
"~@	c #CE8478",
"{@	c #A56C6A",
"]@	c #6C4D59",
"^@	c #9E6867",
"/@	c #C47E74",
"(@	c #AA6A6A",
"_@	c #78495A",
":@	c #543B53",
"<@	c #3B3650",
"[@	c #383550",
"}@	c #393650",
"|@	c #302C4B",
"1@	c #4C4A5E",
"2@	c #9998A1",
"3@	c #C8C8CE",
"4@	c #D1D0D7",
"5@	c #A09DA5",
"6@	c #92747F",
"7@	c #A6626C",
"8@	c #BA6B6B",
"9@	c #CA7D75",
"0@	c #D08478",
"a@	c #A56C69",
"b@	c #6A4B59",
"c@	c #9B6366",
"d@	c #BE7771",
"e@	c #956064",
"f@	c #4C3D53",
"g@	c #332A49",
"h@	c #585465",
"i@	c #B5B3BB",
"j@	c #EDECF1",
"k@	c #F7F6FB",
"l@	c #E6E5EA",
"m@	c #D8D6DC",
"n@	c #B9B1B9",
"o@	c #8A6A77",
"p@	c #9A535E",
"q@	c #BD6D6E",
"r@	c #CB7C75",
"s@	c #694958",
"t@	c #935761",
"u@	c #B4676B",
"v@	c #8C5560",
"w@	c #473A52",
"x@	c #383650",
"y@	c #332A48",
"z@	c #B7B6BD",
"A@	c #EFEDF3",
"B@	c #FBFAFF",
"C@	c #B95858",
"D@	c #A24658",
"E@	c #843A57",
"F@	c #5E3853",
"G@	c #A19DA5",
"H@	c #977782",
"I@	c #A7636C",
"J@	c #BE726F",
"K@	c #CF8478",
"L@	c #B0706D",
"M@	c #84515E",
"N@	c #8C4E5E",
"O@	c #9D5663",
"P@	c #8D505F",
"Q@	c #714659",
"R@	c #563D54",
"S@	c #403851",
"T@	c #B7B5BD",
"U@	c #AC5756",
"V@	c #9E4A54",
"W@	c #883E57",
"X@	c #6E3757",
"Y@	c #513753",
"Z@	c #543A51",
"`@	c #703E51",
" #	c #7F4654",
".#	c #834E57",
"+#	c #855259",
"@#	c #E8E7ED",
"##	c #DAD9DF",
"$#	c #B4AEB5",
"%#	c #866570",
"&#	c #A86866",
"*#	c #C27672",
"=#	c #AB5F67",
"-#	c #8D4F5E",
";#	c #7A485A",
">#	c #935260",
",#	c #9C5562",
"'#	c #744759",
")#	c #423951",
"!#	c #3C3751",
"~#	c #754453",
"{#	c #6D3F52",
"]#	c #613A53",
"^#	c #533853",
"/#	c #463852",
"(#	c #A54A53",
"_#	c #BE5A59",
":#	c #C56A62",
"<#	c #C87267",
"[#	c #F3F2F7",
"}#	c #C1C1C8",
"|#	c #716672",
"1#	c #9C6361",
"2#	c #CC8377",
"3#	c #D18579",
"4#	c #CC7E76",
"5#	c #C17070",
"6#	c #A35E65",
"7#	c #844D5D",
"8#	c #90505F",
"9#	c #935160",
"0#	c #6D4358",
"a#	c #373650",
"b#	c #3A3751",
"c#	c #6E3D51",
"d#	c #6B3B50",
"e#	c #673A51",
"f#	c #473852",
"g#	c #D96B60",
"h#	c #E07969",
"i#	c #E27F6D",
"j#	c #E27E6D",
"k#	c #E27E6C",
"l#	c #E07868",
"m#	c #D96A60",
"n#	c #BD5958",
"o#	c #7F4553",
"p#	c #EEEDF2",
"q#	c #BEBEC5",
"r#	c #766672",
"s#	c #9F6462",
"t#	c #CC7F76",
"u#	c #C07170",
"v#	c #AB5E67",
"w#	c #8C505E",
"x#	c #694557",
"y#	c #543F54",
"z#	c #493C52",
"A#	c #463A52",
"B#	c #443952",
"C#	c #9E4550",
"D#	c #9A414F",
"E#	c #9B414F",
"F#	c #943F52",
"G#	c #6F3757",
"H#	c #E37E6C",
"I#	c #E37F6D",
"J#	c #E3806D",
"K#	c #DFDFE4",
"L#	c #C8C6CD",
"M#	c #AB9EA6",
"N#	c #92646F",
"O#	c #B06B69",
"P#	c #CC7D76",
"Q#	c #C17270",
"R#	c #A86869",
"S#	c #916163",
"T#	c #8F6063",
"U#	c #8D5C62",
"V#	c #86525E",
"W#	c #824B5C",
"X#	c #814A5C",
"Y#	c #704558",
"Z#	c #4C3B52",
"`#	c #2C2848",
" $	c #B54D51",
".$	c #AE444E",
"+$	c #A84251",
"@$	c #9B3D56",
"#$	c #E3816E",
"$$	c #E48670",
"%$	c #E68D74",
"&$	c #E89478",
"*$	c #E9977A",
"=$	c #EA987A",
"-$	c #CE8671",
";$	c #895D5E",
">$	c #CAC8CE",
",$	c #908690",
"'$	c #92626F",
")$	c #B1656C",
"!$	c #C47671",
"~$	c #CE8277",
"{$	c #C98076",
"]$	c #C67F75",
"^$	c #C68075",
"/$	c #C27A72",
"($	c #B86A6C",
"_$	c #B36069",
":$	c #B16069",
"<$	c #9A5662",
"[$	c #664357",
"}$	c #382B49",
"|$	c #595465",
"1$	c #B75253",
"2$	c #AF444E",
"3$	c #AD434F",
"4$	c #E48671",
"5$	c #E89377",
"6$	c #EDA380",
"7$	c #F2B389",
"8$	c #F5BA8E",
"9$	c #F6BB8E",
"0$	c #D8A581",
"a$	c #8F6F65",
"b$	c #DEDEE3",
"c$	c #C6C4CA",
"d$	c #AC9FA7",
"e$	c #926370",
"f$	c #A55960",
"g$	c #C37370",
"h$	c #CD7F76",
"i$	c #D08579",
"j$	c #CA7A74",
"k$	c #C77572",
"l$	c #C67472",
"m$	c #B66A6C",
"n$	c #955661",
"o$	c #6C3B51",
"p$	c #625666",
"q$	c #B6B5BD",
"r$	c #EEA581",
"s$	c #F3B68B",
"t$	c #F9C393",
"u$	c #FBCA97",
"v$	c #FCCB98",
"w$	c #DDB289",
"x$	c #927769",
"y$	c #413A51",
"z$	c #D3D3D9",
"A$	c #8E8A94",
"B$	c #875C6A",
"C$	c #AF646B",
"D$	c #CD8177",
"E$	c #CF8378",
"F$	c #C87973",
"G$	c #B7656B",
"H$	c #8F4959",
"I$	c #6B5868",
"J$	c #F4B88C",
"K$	c #FAC896",
"L$	c #FBCB97",
"M$	c #DEB389",
"N$	c #463D52",
"O$	c #7F7985",
"P$	c #824A54",
"Q$	c #BD716E",
"R$	c #CE8077",
"S$	c #CD7D76",
"T$	c #BF696E",
"U$	c #954858",
"V$	c #685263",
"W$	c #B4B4BC",
"X$	c #483E53",
"Y$	c #89565C",
"Z$	c #C77873",
"`$	c #B6666B",
" %	c #975C69",
".%	c #81737F",
"+%	c #BABAC1",
"@%	c #4A3F53",
"#%	c #844E59",
"$%	c #BC6F6E",
"%%	c #CE7E76",
"&%	c #D28579",
"*%	c #D08278",
"=%	c #C87873",
"-%	c #B26366",
";%	c #925561",
">%	c #A08B94",
",%	c #C0BCC3",
"'%	c #794A55",
")%	c #FBCA96",
"!%	c #FBC996",
"~%	c #FCCA97",
"{%	c #927669",
"]%	c #807C87",
"^%	c #753F53",
"/%	c #A75B65",
"(%	c #BA6E6D",
"_%	c #C27B72",
":%	c #C37D73",
"<%	c #C37E73",
"[%	c #BF7670",
"}%	c #B4666A",
"|%	c #9F626D",
"1%	c #8A7681",
"2%	c #B3B1B8",
"3%	c #E5E4E9",
"4%	c #B5675F",
"5%	c #B2625C",
"6%	c #4A4154",
"7%	c #7D7985",
"8%	c #512847",
"9%	c #744054",
"0%	c #824D59",
"a%	c #88575C",
"b%	c #89595D",
"c%	c #89585D",
"d%	c #845058",
"e%	c #7F4A59",
"f%	c #9C8690",
"g%	c #C2BEC4",
"h%	c #CD7363",
"i%	c #CB6F60",
"j%	c #C6655B",
"k%	c #FCCB97",
"l%	c #FCCD9A",
"m%	c #FDD29F",
"n%	c #FDD6A4",
"o%	c #FDD8A9",
"p%	c #FED9A9",
"q%	c #DFBB91",
"r%	c #937C6D",
"s%	c #4C4456",
"t%	c #A09EA6",
"u%	c #7F7B87",
"v%	c #837F8A",
"w%	c #847F8A",
"x%	c #827E89",
"y%	c #85808B",
"z%	c #AFACB4",
"A%	c #E2E1E7",
"B%	c #CE7363",
"C%	c #CD7262",
"D%	c #C2645C",
"E%	c #B04F56",
"F%	c #663A51",
"G%	c #FCD19D",
"H%	c #FDDCA9",
"I%	c #FEE6B6",
"J%	c #FEECC2",
"K%	c #FFECC3",
"L%	c #E0C79E",
"M%	c #948373",
"N%	c #514B59",
"O%	c #DBDADF",
"P%	c #D3D2D8",
"Q%	c #D3D2D9",
"R%	c #D9D8DE",
"S%	c #DEBA90",
"T%	c #E1D2AC",
"U%	c #E1D9B8",
"V%	c #E2DAB9",
"W%	c #C7B694",
"X%	c #85786E",
"Y%	c #4F4959",
"Z%	c #937B6D",
"`%	c #948474",
" &	c #948A7C",
".&	c #948F83",
"+&	c #958F83",
"@&	c #85796F",
"#&	c #5F565D",
"                                                                                                                                ",
"                                                                                                                                ",
"                                                                                                                                ",
"                                                                                                                                ",
"                                                                                                                                ",
"                                                                                                                                ",
"                                                                                                                                ",
"                                                                                                                                ",
"                                                                                                                                ",
"                                                                                                                                ",
"                                                                                                                                ",
"                                                                                                                                ",
"                                                                                                                                ",
"                                                                                                                                ",
"                                                                                                                                ",
"                                                                                                                                ",
"                                                                                                        . + @ # # # # # # # # @ ",
"                                                  $ $ $ $ $ $ $ $ $ $ $ $ $ $ $ $ $ $ $ $ $ $ $ $ $ $ $ $ $ $ $ $ $ $ $ $ $ $ $ ",
"                                                % & * * * = = = = = = = - - - - - - - - = = = = = = = = = = = = = = = = = = = = ",
"                                              ; > , ' ) ! ~ ~ ~ { { ] ^ / / / / / / / / ^ ] { { ~ ~ ~ ] ^ / ] { ~ ~ ~ ~ ~ ~ ~ ~ ",
"                                            % ( _ : < [ } | 1 2 3 4 5 6 7 8 9 9 9 9 0 9 a b 4 c d e f 5 g h i j k l l l l | m d ",
"                                          n o p q r s t u v v w x y z A B C D D D D E D F G y H I J K L M N O P Q v v v v R S T ",
"                                        U V W X Y Z `  ...+.@.#.$.%.&.*.=.-.-.-.-.-.-.-.;.>.%.,.'.).!.~.{.].^./.(.+.+.@.@.+._.'.",
"                                      :.<.[.}.|.1.2.3.4.5.5.5.6.7.8.8.9.0.a.a.a.a.a.a.a.b.c.8.8.6.5.6.c.b.b.9.7.6.5.5.5.5.5.5.6.",
"                                      d.e.f.g.h.i.j.k.5.5.5.5.5.l.l.m.m.m.m.n.n.m.m.m.m.n.5.5.5.5.5.5.m.m.m.m.5.5.o.6.6.6.o.5.5.",
"                                      d.p.q.r.h.s.k.5.5.5.5.5.5.5.5.5.m.t.4.4.4.t.m.5.5.5.m.m.4.4.u.m.5.5.5.5.l.t.m.t.5.5.5.5.5.",
"                                      d.p.q.r.v.w.t.6.5.5.5.5.5.5.5.l.4.k.k.k.4.t.l.5.5.5.5.l.t.x.y.k.l.5.5.5.m.4.l.5.5.5.5.5.5.",
"                                      d.p.q.r.v.s.t.o.5.5.5.5.5.5.5.5.m.l.5.5.5.5.5.5.5.5.5.5.5.l.4.4.5.5.5.5.5.5.5.5.5.5.5.5.5.",
"                                      d.p.q.r.v.s.t.o.5.5.5.5.5.5.5.5.5.5.5.5.5.5.5.5.5.5.5.5.5.5.5.5.5.5.5.5.5.5.5.5.5.5.5.5.5.",
"                                      d.p.q.r.v.s.t.o.5.5.5.5.5.5.5.5.5.5.5.5.5.5.5.5.5.5.5.5.5.5.5.5.5.5.5.5.5.5.5.5.5.5.5.5.5.",
"                                      d.p.q.r.v.s.t.o.5.5.5.5.5.5.5.5.5.5.5.5.5.5.5.5.5.5.5.5.5.5.5.5.5.5.5.5.5.5.5.5.5.5.5.5.5.",
"                                      d.p.q.r.v.s.t.o.5.5.5.5.5.5.5.5.5.5.5.5.5.5.5.5.5.5.5.5.5.5.5.5.5.5.5.5.5.5.5.5.5.5.5.5.5.",
"                                      d.p.q.r.v.s.t.o.5.5.5.5.5.5.5.5.5.5.5.5.5.5.5.5.5.5.5.5.5.5.5.5.5.5.5.5.5.5.5.5.5.5.5.5.5.",
"                                      d.p.q.r.v.s.t.o.5.5.5.5.5.5.5.5.5.5.5.5.5.5.5.5.5.5.5.5.5.5.5.5.5.5.5.5.5.5.5.5.5.5.5.5.5.",
"                                    . d.p.q.r.v.s.t.o.5.5.5.5.5.5.5.5.5.5.5.5.5.5.5.5.5.5.5.5.5.5.5.5.5.5.5.5.5.5.5.5.5.5.5.5.5.",
"                                    + d.p.q.r.v.s.t.o.5.5.5.5.5.5.5.5.5.5.5.5.5.5.5.5.5.5.5.5.5.5.5.5.5.5.5.5.5.5.5.5.5.5.5.5.5.",
"                                    @ :.p.q.r.v.s.t.o.5.5.5.5.5.5.5.5.5.5.5.5.5.5.5.5.5.5.5.5.5.5.5.5.5.5.5.5.5.5.5.5.5.5.5.5.5.",
"                                    z.A.B.C.D.v.w.t.6.5.5.5.5.5.5.5.5.5.5.l.l.5.5.5.5.5.5.5.5.5.5.5.5.5.5.5.5.5.5.5.5.5.5.5.5.5.",
"    E.A.F.G.G.G.G.G.G.G.G.G.G.G.G.G.H.I.J.K.r.h.s.k.5.5.5.5.5.5.5.5.5.5.5.m.t.t.l.5.5.5.5.5.5.l.5.5.5.5.5.5.5.5.5.5.5.5.5.5.5.5.",
"    E.L.M.N.O.O.O.O.O.O.O.O.O.O.O.O.P.Q.R.S.T.U.V.j.k.o.6.6.6.6.6.6.6.6.6.W.5.k.k.4.t.m.m.t.m.5.W.6.6.6.6.6.6.6.6.W.6.t.u.k.k.X.",
"    E.Y.Z.`. +.+++@+@+@+@+@+@+@+@+@+#+$+%+&+*+=+-+2.;+X.x.>+>+>+>+>+>+>+>+>+X.X.X.x.k.k.k.x.,+'+>+>+>+>+>+>+>+>+>+>+X.X.X.X.y.y.",
"    E.)+!+~+{+]+^+/+(+(+(+(+(+(+_+(+:+<+[+}+|+1+2+3+4+5+6+5+5+5+5+5+5+5+5+5+5+7+8+9+0+0+9+8+2.5+5+5+5+5+5+5+5+5+5+5+5+6+6+a+b+b+",
"    E.c+d+e+f+g+h+i+j+j+j+j+j+j+i+j+k+l+m+n+o+p+q+r+s+t+t+t+t+t+t+t+t+u+u+u+u+u+u+v+w+v+v+u+u+u+u+u+u+u+u+u+u+u+u+u+u+u+u+u+u+u+",
"    E.x+y+z+A+B+q+C+C+C+C+C+C+C+C+D+E+k+F+G+o+H+I+J+K+L+M+N+N+N+N+N+M+O+P+Q+Q+Q+Q+Q+Q+Q+Q+Q+Q+Q+Q+Q+Q+Q+Q+Q+Q+Q+Q+Q+Q+Q+Q+Q+Q+Q+",
"    E.x+R+S+T+U+V+V+V+V+V+V+V+V+V+V+W+X+Y+Z+|+`+ @.@+@@@#@$@$@$@$@%@&@*@=@-@-@-@-@-@-@-@-@-@-@-@-@-@-@-@-@-@-@-@-@-@-@-@-@-@-@-@",
"    E.)+;@>@,@'@)@!@V+V+V+V+V+V+V+V+C+~@{@]@^@/@(@_@:@<@[@}@}@}@}@|@1@2@3@4@* * * * * * * * * * * * * * * * * * * * * * * * * * ",
"    E.Y.5@6@7@8@9@0@V+V+V+V+V+V+V+V+D+~@a@b@c@d@e@f@}@            g@h@i@j@k@$ $ $ $ $ $ $ $ $ $ $ $ $ $ $ $ $ $ $ $ $ $ $ $ $ $ ",
"      l@m@n@o@p@q@r@)@V+V+V+V+V+V+V+D+~@{@s@t@u@v@w@x@            y@h@z@A@B@C@D@E@F@  +   . + + @ @ @ @ + + .         . + + @ @ ",
"        A.4@G@H@I@J@K@W+V+V+V+V+V+V+W+~@L@M@N@O@P@Q@R@S@.         g@h@T@j@U@V@W@X@Y@+ @ .   .   Z@`@ #.#+#+#+#+#+#+#+#+#.# #`@Z@",
"          @###$#%#&#j+D+V+V+V+V+V+V+W+)@*#=#-#;#>#,#'#)#!#        g@h@T@j@~#{#]#^#/#        @   `@(#_#:#<#<#<#<#<#<#<#<#:#_#(#`@",
"            [#}#|#1#2#C+V+V+V+V+V+V+V+3#4#5#6#7#8#9#0#!#a#b#b#!#. g@h@T@j@c#d#d#d#d#e#F@^#f##    #_#g#h#i#i#i#i#j#j#j#k#l#m#n#o#",
"            p#q#r#s#2#C+V+V+V+V+V+V+V+V+0@t#u#v#w#x#y#z#A#A#A#B#S@g@h@T@j@C#D#D#E#E#F#E@G#^#b#. .#:#h#H#I#J#I#I#I#I#J#I#H#h#:#.#",
"          K#L#M#N#O#~@W+V+V+V+V+V+V+V+V+!@3#P#Q#R#S#T#U#V#W#X#Y#Z#`#h@T@j@ $.$.$.$.$+$@$E@F@b#+ +#<#i#I#i#i##$$$%$&$*$*$=$*$-$;$",
"        p#>$,$'$)$!$K@W+V+V+V+V+V+V+V+V+V+V+0@~${$]$^$/$($_$:$<$[$}$|$T@j@1$2$.$2$2$3$+$F#e#b#+ +#<#i#J#i#i#4$5$6$7$8$8$9$8$0$a$",
"      b$c$d$e$f$g$h$i$V+V+V+V+V+V+V+V+V+V+V+V+W+W+C+C+0@j$k$l$m$n$o$p$q$j@1$2$.$2$2$3$+$F#e#b#+ +#<#i#I##$4$5$r$s$t$u$u$v$u$w$x$",
"y$  E.z$A$B$C$g$D$3#V+V+V+V+V+V+V+V+V+V+V+V+V+V+V+V+V+3#0@K@E$F$G$H$I$q$j@ $.$.$.$.$+$@$E@F@b#+ +#<#i#I#$$5$r$J$t$K$L$L$v$L$M$x$",
"N$  E.)+O$P$Q$R$3#!@V+V+V+V+V+V+V+V+V+V+V+V+V+V+V+V+V+V+V+W+W+S$T$U$V$W$j@C#D#D#E#E#F#E@G#^#b#. +#<#j#I#%$6$s$t$u$u$u$u$v$u$w$x$",
"X$  E.x+y+Y$/$U+V+V+V+V+V+V+V+V+V+V+V+V+V+V+V+V+V+V+V+V+V+3#E$Z$`$ %.%+%j@c#d#d#d#d#e#F@^#f#b#  +#<#j#I#&$7$t$K$u$u$u$u$v$u$w$x$",
"@%  E.x+y+#%$%%%&%C+C+C+C+C+C+C+C+C+C+C+C+C+C+C+C+C+C+C+C+*%=%-%;%>%,%Y.'%~#{#]#^#/#        b#  +#<#j#J#*$8$u$L$u$u$)%!%~%)%w${%",
"@%  E.x+]%^%/%(%_%/@:%:%:%:%:%:%:%:%:%:%:%:%:%:%:%:%:%<%<%[%}%|%1%2%3%4%5%U@V@W@X@Y@+ @ .   b#  +#<#k#I#*$8$u$L$u$u$u$u$v$u$w$x$",
"6%  E.)+7%8%9%0%a%b%c%c%c%c%c%c%c%c%c%c%c%c%c%c%c%c%c%c%c%d%e%f%g%U h%h%i%j%C@D@E@F@  +     b#  .#:#l#H#=$9$k%v$l%m%n%o%p%n%q%r%",
"s%  E.##t%u%v%w%w%w%w%w%w%w%w%w%w%w%w%w%w%w%w%w%w%w%w%w%w%x%y%z%A%B%B%B%C%i%D%E%F#F%  +     #    #_#m#h#*$8$u$L$G%H%I%J%K%I%L%M%",
"N%  E.I.O%P%Q%Q%Q%P%P%P%P%P%P%P%P%P%P%P%P%P%P%P%P%P%P%P%P%P%z$R%B%B%B%B%C%i%D%E%F#F%  +     @   `@(#n#:#-$0$w$M$S%L%T%U%V%T%W%X%",
"Y%  E.E.E.E.E.E.E.E.E.E.E.E.E.E.E.E.E.E.E.E.E.E.E.E.E.E.E.E.E.E.h%h%h%h%i%j%C@D@E@F@  +     .   Z@`@o#.#;$a${%x$Z%`% &.&+& &@&#&"};
