/* XPM */
static char * live2_xpm[] = {
"64 64 560 2",
"  	c None",
". 	c #F5F4F9",
"+ 	c #CFCED5",
"@ 	c #CFCED4",
"# 	c #CFCFD5",
"$ 	c #D0D0D6",
"% 	c #D9D9DF",
"& 	c #827D87",
"* 	c #827E87",
"= 	c #827E88",
"- 	c #837F89",
"; 	c #827F88",
"> 	c #827C87",
", 	c #817C86",
"' 	c #7E7984",
") 	c #86818B",
"! 	c #B8B6BD",
"~ 	c #E8E7EC",
"{ 	c #9D8376",
"] 	c #9B7B70",
"^ 	c #9A796E",
"/ 	c #9A796F",
"( 	c #9C7E72",
"_ 	c #9F887A",
": 	c #A29284",
"< 	c #A49A8E",
"[ 	c #A3978A",
"} 	c #A08D7E",
"| 	c #9D8375",
"1 	c #9B7D71",
"2 	c #A08B7C",
"3 	c #A08C7C",
"4 	c #A18F81",
"5 	c #A4988B",
"6 	c #A59D91",
"7 	c #A59D92",
"8 	c #A69D92",
"9 	c #A59C90",
"0 	c #A39487",
"a 	c #9F897A",
"b 	c #9C8073",
"c 	c #9A7A6F",
"d 	c #99756C",
"e 	c #956C67",
"f 	c #90605F",
"g 	c #906365",
"h 	c #A9969B",
"i 	c #C4C1C7",
"j 	c #DDB89B",
"k 	c #DAAE92",
"l 	c #D9AB91",
"m 	c #D9AC91",
"n 	c #DBB296",
"o 	c #DFBFA1",
"p 	c #E3CCB0",
"q 	c #E6D6BD",
"r 	c #E5D2B7",
"s 	c #E1C6A7",
"t 	c #DDB89A",
"u 	c #DAB094",
"v 	c #DDB99C",
"w 	c #E0C3A3",
"x 	c #E0C4A4",
"y 	c #E2C8AA",
"z 	c #E5D4B9",
"A 	c #E7DAC2",
"B 	c #E7DBC2",
"C 	c #E8DBC2",
"D 	c #E7D9C0",
"E 	c #E4CFB3",
"F 	c #E1C5A6",
"G 	c #DFC0A1",
"H 	c #DCB498",
"I 	c #D7A68D",
"J 	c #D29A86",
"K 	c #CE8E7E",
"L 	c #C58378",
"M 	c #A87674",
"N 	c #8E7E86",
"O 	c #BDBBC2",
"P 	c #E9E8ED",
"Q 	c #EAC0A0",
"R 	c #E8B99A",
"S 	c #E8B799",
"T 	c #E8B899",
"U 	c #E9BC9C",
"V 	c #EBC4A3",
"W 	c #EECDAE",
"X 	c #F0D4B7",
"Y 	c #EFD1B3",
"Z 	c #EDC8A8",
"` 	c #EABF9F",
" .	c #E9BA9B",
"..	c #ECC7A5",
"+.	c #ECC7A6",
"@.	c #EDCAAA",
"#.	c #F0D2B4",
"$.	c #F1D7BB",
"%.	c #F1D6B9",
"&.	c #EFCFB0",
"*.	c #EDC8A7",
"=.	c #ECC5A4",
"-.	c #E9BD9D",
";.	c #E6B497",
">.	c #E3AD92",
",.	c #DFA28B",
"'.	c #D79482",
").	c #BE7C70",
"!.	c #A06F6E",
"~.	c #AB989E",
"{.	c #C2BEC5",
"].	c #D8D8DE",
"^.	c #E6B799",
"/.	c #E6B698",
"(.	c #E7B89A",
"_.	c #E7BA9C",
":.	c #E7BB9D",
"<.	c #E7B99B",
"[.	c #E7B99A",
"}.	c #E8BC9E",
"|.	c #E7BB9E",
"1.	c #E5B497",
"2.	c #E2AD92",
"3.	c #DDA08A",
"4.	c #D59280",
"5.	c #C68378",
"6.	c #9D6D6E",
"7.	c #857C86",
"8.	c #C6C5CC",
"9.	c #F2F0F6",
"0.	c #E6B798",
"a.	c #E6B597",
"b.	c #E6B697",
"c.	c #E6B598",
"d.	c #E5B396",
"e.	c #E2AC91",
"f.	c #DD9E88",
"g.	c #CE887A",
"h.	c #995D5C",
"i.	c #716571",
"j.	c #C2C2C9",
"k.	c #F1F0F6",
"l.	c #E5B496",
"m.	c #E4B296",
"n.	c #E4B295",
"o.	c #DFA48C",
"p.	c #9A6060",
"q.	c #756A76",
"r.	c #C3C3CA",
"s.	c #E1A990",
"t.	c #E0A78E",
"u.	c #DDA28B",
"v.	c #DA9D87",
"w.	c #DA9C87",
"x.	c #DB9F89",
"y.	c #DFA58D",
"z.	c #E2AC92",
"A.	c #E4B094",
"B.	c #E0A98F",
"C.	c #DA9D88",
"D.	c #E1A98F",
"E.	c #E5B597",
"F.	c #CE897B",
"G.	c #DB9C87",
"H.	c #DA9985",
"I.	c #D69180",
"J.	c #D2897B",
"K.	c #D2887A",
"L.	c #D48C7D",
"M.	c #D89683",
"N.	c #DEA38B",
"O.	c #E4B194",
"P.	c #E1AA90",
"Q.	c #D69080",
"R.	c #D2877A",
"S.	c #D89583",
"T.	c #DB9B87",
"U.	c #D58F7F",
"V.	c #D48D7E",
"W.	c #D18579",
"X.	c #D08578",
"Y.	c #D18779",
"Z.	c #D48B7D",
"`.	c #DA9A86",
" +	c #E2AE93",
".+	c #DEA58D",
"++	c #D2887B",
"@+	c #D1877A",
"#+	c #D58E7E",
"$+	c #D18679",
"%+	c #D79582",
"&+	c #DCA28A",
"*+	c #D38B7C",
"=+	c #D18578",
"-+	c #E1AD92",
";+	c #DCA18A",
">+	c #D38A7C",
",+	c #D99985",
"'+	c #DEA48C",
")+	c #D5907F",
"!+	c #D89482",
"~+	c #E3B094",
"{+	c #E2AB91",
"]+	c #E3AF94",
"^+	c #DFA68E",
"/+	c #E4B195",
"(+	c #D08478",
"_+	c #D79382",
":+	c #9A5F5F",
"<+	c #766A76",
"[+	c #C4C4CB",
"}+	c #F4F3F8",
"|+	c #FCFBFF",
"1+	c #D38C7D",
"2+	c #DDA089",
"3+	c #736874",
"4+	c #BDBDC4",
"5+	c #ECEBF0",
"6+	c #F1F0F5",
"7+	c #EFEEF3",
"8+	c #F0EFF4",
"9+	c #F6F5FA",
"0+	c #DCA089",
"a+	c #E7B799",
"b+	c #DC9D88",
"c+	c #CD877A",
"d+	c #9C6463",
"e+	c #665967",
"f+	c #93939D",
"g+	c #B7B7BE",
"h+	c #BCBBC3",
"i+	c #BBBBC2",
"j+	c #BBBAC1",
"k+	c #C9C8CE",
"l+	c #E6E5EB",
"m+	c #E3AF93",
"n+	c #E4B396",
"o+	c #E1AB91",
"p+	c #D99482",
"q+	c #CC8579",
"r+	c #9E6766",
"s+	c #594558",
"t+	c #594F62",
"u+	c #6E5E6D",
"v+	c #71626F",
"w+	c #72636F",
"x+	c #72626F",
"y+	c #70606E",
"z+	c #6C5E6D",
"A+	c #605768",
"B+	c #8D8A94",
"C+	c #D6D5DB",
"D+	c #DD9F89",
"E+	c #DC9F89",
"F+	c #D79381",
"G+	c #D68D7D",
"H+	c #CC8478",
"I+	c #9D6867",
"J+	c #5E4255",
"K+	c #713E54",
"L+	c #904D5A",
"M+	c #9B5C5F",
"N+	c #A06563",
"O+	c #A16563",
"P+	c #A16663",
"Q+	c #9F6362",
"R+	c #98575E",
"S+	c #874656",
"T+	c #5C2947",
"U+	c #7C7884",
"V+	c #D2D1D7",
"W+	c #C78276",
"X+	c #C78277",
"Y+	c #CA8377",
"Z+	c #CE8378",
"`+	c #D28679",
" @	c #CB8277",
".@	c #9C6867",
"+@	c #664757",
"@@	c #935360",
"#@	c #BB6A6D",
"$@	c #C87A74",
"%@	c #CD8377",
"&@	c #CD8478",
"*@	c #CB8176",
"=@	c #C47572",
"-@	c #B16369",
";@	c #7C4556",
">@	c #817C88",
",@	c #D2D2D8",
"'@	c #8C585C",
")@	c #8C595D",
"!@	c #8E5C5F",
"~@	c #8F5E62",
"{@	c #905F62",
"]@	c #915F62",
"^@	c #A56568",
"/@	c #BF706F",
"(@	c #CD7C75",
"_@	c #CA8176",
":@	c #6A4A59",
"<@	c #9F6266",
"[@	c #D18378",
"}@	c #D3877A",
"|@	c #D08177",
"1@	c #BF7470",
"2@	c #87525A",
"3@	c #827D88",
"4@	c #D2D1D8",
"5@	c #817B86",
"6@	c #7D7782",
"7@	c #67606E",
"8@	c #4D4156",
"9@	c #473A51",
"0@	c #483C52",
"a@	c #463B52",
"b@	c #4B3C53",
"c@	c #79495A",
"d@	c #A55C65",
"e@	c #C17370",
"f@	c #C87F75",
"g@	c #6C4C59",
"h@	c #A46B69",
"i@	c #CD8378",
"j@	c #D28779",
"k@	c #D18478",
"l@	c #C17972",
"m@	c #88545B",
"n@	c #817C87",
"o@	c #D1D0D7",
"p@	c #C8C8CE",
"q@	c #9998A1",
"r@	c #4C4A5E",
"s@	c #302C4B",
"t@	c #393650",
"u@	c #383550",
"v@	c #3B3650",
"w@	c #543B53",
"x@	c #78495A",
"y@	c #AA6A6A",
"z@	c #C47E74",
"A@	c #9E6867",
"B@	c #6C4D59",
"C@	c #A56C6A",
"D@	c #CE8478",
"E@	c #CC7C75",
"F@	c #B96B6C",
"G@	c #804855",
"H@	c #807B86",
"I@	c #F7F6FB",
"J@	c #EDECF1",
"K@	c #B5B3BB",
"L@	c #585465",
"M@	c #332A49",
"N@	c #3F3851",
"O@	c #4C3D53",
"P@	c #956064",
"Q@	c #BE7771",
"R@	c #9B6366",
"S@	c #6A4B59",
"T@	c #A56C69",
"U@	c #CA7D75",
"V@	c #BA6B6B",
"W@	c #A6626C",
"X@	c #92747F",
"Y@	c #A09DA5",
"Z@	c #FBFAFF",
"`@	c #EFEDF3",
" #	c #B7B6BD",
".#	c #332A48",
"+#	c #383650",
"@#	c #473A52",
"##	c #8C5560",
"$#	c #B4676B",
"%#	c #935761",
"&#	c #694958",
"*#	c #CB7C75",
"=#	c #BD6D6E",
"-#	c #9A535E",
";#	c #8A6A77",
">#	c #B9B1B9",
",#	c #D8D6DC",
"'#	c #E6E5EA",
")#	c #B7B5BD",
"!#	c #3E3851",
"~#	c #403851",
"{#	c #563D54",
"]#	c #714659",
"^#	c #8D505F",
"/#	c #9D5663",
"(#	c #8C4E5E",
"_#	c #84515E",
":#	c #B0706D",
"<#	c #CF8478",
"[#	c #BE726F",
"}#	c #A7636C",
"|#	c #977782",
"1#	c #A19DA5",
"2#	c #3C3751",
"3#	c #423951",
"4#	c #744759",
"5#	c #9C5562",
"6#	c #935260",
"7#	c #7A485A",
"8#	c #8D4F5E",
"9#	c #AB5F67",
"0#	c #C27672",
"a#	c #A86866",
"b#	c #866570",
"c#	c #B4AEB5",
"d#	c #DAD9DF",
"e#	c #E8E7ED",
"f#	c #3A3751",
"g#	c #373650",
"h#	c #6D4358",
"i#	c #935160",
"j#	c #90505F",
"k#	c #844D5D",
"l#	c #A35E65",
"m#	c #C17070",
"n#	c #CC7E76",
"o#	c #CC8377",
"p#	c #9C6361",
"q#	c #716672",
"r#	c #C1C1C8",
"s#	c #F3F2F7",
"t#	c #443952",
"u#	c #463A52",
"v#	c #493C52",
"w#	c #543F54",
"x#	c #694557",
"y#	c #8C505E",
"z#	c #AB5E67",
"A#	c #C07170",
"B#	c #CC7F76",
"C#	c #9F6462",
"D#	c #766672",
"E#	c #BEBEC5",
"F#	c #EEEDF2",
"G#	c #2C2848",
"H#	c #4C3B52",
"I#	c #704558",
"J#	c #814A5C",
"K#	c #824B5C",
"L#	c #86525E",
"M#	c #8D5C62",
"N#	c #8F6063",
"O#	c #916163",
"P#	c #A86869",
"Q#	c #C17270",
"R#	c #CC7D76",
"S#	c #B06B69",
"T#	c #92646F",
"U#	c #AB9EA6",
"V#	c #C8C6CD",
"W#	c #DFDFE4",
"X#	c #595465",
"Y#	c #382B49",
"Z#	c #664357",
"`#	c #9A5662",
" $	c #B16069",
".$	c #B36069",
"+$	c #B86A6C",
"@$	c #C27A72",
"#$	c #C68075",
"$$	c #C67F75",
"%$	c #C98076",
"&$	c #CE8277",
"*$	c #C47671",
"=$	c #B1656C",
"-$	c #92626F",
";$	c #908690",
">$	c #CAC8CE",
",$	c #B6B5BD",
"'$	c #625666",
")$	c #6C3B51",
"!$	c #955661",
"~$	c #B66A6C",
"{$	c #C67472",
"]$	c #C77572",
"^$	c #CA7A74",
"/$	c #D08579",
"($	c #CD7F76",
"_$	c #C37370",
":$	c #A55960",
"<$	c #926370",
"[$	c #AC9FA7",
"}$	c #C6C4CA",
"|$	c #DEDEE3",
"1$	c #6B5868",
"2$	c #8F4959",
"3$	c #B7656B",
"4$	c #C87973",
"5$	c #CF8378",
"6$	c #CD8177",
"7$	c #AF646B",
"8$	c #875C6A",
"9$	c #8E8A94",
"0$	c #D3D3D9",
"a$	c #B4B4BC",
"b$	c #685263",
"c$	c #954858",
"d$	c #BF696E",
"e$	c #CD7D76",
"f$	c #CE8077",
"g$	c #BD716E",
"h$	c #824A54",
"i$	c #7F7985",
"j$	c #BABAC1",
"k$	c #81737F",
"l$	c #975C69",
"m$	c #B6666B",
"n$	c #C77873",
"o$	c #89565C",
"p$	c #C0BCC3",
"q$	c #A08B94",
"r$	c #925561",
"s$	c #B26366",
"t$	c #C87873",
"u$	c #D08278",
"v$	c #D28579",
"w$	c #CE7E76",
"x$	c #BC6F6E",
"y$	c #844E59",
"z$	c #E5E4E9",
"A$	c #B3B1B8",
"B$	c #8A7681",
"C$	c #9F626D",
"D$	c #B4666A",
"E$	c #BF7670",
"F$	c #C37E73",
"G$	c #C37D73",
"H$	c #C27B72",
"I$	c #BA6E6D",
"J$	c #A75B65",
"K$	c #753F53",
"L$	c #807C87",
"M$	c #C2BEC4",
"N$	c #9C8690",
"O$	c #7F4A59",
"P$	c #845058",
"Q$	c #89585D",
"R$	c #89595D",
"S$	c #88575C",
"T$	c #824D59",
"U$	c #744054",
"V$	c #512847",
"W$	c #7D7985",
"X$	c #E2E1E7",
"Y$	c #AFACB4",
"Z$	c #85808B",
"`$	c #827E89",
" %	c #847F8A",
".%	c #837F8A",
"+%	c #7F7B87",
"@%	c #A09EA6",
"#%	c #D9D8DE",
"$%	c #D3D2D8",
"%%	c #D3D2D9",
"&%	c #DBDADF",
"                                                                                                                                ",
"                                                                                                                                ",
"                                                                                                                                ",
"                                                                                                                                ",
"                                                                                                                                ",
"                                                                                                                                ",
"                                                                                                                                ",
"                                                                                                                                ",
"                                                                                                                                ",
"                                                                                                                                ",
"                                                                                                                                ",
"                                                                                                                                ",
"                                                                                                                                ",
"                                                                                                                                ",
"                                                                                                                                ",
"                                                                                                                                ",
"                                                                                                                                ",
". . . . . . . . . . . . . . . . . . . . . . . . . . . . . . . . . . . . . . .                                                   ",
"+ + + + + + + + + + + + + + + + + + + + @ @ @ @ @ @ @ @ + + + + + + + # # # $ %                                                 ",
"& & & & & & & & * = - ; = & & & * * = ; - - - - - - - - ; = * * & & & > , ' ) ! ~                                               ",
"{ ] ^ / / / / ( _ : < [ } | 1 { 2 3 4 5 6 7 6 6 6 6 8 9 0 } 3 a b c ^ d e f g h i %                                             ",
"j k l m m m m n o p q r s t u v w x y z A B A A A A C D E F x G H m m I J K L M N O P                                           ",
"Q R S T T S S U V W X Y Z `  .Q ..+.@.#.$.$.$.$.$.$.$.%.&.*.+.=.-.T S ;.>.,.'.).!.~.{.].                                        ",
"^././././././.^.(._.:.:.<.^./.^.[.[.<.:.}.}.}.}.}.}.}.|._.[.[.(.^./././.1.2.3.4.5.6.7.8.9.                                      ",
"/./.0.^.^.^.0././.a.a.a.a././././././.b.a.a.a.a.b.b.a.a.a.a.c.c./././././.d.e.f.g.h.i.j.k.                                      ",
"l.d.m.n.n.n.d.1.c././././.a.l.m.n.n.n.d.l.l.d.n.n.n.m.l.a./././././././././.d.o.g.p.q.r.k.                                      ",
"s.t.u.v.w.x.y.z.d./././.c.A.B.u.C.w.x.y.D.D.y.x.w.C.u.B.A.c./././././././.^.E.y.F.p.q.r.k.                                      ",
"G.H.I.J.K.L.M.N.O./././.E.P.G.Q.J.R.L.S.T.T.S.L.R.J.Q.G.P.E./././././././.0.E.o.F.p.q.r.k.                                      ",
"U.V.J.W.X.Y.Z.`. +/./.0.1..+I.++W.X.@+L.#+#+L.@+X.W.++I..+1.0././././././.0.E.o.F.p.q.r.k.                                      ",
"$+$+$+$+$+$+$+%+2././.^.1.&+*+=+$+$+$+$+$+$+$+$+$+$+=+*+&+1.^././././././.0.E.o.F.p.q.r.k.                                      ",
"$+$+$+$+$+$+W.%+-+/./.^.l.;+>+X.$+$+$+$+$+$+$+$+$+$+X.>+;+l.^././././././.0.E.o.F.p.q.r.k.                                      ",
"$+$+$+$+$+$+$+%+-+/./.^.l.;+>+X.$+$+$+$+$+$+$+$+$+$+X.>+;+l.^././././././.0.E.o.F.p.q.r.k.                                      ",
"$+$+$+$+$+$+$+%+2././.^.l.;+*+=+$+$+$+$+$+$+$+$+$+$+=+*+;+l.^././././././.0.E.o.F.p.q.r.k.                                      ",
"$+$+$+$+$+@+*+,+ +/./.0.1.'+)+K.$+$+$+$+$+$+$+$+$+$+K.)+'+1.0././././././.0.E.o.F.p.q.r.k.                                      ",
"$+$+$+$+$+>+!+u.~+/././.E.s.`.U.R.$+$+$+$+$+$+$+$+R.U.`.s.E./././././././.0.E.o.F.p.q.r.k.                                      ",
"$+$+$+@+*+'.3.{+d./././.a.]+^+`.#+++$+$+$+$+$+$+++#+`.^+]+a./././././././.0.E.o.F.p.q.r.k.                                      ",
"$+$+$+>+'.3.z.l.c././././.a./+^+`.#+R.$+$+$+$+R.#+`.^+/+a././././././././.0.E.o.F.p.q.r.9.                                      ",
"(+$+*+_+3.{+d./././././././.a.]+^+`.#+K.=+=+K.#+`.^+]+a./././././././././.^.E.y.F.:+<+[+}+|+                                    ",
"J.1+'.2+e.l./././././././././.a./+^+`.U.J.J.U.`.^+/+a./././././././././././.d.o.g.p.3+4+5+6+7+7+7+7+7+7+7+7+7+7+7+7+7+8+}+9+    ",
"0+u.^+2.d.^.a+^.^.^.^.^.^.^.^.a+/.A.s.'+;+;+'+s.A./.a+^.^.^.^.^.^.^.^.^.0.d.e.b+c+d+e+f+g+h+i+i+i+i+i+i+i+i+i+i+i+i+j+k+l+9+    ",
"m+m+~+O.n.n.m.m.m.m.m.m.m.m.m.m.n./+~+~+m+m+~+~+/+n.m.m.m.m.m.m.m.m.m.n+n.o+3.p+q+r+s+t+u+v+w+w+w+w+w+w+w+w+w+x+y+z+A+B+C+9+    ",
"2+2+2+D+D+E+E+E+E+E+E+E+E+E+E+E+E+D+2+2+2+2+2+2+D+E+E+E+E+E+E+E+E+E+E+D+E+`.F+G+H+I+J+K+L+M+N+O+N+N+N+N+N+N+P+Q+R+S+T+U+V+9+    ",
"W+W+W+W+W+W+W+W+W+W+W+W+W+W+W+W+W+W+W+W+W+W+W+W+W+W+W+W+W+X+X+X+X+X+X+X+X+Y+Z+`+ @.@+@@@#@$@%@&@%@%@%@%@%@%@&@*@=@-@;@>@,@9+    ",
"'@'@'@'@'@'@'@'@'@'@'@'@'@'@'@'@'@'@'@'@'@'@'@'@'@'@'@)@!@~@{@{@{@{@{@~@]@^@/@(@_@.@:@<@$@[@R.}@}@}@}@}@}@}@}@`+|@1@2@3@4@9+    ",
"5@5@5@5@5@5@5@5@5@5@5@5@5@5@5@5@5@5@5@5@5@5@5@5@5@5@5@6@7@8@9@0@0@0@0@a@b@c@d@e@f@I+g@h@i@j@$+$+$+$+$+$+$+$+$+$+k@l@m@n@4@9+    ",
"# # # # # # # # # # # # # # # # # # # # # # # # # # o@p@q@r@s@t@t@t@t@u@v@w@x@y@z@A@B@C@D@}@$+$+$+$+$+$+$+$+Y.X.E@F@G@H@V+9+    ",
". . . . . . . . . . . . . . . . . . . . . . . . . . I@J@K@L@M@N@N@N@N@N@N@t@O@P@Q@R@S@T@D@R.$+$+$+$+$+$+$+$+(+U@V@W@X@Y@C+9+    ",
"                                                    Z@`@ #L@.#N@N@N@N@N@N@+#@###$#%#&#C@D@R.$+$+$+$+$+$+$+X.*#=#-#;#>#,#'#      ",
"                                                      J@)#L@M@N@N@N@N@!#~#{#]#^#/#(#_#:#D@j@$+$+$+$+$+$+j@<#[#}#|#1#o@}+        ",
"                                                      J@)#L@M@N@N@N@N@2#3#4#5#6#7#8#9#0#X.j@$+$+$+$+$+$+R.%@a#b#c#d#e#          ",
"                                                      J@)#L@M@!#2#f#f#g#2#h#i#j#k#l#m#n#W.$+$+$+$+$+$+$+}@o#p#q#r#s#            ",
"                                                      J@)#L@M@~#t#u#u#u#v#w#x#y#z#A#B#(+$+$+$+$+$+$+$+$+}@o#C#D#E#F#            ",
"                                                      J@)#L@G#H#I#J#K#L#M#N#O#P#Q#R#W.Y.$+$+$+$+$+$+$+$+j@D@S#T#U#V#W#          ",
"                                                      J@)#X#Y#Z#`# $.$+$@$#$$$%$&$(+$+$+$+$+$+$+$+$+$+$+j@<#*$=$-$;$>$F#        ",
"                                                      J@,$'$)$!$~${$]$^$(+}@}@j@j@$+$+$+$+$+$+$+$+$+$+$+$+/$($_$:$<$[$}$|$      ",
"                                                      J@,$1$2$3$4$5$<#(+W.$+$+$+$+$+$+$+$+$+$+$+$+$+$+$+$+$+W.6$_$7$8$9$0$9+    ",
"                                                      J@a$b$c$d$e$j@j@$+$+$+$+$+$+$+$+$+$+$+$+$+$+$+$+$+$+$+Y.W.f$g$h$i$V+9+    ",
"                                                      J@j$k$l$m$n$5$W.$+$+$+$+$+$+$+$+$+$+$+$+$+$+$+$+$+$+$+$+$+k@@$o$3@4@9+    ",
"                                                        C+p$q$r$s$t$u$}@}@}@}@}@}@}@}@}@}@}@}@}@}@}@}@}@}@}@}@v$w$x$y$3@4@9+    ",
"                                                          z$A$B$C$D$E$F$F$G$G$G$G$G$G$G$G$G$G$G$G$G$G$G$G$G$z@H$I$J$K$L$4@9+    ",
"                                                            ].M$N$O$P$Q$Q$Q$Q$Q$Q$Q$Q$Q$Q$Q$Q$Q$Q$Q$Q$Q$Q$Q$R$S$T$U$V$W$V+9+    ",
"                                                              X$Y$Z$`$ % % % % % % % % % % % % % % % % % % % % % %.%+%@%d#9+    ",
"                                                                #%0$$%$%$%$%$%$%$%$%$%$%$%$%$%$%$%$%$%$%$%$%$%%%%%%%$%&%5+9+    ",
"                                                                9+9+9+9+9+9+9+9+9+9+9+9+9+9+9+9+9+9+9+9+9+9+9+9+9+9+9+9+9+9+    "};
