/* XPM */
static char * live1_xpm[] = {
"64 64 562 2",
"  	c None",
". 	c #F6F5FA",
"+ 	c #ECEBF0",
"@ 	c #DBDADF",
"# 	c #D3D2D8",
"$ 	c #D3D2D9",
"% 	c #D4D3D9",
"& 	c #DAD8DE",
"* 	c #DAD9DF",
"= 	c #A09EA6",
"- 	c #7F7B87",
"; 	c #837F8A",
"> 	c #847F8A",
", 	c #817D88",
"' 	c #83808B",
") 	c #AEACB4",
"! 	c #E2E1E7",
"~ 	c #D2D1D7",
"{ 	c #7D7985",
"] 	c #512847",
"^ 	c #744054",
"/ 	c #824D59",
"( 	c #88575C",
"_ 	c #89595D",
": 	c #89585D",
"< 	c #86545B",
"[ 	c #7F4958",
"} 	c #6A3850",
"| 	c #4C364F",
"1 	c #82818C",
"2 	c #BEBDC4",
"3 	c #D9D8DE",
"4 	c #D2D1D8",
"5 	c #807C87",
"6 	c #753F53",
"7 	c #A75B65",
"8 	c #BA6E6D",
"9 	c #C27B72",
"0 	c #C47E74",
"a 	c #C37D73",
"b 	c #C07871",
"c 	c #B6686B",
"d 	c #9C5562",
"e 	c #6B4357",
"f 	c #554D60",
"g 	c #75727E",
"h 	c #B2B1B8",
"i 	c #E5E4E9",
"j 	c #827D88",
"k 	c #844E59",
"l 	c #BC6F6E",
"m 	c #CE7E76",
"n 	c #D28579",
"o 	c #D3877A",
"p 	c #D08378",
"q 	c #CA7A74",
"r 	c #B86B6D",
"s 	c #975762",
"t 	c #6F3E53",
"u 	c #513D54",
"v 	c #888690",
"w 	c #BDBBC2",
"x 	c #D7D5DB",
"y 	c #89565C",
"z 	c #C27A72",
"A 	c #D18478",
"B 	c #D18679",
"C 	c #D08478",
"D 	c #C87B74",
"E 	c #B9686C",
"F 	c #985361",
"G 	c #604256",
"H 	c #4A475C",
"I 	c #73707D",
"J 	c #BCBAC1",
"K 	c #EDECF1",
"L 	c #7F7985",
"M 	c #824A54",
"N 	c #BD716E",
"O 	c #CE8077",
"P 	c #D18579",
"Q 	c #D18779",
"R 	c #D28779",
"S 	c #D2877A",
"T 	c #CE7F76",
"U 	c #C26C6F",
"V 	c #A25764",
"W 	c #644156",
"X 	c #231F43",
"Y 	c #524D60",
"Z 	c #B6B4BC",
"` 	c #D3D3D9",
" .	c #8E8A94",
"..	c #875C6A",
"+.	c #AF646B",
"@.	c #C37370",
"#.	c #CD8177",
"$.	c #CF8378",
"%.	c #C97B74",
"&.	c #BA686C",
"*.	c #995462",
"=.	c #604055",
"-.	c #2D2948",
";.	c #585465",
">.	c #B7B5BD",
",.	c #DEDEE3",
"'.	c #C6C4CA",
").	c #AC9FA7",
"!.	c #926370",
"~.	c #A55960",
"{.	c #CD7F76",
"].	c #D08579",
"^.	c #D18479",
"/.	c #CB7C75",
"(.	c #C77572",
"_.	c #C77472",
":.	c #B96C6D",
"<.	c #9A5963",
"[.	c #76475A",
"}.	c #513C53",
"|.	c #302948",
"1.	c #EEEDF2",
"2.	c #CAC8CE",
"3.	c #908690",
"4.	c #92626F",
"5.	c #B1656C",
"6.	c #C47671",
"7.	c #CF8478",
"8.	c #CE8277",
"9.	c #CA8176",
"0.	c #C37B73",
"a.	c #B36169",
"b.	c #B26069",
"c.	c #9F5864",
"d.	c #6E4558",
"e.	c #453952",
"f.	c #403851",
"g.	c #332A49",
"h.	c #DFDFE4",
"i.	c #C8C6CD",
"j.	c #AB9EA6",
"k.	c #92646F",
"l.	c #B06B69",
"m.	c #CE8478",
"n.	c #CC7D76",
"o.	c #C17270",
"p.	c #A96869",
"q.	c #8F5E62",
"r.	c #85525E",
"s.	c #824B5C",
"t.	c #824A5C",
"u.	c #744659",
"v.	c #3A3750",
"w.	c #3E3851",
"x.	c #BEBEC5",
"y.	c #766672",
"z.	c #9F6462",
"A.	c #CC8377",
"B.	c #CC7F76",
"C.	c #C07170",
"D.	c #AB5E67",
"E.	c #8C505E",
"F.	c #694557",
"G.	c #533D54",
"H.	c #473A52",
"I.	c #463952",
"J.	c #443952",
"K.	c #413851",
"L.	c #3F3851",
"M.	c #F3F2F7",
"N.	c #C1C1C8",
"O.	c #716672",
"P.	c #9C6361",
"Q.	c #CC7E76",
"R.	c #C17070",
"S.	c #A35E65",
"T.	c #844D5D",
"U.	c #90505F",
"V.	c #945260",
"W.	c #6D4458",
"X.	c #3D3851",
"Y.	c #383750",
"Z.	c #3C3751",
"`.	c #E8E7ED",
" +	c #B4AEB5",
".+	c #866570",
"++	c #A86866",
"@+	c #CD8377",
"#+	c #D08578",
"$+	c #C27672",
"%+	c #AB5F67",
"&+	c #8D4F5E",
"*+	c #7A485A",
"=+	c #935260",
"-+	c #744759",
";+	c #423951",
">+	c #F4F3F8",
",+	c #D1D0D7",
"'+	c #A19DA5",
")+	c #977782",
"!+	c #A7636C",
"~+	c #BE726F",
"{+	c #B0706D",
"]+	c #84515E",
"^+	c #8C4E5E",
"/+	c #9D5663",
"(+	c #8D505F",
"_+	c #714659",
":+	c #563D54",
"<+	c #E6E5EA",
"[+	c #D8D6DC",
"}+	c #B9B1B9",
"|+	c #8A6A77",
"1+	c #9A535E",
"2+	c #BD6D6E",
"3+	c #A56C6A",
"4+	c #694958",
"5+	c #935761",
"6+	c #B3676B",
"7+	c #8C545F",
"8+	c #373650",
"9+	c #332A48",
"0+	c #B7B6BD",
"a+	c #EFEDF3",
"b+	c #FBFAFF",
"c+	c #D6D5DB",
"d+	c #A09DA5",
"e+	c #92747F",
"f+	c #A6626C",
"g+	c #BA6B6B",
"h+	c #CA7D75",
"i+	c #A56C69",
"j+	c #6A4B59",
"k+	c #9B6366",
"l+	c #BE7771",
"m+	c #956164",
"n+	c #4C3E53",
"o+	c #3A3650",
"p+	c #B5B3BB",
"q+	c #F7F6FB",
"r+	c #F5F4F9",
"s+	c #807B86",
"t+	c #804855",
"u+	c #B96B6C",
"v+	c #CC7C75",
"w+	c #6C4D59",
"x+	c #9E6867",
"y+	c #C68075",
"z+	c #B27870",
"A+	c #896365",
"B+	c #5F4A58",
"C+	c #3A3450",
"D+	c #35324F",
"E+	c #37334F",
"F+	c #2E2849",
"G+	c #4B475D",
"H+	c #9897A1",
"I+	c #C8C7CE",
"J+	c #D1D0D6",
"K+	c #CFCED5",
"L+	c #CFCED4",
"M+	c #817C87",
"N+	c #88545B",
"O+	c #C17972",
"P+	c #CD8378",
"Q+	c #A46B69",
"R+	c #6C4C59",
"S+	c #9C6666",
"T+	c #CB8478",
"U+	c #D18F7F",
"V+	c #C0897B",
"W+	c #8B6767",
"X+	c #4F4255",
"Y+	c #473E53",
"Z+	c #4B4054",
"`+	c #4A3F53",
" @	c #504759",
".@	c #696370",
"+@	c #7E7983",
"@@	c #827E88",
"#@	c #827F88",
"$@	c #837F89",
"%@	c #827E87",
"&@	c #827D87",
"*@	c #87525A",
"=@	c #BF7470",
"-@	c #D08177",
";@	c #D28679",
">@	c #D18378",
",@	c #C87A74",
"'@	c #9F6266",
")@	c #6A4A59",
"!@	c #9B6666",
"~@	c #CD8779",
"{@	c #DD9C87",
"]@	c #D8A28B",
"^@	c #BA8F7F",
"/@	c #9F7E74",
"(@	c #9D7D73",
"_@	c #9E7E73",
":@	c #9E7D73",
"<@	c #9E7E74",
"[@	c #A08679",
"}@	c #A28C7E",
"|@	c #9F8578",
"1@	c #9C7D71",
"2@	c #9D8375",
"3@	c #A08E7F",
"4@	c #A4978A",
"5@	c #A49A8D",
"6@	c #A29284",
"7@	c #9F8779",
"8@	c #9C7E72",
"9@	c #9C7F73",
"0@	c #9F897A",
"a@	c #A08C7C",
"b@	c #A08D7D",
"c@	c #A29486",
"d@	c #A59C90",
"e@	c #A69D92",
"f@	c #A59D91",
"g@	c #A59D92",
"h@	c #A4988C",
"i@	c #A19081",
"j@	c #A08C7D",
"k@	c #A08B7B",
"l@	c #D2D2D8",
"m@	c #817C88",
"n@	c #7C4556",
"o@	c #B16369",
"p@	c #C47572",
"q@	c #CB8176",
"r@	c #CD8478",
"s@	c #BB6A6D",
"t@	c #935360",
"u@	c #664757",
"v@	c #CD887A",
"w@	c #DEA38B",
"x@	c #E2B194",
"y@	c #DEAF93",
"z@	c #DAAC91",
"A@	c #D9AC91",
"B@	c #DAAD92",
"C@	c #DCB79A",
"D@	c #DFC0A1",
"E@	c #DDB99C",
"F@	c #DAB094",
"G@	c #DDB99B",
"H@	c #E1C6A8",
"I@	c #E5D3B8",
"J@	c #E6D6BC",
"K@	c #E3CCAF",
"L@	c #DFBEA0",
"M@	c #DBB296",
"N@	c #DBB497",
"O@	c #E0C4A4",
"P@	c #E1C5A6",
"Q@	c #E4CEB2",
"R@	c #E7D8BF",
"S@	c #E8DBC2",
"T@	c #E7DAC2",
"U@	c #E7DBC2",
"V@	c #E5D4BA",
"W@	c #E2C9AB",
"X@	c #E0C4A5",
"Y@	c #E0C2A3",
"Z@	c #7C7884",
"`@	c #5C2947",
" #	c #874656",
".#	c #98575E",
"+#	c #9F6362",
"@#	c #A16663",
"##	c #A06563",
"$#	c #A16563",
"%#	c #9B5C5F",
"&#	c #904D5A",
"*#	c #713E54",
"=#	c #5E4255",
"-#	c #9D6666",
";#	c #CE897B",
">#	c #DFA58D",
",#	c #E6B597",
"'#	c #E8B899",
")#	c #E8B799",
"!#	c #EABE9F",
"~#	c #ECC5A4",
"{#	c #EAC0A0",
"]#	c #E9BA9B",
"^#	c #EDC9A8",
"/#	c #EFD2B4",
"(#	c #F0D4B7",
"_#	c #EECDAD",
":#	c #EBC3A3",
"<#	c #E9BB9C",
"[#	c #E9BC9D",
"}#	c #ECC4A4",
"|#	c #ECC7A6",
"1#	c #EDC8A7",
"2#	c #EFCEB0",
"3#	c #F1D5B9",
"4#	c #F1D7BB",
"5#	c #F0D2B5",
"6#	c #EDCBAA",
"7#	c #EDC8A6",
"8#	c #ECC6A5",
"9#	c #8D8A94",
"0#	c #605768",
"a#	c #6C5E6D",
"b#	c #70606E",
"c#	c #72626F",
"d#	c #72636F",
"e#	c #71626F",
"f#	c #6E5E6D",
"g#	c #594F62",
"h#	c #594558",
"i#	c #DFA48C",
"j#	c #E5B597",
"k#	c #E6B798",
"l#	c #E6B698",
"m#	c #E6B799",
"n#	c #E7B89A",
"o#	c #E7B99B",
"p#	c #E7BB9D",
"q#	c #E7BA9B",
"r#	c #E7B99A",
"s#	c #E7BA9C",
"t#	c #E7BB9E",
"u#	c #E8BC9E",
"v#	c #E6E5EB",
"w#	c #C9C8CE",
"x#	c #BBBAC1",
"y#	c #BBBBC2",
"z#	c #BCBBC3",
"A#	c #B7B7BE",
"B#	c #93939D",
"C#	c #665967",
"D#	c #9C6363",
"E#	c #E6B697",
"F#	c #F0EFF4",
"G#	c #EFEEF3",
"H#	c #F1F0F5",
"I#	c #BDBDC4",
"J#	c #736874",
"K#	c #9A6060",
"L#	c #E5B496",
"M#	c #E4B296",
"N#	c #E4B295",
"O#	c #E5B396",
"P#	c #E6B598",
"Q#	c #E5B497",
"R#	c #FCFBFF",
"S#	c #C4C4CB",
"T#	c #766A76",
"U#	c #9A5F5F",
"V#	c #E4B094",
"W#	c #E0A98F",
"X#	c #DDA28B",
"Y#	c #DA9D88",
"Z#	c #DA9C87",
"`#	c #DB9F89",
" $	c #E1A98F",
".$	c #E2AC92",
"+$	c #DA9D87",
"@$	c #E0A78E",
"#$	c #F2F0F6",
"$$	c #C3C3CA",
"%$	c #756A76",
"&$	c #E1AA90",
"*$	c #DB9C87",
"=$	c #D69080",
"-$	c #D2897B",
";$	c #D48C7D",
">$	c #D89583",
",$	c #DB9B87",
"'$	c #E4B194",
")$	c #D89683",
"!$	c #D2887A",
"~$	c #D69180",
"{$	c #DA9985",
"]$	c #F1F0F6",
"^$	c #DEA58D",
"/$	c #D2887B",
"($	c #D1877A",
"_$	c #D58E7E",
":$	c #E2AE93",
"<$	c #DA9A86",
"[$	c #D48B7D",
"}$	c #D48D7E",
"|$	c #DCA28A",
"1$	c #D38B7C",
"2$	c #D18578",
"3$	c #E2AD92",
"4$	c #D79582",
"5$	c #DCA18A",
"6$	c #D38A7C",
"7$	c #E1AD92",
"8$	c #DEA48C",
"9$	c #D5907F",
"0$	c #D99985",
"a$	c #E1A990",
"b$	c #D58F7F",
"c$	c #E3B094",
"d$	c #D89482",
"e$	c #E3AF94",
"f$	c #DFA68E",
"g$	c #E2AB91",
"h$	c #DDA08A",
"i$	c #D79482",
"j$	c #E4B195",
"k$	c #9A6160",
"l$	c #DD9E88",
"m$	c #D79382",
"n$	c #756975",
"o$	c #995F60",
"p$	c #D99482",
"q$	c #DDA18B",
"r$	c #E2AE92",
"s$	c #E2AC91",
"t$	c #DDA089",
"u$	c #D38C7D",
"v$	c #C3C2C9",
"w$	c #706371",
"x$	c #915158",
"y$	c #C47772",
"z$	c #E7B799",
"A$	c #C6C6CC",
"B$	c #837A85",
"C$	c #905B68",
"D$	c #B5676C",
"E$	c #C67773",
"F$	c #D1887B",
"G$	c #E3AF93",
"H$	c #D8D8DE",
"I$	c #C1BDC4",
"J$	c #A5939C",
"K$	c #925966",
"L$	c #AD5E63",
"M$	c #C77873",
"N$	c #D2887C",
"O$	c #DC9F89",
"P$	c #DD9F89",
"Q$	c #E9E8ED",
"R$	c #897A85",
"S$	c #99616D",
"T$	c #B3666B",
"U$	c #C07671",
"V$	c #C78276",
"W$	c #DADAE0",
"X$	c #C4C1C7",
"Y$	c #A39099",
"Z$	c #84505F",
"`$	c #864E56",
" %	c #8C595C",
".%	c #8C585C",
"+%	c #E8E6EC",
"@%	c #B8B5BD",
"#%	c #85808B",
"$%	c #7E7883",
"%%	c #817B86",
"&%	c #D9D9DF",
"*%	c #D0D0D6",
"=%	c #CFCFD5",
"      . . . . . . . . . . . . . . . . . . . . . . . . . . . . . .                                                               ",
"      . + @ # $ $ $ # # # # # # # # # # # # # # # # # # $ $ # % &                                                               ",
"      . * = - ; > > > > > > > > > > > > > > > > > > > > > ; , ' ) !                                                             ",
"      . ~ { ] ^ / ( _ : : : : : : : : : : : : : : : : _ < [ } | 1 2 3                                                           ",
"      . 4 5 6 7 8 9 0 a a a a a a a a a a a a a a a a 0 b c d e f g h i                                                         ",
"      . 4 j k l m n o o o o o o o o o o o o o o o o o o p q r s t u v w x                                                       ",
"      . 4 j y z A B B B B B B B B B B B B B B B B B B B B C D E F G H I J K                                                     ",
"      . ~ L M N O P Q B B B B B B B B B B B B B B B B B R S T U V W X Y Z K                                                     ",
"      . `  ...+.@.#.P B B B B B B B B B B B B B B B B C $.$.%.&.*.=.-.;.>.K                                                     ",
"        ,.'.).!.~.@.{.].B B B B B B B B B B B B R S ^./.(._.:.<.[.}.|.;.>.K                                                     ",
"          1.2.3.4.5.6.7.R B B B B B B B B B B C 8.9.0.:.a.b.c.d.e.f.g.;.>.K                                                     ",
"            h.i.j.k.l.m.R B B B B B B B B Q P n.o.p.q.r.s.t.u.}.v.w.g.;.>.K                                                     ",
"              1.x.y.z.A.o B B B B B B B B C B.C.D.E.F.G.H.I.J.K.L.L.g.;.>.K                                                     ",
"              M.N.O.P.A.o B B B B B B B P Q.R.S.T.U.V.W.X.Y.Z.w.L.L.g.;.>.K                                                     ",
"            `.*  +.+++@+S B B B B B B R #+$+%+&+*+=+d -+;+Z.L.L.L.L.g.;.>.K                                                     ",
"          >+,+'+)+!+~+7.R B B B B B B R m.{+]+^+/+(+_+:+f.w.L.L.L.L.g.;.>.K                                                     ",
"        <+[+}+|+1+2+/.#+B B B B B B B S m.3+4+5+6+7+I.8+L.L.L.L.L.L.9+;.0+a+b+                                                  ",
"      . c+d+e+f+g+h+C B B B B B B B B S m.i+j+k+l+m+n+o+L.L.L.L.L.L.g.;.p+K q+r+r+r+r+r+r+r+r+r+r+r+r+r+r+r+r+r+r+r+r+r+r+r+r+r+",
"      . ~ s+t+u+v+#+Q B B B B B B B B o m.3+w+x+y+z+A+B+C+D+E+E+E+E+F+G+H+I+J+K+K+K+K+K+K+K+K+K+K+K+L+L+L+L+L+L+L+L+K+K+K+K+K+K+",
"      . 4 M+N+O+A B B B B B B B B B B R P+Q+R+S+T+U+V+W+X+Y+Z+Z+Z+Z+`+ @.@+@@@@@#@$@@@%@&@&@%@%@@@#@$@$@$@$@$@$@$@$@#@@@%@%@@@%@",
"      . 4 j *@=@-@;@o o o o o o o o S >@,@'@)@!@~@{@]@^@/@(@_@_@:@<@[@}@|@1@2@3@4@5@6@7@8@9@0@a@b@c@d@e@f@f@f@f@g@f@h@i@a@a@j@k@",
"      . l@m@n@o@p@q@r@@+@+@+@+@+@+r@@+,@s@t@u@S+v@w@x@y@z@A@A@A@A@B@C@D@E@F@G@H@I@J@K@L@M@N@D@O@P@Q@R@S@T@T@T@T@U@T@V@W@O@O@X@Y@",
"      . ~ Z@`@ #.#+#@#############$###%#&#*#=#-#;#>#,#'#)#'#'#'#)#'#!#~#{#]#{#^#/#(#_#:#<#[#}#|#1#2#3#4#4#4#4#4#4#4#5#6#|#|#7#8#",
"      . c+9#0#a#b#c#d#d#d#d#d#d#d#d#d#e#f#g#h#-#;#i#j#k#l#l#l#l#l#l#m#n#m#l#m#o#p#p#q#n#m#m#n#r#r#s#t#u#u#u#u#u#u#u#p#o#r#r#r#r#",
"      . v#w#x#y#y#y#y#y#y#y#y#y#y#y#y#z#A#B#C#D#;#i#j#k#l#l#l#l#l#l#l#l#l#l#l#l#E#E#l#l#l#l#l#l#l#l#,#,#,#,#,#,#,#,#,#l#l#l#l#l#",
"      . >+F#G#G#G#G#G#G#G#G#G#G#G#G#G#H#+ I#J#K#;#i#j#k#l#l#l#l#l#l#l#l#,#L#M#N#N#N#O#L#L#O#N#N#N#M#L#,#l#l#l#l#P#Q#O#N#N#N#M#O#",
"                                      R#>+S#T#U#;#i#j#k#l#l#l#l#l#l#l#P#V#W#X#Y#Z#`#># $ $>#`#Z#Y#X#W#V#P#l#l#l#O#.$>#`#Z#+$X#@$",
"                                        #$$$%$K#;#i#j#k#l#l#l#l#l#l#l#j#&$*$=$-$S ;$>$,$,$>$;$S -$=$*$&$j#l#l#l#'$w@)$;$!$-$~${$",
"                                        ]$$$%$K#;#i#j#k#l#l#l#l#l#l#k#Q#^$~$/$P #+($;$_$_$;$($#+P /$~$^$Q#k#l#l#:$<$[$Q #+P -$}$",
"                                        ]$$$%$K#;#i#j#k#l#l#l#l#l#l#m#Q#|$1$2$B B B B B B B B B B 2$1$|$Q#m#l#l#3$4$B B B B B B ",
"                                        ]$$$%$K#;#i#j#k#l#l#l#l#l#l#m#L#5$6$#+B B B B B B B B B B #+6$5$L#m#l#l#7$4$P B B B B B ",
"                                        ]$$$%$K#;#i#j#k#l#l#l#l#l#l#m#L#5$6$#+B B B B B B B B B B #+6$5$L#m#l#l#7$4$B B B B B B ",
"                                        ]$$$%$K#;#i#j#k#l#l#l#l#l#l#m#L#5$1$2$B B B B B B B B B B 2$1$5$L#m#l#l#3$4$B B B B B B ",
"                                        ]$$$%$K#;#i#j#k#l#l#l#l#l#l#k#Q#8$9$!$B B B B B B B B B B !$9$8$Q#k#l#l#:$0$1$($B B B B ",
"                                        ]$$$%$K#;#i#j#k#l#l#l#l#l#l#l#j#a$<$b$S B B B B B B B B S b$<$a$j#l#l#l#c$X#d$6$B B B B ",
"                                        ]$$$%$K#;#>#j#m#l#l#l#l#l#l#l#,#e$f$<$_$/$B B B B B B /$_$<$f$e$,#l#l#l#O#g$h$i$1$($B B ",
"                                        ]$$$%$K#;#i#Q#l#l#l#l#l#l#l#l#l#,#j$f$<$_$S B B B B S _$<$f$j$,#l#l#l#l#P#L#.$h$i$6$B B ",
"                                        ]$$$%$k$v@l$3$O#l#l#l#l#l#l#l#l#l#,#e$f$<$_$!$2$2$!$_$<$f$e$,#l#l#l#l#l#l#l#O#g$h$m$1$B ",
"                                        ]$$$n$o$T+p$q$r$j#l#l#l#l#l#l#l#l#l#,#j$f$<$b$-$-$b$<$f$j$,#l#l#l#l#l#l#l#l#l#L#s$t$i$u$",
"                                        ]$v$w$x$y$/$>$w@3$Q#m#m#m#m#m#m#m#m#z$l#V#a$8$5$5$8$a$V#l#z$m#m#m#m#m#m#m#m#z$m#O#3$f$X#",
"                                        #$A$B$C$D$E$F$>$q$3$M#M#M#M#M#M#M#M#M#N#j$c$c$G$G$c$c$j$N#M#M#M#M#M#M#M#M#M#M#N#N#'$c$G$",
"                                          H$I$J$K$L$M$N$d$,$O$P$O$O$O$O$O$O$O$O$P$t$t$t$t$t$t$P$O$O$O$O$O$O$O$O$O$O$O$O$P$P$t$t$",
"                                            Q$J R$S$T$U$y+V$V$V$V$V$V$V$V$V$V$V$V$V$V$V$V$V$V$V$V$V$V$V$V$V$V$V$V$V$V$V$V$V$V$V$",
"                                              W$X$Y$Z$`$ % %.%.%.%.%.%.%.%.%.%.%.%.%.%.%.%.%.%.%.%.%.%.%.%.%.%.%.%.%.%.%.%.%.%.%",
"                                                +%@%#%$%%%%%%%%%%%%%%%%%%%%%%%%%%%%%%%%%%%%%%%%%%%%%%%%%%%%%%%%%%%%%%%%%%%%%%%%%",
"                                                  &%*%=%=%=%=%=%=%=%=%=%=%=%=%=%=%=%=%=%=%=%=%=%=%=%=%=%=%=%=%=%=%=%=%=%=%=%=%=%",
"                                                    r+r+r+r+r+r+r+r+r+r+r+r+r+r+r+r+r+r+r+r+r+r+r+r+r+r+r+r+r+r+r+r+r+r+r+r+r+r+",
"                                                                                                                                ",
"                                                                                                                                ",
"                                                                                                                                ",
"                                                                                                                                ",
"                                                                                                                                ",
"                                                                                                                                ",
"                                                                                                                                ",
"                                                                                                                                ",
"                                                                                                                                ",
"                                                                                                                                ",
"                                                                                                                                ",
"                                                                                                                                ",
"                                                                                                                                ",
"                                                                                                                                ",
"                                                                                                                                ",
"                                                                                                                                ",
"                                                                                                                                "};
