/* XPM */
static char * move1_xpm[] = {
"64 64 698 2",
"  	c #3F3851",
". 	c #F6F5FA",
"+ 	c #ECEBF0",
"@ 	c #DBDADF",
"# 	c #D3D2D8",
"$ 	c #D3D2D9",
"% 	c #D4D3D9",
"& 	c #DAD8DE",
"* 	c #DAD9DF",
"= 	c #A09EA6",
"- 	c #7F7B87",
"; 	c #837F8A",
"> 	c #847F8A",
", 	c #817D88",
"' 	c #83808B",
") 	c #AEACB4",
"! 	c #E2E1E7",
"~ 	c #D2D1D7",
"{ 	c #7D7985",
"] 	c #512847",
"^ 	c #744054",
"/ 	c #824D59",
"( 	c #88575C",
"_ 	c #89595D",
": 	c #89585D",
"< 	c #86545B",
"[ 	c #7F4958",
"} 	c #6A3850",
"| 	c #4C364F",
"1 	c #82818C",
"2 	c #BEBDC4",
"3 	c #D9D8DE",
"4 	c #D2D1D8",
"5 	c #807C87",
"6 	c #753F53",
"7 	c #A75B65",
"8 	c #BA6E6D",
"9 	c #C27B72",
"0 	c #C47E74",
"a 	c #C37D73",
"b 	c #C07871",
"c 	c #B6686B",
"d 	c #9C5562",
"e 	c #6B4357",
"f 	c #554D60",
"g 	c #75727E",
"h 	c #B2B1B8",
"i 	c #E5E4E9",
"j 	c #827D88",
"k 	c #844E59",
"l 	c #BC6F6E",
"m 	c #CE7E76",
"n 	c #D28579",
"o 	c #D3877A",
"p 	c #D08378",
"q 	c #CA7A74",
"r 	c #B86B6D",
"s 	c #975762",
"t 	c #6F3E53",
"u 	c #513D54",
"v 	c #888690",
"w 	c #BDBBC2",
"x 	c #D7D5DB",
"y 	c #89565C",
"z 	c #C27A72",
"A 	c #D18478",
"B 	c #D18679",
"C 	c #D08478",
"D 	c #C87B74",
"E 	c #B9686C",
"F 	c #985361",
"G 	c #604256",
"H 	c #4A475C",
"I 	c #73707D",
"J 	c #BCBAC1",
"K 	c #EDECF1",
"L 	c #7F7985",
"M 	c #824A54",
"N 	c #BD716E",
"O 	c #CE8077",
"P 	c #D18579",
"Q 	c #D18779",
"R 	c #D28779",
"S 	c #D2877A",
"T 	c #CE7F76",
"U 	c #C26C6F",
"V 	c #A25764",
"W 	c #644156",
"X 	c #231F43",
"Y 	c #524D60",
"Z 	c #B6B4BC",
"` 	c #D3D3D9",
" .	c #8E8A94",
"..	c #875C6A",
"+.	c #AF646B",
"@.	c #C37370",
"#.	c #CD8177",
"$.	c #CF8378",
"%.	c #C97B74",
"&.	c #BA686C",
"*.	c #995462",
"=.	c #604055",
"-.	c #2D2948",
";.	c #585465",
">.	c #B7B5BD",
",.	c #DEDEE3",
"'.	c #C6C4CA",
").	c #AC9FA7",
"!.	c #926370",
"~.	c #A55960",
"{.	c #CD7F76",
"].	c #D08579",
"^.	c #D18479",
"/.	c #CB7C75",
"(.	c #C77572",
"_.	c #C77472",
":.	c #B96C6D",
"<.	c #9A5963",
"[.	c #76475A",
"}.	c #513C53",
"|.	c #302948",
"1.	c #EEEDF2",
"2.	c #CAC8CE",
"3.	c #908690",
"4.	c #92626F",
"5.	c #B1656C",
"6.	c #C47671",
"7.	c #CF8478",
"8.	c #CE8277",
"9.	c #CA8176",
"0.	c #C37B73",
"a.	c #B36169",
"b.	c #B26069",
"c.	c #9F5864",
"d.	c #6E4558",
"e.	c #453952",
"f.	c #403851",
"g.	c #332A49",
"h.	c #DFDFE4",
"i.	c #C8C6CD",
"j.	c #AB9EA6",
"k.	c #92646F",
"l.	c #B06B69",
"m.	c #CE8478",
"n.	c #CC7D76",
"o.	c #C17270",
"p.	c #A96869",
"q.	c #8F5E62",
"r.	c #85525E",
"s.	c #824B5C",
"t.	c #824A5C",
"u.	c #744659",
"v.	c #3A3750",
"w.	c #3E3851",
"x.	c #BEBEC5",
"y.	c #766672",
"z.	c #9F6462",
"A.	c #CC8377",
"B.	c #CC7F76",
"C.	c #C07170",
"D.	c #AB5E67",
"E.	c #8C505E",
"F.	c #694557",
"G.	c #533D54",
"H.	c #473A52",
"I.	c #463952",
"J.	c #443952",
"K.	c #413851",
"L.	c #F3F2F7",
"M.	c #C1C1C8",
"N.	c #716672",
"O.	c #9C6361",
"P.	c #CC7E76",
"Q.	c #C17070",
"R.	c #A35E65",
"S.	c #844D5D",
"T.	c #90505F",
"U.	c #945260",
"V.	c #6D4458",
"W.	c #3D3851",
"X.	c #383750",
"Y.	c #3C3751",
"Z.	c #E8E7ED",
"`.	c #B4AEB5",
" +	c #866570",
".+	c #A86866",
"++	c #CD8377",
"@+	c #D08578",
"#+	c #C27672",
"$+	c #AB5F67",
"%+	c #8D4F5E",
"&+	c #7A485A",
"*+	c #935260",
"=+	c #744759",
"-+	c #423951",
";+	c #F4F3F8",
">+	c #D1D0D7",
",+	c #A19DA5",
"'+	c #977782",
")+	c #A7636C",
"!+	c #BE726F",
"~+	c #B0706D",
"{+	c #84515E",
"]+	c #8C4E5E",
"^+	c #9D5663",
"/+	c #8D505F",
"(+	c #714659",
"_+	c #563D54",
":+	c #3C3851",
"<+	c #E6E5EA",
"[+	c #D8D6DC",
"}+	c #B9B1B9",
"|+	c #8A6A77",
"1+	c #9A535E",
"2+	c #BD6D6E",
"3+	c #A56C6A",
"4+	c #694958",
"5+	c #935761",
"6+	c #B3676B",
"7+	c #8C545F",
"8+	c #373650",
"9+	c #332A48",
"0+	c #B7B6BD",
"a+	c #EFEDF3",
"b+	c #FBFAFF",
"c+	c #3B3751",
"d+	c #D6D5DB",
"e+	c #A09DA5",
"f+	c #92747F",
"g+	c #A6626C",
"h+	c #BA6B6B",
"i+	c #CA7D75",
"j+	c #A56C69",
"k+	c #6A4B59",
"l+	c #9B6366",
"m+	c #BE7771",
"n+	c #956164",
"o+	c #4C3E53",
"p+	c #3A3650",
"q+	c #B5B3BB",
"r+	c #F7F6FB",
"s+	c #F5F4F9",
"t+	c #6F4052",
"u+	c #613A50",
"v+	c #4D3851",
"w+	c #807B86",
"x+	c #804855",
"y+	c #B96B6C",
"z+	c #CC7C75",
"A+	c #6C4D59",
"B+	c #9E6867",
"C+	c #C68075",
"D+	c #B27870",
"E+	c #896365",
"F+	c #5F4A58",
"G+	c #3A3450",
"H+	c #35324F",
"I+	c #37334F",
"J+	c #2E2849",
"K+	c #4B475D",
"L+	c #9897A1",
"M+	c #C8C7CE",
"N+	c #D1D0D6",
"O+	c #CFCED5",
"P+	c #CFCED4",
"Q+	c #A24D53",
"R+	c #8A3F4F",
"S+	c #817C87",
"T+	c #88545B",
"U+	c #C17972",
"V+	c #CD8378",
"W+	c #A46B69",
"X+	c #6C4C59",
"Y+	c #9C6666",
"Z+	c #CB8478",
"`+	c #D18F7F",
" @	c #C0897B",
".@	c #8B6767",
"+@	c #4F4255",
"@@	c #473E53",
"#@	c #4B4054",
"$@	c #4A3F53",
"%@	c #504759",
"&@	c #696370",
"*@	c #7E7983",
"=@	c #827E88",
"-@	c #827F88",
";@	c #837F89",
">@	c #827E87",
",@	c #827D87",
"'@	c #BD5D58",
")@	c #A24E53",
"!@	c #87525A",
"~@	c #BF7470",
"{@	c #D08177",
"]@	c #D28679",
"^@	c #D18378",
"/@	c #C87A74",
"(@	c #9F6266",
"_@	c #6A4A59",
":@	c #9B6666",
"<@	c #CD8779",
"[@	c #DD9C87",
"}@	c #D8A28B",
"|@	c #BA8F7F",
"1@	c #9F7E74",
"2@	c #9D7D73",
"3@	c #9E7E73",
"4@	c #9E7D73",
"5@	c #9E7E74",
"6@	c #A08679",
"7@	c #A28C7E",
"8@	c #9F8578",
"9@	c #9C7D71",
"0@	c #9D8375",
"a@	c #A08E7F",
"b@	c #A4978A",
"c@	c #A49A8D",
"d@	c #A29284",
"e@	c #9F8779",
"f@	c #9C7E72",
"g@	c #9C7F73",
"h@	c #9F897A",
"i@	c #A08C7C",
"j@	c #A08D7D",
"k@	c #A29486",
"l@	c #A59C90",
"m@	c #A69D92",
"n@	c #A59D91",
"o@	c #A59D92",
"p@	c #A4988C",
"q@	c #A19081",
"r@	c #A08C7D",
"s@	c #A08B7B",
"t@	c #C86C5F",
"u@	c #AF5F5B",
"v@	c #774955",
"w@	c #D2D2D8",
"x@	c #817C88",
"y@	c #7C4556",
"z@	c #B16369",
"A@	c #C47572",
"B@	c #CB8176",
"C@	c #CD8478",
"D@	c #BB6A6D",
"E@	c #935360",
"F@	c #664757",
"G@	c #CD887A",
"H@	c #DEA38B",
"I@	c #E2B194",
"J@	c #DEAF93",
"K@	c #DAAC91",
"L@	c #D9AC91",
"M@	c #DAAD92",
"N@	c #DCB79A",
"O@	c #DFC0A1",
"P@	c #DDB99C",
"Q@	c #DAB094",
"R@	c #DDB99B",
"S@	c #E1C6A8",
"T@	c #E5D3B8",
"U@	c #E6D6BC",
"V@	c #E3CCAF",
"W@	c #DFBEA0",
"X@	c #DBB296",
"Y@	c #DBB497",
"Z@	c #E0C4A4",
"`@	c #E1C5A6",
" #	c #E4CEB2",
".#	c #E7D8BF",
"+#	c #E8DBC2",
"@#	c #E7DAC2",
"##	c #E7DBC2",
"$#	c #E5D4BA",
"%#	c #E2C9AB",
"&#	c #E0C4A5",
"*#	c #E0C2A3",
"=#	c #7C7884",
"-#	c #5C2947",
";#	c #874656",
">#	c #98575E",
",#	c #9F6362",
"'#	c #A16663",
")#	c #A06563",
"!#	c #A16563",
"~#	c #9B5C5F",
"{#	c #904D5A",
"]#	c #713E54",
"^#	c #5E4255",
"/#	c #9D6666",
"(#	c #CE897B",
"_#	c #DFA58D",
":#	c #E6B597",
"<#	c #E8B899",
"[#	c #E8B799",
"}#	c #EABE9F",
"|#	c #ECC5A4",
"1#	c #EAC0A0",
"2#	c #E9BA9B",
"3#	c #EABFA0",
"4#	c #ECC7A7",
"5#	c #EECFB1",
"6#	c #EFD1B4",
"7#	c #EDCAAB",
"8#	c #EAC2A2",
"9#	c #E9BA9C",
"0#	c #E9BB9C",
"a#	c #EBC3A3",
"b#	c #EBC5A5",
"c#	c #ECC7A6",
"d#	c #EECDAF",
"e#	c #F1D4B8",
"f#	c #F1D6BA",
"g#	c #F1D7BB",
"h#	c #F0D2B5",
"i#	c #EDCBAA",
"j#	c #EDC8A6",
"k#	c #ECC6A5",
"l#	c #A14E53",
"m#	c #8D8A94",
"n#	c #605768",
"o#	c #6C5E6D",
"p#	c #70606E",
"q#	c #72626F",
"r#	c #72636F",
"s#	c #71626F",
"t#	c #6E5E6D",
"u#	c #594F62",
"v#	c #594558",
"w#	c #DFA48C",
"x#	c #E5B597",
"y#	c #E6B798",
"z#	c #E6B698",
"A#	c #E6B799",
"B#	c #E7B89A",
"C#	c #E7B99B",
"D#	c #E7B799",
"E#	c #E7B899",
"F#	c #E7BA9D",
"G#	c #E8BB9D",
"H#	c #E8BC9E",
"I#	c #E7BB9D",
"J#	c #E7B99A",
"K#	c #A14D53",
"L#	c #883E4F",
"M#	c #5F3950",
"N#	c #E6E5EB",
"O#	c #C9C8CE",
"P#	c #BBBAC1",
"Q#	c #BBBBC2",
"R#	c #BCBBC3",
"S#	c #B7B7BE",
"T#	c #93939D",
"U#	c #665967",
"V#	c #9C6363",
"W#	c #F0EFF4",
"X#	c #EFEEF3",
"Y#	c #F1F0F5",
"Z#	c #BDBDC4",
"`#	c #736874",
" $	c #9A6060",
".$	c #E6B598",
"+$	c #7A4D56",
"@$	c #FCFBFF",
"#$	c #C4C4CB",
"$$	c #766A76",
"%$	c #9A5F5F",
"&$	c #B5675F",
"*$	c #B5685F",
"=$	c #B4675F",
"-$	c #AE5F5B",
";$	c #F2F0F6",
">$	c #C3C3CA",
",$	c #756A76",
"'$	c #CD7363",
")$	c #F1F0F6",
"!$	c #CE7363",
"~$	c #CE7463",
"{$	c #CD7162",
"]$	c #4D3951",
"^$	c #BA5755",
"/$	c #9E4650",
"($	c #6D3C50",
"_$	c #C86B5E",
":$	c #E5B497",
"<$	c #C05D57",
"[$	c #A54C52",
"}$	c #714051",
"|$	c #CA6C5F",
"1$	c #9A6160",
"2$	c #DD9E88",
"3$	c #E2AD92",
"4$	c #E5B396",
"5$	c #B85758",
"6$	c #9E4A54",
"7$	c #6D3F52",
"8$	c #C2645C",
"9$	c #C6695E",
"0$	c #756975",
"a$	c #995F60",
"b$	c #D99482",
"c$	c #DDA18B",
"d$	c #E2AE92",
"e$	c #A24658",
"f$	c #883F58",
"g$	c #613A53",
"h$	c #B04F56",
"i$	c #B75354",
"j$	c #B75454",
"k$	c #C3C2C9",
"l$	c #706371",
"m$	c #915158",
"n$	c #C47772",
"o$	c #D2887B",
"p$	c #D89583",
"q$	c #E5B496",
"r$	c #E4B396",
"s$	c #E4B296",
"t$	c #E5B296",
"u$	c #E4B195",
"v$	c #833957",
"w$	c #6D3757",
"x$	c #513753",
"y$	c #933E52",
"z$	c #9A414F",
"A$	c #9B414F",
"B$	c #C6C6CC",
"C$	c #837A85",
"D$	c #905B68",
"E$	c #B5676C",
"F$	c #C67773",
"G$	c #D1887B",
"H$	c #E4B295",
"I$	c #E5B397",
"J$	c #5E3853",
"K$	c #533753",
"L$	c #463852",
"M$	c #663A51",
"N$	c #6A3B50",
"O$	c #D8D8DE",
"P$	c #C1BDC4",
"Q$	c #A5939C",
"R$	c #925966",
"S$	c #AD5E63",
"T$	c #C77873",
"U$	c #D2887C",
"V$	c #D89482",
"W$	c #DB9B87",
"X$	c #DC9F89",
"Y$	c #DD9F89",
"Z$	c #DDA089",
"`$	c #DDA18A",
" %	c #DEA18A",
".%	c #DEA28A",
"+%	c #DCA08A",
"@%	c #DDA38B",
"#%	c #DEA38C",
"$%	c #DEA48C",
"%%	c #DEA58D",
"&%	c #DFA68D",
"*%	c #DFA58C",
"=%	c #6C3C50",
"-%	c #683A51",
";%	c #603953",
">%	c #543853",
",%	c #473852",
"'%	c #E9E8ED",
")%	c #897A85",
"!%	c #99616D",
"~%	c #B3666B",
"{%	c #C07671",
"]%	c #C78276",
"^%	c #C78376",
"/%	c #C78377",
"(%	c #C88377",
"_%	c #C88477",
":%	c #C88578",
"<%	c #C98578",
"[%	c #933F52",
"}%	c #DADAE0",
"|%	c #C4C1C7",
"1%	c #A39099",
"2%	c #84505F",
"3%	c #864E56",
"4%	c #8C595C",
"5%	c #8C585C",
"6%	c #943F52",
"7%	c #843A57",
"8%	c #6F3757",
"9%	c #533853",
"0%	c #E8E6EC",
"a%	c #B8B5BD",
"b%	c #85808B",
"c%	c #7E7883",
"d%	c #817B86",
"e%	c #553853",
"f%	c #D9D9DF",
"g%	c #D0D0D6",
"h%	c #CFCFD5",
"i%	c #3A3751",
"j%	c #855259",
"k%	c #834E57",
"l%	c #7F4654",
"m%	c #703E51",
"n%	c #543A51",
"o%	c #C87267",
"p%	c #C56A62",
"q%	c #BE5A59",
"r%	c #A44A53",
"s%	c #E27E6C",
"t%	c #E27E6D",
"u%	c #E27F6D",
"v%	c #E07969",
"w%	c #D96B60",
"x%	c #BC5A59",
"y%	c #E37F6D",
"z%	c #E3806D",
"A%	c #E37E6C",
"B%	c #C46A62",
"C%	c #E9977A",
"D%	c #E89478",
"E%	c #E68D74",
"F%	c #E48670",
"G%	c #E3816E",
"H%	c #C77166",
"I%	c #F5BA8E",
"J%	c #F2B389",
"K%	c #EDA380",
"L%	c #E89377",
"M%	c #E48671",
"N%	c #C77167",
"O%	c #FBCA97",
"P%	c #F9C393",
"Q%	c #F3B68B",
"R%	c #EEA581",
"S%	c #E58771",
"T%	c #FBCB97",
"U%	c #FAC896",
"V%	c #F4B88C",
"W%	c #E99477",
"X%	c #EEA380",
"Y%	c #855159",
"Z%	c #F3B389",
"`%	c #855059",
" &	c #FBC996",
".&	c #FBCA96",
"+&	c #F6BB8E",
"@&	c #FDD8A9",
"#&	c #FDD6A4",
"$&	c #FDD29F",
"%&	c #FCCD9A",
"&&	c #FCCB98",
"*&	c #FCCB97",
"=&	c #F9C493",
"-&	c #F4B389",
";&	c #E99478",
">&	c #C77267",
",&	c #FDD4A1",
"'&	c #FDD5A4",
")&	c #FDD9AC",
"!&	c #FEECC2",
"~&	c #FEE6B6",
"{&	c #FDDCA9",
"]&	c #FCD19D",
"^&	c #FEE2B0",
"/&	c #FEE2AF",
"(&	c #FCD19E",
"_&	c #FEEFC8",
":&	c #E0D8B8",
"<&	c #E0D1AB",
"[&	c #DFC79D",
"}&	c #DDB990",
"|&	c #DDB289",
"1&	c #DCB188",
"2&	c #DAAA84",
"3&	c #D4997A",
"4&	c #CF8871",
"5&	c #C9796A",
"6&	c #AF6661",
"7&	c #774C57",
"8&	c #E0D8B7",
"9&	c #E0CEA4",
"0&	c #E0CDA3",
"a&	c #E0DBBE",
"b&	c #948F83",
"c&	c #948A7C",
"d&	c #948474",
"e&	c #937B6D",
"f&	c #927769",
"g&	c #927669",
"h&	c #907267",
"i&	c #8D6862",
"j&	c #8A5E5E",
"k&	c #86565B",
"l&	c #584053",
"m&	c #948878",
"n&	c #948877",
"o&	c #949186",
"      . . . . . . . . . . . . . . . . . . . . . . . . . . . . . .                                                               ",
"      . + @ # $ $ $ # # # # # # # # # # # # # # # # # # $ $ # % &                                                               ",
"      . * = - ; > > > > > > > > > > > > > > > > > > > > > ; , ' ) !                                                             ",
"      . ~ { ] ^ / ( _ : : : : : : : : : : : : : : : : _ < [ } | 1 2 3                                                           ",
"      . 4 5 6 7 8 9 0 a a a a a a a a a a a a a a a a 0 b c d e f g h i                                                         ",
"      . 4 j k l m n o o o o o o o o o o o o o o o o o o p q r s t u v w x                                                       ",
"      . 4 j y z A B B B B B B B B B B B B B B B B B B B B C D E F G H I J K                                                     ",
"      . ~ L M N O P Q B B B B B B B B B B B B B B B B B R S T U V W X Y Z K                                                     ",
"      . `  ...+.@.#.P B B B B B B B B B B B B B B B B C $.$.%.&.*.=.-.;.>.K                                                     ",
"        ,.'.).!.~.@.{.].B B B B B B B B B B B B R S ^./.(._.:.<.[.}.|.;.>.K                                                     ",
"          1.2.3.4.5.6.7.R B B B B B B B B B B C 8.9.0.:.a.b.c.d.e.f.g.;.>.K                                                     ",
"            h.i.j.k.l.m.R B B B B B B B B Q P n.o.p.q.r.s.t.u.}.v.w.g.;.>.K                                                     ",
"              1.x.y.z.A.o B B B B B B B B C B.C.D.E.F.G.H.I.J.K.    g.;.>.K                                                     ",
"              L.M.N.O.A.o B B B B B B B P P.Q.R.S.T.U.V.W.X.Y.w.    g.;.>.K                                                     ",
"            Z.* `. +.+++S B B B B B B R @+#+$+%+&+*+d =+-+Y.        g.;.>.K                                                     ",
"          ;+>+,+'+)+!+7.R B B B B B B R m.~+{+]+^+/+(+_+f.w.        g.;.>.K                                                     ",
":+W.w.  <+[+}+|+1+2+/.@+B B B B B B B S m.3+4+5+6+7+I.8+            9+;.0+a+b+                        w.W.:+c+c+c+c+c+c+c+c+c+c+",
"      . d+e+f+g+h+i+C B B B B B B B B S m.j+k+l+m+n+o+p+            g.;.q+K r+s+s+s+s+s+s+s+s+s+s+s+s+s+s+s+s+s+s+s+s+s+s+s+s+s+",
"t+u+v+. ~ w+x+y+z+@+Q B B B B B B B B o m.3+A+B+C+D+E+F+G+H+I+I+I+I+J+K+L+M+N+O+O+O+O+O+O+O+O+O+O+O+P+P+P+P+P+P+P+P+O+O+O+O+O+O+",
"Q+R+u+. 4 S+T+U+A B B B B B B B B B B R V+W+X+Y+Z+`+ @.@+@@@#@#@#@#@$@%@&@*@=@=@-@;@=@>@,@,@>@>@=@-@;@;@;@;@;@;@;@;@-@=@>@>@=@>@",
"'@)@t+. 4 j !@~@{@]@o o o o o o o o S ^@/@(@_@:@<@[@}@|@1@2@3@3@4@5@6@7@8@9@0@a@b@c@d@e@f@g@h@i@j@k@l@m@n@n@n@n@o@n@p@q@i@i@r@s@",
"t@u@v@. w@x@y@z@A@B@C@++++++++++++C@++/@D@E@F@Y+G@H@I@J@K@L@L@L@L@M@N@O@P@Q@R@S@T@U@V@W@X@Y@O@Z@`@ #.#+#@#@#@#@###@#$#%#Z@Z@&#*#",
"t@u@v@. ~ =#-#;#>#,#'#)#)#)#)#)#)#!#)#~#{#]#^#/#(#_#:#<#[#<#<#<#[#<#}#|#1#2#3#4#5#6#7#8#9#0#a#b#c#d#e#f#g#g#g#g#g#g#h#i#c#c#j#k#",
"'@l#t+. d+m#n#o#p#q#r#r#r#r#r#r#r#r#r#s#t#u#v#/#(#w#x#y#z#z#z#z#z#z#A#B#A#z#A#B#C#C#B#D#A#A#D#E#E#C#F#G#G#G#G#G#H#H#I#C#J#J#J#J#",
"K#L#M#. N#O#P#Q#Q#Q#Q#Q#Q#Q#Q#Q#Q#Q#Q#R#S#T#U#V#(#w#x#y#z#z#z#z#z#z#z#z#z#z#z#z#z#z#z#z#z#z#z#z#z#z#z#z#z#z#:#:#:#:#:#z#z#z#z#z#",
"t+u+v+. ;+W#X#X#X#X#X#X#X#X#X#X#X#X#X#Y#+ Z#`# $(#w#x#y#z#z#z#z#z#z#z#z#z#z#z#z#z#z#z#z#z#z#z#z#z#z#z#z#z#z#z#z#z#z#.$x#x#x#x#:#",
"+$+$+$+$+$+$+$v@t+u+v+v+u+t+v@+$+$+$+$@$;+#$$$%$(#w#x#y#z#z#z#z#z#z#z#z#z#z#z#z#z#z#z#z#z#z#z#z#z#z#z#z#z#z#z#z#z#z#z#.$:#x#:#:#",
"&$&$*$&$&$*$=$-$K#L#M#M#L#K#-$=$*$&$&$*$;$>$,$ $(#w#x#y#z#z#z#z#z#z#z#z#z#z#z#z#z#z#z#z#z#z#z#z#z#z#z#z#z#z#z#z#z#z#z#z#z#z#z#z#",
"'$'$'$'$'$'$'$t@'@)@t+t+)@'@t@'$'$'$'$'$)$>$,$ $(#w#x#y#z#z#z#z#z#z#z#z#z#z#z#z#z#z#z#z#z#z#z#z#z#z#z#z#z#z#z#z#z#z#z#z#z#z#z#z#",
"!$!$!$!$!$~$!${$t@-$v@v@-$t@{$!$~$!$!$~$)$>$,$ $(#w#x#y#z#z#z#z#z#z#z#z#z#z#z#z#z#z#z#z#z#z#z#z#z#z#z#z#z#z#z#z#z#z#z#z#z#z#z#z#",
"!$!$!$!$!$~$!${$t@-$v@v@-$t@{$!$~$!$!$~$)$>$,$ $(#w#x#y#z#z#z#z#z#z#z#z#z#z#z#z#z#z#z#z#z#z#z#z#z#z#z#z#z#z#z#z#z#z#z#z#z#z#z#z#",
"'$'$'$'$'$'$'$t@'@)@t+t+)@'@t@'$'$'$'$'$)$>$,$ $(#w#x#y#z#z#z#z#z#z#z#z#z#z#z#z#z#z#z#z#z#z#z#z#z#z#z#z#z#z#z#z#z#z#z#z#z#z#z#z#",
"&$&$*$*$&$*$=$-$K#L#M#M#L#K#-$=$*$&$*$*$)$>$,$ $(#w#x#y#z#z#z#z#z#z#z#z#z#z#z#z#z#z#z#z#z#z#z#z#z#z#z#z#z#z#z#z#z#z#z#z#z#z#z#z#",
"+$+$+$+$+$+$+$v@t+u+v+v+u+t+v@+$+$+$+$+$)$>$,$ $(#w#x#y#z#z#z#z#z#z#z#z#z#z#z#z#z#z#z#z#z#z#z#z#z#z#z#z#z#z#z#z#z#z#z#z#z#z#z#z#",
"t+u+]$]$u+t+v@+$+$+$+$+$+$+$+$v@t+u+]$]$)$>$,$ $(#w#x#y#z#z#z#z#z#z#z#z#z#z#z#z#z#z#z#z#z#z#z#z#z#z#z#z#z#z#z#z#z#z#z#z#z#z#z#z#",
"K#L#M#M#L#K#-$=$*$&$*$*$&$*$=$-$K#L#M#M#)$>$,$ $(#_#x#A#z#z#z#z#z#z#z#z#:#.$z#z#z#z#z#z#z#z#z#z#z#z#z#z#z#z#z#z#z#z#z#z#z#z#z#z#",
"^$/$($($/$^$_$'$~$'$'$'$'$~$'$_$^$/$($($)$>$,$ $(#w#:$z#z#z#z#z#z#z#z#z#z#:#z#z#z#z#z#z#z#z#z#z#z#z#z#z#z#z#z#z#z#z#z#z#z#z#z#z#",
"<$[$}$}$[$<$|$!$~$!$!$!$!$~$!$|$<$[$}$}$)$>$,$1$G@2$3$4$z#z#z#z#z#z#z#z#z#z#:#z#z#z#z#z#z#z#z#z#z#z#z#z#z#z#z#z#z#z#z#z#z#z#z#z#",
"5$6$7$7$6$5$8$9$9$9$9$9$9$9$9$8$5$6$7$7$)$>$0$a$Z+b$c$d$x#z#z#z#z#z#z#z#z#z#z#:#x#.$z#z#z#z#.$z#z#z#z#z#z#z#z#z#z#z#z#z#z#z#.$4$",
"e$f$g$g$f$e$h$i$j$i$i$i$i$j$i$h$e$f$g$g$)$k$l$m$n$o$p$H@3$:$A#A#A#A#A#A#A#A#D#z#q$4$4$4$r$s$t$:$z#z#z#z#z#z#z#z#z#z#z#z#z#:#4$u$",
"v$w$x$x$w$v$y$z$z$z$A$A$z$z$z$y$v$w$x$x$;$B$C$D$E$F$G$p$c$3$s$s$s$s$s$s$s$s$s$H$s$H$H$H$H$H$u$H$r$r$I$I$:$:$:$:$:$:$x#x#x#q$4$H$",
"J$K$L$L$K$J$M$N$N$N$N$N$N$N$N$M$J$K$L$L$K$O$P$Q$R$S$T$U$V$W$X$Y$X$X$X$X$X$X$X$X$Z$`$ %.%`$`$Z$Y$X$X$+%`$c$@%#%$%%%_#&%&%&%_#*%H@",
"=%=%=%=%=%=%=%-%;%>%,%,%>%;%-%=%=%=%=%=%=%-%'%J )%!%~%{%C+]%]%]%]%]%]%]%]%]%]%]%]%]%]%]%]%]%]%]%]%]%]%]%^%/%(%_%_%:%<%<%<%:%_%(%",
"z$z$A$A$z$z$z$y$v$w$x$x$w$v$y$z$z$z$A$A$z$[%v$}%|%1%2%3%4%4%5%5%5%5%5%5%5%5%5%5%5%5%5%5%5%5%5%5%5%5%5%5%5%5%5%5%5%5%4%4%4%5%5%5%",
"A$A$A$A$A$A$A$6%7%8%9%9%8%7%6%A$A$A$A$A$A$6%7%8%0%a%b%c%d%d%d%d%d%d%d%d%d%d%d%d%d%d%d%d%d%d%d%d%d%d%d%d%d%d%d%d%d%d%d%d%d%d%d%d%",
"=%=%=%=%=%=%=%-%;%>%,%,%>%;%-%=%=%=%=%=%=%-%;%e%,%f%g%h%h%h%h%h%h%h%h%h%h%h%h%h%h%h%h%h%h%h%h%h%h%h%h%h%h%h%h%h%h%h%h%h%h%h%h%h%",
"i%i%i%i%i%i%i%i%i%i%c+:+w.w.:+c+i%i%i%i%i%i%i%i%i%i%s+s+s+s+s+s+s+s+s+s+s+s+s+s+s+s+s+s+s+s+s+s+s+s+s+s+s+s+s+s+s+s+s+s+s+s+s+s+",
":+:+:+:+:+:+:+W.W.w.    w.W.W.:+:+:+:+:+:+W.W.w.                                        w.W.W.:+:+:+:+:+:+W.W.w.    w.W.W.:+:+:+",
"j%j%j%j%j%j%j%j%j%k%l%m%n%n%m%l%k%j%j%j%j%j%j%j%j%j%j%j%j%j%j%j%j%j%j%k%l%m%n%n%m%l%k%j%j%j%j%j%j%j%j%j%j%j%j%j%j%j%j%j%j%j%j%j%",
"o%o%o%o%o%o%o%o%o%p%q%r%m%m%r%q%p%o%o%o%o%o%o%o%o%o%o%o%o%o%o%o%o%o%o%p%q%r%m%m%r%q%p%o%o%o%o%o%o%o%o%o%o%o%o%o%o%o%o%o%o%o%o%o%",
"s%s%s%s%s%t%t%u%u%v%w%x%l%l%x%w%v%u%u%t%t%s%s%s%s%s%s%s%s%s%s%t%t%u%u%v%w%x%l%l%x%w%v%u%u%t%t%s%s%s%s%s%s%s%s%s%s%s%s%s%s%s%s%s%",
"y%y%y%y%y%y%y%z%y%A%v%B%k%k%B%v%A%y%z%y%y%y%y%y%y%y%y%y%y%y%y%y%y%z%y%A%v%B%k%k%B%v%A%y%z%y%y%y%y%y%y%y%y%y%y%y%y%y%y%y%y%y%y%y%",
"C%C%C%C%C%D%E%F%G%y%u%H%j%j%H%u%y%G%F%E%D%C%C%C%C%C%C%C%C%C%C%D%E%F%G%y%u%H%j%j%H%u%y%G%F%E%D%C%C%C%C%C%C%C%C%C%C%C%C%C%C%C%C%C%",
"I%I%I%I%I%J%K%L%M%z%u%N%j%j%N%u%z%M%L%K%J%I%I%I%I%I%I%I%I%I%I%J%K%L%M%z%u%N%j%j%N%u%z%M%L%K%J%I%I%I%I%I%I%I%I%I%I%I%I%I%I%I%I%I%",
"O%O%O%O%O%P%Q%R%L%S%G%H%j%j%H%G%S%L%R%Q%P%O%O%O%O%O%O%O%O%O%O%P%Q%R%L%S%G%H%j%j%H%G%S%L%R%Q%P%O%O%O%O%O%O%O%O%O%O%O%O%O%O%O%O%O%",
"T%T%T%T%T%U%P%V%R%W%F%H%j%j%H%F%W%R%V%P%U%T%T%T%T%T%T%T%T%T%T%U%P%V%R%W%F%H%j%j%H%F%W%R%V%P%U%T%T%T%T%T%T%T%T%T%T%T%T%T%T%T%T%T%",
"O%O%O%O%O%O%O%P%Q%X%E%H%Y%Y%H%E%X%Q%P%O%O%O%O%O%O%O%O%O%O%O%O%O%O%P%Q%X%E%H%Y%Y%H%E%X%Q%P%O%O%O%O%O%O%O%O%O%O%O%O%O%O%O%O%O%O%O%",
"O%O%O%O%O%O%O%U%P%Z%D%H%`%`%H%D%Z%P%U%O%O%O%O%O%O%O%O%O%O%O%O%O%O%U%P%Z%D%H%`%`%H%D%Z%P%U%O%O%O%O%O%O%O%O%O%O%O%O%O%O%O%O%O%O%O%",
" & &.&O%O%O%O%T%O%+&C%H%`%`%H%C%+&O%T%O%O%O%O%.& & &.&O%O%O%O%O%O%T%O%+&C%H%`%`%H%C%+&O%T%O%O%O%O%O% & & & &O%O%O%O%O%O%O%.& & &",
"O%O%O%O%O%O%O%T%O%+&C%H%`%`%H%C%+&O%T%O%O%O%O%O%O%O%O%O%O%O%O%O%O%T%O%+&C%H%`%`%H%C%+&O%T%O%O%O%O%O%O%O%O%O%O%O%O%O%O%O%O%O%O%O%",
"@&@&#&$&%&&&*& &=&-&;&>&Y%Y%>&;&-&=& &*&&&%&$&#&@&@&#&,&,&$&%&&&*& &=&-&;&>&Y%Y%>&;&-&=& &*&&&%&$&'&@&)&)&@&'&$&%&*&*&%&$&#&@&@&",
"!&!&~&{&]&O%O%P%Q%X%E%H%Y%Y%H%E%X%Q%P%O%O%]&{&~&!&!&~&^&/&{&(&O%O%P%Q%X%E%H%Y%Y%H%E%X%Q%P%O%O%]&{&~&!&_&_&!&~&{&]&O%O%]&{&~&!&!&",
":&:&<&[&}&|&1&2&3&4&5&6&7&7&6&5&4&3&2&1&|&}&[&<&:&8&<&9&0&[&}&|&1&2&3&4&5&6&7&7&6&5&4&3&2&1&|&}&[&<&:&a&a&:&<&[&}&1&1&}&[&<&:&:&",
"b&b&c&d&e&f&g&h&i&j&k&7&l&l&7&k&j&i&h&g&f&e&d&c&b&b&c&m&n&d&e&f&g&h&i&j&k&7&l&l&7&k&j&i&h&g&f&e&d&c&b&o&o&b&c&d&e&g&g&e&d&c&b&b&"};
