/* XPM */
static char * move2_xpm[] = {
"64 64 645 2",
"  	c #3F3851",
". 	c #3E3851",
"+ 	c #3D3851",
"@ 	c #3C3851",
"# 	c #3B3751",
"$ 	c #F5F4F9",
"% 	c #CFCED5",
"& 	c #CFCED4",
"* 	c #CFCFD5",
"= 	c #D0D0D6",
"- 	c #D9D9DF",
"; 	c #827D87",
"> 	c #827E87",
", 	c #827E88",
"' 	c #837F89",
") 	c #827F88",
"! 	c #827C87",
"~ 	c #817C86",
"{ 	c #7E7984",
"] 	c #86818B",
"^ 	c #B8B6BD",
"/ 	c #E8E7EC",
"( 	c #9D8376",
"_ 	c #9B7B70",
": 	c #9A796E",
"< 	c #9A796F",
"[ 	c #9C7E72",
"} 	c #9F887A",
"| 	c #A29284",
"1 	c #A49A8E",
"2 	c #A3978A",
"3 	c #A08D7E",
"4 	c #9D8375",
"5 	c #9B7D71",
"6 	c #A08B7C",
"7 	c #A08C7C",
"8 	c #A18F81",
"9 	c #A4988B",
"0 	c #A59D91",
"a 	c #A59D92",
"b 	c #A69D92",
"c 	c #A59C90",
"d 	c #A39487",
"e 	c #9F897A",
"f 	c #9C8073",
"g 	c #9A7A6F",
"h 	c #99756C",
"i 	c #956C67",
"j 	c #90605F",
"k 	c #906365",
"l 	c #A9969B",
"m 	c #C4C1C7",
"n 	c #DDB89B",
"o 	c #DAAE92",
"p 	c #D9AB91",
"q 	c #D9AC91",
"r 	c #DBB296",
"s 	c #DFBFA1",
"t 	c #E3CCB0",
"u 	c #E6D6BD",
"v 	c #E5D2B7",
"w 	c #E1C6A7",
"x 	c #DDB89A",
"y 	c #DAB094",
"z 	c #DDB99C",
"A 	c #E0C3A3",
"B 	c #E0C4A4",
"C 	c #E2C8AA",
"D 	c #E5D4B9",
"E 	c #E7DAC2",
"F 	c #E7DBC2",
"G 	c #E8DBC2",
"H 	c #E7D9C0",
"I 	c #E4CFB3",
"J 	c #E1C5A6",
"K 	c #DFC0A1",
"L 	c #DCB498",
"M 	c #D7A68D",
"N 	c #D29A86",
"O 	c #CE8E7E",
"P 	c #C58378",
"Q 	c #A87674",
"R 	c #8E7E86",
"S 	c #BDBBC2",
"T 	c #E9E8ED",
"U 	c #EAC0A0",
"V 	c #E8B99A",
"W 	c #E8B799",
"X 	c #E8B899",
"Y 	c #E9BC9C",
"Z 	c #EBC4A3",
"` 	c #EECDAE",
" .	c #F0D4B7",
"..	c #EFD1B3",
"+.	c #EDC8A8",
"@.	c #EABF9F",
"#.	c #E9BA9B",
"$.	c #ECC7A5",
"%.	c #ECC7A6",
"&.	c #EDCAAA",
"*.	c #F0D2B4",
"=.	c #F1D7BB",
"-.	c #F1D6B9",
";.	c #EFCFB0",
">.	c #EDC8A7",
",.	c #ECC5A4",
"'.	c #E9BD9D",
").	c #E6B497",
"!.	c #E3AD92",
"~.	c #DFA28B",
"{.	c #D79482",
"].	c #BE7C70",
"^.	c #A06F6E",
"/.	c #AB989E",
"(.	c #C2BEC5",
"_.	c #D8D8DE",
":.	c #E6B799",
"<.	c #E6B698",
"[.	c #E7B89A",
"}.	c #E7BA9C",
"|.	c #E7BB9D",
"1.	c #E7B99B",
"2.	c #E7B99A",
"3.	c #E8BC9E",
"4.	c #E7BB9E",
"5.	c #E5B497",
"6.	c #E2AD92",
"7.	c #DDA08A",
"8.	c #D59280",
"9.	c #C68378",
"0.	c #9D6D6E",
"a.	c #857C86",
"b.	c #C6C5CC",
"c.	c #F2F0F6",
"d.	c #E6B798",
"e.	c #E6B597",
"f.	c #E6B697",
"g.	c #E6B598",
"h.	c #E5B396",
"i.	c #E2AC91",
"j.	c #DD9E88",
"k.	c #CE887A",
"l.	c #995D5C",
"m.	c #716571",
"n.	c #C2C2C9",
"o.	c #F1F0F6",
"p.	c #E5B597",
"q.	c #E5B496",
"r.	c #DFA48C",
"s.	c #9A6060",
"t.	c #756A76",
"u.	c #C3C3CA",
"v.	c #E4B195",
"w.	c #E4B396",
"x.	c #DFA58D",
"y.	c #CE897B",
"z.	c #4D3851",
"A.	c #613A50",
"B.	c #6F4052",
"C.	c #9A5F5F",
"D.	c #766A76",
"E.	c #C4C4CB",
"F.	c #F4F3F8",
"G.	c #FCFBFF",
"H.	c #736874",
"I.	c #BDBDC4",
"J.	c #ECEBF0",
"K.	c #F1F0F5",
"L.	c #EFEEF3",
"M.	c #F0EFF4",
"N.	c #F6F5FA",
"O.	c #E3B094",
"P.	c #E4B295",
"Q.	c #E7B799",
"R.	c #DC9D88",
"S.	c #CD877A",
"T.	c #9C6463",
"U.	c #665967",
"V.	c #93939D",
"W.	c #B7B7BE",
"X.	c #BCBBC3",
"Y.	c #BBBBC2",
"Z.	c #BBBAC1",
"`.	c #C9C8CE",
" +	c #E6E5EB",
".+	c #E4B296",
"++	c #E4B395",
"@+	c #E5B296",
"#+	c #E1AB91",
"$+	c #D99482",
"%+	c #CC8579",
"&+	c #9E6766",
"*+	c #594558",
"=+	c #594F62",
"-+	c #6E5E6D",
";+	c #71626F",
">+	c #72636F",
",+	c #72626F",
"'+	c #70606E",
")+	c #6C5E6D",
"!+	c #605768",
"~+	c #8D8A94",
"{+	c #D6D5DB",
"]+	c #DEA18A",
"^+	c #DDA18A",
"/+	c #DD9F89",
"(+	c #DC9F89",
"_+	c #DEA28A",
":+	c #DEA38B",
"<+	c #DEA48B",
"[+	c #DDA089",
"}+	c #DA9A86",
"|+	c #D79381",
"1+	c #D68D7D",
"2+	c #CC8478",
"3+	c #9D6867",
"4+	c #5E4255",
"5+	c #713E54",
"6+	c #904D5A",
"7+	c #9B5C5F",
"8+	c #A06563",
"9+	c #A16563",
"0+	c #A16663",
"a+	c #9F6362",
"b+	c #98575E",
"c+	c #874656",
"d+	c #5C2947",
"e+	c #7C7884",
"f+	c #D2D1D7",
"g+	c #C78276",
"h+	c #C78376",
"i+	c #C78377",
"j+	c #C78277",
"k+	c #CA8377",
"l+	c #CE8378",
"m+	c #D28679",
"n+	c #CB8277",
"o+	c #9C6867",
"p+	c #664757",
"q+	c #935360",
"r+	c #BB6A6D",
"s+	c #C87A74",
"t+	c #CD8377",
"u+	c #CD8478",
"v+	c #CB8176",
"w+	c #C47572",
"x+	c #B16369",
"y+	c #7C4556",
"z+	c #817C88",
"A+	c #D2D2D8",
"B+	c #8C585C",
"C+	c #8C595D",
"D+	c #8E5C5F",
"E+	c #8F5E62",
"F+	c #905F62",
"G+	c #915F62",
"H+	c #A56568",
"I+	c #BF706F",
"J+	c #CD7C75",
"K+	c #CA8176",
"L+	c #6A4A59",
"M+	c #9F6266",
"N+	c #D18378",
"O+	c #D2877A",
"P+	c #D3877A",
"Q+	c #D08177",
"R+	c #BF7470",
"S+	c #87525A",
"T+	c #827D88",
"U+	c #D2D1D8",
"V+	c #817B86",
"W+	c #7D7782",
"X+	c #67606E",
"Y+	c #4D4156",
"Z+	c #473A51",
"`+	c #483C52",
" @	c #463B52",
".@	c #4B3C53",
"+@	c #79495A",
"@@	c #A55C65",
"#@	c #C17370",
"$@	c #C87F75",
"%@	c #6C4C59",
"&@	c #A46B69",
"*@	c #CD8378",
"=@	c #D28779",
"-@	c #D18679",
";@	c #D18478",
">@	c #C17972",
",@	c #88545B",
"'@	c #817C87",
")@	c #D1D0D7",
"!@	c #C8C8CE",
"~@	c #9998A1",
"{@	c #4C4A5E",
"]@	c #302C4B",
"^@	c #393650",
"/@	c #383550",
"(@	c #3B3650",
"_@	c #543B53",
":@	c #78495A",
"<@	c #AA6A6A",
"[@	c #C47E74",
"}@	c #9E6867",
"|@	c #6C4D59",
"1@	c #A56C6A",
"2@	c #CE8478",
"3@	c #D18779",
"4@	c #D08578",
"5@	c #CC7C75",
"6@	c #B96B6C",
"7@	c #804855",
"8@	c #807B86",
"9@	c #F7F6FB",
"0@	c #EDECF1",
"a@	c #B5B3BB",
"b@	c #585465",
"c@	c #332A49",
"d@	c #4C3D53",
"e@	c #956064",
"f@	c #BE7771",
"g@	c #9B6366",
"h@	c #6A4B59",
"i@	c #A56C69",
"j@	c #D08478",
"k@	c #CA7D75",
"l@	c #BA6B6B",
"m@	c #A6626C",
"n@	c #92747F",
"o@	c #A09DA5",
"p@	c #5E3853",
"q@	c #843A57",
"r@	c #A24658",
"s@	c #B95858",
"t@	c #FBFAFF",
"u@	c #EFEDF3",
"v@	c #B7B6BD",
"w@	c #332A48",
"x@	c #383650",
"y@	c #473A52",
"z@	c #8C5560",
"A@	c #B4676B",
"B@	c #935761",
"C@	c #694958",
"D@	c #CB7C75",
"E@	c #BD6D6E",
"F@	c #9A535E",
"G@	c #8A6A77",
"H@	c #B9B1B9",
"I@	c #D8D6DC",
"J@	c #E6E5EA",
"K@	c #543A51",
"L@	c #703E51",
"M@	c #7F4654",
"N@	c #834E57",
"O@	c #855259",
"P@	c #513753",
"Q@	c #6E3757",
"R@	c #883E57",
"S@	c #9E4A54",
"T@	c #AC5756",
"U@	c #B7B5BD",
"V@	c #403851",
"W@	c #563D54",
"X@	c #714659",
"Y@	c #8D505F",
"Z@	c #9D5663",
"`@	c #8C4E5E",
" #	c #84515E",
".#	c #B0706D",
"+#	c #CF8478",
"@#	c #BE726F",
"##	c #A7636C",
"$#	c #977782",
"%#	c #A19DA5",
"&#	c #A54A53",
"*#	c #BE5A59",
"=#	c #C56A62",
"-#	c #C87267",
";#	c #463852",
">#	c #533853",
",#	c #613A53",
"'#	c #6D3F52",
")#	c #754453",
"!#	c #3C3751",
"~#	c #423951",
"{#	c #744759",
"]#	c #9C5562",
"^#	c #935260",
"/#	c #7A485A",
"(#	c #8D4F5E",
"_#	c #AB5F67",
":#	c #C27672",
"<#	c #A86866",
"[#	c #866570",
"}#	c #B4AEB5",
"|#	c #DAD9DF",
"1#	c #E8E7ED",
"2#	c #7F4553",
"3#	c #BD5958",
"4#	c #D96A60",
"5#	c #E07868",
"6#	c #E27E6C",
"7#	c #E27E6D",
"8#	c #E27F6D",
"9#	c #E07969",
"0#	c #D96B60",
"a#	c #473852",
"b#	c #673A51",
"c#	c #6B3B50",
"d#	c #6D3D51",
"e#	c #3A3751",
"f#	c #373650",
"g#	c #6D4358",
"h#	c #935160",
"i#	c #90505F",
"j#	c #844D5D",
"k#	c #A35E65",
"l#	c #C17070",
"m#	c #CC7E76",
"n#	c #D18579",
"o#	c #CC8377",
"p#	c #9C6361",
"q#	c #716672",
"r#	c #C1C1C8",
"s#	c #F3F2F7",
"t#	c #E37E6C",
"u#	c #E37F6D",
"v#	c #E3806D",
"w#	c #6F3757",
"x#	c #943F52",
"y#	c #9B414F",
"z#	c #9A414F",
"A#	c #9E4550",
"B#	c #443952",
"C#	c #463A52",
"D#	c #493C52",
"E#	c #543F54",
"F#	c #694557",
"G#	c #8C505E",
"H#	c #AB5E67",
"I#	c #C07170",
"J#	c #CC7F76",
"K#	c #9F6462",
"L#	c #766672",
"M#	c #BEBEC5",
"N#	c #EEEDF2",
"O#	c #895D5E",
"P#	c #CE8671",
"Q#	c #E9977A",
"R#	c #EA987A",
"S#	c #E89478",
"T#	c #E68D74",
"U#	c #E48670",
"V#	c #E3816E",
"W#	c #9B3D56",
"X#	c #A84251",
"Y#	c #AE444E",
"Z#	c #B44C51",
"`#	c #2C2848",
" $	c #4C3B52",
".$	c #704558",
"+$	c #814A5C",
"@$	c #824B5C",
"#$	c #86525E",
"$$	c #8D5C62",
"%$	c #8F6063",
"&$	c #916163",
"*$	c #A86869",
"=$	c #C17270",
"-$	c #CC7D76",
";$	c #B06B69",
">$	c #92646F",
",$	c #AB9EA6",
"'$	c #C8C6CD",
")$	c #DFDFE4",
"!$	c #8F6F65",
"~$	c #D8A581",
"{$	c #F5BA8E",
"]$	c #F6BB8E",
"^$	c #F2B389",
"/$	c #EDA380",
"($	c #E89377",
"_$	c #E48671",
":$	c #AD434F",
"<$	c #AF444E",
"[$	c #B65153",
"}$	c #595465",
"|$	c #382B49",
"1$	c #664357",
"2$	c #9A5662",
"3$	c #B16069",
"4$	c #B36069",
"5$	c #B86A6C",
"6$	c #C27A72",
"7$	c #C68075",
"8$	c #C67F75",
"9$	c #C98076",
"0$	c #CE8277",
"a$	c #C47671",
"b$	c #B1656C",
"c$	c #92626F",
"d$	c #908690",
"e$	c #CAC8CE",
"f$	c #927769",
"g$	c #DDB289",
"h$	c #FBCA97",
"i$	c #FCCB98",
"j$	c #F9C393",
"k$	c #F3B68B",
"l$	c #EEA581",
"m$	c #B6B5BD",
"n$	c #625666",
"o$	c #6C3B51",
"p$	c #955661",
"q$	c #B66A6C",
"r$	c #C67472",
"s$	c #C77572",
"t$	c #CA7A74",
"u$	c #D08579",
"v$	c #CD7F76",
"w$	c #C37370",
"x$	c #A55960",
"y$	c #926370",
"z$	c #AC9FA7",
"A$	c #C6C4CA",
"B$	c #DEDEE3",
"C$	c #DEB389",
"D$	c #FBCB97",
"E$	c #FAC896",
"F$	c #F4B88C",
"G$	c #6B5868",
"H$	c #8F4959",
"I$	c #B7656B",
"J$	c #C87973",
"K$	c #CF8378",
"L$	c #CD8177",
"M$	c #AF646B",
"N$	c #875C6A",
"O$	c #8E8A94",
"P$	c #D3D3D9",
"Q$	c #B4B4BC",
"R$	c #685263",
"S$	c #954858",
"T$	c #BF696E",
"U$	c #CD7D76",
"V$	c #CE8077",
"W$	c #BD716E",
"X$	c #824A54",
"Y$	c #7F7985",
"Z$	c #BABAC1",
"`$	c #81737F",
" %	c #975C69",
".%	c #B6666B",
"+%	c #C77873",
"@%	c #89565C",
"#%	c #927669",
"$%	c #FBCA96",
"%%	c #FCCA97",
"&%	c #FBC996",
"*%	c #794A55",
"=%	c #C0BCC3",
"-%	c #A08B94",
";%	c #925561",
">%	c #B26366",
",%	c #C87873",
"'%	c #D08278",
")%	c #D28579",
"!%	c #CE7E76",
"~%	c #BC6F6E",
"{%	c #844E59",
"]%	c #B2625C",
"^%	c #B5675F",
"/%	c #E5E4E9",
"(%	c #B3B1B8",
"_%	c #8A7681",
":%	c #9F626D",
"<%	c #B4666A",
"[%	c #BF7670",
"}%	c #C37E73",
"|%	c #C37D73",
"1%	c #C27B72",
"2%	c #BA6E6D",
"3%	c #A75B65",
"4%	c #753F53",
"5%	c #807C87",
"6%	c #937C6D",
"7%	c #DFBB91",
"8%	c #FDD6A4",
"9%	c #FED9A9",
"0%	c #FDD8A9",
"a%	c #FDD29F",
"b%	c #FCCD9A",
"c%	c #FCCB97",
"d%	c #C6655B",
"e%	c #CB6F60",
"f%	c #CD7363",
"g%	c #C2BEC4",
"h%	c #9C8690",
"i%	c #7F4A59",
"j%	c #845058",
"k%	c #89585D",
"l%	c #89595D",
"m%	c #88575C",
"n%	c #824D59",
"o%	c #744054",
"p%	c #512847",
"q%	c #7D7985",
"r%	c #948373",
"s%	c #E0C79E",
"t%	c #FEE6B6",
"u%	c #FFECC3",
"v%	c #FEECC2",
"w%	c #FDDCA9",
"x%	c #FCD19D",
"y%	c #663A51",
"z%	c #B04F56",
"A%	c #C2645C",
"B%	c #CD7262",
"C%	c #CE7363",
"D%	c #E2E1E7",
"E%	c #AFACB4",
"F%	c #85808B",
"G%	c #827E89",
"H%	c #847F8A",
"I%	c #837F8A",
"J%	c #7F7B87",
"K%	c #A09EA6",
"L%	c #85786E",
"M%	c #C7B694",
"N%	c #E1D2AC",
"O%	c #E2DAB9",
"P%	c #E1D9B8",
"Q%	c #DEBA90",
"R%	c #D9D8DE",
"S%	c #D3D2D8",
"T%	c #D3D2D9",
"U%	c #DBDADF",
"V%	c #5F565D",
"W%	c #85796F",
"X%	c #948A7C",
"Y%	c #958F83",
"Z%	c #948F83",
"`%	c #948474",
" &	c #937B6D",
"                                                                                                                                ",
"                                                                                                                                ",
"                                                                                                                                ",
"                                                                                                                                ",
"                                                                                                                                ",
"                                                                                                                                ",
"                                                                                                                                ",
"                                                                                                                                ",
"                                                                                                                                ",
"                                                                                                                                ",
"                                                                                                                                ",
"                                                                                                                                ",
"                                                                                                                                ",
"                                                                                                                                ",
"                                                                                                                                ",
"                                                                                                                                ",
"                                . + @ # # # # # # # # # # @ + .                                                                 ",
"$ $ $ $ $ $ $ $ $ $ $ $ $ $ $ $ $ $ $ $ $ $ $ $ $ $ $ $ $ $ $ $ $ $ $ $ $ $ $                                                   ",
"% % % % % % % % % % % % % % % % % % % % & & & & & & & & % % % % % % % * * * = -                                                 ",
"; ; ; ; ; ; ; ; > , ' ) , ; ; ; > > , ) ' ' ' ' ' ' ' ' ) , > > ; ; ; ! ~ { ] ^ /                                               ",
"( _ : < < < < [ } | 1 2 3 4 5 ( 6 7 8 9 0 a 0 0 0 0 b c d 3 7 e f g : h i j k l m -                                             ",
"n o p q q q q r s t u v w x y z A B C D E F E E E E G H I J B K L q q M N O P Q R S T                                           ",
"U V W X X W W Y Z `  ...+.@.#.U $.%.&.*.=.=.=.=.=.=.=.-.;.>.%.,.'.X W ).!.~.{.].^./.(._.                                        ",
":.<.<.<.<.<.<.:.[.}.|.|.1.:.<.:.2.2.1.|.3.3.3.3.3.3.3.4.}.2.2.[.:.<.<.<.5.6.7.8.9.0.a.b.c.                                      ",
"<.<.d.:.:.:.d.<.<.e.e.e.e.<.<.<.<.<.<.f.e.e.e.e.f.f.e.e.e.e.g.g.<.<.<.<.<.h.i.j.k.l.m.n.o.                                      ",
"p.e.p.p.p.p.e.p.g.<.<.<.<.e.q.5.5.e.e.<.<.<.e.p.5.5.5.p.e.<.<.<.<.<.<.<.<.<.h.r.k.s.t.u.o.                                      ",
"h.5.e.e.e.p.5.5.e.<.<.<.g.h.v.w.p.g.<.<.<.<.g.p.5.h.h.h.5.g.<.<.<.<.<.<.<.:.p.x.y.s.t.u.o.                                      ",
"e.<.<.<.<.<.<.<.<.<.<.<.<.5.5.g.<.<.<.<.<.<.<.<.<.<.<.g.e.<.<.<.<.<.<.<.<.d.p.r.y.s.t.u.o.                                      ",
"<.<.<.<.<.<.<.<.<.<.<.<.<.<.<.<.<.<.<.<.<.<.<.<.<.<.<.<.<.<.<.<.<.<.<.<.<.d.p.r.y.s.t.u.o.                                      ",
"<.<.<.<.<.<.<.<.<.<.<.<.<.<.<.<.<.<.<.<.<.<.<.<.<.<.<.<.<.<.<.<.<.<.<.<.<.d.p.r.y.s.t.u.o.                                      ",
"<.<.<.<.<.<.<.<.<.<.<.<.<.<.<.<.<.<.<.<.<.<.<.<.<.<.<.<.<.<.<.<.<.<.<.<.<.d.p.r.y.s.t.u.o.                                      ",
"<.<.<.<.<.<.<.<.<.<.<.<.<.<.<.<.<.<.<.<.<.<.<.<.<.<.<.<.<.<.<.<.<.<.<.<.<.d.p.r.y.s.t.u.o.                                      ",
"<.<.<.<.<.<.<.<.<.<.<.<.<.<.<.<.<.<.<.<.<.<.<.<.<.<.<.<.<.<.<.<.<.<.<.<.<.d.p.r.y.s.t.u.o..                                     ",
"<.<.<.<.<.<.<.<.<.<.<.<.<.<.<.<.<.<.<.<.<.<.<.<.<.<.<.<.<.<.<.<.<.<.<.<.<.d.p.r.y.s.t.u.o.                                      ",
"<.<.<.<.<.<.<.<.<.<.<.<.<.<.<.<.<.<.<.<.<.<.<.<.<.<.<.<.<.<.<.<.<.<.<.<.<.d.p.r.y.s.t.u.o.z.  .                                 ",
"<.<.<.<.<.<.<.<.<.<.<.<.<.<.<.<.<.<.<.<.<.<.<.<.<.<.<.<.<.<.<.<.<.<.<.<.<.d.p.r.y.s.t.u.o.A.  +                                 ",
"<.<.<.<.<.<.<.<.<.<.<.<.<.<.<.<.<.<.<.<.<.<.<.<.<.<.<.<.<.<.<.<.<.<.<.<.<.d.p.r.y.s.t.u.c.B.  @                                 ",
"<.<.<.<.<.e.g.<.<.<.<.<.<.<.<.<.<.<.<.<.<.<.<.<.<.g.g.<.<.<.<.<.<.<.<.<.<.:.p.x.y.C.D.E.F.G.  #                                 ",
"p.p.p.5.5.e.<.<.<.<.<.<.<.<.<.<.g.<.<.<.<.<.<.g.p.p.e.<.<.<.<.<.<.<.<.<.<.<.h.r.k.s.H.I.J.K.L.L.L.L.L.L.L.L.L.L.L.L.L.M.F.N.    ",
"O.v.v.P.5.:.Q.:.:.:.:.:.:.:.:.Q.<.e.p.e.e.p.5.h.h.<.Q.:.:.:.:.:.:.:.:.:.d.h.i.R.S.T.U.V.W.X.Y.Y.Y.Y.Y.Y.Y.Y.Y.Y.Y.Y.Z.`. +N.    ",
"v.v.P.P.P.P..+.+.+.+.+.+.+.+.+.+++@+w.h.h.h.w.P.P.P..+.+.+.+.+.+.+.+.+w.P.#+7.$+%+&+*+=+-+;+>+>+>+>+>+>+>+>+>+,+'+)+!+~+{+N.    ",
"]+]+^+/+/+(+(+(+(+(+(+(+(+(+(+(+(+7._+:+<+<+:+_+[+(+(+(+(+(+(+(+(+(+(+/+(+}+|+1+2+3+4+5+6+7+8+9+8+8+8+8+8+8+0+a+b+c+d+e+f+N.    ",
"g+g+g+g+g+g+g+g+g+g+g+g+g+g+g+g+g+g+g+h+h+i+h+g+g+g+g+g+g+j+j+j+j+j+j+j+j+k+l+m+n+o+p+q+r+s+t+u+t+t+t+t+t+t+u+v+w+x+y+z+A+N.    ",
"B+B+B+B+B+B+B+B+B+B+B+B+B+B+B+B+B+B+B+B+B+B+B+B+B+B+B+C+D+E+F+F+F+F+F+E+G+H+I+J+K+o+L+M+s+N+O+P+P+P+P+P+P+P+P+m+Q+R+S+T+U+N.    ",
"V+V+V+V+V+V+V+V+V+V+V+V+V+V+V+V+V+V+V+V+V+V+V+V+V+V+V+W+X+Y+Z+`+`+`+`+ @.@+@@@#@$@3+%@&@*@=@-@-@-@-@-@-@-@-@-@-@;@>@,@'@U+N.    ",
"* * * * * * * * * * * * * * * * * * * * * * * * * * )@!@~@{@]@^@^@^@^@/@(@_@:@<@[@}@|@1@2@P+-@-@-@-@-@-@-@-@3@4@5@6@7@8@f+N.    ",
"$ $ $ $ $ $ $ $ $ $ $ $ $ $ $ $ $ $ $ $ $ $ $ $ $ $ 9@0@a@b@c@            ^@d@e@f@g@h@i@2@O+-@-@-@-@-@-@-@-@j@k@l@m@n@o@{+N.    ",
"@ @ @ @ + + .                           +   p@q@r@s@t@u@v@b@w@            x@y@z@A@B@C@1@2@O+-@-@-@-@-@-@-@4@D@E@F@G@H@I@J@      ",
"K@L@M@N@O@O@O@O@O@O@O@O@N@M@L@K@  .   . @ + P@Q@R@S@T@0@U@b@c@        . V@W@X@Y@Z@`@ #.#2@=@-@-@-@-@-@-@=@+#@###$#%#)@F.        ",
"L@&#*#=#-#-#-#-#-#-#-#-#=#*#&#L@  @         ;#>#,#'#)#0@U@b@c@        !#~#{#]#^#/#(#_#:#4@=@-@-@-@-@-@-@O+t+<#[#}#|#1#          ",
"2#3#4#5#6#7#7#7#8#8#8#8#9#0#*#M@  # a#>#p@b#c#c#c#c#d#0@U@b@c@. !#e#e#f#!#g#h#i#j#k#l#m#n#-@-@-@-@-@-@-@P+o#p#q#r#s#            ",
"N@=#9#t#u#v#u#u#u#u#v#u#t#9#=#N@. e#>#w#q@x#y#y#z#z#A#0@U@b@c@V@B#C#C#C#D#E#F#G#H#I#J#j@-@-@-@-@-@-@-@-@P+o#K#L#M#N#            ",
"O#P#Q#R#Q#Q#S#T#U#V#8#8#u#8#-#O@+ e#p@q@W#X#Y#Y#Y#Y#Z#0@U@b@`# $.$+$@$#$$$%$&$*$=$-$n#3@-@-@-@-@-@-@-@-@=@2@;$>$,$'$)$          ",
"!$~${$]${${$^$/$($_$8#8#v#8#-#O@+ e#b#x#X#:$<$<$Y#<$[$0@U@}$|$1$2$3$4$5$6$7$8$9$0$j@-@-@-@-@-@-@-@-@-@-@=@+#a$b$c$d$e$N#        ",
"f$g$h$i$h$h$j$k$l$($_$V#u#8#-#O@+ e#b#x#X#:$<$<$Y#<$[$0@m$n$o$p$q$r$s$t$j@P+P+=@=@-@-@-@-@-@-@-@-@-@-@-@-@u$v$w$x$y$z$A$B$      ",
"f$C$D$i$D$D$E$j$F$l$($U#u#8#-#O@+ e#p@q@W#X#Y#Y#Y#Y#Z#0@m$G$H$I$J$K$+#j@n#-@-@-@-@-@-@-@-@-@-@-@-@-@-@-@-@-@n#L$w$M$N$O$P$N.    ",
"f$g$h$i$h$h$h$h$j$k$/$T#u#7#-#O@. e#>#w#q@x#y#y#z#z#A#0@Q$R$S$T$U$=@=@-@-@-@-@-@-@-@-@-@-@-@-@-@-@-@-@-@-@-@3@n#V$W$X$Y$f+N.    ",
"f$g$h$i$h$h$h$h$E$j$^$S#u#7#-#O@  e#a#>#p@b#c#c#c#c#d#0@Z$`$ %.%+%K$n#-@-@-@-@-@-@-@-@-@-@-@-@-@-@-@-@-@-@-@-@-@;@6$@%T+U+N.    ",
"#%g$$%%%&%$%h$h$D$h${$Q#v#7#-#O@  e#        ;#>#,#'#)#*%{+=%-%;%>%,%'%P+P+P+P+P+P+P+P+P+P+P+P+P+P+P+P+P+P+P+P+)%!%~%{%T+U+N.    ",
"f$g$h$i$h$h$h$h$D$h${$Q#u#6#-#O@  e#  . @ + P@Q@R@S@T@]%^%/%(%_%:%<%[%}%}%|%|%|%|%|%|%|%|%|%|%|%|%|%|%|%|%|%[@1%2%3%4%5%U+N.    ",
"6%7%8%9%0%8%a%b%i$c%]$R#t#5#=#N@  e#    +   p@q@r@s@d%e%f%f%_.g%h%i%j%k%k%k%k%k%k%k%k%k%k%k%k%k%k%k%k%k%k%k%l%m%n%o%p%q%f+N.    ",
"r%s%t%u%v%t%w%x%D$h${$Q#9#4#*#M@  #     +   y%x#z%A%e%B%C%C%C%D%E%F%G%H%H%H%H%H%H%H%H%H%H%H%H%H%H%H%H%H%H%H%H%H%H%I%J%K%|#N.    ",
"L%M%N%O%P%N%s%Q%C$g$~$P#=#3#&#L@  @     +   y%x#z%A%e%B%C%C%C%C%R%P$S%S%S%S%S%S%S%S%S%S%S%S%S%S%S%S%S%S%S%S%S%T%T%T%S%U%J.N.    ",
"V%W%X%Y%Z%X%`% &f$#%!$O#N@2#L@K@  .     +   p@q@r@s@d%e%f%f%f%f%N.N.N.N.N.N.N.N.N.N.N.N.N.N.N.N.N.N.N.N.N.N.N.N.N.N.N.N.N.N.    "};
