/* XPM */
static char * exit21_xpm[] = {
"64 64 371 2",
"  	c #7D5E6B",
". 	c #84636E",
"+ 	c #896972",
"@ 	c #8B6C73",
"# 	c #8B6C74",
"$ 	c #8C7076",
"% 	c #8F7679",
"& 	c #91797B",
"* 	c #735A68",
"= 	c #6E5967",
"- 	c #946672",
"; 	c #A4727A",
"> 	c #AD8082",
", 	c #B18786",
"' 	c #B18787",
") 	c #B48E8B",
"! 	c #BA9A93",
"~ 	c #BDA098",
"{ 	c #B18887",
"] 	c #B28887",
"^ 	c #7C5D6A",
"/ 	c #6C5866",
"( 	c #A5737B",
"_ 	c #B78285",
": 	c #C08E8C",
"< 	c #C39490",
"[ 	c #C69A94",
"} 	c #CBA59C",
"| 	c #CDAAA0",
"1 	c #CEAAA0",
"2 	c #C69A95",
"3 	c #C08F8D",
"4 	c #B88285",
"5 	c #A5747B",
"6 	c #85636E",
"7 	c #6D5967",
"8 	c #AE8183",
"9 	c #C3938F",
"0 	c #C49490",
"a 	c #C49590",
"b 	c #C59792",
"c 	c #C79B95",
"d 	c #C89D96",
"e 	c #6D5867",
"f 	c #C1928F",
"g 	c #BF8E8C",
"h 	c #C1918E",
"i 	c #C1928E",
"j 	c #BD8B8B",
"k 	c #BD8B8A",
"l 	c #C2928F",
"m 	c #BF918E",
"n 	c #B68B89",
"o 	c #A37D7F",
"p 	c #846870",
"q 	c #6D5866",
"r 	c #B37B81",
"s 	c #B37A81",
"t 	c #9C787C",
"u 	c #8B6D74",
"v 	c #8A6C73",
"w 	c #846871",
"x 	c #765F6A",
"y 	c #B98587",
"z 	c #C29491",
"A 	c #C29591",
"B 	c #B47E83",
"C 	c #B68286",
"D 	c #B78588",
"E 	c #B78B89",
"F 	c #8A6A72",
"G 	c #866670",
"H 	c #80626D",
"I 	c #755C69",
"J 	c #C9A39B",
"K 	c #C0928F",
"L 	c #C59D97",
"M 	c #C8A39B",
"N 	c #AF8384",
"O 	c #AA7B7F",
"P 	c #9B6F77",
"Q 	c #80616D",
"R 	c #CBA49C",
"S 	c #BD8989",
"T 	c #AB7B7F",
"U 	c #876670",
"V 	c #C49792",
"W 	c #C69B95",
"X 	c #C79D96",
"Y 	c #B08484",
"Z 	c #FBCAAE",
"` 	c #EDA799",
" .	c #FAEBCF",
"..	c #946572",
"+.	c #E28989",
"@.	c #D2727E",
"#.	c #599A6F",
"$.	c #60B46A",
"%.	c #80D062",
"&.	c #A2E762",
"*.	c #C1F76B",
"=.	c #CFFF70",
"-.	c #D0FF70",
";.	c #C5F96D",
">.	c #B0EE66",
",.	c #BA9A94",
"'.	c #AD707B",
").	c #926475",
"!.	c #5FA36D",
"~.	c #6CB666",
"{.	c #85D160",
"].	c #A3E862",
"^.	c #C2F86B",
"/.	c #CCFD6F",
"(.	c #67B268",
"_.	c #81C564",
":.	c #98DC63",
"<.	c #78C664",
"[.	c #B4EE68",
"}.	c #7FD063",
"|.	c #A3E762",
"1.	c #80D162",
"2.	c #81D062",
"3.	c #B6F168",
"4.	c #9EE561",
"5.	c #8FDE5D",
"6.	c #8FDF5D",
"7.	c #90DF5D",
"8.	c #84D160",
"9.	c #A3E763",
"0.	c #93E05E",
"a.	c #8EDE5D",
"b.	c #8BD85C",
"c.	c #83CC5B",
"d.	c #7FC45B",
"e.	c #7FC55D",
"f.	c #86A0A8",
"g.	c #5D7889",
"h.	c #83CB5A",
"i.	c #69A156",
"j.	c #578456",
"k.	c #58885C",
"l.	c #728896",
"m.	c #C1F76C",
"n.	c #82CB5A",
"o.	c #71AE57",
"p.	c #4F7552",
"q.	c #324254",
"r.	c #354E5C",
"s.	c #C1F86C",
"t.	c #68A155",
"u.	c #3C5250",
"v.	c #314054",
"w.	c #344C5C",
"x.	c #B6F268",
"y.	c #7FC55A",
"z.	c #568353",
"A.	c #323E4F",
"B.	c #30394F",
"C.	c #344554",
"D.	c #37515C",
"E.	c #9FE661",
"F.	c #94E05E",
"G.	c #7FC45A",
"H.	c #568153",
"I.	c #303A4F",
"J.	c #2F384F",
"K.	c #A4E863",
"L.	c #C1F86B",
"M.	c #68A055",
"N.	c #4F7652",
"O.	c #3D5450",
"P.	c #313D4F",
"Q.	c #9FE561",
"R.	c #568253",
"S.	c #334353",
"T.	c #354C59",
"U.	c #95E15E",
"V.	c #324050",
"W.	c #578353",
"X.	c #9BDF60",
"Y.	c #8ACE5C",
"Z.	c #4E7552",
"`.	c #ADE066",
" +	c #7FAC5A",
".+	c #3B5350",
"++	c #B6E169",
"@+	c #799559",
"#+	c #323D4F",
"$+	c #2C354E",
"%+	c #323C4F",
"&+	c #323C4E",
"*+	c #B7E169",
"=+	c #789459",
"-+	c #2C364F",
";+	c #334B52",
">+	c #2F5956",
",+	c #346559",
"'+	c #336559",
")+	c #345C56",
"!+	c #334951",
"~+	c #B6E168",
"{+	c #345D57",
"]+	c #337F62",
"^+	c #3A9169",
"/+	c #3A9269",
"(+	c #388263",
"_+	c #AAD965",
":+	c #708F58",
"<+	c #336359",
"[+	c #358F69",
"}+	c #46A96F",
"|+	c #54B16D",
"1+	c #3A976B",
"2+	c #367960",
"3+	c #8C6F75",
"4+	c #90CC5D",
"5+	c #618855",
"6+	c #379069",
"7+	c #55B26D",
"8+	c #73C767",
"9+	c #3B9F6E",
"0+	c #39966B",
"a+	c #8CD95D",
"b+	c #84CC5A",
"c+	c #6AA256",
"d+	c #4F8559",
"e+	c #408B63",
"f+	c #5BAA66",
"g+	c #80CE60",
"h+	c #5BAB66",
"i+	c #3A966B",
"j+	c #3A9E6E",
"k+	c #83CC5D",
"l+	c #83CC5A",
"m+	c #70B059",
"n+	c #508659",
"o+	c #59945A",
"p+	c #7FC75C",
"q+	c #7FC85C",
"r+	c #377A60",
"s+	c #38956B",
"t+	c #71AF5B",
"u+	c #84CC5B",
"v+	c #8CD95C",
"w+	c #6AA356",
"x+	c #659A55",
"y+	c #76B558",
"z+	c #71AD57",
"A+	c #507752",
"B+	c #378F69",
"C+	c #B18686",
"D+	c #507856",
"E+	c #76B658",
"F+	c #639755",
"G+	c #4F7451",
"H+	c #356459",
"I+	c #399069",
"J+	c #355258",
"K+	c #507855",
"L+	c #71AE58",
"M+	c #313A4F",
"N+	c #406D57",
"O+	c #53A065",
"P+	c #948183",
"Q+	c #927C7E",
"R+	c #91787B",
"S+	c #366560",
"T+	c #405F5A",
"U+	c #507755",
"V+	c #588453",
"W+	c #588553",
"X+	c #3D5550",
"Y+	c #2F364F",
"Z+	c #313B4F",
"`+	c #517D54",
" @	c #72B95E",
".@	c #C4B0A7",
"+@	c #BFA59D",
"@@	c #BD9F97",
"#@	c #B28787",
"$@	c #397064",
"%@	c #364F5C",
"&@	c #334253",
"*@	c #323B4E",
"=@	c #314651",
"-@	c #345D56",
";@	c #59935A",
">@	c #D4B9AF",
",@	c #D0AFA5",
"'@	c #387065",
")@	c #36505C",
"!@	c #324054",
"~@	c #325B57",
"{@	c #CAA39C",
"]@	c #C89F99",
"^@	c #367E68",
"/@	c #366D62",
"(@	c #34665C",
"_@	c #336459",
":@	c #337760",
"<@	c #39956B",
"[@	c #5CB56B",
"}@	c #80D163",
"|@	c #3A976D",
"1@	c #3B936B",
"2@	c #3A926A",
"3@	c #5CB66B",
"4@	c #C39390",
"5@	c #5BB56C",
"6@	c #5BB56B",
"7@	c #68BE69",
"8@	c #78CA65",
"9@	c #66BD69",
"0@	c #8CDB5E",
"a@	c #84D561",
"b@	c #80D263",
"c@	c #73C466",
"d@	c #54A96D",
"e@	c #85D561",
"f@	c #6DC168",
"g@	c #55A96D",
"h@	c #468F6F",
"i@	c #73C666",
"j@	c #80D262",
"k@	c #72C364",
"l@	c #53A567",
"m@	c #39926B",
"n@	c #3B8A6D",
"o@	c #3C796F",
"p@	c #54B06D",
"q@	c #40805E",
"r@	c #34675C",
"s@	c #366B62",
"t@	c #396E68",
"u@	c #3C6E6D",
"v@	c #47A46E",
"w@	c #47A16E",
"x@	c #409B6F",
"y@	c #3C976F",
"z@	c #3B946D",
"A@	c #398566",
"B@	c #36615B",
"C@	c #354B58",
"D@	c #385660",
"E@	c #3F6767",
"F@	c #47786B",
"G@	c #55A46B",
"H@	c #559C6B",
"I@	c #46896E",
"J@	c #3A7A6D",
"K@	c #387368",
"L@	c #376862",
"M@	c #37595E",
"N@	c #375560",
"O@	c #3A6168",
"P@	c #47776B",
"Q@	c #568F6A",
"R@	c #56A56B",
"S@	c #56996B",
"T@	c #477F6E",
"U@	c #3C696D",
"V@	c #395D64",
"W@	c #47986E",
"X@	c #417E6F",
"Y@	c #3D6C6F",
"Z@	c #3C686D",
"`@	c #3C686C",
" #	c #3D6D6F",
".#	c #407E70",
"+#	c #47996E",
"  . + @ # @ @ @ @ $ % & & & & & & & & % $ @ @ $ % % $ @ @ @ @ @ @ @ @ @ @ @ @ @ @ @ @ @ @ @ @ @ @ @ @ @ @ @ @ @ @ # @ + .   * = ",
"- ; > , ' , , , , ) ! ~ ~ ~ ~ ~ ~ ~ ~ ! ) , , ) ! ! ) , , { ] ] { ' , , , , , , , , , , , , , , , , , , , , , , , ' , > ; - ^ / ",
"( _ : < < < < < < [ } | 1 | | | | 1 | } [ < < 2 } } 2 < < < < < < < < < < < < < < < < < < < < < < < < < < < < < < < < 3 4 5 6 7 ",
"8 : 9 0 a 0 0 0 0 b c d d d d d d d d c b 0 0 b c c b 0 0 0 0 0 0 0 0 0 0 0 0 0 0 0 0 0 0 0 0 0 0 0 0 0 0 0 0 0 0 a 0 9 : 8 + e ",
"] < 0 < < < < < < < < < < < < < < < < < < < < < < < < < < < < < < < < < < < < f g g h i g j k k k k k k j g l < < m n ] , o p q ",
"] < a < < < < < < < < < < < < < < < < < < < < < < < < < < < < < < < < < < < < g _ 4 g g 4 r s r r r r s r _ g < < n t u v w x q ",
"] < 0 < < < < < < < < < < < < < < < < < < < < < < < < < < < < < < < < < < < < g _ y z A y B C D D D D C B _ g < < E t F G H I q ",
"] < 0 < < < < < < < < < < < < < < < < < < < < < < < < < < < < < < < < < < < < h g A J J A K L M M M M L K g i < < m n N O P Q q ",
"] < 0 < < < < < < < < < < < < < < < < < < < < < < < < < < < < < < < < < < < < < < 2 } R 2 [ R | 1 1 | } [ < < < < < < h S T U q ",
"] < 0 < < < < < < < < < < < < < < < < < < < < < < < < < < < < < < < < < < < < < < V 2 2 V V W X X X X W V < < < < < < < h Y F q ",
"] < a < < < < < < < < < < < < < < < = = = = = = = = = = = = = = = = = = = = = = = = = = = = < < < < < < < < < < < < < a < ] # q ",
"] < 0 < < < < < < < < < < < < < = = Z ` = ` Z Z Z  .Z  . .Z ` = ` Z Z Z  .Z  . . .Z ` = ` Z = = < < < < < < < < < < < a < ] # q ",
"8 : 9 0 a 0 0 0 0 0 0 0 0 0 = = ` Z Z Z = Z Z Z Z Z Z Z Z Z Z = Z Z Z Z Z Z Z Z Z Z Z = Z Z Z ` = = 0 0 0 0 0 0 0 a 0 9 : 8 + e ",
"( _ : < < < < < < < < < < = `  . .Z Z Z = Z Z Z Z Z Z Z Z Z Z = Z Z Z Z Z Z Z Z Z Z Z = Z Z Z  . .` = < < < < < < < < : _ ( . 7 ",
"..; > , , , , , , , , , = `  .Z Z Z Z ` = ` Z Z Z Z Z Z Z Z ` = ` Z Z Z Z Z Z Z Z Z ` = ` Z Z Z Z  .` = , , , , , ' , > ; - ^ / ",
"  . + @ # @ @ @ @ @ @ = `  .Z Z Z ` +.+.= +.+.+.+.+.+.+.+.+.+.= +.+.+.+.+.+.+.+.+.+.+.= +.+.` Z Z Z  .` = @ @ @ @ # @ + .   * = ",
"% & & & & % $ @ @ @ @ = Z Z Z Z ` +.+.@.= = = = = = = #.$.%.&.*.=.-.=.=.;.>.= = = = = = @.+.+.` Z Z Z Z = % $ @ @ @ @ @ @ @ @ @ ",
",.~ ~ ~ ~ ! ) , , , = ` Z Z Z ` +.+.= = = '.).= = = = !.~.{.].^.-.-.-.-./.;.= = '.'.'.= = = +.+.` Z Z Z ` = ) , , , , , ' { ] ] ",
"} | 1 1 | } [ < < < = Z Z Z Z +.+.= = = ).'.'.= = = = (._.:.>.;.=.-.-.-.-.-.= = ).'.'.).= = = +.+.Z Z Z Z = [ < < < < < < < < < ",
"c d d d d c b 0 0 = ` Z Z Z ` +.= = = = = = = = = = = <.:.[.;./.=.=.=.=.=.=.= = = = = = = = = = +.` Z Z Z ` = 0 0 0 0 0 0 0 0 0 ",
"< < < < < < < < < = Z Z Z Z +.+.= = ).'.'.'.).= = = = }.|.*.=.-./.;.*.*.*.*.= = = = = = = = = = +.+.Z Z Z Z = < < < < < < < < < ",
"< < < < < < < < < = Z Z Z Z +.= = ).'.'.'.'.'.= = = = 1.].^.-.-.;.>.|.&.&.|.= = = '.'.'.'.'.).= = +.Z Z Z Z = < < < < < < < < < ",
"< < < < < < < < < = ` Z Z ` +.= = '.'.'.'.'.).= = = = 2.|.*./.;.3.4.5.5.6.7.= = = ).'.'.'.'.'.= = +.` Z Z ` = < < < < < < < < < ",
"< < < < < < < < < = = = = = = = = = = = = = = = = = = 8.9.*.;.>.4.0.a.a.a.a.= = = = = = = = = = = = = = = = = < < < < < < < < < ",
"< < < < < < < < < = ` Z Z ` +.= = = ).'.'.'.'.'.).= = :.>.;.*.9.6.5.b.c.d.e.= = ).'.'.'.'.).= = = +.` Z Z ` = < < < < < < < < < ",
"< < < < < < < < < = Z Z Z Z +.= f.g.= '.'.'.'.'.'.= = [.;./.*.|.5.a.h.i.j.k.= = '.'.'.'.'.= g.f.= +.Z Z Z Z = < < < < < < < < < ",
"< < < < < < < < < =  .Z Z Z +.= f.l.= '.'.'.'.'.'.= = *.-.-.m.|.b.n.o.p.q.r.= = '.'.'.'.'.= l.f.= +.Z Z Z  .= < < < < < < < < < ",
"< < < < < < < < < =  .Z Z Z +.= = = ).'.'.'.'.'.'.= = ^.-.-.s.|.c.t.p.u.v.w.= = '.'.'.'.'.).= = = +.Z Z Z  .= < < < < < < < < < ",
"0 0 0 0 0 0 0 0 0 = Z Z Z Z +.= ).'.'.'.'.'.'.'.).= = *./.;.x.4.y.z.A.B.C.D.= = ).'.'.'.'.'.'.).= +.Z Z Z Z = 0 0 0 0 0 0 0 0 0 ",
"< < < < < < < < < =  .Z Z Z +.= = = = = = = = = = = = *.;.>.E.F.G.H.I.J.C.D.= = = = = = = = = = = +.Z Z Z  .= < < < < < < < < < ",
"{ ' , , , , , , , = Z Z Z Z +.= = = = = = = = = = = = ^.m.K.b.n.o.p.A.I.C.D.= ).'.'.'.'.'.'.'.).= +.Z Z Z Z = , , , , , ' { ] ] ",
"@ @ @ @ @ @ @ @ @ = Z Z Z Z +.= ).'.'.'.'.'.'.).= = = L.*.|.h.M.N.O.A.P.C.D.= '.'.'.'.'.'.'.'.'.= +.Z Z Z Z = @ @ @ @ @ @ @ @ @ ",
"  . + @ # @ @ $ % = Z Z Z Z +.= '.'.'.'.'.'.'.'.= = = x.x.Q.G.R.A.B.A.A.S.T.= '.'.'.'.'.'.'.'.'.= +.Z Z Z Z = @ @ # @ + .   * = ",
"- ; > , ' , , ) ! = ` Z Z ` +.= ).'.'.'.'.'.'.).= = = E.E.U.G.H.I.J.A.A.V.S.= ).'.'.'.'.'.'.'.).= +.` Z Z ` = , , ' , > ; - ^ / ",
"( _ : < < < < 2 } = = = = = = = = = = = = = = = = = = 6.6.6.y.W.A.B.A.A.A.A.= = = = = = = = = = = = = = = = = < < < < : _ ( . 7 ",
"8 : 9 0 a 0 0 b c = ` Z Z ` +.= ).'.'.'.'.).= = = = = 6.6.5.G.W.A.B.A.A.A.A.= = = = ).'.'.'.'.).= +.` Z Z ` = 0 0 a 0 9 : 8 + e ",
"] < 0 < < < < < < = Z Z Z Z +.= '.'.'.'.'.'.= = = = = E.X.Y.o.Z.A.I.A.A.A.A.= = = = '.'.'.'.'.'.= +.Z Z Z Z = < < < < a < ] # q ",
"] < a < < < < < < =  .Z Z Z +.= '.'.'.'.'.'.= = = = = x.`. +N..+A.P.A.A.A.A.= = = = '.'.'.'.'.'.= +.Z Z Z  .= < < < < a < ] # q ",
"] < 0 < < < < < < =  .Z Z Z +.= ).'.'.'.'.).= = = l.l.L.++@+#+$+%+%+%+%+&+#+l.l.= = ).'.'.'.'.).= +.Z Z Z  .= 0 0 a 0 < h Y F q ",
"] < 0 < < < < < < = Z Z Z Z +.= = = = = = = = = = g.l.^.*+=+I.-+A.A.A.A.A.A.l.g.= = = = = = = = = +.Z Z Z Z = < < < < h S T U q ",
"] < 0 < < < < < < =  .Z Z Z +.= = = = = = = = = = g.l.^.*+@+;+>+,+'+'+,+)+!+l.g.= = = ).'.'.'.).= +.Z Z Z  .= , , ' , N O P Q q ",
"] < 0 < < < < < < = Z Z Z Z +.= = ).'.'.'.'.).= = g.l.L.~+@+{+]+^+/+/+^+(+{+l.g.= = = '.'.'.'.'.= +.Z Z Z Z = @ v # @ F U H I q ",
"] < a < < < < < < = Z Z Z Z +.= = '.'.'.'.'.'.= = g.l.x._+:+<+[+}+|+|+}+1+2+l.g.= = = '.'.'.'.'.= +.Z Z Z Z = % 3+@ @ u u w x q ",
"] < 0 < < < < < < = Z Z Z Z +.= = ).'.'.'.'.).= = g.l.Q.4+5+'+6+7+8+8+7+9+0+l.g.= = = ).'.'.'.).= +.Z Z Z Z = ! ) , , ] ' o p q ",
"8 : 9 0 a 0 0 0 0 = ` Z Z ` +.= = = = = = = = = = g.l.a+b+c+d+e+f+g+g+h+i+j+l.g.= = = = = = = = = +.` Z Z ` = } W a 0 9 : 8 + e ",
"( _ : < < < < < < = = = = = = = ).'.'.'.'.'.).= = g.l.k+b.l+m+n+o+p+q+o+r+s+l.g.= = = = = = = = = = = = = = = c b a 0 3 4 5 6 7 ",
"- ; > , ' , , , , = ` Z Z ` +.= '.'.'.'.'.'.'.= = g.l.t+u+v+u+w+x+y+z+A+,+B+l.g.= = = ).'.'.).= = +.` Z Z ` = C+, , , > ; - ^ / ",
"  . + @ # @ @ @ @ = Z Z Z Z +.= '.'.'.'.'.'.'.= = g.l.D+c+b+v+b+E+F+G+O.H+I+l.g.= = = '.'.'.'.= = +.Z Z Z Z = @ @ # @ + .   * = ",
"@ @ @ @ @ @ @ @ @ =  .Z Z Z +.= ).'.'.'.'.'.).= = g.l.J+K+L+y.y.o.N.M+B.N+O+l.g.= = = ).'.'.).= = +.Z Z Z  .= P+Q+& R+% $ @ @ @ ",
"{ ' , , , , , , , =  .Z Z Z +.= = = = = = = = = = g.l.S+T+U+V+W+A+X+Y+Z+`+ @l.g.= = = = = = = = = +.Z Z Z  .= .@+@~ @@! ) { #@] ",
"< < < < < < < < < = Z Z Z Z +.= ).'.'.'.'.'.).= = g.l.$@%@&@%+*@*@%+=@-@;@q+l.g.= = ).'.'.'.'.).= +.Z Z Z Z = >@,@1 | } [ < < < ",
"0 0 0 0 0 0 0 0 0 =  .Z Z Z +.= = = ).'.'.'.'.= = = = '@)@!@B.B.B.P.~@(+h+g+= = = = '.'.'.).= = = +.Z Z Z  .= {@]@d d c b 0 0 0 ",
"< < < < < < < l g = Z Z Z Z +.= f.l.= '.'.'.'.= = = = ^@/@(@_@_@<+_@:@<@[@}@= = = = '.'.'.= l.f.= +.Z Z Z Z = < < < < < < < < < ",
"< < < < < < < g _ = Z Z Z Z +.= f.g.= '.'.'.'.= = = = |@1@2@^+^+^+^+<@9+3@}@= = = = '.'.'.= g.f.= +.Z Z Z Z = 4@< < < < < < < < ",
"< < < < < < < g _ = Z Z Z Z +.= = = ).'.'.'.).= = = = 5@6@6@6@6@6@[@[@3@7@8@= = = = ).'.'.).= = = +.Z Z Z Z = < < < < < < < < < ",
"< < < < < < < i g = ` Z Z ` +.= = = = = = = = = = = = }@}@}@}@}@}@}@}@1.8@9@= = = = = = = = = = = +.` Z Z ` = < < < < < < < < < ",
"< < < < < < < < < = = = = = = = ).'.'.'.'.'.'.).= = = 0@7.7.7.7.0@a@b@}@c@d@= = ).'.'.'.'.'.'.).= = = = = = = < < < < < < < < < ",
"< < < < < < < < < = ` Z Z ` +.= '.'.'.'.'.'.'.'.= = = e@7.7.7.7.e@f@3@6@g@h@= = '.'.'.'.'.'.'.'.= +.` Z Z ` = < < < < < < < < < ",
"< < < < < < < < < = Z Z Z Z +.= ).'.'.'.'.'.'.).= = = i@1.1.j@}@k@l@/+m@n@o@= = '.'.'.'.'.'.'.'.= +.Z Z Z Z = < < < < < < < < < ",
"< < < < < < < < < =  .Z Z Z +.= = = = = = = = = = = = p@6@6@5@6@l@q@r@s@t@u@= = ).'.'.'.'.'.'.).= +.Z Z Z  .= < < < < < < < < < ",
"0 0 0 0 0 0 0 0 0 =  .Z Z Z +.= = = = = = = = = = = = v@w@x@y@z@A@B@C@D@E@F@= = = = = = = = = = = +.Z Z Z  .= 0 0 0 0 0 0 0 0 0 ",
"< < < < < < < < < = Z Z Z Z +.= ).'.'.'.'.'.'.'.).= = G@H@I@J@K@L@M@N@O@P@Q@= = = = = = = = = = = +.Z Z Z Z = < < < < < < < < < ",
"{ ' , , , , , , , = ` Z Z ` +.= '.'.'.'.'.'.'.'.'.= = R@S@T@U@O@V@V@O@U@T@S@= = = ).'.'.'.'.'.= = +.` Z Z ` = , , , , , ' { ] ] ",
"@ @ @ @ @ @ @ @ @ = +.+.+.+.@.= ).'.'.'.'.'.'.'.).= = v@W@X@Y@Z@`@`@U@ #.#+#= = = '.'.'.'.'.).= = @.+.+.+.+.= @ @ @ @ @ @ @ @ @ "};
