/* XPM */
static char * bottom_xpm[] = {
"64 64 199 2",
"  	c #948F83",
". 	c #948A7C",
"+ 	c #948474",
"@ 	c #937B6D",
"# 	c #927669",
"$ 	c #949186",
"% 	c #927769",
"& 	c #907267",
"* 	c #8D6862",
"= 	c #8A5E5E",
"- 	c #86565B",
"; 	c #774C57",
"> 	c #584053",
", 	c #948877",
"' 	c #948878",
") 	c #E0D8B8",
"! 	c #E0D1AB",
"~ 	c #DFC79D",
"{ 	c #DDB990",
"] 	c #DCB188",
"^ 	c #E0DBBE",
"/ 	c #DDB289",
"( 	c #DAAA84",
"_ 	c #D4997A",
": 	c #CF8871",
"< 	c #C9796A",
"[ 	c #AF6661",
"} 	c #E0CDA3",
"| 	c #E0CEA4",
"1 	c #E0D8B7",
"2 	c #FEECC2",
"3 	c #FEE6B6",
"4 	c #FDDCA9",
"5 	c #FCD19D",
"6 	c #FBCA97",
"7 	c #FEEFC8",
"8 	c #F9C393",
"9 	c #F3B68B",
"0 	c #EEA380",
"a 	c #E68D74",
"b 	c #C77166",
"c 	c #855159",
"d 	c #FCD19E",
"e 	c #FEE2AF",
"f 	c #FEE2B0",
"g 	c #FDD8A9",
"h 	c #FDD6A4",
"i 	c #FDD29F",
"j 	c #FCCD9A",
"k 	c #FCCB97",
"l 	c #FDD5A4",
"m 	c #FDD9AC",
"n 	c #FCCB98",
"o 	c #FBC996",
"p 	c #F9C493",
"q 	c #F4B389",
"r 	c #E99478",
"s 	c #C77267",
"t 	c #FDD4A1",
"u 	c #FBCB97",
"v 	c #F6BB8E",
"w 	c #E9977A",
"x 	c #855059",
"y 	c #FBCA96",
"z 	c #FAC896",
"A 	c #F3B389",
"B 	c #E89478",
"C 	c #F4B88C",
"D 	c #EEA581",
"E 	c #E99477",
"F 	c #E48670",
"G 	c #855259",
"H 	c #E89377",
"I 	c #E58771",
"J 	c #E3816E",
"K 	c #F5BA8E",
"L 	c #F2B389",
"M 	c #EDA380",
"N 	c #E48671",
"O 	c #E3806D",
"P 	c #E27F6D",
"Q 	c #C77167",
"R 	c #E37F6D",
"S 	c #E37E6C",
"T 	c #E07969",
"U 	c #C46A62",
"V 	c #834E57",
"W 	c #E27E6C",
"X 	c #E27E6D",
"Y 	c #D96B60",
"Z 	c #BC5A59",
"` 	c #7F4654",
" .	c #C87267",
"..	c #C56A62",
"+.	c #BE5A59",
"@.	c #A44A53",
"#.	c #703E51",
"$.	c #543A51",
"%.	c #3C3851",
"&.	c #3D3851",
"*.	c #3E3851",
"=.	c #3F3851",
"-.	c #3A3751",
";.	c #3B3751",
">.	c #6C3C50",
",.	c #683A51",
"'.	c #603953",
").	c #543853",
"!.	c #473852",
"~.	c #553853",
"{.	c #9B414F",
"].	c #943F52",
"^.	c #843A57",
"/.	c #6F3757",
"(.	c #533853",
"_.	c #9A414F",
":.	c #933E52",
"<.	c #833957",
"[.	c #6D3757",
"}.	c #513753",
"|.	c #933F52",
"1.	c #6E3757",
"2.	c #3B3851",
"3.	c #663A51",
"4.	c #6A3B50",
"5.	c #5E3853",
"6.	c #533753",
"7.	c #463852",
"8.	c #B04F56",
"9.	c #B75354",
"0.	c #B75454",
"a.	c #A24658",
"b.	c #883F58",
"c.	c #613A53",
"d.	c #C2645C",
"e.	c #C6695E",
"f.	c #B85758",
"g.	c #9E4A54",
"h.	c #6D3F52",
"i.	c #CA6C5F",
"j.	c #CE7363",
"k.	c #CE7463",
"l.	c #C05D57",
"m.	c #A54C52",
"n.	c #714051",
"o.	c #C86B5E",
"p.	c #CD7363",
"q.	c #BA5755",
"r.	c #9E4650",
"s.	c #6D3C50",
"t.	c #AE5F5B",
"u.	c #B4675F",
"v.	c #B5675F",
"w.	c #B5685F",
"x.	c #AF5F5B",
"y.	c #A14D53",
"z.	c #883E4F",
"A.	c #5F3950",
"B.	c #774955",
"C.	c #7A4D56",
"D.	c #6F4052",
"E.	c #613A50",
"F.	c #4D3951",
"G.	c #4D3851",
"H.	c #C86C5F",
"I.	c #BD5D58",
"J.	c #A24E53",
"K.	c #CD7162",
"L.	c #513B51",
"M.	c #694051",
"N.	c #754553",
"O.	c #794B55",
"P.	c #7B4D56",
"Q.	c #663E51",
"R.	c #954A52",
"S.	c #AB5656",
"T.	c #B2625C",
"U.	c #A14E53",
"V.	c #A54C51",
"W.	c #BF5A55",
"X.	c #C7675C",
"Y.	c #CB6F60",
"Z.	c #CD7262",
"`.	c #6D3D50",
" +	c #9E4550",
".+	c #B85051",
"++	c #C05B56",
"@+	c #C6655B",
"#+	c #623A50",
"$+	c #893E4F",
"%+	c #A64D52",
"&+	c #AD5756",
"*+	c #B6685F",
"=+	c #603A50",
"-+	c #754453",
";+	c #794A55",
">+	c #A24D53",
",+	c #8A3F4F",
"'+	c #3C3751",
"    . + @ # # @ + .   $ $   . + @ % # & * = - ; > > ; - = * & # % @ + , ' .     . + @ % # & * = - ; > > ; - = * & # % @ + .     ",
") ) ! ~ { ] ] { ~ ! ) ^ ^ ) ! ~ { / ] ( _ : < [ ; ; [ < : _ ( ] / { ~ } | ! 1 ) ! ~ { / ] ( _ : < [ ; ; [ < : _ ( ] / { ~ ! ) ) ",
"2 2 3 4 5 6 6 5 4 3 2 7 7 2 3 4 5 6 6 8 9 0 a b c c b a 0 9 8 6 6 d 4 e f 3 2 2 3 4 5 6 6 8 9 0 a b c c b a 0 9 8 6 6 5 4 3 2 2 ",
"g g h i j k k j i l g m m g l i j n k o p q r s c c s r q p o k n j i t t h g g h i j n k o p q r s c c s r q p o k n j i h g g ",
"6 6 6 6 6 6 6 6 6 6 6 6 6 6 6 6 6 6 6 u 6 v w b x x b w v 6 u 6 6 6 6 6 6 6 6 6 6 6 6 6 6 u 6 v w b x x b w v 6 u 6 6 6 6 6 6 6 ",
"o o y 6 6 6 6 6 6 6 o o o o 6 6 6 6 6 u 6 v w b x x b w v 6 u 6 6 6 6 6 6 y o o y 6 6 6 6 u 6 v w b x x b w v 6 u 6 6 6 6 y o o ",
"6 6 6 6 6 6 6 6 6 6 6 6 6 6 6 6 6 6 6 z 8 A B b x x b B A 8 z 6 6 6 6 6 6 6 6 6 6 6 6 6 6 z 8 A B b x x b B A 8 z 6 6 6 6 6 6 6 ",
"6 6 6 6 6 6 6 6 6 6 6 6 6 6 6 6 6 6 6 8 9 0 a b c c b a 0 9 8 6 6 6 6 6 6 6 6 6 6 6 6 6 6 8 9 0 a b c c b a 0 9 8 6 6 6 6 6 6 6 ",
"u u u u u u u u u u u u u u u u u z 8 C D E F b G G b F E D C 8 z u u u u u u u u u u z 8 C D E F b G G b F E D C 8 z u u u u u ",
"6 6 6 6 6 6 6 6 6 6 6 6 6 6 6 6 6 8 9 D H I J b G G b J I H D 9 8 6 6 6 6 6 6 6 6 6 6 8 9 D H I J b G G b J I H D 9 8 6 6 6 6 6 ",
"K K K K K K K K K K K K K K K K K L M H N O P Q G G Q P O N H M L K K K K K K K K K K L M H N O P Q G G Q P O N H M L K K K K K ",
"w w w w w w w w w w w w w w w w w B a F J R P b G G b P R J F a B w w w w w w w w w w B a F J R P b G G b P R J F a B w w w w w ",
"R R R R R R R R R R R R R R R R R R R O R S T U V V U T S R O R R R R R R R R R R R R R R O R S T U V V U T S R O R R R R R R R ",
"W W W W W W W W W W W W W W W W W X X P P T Y Z ` ` Z Y T P P X X W W W W W W W W W W X X P P T Y Z ` ` Z Y T P P X X W W W W W ",
" . . . . . . . . . . . . . . . . . . . . ...+.@.#.#.@.+... . . . . . . . . . . . . . . . . . ...+.@.#.#.@.+... . . . . . . . . .",
"G G G G G G G G G G G G G G G G G G G G G V ` #.$.$.#.` V G G G G G G G G G G G G G G G G G G V ` #.$.$.#.` V G G G G G G G G G ",
"%.%.%.&.&.*.=.=.*.&.&.%.%.%.%.%.%.&.&.*.=.=.=.=.=.=.=.=.=.=.=.=.=.=.=.=.=.=.=.=.*.&.&.%.%.%.%.%.%.&.&.*.=.=.*.&.&.%.%.%.%.%.%.%.",
"-.-.-.-.-.-.-.-.-.-.-.-.-.-.-.-.-.-.-.-.-.-.;.%.*.*.%.;.-.-.-.-.-.-.-.-.-.-.-.-.-.-.-.-.-.-.-.-.;.%.*.*.%.;.-.-.-.-.-.-.-.-.-.-.",
">.>.>.,.'.).!.!.).'.,.>.>.>.>.>.>.,.'.~.!.=.=.=.=.=.=.=.=.=.=.=.=.=.=.=.=.=.=.!.~.'.,.>.>.>.>.>.>.,.'.).!.!.).'.,.>.>.>.>.>.>.>.",
"{.{.{.].^./.(.(./.^.].{.{.{.{.{.{.].^./.(.=.*.=.=.=.=.=.=.=.=.=.=.=.=.=.=.*.=.(./.^.].{.{.{.{.{.{.].^./.(.(./.^.].{.{.{.{.{.{.{.",
"_._._.:.<.[.}.}.[.<.|._.{.{._._._.:.<.1.}.%.2.%.%.&.&.*.=.=.*.&.&.%.%.%.%.2.%.}.1.<.|._.{.{._._._.:.<.[.}.}.[.<.:._._._.{.{._._.",
">.>.>.,.'.).!.!.).'.,.>.>.>.>.>.>.,.'.~.!.=.=.=.=.=.=.=.=.=.=.=.=.=.=.=.=.=.=.!.~.'.,.>.>.>.>.>.>.,.'.).!.!.).'.,.>.>.>.>.>.>.>.",
"3.4.4.4.4.4.4.4.4.3.5.6.7.7.6.5.3.4.4.4.4.4.4.4.4.3.5.6.7.7.6.5.3.4.4.4.4.4.4.4.4.3.5.6.7.7.6.5.3.4.4.4.4.4.4.4.4.3.5.6.7.7.6.5.",
":._._._._._.{.{._.|.<.[.}.}.[.<.:._._._.{.{.{.{.{.].^./.(.(./.^.].{.{.{.{.{.{.{._.|.<.[.}.}.[.<.:._._._.{.{._._._.:.<.[.}.}.[.<.",
"8.9.0.9.9.9.9.0.9.8.a.b.c.c.b.a.8.9.0.9.9.9.9.0.9.8.a.b.c.c.b.a.8.9.0.9.9.9.9.0.9.8.a.b.c.c.b.a.8.9.0.9.9.9.9.0.9.8.a.b.c.c.b.a.",
"d.e.e.e.e.e.e.e.e.d.f.g.h.h.g.f.d.e.e.e.e.e.e.e.e.d.f.g.h.h.g.f.d.e.e.e.e.e.e.e.e.d.f.g.h.h.g.f.d.e.e.e.e.e.e.e.e.d.f.g.h.h.g.f.",
"i.j.k.j.j.j.j.k.j.i.l.m.n.n.m.l.i.j.k.j.j.j.j.k.j.i.l.m.n.n.m.l.i.j.k.j.j.j.j.k.j.i.l.m.n.n.m.l.i.j.k.j.j.j.j.k.j.i.l.m.n.n.m.l.",
"o.p.k.p.p.p.p.k.p.o.q.r.s.s.r.q.o.p.k.p.p.p.p.k.p.o.q.r.s.s.r.q.o.p.k.p.p.p.p.k.p.o.q.r.s.s.r.q.o.p.k.p.p.p.p.k.p.o.q.r.s.s.r.q.",
"t.u.v.u.v.v.w.w.v.x.y.z.A.A.z.y.t.u.w.v.w.w.v.w.u.t.y.z.A.A.z.y.t.u.v.u.v.v.w.w.v.x.y.z.A.A.z.y.t.u.w.v.w.w.v.w.u.t.y.z.A.A.z.y.",
"B.C.C.C.C.C.C.C.C.B.D.E.F.F.E.D.B.C.C.C.C.C.C.C.C.B.D.E.F.F.E.D.B.C.C.C.C.C.C.C.C.B.D.E.F.F.E.D.B.C.C.C.C.C.C.C.C.B.D.E.F.F.E.D.",
"C.C.C.B.D.E.G.G.E.D.B.C.C.C.C.C.C.B.D.E.G.G.E.D.B.C.C.C.C.C.C.C.C.C.C.B.D.E.G.G.E.D.B.C.C.C.C.C.C.B.D.E.G.G.E.D.B.C.C.C.C.C.C.C.",
"u.v.u.t.y.z.A.A.z.y.x.v.w.w.v.w.u.t.y.z.A.A.z.y.t.u.w.v.w.w.v.v.u.v.u.t.y.z.A.A.z.y.x.v.w.w.v.w.u.t.y.z.A.A.z.y.t.u.w.v.w.w.v.v.",
"p.p.p.H.I.J.D.D.J.I.H.p.p.p.p.p.p.H.I.J.D.D.J.I.H.p.p.p.p.p.p.p.p.p.p.H.I.J.D.D.J.I.H.p.p.p.p.p.p.H.I.J.D.D.J.I.H.p.p.p.p.p.p.p.",
"j.k.j.K.H.t.B.B.t.H.K.j.k.j.j.k.j.K.H.t.B.B.t.H.K.j.k.j.j.j.j.j.j.k.j.K.H.t.B.B.t.H.K.j.k.j.j.k.j.K.H.t.B.B.t.H.K.j.k.j.j.j.j.j.",
"j.k.j.K.H.t.B.B.t.H.K.j.k.j.j.k.j.K.H.t.B.B.t.H.K.j.k.j.j.j.j.j.j.k.j.K.H.t.B.B.t.H.K.j.k.j.j.k.j.K.H.t.B.B.t.H.K.j.k.j.j.j.j.j.",
"p.p.p.H.I.J.D.D.J.I.H.p.p.p.p.p.p.H.I.J.D.D.J.I.H.p.p.p.p.p.p.p.p.p.p.H.I.J.D.D.J.I.H.p.p.p.p.p.p.H.I.J.D.D.J.I.H.p.p.p.p.p.p.p.",
"u.v.u.t.y.z.A.A.z.y.x.v.w.v.v.w.u.t.y.z.A.A.z.y.t.u.w.v.v.w.v.v.u.v.u.t.y.z.A.A.z.y.x.v.w.v.v.w.u.t.y.z.A.A.z.y.t.u.w.v.v.w.v.v.",
"C.C.C.B.D.E.G.G.E.D.B.C.C.C.C.C.C.B.D.E.G.G.E.D.B.C.C.C.C.C.C.C.C.C.C.B.D.E.G.G.E.D.B.C.C.C.C.C.C.B.D.E.G.G.E.D.B.C.C.C.C.C.C.C.",
"B.C.C.C.C.C.C.C.C.B.D.E.G.L.M.N.O.P.C.C.C.C.C.C.P.O.N.M.L.G.E.D.B.C.C.C.C.C.C.C.C.B.D.E.G.L.M.N.O.P.C.C.C.C.C.C.P.O.N.M.L.G.E.D.",
"t.u.v.u.v.v.w.w.v.x.y.z.A.Q.R.S.T.u.w.v.w.w.v.w.u.T.S.R.Q.A.z.y.t.u.v.u.v.v.w.w.v.x.y.z.A.Q.R.S.T.u.w.v.w.w.v.w.u.T.S.R.Q.A.z.y.",
"H.p.p.p.p.p.p.p.p.H.I.U.D.n.V.W.X.Y.Z.j.j.j.j.Z.Y.X.W.V.n.D.U.I.H.p.p.p.p.p.p.p.p.H.I.U.D.n.V.W.X.Y.Z.j.j.j.j.Z.Y.X.W.V.n.D.U.I.",
"K.j.k.j.j.j.j.k.j.K.H.x.B.`. +.+++@+Y.j.k.k.j.Y.@+++.+ +`.B.x.H.K.j.k.j.j.j.j.k.j.K.H.x.B.`. +.+++@+Y.j.k.k.j.Y.@+++.+ +`.B.x.H.",
"K.j.k.j.j.j.j.k.j.K.H.x.B.#+$+ +%+&+T.w.*+*+w.T.&+%+ +$+#+B.x.H.K.j.k.j.j.j.j.k.j.K.H.x.B.#+$+ +%+&+T.w.*+*+w.T.&+%+ +$+#+B.x.H.",
"H.p.p.p.p.p.p.p.p.H.I.J.D.F.=+`.n.-+;+C.C.C.C.;+-+n.`.=+F.D.J.I.H.p.p.p.p.p.p.p.p.H.I.J.D.F.=+`.n.-+;+C.C.C.C.;+-+n.`.=+F.D.J.I.",
"x.w.*+w.w.w.w.*+w.x.>+,+E.=.&.=.=.=.=.=.=.=.=.=.=.=.=.&.=.E.,+>+x.w.*+w.w.w.w.*+w.x.>+,+E.=.&.=.=.=.=.=.=.=.=.=.=.=.=.&.=.E.,+>+",
"B.C.C.C.C.C.C.C.C.B.D.E.G.*.%.%.%.'+;.;.;.;.;.;.'+%.%.%.*.G.E.D.B.C.C.C.C.C.C.C.C.B.D.E.G.*.%.%.%.'+;.;.;.;.;.;.'+%.%.%.*.G.E.D.",
"=.=.=.=.=.=.=.=.=.=.=.=.=.=.=.=.=.=.=.=.=.=.=.=.=.=.=.=.=.=.=.=.=.=.=.=.=.=.=.=.=.=.=.=.=.=.=.=.=.=.=.=.=.=.=.=.=.=.=.=.=.=.=.=.",
";.;.;.;.;.;.;.;.;.;.%.&.*.=.=.=.=.=.=.=.=.=.=.=.=.=.=.=.=.*.&.%.;.;.;.;.;.;.;.;.;.;.%.&.*.=.=.=.=.=.=.=.=.=.=.=.=.=.=.=.=.*.&.%.",
"=.=.=.=.=.=.=.=.=.=.=.=.=.=.=.=.=.=.=.=.=.=.=.=.=.=.=.=.=.=.=.=.=.=.=.=.=.=.=.=.=.=.=.=.=.=.=.=.=.=.=.=.=.=.=.=.=.=.=.=.=.=.=.=.",
"=.=.=.=.=.=.=.=.=.=.=.=.=.=.=.=.=.=.=.=.=.=.=.=.=.=.=.=.=.=.=.=.=.=.=.=.=.=.=.=.=.=.=.=.=.=.=.=.=.=.=.=.=.=.=.=.=.=.=.=.=.=.=.=.",
"=.=.=.=.=.=.=.=.=.=.=.=.=.=.=.=.=.=.=.=.=.=.=.=.=.=.=.=.=.=.=.=.=.=.=.=.=.=.=.=.=.=.=.=.=.=.=.=.=.=.=.=.=.=.=.=.=.=.=.=.=.=.=.=.",
"=.=.=.=.=.=.=.=.=.=.=.=.=.=.=.=.=.=.=.=.=.=.=.=.=.=.=.=.=.=.=.=.=.=.=.=.=.=.=.=.=.=.=.=.=.=.=.=.=.=.=.=.=.=.=.=.=.=.=.=.=.=.=.=.",
"=.=.=.=.=.=.=.=.=.=.=.=.=.=.=.=.=.=.=.=.=.=.=.=.=.=.=.=.=.=.=.=.=.=.=.=.=.=.=.=.=.=.=.=.=.=.=.=.=.=.=.=.=.=.=.=.=.=.=.=.=.=.=.=.",
"=.=.=.=.=.=.=.=.=.=.=.=.=.=.=.=.=.=.=.=.=.=.=.=.=.=.=.=.=.=.=.=.=.=.=.=.=.=.=.=.=.=.=.=.=.=.=.=.=.=.=.=.=.=.=.=.=.=.=.=.=.=.=.=.",
"=.=.=.=.=.=.=.=.=.=.=.=.=.=.=.=.=.=.=.=.=.=.=.=.=.=.=.=.=.=.=.=.=.=.=.=.=.=.=.=.=.=.=.=.=.=.=.=.=.=.=.=.=.=.=.=.=.=.=.=.=.=.=.=.",
"=.=.=.=.=.=.=.=.=.=.=.=.=.=.=.=.=.=.=.=.=.=.=.=.=.=.=.=.=.=.=.=.=.=.=.=.=.=.=.=.=.=.=.=.=.=.=.=.=.=.=.=.=.=.=.=.=.=.=.=.=.=.=.=.",
"=.=.=.=.=.=.=.=.=.=.=.=.=.=.=.=.=.=.=.=.=.=.=.=.=.=.=.=.=.=.=.=.=.=.=.=.=.=.=.=.=.=.=.=.=.=.=.=.=.=.=.=.=.=.=.=.=.=.=.=.=.=.=.=.",
"=.=.=.=.=.=.=.=.=.=.=.=.=.=.=.=.=.=.=.=.=.=.=.=.=.=.=.=.=.=.=.=.=.=.=.=.=.=.=.=.=.=.=.=.=.=.=.=.=.=.=.=.=.=.=.=.=.=.=.=.=.=.=.=.",
"=.=.=.=.=.=.=.=.=.=.=.=.=.=.=.=.=.=.=.=.=.=.=.=.=.=.=.=.=.=.=.=.=.=.=.=.=.=.=.=.=.=.=.=.=.=.=.=.=.=.=.=.=.=.=.=.=.=.=.=.=.=.=.=.",
"=.=.=.=.=.=.=.=.=.=.=.=.=.=.=.=.=.=.=.=.=.=.=.=.=.=.=.=.=.=.=.=.=.=.=.=.=.=.=.=.=.=.=.=.=.=.=.=.=.=.=.=.=.=.=.=.=.=.=.=.=.=.=.=.",
"=.=.=.=.=.=.=.=.=.=.=.=.=.=.=.=.=.=.=.=.=.=.=.=.=.=.=.=.=.=.=.=.=.=.=.=.=.=.=.=.=.=.=.=.=.=.=.=.=.=.=.=.=.=.=.=.=.=.=.=.=.=.=.=.",
"=.=.=.=.=.=.=.=.=.=.=.=.=.=.=.=.=.=.=.=.=.=.=.=.=.=.=.=.=.=.=.=.=.=.=.=.=.=.=.=.=.=.=.=.=.=.=.=.=.=.=.=.=.=.=.=.=.=.=.=.=.=.=.=.",
"=.=.=.=.=.=.=.=.=.=.=.=.=.=.=.=.=.=.=.=.=.=.=.=.=.=.=.=.=.=.=.=.=.=.=.=.=.=.=.=.=.=.=.=.=.=.=.=.=.=.=.=.=.=.=.=.=.=.=.=.=.=.=.=.",
"=.=.=.=.=.=.=.=.=.=.=.=.=.=.=.=.=.=.=.=.=.=.=.=.=.=.=.=.=.=.=.=.=.=.=.=.=.=.=.=.=.=.=.=.=.=.=.=.=.=.=.=.=.=.=.=.=.=.=.=.=.=.=.=."};
