/* XPM */
static char * corner_b_l_xpm[] = {
"64 64 213 2",
"  	c None",
". 	c #3F3851",
"+ 	c #3E3851",
"@ 	c #4D3851",
"# 	c #613A50",
"$ 	c #6F4052",
"% 	c #774955",
"& 	c #7A4D56",
"* 	c #513B51",
"= 	c #683F51",
"- 	c #714051",
"; 	c #6E3D51",
"> 	c #6B3B50",
", 	c #673A51",
"' 	c #5E3853",
") 	c #533853",
"! 	c #473852",
"~ 	c #543A51",
"{ 	c #703E51",
"] 	c #7F4553",
"^ 	c #834E57",
"/ 	c #895D5E",
"( 	c #8F6F65",
"_ 	c #927669",
": 	c #927769",
"< 	c #937B6D",
"[ 	c #948474",
"} 	c #948A7C",
"| 	c #948F83",
"1 	c #958F83",
"2 	c #85796F",
"3 	c #5F565D",
"4 	c #3D3851",
"5 	c #8A3F4F",
"6 	c #A24D53",
"7 	c #AF5F5B",
"8 	c #B5685F",
"9 	c #B6685F",
"0 	c #B5675F",
"a 	c #B4675F",
"b 	c #AE5F5B",
"c 	c #A14D53",
"d 	c #883E4F",
"e 	c #5F3950",
"f 	c #673F51",
"g 	c #954A52",
"h 	c #A54C51",
"i 	c #9E4550",
"j 	c #9A414F",
"k 	c #9B414F",
"l 	c #943F52",
"m 	c #843A57",
"n 	c #6F3757",
"o 	c #3C3851",
"p 	c #A54A53",
"q 	c #BD5958",
"r 	c #C56A62",
"s 	c #CE8671",
"t 	c #D8A581",
"u 	c #DDB289",
"v 	c #DEB389",
"w 	c #DEBA90",
"x 	c #E0C79E",
"y 	c #E1D2AC",
"z 	c #E1D9B8",
"A 	c #E2DAB9",
"B 	c #C7B694",
"C 	c #85786E",
"D 	c #A24E53",
"E 	c #BD5D58",
"F 	c #C86C5F",
"G 	c #CD7363",
"H 	c #764553",
"I 	c #AC5756",
"J 	c #BE5955",
"K 	c #B54D51",
"L 	c #AE444E",
"M 	c #A84251",
"N 	c #9B3D56",
"O 	c #3B3751",
"P 	c #7F4654",
"Q 	c #BE5A59",
"R 	c #D96A60",
"S 	c #E07969",
"T 	c #E9977A",
"U 	c #F5BA8E",
"V 	c #FBCA97",
"W 	c #FBCB97",
"X 	c #FCD19D",
"Y 	c #FDDCA9",
"Z 	c #FEE6B6",
"` 	c #FEECC2",
" .	c #FFECC3",
"..	c #948373",
"+.	c #CD7162",
"@.	c #CE7363",
"#.	c #CE7463",
"$.	c #794B55",
"%.	c #B2625C",
"&.	c #C4645B",
"*.	c #B75253",
"=.	c #AF444E",
"-.	c #AD434F",
";.	c #3A3751",
">.	c #E07868",
",.	c #E37E6C",
"'.	c #EA987A",
").	c #F6BB8E",
"!.	c #FCCB97",
"~.	c #FCCB98",
"{.	c #FCCD9A",
"].	c #FDD29F",
"^.	c #FDD6A4",
"/.	c #FDD8A9",
"(.	c #FED9A9",
"_.	c #DFBB91",
":.	c #937C6D",
"<.	c #855259",
"[.	c #C87267",
"}.	c #E27E6C",
"|.	c #E37F6D",
"1.	c #E27E6D",
"2.	c #E3806D",
"3.	c #FBCA96",
"4.	c #FBC996",
"5.	c #FCCA97",
"6.	c #893E4F",
"7.	c #E89478",
"8.	c #F2B389",
"9.	c #F9C393",
"0.	c #FAC896",
"a.	c #E68D74",
"b.	c #EDA380",
"c.	c #F3B68B",
"d.	c #503A51",
"e.	c #754553",
"f.	c #794A55",
"g.	c #754453",
"h.	c #6D3F52",
"i.	c #613A53",
"j.	c #463852",
"k.	c #E27F6D",
"l.	c #E48670",
"m.	c #E89377",
"n.	c #EEA581",
"o.	c #F4B88C",
"p.	c #974B52",
"q.	c #AD5756",
"r.	c #9E4A54",
"s.	c #883E57",
"t.	c #6E3757",
"u.	c #513753",
"v.	c #E3816E",
"w.	c #E48671",
"x.	c #3C3751",
"y.	c #C6665B",
"z.	c #CB6F60",
"A.	c #BD5D59",
"B.	c #C6655B",
"C.	c #B95858",
"D.	c #A24658",
"E.	c #B3625C",
"F.	c #CE7262",
"G.	c #CD7262",
"H.	c #C2645C",
"I.	c #B04F56",
"J.	c #663A51",
"K.	c #D96B60",
"L.	c #673E51",
"M.	c #9F4B54",
"N.	c #893E57",
"O.	c #533753",
"P.	c #3A3851",
"Q.	c #553853",
"R.	c #603953",
"S.	c #683A51",
"T.	c #6C3C50",
"U.	c #393751",
"V.	c #3B3851",
"W.	c #833957",
"X.	c #933F52",
"Y.	c #933E52",
"Z.	c #523753",
"`.	c #6A3B50",
" +	c #6D3757",
".+	c #883E58",
"++	c #B75354",
"@+	c #B75454",
"#+	c #883F58",
"$+	c #B85758",
"%+	c #C6695E",
"&+	c #C05D57",
"*+	c #CA6C5F",
"=+	c #A54C52",
"-+	c #6D3C50",
";+	c #BA5755",
">+	c #C86B5E",
",+	c #9E4650",
"'+	c #4D3951",
")+	c #7B4D56",
"!+	c #CF7463",
"~+	c #893F4F",
"{+	c #694051",
"]+	c #663E51",
"^+	c #AB5656",
"/+	c #A64D52",
"(+	c #BF5A55",
"_+	c #C7675C",
":+	c #6D3D50",
"<+	c #9F4650",
"[+	c #B85051",
"}+	c #C05B56",
"|+	c #623A50",
"  . . . . . . . . . . . . . . . + . @ # $ % & & & & & & & & % $ # @ * = - ; > > > > , ' ) ! + . ~ { ] ^ / ( _ : < [ } | 1 } 2 3 ",
"  . . . . . . . . . . . . . . . 4 . # 5 6 7 8 9 8 0 0 a 0 a b c d e f g h i j j k k l m n ) o + { p q r s t u v w x y z A y B C ",
"  . . . . . . . . . . . . . . . o . $ D E F G G G G G G G G F E c $ H I J K L L L L M N m ' O 4 P Q R S T U V W X Y Z `  .Z x ..",
"  . . . . . . . . . . . . . . . O . % 7 F +.@.#.@.@.@.@.#.@.+.F b % $.%.&.*.=.L =.=.-.M l , ;.4 ^ r >.,.'.).!.~.{.].^./.(.^._.:.",
"  . . . . . . . . . . . . . . . O . % 7 F +.@.#.@.@.@.@.#.@.+.F b % $.%.&.*.=.L =.=.-.M l , ;.4 <.[.}.|.T U V W V V V V ~.V u : ",
"  . . . . . . . . . . . . . . . o . $ D E F G G G G G G G G F E c $ H I J K L L L L M N m ' ;.4 <.[.1.2.T U V W V V 3.4.5.3.u _ ",
"  . . . . . . . . . . . . . . . o 4 e 6.c 7 0 8 8 0 0 a 0 a b c d e f g h i j j k k l m n ) ;.+ <.[.1.|.7.8.9.0.V V V V ~.V u : ",
"  . . . . . . . . . . . . . . . + . @ # $ % & & & & & & & & % $ # @ * = - ; > > > > , ' ) ! ;.. <.[.1.|.a.b.c.9.V V V V ~.V u : ",
"  . . . . . . . . . . . . . + . d.= e.f.% $ # @ @ # $ % & & & & & & & & f.g.h.i.) j.. . . . ;.. <.[.k.|.l.m.n.o.9.0.W W ~.W v : ",
"  . . . . . . . . . . . . . 4 . = p.q.%.7 c d e e d c b a 0 a 0 0 8 8 0 %.I r.s.t.u.4 o + . ;.. <.[.k.|.v.w.m.n.c.9.V V ~.V u : ",
"  . . . . . . . . . . . . . x.. e.q.y.z.F A.c $ $ D E F G G G G G G G G z.B.C.D.m ' . 4 . . ;.. <.[.k.2.k.k.w.m.b.8.U U ).U t ( ",
"  . . . . . . . . . . . . . O . f.E.z.F.+.F b % % b F +.@.#.@.@.@.@.@.@.G.z.H.I.l J.. 4 . . ;.. <.[.k.|.k.k.v.l.a.7.T T '.T s / ",
"  . . . . . . . . . . . . . O . % 7 F +.F.z.%.f.% b F +.@.#.@.@.@.@.@.@.G.z.H.I.l J.. 4 . . ;.. ^ r S ,.|.2.|.|.|.|.2.|.,.S r ^ ",
"  . . . . . . . . . . . . . o . $ D A.F z.y.I e.$ c E F G G G G G G G G z.B.C.D.m ' . 4 . . O . P Q K.S k.k.k.k.1.1.1.}.>.R q ] ",
"  . . . . . . . . . . . . . 4 . # 5 D 7 E.I g L.e d c b a 0 a a a 0 8 8 E.q.M.N.n O.. + . . o . { p Q r [.[.[.[.[.[.[.[.r Q p { ",
"  . . . . . . . . . . . . . + . @ # $ % f.e.= d.@ # $ % & & & & & & & & f.g.h.i.) j.. . . . + . ~ { P ^ <.<.<.<.<.<.<.<.^ P { ~ ",
"  . . . . . . . . . . . . . . . . . + . @ # $ % & & & & & & & & % $ # @ . + . . . . . . . . . . . . . . . . . . . . . . . . . . ",
"  . . . . . . . . . . . . . . . + 4 P.O e 6.c 7 8 8 0 a a a 0 a b c 6.e O ;.o 4 + . . . . . . . + o O ;.;.;.;.;.;.;.;.;.;.O o + ",
"  . . . . . . . . . . . . . . . . . o . $ D E F G G G G G G G G F E D $ . o . . . . . . . . . . . . . . . + 4 4 o o o o o o 4 4 ",
"  . . . . . . . . . . . . . . . . . O . % 7 F +.@.#.@.@.@.@.#.@.+.F 7 % . O . . . . . . . . . . . . . . . . . . . . . . . . . . ",
"  . . . . . . . . . . . . . . . . . O . % 7 F +.@.#.@.@.@.@.#.@.+.F 7 % . O . . . . . . . . . . . . . . ! Q.R.S.T.T.T.T.T.T.S.R.",
"  . . . . . . . . . . . . . . . . . o . $ D E F G G G G G G G G F E D $ . o . . . . . . . . . . . . + . ) n m l k k k k k k l m ",
"  . . . . . . . . . . . . . . . . . 4 . # 5 6 7 8 9 8 0 0 a 0 a b c 6.e O U.O O O o 4 + . + 4 4 o o V.o u.t.W.X.j k k j j j Y.W.",
"  . . . . . . . . . . . . . . . . . + . @ # $ % & & & & & & & & % $ # @ . + . . . . . . . . . . . . . . ! Q.R.S.T.T.T.T.T.T.S.R.",
"  . . . . . . . . . . . . . . . . . . . . . . . + . @ # $ % & & & & & & & & & & % $ # @ j.Z.' J.`.`.`.`.`.`.J.' O.j.j.O.' J.`.`.",
"  . . . . . . . . . . . . . . . . . . . + 4 o O U.O e 6.c b a 0 a 0 0 8 8 8 9 8 7 6 5 # ) t.m l k k k k k j X.W. +u.u. +W.Y.j j ",
"  . . . . . . . . . . . . . . . . . . . . . . . o . $ D E F G G G G G G G G G G F E D $ i..+D.I.++@+++++@+++I.D.#+i.i.#+D.I.++@+",
"  . . . . . . . . . . . . . . . . . . . . . . . O . % 7 F +.@.#.@.@.@.@.@.@.#.@.+.F 7 % h.r.$+H.%+%+%+%+%+%+H.$+r.h.h.r.$+H.%+%+",
"  . . . . . . . . . . . . . . . . . . . . . . . O . % 7 F +.@.#.@.@.@.@.@.@.#.@.+.F 7 % - h &+*+@.#.@.@.#.@.*+&+=+- - =+&+*+@.#.",
"  . . . . . . . . . . . . . . . . . . . . . . . o . $ D E F G G G G G G G G G G F E D $ -+i ;+>+G #.G G #.G >+;+,+-+-+,+;+>+G #.",
"  . . . . . . . . . . . . . . . . . . . + 4 o O U.O e 6.c b a 0 a 0 0 8 8 0 8 a b c d e e d c b a 8 0 8 8 0 7 c d e e d c b a 0 ",
"  . . . . . . . . . . . . . . . . . . . . . . . + . @ # $ % & & & & & & & & & & % $ # @ '+# $ % & & & & & & % $ # '+'+# $ % & & ",
"  . . . . . . . . . . . . . . . . . + . @ # $ % & & & & & & & & % $ # @ @ # $ % & & & & & & & & % $ # @ @ # $ % & & & & & & )+& ",
"  . . . . . . . . . . . . . . . . . 4 . # 5 6 7 8 9 8 0 0 a 0 a b c d e e d c b a 8 0 8 8 0 8 a b c d e e d c 7 0 8 8 0 0 a 0 a ",
"  . . . . . . . . . . . . . . . . . o . $ D E F G G G G G G G G F E D $ $ D E F G G G G G G G G F E D $ $ D E F G G G G G G @.G ",
"  . . . . . . . . . . . . . . . . . O . % 7 F +.@.#.@.@.@.@.#.@.+.F b % % b F +.@.#.@.@.@.@.#.@.+.F b % % b F +.@.#.@.@.@.@.!+@.",
"  . . . . . . . . . . . . . . . . . O . % 7 F +.@.#.@.@.@.@.#.@.+.F b % % b F +.@.#.@.@.@.@.#.@.+.F b % % b F +.@.#.@.@.@.@.!+@.",
"  . . . . . . . . . . . . . . . . . o . $ D E F G G G G G G G G F E D $ $ D E F G G G G G G G G F E D $ $ D E F G G G G G G @.G ",
"  . . . . . . . . . . . . . . . . . 4 . # 5 6 7 8 9 8 8 8 8 8 0 7 c d e e d c b a 8 0 0 8 8 9 8 7 6 ~+# # ~+6 7 8 9 8 0 0 a 0 a ",
"  . . . . . . . . . . . . . . . . . + . @ # $ % & & & & & & & & % $ # @ @ # $ % & & & & & & & & % $ # @ @ # $ % & & & & & & )+& ",
"  . . . . . . . . . . . . . . . . . . . . . . . . . . . + . * {+e.$.)+& & & & )+$.e.{+* . + . . . . . . . . . . + . @ # $ % & & ",
"  . . . . . . . . . . . . . . . . . . . + 4 o O O O O O U.O ]+g I %.0 8 8 0 8 a %.^+g ]+O U.O O O o 4 + + 4 o O U.O e 6.c b a 0 ",
"  . . . . . . . . . . . . . . . . . . . . . . . . . . . o . - /+(+_+z.G.@.@.G.z._+(+/+- . o . . . . . . . . . . o . $ D E F G G ",
"  . . . . . . . . . . . . . . . . . . . . . . . . . . . o . :+<+[+}+B.z.#.#.z.B.}+[+<+:+. o . . . . . . . . . . O . % 7 F +.@.#.",
"  . . . . . . . . . . . . . . . . . . . . . . . . . . . 4 . |+5 i /+q.%.9 9 %.q./+i 5 |+. 4 . . . . . . . . . . O . % 7 F +.@.#.",
"  . . . . . . . . . . . . . . . . . . . . . . . . . . . + . '+|+:+- g.f.& & f.g.- :+|+'+. + . . . . . . . . . . o . $ D E F G G ",
"  . . . . . . . . . . . . . . . . . . . . . . . . . . . . . . . . . . . . . . . . . . . . . . . . . . . . . . . 4 . # 5 6 7 8 9 ",
"  . . . . . . . . . . . . . . . . . . . . . . . . . . . . . + 4 o o x.O O O O x.o o 4 + . . . . . . . . . . . . + . @ # $ % & & ",
"  . . . . . . . . . . . . . . . . . . . . . . . . . . . . . . . . . . . . . . . . . . . . . . . . . . . . . . . . . . . . . . . ",
"  . . . . . . . . . . . . . . . . . . . . . . . . . . . . . . . . . . . . . . . . . . . . . . . . . . . . . . . . . + 4 o O O O ",
"  . . . . . . . . . . . . . . . . . . . . . . . . . . . . . . . . . . . . . . . . . . . . . . . . . . . . . . . . . . . . . . . ",
"  . . . . . . . . . . . . . . . . . . . . . . . . . . . . . . . . . . . . . . . . . . . . . . . . . . . . . . . . . . . . . . . ",
"  . . . . . . . . . . . . . . . . . . . . . . . . . . . . . . . . . . . . . . . . . . . . . . . . . . . . . . . . . . . . . . . ",
"  . . . . . . . . . . . . . . . . . . . . . . . . . . . . . . . . . . . . . . . . . . . . . . . . . . . . . . . . . . . . . . . ",
"  . . . . . . . . . . . . . . . . . . . . . . . . . . . . . . . . . . . . . . . . . . . . . . . . . . . . . . . . . . . . . . . ",
"  . . . . . . . . . . . . . . . . . . . . . . . . . . . . . . . . . . . . . . . . . . . . . . . . . . . . . . . . . . . . . . . ",
"  . . . . . . . . . . . . . . . . . . . . . . . . . . . . . . . . . . . . . . . . . . . . . . . . . . . . . . . . . . . . . . . ",
"  . . . . . . . . . . . . . . . . . . . . . . . . . . . . . . . . . . . . . . . . . . . . . . . . . . . . . . . . . . . . . . . ",
"  . . . . . . . . . . . . . . . . . . . . . . . . . . . . . . . . . . . . . . . . . . . . . . . . . . . . . . . . . . . . . . . ",
"  . . . . . . . . . . . . . . . . . . . . . . . . . . . . . . . . . . . . . . . . . . . . . . . . . . . . . . . . . . . . . . . ",
"  . . . . . . . . . . . . . . . . . . . . . . . . . . . . . . . . . . . . . . . . . . . . . . . . . . . . . . . . . . . . . . . ",
"  . . . . . . . . . . . . . . . . . . . . . . . . . . . . . . . . . . . . . . . . . . . . . . . . . . . . . . . . . . . . . . . ",
"  . . . . . . . . . . . . . . . . . . . . . . . . . . . . . . . . . . . . . . . . . . . . . . . . . . . . . . . . . . . . . . . ",
"                                                                                                                                "};
