/* XPM */
static char * wall_l_xpm[] = {
"64 64 199 2",
"  	c #3F3851",
". 	c #3B3751",
"+ 	c #774955",
"@ 	c #AF5F5B",
"# 	c #C86C5F",
"$ 	c #CD7162",
"% 	c #AE5F5B",
"& 	c #7A4D56",
"* 	c #B4675F",
"= 	c #CD7363",
"- 	c #CE7363",
"; 	c #C86B5E",
"> 	c #CA6C5F",
", 	c #C2645C",
"' 	c #B04F56",
") 	c #933E52",
"! 	c #663A51",
"~ 	c #6C3C50",
"{ 	c #9A414F",
"] 	c #9B414F",
"^ 	c #3A3751",
"/ 	c #3C3851",
"( 	c #855259",
"_ 	c #C87267",
": 	c #E27E6C",
"< 	c #E37F6D",
"[ 	c #E9977A",
"} 	c #F5BA8E",
"| 	c #FBCA97",
"1 	c #FBCB97",
"2 	c #FBC996",
"3 	c #FDD8A9",
"4 	c #FEECC2",
"5 	c #E0D8B8",
"6 	c #948F83",
"7 	c #B5685F",
"8 	c #B5675F",
"9 	c #CE7463",
"0 	c #C6695E",
"a 	c #B75354",
"b 	c #6A3B50",
"c 	c #B6685F",
"d 	c #B75454",
"e 	c #FBCA96",
"f 	c #FDD6A4",
"g 	c #FEE6B6",
"h 	c #E0D1AB",
"i 	c #948A7C",
"j 	c #683A51",
"k 	c #943F52",
"l 	c #3D3851",
"m 	c #FDD29F",
"n 	c #FDDCA9",
"o 	c #DFC79D",
"p 	c #948474",
"q 	c #6F4052",
"r 	c #A14D53",
"s 	c #BD5D58",
"t 	c #603953",
"u 	c #833957",
"v 	c #843A57",
"w 	c #FCCD9A",
"x 	c #FCD19D",
"y 	c #DDB990",
"z 	c #937B6D",
"A 	c #613A50",
"B 	c #883E4F",
"C 	c #A24E53",
"D 	c #543853",
"E 	c #6D3757",
"F 	c #6F3757",
"G 	c #3E3851",
"H 	c #FCCB97",
"I 	c #DCB188",
"J 	c #927669",
"K 	c #4D3851",
"L 	c #5F3950",
"M 	c #473852",
"N 	c #513753",
"O 	c #533853",
"P 	c #933F52",
"Q 	c #FDD5A4",
"R 	c #A24D53",
"S 	c #BA5755",
"T 	c #C05D57",
"U 	c #B85758",
"V 	c #A24658",
"W 	c #5E3853",
"X 	c #8A3F4F",
"Y 	c #A14E53",
"Z 	c #9E4650",
"` 	c #A54C52",
" .	c #9E4A54",
"..	c #883F58",
"+.	c #533753",
"@.	c #FDD9AC",
"#.	c #FEEFC8",
"$.	c #E0DBBE",
"%.	c #949186",
"&.	c #4D3951",
"*.	c #6D3C50",
"=.	c #714051",
"-.	c #6D3F52",
";.	c #613A53",
">.	c #463852",
",.	c #623A50",
"'.	c #6D3D50",
").	c #663E51",
"!.	c #513B51",
"~.	c #603A50",
"{.	c #893E4F",
"].	c #9E4550",
"^.	c #A54C51",
"/.	c #954A52",
"(.	c #694051",
"_.	c #B85051",
":.	c #BF5A55",
"<.	c #AB5656",
"[.	c #754553",
"}.	c #A64D52",
"|.	c #C05B56",
"1.	c #C7675C",
"2.	c #B2625C",
"3.	c #794B55",
"4.	c #3C3751",
"5.	c #754453",
"6.	c #AD5756",
"7.	c #C6655B",
"8.	c #CB6F60",
"9.	c #7B4D56",
"0.	c #E27E6D",
"a.	c #E89478",
"b.	c #F2B389",
"c.	c #F9C393",
"d.	c #FAC896",
"e.	c #FCCB98",
"f.	c #DDB289",
"g.	c #927769",
"h.	c #794A55",
"i.	c #CD7262",
"j.	c #E68D74",
"k.	c #EDA380",
"l.	c #F3B68B",
"m.	c #553853",
"n.	c #6E3757",
"o.	c #E27F6D",
"p.	c #E3806D",
"q.	c #E48670",
"r.	c #E89377",
"s.	c #EEA581",
"t.	c #F4B88C",
"u.	c #DAAA84",
"v.	c #907267",
"w.	c #E3816E",
"x.	c #E48671",
"y.	c #F9C493",
"z.	c #D4997A",
"A.	c #8D6862",
"B.	c #834E57",
"C.	c #C56A62",
"D.	c #E07969",
"E.	c #E37E6C",
"F.	c #E58771",
"G.	c #E99477",
"H.	c #EEA380",
"I.	c #F3B389",
"J.	c #F6BB8E",
"K.	c #F4B389",
"L.	c #CF8871",
"M.	c #8A5E5E",
"N.	c #3B3851",
"O.	c #7F4654",
"P.	c #BE5A59",
"Q.	c #D96B60",
"R.	c #E99478",
"S.	c #C9796A",
"T.	c #86565B",
"U.	c #703E51",
"V.	c #A44A53",
"W.	c #BC5A59",
"X.	c #C46A62",
"Y.	c #C77166",
"Z.	c #C77167",
"`.	c #C77267",
" +	c #AF6661",
".+	c #774C57",
"++	c #543A51",
"@+	c #855159",
"#+	c #855059",
"$+	c #584053",
"%+	c #FCD19E",
"&+	c #FDD4A1",
"*+	c #FEE2AF",
"=+	c #E0CDA3",
"-+	c #948877",
";+	c #FEE2B0",
">+	c #E0CEA4",
",+	c #948878",
"'+	c #E0D8B7",
"                                .   + @ # $ $ # % + & * = - - = * & + % ; > , ' ) ! ~ { ] ~ ^ / ( _ : < [ } | 1 | | 2 | 3 4 5 6 ",
"                                .   & 7 = - - = * & & 8 = 9 9 = 8 & & * = - 0 a { b ~ { ] ~ ^ / ( _ : < [ } | 1 | | 2 | 3 4 5 6 ",
"                                .   & c = 9 9 = 8 & & * = - - = * & & 8 9 9 0 d { b ~ { ] ~ ^ / ( _ : < [ } | 1 | | e | f g h i ",
"                                .   & 7 = - - = * & + % # $ $ # % + & * = - 0 a { b j ) k j ^ l ( _ : < [ } | 1 | | | | m n o p ",
"                                .   & 7 = - - = 8 & q r s # # s r q & 8 = - 0 a { b t u v t ^ l ( _ : < [ } | 1 | | | | w x y z ",
"                                .   & 7 = - - = 8 & A B C % % C B A & 8 = - 0 a { b D E F D ^ G ( _ : < [ } | 1 | | | | H | I J ",
"                                .   & 7 = - - = 7 & K L q + + q L K & 7 = - 0 a ] b M N O M ^   ( _ : < [ } | 1 | | | | H | I J ",
"                                .   & c = 9 9 = 7 & K L q + + q L K & 7 9 9 0 d ] b M N O M ^   ( _ : < [ } | 1 | | | | w x y z ",
"                                .   & 7 = - - = 8 & A B C % % C B A & 8 = - 0 a { b D E F D ^ G ( _ : < [ } | 1 | | | | m n o p ",
"                                .   + @ # $ $ # @ + q r s # # s r q + @ ; > , ' P ! t u v t ^ l ( _ : < [ } | 1 | | | | Q g h i ",
"                                /   q R s # # s r q + @ # $ $ # @ + q r S T U V u W j P k j ^ l ( _ : < [ } | 1 | | 2 | 3 4 5 6 ",
"                                l   A X C @ @ Y B A & 8 = - - = 8 & A B Z `  ...E +.~ { ] ~ ^ / ( _ : < [ } | 1 | | 2 | @.#.$.%.",
"                                G   K A q + + q L K & 7 = 9 9 = 7 & &.L *.=.-.;.N >.~ ] ] ~ ^ / ( _ : < [ } | 1 | | 2 | @.#.$.%.",
"                                    G   &.,.'.=.).!.& 8 = - - = 7 & &.L *.=.-.;.N >.~ ] ] ~ ^ / ( _ : < [ } | 1 | | 2 | 3 4 5 6 ",
"                                    / l ~.{.].^./.(.& 8 = - - = 8 & A B Z `  ...E +.~ { ] ~ ^ / ( _ : < [ } | 1 | | | | Q g h i ",
"                                    /   '.]._.:.<.[.& 7 = 9 9 = 7 & q r S T U V u W ~ { ] ~ ^ / ( _ : < [ } | 1 | | | | m n o p ",
"                                    /   =.}.|.1.2.3.& * = - - = * & + % ; > , ' ) ! ~ { ] ~ ^ / ( _ : < [ } | 1 | | | | w x y z ",
"                                    4.  5.6.7.8.* 9.+ % # $ $ # % + & * = - 0 a { b j ) k j ^ l ( _ 0.< a.b.c.d.| | | | e.| f.g.",
"                                    .   h.2.8.i.7 & q r s # # s r q & 7 9 9 0 d { b t u v t ^ l ( _ 0.< j.k.l.c.| | | | H | I J ",
"                                    .   & 7 - - 8 & A B C % % C B A & 8 = - 0 a { b m.n.F m.^ G ( _ o.p.q.r.s.t.c.d.1 1 2 c.u.v.",
"                                    .   & c 9 - 7 & K L q + + q L K & 7 = - 0 a ] b M N O M ^   ( _ o.< w.x.r.s.l.c.| | y.l.z.A.",
"                                    .   & c 9 - 7 & K L q + + q L K & 7 = - 0 a ] b   /     ^   B.C.D.E.< p.F.G.H.I.J.J.K.H.L.M.",
"                                    .   & 7 - - 8 & A B C % % C B A & 8 = - 0 a ] b   N.G   .   O.P.Q.D.o.o.w.q.j.a.[ [ R.j.S.T.",
"                                    .   h.2.8.i.7 & q r s # # s r q & 7 9 9 0 d ] b   /     /   U.V.W.X.Y.Z.Y.Y.Y.Y.Y.Y.`.Y. +.+",
"                                    4.  5.6.7.8.* 9.+ % # $ $ # % + & * = - 0 a ] b   /     G   ++U.O.B.( ( ( ( @+#+#+#+@+@+.+$+",
"                                    /   =.}.|.1.2.3.& * = - - = * & + % ; > , ' k !   l     G   ++U.O.B.( ( ( ( @+#+#+#+@+@+.+$+",
"                                    /   '.]._.:.<.[.& 7 = 9 9 = 7 & q r S T U V v W   l     /   U.V.W.X.Y.Z.Y.Y.Y.Y.Y.Y.`.Y. +.+",
"                                    / l ~.{.].^./.(.& 8 = - - = 8 & A B Z `  ...F +.  G     .   O.P.Q.D.o.o.w.q.j.a.[ [ R.j.S.T.",
"                                    G   &.,.'.=.).!.& 8 = - - = 7 & &.L *.=.-.;.O >.        ^   B.C.D.E.< p.F.G.H.I.J.J.K.H.L.M.",
"                                G   K A q + + q L K & 7 = - - = 7 & &.L *.=.-.;.O >.        ^   ( _ o.< w.x.r.s.l.c.| | y.l.z.A.",
"                                l   A X C @ @ Y B A & 8 = - - = 8 & A B Z `  ...F +.  G     ^   ( _ o.p.q.r.s.t.c.d.1 1 2 c.u.v.",
"                                /   q R s # # s r q & 8 = - - = 8 & q r S T U V v W   l     ^   ( _ 0.< j.k.l.c.| | | | H | I J ",
"                                .   + @ # $ $ # % + & * = - - = * & + % ; > , ' k !   l     ^   ( _ 0.< a.b.c.d.| | | | e.| f.g.",
"                                .   & 7 = - - = * & & 8 = 9 9 = 8 & & * = - 0 a ] b   /     ^   ( _ : < [ } | 1 | | | | w %+y z ",
"                                .   & c = 9 9 = 8 & & * = - - = * & & 8 9 9 0 d ] b   /     ^   ( _ : < [ } | 1 | | | | m n o p ",
"                                .   & 7 = - - = * & + % # $ $ # % + & * = - 0 a ] b   /     ^   ( _ : < [ } | 1 | | | | &+*+=+-+",
"                                .   & 7 = - - = 8 & q r s # # s r q & 8 = - 0 a ] b   /     ^   ( _ : < [ } | 1 | | | | &+;+>+,+",
"                                .   & 7 = - - = 8 & A B C % % C B A & 8 = - 0 a ] b   N.G   ^   ( _ : < [ } | 1 | | e | f g h i ",
"                                .   & 7 = - - = 7 & K L q + + q L K & 7 = - 0 a ] b   /     ^   ( _ : < [ } | 1 | | 2 | 3 4 '+6 ",
"                                .   & c = 9 9 = 7 & K L q + + q L K & 7 9 9 0 d ] b M N O M ^   ( _ : < [ } | 1 | | 2 | 3 4 5 6 ",
"                                .   & 7 = - - = 8 & A B C % % C B A & 8 = - 0 a { b m.n.F m.^ G ( _ : < [ } | 1 | | e | f g h i ",
"                                .   + @ # $ $ # @ + q r s # # s r q + @ ; > , ' P ! t u v t ^ l ( _ : < [ } | 1 | | | | m n o p ",
"                                /   q R s # # s r q + @ # $ $ # @ + q r S T U V u W j P k j ^ l ( _ : < [ } | 1 | | | | w x y z ",
"                                l   A X C @ @ Y B A & 8 = - - = 8 & A B Z `  ...E +.~ { ] ~ ^ / ( _ 0.< a.b.c.d.| | | | e.| f.g.",
"                                G   K A q + + q L K & 7 = 9 9 = 7 & &.L *.=.-.;.N >.~ ] ] ~ ^ / ( _ 0.< j.k.l.c.| | | | H | I J ",
"                                    G   &.,.'.=.).!.& 8 = - - = 7 & &.L *.=.-.;.N >.~ ] ] ~ ^ / ( _ o.p.q.r.s.t.c.d.1 1 2 c.u.v.",
"                                    / l ~.{.].^./.(.& 8 = - - = 8 & A B Z `  ...E +.~ { ] ~ ^ / ( _ o.< w.x.r.s.l.c.| | y.l.z.A.",
"                                    /   '.]._.:.<.[.& 7 = 9 9 = 7 & q r S T U V u W ~ { ] ~ ^ / B.C.D.E.< p.F.G.H.I.J.J.K.H.L.M.",
"                                    /   =.}.|.1.2.3.& * = - - = * & + % ; > , ' ) ! ~ { ] ~ . / O.P.Q.D.o.o.w.q.j.a.[ [ R.j.S.T.",
"                                    4.  5.6.7.8.* 9.+ % # $ $ # % + & * = - 0 a { b j ) k j / l U.V.W.X.Y.Z.Y.Y.Y.Y.Y.Y.`.Y. +.+",
"                                    .   h.2.8.i.7 & q r s # # s r q & 7 9 9 0 d { b t u v t G l ++U.O.B.( ( ( ( @+#+#+#+@+@+.+$+",
"                                    .   & 7 - - 8 & A B C % % C B A & 8 = - 0 a { b D E F D G G ++U.O.B.( ( ( ( @+#+#+#+@+@+.+$+",
"                                    .   & c 9 - 7 & K L q + + q L K & 7 = - 0 a ] b M N O M /   U.V.W.X.Y.Z.Y.Y.Y.Y.Y.Y.`.Y. +.+",
"                                    .   & c 9 - 7 & K L q + + q L K & 7 = - 0 a ] b M N O M .   O.P.Q.D.o.o.w.q.j.a.[ [ R.j.S.T.",
"                                    .   & 7 - - 8 & A B C % % C B A & 8 = - 0 a { b D E F D ^ G B.C.D.E.< p.F.G.H.I.J.J.K.H.L.M.",
"                                    .   h.2.8.i.7 & q r s # # s r q & 7 9 9 0 d { b t u v t ^ l ( _ o.< w.x.r.s.l.c.| | y.l.z.A.",
"                                    4.  5.6.7.8.* 9.+ % # $ $ # % + & * = - 0 a { b j ) k j ^ l ( _ o.p.q.r.s.t.c.d.1 1 2 c.u.v.",
"                                    /   =.}.|.1.2.3.& * = - - = * & + % ; > , ' ) ! ~ { ] ~ ^ / ( _ 0.< j.k.l.c.| | | | H | I J ",
"                                    /   '.]._.:.<.[.& 7 = 9 9 = 7 & q r S T U V u W ~ { ] ~ ^ / ( _ 0.< a.b.c.d.| | | | e.| f.g.",
"                                    / l ~.{.].^./.(.& 8 = - - = 8 & A B Z `  ...E +.~ { ] ~ ^ / ( _ : < [ } | 1 | | | | w x y z ",
"                                    G   &.,.'.=.).!.& 8 = - - = 7 & &.L *.=.-.;.N >.~ ] ] ~ ^ / ( _ : < [ } | 1 | | | | m n o p ",
"                                G   K A q + + q L K & 7 = - - = 7 & &.L *.=.-.;.N >.~ ] ] ~ ^ / ( _ : < [ } | 1 | | e | f g h i ",
"                                l   A X C @ @ Y B A & 8 = - - = 8 & A B Z `  ...E +.~ { ] ~ ^ / ( _ : < [ } | 1 | | 2 | 3 4 5 6 ",
"                                /   q R s # # s r q & 8 = - - = 8 & q r S T U V u W ~ { ] ~ ^ / ( _ : < [ } | 1 | | 2 | 3 4 5 6 "};
